<svg viewBox="0 0 45 45" fill="none" xmlns="http://www.w3.org/2000/svg">
<circle cx="22.5" cy="22.5" r="22.5" fill="#D6607A"/>
<path d="M32.172 19.7602L29.0518 18.7712C28.6354 18.355 26.3836 16.2473 23.0493 15.7828C23.0168 15.7781 22.9838 15.7781 22.9514 15.7828C19.6171 16.2473 17.3654 18.355 16.9488 18.7712L13.8286 19.7602C12.9864 20.0271 12.251 20.5552 11.7291 21.2681C11.2071 21.981 10.9258 22.8416 10.9258 23.7251C10.9258 24.6086 11.2071 25.4692 11.7291 26.1821C12.251 26.8949 12.9864 27.4231 13.8286 27.69L16.9915 28.6924C18.8286 29.7128 20.8989 30.2394 23.0003 30.2207C25.1017 30.2394 27.172 29.7128 29.0092 28.6924L32.172 27.69C33.0143 27.4231 33.7497 26.8949 34.2716 26.1821C34.7935 25.4692 35.0749 24.6086 35.0749 23.7251C35.0749 22.8416 34.7935 21.981 34.2716 21.2681C33.7497 20.5552 33.0143 20.0271 32.172 19.7602ZM17.2482 28.0274L14.0431 27.0118C13.345 26.7903 12.7354 26.3524 12.3029 25.7613C11.8703 25.1703 11.6371 24.4569 11.6371 23.7245C11.6371 22.9921 11.8703 22.2787 12.3029 21.6876C12.7354 21.0966 13.345 20.6586 14.0431 20.4372L17.2482 19.4216C17.3058 19.4034 17.3577 19.3708 17.3991 19.3269C17.4207 19.3044 19.4999 17.1435 22.6449 16.5533V29.5039C20.7836 29.4624 18.9602 28.9693 17.3317 28.067C17.3057 28.0505 17.2776 28.0374 17.2482 28.028V28.0274ZM31.9575 27.0118L28.7524 28.0274C28.723 28.0367 28.695 28.0499 28.6689 28.0664C27.0414 28.9712 25.2175 29.4647 23.3558 29.5039V16.5537C26.5008 17.1439 28.58 19.3048 28.6015 19.3273C28.6429 19.3712 28.6949 19.4038 28.7524 19.422L31.9575 20.4376C32.6557 20.659 33.2652 21.097 33.6978 21.688C34.1304 22.2791 34.3636 22.9925 34.3636 23.7249C34.3636 24.4573 34.1304 25.1707 33.6978 25.7617C33.2652 26.3528 32.6557 26.7907 31.9575 27.0122V27.0118Z" fill="white"/>
<path d="M15.3844 20.865L14.289 21.2123C13.7236 21.3907 13.235 21.7548 12.9024 22.2456C12.5698 22.7364 12.4126 23.3251 12.4564 23.9163C12.505 24.4515 12.7118 24.9601 13.0505 25.3774C13.3892 25.7946 13.8443 26.1017 14.3581 26.2594L15.3844 26.5844C15.5202 26.6275 15.6617 26.6495 15.8041 26.6496C16.0389 26.65 16.2699 26.5895 16.4743 26.4739C16.6787 26.3584 16.8496 26.1917 16.9702 25.9902C17.3715 25.3026 17.5829 24.5207 17.5829 23.7246C17.5829 22.9284 17.3715 22.1466 16.9702 21.4589C16.8119 21.1953 16.5689 20.9931 16.281 20.8853C15.993 20.7774 15.677 20.7703 15.3844 20.865ZM16.3609 25.6246C16.2844 25.7507 16.1675 25.8473 16.0292 25.8986C15.8909 25.9498 15.7394 25.9529 15.5992 25.9072L14.5728 25.5822C14.1945 25.4682 13.8587 25.2441 13.6081 24.9387C13.3575 24.6332 13.2035 24.2601 13.1657 23.8668C13.1335 23.4348 13.2481 23.0046 13.4909 22.6459C13.7338 22.2872 14.0906 22.0211 14.5037 21.8906L15.5992 21.5434C15.7394 21.4975 15.891 21.5004 16.0294 21.5517C16.1677 21.603 16.2846 21.6997 16.3609 21.826C16.6955 22.403 16.8717 23.0582 16.8717 23.7252C16.8717 24.3922 16.6955 25.0474 16.3609 25.6244V25.6246Z" fill="white"/>
<path d="M31.7128 21.2124L30.6184 20.865C30.3258 20.7703 30.0097 20.7774 29.7217 20.8853C29.4337 20.9932 29.1907 21.1955 29.0324 21.4592C28.6313 22.1469 28.4199 22.9288 28.4199 23.7249C28.4199 24.5211 28.6313 25.3029 29.0324 25.9907C29.1531 26.1921 29.3241 26.3587 29.5285 26.4743C29.7329 26.5899 29.9639 26.6504 30.1987 26.65C30.3411 26.6499 30.4826 26.628 30.6184 26.5848L31.6447 26.2598C32.1585 26.1021 32.6137 25.7951 32.9523 25.3778C33.291 24.9606 33.4978 24.452 33.5464 23.9168C33.5902 23.3253 33.433 22.7364 33.1001 22.2455C32.7673 21.7547 32.2784 21.3906 31.7128 21.2124ZM32.8361 23.8664C32.7983 24.2597 32.6443 24.6329 32.3937 24.9384C32.1432 25.2439 31.8073 25.468 31.429 25.582L30.4026 25.907C30.2624 25.9527 30.1107 25.9497 29.9724 25.8984C29.8341 25.847 29.7172 25.7504 29.6407 25.6242C29.3062 25.0472 29.1301 24.392 29.1301 23.725C29.1301 23.058 29.3062 22.4029 29.6407 21.8258C29.6987 21.7297 29.7807 21.6502 29.8785 21.5952C29.9764 21.5402 30.0868 21.5114 30.1991 21.5118C30.268 21.5119 30.3365 21.5226 30.4022 21.5435L31.4977 21.8906C31.9107 22.021 32.2676 22.287 32.5105 22.6456C32.7534 23.0042 32.8682 23.4343 32.8361 23.8662V23.8664Z" fill="white"/>
<path d="M21.2173 23.3696H19.6055C19.5112 23.3696 19.4208 23.4071 19.3541 23.4737C19.2875 23.5404 19.25 23.6308 19.25 23.7251C19.25 23.8194 19.2875 23.9098 19.3541 23.9765C19.4208 24.0431 19.5112 24.0806 19.6055 24.0806H21.2173C21.3115 24.0806 21.402 24.0431 21.4686 23.9765C21.5353 23.9098 21.5727 23.8194 21.5727 23.7251C21.5727 23.6308 21.5353 23.5404 21.4686 23.4737C21.402 23.4071 21.3115 23.3696 21.2173 23.3696Z" fill="white"/>
<path d="M20.1523 21.5117H21.2179C21.3122 21.5117 21.4026 21.4743 21.4693 21.4076C21.536 21.3409 21.5734 21.2505 21.5734 21.1562C21.5734 21.062 21.536 20.9716 21.4693 20.9049C21.4026 20.8382 21.3122 20.8008 21.2179 20.8008H20.1523C20.0581 20.8008 19.9677 20.8382 19.901 20.9049C19.8343 20.9716 19.7969 21.062 19.7969 21.1562C19.7969 21.2505 19.8343 21.3409 19.901 21.4076C19.9677 21.4743 20.0581 21.5117 20.1523 21.5117Z" fill="white"/>
<path d="M21.2179 25.9385H20.1523C20.0581 25.9385 19.9677 25.9759 19.901 26.0426C19.8343 26.1093 19.7969 26.1997 19.7969 26.2939C19.7969 26.3882 19.8343 26.4786 19.901 26.5453C19.9677 26.612 20.0581 26.6494 20.1523 26.6494H21.2179C21.3122 26.6494 21.4026 26.612 21.4693 26.5453C21.536 26.4786 21.5734 26.3882 21.5734 26.2939C21.5734 26.1997 21.536 26.1093 21.4693 26.0426C21.4026 25.9759 21.3122 25.9385 21.2179 25.9385Z" fill="white"/>
<path d="M26.395 23.3696H24.7832C24.6889 23.3696 24.5985 23.4071 24.5318 23.4737C24.4652 23.5404 24.4277 23.6308 24.4277 23.7251C24.4277 23.8194 24.4652 23.9098 24.5318 23.9765C24.5985 24.0431 24.6889 24.0806 24.7832 24.0806H26.395C26.4893 24.0806 26.5797 24.0431 26.6464 23.9765C26.713 23.9098 26.7505 23.8194 26.7505 23.7251C26.7505 23.6308 26.713 23.5404 26.6464 23.4737C26.5797 23.4071 26.4893 23.3696 26.395 23.3696Z" fill="white"/>
<path d="M24.7832 21.5117H25.8488C25.9431 21.5117 26.0335 21.4743 26.1002 21.4076C26.1668 21.3409 26.2043 21.2505 26.2043 21.1562C26.2043 21.062 26.1668 20.9716 26.1002 20.9049C26.0335 20.8382 25.9431 20.8008 25.8488 20.8008H24.7832C24.6889 20.8008 24.5985 20.8382 24.5318 20.9049C24.4652 20.9716 24.4277 21.062 24.4277 21.1562C24.4277 21.2505 24.4652 21.3409 24.5318 21.4076C24.5985 21.4743 24.6889 21.5117 24.7832 21.5117Z" fill="white"/>
<path d="M25.8488 25.9385H24.7832C24.6889 25.9385 24.5985 25.9759 24.5318 26.0426C24.4652 26.1093 24.4277 26.1997 24.4277 26.2939C24.4277 26.3882 24.4652 26.4786 24.5318 26.5453C24.5985 26.612 24.6889 26.6494 24.7832 26.6494H25.8488C25.9431 26.6494 26.0335 26.612 26.1002 26.5453C26.1668 26.4786 26.2043 26.3882 26.2043 26.2939C26.2043 26.1997 26.1668 26.1093 26.1002 26.0426C26.0335 25.9759 25.9431 25.9385 25.8488 25.9385Z" fill="white"/>
</svg>
