<svg width="1440" height="1024" viewBox="0 0 1440 1024" fill="none" xmlns="http://www.w3.org/2000/svg">
<g clip-path="url(#clip0_407_4853)">
<g clip-path="url(#clip1_407_4853)">
<path fill-rule="evenodd" clip-rule="evenodd" d="M1372.87 63.7243C1375.12 63.7243 1377.77 65.1452 1377.87 67.8856C1377.88 68.7604 1377.6 69.6136 1377.09 70.3242C1376.57 71.0348 1375.85 71.5666 1375.01 71.8439C1373.16 72.2484 1371.24 72.2484 1369.39 71.8439C1363.79 70.8822 1358.37 69.0318 1353.35 66.3632C1349.08 64.0942 1345.15 61.2226 1341.71 57.8376C1341.71 64.4349 1341.71 70.9304 1342.32 77.5277C1352.54 79.9636 1362.75 83.0085 1372.97 85.5459C1375.12 86.1549 1377.57 87.3728 1377.36 90.1132C1377.27 90.9686 1376.91 91.7755 1376.35 92.4277C1375.78 93.0799 1375.03 93.5468 1374.2 93.767C1372.41 94.1714 1370.56 94.1714 1368.78 93.767C1363.59 92.4026 1358.61 90.3545 1353.97 87.6772C1349.7 85.3082 1345.78 82.3715 1342.32 78.9486C1342.32 84.0234 1342.32 89.0982 1343.14 94.0715C1353.31 98.5786 1363.84 102.278 1374.6 105.134C1376.85 105.743 1379.61 106.961 1379.61 109.702C1379.49 110.565 1379.12 111.375 1378.54 112.026C1377.96 112.677 1377.19 113.14 1376.34 113.356C1374.39 113.764 1372.37 113.764 1370.42 113.356C1364.63 111.895 1359.13 109.457 1354.17 106.15C1350.06 103.302 1346.38 99.8842 1343.24 95.9999C1343.24 101.887 1344.06 107.672 1344.57 113.559C1354.32 118.337 1364.61 121.948 1375.22 124.317C1377.36 124.317 1380.12 125.84 1380.22 128.58C1380.21 129.467 1379.9 130.325 1379.35 131.021C1378.79 131.718 1378.02 132.215 1377.16 132.437C1375.24 132.894 1373.25 132.894 1371.33 132.437C1365.52 131.206 1360 128.862 1355.09 125.535C1351.13 122.752 1347.67 119.319 1344.87 115.386C1345.28 120.528 1345.79 125.704 1346.41 130.914V131.929C1357.52 137 1368.91 141.439 1380.53 145.225C1382.88 146.037 1385.74 147.458 1385.54 150.199C1385.4 151.101 1384.97 151.931 1384.3 152.557C1383.63 153.183 1382.77 153.568 1381.86 153.649C1379.75 153.736 1377.64 153.461 1375.63 152.837C1369.67 150.904 1364.03 148.136 1358.87 144.616C1354.27 141.417 1350.11 137.629 1346.51 133.35C1347.12 138.527 1347.73 143.5 1348.45 148.879C1353.05 151.822 1357.75 154.664 1362.55 157.303C1368.04 160.208 1373.71 162.784 1379.51 165.017C1381.76 165.93 1384.51 167.453 1384.21 170.193C1384.05 171.082 1383.58 171.888 1382.89 172.479C1382.21 173.07 1381.34 173.409 1380.43 173.441C1378.3 173.474 1376.18 173.094 1374.2 172.325C1368.27 169.891 1362.8 166.457 1358.05 162.175C1354.53 159.236 1351.43 155.819 1348.86 152.026C1349.78 158.826 1350.8 165.626 1351.82 172.325C1356.21 175.674 1360.81 178.922 1365.51 181.865C1370.97 185.256 1376.67 188.242 1382.57 190.797C1384.92 191.812 1387.78 193.436 1387.38 196.176C1387.17 197.071 1386.66 197.869 1385.94 198.441C1385.21 199.012 1384.32 199.323 1383.39 199.322C1382.28 199.295 1381.18 199.124 1380.12 198.815L1376.95 197.8C1370.92 195.147 1365.42 191.433 1360.71 186.839C1357.59 183.791 1354.84 180.383 1352.54 176.689C1353.56 182.779 1354.58 188.868 1355.7 194.958C1363.61 201.61 1372.55 206.956 1382.16 210.791C1384.21 211.705 1386.56 213.126 1386.25 215.866C1386.08 216.743 1385.63 217.541 1384.97 218.144C1384.31 218.747 1383.47 219.123 1382.57 219.216H1379.61L1376.85 218.302C1371.47 215.914 1366.64 212.46 1362.65 208.153C1360.57 205.843 1358.79 203.286 1357.34 200.54C1358.56 206.833 1359.79 213.126 1361.12 219.419C1368.91 226.204 1377.7 231.782 1387.17 235.962C1389.11 236.774 1391.36 238.195 1390.95 240.936C1390.76 241.784 1390.32 242.557 1389.68 243.154C1389.04 243.75 1388.24 244.144 1387.38 244.285H1384.51C1383.6 244.058 1382.72 243.752 1381.86 243.372C1376.64 241.01 1372 237.546 1368.27 233.222C1365.61 230.209 1363.47 226.78 1361.94 223.073C1363.06 228.452 1364.18 233.831 1365.41 239.21C1373.29 246.074 1380.17 254 1385.84 262.757C1386.63 263.617 1387.07 264.74 1387.07 265.904C1387.07 267.068 1386.63 268.19 1385.84 269.05C1385.18 269.591 1384.37 269.928 1383.52 270.018C1382.67 270.108 1381.8 269.948 1381.04 269.557C1379.63 268.624 1378.38 267.457 1377.36 266.107C1372.81 259.846 1369.1 253.022 1366.33 245.807C1367.04 249.258 1367.86 252.709 1368.68 255.957C1375.22 266.677 1380.21 278.26 1383.49 290.364C1384.21 292.901 1384.31 296.352 1381.35 297.672C1380.37 298.022 1379.32 298.094 1378.31 297.878C1377.3 297.663 1376.37 297.169 1375.63 296.454C1374.28 294.894 1373.3 293.057 1372.77 291.075C1369.32 280.14 1367.63 268.734 1367.76 257.277C1367.25 255.551 1366.84 253.724 1366.33 251.999C1366.88 260.675 1366.5 269.384 1365.2 277.982C1365.2 280.113 1363.77 282.752 1361.02 282.752C1360.16 282.693 1359.35 282.395 1358.66 281.892C1357.97 281.389 1357.44 280.701 1357.13 279.91C1356.78 278.237 1356.78 276.508 1357.13 274.835C1358.31 265.054 1361.07 255.525 1365.31 246.619C1363.16 238.398 1361.22 229.974 1359.38 221.652C1359.54 226.844 1358.99 232.033 1357.75 237.079C1356.23 243.135 1353.93 248.969 1350.9 254.435C1349.78 256.668 1347.53 259.103 1344.97 258.089C1344.17 257.687 1343.51 257.057 1343.08 256.279C1342.64 255.501 1342.45 254.612 1342.52 253.724C1342.8 251.927 1343.35 250.182 1344.16 248.548C1346.81 243.473 1349.06 238.398 1351.41 234.136C1353.76 229.873 1356.21 224.899 1358.97 219.419C1357.85 214.242 1356.72 209.269 1355.7 203.687C1354.88 214.11 1352.03 224.277 1347.32 233.628C1346.3 235.759 1344.26 238.094 1341.71 237.282C1340.9 236.946 1340.21 236.382 1339.72 235.661C1339.23 234.94 1338.96 234.092 1338.95 233.222C1339.06 231.417 1339.55 229.655 1340.38 228.046C1344.58 218.556 1349.5 209.395 1355.09 200.642C1353.76 193.334 1352.43 186.027 1351.31 178.719C1351.7 184.466 1351.08 190.236 1349.47 195.77C1347.74 201.869 1345.05 207.659 1341.5 212.923C1340.07 215.054 1337.52 217.287 1335.06 215.968C1334.33 215.499 1333.76 214.824 1333.41 214.028C1333.06 213.233 1332.96 212.354 1333.12 211.502C1333.56 209.74 1334.29 208.06 1335.27 206.529C1338.23 201.657 1340.79 197.191 1343.24 192.624C1345.69 188.057 1348.35 183.286 1351.11 177.501C1351.11 175.268 1350.39 173.137 1350.08 170.904C1350.06 170.633 1350.06 170.362 1350.08 170.092L1348.24 157.811C1348.11 164.007 1346.97 170.141 1344.87 175.979C1342.45 182.685 1339 188.983 1334.66 194.654C1332.92 196.988 1329.85 199.322 1327.61 197.902C1326.87 197.332 1326.33 196.543 1326.07 195.648C1325.81 194.753 1325.85 193.8 1326.18 192.928C1326.88 191.048 1327.85 189.273 1329.04 187.651C1332.82 182.373 1335.98 177.501 1339.25 172.426C1342.56 167.102 1345.6 161.614 1348.35 155.984C1348.35 153.142 1347.63 150.402 1347.22 147.56V146.951C1347.22 143.906 1346.51 140.963 1346.1 137.918C1345.27 143.091 1343.68 148.116 1341.4 152.837C1337.91 159.766 1333.2 166.022 1327.5 171.31C1325.26 173.441 1321.88 175.369 1319.74 173.644C1319.09 172.962 1318.68 172.089 1318.57 171.157C1318.46 170.224 1318.65 169.281 1319.13 168.468C1319.6 167.554 1320.18 166.702 1320.86 165.93C1321.5 165.054 1322.22 164.238 1323.01 163.494C1327.26 158.88 1331.25 154.034 1334.96 148.981C1338.69 144.265 1342.1 139.315 1345.18 134.162C1345.18 133.046 1345.18 131.929 1345.18 130.813C1345.18 126.347 1344.26 121.881 1343.75 117.416C1342.63 123.274 1340.53 128.903 1337.52 134.061C1334.24 139.937 1330.03 145.249 1325.05 149.793C1323.11 151.62 1320.05 153.345 1317.9 151.62C1317.29 150.957 1316.9 150.129 1316.77 149.242C1316.64 148.355 1316.79 147.451 1317.18 146.646C1318.04 144.918 1319.22 143.368 1320.66 142.079C1324.85 137.715 1328.53 133.756 1332.31 129.595C1336.09 125.434 1339.56 121.374 1343.65 116.198L1342.42 102.597C1337.16 112.188 1329.79 120.478 1320.86 126.855C1319.13 128.174 1316.37 129.29 1314.53 126.855C1313.97 126.209 1313.59 125.424 1313.45 124.583C1313.3 123.742 1313.4 122.878 1313.71 122.084C1314.61 120.677 1315.71 119.411 1316.98 118.329C1324.6 112.231 1332.74 106.798 1341.3 102.09C1340.79 96.3043 1340.38 90.5192 1339.97 84.6325C1334.63 94.1009 1326.88 102.01 1317.49 107.57C1315.45 108.788 1312.48 109.702 1310.85 107.57C1310.4 106.857 1310.16 106.03 1310.16 105.185C1310.16 104.341 1310.4 103.514 1310.85 102.8C1311.88 101.422 1313.16 100.251 1314.63 99.3493C1319.02 96.4059 1323.01 93.7671 1327.2 91.1282L1339.97 83.4144C1339.97 77.9337 1339.25 72.3515 1338.95 66.8708C1336.69 71.0746 1333.76 74.8809 1330.26 78.1368C1326 82.3074 1321.06 85.7381 1315.65 88.2863C1313.51 89.3013 1310.34 89.7072 1309.11 87.3728C1308.63 86.6682 1308.38 85.8376 1308.38 84.9876C1308.38 84.1376 1308.63 83.307 1309.11 82.6024C1310.23 81.3616 1311.58 80.36 1313.1 79.6591C1317.8 77.2232 1321.88 74.9904 1326.07 72.5545C1330.26 70.1186 1333.84 68.1901 1338.33 65.3482C1338.33 59.3262 1338.13 53.3379 1337.72 47.3835C1335.1 52.1488 1331.64 56.4108 1327.5 59.969C1323.32 63.6913 1318.61 66.7703 1313.51 69.1035C1311.46 70.017 1308.5 70.4231 1307.17 68.0887C1306.74 67.367 1306.51 66.543 1306.51 65.7035C1306.51 64.864 1306.74 64.04 1307.17 63.3183C1308.28 62.1419 1309.6 61.1785 1311.05 60.4765L1336.9 47.1806C1336.9 43.1207 1336.9 38.9594 1336.9 34.8995C1335.06 39.4076 1332.15 43.4102 1328.42 46.5716C1323.82 50.5502 1318.26 53.2775 1312.28 54.4883C1311.01 54.8439 1309.67 54.8439 1308.4 54.4883C1307.81 54.3458 1307.28 54.0409 1306.87 53.6095C1306.45 53.1782 1306.17 52.6381 1306.05 52.0523C1305.93 51.2127 1306.03 50.3564 1306.36 49.5715C1306.68 48.7865 1307.21 48.1013 1307.89 47.5865C1308.52 47.1381 1309.21 46.7635 1309.93 46.47C1310.65 46.1562 1311.41 45.9182 1312.18 45.7596C1316.58 44.4388 1320.85 42.7408 1324.95 40.6849C1326.99 39.6699 1329.04 38.5533 1331.18 37.2339C1333.19 36.0267 1335.1 34.6696 1336.9 33.1741C1336.9 28.2008 1336.9 23.0245 1336.9 18.2543C1332.16 25.2464 1325.44 30.6858 1317.59 33.8847C1317.14 34.1458 1316.64 34.3112 1316.12 34.3705C1315.6 34.4298 1315.08 34.3815 1314.58 34.2289C1314.08 34.0764 1313.62 33.8228 1313.22 33.484C1312.83 33.1453 1312.51 32.7287 1312.28 32.2607C1311.9 31.5602 1311.69 30.7749 1311.69 29.977C1311.69 29.1791 1311.9 28.394 1312.28 27.6934C1313.1 26.6571 1314.15 25.8233 1315.35 25.2575C1319.02 23.5321 1322.4 22.1111 1325.56 20.7916C1328.73 19.4722 1332.41 18.3558 1336.49 17.0364C1336.49 8.30773 1336.49 -0.319473 1337.52 -9.0481C1337.52 -10.3675 1339.87 -10.266 1339.87 -9.0481C1339.87 1.0338 1339.87 11.1834 1339.87 21.4006C1348.12 21.4272 1356.36 20.7481 1364.49 19.3707C1365.45 19.1052 1366.48 19.2081 1367.37 19.6592C1368.26 20.1103 1368.94 20.8768 1369.29 21.8067C1369.59 22.5693 1369.67 23.3985 1369.53 24.2039C1369.38 25.0093 1369.02 25.76 1368.47 26.3739C1367.24 27.3698 1365.76 28.0026 1364.18 28.2008C1359.67 29.0077 1355.03 28.8347 1350.59 27.6934C1346.94 26.6538 1343.48 25.0065 1340.38 22.8215C1340.38 28.4038 1340.38 34.0875 1340.38 39.7713C1349.47 39.7713 1358.77 39.7713 1367.25 39.7713C1369.19 39.7713 1371.54 40.4819 1371.85 43.2223C1371.97 44.0537 1371.84 44.902 1371.47 45.6604C1371.11 46.4188 1370.53 47.0536 1369.8 47.485C1368.36 48.1395 1366.79 48.4522 1365.2 48.3985C1356.37 48.2292 1347.77 45.591 1340.38 40.7863C1340.38 46.1656 1340.38 50.9359 1340.38 56.8226C1352.13 59.6645 1362.85 62.1003 1372.87 63.7243Z" fill="#5EAD41"/>
<path fill-rule="evenodd" clip-rule="evenodd" d="M1214.46 99.6963C1232.29 89.5448 1237.95 69.9979 1242.22 51.0989C1242.27 50.8129 1242.27 50.5209 1242.22 50.2349C1242.22 50.2349 1242.22 50.235 1242.22 49.6951C1243.96 45.6287 1245.15 41.3415 1245.75 36.9517C1250.41 54.9048 1260.22 71.0621 1273.94 83.3892C1274.15 83.5944 1274.41 83.7293 1274.7 83.775C1274.98 83.8207 1275.28 83.7749 1275.53 83.644C1275.79 83.5131 1276 83.3037 1276.14 83.045C1276.28 82.7863 1276.33 82.4913 1276.29 82.2013C1276.29 61.2504 1261.66 46.6712 1247.13 33.4959C1246.89 33.4136 1246.63 33.4136 1246.39 33.4959C1246.69 27.3716 1246.51 21.2327 1245.85 15.1368V12.2211H1246.6C1260.24 30.2982 1278.27 44.508 1298.93 53.4748C1299.21 53.5928 1299.52 53.622 1299.81 53.5585C1300.11 53.495 1300.38 53.3417 1300.59 53.1192C1300.8 52.8966 1300.94 52.6152 1300.98 52.3122C1301.03 52.0093 1300.98 51.6991 1300.85 51.4229C1290.17 32.6319 1268.81 10.6012 1245.75 9.19723C1244.42 -1.43129 1242.28 -11.9389 1239.34 -22.2291H1240.19C1253.8 -4.44999 1271.61 9.58676 1291.99 18.5927C1292.27 18.6982 1292.59 18.7125 1292.88 18.6335C1293.18 18.5546 1293.44 18.3862 1293.64 18.1511C1293.84 17.9159 1293.96 17.6252 1293.99 17.3181C1294.02 17.0109 1293.95 16.702 1293.8 16.4328C1283.12 -2.35816 1261.77 -24.2811 1238.8 -25.685C1238.5 -25.8111 1238.15 -25.8111 1237.84 -25.685C1236.99 -28.6009 1236.03 -31.6246 1235.07 -34.5405C1234.11 -37.4563 1231.65 -35.4045 1232.29 -33.5686C1234 -28.4928 1235.6 -23.309 1236.99 -18.1253C1221.61 -4.19404 1201.85 19.6726 1201 41.7034C1201 43.1074 1202.71 43.3234 1203.56 42.5674C1219.48 27.8802 1235.6 11.6811 1239.02 -10.3497C1240.51 -3.43807 1241.8 3.58153 1242.65 10.7091C1242.65 14.3809 1243.4 18.1608 1243.61 21.5086C1227.38 32.308 1210.5 44.2954 1207.3 64.7063C1207.23 64.9842 1207.24 65.2782 1207.34 65.5483C1207.44 65.8185 1207.61 66.0518 1207.85 66.2167C1208.08 66.3816 1208.36 66.4702 1208.64 66.4705C1208.93 66.4707 1209.2 66.3827 1209.44 66.2182C1224.58 56.4222 1236.54 42.3384 1243.82 25.7203C1244.07 33.9559 1242.38 42.1329 1238.91 49.587C1225.7 62.3769 1216.52 78.8348 1212.53 96.8885C1212.17 97.1463 1211.91 97.5414 1211.83 97.987C1211.75 98.4325 1211.85 98.892 1212.11 99.2644C1212.36 99.6367 1212.75 99.8915 1213.19 99.9725C1213.63 100.053 1214.09 99.9541 1214.46 99.6963Z" fill="#5EAD41"/>
<path fill-rule="evenodd" clip-rule="evenodd" d="M63.6023 1035.56C63.2012 1025.31 62.1956 1015.09 60.5909 1004.96C60.329 1005.28 59.9612 1005.51 59.5524 1005.58V1005.58C56.9082 1006.34 54.125 1006.47 51.422 1005.97C48.719 1005.46 46.17 1004.33 43.9761 1002.67C41.38 1000.59 36.4995 995.281 37.9533 991.431C39.4071 987.58 47.5068 989.453 50.622 990.182C53.6005 990.861 56.3983 992.174 58.8255 994.032C57.0602 984.25 54.9833 974.363 52.9065 964.372H52.2835C50.2822 965.686 48.0339 966.577 45.6767 966.988C43.3195 967.4 40.9032 967.324 38.5763 966.766C35.1495 965.725 28.1921 961.562 28.1921 957.087C28.1921 952.612 36.4995 952.508 39.7186 952.404C43.7683 952.164 47.7932 953.182 51.2451 955.318C49.0644 944.91 46.8837 935.128 45.0146 925.033H44.3914C41.6581 925.5 38.8528 925.299 36.2135 924.447C33.5742 923.596 31.1788 922.119 29.2305 920.142C26.7383 917.852 22.1693 914.313 25.6999 910.879C27.5945 909.674 29.7339 908.908 31.9618 908.638C34.1897 908.368 36.4496 908.6 38.5763 909.318C39.9617 909.736 41.2878 910.331 42.5223 911.087C40.757 900.68 39.4071 890.793 38.6802 880.802C34.2316 879.398 30.3307 876.638 27.5204 872.907C24.71 869.177 23.1299 864.661 23 859.988C23.058 859.657 23.1911 859.345 23.3892 859.074C23.5873 858.803 23.845 858.582 24.1423 858.427C26.8055 857.523 29.7115 857.665 32.2744 858.824C34.8374 859.983 36.8667 862.072 37.9533 864.671C37.7929 855.442 38.4182 846.215 39.8224 837.092V837.092C35.8072 835.075 32.4571 831.941 30.1734 828.065C27.8898 824.189 26.7692 819.735 26.946 815.237C26.9872 814.859 27.1366 814.5 27.376 814.205C27.6155 813.91 27.9349 813.69 28.296 813.572C30.363 812.943 32.5742 812.977 34.6216 813.667C36.669 814.357 38.4508 815.67 39.7186 817.423C41.1275 818.972 42.3476 820.684 43.353 822.522C45.8277 813.519 49.3113 804.826 53.7373 796.608C50.975 793.262 49.2002 789.209 48.6131 784.906C48.026 780.604 48.6499 776.222 50.4143 772.255C50.601 771.837 50.9086 771.485 51.2974 771.243C51.6861 771.002 52.1381 770.883 52.595 770.902C54.8026 771.154 56.8714 772.109 58.4976 773.626C60.1237 775.143 61.2214 777.144 61.6293 779.332C61.6293 780.269 62.2523 781.31 62.46 782.246L65.5752 777.979C63.7786 771.751 63.5291 765.177 64.8484 758.83C65.6791 754.98 69.0021 748.423 73.8826 752.065C75.36 753.695 76.461 755.631 77.1071 757.736C77.7532 759.84 77.9287 762.062 77.621 764.242C77.4409 767.313 76.5839 770.306 75.1115 773.005C73.6391 775.704 71.5881 778.043 69.1059 779.853C67.181 782.221 65.3787 784.688 63.7061 787.242C66.533 786.176 69.5142 785.578 72.5326 785.473C75.3364 785.473 81.9823 784.952 82.9169 788.803C83.8514 792.653 76.6863 798.377 72.5326 799.21C67.3763 800.842 61.7882 800.394 56.9563 797.961C53.0146 805.554 49.8821 813.543 47.6106 821.794C49.8821 820.033 52.4492 818.694 55.191 817.839C58.0986 816.798 62.6677 815.133 63.4984 819.296C63.6332 821.696 63.2057 824.094 62.25 826.299C61.2943 828.504 59.8371 830.454 57.9948 831.993C54.1883 835.258 49.2946 836.967 44.2877 836.78C43.047 845.154 42.3877 853.604 42.3146 862.069C44.7201 857.198 48.9316 853.463 54.0488 851.662C54.3817 851.601 54.7252 851.638 55.0382 851.767C55.3512 851.896 55.6205 852.112 55.8141 852.391C57.2888 854.508 58.1967 856.968 58.4512 859.538C58.7058 862.107 58.2984 864.699 57.2679 867.065C56.0675 869.911 54.2675 872.463 51.9913 874.546C49.715 876.63 47.0163 878.196 44.0799 879.137C43.7053 879.234 43.3123 879.234 42.9377 879.137C43.7371 890.023 45.0888 900.86 46.9875 911.608C47.4978 908.768 48.718 906.105 50.5339 903.866C52.3499 901.628 54.7024 899.887 57.3717 898.807C57.6028 898.705 57.8521 898.652 58.1043 898.65C58.3566 898.648 58.6067 898.697 58.8395 898.794C59.0724 898.891 59.2832 899.035 59.4592 899.216C59.6353 899.397 59.773 899.612 59.864 899.848C60.8661 901.924 61.3866 904.201 61.3866 906.508C61.3866 908.815 60.8661 911.092 59.864 913.169C57.0077 917.106 52.9683 920.024 48.3375 921.494C50.1028 930.861 52.0758 940.331 54.1526 949.698C55.0572 947.243 56.4416 944.993 58.2247 943.081C60.0078 941.169 62.1538 939.633 64.5368 938.562C64.9338 938.404 65.371 938.38 65.783 938.493C66.1949 938.605 66.5593 938.849 66.8214 939.187C67.7857 940.972 68.3754 942.937 68.554 944.959C68.7325 946.982 68.4963 949.019 67.8598 950.947C67.0133 953.348 65.6413 955.529 63.8445 957.33C62.0477 959.13 59.8715 960.505 57.4756 961.354H56.8525C59.2409 972.49 61.6293 983.521 63.4984 994.345C64.8312 991.371 66.8733 988.771 69.4447 986.775C72.0161 984.779 75.0379 983.447 78.244 982.897C78.6688 982.818 79.108 982.888 79.4866 983.097C79.8653 983.306 80.16 983.64 80.3208 984.042C80.8405 986.196 80.8868 988.438 80.4565 990.613C80.0262 992.787 79.1295 994.841 77.8286 996.634C74.7071 1000.32 70.2726 1002.63 65.4714 1003.09H64.9522C66.6998 1013.59 67.8095 1024.19 68.2752 1034.83C68.2752 1037.33 64.5368 1037.85 64.433 1035.45L63.6023 1035.56Z" fill="#5EAD41"/>
<path fill-rule="evenodd" clip-rule="evenodd" d="M97.3588 930.843C96.8804 929.447 96.8804 927.931 97.3588 926.535C97.8204 925.377 99.0208 924.543 100.129 925.331C100.452 924.034 101.929 923.895 103.037 924.45C104.269 925.248 105.196 926.44 105.669 927.832C106.225 929.32 106.567 930.88 106.684 932.465C107.054 934.966 107.192 937.422 107.331 939.877C108.015 937.538 108.927 935.273 110.054 933.113C112.132 928.944 115.225 924.311 117.764 919.494C115.825 916.482 113.84 913.564 112.132 910.228C111.479 909.052 110.953 907.81 110.562 906.522C110.164 905.319 110.164 904.019 110.562 902.816C111.07 901.797 112.178 901.149 113.055 901.89C113.471 900.778 114.717 900.778 115.687 901.38C116.707 902.143 117.426 903.242 117.718 904.484C118.079 905.783 118.28 907.121 118.318 908.468C118.318 911.711 118.318 914.861 118.318 918.057C120.151 915.208 121.283 911.962 121.62 908.587C121.957 905.212 121.49 901.805 120.257 898.647V898.647C117.164 895.404 113.932 892.393 111.024 888.872C110.028 887.737 109.161 886.494 108.439 885.166C107.757 883.874 107.514 882.394 107.746 880.951C108.069 879.746 109.131 878.773 110.285 879.376C110.285 878.078 111.901 877.754 113.055 878.171C114.363 878.81 115.419 879.87 116.056 881.182C116.735 882.54 117.261 883.97 117.626 885.444C118.641 889.243 119.242 892.995 119.934 896.748C121.69 899.625 122.542 902.967 122.381 906.337C123.258 903.048 124.043 899.805 125.197 896.516C125.664 895.146 126.267 893.827 126.997 892.578C127.716 891.385 128.802 890.459 130.091 889.938C131.245 889.614 132.584 889.938 132.63 891.281C133.784 890.818 134.753 891.837 134.984 892.995C135.082 894.384 134.725 895.766 133.969 896.933C133.189 898.144 132.275 899.263 131.245 900.268C128.382 903.233 125.289 905.735 122.011 908.422C121.372 912.911 119.917 917.245 117.718 921.208C116.01 924.45 114.025 927.601 112.224 930.843C114.533 928.481 116.841 926.211 119.334 923.848C120.393 922.856 121.572 922 122.842 921.3C124.035 920.584 125.438 920.306 126.813 920.513C127.967 920.791 128.936 921.81 128.336 922.922C129.583 922.922 129.952 924.45 129.537 925.562C128.988 926.834 128.006 927.869 126.767 928.481C125.498 929.183 124.15 929.728 122.75 930.102C118.918 931.214 115.087 931.863 111.255 932.696C110.099 934.934 109.157 937.276 108.439 939.692C107.143 945.055 107.798 950.706 110.285 955.628C110.285 952.246 110.285 948.864 110.285 945.436C110.324 943.869 110.556 942.313 110.978 940.803C111.353 939.376 112.2 938.119 113.378 937.236C114.486 936.541 115.964 936.588 116.379 937.885C117.395 937.005 118.688 937.885 119.242 938.95C119.731 940.329 119.731 941.834 119.242 943.212C118.814 944.7 118.209 946.131 117.441 947.474C115.502 951.041 113.24 954.284 111.07 957.62C111.578 958.778 112.132 959.982 112.732 961.187C114.732 965.547 115.786 970.284 115.825 975.084C116.148 972.722 116.472 970.452 116.979 967.997C117.248 966.481 117.698 965.004 118.318 963.596C118.886 962.237 119.894 961.11 121.181 960.399C122.335 959.89 123.812 960.168 124.043 961.465C125.197 960.77 126.351 961.696 126.72 962.947C127.07 964.383 126.89 965.897 126.213 967.209C125.584 968.605 124.777 969.913 123.812 971.1C121.227 974.621 118.364 977.679 115.548 980.875C114.841 986.428 113.62 991.903 111.901 997.228C111.301 999.174 110.747 1001.07 110.193 1003.02C111.624 1000.75 113.101 998.386 114.81 996.302C115.704 995.042 116.742 993.891 117.903 992.874C118.987 991.892 120.369 991.304 121.827 991.206C123.119 991.206 124.32 992.132 123.997 993.429C125.289 993.429 125.936 994.634 125.797 995.885C125.454 997.317 124.661 998.6 123.535 999.544C122.356 1000.52 121.071 1001.36 119.703 1002.05C116.241 1003.9 112.732 1005.29 109.223 1006.68C106.478 1015.22 106.657 1024.43 109.731 1032.85C109.854 1032.91 109.953 1033.01 110.008 1033.13L111.255 1035.91C111.314 1036.09 111.308 1036.29 111.236 1036.47C111.165 1036.65 111.033 1036.8 110.863 1036.9C110.694 1036.99 110.498 1037.02 110.308 1036.99C110.118 1036.95 109.947 1036.85 109.824 1036.7C103.776 1027.85 105.207 1016.27 107.469 1006.35C108.346 1002.93 109.408 999.498 110.424 996.024C108.531 992.688 106.546 989.445 104.884 985.878C104.213 984.506 103.701 983.06 103.36 981.57C102.98 980.15 103.111 978.641 103.73 977.308C103.83 977.029 103.994 976.778 104.208 976.575C104.422 976.371 104.681 976.22 104.964 976.135C105.246 976.049 105.545 976.031 105.836 976.082C106.126 976.133 106.401 976.251 106.638 976.428C107.1 975.223 108.577 975.27 109.593 975.965C110.715 976.917 111.48 978.224 111.763 979.671C112.091 981.192 112.231 982.748 112.178 984.303C112.202 986.546 112.109 988.788 111.901 991.021C114.427 983.57 114.984 975.589 113.517 967.858C109.87 965.912 106.223 964.105 102.668 961.789C101.375 960.992 100.182 960.044 99.1131 958.963C98.0552 957.955 97.3713 956.615 97.1741 955.164C97.1741 953.914 97.8666 952.617 99.1593 952.894C99.1593 951.551 100.221 950.81 101.468 950.902C102.904 951.088 104.228 951.777 105.207 952.848C106.274 953.952 107.204 955.18 107.977 956.508C109.731 959.287 111.209 962.113 112.594 964.985C112.363 964.337 112.132 963.688 111.855 963.04C109.143 958.265 107.152 953.113 105.946 947.752C105.807 946.459 105.807 945.154 105.946 943.861C103.637 940.757 101.329 937.792 99.1131 934.596C98.405 933.407 97.8173 932.15 97.3588 930.843V930.843Z" fill="#265113"/>
<g clip-path="url(#clip2_407_4853)" filter="url(#filter0_d_407_4853)">
<g filter="url(#filter1_dd_407_4853)">
<g clip-path="url(#clip3_407_4853)">
</g>
</g>
</g>
<g filter="url(#filter2_d_407_4853)">
<rect y="1024" width="1440" height="750" fill="#D6607A"/>
</g>
<path fill-rule="evenodd" clip-rule="evenodd" d="M1261 590.715C1260.55 590.715 1260.35 585.962 1258.09 583.246C1254.21 578.741 1241.34 583.617 1247.74 591.023C1249.55 593.122 1252.07 594.726 1251.94 594.912C1250.64 594.523 1249.3 594.295 1247.93 594.233C1237.2 594.233 1239.27 611.206 1251.81 606.577C1253.82 605.836 1253.37 605.836 1252.4 607.564C1251.43 609.293 1251.17 609.416 1250.52 610.465C1249.91 611.489 1249.73 612.698 1250.01 613.845C1250.3 614.992 1251.04 615.991 1252.07 616.637C1255.18 618.612 1260.74 618.304 1262.03 614.539C1262.54 612.972 1262.87 611.358 1263 609.725C1263.78 603.553 1261.32 618.304 1272 617.995C1276.52 617.995 1280.02 614.354 1274.84 608.614C1274.09 607.771 1273.27 606.987 1272.38 606.268C1271.22 605.342 1271.22 605.157 1272.38 605.528C1274.49 606.174 1276.75 606.174 1278.85 605.528C1281.5 604.602 1282.99 597.998 1281.25 594.788C1278.72 590.221 1274.13 591.887 1271.22 592.813C1268.31 593.739 1267.4 593.492 1270.57 591.702C1271.65 591.114 1272.67 590.432 1273.61 589.665C1281.25 583.493 1266.56 574.173 1262.62 584.913C1261.65 587.505 1261.32 590.097 1261 590.097V590.715ZM1264.04 594.85C1265.33 595.837 1263.39 597.133 1262.16 596.578C1260.94 596.023 1262.16 593.369 1264.04 594.85ZM1257.57 596.887C1258.8 594.726 1260.03 593.862 1260.81 596.887C1261.32 598.862 1261.45 601.577 1258.74 600.713C1258.37 600.575 1258.05 600.362 1257.79 600.087C1257.52 599.813 1257.33 599.486 1257.22 599.13C1257.1 598.774 1257.08 598.398 1257.14 598.031C1257.2 597.664 1257.35 597.315 1257.57 597.01V596.887ZM1265.14 597.751C1267.86 598.985 1267.08 601.392 1265.14 601.392C1260.42 601.392 1262.16 596.331 1265.14 597.751ZM1262.88 602.009C1266.43 603.738 1262.88 605.157 1259.71 603.861C1256.54 602.565 1259.71 600.405 1263.13 602.009H1262.88Z" fill="#5EAD41"/>
<path fill-rule="evenodd" clip-rule="evenodd" d="M1385.71 555.203C1385.44 555.203 1385.33 552.452 1384 550.879C1381.73 548.271 1374.2 551.094 1377.95 555.382C1379.01 556.597 1380.48 557.526 1380.41 557.633C1379.64 557.408 1378.86 557.276 1378.06 557.24C1371.77 557.24 1372.99 567.067 1380.33 564.387C1381.5 563.958 1381.24 563.958 1380.67 564.958C1380.1 565.959 1379.95 566.03 1379.57 566.638C1379.21 567.231 1379.11 567.93 1379.28 568.595C1379.45 569.259 1379.88 569.837 1380.48 570.211C1382.3 571.355 1385.56 571.176 1386.31 568.996C1386.61 568.089 1386.8 567.155 1386.88 566.209C1387.34 562.636 1385.9 571.176 1392.14 570.997C1394.79 570.997 1396.84 568.889 1393.81 565.566C1393.37 565.078 1392.89 564.624 1392.37 564.208C1391.69 563.672 1391.69 563.565 1392.37 563.779C1393.6 564.153 1394.93 564.153 1396.16 563.779C1397.71 563.243 1398.58 559.42 1397.56 557.562C1396.08 554.917 1393.39 555.882 1391.69 556.418C1389.99 556.954 1389.46 556.811 1391.31 555.775C1391.94 555.434 1392.54 555.04 1393.09 554.596C1397.56 551.022 1388.96 545.627 1386.65 551.844C1386.09 553.345 1385.9 554.846 1385.71 554.846V555.203ZM1387.49 557.597C1388.24 558.169 1387.11 558.919 1386.39 558.598C1385.67 558.276 1386.39 556.74 1387.49 557.597ZM1383.7 558.776C1384.42 557.526 1385.14 557.026 1385.59 558.776C1385.9 559.92 1385.97 561.492 1384.38 560.992C1384.17 560.912 1383.98 560.788 1383.83 560.63C1383.67 560.471 1383.56 560.281 1383.49 560.075C1383.43 559.869 1383.41 559.652 1383.45 559.439C1383.48 559.227 1383.57 559.025 1383.7 558.848V558.776ZM1388.13 559.277C1389.72 559.991 1389.27 561.385 1388.13 561.385C1385.37 561.385 1386.39 558.455 1388.13 559.277ZM1386.81 561.742C1388.89 562.743 1386.81 563.565 1384.95 562.814C1383.09 562.064 1384.95 560.813 1386.96 561.742H1386.81Z" fill="#5EAD41"/>
</g>
</g>
<defs>
<filter id="filter0_d_407_4853" x="-134" y="-891" width="1708" height="1009" filterUnits="userSpaceOnUse" color-interpolation-filters="sRGB">
<feFlood flood-opacity="0" result="BackgroundImageFix"/>
<feColorMatrix in="SourceAlpha" type="matrix" values="0 0 0 0 0 0 0 0 0 0 0 0 0 0 0 0 0 0 127 0" result="hardAlpha"/>
<feOffset dy="-16"/>
<feGaussianBlur stdDeviation="67"/>
<feComposite in2="hardAlpha" operator="out"/>
<feColorMatrix type="matrix" values="0 0 0 0 0.191667 0 0 0 0 0.112764 0 0 0 0 0.0399306 0 0 0 0.11 0"/>
<feBlend mode="normal" in2="BackgroundImageFix" result="effect1_dropShadow_407_4853"/>
<feBlend mode="normal" in="SourceGraphic" in2="effect1_dropShadow_407_4853" result="shape"/>
</filter>
<filter id="filter1_dd_407_4853" x="-49" y="-651" width="695" height="731" filterUnits="userSpaceOnUse" color-interpolation-filters="sRGB">
<feFlood flood-opacity="0" result="BackgroundImageFix"/>
<feColorMatrix in="SourceAlpha" type="matrix" values="0 0 0 0 0 0 0 0 0 0 0 0 0 0 0 0 0 0 127 0" result="hardAlpha"/>
<feOffset dy="68"/>
<feGaussianBlur stdDeviation="20.5"/>
<feColorMatrix type="matrix" values="0 0 0 0 0.713726 0 0 0 0 0.501961 0 0 0 0 0.0470588 0 0 0 0.07 0"/>
<feBlend mode="normal" in2="BackgroundImageFix" result="effect1_dropShadow_407_4853"/>
<feColorMatrix in="SourceAlpha" type="matrix" values="0 0 0 0 0 0 0 0 0 0 0 0 0 0 0 0 0 0 127 0" result="hardAlpha"/>
<feOffset dy="121"/>
<feGaussianBlur stdDeviation="24.5"/>
<feColorMatrix type="matrix" values="0 0 0 0 0.713726 0 0 0 0 0.501961 0 0 0 0 0.0470588 0 0 0 0.02 0"/>
<feBlend mode="normal" in2="effect1_dropShadow_407_4853" result="effect2_dropShadow_407_4853"/>
<feBlend mode="normal" in="SourceGraphic" in2="effect2_dropShadow_407_4853" result="shape"/>
</filter>
<filter id="filter2_d_407_4853" x="-134" y="874" width="1708" height="1018" filterUnits="userSpaceOnUse" color-interpolation-filters="sRGB">
<feFlood flood-opacity="0" result="BackgroundImageFix"/>
<feColorMatrix in="SourceAlpha" type="matrix" values="0 0 0 0 0 0 0 0 0 0 0 0 0 0 0 0 0 0 127 0" result="hardAlpha"/>
<feOffset dy="-16"/>
<feGaussianBlur stdDeviation="67"/>
<feComposite in2="hardAlpha" operator="out"/>
<feColorMatrix type="matrix" values="0 0 0 0 0.191667 0 0 0 0 0.149181 0 0 0 0 0.0399306 0 0 0 0.26 0"/>
<feBlend mode="normal" in2="BackgroundImageFix" result="effect1_dropShadow_407_4853"/>
<feBlend mode="normal" in="SourceGraphic" in2="effect1_dropShadow_407_4853" result="shape"/>
</filter>
<clipPath id="clip0_407_4853">
<rect width="1440" height="1024" fill="white"/>
</clipPath>
<clipPath id="clip1_407_4853">
<rect width="1440" height="3668" fill="white" transform="translate(0 -1894)"/>
</clipPath>
<clipPath id="clip2_407_4853">
<rect width="1440" height="741" fill="white" transform="translate(0 -741)"/>
</clipPath>
<clipPath id="clip3_407_4853">
<path d="M0 -651H589C591.8 -651 593.2 -651 594.27 -650.455C595.211 -649.976 595.976 -649.211 596.455 -648.27C597 -647.2 597 -645.8 597 -643V-98C597 -95.1997 597 -93.7996 596.455 -92.73C595.976 -91.7892 595.211 -91.0243 594.27 -90.545C593.2 -90 591.8 -90 589 -90H0V-651Z" fill="white"/>
</clipPath>
</defs>
</svg>
