<svg width="375" height="120" viewBox="0 0 375 120" fill="none" xmlns="http://www.w3.org/2000/svg">
<g clip-path="url(#clip0_308_4853)">
<path fill-rule="evenodd" clip-rule="evenodd" d="M213.616 179.938C241.773 178.254 250.356 188.276 278.884 193.083C300.086 196.337 321.677 196.106 342.805 192.4C383.27 185.297 419.136 164.77 409.38 124.2C401.708 92.319 384.959 82.9362 353.308 81.6231C335.493 80.9192 315.101 82.3032 299.405 70.5088C276.29 53.0521 235.005 52.5737 149.46 79.7579C133.582 84.8389 109.474 94.2928 93.3102 109.448C80.4356 122.062 72.1282 138.604 69.6991 156.463C63.7697 197.374 113.177 225.845 144.48 213.993C166.873 205.585 191.016 181.329 213.616 179.938Z" fill="#81BD55"/>
<path fill-rule="evenodd" clip-rule="evenodd" d="M172.279 120.757C170.357 120.031 167.913 118.895 165.891 118.001L162.3 116.423C162.3 116.423 162.73 116.445 163.435 116.506C164.141 116.566 165.121 116.665 166.228 116.827C168.581 117.141 170.896 117.69 173.139 118.465C173.898 118.738 174.639 119.061 175.356 119.432C174.827 117.991 174.289 116.555 173.723 115.136C173.575 115.234 173.399 115.281 173.222 115.27C172.016 115.116 170.841 114.78 169.737 114.274C167.82 113.557 165.371 112.412 163.348 111.518L159.763 109.949L160.893 110.022C161.598 110.083 162.585 110.191 163.686 110.344C166.039 110.654 168.355 111.203 170.596 111.981C171.358 112.263 172.103 112.587 172.829 112.953C172.056 111.101 171.231 109.268 170.378 107.451C169.958 107.701 168.972 107.807 166.3 107.413C162.656 106.71 159.062 105.762 155.545 104.576C159.258 104.465 162.975 104.605 166.669 104.996C167.611 105.115 168.542 105.304 169.456 105.561L169.234 105.188C169.157 105.122 169.094 105.041 169.05 104.949C169.007 104.858 168.983 104.758 168.981 104.657C168.659 104.115 168.403 103.535 168.103 102.968C167.804 102.401 167.549 101.909 167.262 101.384C167.204 101.513 167.107 101.621 166.985 101.693C166.863 101.766 166.722 101.799 166.581 101.789C165.461 101.738 164.357 101.503 163.313 101.093C161.515 100.533 159.208 99.6067 157.291 98.8899L153.908 97.6182C153.908 97.6182 154.3 97.5993 154.958 97.6C155.615 97.6006 156.527 97.6265 157.545 97.7031C159.737 97.8178 161.91 98.1734 164.024 98.7634C164.795 98.9852 165.546 99.2689 166.271 99.6118C165.5 98.3148 164.775 96.9902 163.957 95.721C163.599 96.01 162.681 96.0381 160.103 95.3988C156.763 94.4114 153.499 93.1822 150.337 91.7211C153.812 91.9057 157.269 92.3447 160.68 93.0348C161.502 93.2279 162.168 93.4129 162.638 93.5879L162.533 93.4106C162.423 93.3649 162.327 93.2926 162.252 93.2003C162.177 93.1081 162.127 92.9987 162.105 92.8821C162.083 92.8118 162.07 92.7393 162.065 92.6659C161.573 91.8386 161.042 91.0304 160.471 90.2413C160.139 90.5528 159.394 90.5536 156.963 89.8013C154.063 88.694 151.257 87.3558 148.571 85.7995C151.684 86.1173 154.766 86.6833 157.788 87.4922C158.212 87.6316 158.591 87.7597 158.902 87.8782C158.12 86.7767 157.32 85.6864 156.501 84.6071C156.215 85.0174 155.541 85.1153 152.67 84.069C149.591 82.7441 146.616 81.1911 143.768 79.4229C147.077 79.959 150.34 80.7459 153.53 81.7768C153.965 81.9349 154.352 82.0965 154.682 82.2281L153.265 80.4185C152.823 80.5676 152.048 80.2202 149.988 78.1996C147.6 75.6557 145.402 72.9397 143.412 70.0735C146.333 72.0117 149.109 74.1599 151.718 76.501C152.054 76.8318 152.343 77.1271 152.596 77.3813C152.354 74.5623 152.332 71.7286 152.532 68.9062C153.611 71.6565 154.453 74.4937 155.049 77.3871C155.52 80.3026 155.122 80.7162 154.576 80.8388C155.573 82.0268 156.544 83.2556 157.487 84.501C157.48 84.0169 157.5 83.5328 157.546 83.051C157.758 81.122 158.225 79.2299 158.937 77.4245C159.264 76.5731 159.595 75.8334 159.829 75.3149C160.064 74.7963 160.246 74.4861 160.246 74.4861C160.246 74.4861 160.222 74.8286 160.211 75.4039C160.199 75.9791 160.164 76.7702 160.137 77.6582C160.092 79.4527 160.104 81.618 159.975 83.2484C159.977 84.2183 159.8 85.1801 159.452 86.0856C159.405 86.1876 159.334 86.2765 159.245 86.3449C159.156 86.4133 159.051 86.4591 158.941 86.4783C159.455 87.1952 159.976 87.9215 160.477 88.6588C160.586 88.7328 160.677 88.8296 160.744 88.9424C160.811 89.0553 160.852 89.1814 160.866 89.312C161.265 89.9837 161.73 90.6167 162.152 91.2625C162.193 90.8847 162.258 90.4419 162.325 89.8966C162.587 88.2127 163.102 85.9992 163.446 84.1779C163.622 83.2645 163.758 82.4514 163.861 81.8597L164.015 80.909C164.015 80.909 164.109 81.2575 164.244 81.8463C164.38 82.4352 164.533 83.2661 164.665 84.2106C164.969 86.2136 164.998 88.2489 164.751 90.2598C164.689 91.3374 164.379 92.3861 163.846 93.3245C163.773 93.4135 163.687 93.4905 163.59 93.5525C163.74 93.8044 163.889 94.0563 164.045 94.3176C164.127 94.3762 164.196 94.4512 164.248 94.5379C164.299 94.6247 164.332 94.7212 164.344 94.8214C164.849 95.6705 165.36 96.5289 165.87 97.3873L165.916 97.2087C166.055 96.7215 166.278 96.0968 166.558 95.2731C166.839 94.4494 167.193 93.4939 167.515 92.5065C167.837 91.5192 168.152 90.4983 168.39 89.5609C168.628 88.6235 168.81 87.7826 168.917 87.1761L169.098 86.1845L169.306 87.1721C169.459 87.9981 169.559 88.833 169.605 89.6717C169.675 90.7589 169.652 91.85 169.537 92.9332C169.429 93.9962 169.205 95.0441 168.869 96.0584C168.64 96.7651 168.344 97.4484 167.986 98.0992C167.805 98.4461 167.562 98.7573 167.27 99.018C167.171 99.1168 167.049 99.1893 166.915 99.2289C167.592 100.367 168.18 101.546 168.795 102.708C168.934 102.942 169.072 103.175 169.217 103.417C169.336 102.98 169.52 102.441 169.8 101.807C170.393 100.192 171.417 98.1554 172.191 96.4828L173.614 93.502L173.577 94.4588C173.537 95.0507 173.476 95.8827 173.364 96.8206C173.154 98.8022 172.721 100.754 172.076 102.639C171.789 103.63 171.292 104.546 170.617 105.326C170.536 105.406 170.437 105.465 170.328 105.498C171.177 107.203 171.994 108.915 172.778 110.659C172.959 110.071 173.234 109.301 173.696 108.231C174.502 106.273 175.746 103.778 176.715 101.711L178.429 98.0523C178.429 98.0523 178.388 98.4934 178.3 99.2154C178.212 99.9374 178.072 100.955 177.872 102.085C177.476 104.503 176.834 106.874 175.954 109.161C175.563 110.371 174.947 111.496 174.137 112.477C174.025 112.588 173.887 112.67 173.736 112.716C174.399 114.255 175.033 115.81 175.634 117.372C176.009 116.475 176.432 115.599 176.903 114.748C177.906 112.889 179.373 110.513 180.529 108.55L182.587 105.065C182.587 105.065 182.507 105.504 182.35 106.216C182.193 106.929 181.964 107.924 181.659 109.027C181.03 111.395 180.162 113.692 179.069 115.885C178.55 117.062 177.816 118.133 176.905 119.042C176.753 119.179 176.556 119.256 176.351 119.257C177.883 123.385 179.173 127.598 180.217 131.875C180.342 132.381 179.574 132.535 179.431 132.039C178.45 128.543 177.386 125.096 176.202 121.682C176.08 121.733 175.95 121.759 175.818 121.759C174.595 121.6 173.403 121.263 172.279 120.757Z" fill="#5EAD41"/>
<path fill-rule="evenodd" clip-rule="evenodd" d="M284.002 115.611C283.471 115.36 282.831 114.931 282.975 114.207C283.041 113.98 283.174 113.779 283.357 113.629C283.539 113.479 283.762 113.387 283.997 113.365C284.496 113.378 284.987 113.496 285.437 113.711C286.82 114.337 288.095 115.179 289.214 116.206C290.168 117.096 290.995 118.115 291.669 119.233C292.07 117.503 292.455 115.772 292.841 114.04C290.302 112.712 287.786 111.208 285.424 109.888C284.914 109.595 284.343 109.101 284.572 108.404C284.658 108.186 284.807 107.999 285 107.867C285.193 107.734 285.421 107.662 285.655 107.66C286.156 107.709 286.641 107.862 287.081 108.108C288.345 108.807 289.506 109.676 290.533 110.691C291.461 111.603 292.27 112.628 292.941 113.742C293.227 112.413 293.498 111.082 293.757 109.735C291.423 107.871 288.942 106.199 286.338 104.735C285.798 104.438 285.168 103.936 285.368 103.234C285.444 103.006 285.593 102.808 285.791 102.671C285.99 102.535 286.227 102.467 286.468 102.478C287 102.533 287.514 102.7 287.977 102.967C289.375 103.741 290.63 104.747 291.689 105.943C292.567 106.922 293.298 108.024 293.858 109.213C294.157 107.678 294.444 106.127 294.704 104.556C292.486 102.639 290.045 100.997 287.433 99.6659C286.904 99.4003 286.268 98.9415 286.424 98.2343C286.486 98.0016 286.621 97.7953 286.811 97.6468C287 97.4982 287.233 97.4156 287.474 97.4115C288.004 97.4412 288.521 97.5831 288.993 97.8275C290.412 98.5484 291.68 99.5345 292.729 100.733C293.594 101.695 294.293 102.796 294.796 103.989C294.984 102.617 295.173 101.231 295.451 99.856L295.493 99.5495C292.945 97.4981 290.295 95.5772 287.552 93.7943C286.977 93.4331 286.326 92.8682 286.57 92.173C286.667 91.947 286.837 91.7598 287.052 91.6411C287.268 91.5225 287.517 91.4792 287.76 91.5181C288.313 91.6211 288.84 91.8349 289.309 92.1464C290.73 93.0509 292.011 94.1578 293.112 95.4323C294.103 96.5688 294.93 97.838 295.57 99.2032C295.77 97.7437 295.953 96.4009 296.143 95.0144C295.147 93.9265 294.132 92.8658 293.049 91.8702C291.828 90.7341 290.538 89.6738 289.187 88.6951C288.659 88.3107 288.041 87.7206 288.292 87.0857C288.403 86.8664 288.583 86.6897 288.805 86.5829C289.026 86.4762 289.277 86.4453 289.517 86.4951C290.068 86.6326 290.586 86.8805 291.038 87.2237C292.417 88.2223 293.612 89.4523 294.57 90.8591C295.271 91.9075 295.831 93.0439 296.234 94.2388C296.484 92.4144 296.66 90.58 296.837 88.7456C295.913 87.5636 294.957 86.4067 293.938 85.3752C292.756 84.1082 291.474 82.9384 290.105 81.8771C289.569 81.4469 288.955 80.8276 289.228 80.1364C289.346 79.9168 289.536 79.7438 289.765 79.6456C289.995 79.5474 290.25 79.5298 290.491 79.5956C290.774 79.6648 291.044 79.777 291.293 79.9284C291.555 80.0724 291.806 80.236 292.044 80.4177C293.435 81.5159 294.617 82.8562 295.532 84.3741C296.138 85.3958 296.613 86.4898 296.945 87.6304C297.085 85.9545 297.223 84.2933 297.347 82.6301C295.799 80.3326 293.901 78.2918 291.721 76.5821C291.265 76.2222 290.745 75.6753 291.031 75.0007C291.132 74.7847 291.301 74.6077 291.512 74.497C291.723 74.3862 291.965 74.3477 292.2 74.3875C292.457 74.4387 292.706 74.5278 292.937 74.6519C293.174 74.7743 293.398 74.9196 293.606 75.0855C294.837 76.0612 295.85 77.2836 296.58 78.6742C296.972 79.4124 297.27 80.1975 297.464 81.0106C297.581 79.287 297.681 77.576 297.769 75.8483C296.192 73.5377 294.272 71.4803 292.077 69.7466C291.633 69.4033 291.142 68.8604 291.444 68.1732C291.546 67.9595 291.713 67.7834 291.92 67.6702C292.128 67.5571 292.367 67.5127 292.601 67.5434C292.849 67.5879 293.089 67.6708 293.311 67.7893C293.527 67.9162 293.736 68.054 293.938 68.2022C295.127 69.1415 296.101 70.3241 296.794 71.6707C297.281 72.6136 297.614 73.6279 297.781 74.6754C297.849 73.1979 297.918 71.7204 297.957 70.2389C296.355 67.9077 295.081 65.367 294.172 62.6883C293.967 62.1249 293.894 61.3566 294.548 61.0298C294.756 60.9303 294.988 60.894 295.217 60.9252C295.445 60.9564 295.659 61.0539 295.832 61.2055C296.149 61.5471 296.392 61.9498 296.548 62.3888C297.306 64.3656 297.803 66.433 298.026 68.5385C298.054 67.5758 298.081 66.6131 298.094 65.6485C297.136 62.4038 296.63 59.0423 296.591 55.6593C296.57 54.9428 296.811 54.0538 297.65 53.901C297.924 53.8755 298.199 53.9273 298.445 54.0503C298.691 54.1732 298.897 54.3626 299.041 54.597C299.282 55.0752 299.413 55.6011 299.425 56.1364C299.583 59.2266 299.254 62.3223 298.453 65.3109C298.387 65.7925 298.452 66.2922 298.457 66.7984C298.9 64.4902 299.593 62.2368 300.522 60.0778C300.744 59.5432 301.2 58.9217 301.918 59.1091C302.137 59.1815 302.331 59.3143 302.478 59.4922C302.624 59.6702 302.718 59.886 302.747 60.1147C302.751 60.5773 302.658 61.0357 302.474 61.46C301.501 63.9286 300.143 66.2271 298.449 68.2693C298.432 70.5715 298.366 72.8969 298.274 75.2037C298.598 73.8399 299.098 72.5238 299.761 71.2886C300.564 69.8171 301.55 68.4532 302.695 67.2296C303.149 66.7415 303.898 66.2641 304.492 66.7023C304.67 66.8577 304.798 67.0625 304.859 67.2906C304.921 67.5187 304.913 67.7599 304.837 67.9836C304.644 68.44 304.375 68.8606 304.043 69.2279L301.197 72.526C300.285 73.546 299.337 74.6058 298.244 75.8539C298.176 77.3314 298.103 78.7339 298.009 80.1782C298.939 77.5185 300.365 75.0595 302.212 72.9325C302.637 72.4404 303.313 71.9531 303.928 72.3494C304.116 72.4911 304.258 72.6854 304.336 72.9077C304.414 73.1301 304.425 73.3706 304.366 73.5989C304.205 74.0503 303.966 74.4703 303.661 74.8406C301.918 77.0373 300.015 79.1028 297.969 81.0202C297.828 83.0231 297.661 85.0074 297.477 87.0043C297.769 85.4807 298.316 84.0173 299.095 82.676C299.962 81.1746 301.061 79.8195 302.35 78.6609C302.86 78.1953 303.675 77.7864 304.215 78.2915C304.375 78.4675 304.478 78.6871 304.512 78.9222C304.546 79.1573 304.509 79.3972 304.406 79.6112C304.176 80.0381 303.877 80.4242 303.521 80.754C302.421 81.8376 301.469 82.8224 300.496 83.849C299.523 84.8756 298.558 85.948 297.455 87.2691C297.374 87.8675 297.294 88.4513 297.214 89.0351C297.208 89.1234 297.196 89.2112 297.178 89.2978C297.028 90.3924 296.876 91.5017 296.812 92.6229C297.266 91.0144 297.976 89.4899 298.917 88.1083C300.007 86.5116 301.345 85.0986 302.88 83.9224C303.495 83.4417 304.487 83.042 304.936 83.5644C305.084 83.7608 305.168 83.9989 305.174 84.2451C305.18 84.4913 305.109 84.7333 304.971 84.9371C304.654 85.389 304.273 85.7927 303.841 86.1355C302.512 87.2621 301.37 88.3251 300.221 89.4465C299.071 90.5679 297.982 91.6827 296.744 93.1191C296.64 93.8781 296.545 94.5787 296.435 95.3814C296.432 95.4404 296.424 95.4991 296.411 95.5565C296.301 96.3593 296.191 97.162 296.079 97.9793C296.674 96.683 297.45 95.4776 298.383 94.399C299.687 92.8594 301.254 91.5635 303.011 90.5717C303.723 90.1487 304.756 89.8738 305.181 90.4672C305.296 90.687 305.34 90.9373 305.306 91.1832C305.273 91.4291 305.163 91.6584 304.993 91.8391C304.802 92.0573 304.585 92.2522 304.349 92.42C304.116 92.5964 303.869 92.7708 303.658 92.9054C302.267 93.8271 300.933 94.8312 299.663 95.9123C298.416 96.9118 297.232 97.9861 296.115 99.1292L295.993 100.019C295.83 101.216 295.666 102.413 295.5 103.624C296.197 102.171 297.127 100.842 298.254 99.6894C299.508 98.3799 300.959 97.2741 302.553 96.4119C303.183 96.0519 304.121 95.8234 304.529 96.4294C304.637 96.643 304.677 96.8846 304.645 97.1218C304.612 97.3591 304.509 97.5808 304.347 97.7575C304.004 98.1461 303.598 98.4727 303.144 98.723C301.749 99.5729 300.525 100.372 299.271 101.167C298.017 101.962 296.831 102.81 295.42 103.881L294.832 107.533C296.796 105.362 299.224 103.662 301.936 102.557C302.486 102.335 303.261 102.218 303.629 102.789C303.719 102.999 303.751 103.229 303.72 103.456C303.689 103.682 303.597 103.896 303.453 104.073C303.137 104.392 302.764 104.649 302.353 104.83C299.916 105.961 297.378 106.863 294.773 107.525C294.559 109.091 294.287 110.645 293.957 112.186C295.985 110.077 298.528 108.534 301.335 107.709C301.94 107.524 302.761 107.502 303.042 108.165C303.122 108.385 303.137 108.623 303.085 108.851C303.032 109.078 302.915 109.286 302.747 109.448C302.392 109.743 301.983 109.965 301.543 110.101C300.185 110.57 298.969 110.983 297.709 111.391L293.894 112.534C293.695 113.994 293.335 115.431 293.033 116.877C293.905 115.937 294.922 115.142 296.046 114.523C297.435 113.743 298.946 113.206 300.516 112.934C301.142 112.812 302.007 112.901 302.163 113.606C302.205 113.832 302.184 114.064 302.102 114.279C302.02 114.493 301.881 114.681 301.7 114.821C301.317 115.068 300.89 115.236 300.442 115.318C299.075 115.637 297.871 115.963 296.608 116.281C295.346 116.598 294.293 116.9 292.94 117.34C292.603 118.929 292.252 120.517 291.888 122.088C292.833 121.016 293.962 120.123 295.223 119.451C296.551 118.749 297.983 118.262 299.464 118.009C300.06 117.898 300.852 117.976 301.023 118.684C301.072 118.906 301.059 119.138 300.985 119.353C300.911 119.569 300.778 119.76 300.603 119.905C300.242 120.14 299.841 120.307 299.42 120.397L291.749 122.128C291.499 123.194 291.235 124.258 290.97 125.322C291.753 124.27 292.777 123.421 293.955 122.846C295.423 122.126 297.05 121.791 298.683 121.872C299.028 121.89 299.366 121.982 299.672 122.142C299.815 122.221 299.933 122.338 300.014 122.48C300.094 122.622 300.133 122.784 300.127 122.947C300.102 123.175 300.018 123.392 299.883 123.577C299.748 123.762 299.567 123.908 299.358 124.002C299.156 124.08 298.944 124.131 298.728 124.153L298.112 124.203C296.875 124.229 295.644 124.38 294.437 124.652C293.816 124.77 293.203 124.93 292.602 125.129C292.009 125.316 291.427 125.54 290.86 125.798C290.518 127.104 290.176 128.41 289.821 129.7C291.529 128.192 293.649 127.229 295.909 126.935C296.042 126.898 296.182 126.889 296.319 126.908C296.456 126.928 296.588 126.975 296.706 127.046C296.824 127.118 296.926 127.213 297.006 127.326C297.087 127.439 297.143 127.567 297.172 127.702C297.211 127.916 297.199 128.137 297.136 128.345C297.074 128.554 296.964 128.744 296.814 128.902C296.521 129.108 296.187 129.25 295.835 129.319C294.768 129.514 293.81 129.666 292.799 129.78C291.787 129.895 290.887 129.95 289.79 130.038C289.153 132.3 288.489 134.543 287.754 136.762C287.706 137.112 287.045 136.948 287.139 136.589C287.869 133.968 288.585 131.345 289.257 128.716C287.118 128.182 284.942 127.81 282.748 127.602C282.48 127.611 282.218 127.517 282.016 127.341C281.814 127.164 281.686 126.917 281.659 126.65C281.631 126.429 281.666 126.204 281.759 126.001C281.853 125.798 282.001 125.626 282.188 125.503C282.575 125.335 282.998 125.271 283.418 125.315C284.643 125.422 285.834 125.777 286.918 126.359C287.842 126.878 288.666 127.56 289.348 128.371C289.74 126.889 290.121 125.409 290.491 123.933C288.098 123.383 285.729 122.657 283.542 122.016C283.058 121.861 282.479 121.529 282.562 120.812C282.597 120.588 282.691 120.378 282.835 120.205C282.979 120.031 283.168 119.899 283.381 119.823C283.809 119.749 284.249 119.779 284.663 119.91C286.937 120.548 288.989 121.807 290.589 123.545C290.934 122.106 291.266 120.768 291.591 119.371C289.092 118.181 286.496 116.726 284.002 115.611Z" fill="#265113"/>
<path fill-rule="evenodd" clip-rule="evenodd" d="M312.272 51.5479C316.782 53.9838 318.278 58.8233 319.459 63.4881C319.45 63.5527 319.443 63.6065 319.509 63.6813C319.513 63.7215 319.508 63.7621 319.493 63.7996C319.943 64.8107 320.254 65.8778 320.418 66.9721C321.881 62.6033 323.531 58.3148 327.235 55.3483C327.288 55.3027 327.354 55.2734 327.423 55.2638C327.493 55.2543 327.564 55.2649 327.628 55.2943C327.692 55.3238 327.746 55.371 327.784 55.4302C327.822 55.4894 327.842 55.5583 327.843 55.6287C327.909 60.8313 324.313 64.5249 320.754 67.8729C320.727 67.9015 320.695 67.9243 320.659 67.9401C320.623 67.9559 320.584 67.9643 320.545 67.9647C320.659 69.4806 320.645 71.0034 320.503 72.517C320.47 72.7536 320.438 72.9902 320.405 73.2268L320.567 73.2489C323.923 68.7026 328.385 65.0891 333.53 62.7509C333.602 62.7159 333.683 62.7052 333.762 62.7203C333.84 62.7355 333.912 62.7757 333.965 62.8349C334.019 62.8941 334.052 62.9692 334.059 63.0488C334.067 63.1284 334.048 63.2082 334.006 63.2762C331.313 67.9808 326.148 73.5414 320.376 74.0008L320.441 74.0096C320.138 76.6484 319.642 79.2611 318.955 81.8268L319.019 81.8356L319.181 81.8577C322.536 77.3139 326.993 73.7004 332.133 71.3582C332.205 71.3269 332.286 71.3187 332.363 71.335C332.44 71.3513 332.51 71.3911 332.563 71.4489C332.617 71.5068 332.651 71.5798 332.661 71.6579C332.671 71.7361 332.657 71.8154 332.62 71.885C329.916 76.5881 324.762 82.1502 318.99 82.6096C318.914 82.6289 318.833 82.6179 318.764 82.5787C318.559 83.281 318.337 84.0176 318.1 84.7887C318.068 84.8773 318.002 84.9499 317.918 84.9917C317.833 85.0336 317.736 85.0414 317.645 85.0136C317.555 84.9858 317.479 84.9246 317.433 84.8424C317.386 84.7603 317.373 84.6634 317.396 84.5718C317.811 83.3028 318.173 82.0156 318.494 80.7118C314.576 77.316 309.501 71.4828 309.172 66.0361C309.144 65.6816 309.592 65.6114 309.806 65.8051C313.888 69.3658 318.071 73.3128 318.987 78.7852C319.357 77.0493 319.63 75.2943 319.805 73.5282C319.93 72.614 319.969 71.688 320.009 70.762C315.88 68.1811 311.605 65.2295 310.682 60.1287C310.668 60.0583 310.675 59.9854 310.702 59.9189C310.73 59.8525 310.775 59.7955 310.834 59.7547C310.894 59.714 310.963 59.6913 311.035 59.6895C311.107 59.6878 311.177 59.7069 311.238 59.7446C315.327 61.8929 317.809 65.6949 320.054 69.6287C320.07 67.5772 319.596 65.5516 318.671 63.72C315.564 60.3255 312.586 56.7844 311.812 52.1095C311.767 52.0418 311.745 51.9615 311.749 51.8804C311.753 51.7993 311.783 51.7216 311.835 51.6588C311.886 51.596 311.957 51.5514 312.035 51.5314C312.114 51.5114 312.197 51.5172 312.272 51.5479Z" fill="#5EAD41"/>
<path fill-rule="evenodd" clip-rule="evenodd" d="M149.091 93.8009C145.201 95.902 143.91 100.076 142.891 104.1C142.899 104.156 142.905 104.202 142.848 104.267C142.844 104.302 142.849 104.337 142.862 104.369C142.474 105.241 142.206 106.162 142.064 107.105C140.802 103.337 139.379 99.6379 136.184 97.079C136.138 97.0397 136.081 97.0144 136.021 97.0062C135.961 96.9979 135.9 97.0071 135.845 97.0325C135.79 97.0579 135.743 97.0986 135.71 97.1497C135.677 97.2008 135.66 97.2602 135.66 97.3209C135.603 101.809 138.704 104.995 141.774 107.882C141.797 107.907 141.825 107.927 141.856 107.94C141.887 107.954 141.921 107.961 141.955 107.962C141.857 109.269 141.869 110.583 141.991 111.888C142.019 112.092 142.047 112.297 142.075 112.501L141.936 112.52C139.041 108.598 135.192 105.481 130.754 103.464C130.692 103.434 130.622 103.425 130.554 103.438C130.486 103.451 130.425 103.486 130.379 103.537C130.332 103.588 130.304 103.653 130.297 103.721C130.291 103.79 130.307 103.859 130.343 103.917C132.666 107.976 137.122 112.772 142.1 113.168L142.044 113.176C142.305 115.452 142.734 117.706 143.326 119.919L143.271 119.926L143.131 119.945C140.237 116.026 136.392 112.909 131.959 110.889C131.897 110.862 131.827 110.855 131.761 110.869C131.694 110.883 131.634 110.917 131.588 110.967C131.542 111.017 131.512 111.08 131.503 111.147C131.495 111.215 131.507 111.283 131.539 111.343C133.871 115.4 138.317 120.198 143.296 120.594C143.362 120.611 143.432 120.601 143.491 120.567C143.668 121.173 143.859 121.809 144.063 122.474C144.092 122.55 144.148 122.613 144.221 122.649C144.294 122.685 144.378 122.692 144.456 122.668C144.533 122.644 144.599 122.591 144.639 122.52C144.679 122.449 144.691 122.366 144.671 122.287C144.313 121.192 144.001 120.082 143.724 118.957C147.104 116.028 151.481 110.996 151.765 106.298C151.789 105.992 151.402 105.932 151.217 106.099C147.696 109.17 144.089 112.575 143.298 117.295C142.98 115.798 142.744 114.284 142.593 112.761C142.485 111.972 142.451 111.173 142.417 110.375C145.978 108.148 149.666 105.602 150.462 101.202C150.474 101.142 150.468 101.079 150.445 101.022C150.421 100.964 150.382 100.915 150.331 100.88C150.28 100.845 150.22 100.825 150.158 100.824C150.096 100.822 150.035 100.839 149.982 100.871C146.455 102.724 144.314 106.004 142.378 109.397C142.365 107.627 142.774 105.88 143.571 104.3C146.251 101.372 148.82 98.3177 149.488 94.2853C149.526 94.2269 149.545 94.1576 149.542 94.0877C149.538 94.0177 149.512 93.9507 149.468 93.8966C149.423 93.8424 149.363 93.8039 149.295 93.7866C149.227 93.7694 149.155 93.7744 149.091 93.8009Z" fill="#5EAD41"/>
<path fill-rule="evenodd" clip-rule="evenodd" d="M77.7251 76.7137C71.0344 80.3276 68.8144 87.5076 67.0629 94.4283C67.076 94.5241 67.0869 94.6039 66.9883 94.7149C66.982 94.7745 66.9902 94.8347 67.0123 94.8904C66.3452 96.3904 65.8838 97.9737 65.6405 99.5972C63.4695 93.1156 61.0221 86.7531 55.5268 82.352C55.4473 82.2843 55.35 82.2409 55.2466 82.2267C55.1431 82.2125 55.0378 82.2282 54.9429 82.272C54.8481 82.3157 54.7678 82.3856 54.7114 82.4735C54.655 82.5614 54.6249 82.6636 54.6246 82.768C54.5266 90.4866 59.8606 95.9665 65.1406 100.934C65.1807 100.976 65.2289 101.01 65.2824 101.033C65.3359 101.057 65.3935 101.069 65.4519 101.07C65.2829 103.319 65.3038 105.578 65.5144 107.824C65.5625 108.175 65.6105 108.526 65.6585 108.877L65.4192 108.909C60.4395 102.165 53.8195 96.8035 46.1868 93.3346C46.0802 93.2827 45.9596 93.2667 45.8432 93.2892C45.7268 93.3117 45.6208 93.3713 45.5412 93.4592C45.4615 93.5471 45.4126 93.6584 45.4017 93.7765C45.3908 93.8946 45.4185 94.013 45.4807 94.1139C49.4755 101.094 57.1392 109.343 65.7019 110.025L65.6061 110.038C66.0547 113.953 66.7916 117.829 67.8107 121.636L67.715 121.649L67.4756 121.681C62.4981 114.94 55.8844 109.579 48.2592 106.104C48.152 106.058 48.0329 106.046 47.9186 106.07C47.8042 106.094 47.7002 106.153 47.6209 106.239C47.5416 106.325 47.4909 106.433 47.4759 106.549C47.4609 106.665 47.4822 106.783 47.537 106.886C51.5479 113.864 59.1956 122.115 67.7583 122.797C67.8717 122.826 67.9919 122.809 68.0934 122.751C68.3985 123.793 68.7268 124.886 69.0784 126.03C69.127 126.161 69.2239 126.269 69.3494 126.331C69.475 126.393 69.6195 126.405 69.7533 126.364C69.8871 126.322 70.0001 126.232 70.0689 126.11C70.1378 125.988 70.1574 125.844 70.1236 125.708C69.5083 123.825 68.9707 121.916 68.4947 119.981C74.3078 114.943 81.8368 106.289 82.3243 98.2085C82.3661 97.6826 81.7016 97.5784 81.3833 97.8658C75.3274 103.149 69.1223 109.004 67.7622 117.123C67.2147 114.548 66.8096 111.944 66.5488 109.324C66.3632 107.968 66.3053 106.594 66.2473 105.22C72.3721 101.391 78.7143 97.0118 80.0847 89.4442C80.1049 89.3397 80.0943 89.2316 80.054 89.133C80.0138 89.0345 79.9457 88.9498 79.8581 88.8894C79.7705 88.8289 79.6672 88.7954 79.5608 88.7927C79.4544 88.7901 79.3495 88.8184 79.259 88.8744C73.1926 92.0615 69.5103 97.7022 66.1798 103.539C66.1567 100.495 66.8601 97.4896 68.2316 94.7723C72.842 89.7362 77.26 84.4826 78.4081 77.5469C78.4746 77.4464 78.5071 77.3273 78.501 77.207C78.4949 77.0867 78.4504 76.9714 78.374 76.8783C78.2976 76.7851 78.1934 76.7188 78.0766 76.6892C77.9598 76.6596 77.8367 76.6682 77.7251 76.7137Z" fill="#265113"/>
<path fill-rule="evenodd" clip-rule="evenodd" d="M333.807 100.603C333.679 100.652 334.114 102.037 333.76 103.029C333.157 104.711 329.163 104.592 330.124 101.809C330.419 101.016 330.932 100.309 330.881 100.28C330.565 100.516 330.218 100.708 329.85 100.851C326.926 101.963 325.724 96.8131 329.621 96.8422C330.255 96.8523 330.126 96.9114 329.668 96.498C329.453 96.3043 329.143 96.0866 328.858 95.8504C328.582 95.6159 328.406 95.2851 328.366 94.9253C328.325 94.5655 328.424 94.2039 328.641 93.9141C329.297 93.0398 330.861 92.5853 331.597 93.5297C331.897 93.9405 332.156 94.3796 332.371 94.8409C333.227 96.5906 331.021 92.5306 333.991 91.5673C335.241 91.1577 336.56 91.8531 335.73 93.9966C335.602 94.3108 335.454 94.6163 335.287 94.9111C335.071 95.287 335.085 95.3438 335.449 95.0868C335.923 94.6984 336.501 94.4574 337.111 94.3937C337.952 94.4102 339.06 96.1616 338.91 97.2586C338.695 98.8289 337.253 98.796 336.352 98.8152C335.451 98.8343 335.233 98.9907 336.299 99.2024C336.66 99.2635 337.014 99.3596 337.356 99.4894C340.115 100.546 337.013 104.636 334.829 101.938C334.305 101.285 333.921 100.564 333.916 100.607L333.807 100.603ZM334.208 99.1134C334.474 98.6896 333.796 98.5202 333.529 98.7904C333.262 99.0607 333.838 99.7312 334.208 99.1134ZM332.286 99.1462C332.832 99.6374 333.297 99.7667 333.181 98.8524C333.132 98.2431 332.891 97.4431 332.208 97.9523C332.124 98.0294 332.057 98.1244 332.014 98.2302C331.971 98.3361 331.952 98.4503 331.958 98.5644C331.965 98.6786 331.997 98.7899 332.051 98.8902C332.106 98.9906 332.182 99.0776 332.275 99.1448L332.286 99.1462ZM334.274 98.1473C334.894 97.5418 334.443 96.9104 333.835 97.1121C332.525 97.5574 333.528 98.8779 334.274 98.1473ZM333.217 97.148C334.022 96.3049 332.855 96.2658 332.151 96.9255C331.447 97.5853 332.472 97.9446 333.238 97.1509L333.217 97.148Z" fill="#5EAD41"/>
<path fill-rule="evenodd" clip-rule="evenodd" d="M15.9464 97.6814C15.7731 97.7472 16.366 99.6352 15.8823 100.988C15.061 103.279 9.6179 103.117 10.9283 99.3242C11.3299 98.2443 12.0293 97.2798 11.96 97.2404C11.529 97.5626 11.0561 97.8244 10.5544 98.0187C6.5691 99.5341 4.93114 92.5158 10.2417 92.5555C11.1059 92.5692 10.9306 92.6497 10.3059 92.0864C10.0135 91.8224 9.59116 91.5257 9.20217 91.2037C8.82622 90.8842 8.58629 90.4333 8.5313 89.943C8.4763 89.4527 8.61037 88.9599 8.90618 88.565C9.80092 87.3734 11.9314 86.7541 12.935 88.0412C13.344 88.6009 13.6972 89.1994 13.9896 89.828C15.1566 92.2126 12.1507 86.6795 16.1978 85.3668C17.9019 84.8085 19.6985 85.7561 18.5671 88.6774C18.3933 89.1056 18.1916 89.5219 17.9635 89.9238C17.6694 90.436 17.6887 90.5133 18.1846 90.1631C18.831 89.6338 19.6183 89.3054 20.4492 89.2186C21.5959 89.2411 23.1061 91.6279 22.9015 93.123C22.6087 95.263 20.6437 95.2181 19.4157 95.2442C18.1877 95.2703 17.8897 95.4834 19.3435 95.7719C19.835 95.8553 20.3171 95.9863 20.7832 96.1631C24.5433 97.6033 20.3163 103.177 17.3402 99.4997C16.6256 98.6105 16.103 97.6281 16.095 97.6867L15.9464 97.6814ZM16.493 95.6507C16.8558 95.0732 15.9317 94.8422 15.5677 95.2105C15.2037 95.5788 15.9896 96.4927 16.493 95.6507ZM13.8737 95.6954C14.6184 96.3648 15.2513 96.541 15.0932 95.2949C15.0277 94.4647 14.699 93.3744 13.7678 94.0683C13.6528 94.1734 13.5626 94.3028 13.5038 94.4471C13.445 94.5914 13.419 94.747 13.4277 94.9025C13.4364 95.0581 13.4797 95.2098 13.5543 95.3466C13.6289 95.4834 13.733 95.6019 13.859 95.6934L13.8737 95.6954ZM16.5836 94.3341C17.4282 93.5089 16.8142 92.6484 15.9852 92.9233C14.1998 93.5301 15.5663 95.3297 16.5836 94.3341ZM15.1423 92.9722C16.2402 91.8233 14.6497 91.7699 13.6905 92.669C12.7313 93.5681 14.1277 94.0578 15.1716 92.9762L15.1423 92.9722Z" fill="#5EAD41"/>
<path fill-rule="evenodd" clip-rule="evenodd" d="M332.555 53.1507C332.287 53.4005 332.098 53.7239 332.012 54.0805C331.926 54.437 331.947 54.8109 332.073 55.1555C332.073 55.1555 332.073 55.1555 332.128 55.2289C332.428 55.4371 332.782 55.5528 333.147 55.5619C333.512 55.5709 333.872 55.4728 334.181 55.2797C334.435 55.0807 334.653 54.8401 334.826 54.5681C334.817 54.8878 334.866 55.2065 334.972 55.5084C335.127 55.8412 335.376 56.1212 335.688 56.3139C336.001 56.5066 336.363 56.6035 336.73 56.5926L336.805 56.6029C337.097 56.3815 337.318 56.0791 337.439 55.7333C337.56 55.3875 337.577 55.0137 337.488 54.6583C337.377 54.3558 337.215 54.0743 337.01 53.826C337.318 53.9284 337.643 53.9728 337.967 53.9569C338.329 53.914 338.67 53.7643 338.946 53.527C339.222 53.2897 339.422 52.9755 339.519 52.6244C339.534 52.5982 339.538 52.5675 339.531 52.5383C339.413 52.191 339.194 51.8865 338.903 51.6634C338.611 51.4402 338.261 51.3084 337.895 51.2845C337.576 51.2941 337.262 51.3626 336.968 51.4865C337.159 51.2301 337.302 50.9417 337.392 50.635C337.462 50.2761 337.426 49.9044 337.287 49.5659C337.149 49.2275 336.914 48.9373 336.611 48.7313C336.585 48.7176 336.554 48.7135 336.525 48.7195C336.303 48.7339 336.083 48.7775 335.872 48.8492C335.477 48.9862 335.144 49.2601 334.934 49.6213C334.724 49.9825 334.65 50.4071 334.726 50.8181C334.523 50.4662 334.205 50.1954 333.825 50.0516C333.445 49.9077 333.028 49.8997 332.643 50.029C332.433 50.1014 332.234 50.2034 332.053 50.3319C332.047 50.3431 332.042 50.3555 332.04 50.3684C332.039 50.3814 332.04 50.3945 332.043 50.4071C331.934 50.7573 331.932 51.1318 332.036 51.4834C332.14 51.835 332.346 52.1479 332.627 52.3826C332.892 52.5607 333.186 52.6899 333.495 52.7644C333.192 52.8631 332.906 53.0088 332.647 53.1962L332.555 53.1507ZM336.681 56.312C336.378 56.3207 336.079 56.2413 335.821 56.0834C335.562 55.9255 335.355 55.6959 335.225 55.4225C335.01 54.6421 335.062 53.8125 335.372 53.0649C335.582 53.5217 335.751 53.9959 335.879 54.4821C335.902 54.5075 335.932 54.524 335.966 54.5286C336 54.5332 336.034 54.5256 336.062 54.5071C336.079 54.5014 336.095 54.4922 336.108 54.4801C336.122 54.468 336.133 54.4532 336.14 54.4367C336.148 54.4202 336.151 54.4023 336.152 54.3842C336.152 54.3661 336.148 54.3482 336.141 54.3316L335.674 53.0187C335.911 53.1918 336.161 53.3468 336.421 53.4825C336.797 53.8058 337.08 54.2225 337.242 54.6905C337.313 54.9844 337.299 55.2926 337.199 55.5783C337.1 55.8639 336.92 56.1149 336.682 56.3012L336.681 56.312ZM337.894 51.5255C338.197 51.5507 338.485 51.6622 338.726 51.8467C338.967 52.0311 339.15 52.2808 339.253 52.5661C339.172 52.8503 339.011 53.1057 338.79 53.3024C338.569 53.4991 338.297 53.6291 338.005 53.6773C337.198 53.6375 336.427 53.3316 335.812 52.8075C336.309 52.7477 336.81 52.732 337.309 52.7603C337.343 52.7551 337.373 52.739 337.396 52.7143C337.42 52.6897 337.434 52.6581 337.437 52.6244C337.433 52.5899 337.417 52.5579 337.393 52.5329C337.369 52.5079 337.337 52.4913 337.303 52.4855L335.906 52.5244C336.148 52.3597 336.372 52.1701 336.575 51.9586C336.99 51.7116 337.456 51.5652 337.937 51.5314L337.894 51.5255ZM335.078 49.924C335.321 49.1135 336.301 48.9956 336.482 48.9546C336.731 49.1274 336.924 49.3683 337.04 49.6484C337.155 49.9285 337.187 50.2359 337.132 50.5336C336.839 51.2853 336.314 51.9238 335.633 52.3557C335.633 52.3557 335.62 52.4525 336.039 50.9101C336.045 50.8942 336.046 50.8773 336.045 50.8605C336.043 50.8438 336.038 50.8276 336.03 50.8131C336.021 50.7985 336.01 50.7858 335.996 50.7759C335.983 50.766 335.967 50.7591 335.951 50.7556C335.919 50.7471 335.885 50.7501 335.855 50.764C335.825 50.7779 335.801 50.8019 335.787 50.8318L335.396 52.1697C335.304 51.8956 335.195 51.628 335.067 51.3687C334.95 50.8937 334.954 50.3971 335.078 49.924ZM335.344 52.5462C335.376 52.535 335.412 52.5369 335.442 52.5513C335.473 52.5658 335.497 52.5917 335.509 52.6235C335.515 52.6401 335.517 52.6577 335.516 52.6752C335.515 52.6927 335.51 52.7098 335.502 52.7255C335.495 52.7412 335.484 52.7553 335.471 52.7668C335.457 52.7784 335.442 52.7872 335.425 52.7929C335.409 52.7985 335.391 52.8008 335.374 52.7997C335.356 52.7986 335.339 52.794 335.324 52.7863C335.308 52.7785 335.294 52.7677 335.282 52.7545C335.271 52.7414 335.262 52.7261 335.256 52.7095C335.251 52.693 335.249 52.6756 335.251 52.6584C335.253 52.6413 335.258 52.6246 335.266 52.6094C335.274 52.5942 335.285 52.5808 335.299 52.5699C335.312 52.5591 335.328 52.551 335.344 52.5462ZM332.686 52.1167C332.544 52.0494 332.419 51.9523 332.319 51.8321C332.219 51.7119 332.146 51.5715 332.105 51.4204C332.064 51.2693 332.056 51.1111 332.082 50.9567C332.108 50.8024 332.167 50.6555 332.255 50.526C332.343 50.3966 332.458 50.2877 332.592 50.2069C332.726 50.1261 332.876 50.0752 333.032 50.0578C333.187 50.0404 333.345 50.0568 333.493 50.1059C333.642 50.155 333.778 50.2358 333.893 50.3425C334.525 50.8482 334.972 51.5489 335.165 52.3354C335.165 52.3354 335.253 52.4132 333.921 51.4968C333.901 51.4833 333.877 51.4746 333.853 51.4713C333.829 51.468 333.804 51.4702 333.781 51.4777C333.759 51.4876 333.741 51.5029 333.727 51.5221C333.713 51.5412 333.704 51.5636 333.7 51.5871C333.701 51.6128 333.708 51.638 333.72 51.6606C333.732 51.6832 333.749 51.7026 333.77 51.7172L334.911 52.5088C334.619 52.5051 334.327 52.5238 334.038 52.5647C333.557 52.5288 333.093 52.3749 332.686 52.1167ZM334.994 52.7832C334.994 52.7832 335.089 52.7304 333.771 53.7116C333.758 53.7219 333.746 53.7348 333.737 53.7496C333.729 53.7644 333.723 53.7808 333.721 53.7978C333.718 53.8148 333.72 53.832 333.724 53.8486C333.728 53.8652 333.736 53.8807 333.746 53.8944C333.756 53.9094 333.768 53.9222 333.783 53.9318C333.798 53.9415 333.814 53.9477 333.832 53.9501C333.849 53.9525 333.867 53.951 333.884 53.9457C333.901 53.9404 333.916 53.9314 333.929 53.9194L335.042 53.0746C334.947 53.3542 334.879 53.6418 334.837 53.934C334.644 54.3768 334.35 54.7682 333.979 55.0767C333.871 55.1918 333.74 55.2819 333.593 55.341C333.447 55.4001 333.29 55.4266 333.133 55.4187C332.975 55.4109 332.821 55.3688 332.682 55.2955C332.542 55.2221 332.42 55.1193 332.324 54.994C332.229 54.8688 332.161 54.7243 332.127 54.5704C332.093 54.4165 332.092 54.257 332.126 54.103C332.16 53.949 332.226 53.8041 332.322 53.6785C332.417 53.5529 332.538 53.4496 332.678 53.3756C333.358 52.9163 334.177 52.7069 334.994 52.7832Z" fill="#5EAD41"/>
<path fill-rule="evenodd" clip-rule="evenodd" d="M265.884 74.4225C265.615 74.6723 265.426 74.9957 265.341 75.3522C265.255 75.7088 265.276 76.0827 265.401 76.4273L265.457 76.5007C265.757 76.7088 266.111 76.8246 266.476 76.8336C266.841 76.8427 267.2 76.7446 267.51 76.5515C267.764 76.3524 267.982 76.1118 268.155 75.8399C268.146 76.1596 268.195 76.4782 268.3 76.7801C268.454 77.1138 268.703 77.3942 269.016 77.5855C269.33 77.7767 269.693 77.8701 270.06 77.8536C270.071 77.8603 270.084 77.8646 270.097 77.8664C270.11 77.8682 270.123 77.8674 270.135 77.864C270.427 77.6426 270.648 77.3401 270.769 76.9943C270.89 76.6485 270.907 76.2747 270.818 75.9194C270.707 75.6168 270.545 75.3354 270.34 75.087C270.646 75.1836 270.966 75.2274 271.286 75.2165C272.387 75.1808 272.831 73.9377 272.849 73.8854C272.864 73.8592 272.868 73.8285 272.861 73.7994C272.743 73.452 272.524 73.1476 272.233 72.9244C271.942 72.7013 271.591 72.5694 271.225 72.5455C270.908 72.5567 270.595 72.6213 270.3 72.7367C270.491 72.485 270.635 72.2 270.722 71.896C270.79 71.5305 270.747 71.153 270.598 70.8122C270.45 70.4715 270.202 70.1833 269.888 69.9849C269.876 69.9782 269.864 69.9739 269.851 69.9721C269.838 69.9704 269.825 69.9712 269.812 69.9746C269.59 69.989 269.37 70.0326 269.159 70.1044C268.764 70.2413 268.431 70.5152 268.221 70.8764C268.011 71.2376 267.937 71.6622 268.013 72.0732C267.812 71.7198 267.495 71.4469 267.115 71.3011C266.735 71.1552 266.317 71.1454 265.931 71.2734C265.722 71.3536 265.524 71.4588 265.34 71.587C265.334 71.5982 265.329 71.6106 265.328 71.6236C265.326 71.6365 265.327 71.6497 265.33 71.6623C265.221 72.0125 265.219 72.3869 265.323 72.7385C265.427 73.0901 265.633 73.403 265.914 73.6378C266.181 73.8113 266.474 73.9402 266.783 74.0195C266.479 74.1182 266.193 74.2639 265.935 74.4513L265.884 74.4225ZM270.015 77.5407C269.712 77.5495 269.414 77.4701 269.155 77.3122C268.897 77.1542 268.69 76.9246 268.559 76.6512C268.344 75.8709 268.396 75.0413 268.706 74.2937C268.916 74.7505 269.086 75.2246 269.214 75.7108C269.236 75.7362 269.267 75.7528 269.3 75.7574C269.334 75.762 269.368 75.7543 269.397 75.7358C269.429 75.722 269.456 75.6962 269.47 75.6636C269.485 75.631 269.487 75.5942 269.475 75.5604L269.009 74.2474C269.244 74.4223 269.494 74.5775 269.756 74.7112C270.128 75.0372 270.411 75.4531 270.577 75.9192C270.648 76.2132 270.633 76.5214 270.534 76.807C270.434 77.0927 270.255 77.3436 270.017 77.53L270.015 77.5407ZM271.229 72.7543C271.531 72.7795 271.82 72.8909 272.061 73.0754C272.302 73.2598 272.485 73.5095 272.588 73.7948C272.506 74.0791 272.346 74.3344 272.125 74.5311C271.904 74.7278 271.632 74.8578 271.34 74.906C270.53 74.8649 269.755 74.5588 269.136 74.0348C269.637 73.9828 270.141 73.9675 270.644 73.989C270.674 73.9847 270.702 73.9706 270.724 73.9488C270.745 73.927 270.759 73.8988 270.763 73.8684C270.768 73.8381 270.762 73.8071 270.747 73.7804C270.732 73.7536 270.708 73.7325 270.68 73.7201L269.284 73.7591C269.526 73.5944 269.75 73.4047 269.953 73.1932C270.367 72.9462 270.834 72.7999 271.315 72.7661L271.229 72.7543ZM268.413 71.1527C268.655 70.3422 269.636 70.2244 269.817 70.1834C270.065 70.3562 270.259 70.5971 270.374 70.8772C270.489 71.1573 270.521 71.4646 270.466 71.7624C270.188 72.5267 269.672 73.1818 268.994 73.6318C268.994 73.6318 268.981 73.7286 269.4 72.1863C269.405 72.1703 269.407 72.1534 269.406 72.1367C269.404 72.12 269.399 72.1038 269.39 72.0892C269.382 72.0747 269.371 72.062 269.357 72.0521C269.344 72.0422 269.328 72.0352 269.312 72.0317C269.28 72.0233 269.246 72.0263 269.216 72.0402C269.186 72.0541 269.162 72.0781 269.148 72.1079L268.757 73.446C268.665 73.1718 268.555 72.9042 268.428 72.645C268.311 72.17 268.315 71.6733 268.439 71.2002L268.413 71.1527ZM268.668 73.7735C268.685 73.7663 268.702 73.7626 268.721 73.7628C268.739 73.7629 268.757 73.7668 268.773 73.7742C268.79 73.7816 268.804 73.7924 268.816 73.8058C268.829 73.8193 268.838 73.8351 268.843 73.8523C268.849 73.8689 268.851 73.8864 268.85 73.9039C268.849 73.9214 268.845 73.9385 268.837 73.9542C268.829 73.97 268.818 73.984 268.805 73.9956C268.792 74.0072 268.777 74.016 268.76 74.0217C268.743 74.0273 268.726 74.0296 268.708 74.0285C268.691 74.0273 268.674 74.0227 268.658 74.015C268.642 74.0072 268.628 73.9965 268.617 73.9833C268.605 73.9701 268.596 73.9548 268.591 73.9382C268.573 73.9117 268.565 73.8794 268.57 73.8477C268.574 73.8159 268.59 73.7869 268.614 73.7661L268.668 73.7735ZM266.02 73.3455C265.879 73.2781 265.754 73.181 265.653 73.0608C265.553 72.9407 265.48 72.8002 265.439 72.6491C265.398 72.498 265.39 72.3399 265.416 72.1855C265.442 72.0311 265.501 71.8842 265.589 71.7548C265.677 71.6253 265.792 71.5165 265.926 71.4357C266.061 71.3549 266.21 71.304 266.366 71.2865C266.522 71.2691 266.679 71.2855 266.828 71.3347C266.976 71.3838 267.113 71.4645 267.227 71.5712C267.856 72.0797 268.303 72.7793 268.499 73.5641C268.499 73.5641 268.587 73.6419 267.255 72.7256C267.236 72.7093 267.213 72.6988 267.188 72.6954C267.164 72.692 267.138 72.6959 267.116 72.7064C267.094 72.7164 267.075 72.7317 267.061 72.7508C267.047 72.7699 267.038 72.7923 267.035 72.8159C267.033 72.8419 267.039 72.8679 267.051 72.8908C267.064 72.9138 267.082 72.9329 267.105 72.946L268.246 73.7376C267.953 73.7339 267.662 73.7525 267.372 73.7934C266.892 73.7576 266.427 73.6037 266.02 73.3455ZM268.33 74.0012C268.33 74.0012 268.416 74.0129 267.107 74.9296C267.094 74.9399 267.082 74.9528 267.073 74.9676C267.065 74.9824 267.059 74.9988 267.057 75.0158C267.054 75.0328 267.056 75.05 267.06 75.0666C267.064 75.0832 267.072 75.0987 267.082 75.1124C267.091 75.1274 267.104 75.1402 267.119 75.1498C267.134 75.1595 267.15 75.1657 267.168 75.1681C267.185 75.1705 267.203 75.169 267.22 75.1637C267.237 75.1584 267.252 75.1494 267.265 75.1374L268.378 74.2926C268.284 74.5685 268.216 74.8527 268.174 75.1413C267.983 75.5885 267.689 75.9839 267.315 76.2947C267.056 76.4505 266.759 76.5297 266.458 76.5234C266.156 76.517 265.862 76.4252 265.611 76.2587C265.507 75.9722 265.49 75.6616 265.562 75.3655C265.633 75.0695 265.791 74.801 266.014 74.5936C266.698 74.1481 267.514 73.947 268.327 74.0227L268.33 74.0012Z" fill="#5EAD41"/>
<path fill-rule="evenodd" clip-rule="evenodd" d="M300.497 29.5663C300.268 29.0171 300.039 28.3763 299.764 27.7356C299.398 26.6829 298.895 25.493 298.208 24.4404C296.973 22.5639 295.142 21.0993 292.213 21.3282C289.604 21.557 287.545 22.6554 286.172 24.6234C285.988 24.8522 285.394 26.2253 286.538 25.5388C286.858 25.3557 287.224 25.1268 287.636 24.9438C290.016 23.7081 291.664 23.2962 293.037 23.7996C295.188 24.5776 297.018 27.7356 297.11 29.9782C297.11 31.0766 296.973 32.1293 296.881 32.9988C296.79 34.4634 297.247 35.4245 296.378 34.5549C295.737 33.9142 295.737 32.5869 295.417 31.9004C294.593 30.1155 292.442 27.8271 290.245 28.239C288.506 28.5594 286.995 30.1155 287.545 30.0697C287.682 30.0697 288.002 29.9782 288.506 29.7036C289.696 29.1544 290.52 29.2459 291.984 30.5274C293.586 31.9004 295.096 35.9737 294.135 38.079C294.043 38.3078 293.906 38.4451 293.815 38.5367C293.174 38.9944 293.128 38.3536 293.174 37.8959C293.22 37.1179 293.037 36.2941 292.67 35.4703C292.213 34.4634 291.435 33.548 290.52 32.9988C288.826 31.992 286.171 32.9073 284.387 33.5023C283.837 33.6853 283.471 33.8684 283.426 33.9599C283.426 34.0515 284.112 33.96 285.027 33.9142C289.238 33.4565 290.565 35.5161 291.023 38.4452C291.16 39.2232 291.481 42.9761 291.023 44.8068C290.886 45.4018 290.748 45.9052 290.336 45.9052C289.97 45.9052 290.153 44.7153 290.016 43.8915C289.833 42.7473 289.604 41.6489 289.147 40.7335C288.78 40.047 288.323 39.452 287.636 39.0401C287.178 38.7655 286.766 38.674 286.355 38.674C283.288 38.674 285.897 39.4978 286.538 40.3216C288.689 42.8846 286.4 49.2005 285.943 49.292C285.668 49.3378 285.668 47.8275 285.119 46.0883C284.661 44.6237 283.883 43.0219 282.281 41.9692C279.856 40.4131 281.183 46.1341 281.274 47.1867C281.503 49.8412 281.274 52.4042 280.359 54.6925C279.627 56.4317 278.437 57.9421 276.606 59.2235C274.867 60.4135 271.48 61.9696 271.572 64.4868C271.709 67.0955 271.068 70.4823 273.219 72.1299C274.501 73.091 275.92 72.9995 277.384 73.1368C278.117 73.1826 277.933 73.503 277.338 73.6403C275.599 74.0064 273.219 73.9149 271.48 74.281C270.29 74.5098 269.009 75.1048 267.956 75.4252C267.27 75.6083 264.936 75.7913 264.157 75.8371C260.862 76.0659 261.823 75.6082 263.837 75.1963C266.171 74.7387 268.322 74.0521 268.277 73.8691C268.185 73.4572 265.576 74.6471 263.791 74.5098C262.51 74.4183 261.411 74.281 262.052 74.0979C263.196 73.7776 270.245 72.8164 270.428 71.9926C270.519 71.4892 270.519 70.6654 270.428 70.2992C270.199 69.3839 269.512 68.6974 268.78 67.6447C266.766 64.6698 261.778 60.7339 258.162 60.0016C257.704 63.5257 256.926 63.8918 254.043 65.9056C252.395 67.0498 251.434 67.5074 250.702 68.6974C250.29 69.3381 249.741 70.1619 249.603 71.4434C249.603 71.8553 249.466 71.9469 249.878 72.0842C250.931 72.4503 254.089 72.8622 250.793 73.091C250.29 73.091 249.741 72.908 248.917 72.9537C245.53 73.2283 249.604 76.7524 239.352 74.6471C236.148 74.0064 235.278 74.0979 237.933 73.7776C239.031 73.6403 240.541 73.686 241.686 73.6403C242.738 73.6403 243.745 73.5487 243.883 73.2741C243.974 73.091 241.411 73.0453 239.397 72.8164C238.207 72.6791 237.063 72.2672 237.063 72.2215C236.926 71.7638 243.471 71.9926 246.171 71.0315C248.688 70.1162 249.375 68.0109 250.107 63.3884C250.381 61.695 250.015 60.3677 249.786 60.0016C248.551 57.9878 245.118 56.6148 243.883 54.9672C242.372 53.0449 241.32 51.3516 240.633 49.6124C240.175 48.4225 239.855 47.1867 239.718 45.8137C239.672 45.356 239.626 42.5642 239.214 42.4727C238.802 42.3811 238.848 43.2507 238.711 43.4338C238.39 43.8915 237.201 40.8708 236.422 37.3925C235.416 32.8615 235.507 31.0766 237.017 26.9118C237.75 24.8522 239.809 20.0009 238.711 17.8956C238.116 16.7514 237.338 16.3395 236.697 17.1176C236.514 17.3464 236.422 17.5295 236.331 17.7126C235.187 20.1382 231.342 18.7652 231.846 15.9276C232.075 14.6004 233.264 13.7308 232.67 12.8155C232.212 12.0374 230.564 11.717 229.054 12.312C228.962 12.312 228.871 11.534 229.832 10.4813C231.297 8.83369 233.539 8.37602 235.736 8.05565C235.965 8.05565 236.148 7.87257 236.01 7.6895C235.965 7.59797 235.873 7.55218 235.782 7.46065C234.775 6.17916 234.043 3.75351 235.004 1.96858C235.965 0.183656 238.482 2.83816 238.94 2.60932C238.94 2.60932 238.573 -0.0451823 240.633 0.000585089C241.228 0.000585089 241.64 0.137886 241.915 0.320955C242.876 0.961698 242.372 2.65508 242.738 2.74662C243.516 2.92969 243.883 -0.228254 247.086 0.641325C248.093 0.915929 248.871 1.55668 248.871 2.15166C248.917 2.97547 248.505 3.34159 247.773 3.8908C245.576 5.44689 248.917 3.06701 249.924 5.62998C250.793 7.73528 247.818 7.8268 246.583 8.14717C245.301 8.46754 245.484 8.55907 246.171 8.97098C246.995 9.42865 248.596 10.2067 250.015 11.5797C252.624 14.0969 253.723 17.2091 254.546 20.184C255.965 25.4015 256.652 30.1155 263.608 29.9324C269.512 29.7494 276.194 24.8065 276.515 19.3602C276.698 16.0192 277.201 14.2342 278.391 13.0443C279.535 11.8543 281.32 11.2136 284.158 10.2525C285.577 9.79479 289.009 8.42177 285.76 11.0763C284.57 12.0374 283.105 12.2662 282.419 13.9139C281.732 15.6073 282.327 15.4242 283.609 14.6919C284.249 14.3258 284.982 13.9139 285.577 13.7308C288.735 12.7239 291.252 12.5408 293.357 13.2731C296.24 14.28 300.176 19.1771 301.229 21.8774C302.098 24.0284 301.641 26.2711 301.641 28.1933C301.641 29.9782 302.282 33.3192 300.634 29.4748L300.497 29.5663Z" fill="#D7B46A"/>
<path fill-rule="evenodd" clip-rule="evenodd" d="M262.097 32.9078C247.863 31.7178 241.639 45.0361 257.291 51.3062C262.371 53.3658 268.367 53.1827 273.905 51.7181C276.513 51.0316 273.722 50.5739 271.662 48.6517C274.454 47.5533 277.246 49.384 273.493 45.6311C270.197 42.3358 279.397 45.5395 272.074 40.1848C271.525 39.8186 267.36 37.2099 267.589 36.4318C268.779 36.3403 270.381 36.5691 267.863 35.0131C266.124 33.9604 264.202 33.2739 262.051 32.9078H262.097Z" fill="#B28100"/>
<mask id="mask0_308_4853" style="mask-type:alpha" maskUnits="userSpaceOnUse" x="248" y="32" width="28" height="21">
<path fill-rule="evenodd" clip-rule="evenodd" d="M262.097 32.9078C247.863 31.7178 241.639 45.0361 257.291 51.3062C262.371 53.3658 268.367 53.1827 273.905 51.7181C276.513 51.0316 273.722 50.5739 271.662 48.6517C274.454 47.5533 277.246 49.384 273.493 45.6311C270.197 42.3358 279.397 45.5395 272.074 40.1848C271.525 39.8186 267.36 37.2099 267.589 36.4318C268.779 36.3403 270.381 36.5691 267.863 35.0131C266.124 33.9604 264.202 33.2739 262.051 32.9078H262.097Z" fill="#B28100"/>
</mask>
<g mask="url(#mask0_308_4853)">
<path fill-rule="evenodd" clip-rule="evenodd" d="M250.658 41.0089C250.658 41.0089 250.2 41.1462 250.108 41.5581C250.108 41.6954 250.109 41.8785 250.154 42.1073C250.246 42.3819 250.337 42.565 250.521 42.6565C250.795 42.7938 251.115 42.6565 251.344 42.565C251.482 42.5192 251.619 42.4277 251.71 42.2904C251.893 42.0615 251.893 41.6954 251.71 41.4208C251.481 41.1462 251.07 40.9631 250.658 41.0547V41.0089ZM250.475 44.3042C250.475 44.3042 250.475 44.3957 250.521 44.4415C250.521 44.4415 250.566 44.4415 250.612 44.4415C250.612 44.4415 250.612 44.4415 250.658 44.4415C250.703 44.4415 250.749 44.3041 250.749 44.2584C250.749 44.2584 250.703 44.2126 250.658 44.1669C250.566 44.1669 250.52 44.1669 250.475 44.1669C250.475 44.1669 250.475 44.1668 250.475 44.2584V44.3042ZM253.083 42.8396C253.083 42.8396 253.083 42.8396 253.175 42.8396C253.175 42.8396 253.266 42.8396 253.312 42.8396C253.312 42.8396 253.358 42.7939 253.358 42.7481C253.358 42.7481 253.358 42.7481 253.358 42.7023C253.358 42.6565 253.266 42.6108 253.221 42.6108C253.221 42.6108 253.175 42.6108 253.129 42.7023C253.129 42.7023 253.129 42.8396 253.129 42.8854L253.083 42.8396ZM253.129 41.5581C253.129 41.5581 253.129 41.5581 253.175 41.5581C253.175 41.5581 253.221 41.5581 253.266 41.5123V41.4666C253.266 41.4666 253.221 41.4666 253.175 41.4666C253.175 41.4666 253.175 41.4666 253.175 41.5123C253.175 41.5581 253.175 41.6039 253.221 41.6496L253.129 41.5581ZM251.39 39.7274C251.39 39.7274 251.39 39.6359 251.39 39.5901C251.39 39.5901 251.344 39.5901 251.344 39.6816V39.7274C251.344 39.7274 251.436 39.7732 251.481 39.7732H251.527L251.39 39.7274ZM249.102 40.597C249.102 40.597 249.01 40.597 248.964 40.597C248.964 40.597 248.964 40.597 248.964 40.6428C248.964 40.6428 248.964 40.6885 249.01 40.7343C249.01 40.7343 249.01 40.7343 249.056 40.7343C249.056 40.7343 249.147 40.6885 249.147 40.6428C249.147 40.6428 249.147 40.597 249.147 40.5512L249.102 40.597ZM248.461 41.7412C248.461 41.7412 248.461 41.7412 248.369 41.7412C248.369 41.7412 248.278 41.7412 248.232 41.8327V41.9243C248.232 41.9243 248.232 41.9242 248.232 41.97C248.278 42.0158 248.369 42.0616 248.415 42.0158C248.415 42.0158 248.461 41.97 248.461 41.9243C248.461 41.8327 248.461 41.787 248.415 41.7412H248.461ZM249.147 43.4346C249.147 43.4346 249.102 43.4346 249.056 43.4803C249.056 43.5261 249.056 43.5719 249.056 43.6176C249.056 43.6176 249.056 43.7092 249.102 43.7092C249.102 43.7092 249.102 43.7092 249.147 43.7092C249.239 43.7092 249.285 43.7092 249.331 43.6176C249.331 43.6176 249.331 43.5261 249.331 43.4803C249.331 43.4346 249.239 43.3888 249.147 43.3888V43.4346ZM251.756 43.8007C251.756 43.8007 251.802 43.8465 251.848 43.8465H251.893C251.893 43.8007 251.893 43.755 251.893 43.7092C251.848 43.7092 251.802 43.7549 251.802 43.8007C251.802 43.8007 251.802 43.8007 251.802 43.8465L251.756 43.8007ZM254.319 41.9243C254.319 41.9243 254.548 42.0158 254.639 42.0158C254.822 42.0158 255.005 42.0158 255.143 41.8785C255.189 41.8785 255.234 41.8785 255.28 41.8785C255.28 41.9243 255.28 41.97 255.28 42.0158C255.097 42.1073 254.914 42.1989 254.685 42.1989C254.685 42.1989 254.365 42.1531 254.228 42.0616C254.136 41.97 254.044 41.8785 253.999 41.7869C253.587 42.0615 253.083 42.2446 252.626 42.2446C252.443 42.2446 252.214 42.2446 252.031 42.1531C252.031 42.1531 252.031 42.2446 251.985 42.2904C252.259 42.4277 252.58 42.565 252.946 42.6108C252.992 42.5192 253.083 42.4277 253.175 42.4277C253.358 42.4277 253.495 42.5192 253.541 42.6565C253.541 42.7023 253.541 42.7481 253.541 42.7938C253.541 42.8854 253.495 42.9769 253.404 43.0227C253.358 43.0684 253.266 43.1142 253.175 43.1142C253.083 43.1142 252.992 43.0684 252.946 42.9769C252.946 42.9769 252.946 42.8854 252.9 42.8396C252.534 42.7938 252.168 42.6565 251.893 42.4735C251.893 42.4735 251.893 42.4735 251.848 42.5192C252.077 42.9769 252.488 43.3431 252.946 43.5261C253.129 43.2973 253.449 43.2057 253.77 43.2515C253.953 43.2515 254.182 43.343 254.365 43.4346C254.411 43.4346 254.411 43.5261 254.365 43.5719C254.365 43.6177 254.273 43.6177 254.228 43.5719C254.09 43.4804 253.907 43.4346 253.724 43.3888C253.587 43.3888 253.404 43.3888 253.266 43.3888C253.587 43.3888 253.861 43.5719 254.09 43.8007C254.09 43.8007 254.09 43.8922 254.09 43.938C254.09 43.938 253.999 43.938 253.953 43.938C253.724 43.7092 253.404 43.5719 253.083 43.5719C253.312 43.8923 253.587 44.1669 253.953 44.3499C253.999 44.3499 254.045 44.4415 253.953 44.4872C253.953 44.4872 253.907 44.533 253.861 44.533C253.495 44.3499 253.175 44.0753 252.946 43.7549C252.946 43.8922 252.946 44.0753 252.946 44.1669C253.038 44.3957 253.175 44.5788 253.312 44.7161C253.312 44.7161 253.312 44.8076 253.312 44.8534C253.312 44.8534 253.312 44.8534 253.266 44.8534C253.266 44.8534 253.221 44.8534 253.175 44.8534C253.038 44.6703 252.855 44.4872 252.763 44.2126C252.672 43.9838 252.672 43.755 252.763 43.5719C252.26 43.3888 251.848 42.9769 251.573 42.5192C251.573 42.5192 251.527 42.5192 251.481 42.565C251.527 42.8854 251.665 43.16 251.802 43.3888C251.802 43.3888 251.985 43.3888 252.031 43.4346C252.122 43.5261 252.122 43.7092 252.076 43.8007C252.076 43.8465 252.076 43.8923 251.985 43.8923C251.939 43.8923 251.893 43.938 251.802 43.938C251.802 43.938 251.802 43.938 251.756 43.938C251.665 43.938 251.619 43.8922 251.573 43.8007C251.527 43.7092 251.481 43.6634 251.527 43.5719C251.527 43.5719 251.527 43.4803 251.573 43.4803C251.39 43.2057 251.298 42.9311 251.207 42.6565C251.207 42.6565 251.161 42.6565 251.116 42.6565C251.116 43.3888 251.115 44.2126 251.481 44.8991C251.756 44.8076 252.031 44.8991 252.397 45.128C252.443 45.128 252.443 45.2195 252.397 45.2653C252.397 45.311 252.305 45.311 252.26 45.2653C252.031 45.128 251.893 45.0822 251.71 45.0365C251.893 45.2195 252.031 45.4483 252.076 45.7229C252.076 45.7687 252.076 45.8145 251.985 45.8603C251.939 45.8603 251.893 45.8602 251.848 45.7687C251.848 45.4941 251.664 45.2653 251.436 45.128C251.436 45.2653 251.436 45.4026 251.436 45.5399C251.436 45.7229 251.527 45.906 251.573 46.0891C251.573 46.1348 251.573 46.1806 251.527 46.2264C251.527 46.2264 251.436 46.2264 251.436 46.1349C251.39 45.9518 251.298 45.7687 251.298 45.5399C251.298 45.4483 251.298 45.311 251.298 45.1737C251.253 45.2195 251.207 45.311 251.161 45.4026C251.115 45.5856 251.115 45.7687 251.161 45.9518C251.161 45.9976 251.161 46.0433 251.116 46.0891C251.116 46.0891 251.024 46.0891 251.024 46.0433C250.932 45.8145 250.978 45.5857 251.024 45.3568C251.07 45.1738 251.207 45.0364 251.344 44.9449C250.932 44.2584 250.886 43.4346 250.932 42.6565H250.841C250.703 43.0227 250.658 43.3888 250.658 43.8007C250.749 43.8007 250.841 43.8923 250.886 44.0296C250.932 44.2126 250.841 44.3499 250.703 44.4415C250.658 44.4415 250.612 44.4872 250.566 44.4872C250.566 44.4872 250.566 44.4872 250.521 44.4872C250.429 44.4872 250.337 44.4872 250.291 44.3957C250.246 44.3499 250.2 44.2584 250.154 44.1669C250.154 44.0753 250.154 43.938 250.246 43.8923C250.246 43.8923 250.337 43.8465 250.383 43.8007C250.383 43.4346 250.429 43.0227 250.566 42.6565C250.566 42.6565 250.566 42.6565 250.521 42.6565C249.788 44.0753 249.422 45.7687 249.559 47.3706C249.559 47.4163 249.559 47.4621 249.468 47.4621C249.468 47.4621 249.376 47.4621 249.376 47.3706C249.239 45.7229 249.559 44.0296 250.337 42.565C250.246 42.565 250.2 42.4735 250.154 42.4277C249.88 42.6565 249.605 42.8854 249.422 43.2057C249.513 43.2973 249.513 43.3888 249.468 43.5261C249.422 43.7092 249.239 43.7549 249.102 43.7549C249.056 43.7549 249.01 43.7549 248.964 43.7549C248.873 43.7549 248.827 43.6177 248.781 43.5261C248.781 43.4346 248.781 43.343 248.781 43.2515C248.827 43.16 248.919 43.0685 249.01 43.0685C249.056 43.0685 249.147 43.0685 249.193 43.0685C249.422 42.7481 249.697 42.4735 249.971 42.2446C249.971 42.1531 249.88 42.0615 249.834 41.97C249.285 42.1531 248.781 42.3361 248.278 42.6108C248.278 42.6108 248.278 42.6565 248.323 42.7023C248.415 42.8396 248.415 43.0227 248.369 43.2057C248.369 43.2973 248.369 43.3431 248.323 43.3888C248.323 43.4346 248.232 43.4804 248.186 43.5261C248.095 43.6177 248.003 43.7092 247.912 43.7549C247.912 43.7549 247.912 43.7549 247.866 43.7549C247.866 43.7549 247.82 43.7549 247.774 43.7549C247.774 43.7549 247.774 43.6634 247.774 43.6176C247.866 43.5719 247.957 43.4804 248.003 43.3888C248.003 43.3888 248.049 43.343 248.095 43.2973C248.095 43.2973 248.095 43.2057 248.095 43.16C248.095 43.0684 248.095 42.9769 248.095 42.8854C247.912 43.16 247.637 43.3888 247.317 43.4803C247.317 43.4803 247.225 43.4804 247.225 43.3888C247.225 43.3431 247.225 43.2973 247.317 43.2515C247.591 43.16 247.866 42.9769 248.003 42.7023V42.6565C247.728 42.6565 247.5 42.7938 247.271 42.9311C247.271 42.9311 247.271 42.9311 247.225 42.9311C247.225 42.9311 247.179 42.9311 247.133 42.9311C247.133 42.8854 247.133 42.8396 247.133 42.7938C247.317 42.6565 247.5 42.565 247.728 42.5192C247.591 42.5192 247.5 42.5192 247.363 42.5192C247.225 42.5192 247.134 42.6108 247.088 42.7023C247.088 42.7023 246.996 42.7023 246.951 42.7023C246.951 42.7023 246.951 42.6108 246.951 42.565C247.042 42.4735 247.179 42.3819 247.317 42.3362C247.454 42.3362 247.591 42.3362 247.728 42.3362C247.774 42.3362 247.866 42.3362 247.912 42.3362C247.958 42.3362 248.049 42.3819 248.095 42.4277C248.598 42.1531 249.147 41.9243 249.742 41.7412C249.742 41.7412 249.742 41.7412 249.742 41.6954C249.376 41.6039 248.964 41.6497 248.598 41.6954C248.598 41.787 248.507 41.9242 248.415 41.97C248.415 41.97 248.323 41.97 248.278 41.97C248.186 41.97 248.049 41.9243 248.003 41.8327C248.003 41.8327 247.912 41.7412 247.912 41.6954C247.912 41.6039 247.912 41.5124 247.912 41.4208C247.958 41.3751 248.049 41.2835 248.141 41.2835C248.232 41.2835 248.369 41.2835 248.415 41.2835C248.415 41.2835 248.507 41.3751 248.507 41.4208C248.919 41.3293 249.33 41.3293 249.696 41.4208C249.696 41.3751 249.696 41.3293 249.696 41.2835C249.239 41.2835 248.781 41.1462 248.323 40.9631C248.049 40.8716 247.683 40.6885 247.454 40.3682C247.362 40.4597 247.271 40.5055 247.179 40.5055C247.179 40.5055 247.088 40.5055 247.042 40.5055C246.951 40.5055 246.859 40.5055 246.768 40.5055C246.584 40.5055 246.447 40.4139 246.31 40.3224C246.264 40.3224 246.264 40.2309 246.31 40.1851C246.31 40.1393 246.401 40.1393 246.447 40.1851C246.584 40.2766 246.722 40.3224 246.859 40.3682C246.996 40.3682 247.088 40.4139 247.179 40.3682C247.271 40.3682 247.362 40.3224 247.408 40.2309C247.408 40.2309 247.408 40.2309 247.363 40.2309C247.088 40.2309 246.859 40.0935 246.768 40.002C246.722 39.9562 246.63 39.8647 246.584 39.7274C246.584 39.6817 246.584 39.6359 246.676 39.5901C246.722 39.5901 246.768 39.5901 246.813 39.6816C246.813 39.6816 246.813 39.7732 246.905 39.8189C247.088 39.9562 247.271 40.002 247.408 40.002C247.408 40.002 247.408 39.8647 247.271 39.7732C247.179 39.6817 247.042 39.5901 246.905 39.4986C246.859 39.4986 246.859 39.407 246.905 39.3613C246.905 39.3155 246.996 39.3155 247.042 39.3613C247.179 39.4528 247.317 39.5443 247.454 39.6816C247.454 39.6816 247.546 39.7732 247.591 39.8647C247.591 39.8647 247.591 39.8647 247.591 39.8189C247.591 39.6816 247.5 39.4986 247.363 39.4071C247.363 39.4071 247.363 39.3155 247.363 39.2698C247.363 39.2698 247.454 39.2698 247.5 39.2698C247.637 39.4071 247.774 39.5901 247.774 39.7732C247.774 39.8647 247.774 39.9562 247.774 40.002C247.774 40.0935 247.729 40.1393 247.683 40.2309C247.683 40.2309 247.683 40.2309 247.683 40.2766C247.866 40.5512 248.186 40.6886 248.461 40.7801C248.873 40.9174 249.33 41.0547 249.788 41.0547C249.788 41.0089 249.788 40.9631 249.834 40.9174C249.559 40.8258 249.285 40.7343 249.056 40.5512L248.964 40.597C248.964 40.597 248.964 40.597 248.918 40.597C248.873 40.597 248.781 40.597 248.736 40.5055C248.69 40.4597 248.644 40.3682 248.644 40.3224C248.644 40.2308 248.644 40.1393 248.69 40.0936C248.69 40.0936 248.736 40.0478 248.781 40.002C248.873 40.002 249.056 40.002 249.147 40.0936C249.193 40.1851 249.239 40.2766 249.147 40.3682C249.376 40.5512 249.651 40.6428 249.926 40.7343C249.926 40.7343 249.971 40.6885 250.017 40.6428C249.834 40.4597 249.697 40.2309 249.651 40.002C249.559 40.002 249.513 40.002 249.468 40.0478C249.468 40.0478 249.468 40.0478 249.422 40.0478C249.285 40.0478 249.147 40.002 249.01 39.9105C248.919 39.819 248.781 39.7274 248.69 39.5901C248.69 39.5444 248.69 39.4986 248.69 39.4528C248.69 39.4528 248.781 39.4528 248.827 39.4528C248.919 39.5901 249.01 39.6817 249.102 39.7274C249.193 39.819 249.33 39.8189 249.422 39.8189C249.422 39.8189 249.468 39.8189 249.513 39.8189C249.513 39.8189 249.33 39.7274 249.239 39.6359C249.147 39.5444 249.056 39.4528 249.01 39.3155C249.01 39.2698 249.01 39.224 249.056 39.1782C249.102 39.1782 249.147 39.1782 249.193 39.2698C249.193 39.3613 249.285 39.407 249.331 39.4986C249.376 39.5443 249.468 39.5901 249.559 39.6359C249.559 39.4986 249.468 39.3155 249.376 39.224C249.376 39.224 249.376 39.1324 249.376 39.0867C249.376 39.0867 249.468 39.0867 249.513 39.0867C249.651 39.2698 249.696 39.4986 249.742 39.6816C249.788 39.5901 249.788 39.4986 249.788 39.4528C249.788 39.3613 249.788 39.2697 249.742 39.1782C249.742 39.1324 249.742 39.0867 249.834 39.0409C249.88 39.0409 249.926 39.0409 249.971 39.1325C249.971 39.224 250.017 39.3613 250.017 39.4528C250.017 39.5901 250.017 39.7274 249.926 39.8189C249.926 39.8189 249.834 39.9105 249.788 39.9563C249.88 40.1851 249.971 40.3682 250.154 40.5512C250.154 40.5512 250.292 40.5055 250.383 40.4597H250.475C250.292 39.819 250.292 39.1324 250.475 38.5375C250.383 38.5375 250.246 38.4459 250.154 38.3544C249.925 38.1713 249.788 37.8967 249.788 37.5764C249.788 37.5306 249.788 37.4848 249.88 37.4848C249.925 37.4848 249.971 37.4848 249.971 37.5764C249.971 37.8052 250.109 38.034 250.246 38.2171C250.246 38.2171 250.337 38.2629 250.383 38.3086C250.292 37.9883 250.291 37.7136 250.291 37.3933C250.291 37.3475 250.337 37.3018 250.383 37.3018C250.429 37.3018 250.475 37.3475 250.475 37.3933C250.475 37.7136 250.475 38.034 250.612 38.3544C250.749 38.1256 250.795 37.851 250.795 37.5764C250.795 37.5306 250.795 37.4848 250.886 37.4848C250.932 37.4848 250.978 37.4848 250.978 37.5764C250.978 37.8967 250.932 38.1713 250.795 38.4459C250.795 38.4459 250.841 38.4459 250.886 38.4459C250.932 38.4459 251.024 38.4002 251.116 38.3086C251.207 38.2629 251.253 38.1713 251.298 38.1256C251.298 38.0798 251.39 37.9883 251.39 37.8967C251.39 37.851 251.39 37.8052 251.481 37.8052C251.527 37.8052 251.573 37.851 251.573 37.8967C251.573 38.034 251.573 38.1256 251.436 38.2629C251.39 38.3544 251.298 38.446 251.207 38.4917C251.115 38.5833 251.024 38.629 250.932 38.629C250.841 38.629 250.749 38.629 250.658 38.629C250.658 38.629 250.612 38.629 250.566 38.629C250.383 39.224 250.429 39.9105 250.566 40.5055C250.566 40.5055 250.566 40.5055 250.612 40.5055C250.612 40.2309 250.612 39.9105 250.703 39.6359C250.703 39.6359 250.612 39.5901 250.612 39.5443C250.566 39.4528 250.566 39.3613 250.612 39.2698C250.612 39.1782 250.704 39.1324 250.749 39.0867C250.841 39.0867 250.932 39.0409 250.978 39.0867C250.978 39.0867 251.07 39.0867 251.07 39.1782C251.161 39.2697 251.207 39.407 251.07 39.5443C251.024 39.6359 250.932 39.6816 250.841 39.6816C250.749 39.9562 250.704 40.2766 250.749 40.5512C250.795 40.5512 250.841 40.5512 250.886 40.597C251.024 40.002 251.344 39.4986 251.756 39.0409C251.756 38.9494 251.71 38.9036 251.665 38.8121C251.665 38.6748 251.664 38.5375 251.71 38.3544C251.756 38.1713 251.893 37.9425 252.122 37.8052C252.122 37.8052 252.214 37.8052 252.26 37.8052C252.305 37.8052 252.26 37.8967 252.26 37.9425C252.077 38.0798 251.985 38.2629 251.939 38.4002C251.939 38.5375 251.893 38.6748 251.893 38.7663C251.893 38.7663 251.893 38.8578 251.893 38.9036C252.031 38.5832 252.26 38.3544 252.488 38.1713C252.488 38.1713 252.58 38.1713 252.626 38.1713C252.671 38.1713 252.626 38.2629 252.626 38.3086C252.443 38.4459 252.26 38.629 252.122 38.9036C252.397 38.9036 252.626 38.7663 252.809 38.5832C252.809 38.5832 252.9 38.5832 252.946 38.5832C252.946 38.5832 252.946 38.6748 252.946 38.7205C252.717 38.9494 252.397 39.1325 252.076 39.1325C252.122 39.1782 252.214 39.224 252.305 39.224C252.534 39.224 252.809 39.1325 252.946 38.9494C252.946 38.9494 253.038 38.9036 253.083 38.9494C253.083 38.9494 253.129 39.0409 253.083 39.0867C252.946 39.3155 252.671 39.4528 252.397 39.4528C252.397 39.4528 252.305 39.4528 252.26 39.4528C252.077 39.4528 251.939 39.3155 251.802 39.1782C251.39 39.5901 251.115 40.0936 250.978 40.6885C251.07 40.7343 251.161 40.8258 251.253 40.8716C251.436 40.7801 251.619 40.597 251.756 40.4139C251.756 40.2766 251.756 40.1393 251.756 40.002C251.802 39.8647 251.939 39.7732 251.985 39.6816C251.985 39.6816 252.076 39.6816 252.122 39.6816C252.122 39.6816 252.122 39.7732 252.122 39.8189C252.031 39.9105 251.939 40.002 251.893 40.0936C251.893 40.1851 251.848 40.2766 251.893 40.3682C251.893 40.2766 251.939 40.2309 251.985 40.1851C252.031 40.0936 252.122 40.002 252.214 39.9105C252.214 39.9105 252.305 39.9105 252.351 39.9105C252.351 39.9105 252.351 40.002 252.351 40.0478C252.26 40.1393 252.214 40.1851 252.168 40.2766C252.168 40.2766 252.168 40.2766 252.168 40.3224C252.305 40.3224 252.488 40.2309 252.58 40.1393C252.58 40.1393 252.671 40.1393 252.717 40.1393C252.717 40.1393 252.717 40.2309 252.717 40.2766C252.58 40.4139 252.397 40.5055 252.214 40.5055C252.26 40.5055 252.305 40.5055 252.397 40.5055C252.58 40.5055 252.672 40.4597 252.763 40.3682C252.763 40.3682 252.854 40.3682 252.9 40.3682C252.946 40.3682 252.9 40.4597 252.9 40.5055C252.763 40.597 252.626 40.6885 252.397 40.6885C252.397 40.6885 252.351 40.6885 252.305 40.6885C252.214 40.6885 252.122 40.6885 252.031 40.6885C251.939 40.6885 251.893 40.597 251.802 40.5512C251.665 40.7343 251.482 40.9174 251.298 41.0089C251.344 41.1004 251.39 41.192 251.39 41.2835C251.665 41.2835 251.939 41.2377 252.214 41.1462C252.214 41.1462 252.214 40.9631 252.305 40.9174C252.443 40.8258 252.58 40.8716 252.671 40.9174C252.671 40.9174 252.763 40.9631 252.763 41.0089C252.763 41.1004 252.763 41.192 252.763 41.2378C252.763 41.2835 252.671 41.375 252.626 41.375C252.626 41.375 252.534 41.375 252.488 41.375C252.488 41.375 252.397 41.375 252.351 41.375C252.351 41.375 252.305 41.3293 252.26 41.2835C251.985 41.3751 251.71 41.4208 251.39 41.4208C251.39 41.4666 251.39 41.5581 251.39 41.6039C252.031 41.787 252.763 41.6039 253.266 41.2378C253.175 40.8716 253.266 40.4597 253.541 40.1851C253.541 40.1851 253.633 40.1851 253.678 40.1851C253.678 40.1851 253.678 40.2766 253.678 40.3224C253.495 40.5055 253.404 40.8259 253.449 41.1005C253.449 41.1005 253.449 41.1005 253.495 41.1005C253.587 41.0089 253.678 40.9631 253.724 40.8716C253.77 40.8258 253.907 40.6885 253.953 40.6885H253.999C253.999 40.6885 253.999 40.7343 253.999 40.7801C253.999 40.8716 253.907 40.9174 253.816 40.9631C253.724 41.0547 253.633 41.1462 253.541 41.2378C253.541 41.2378 253.541 41.2378 253.495 41.2835C253.495 41.2835 253.541 41.2835 253.587 41.2835C253.861 41.2835 254.09 41.2377 254.319 41.0547C254.319 41.0547 254.411 41.0547 254.456 41.0547C254.456 41.0547 254.456 41.1462 254.456 41.192C254.228 41.3293 253.953 41.4208 253.724 41.4208C253.724 41.4208 253.724 41.4208 253.678 41.4208C253.678 41.4208 253.633 41.4208 253.587 41.4208C253.587 41.4208 253.633 41.5123 253.678 41.5123L254.319 41.9243Z" fill="#845B00"/>
<path fill-rule="evenodd" clip-rule="evenodd" d="M257.108 47.3697C257.108 47.3697 256.742 47.2781 256.742 47.0493C256.742 46.912 256.834 46.7747 256.971 46.7289C257.108 46.7289 257.291 46.7289 257.429 46.7289C257.886 46.8205 258.298 46.9578 258.664 47.1408C258.985 47.3239 259.259 47.507 259.58 47.8273C259.58 47.3239 259.58 46.8205 259.534 46.317C258.71 46.134 257.932 45.9051 257.154 45.6763C256.971 45.6763 256.788 45.539 256.834 45.3101C256.834 45.1728 256.971 45.0356 257.063 45.0356C257.2 45.0356 257.383 45.0356 257.474 45.0356C257.886 45.1271 258.252 45.3101 258.619 45.4932C258.939 45.6763 259.214 45.9051 259.488 46.1797C259.488 45.7678 259.488 45.4017 259.442 44.9898C258.619 44.6236 257.795 44.3033 257.017 44.1202C256.834 44.1202 256.651 43.9829 256.651 43.754C256.651 43.6167 256.788 43.4794 256.879 43.4794C257.017 43.4794 257.2 43.4794 257.337 43.4794C257.795 43.6167 258.207 43.7998 258.573 44.0287C258.893 44.2117 259.168 44.4863 259.397 44.8067C259.397 44.349 259.351 43.8913 259.305 43.4337C258.527 43.0675 257.703 42.7472 256.925 42.6099C256.742 42.6099 256.559 42.4726 256.559 42.2895C256.559 42.1522 256.651 42.0149 256.788 41.9691C256.925 41.9691 257.108 41.9691 257.246 41.9691C257.703 42.0606 258.115 42.2437 258.481 42.5183C258.802 42.7014 259.031 42.976 259.305 43.2964C259.305 42.8845 259.214 42.5183 259.168 42.1064C259.168 42.1064 259.168 42.0607 259.168 42.0149C258.298 41.6488 257.383 41.2368 256.513 40.9622C256.33 40.9165 256.101 40.7792 256.101 40.5961C256.101 40.4588 256.239 40.3673 256.376 40.3215C256.513 40.3215 256.742 40.3215 256.834 40.3673C257.337 40.5503 257.749 40.7334 258.115 41.008C258.436 41.2368 258.756 41.5115 259.076 41.8776C259.076 41.4657 258.985 41.0538 258.939 40.6876C258.573 40.4588 258.207 40.23 257.841 40.0469C257.429 39.8181 256.971 39.5892 256.513 39.4519C256.33 39.3604 256.101 39.2688 256.147 39.04C256.147 38.9027 256.285 38.8112 256.422 38.7654C256.559 38.7654 256.788 38.7654 256.879 38.8569C257.383 39.04 257.795 39.3146 258.115 39.635C258.39 39.8638 258.619 40.1384 258.802 40.4588C258.71 39.9554 258.664 39.4061 258.573 38.9027C258.252 38.6281 257.886 38.3993 257.52 38.1704C257.108 37.8958 256.651 37.667 256.193 37.4839C256.01 37.3924 255.781 37.2551 255.827 37.072C255.827 36.9347 256.01 36.8432 256.147 36.8432C256.239 36.8432 256.33 36.8432 256.376 36.8432C256.468 36.8432 256.559 36.8889 256.605 36.9347C257.108 37.1635 257.52 37.4382 257.886 37.8043C258.115 38.0331 258.344 38.3077 258.527 38.6281C258.436 38.1704 258.39 37.667 258.298 37.2093C257.657 36.6601 256.971 36.2024 256.284 35.9278C256.147 35.8821 255.964 35.7448 255.964 35.5159C255.964 35.3786 256.102 35.2871 256.239 35.2413C256.285 35.2413 256.376 35.2413 256.468 35.2413C256.559 35.2413 256.605 35.2871 256.696 35.3329C257.154 35.5159 257.474 35.7905 257.795 36.1109C257.932 36.294 258.07 36.4771 258.207 36.7059C258.115 36.2025 258.024 35.7447 257.932 35.2413C257.292 34.6921 256.605 34.2344 255.918 33.9598C255.781 33.9141 255.598 33.7768 255.644 33.5937C255.644 33.4564 255.781 33.3649 255.918 33.3191C255.964 33.3191 256.056 33.3191 256.147 33.3191C256.239 33.3191 256.285 33.3191 256.376 33.4106C256.788 33.5937 257.154 33.8683 257.429 34.1887C257.612 34.4175 257.795 34.6463 257.932 34.9667C257.841 34.5548 257.749 34.1429 257.658 33.731C257.017 33.2276 256.513 32.5411 256.056 31.9003C255.964 31.763 255.873 31.5342 256.056 31.3969C256.147 31.3053 256.33 31.3053 256.422 31.3969C256.513 31.4426 256.651 31.5799 256.696 31.6715C257.063 32.2207 257.337 32.6784 257.566 33.2733C257.52 32.9987 257.429 32.7241 257.383 32.4495C256.88 31.6257 256.513 30.6646 256.239 29.7492C256.193 29.5662 256.193 29.2916 256.422 29.2C256.559 29.1085 256.742 29.2 256.879 29.2916C256.971 29.3831 257.063 29.5662 257.108 29.7035C257.383 30.573 257.474 31.3511 257.474 32.3122C257.474 32.4495 257.566 32.5868 257.566 32.7241C257.52 32.0376 257.566 31.3511 257.658 30.7104C257.658 30.5273 257.749 30.3442 257.978 30.3442C258.115 30.3442 258.252 30.4358 258.298 30.5731C258.344 30.7104 258.298 30.8477 258.298 30.985C258.207 31.763 258.024 32.4037 257.658 33.1818C257.841 33.8225 257.978 34.4633 258.115 35.1498C258.115 34.7379 258.115 34.3717 258.253 33.9598C258.39 33.5022 258.527 32.9987 258.756 32.5868C258.848 32.4038 259.031 32.2207 259.214 32.3122C259.351 32.358 259.397 32.541 259.397 32.6326C259.397 32.7699 259.305 32.9072 259.259 33.0445C259.076 33.4564 258.893 33.8225 258.71 34.1887C258.527 34.5548 258.344 34.921 258.115 35.3329C258.207 35.7448 258.298 36.1567 258.344 36.5686C258.39 35.7905 258.664 34.9667 258.985 34.2345C259.076 34.0514 259.214 33.8683 259.397 33.9598C259.534 33.9598 259.626 34.1429 259.626 34.2802C259.626 34.4175 259.58 34.5548 259.534 34.6921C259.214 35.4702 258.893 36.0651 258.39 36.8432C258.481 37.3924 258.573 37.9874 258.664 38.5366C258.664 38.1247 258.665 37.667 258.802 37.2093C258.939 36.7516 259.168 36.2482 259.442 35.8821C259.534 35.699 259.763 35.5617 259.946 35.6532C260.083 35.699 260.129 35.8821 260.083 36.0194C260.083 36.1567 259.992 36.294 259.9 36.3855C259.671 36.7516 259.488 37.1178 259.305 37.4839C259.122 37.8501 258.893 38.2162 258.71 38.6739C258.71 38.8569 258.756 38.9942 258.802 39.1773C258.802 39.1773 258.802 39.2231 258.802 39.2689C258.848 39.5892 258.893 39.9096 258.939 40.23C258.939 39.7723 259.031 39.2689 259.214 38.8112C259.397 38.262 259.671 37.8043 260.037 37.3466C260.175 37.1636 260.403 36.9805 260.587 37.1178C260.724 37.2093 260.724 37.3466 260.678 37.4839C260.678 37.6212 260.541 37.8043 260.449 37.8958C260.175 38.3077 259.9 38.6739 259.671 39.0858C259.443 39.4519 259.214 39.8638 258.985 40.3673C258.985 40.5961 259.031 40.8249 259.076 41.008C259.076 41.2368 259.122 41.4657 259.168 41.6945C259.214 41.3284 259.351 40.9165 259.534 40.5503C259.763 40.0011 260.129 39.5435 260.541 39.1316C260.724 38.9485 260.953 38.8112 261.136 38.9485C261.227 39.04 261.227 39.2231 261.182 39.3604C261.182 39.4061 261.09 39.4977 261.044 39.5434C260.999 39.635 260.953 39.6808 260.907 39.7265C260.541 40.0927 260.266 40.4588 259.992 40.8707C259.717 41.2368 259.488 41.603 259.214 42.0149C259.214 42.1064 259.214 42.1979 259.214 42.2895C259.214 42.6556 259.305 42.976 259.305 43.3421C259.397 42.8845 259.534 42.4726 259.809 42.0607C260.083 41.603 260.404 41.1911 260.77 40.8249C260.907 40.6876 261.182 40.5503 261.319 40.6876C261.411 40.7792 261.456 40.9622 261.365 41.0538C261.319 41.1911 261.182 41.3284 261.09 41.4199C260.77 41.7403 260.495 42.0607 260.175 42.381C259.9 42.7014 259.626 43.0218 259.305 43.4337C259.305 43.7998 259.351 44.1202 259.397 44.4863C259.763 43.7541 260.358 43.0675 260.999 42.6099C261.136 42.5183 261.365 42.4268 261.502 42.6099C261.593 42.7014 261.594 42.8845 261.548 42.976C261.502 43.0675 261.365 43.2048 261.319 43.2506C260.678 43.754 260.175 44.1202 259.397 44.5321C259.397 44.9898 259.488 45.4474 259.488 45.9051C259.854 45.1728 260.541 44.5321 261.227 44.1202C261.365 44.0286 261.593 43.9371 261.731 44.1202C261.822 44.2117 261.822 44.3948 261.731 44.4863C261.685 44.5779 261.548 44.7152 261.456 44.7609C261.09 44.9898 260.816 45.1728 260.495 45.4017C260.175 45.5847 259.9 45.7678 259.534 45.9967C259.534 46.4086 259.58 46.8662 259.626 47.2781C259.809 46.9578 260.037 46.6832 260.312 46.4086C260.632 46.0882 261.044 45.8136 261.456 45.6305C261.639 45.539 261.868 45.539 261.96 45.722C262.006 45.8593 261.96 45.9966 261.96 46.0882C261.868 46.1797 261.731 46.2713 261.639 46.317C261.273 46.5001 260.953 46.6831 260.632 46.8662C260.358 47.0493 260.038 47.1866 259.671 47.4154C259.671 47.8731 259.671 48.3308 259.717 48.8342C259.9 48.4681 260.175 48.1477 260.495 47.8731C260.816 47.5985 261.182 47.3239 261.594 47.1408C261.731 47.0493 261.96 47.0493 262.097 47.2324C262.143 47.3697 262.097 47.507 262.097 47.5985C262.051 47.69 261.914 47.7816 261.822 47.8273C261.136 48.1935 260.587 48.4681 259.809 48.88C259.809 49.2004 259.809 49.5207 259.809 49.8411C259.946 49.5207 260.175 49.2004 260.449 48.9258C260.816 48.6054 261.228 48.4223 261.685 48.3308C261.777 48.3308 261.868 48.3308 261.96 48.3308C262.051 48.3308 262.143 48.4223 262.143 48.5138C262.143 48.6511 262.097 48.7885 262.005 48.88C262.005 48.88 261.914 48.9257 261.822 48.9715C261.777 48.9715 261.685 48.9715 261.639 49.0173C261.273 49.1088 260.953 49.2461 260.632 49.4292C260.495 49.5207 260.312 49.6123 260.175 49.7038C260.038 49.7953 259.9 49.8869 259.717 50.0242C259.717 50.3903 259.717 50.8022 259.717 51.1684C260.037 50.6192 260.632 50.2072 261.227 49.9784C261.365 49.9326 261.548 49.9326 261.639 50.1157C261.685 50.253 261.639 50.3903 261.639 50.4818C261.594 50.5734 261.456 50.6191 261.411 50.6649C261.136 50.8022 260.861 50.8938 260.587 51.0311C260.312 51.1226 260.083 51.2141 259.763 51.3057C259.763 51.9922 259.763 52.6787 259.671 53.3194C259.671 53.411 259.488 53.411 259.488 53.3194C259.488 52.5414 259.488 51.7633 259.488 50.9853C258.802 50.9853 258.161 51.031 257.612 51.1226C257.475 51.1226 257.291 51.1226 257.246 50.9395C257.2 50.8022 257.246 50.6649 257.291 50.5734C257.383 50.4819 257.52 50.4361 257.612 50.4361C257.978 50.3903 258.344 50.3903 258.664 50.4361C258.939 50.5276 259.214 50.6191 259.488 50.8022C259.488 50.3445 259.488 49.9326 259.488 49.475C258.802 49.475 258.069 49.475 257.429 49.475C257.291 49.475 257.108 49.4292 257.063 49.2004C257.063 49.0631 257.108 48.9258 257.2 48.88C257.291 48.8342 257.475 48.7885 257.566 48.7885C258.298 48.7885 258.847 48.9715 259.488 49.3834C259.488 48.9715 259.488 48.5596 259.488 48.1477C258.664 47.9189 257.841 47.69 257.063 47.5985L257.108 47.3697Z" fill="#845B00"/>
<path fill-rule="evenodd" clip-rule="evenodd" d="M269.331 38.1249C269.194 38.6283 269.056 39.1317 268.919 39.6352C268.782 39.0402 268.507 38.5368 268.095 38.0791C267.729 37.6672 266.722 36.8891 266.173 37.3926C265.624 37.8502 266.173 38.9487 266.494 39.4063C266.997 40.1386 267.821 40.5963 268.69 40.7336C268.462 41.832 268.233 42.9762 268.095 44.0746C267.912 43.4338 267.546 42.8847 267.043 42.427C266.631 42.0609 265.578 41.3743 265.121 41.9693C264.709 42.5185 265.258 43.4339 265.578 43.8458C266.173 44.5781 267.043 44.99 268.004 45.0357C267.866 46.4088 267.821 47.8275 267.867 49.2005C267.592 48.6513 267.18 48.1479 266.631 47.8275C266.173 47.5529 264.983 47.0037 264.617 47.6902C264.251 48.331 265.121 49.2463 265.578 49.6125C266.265 50.1617 267.089 50.3447 267.958 50.2532C268.05 51.5347 268.187 52.8162 268.37 54.0977C268.095 53.5942 267.683 53.1823 267.226 52.8619C266.677 52.5416 265.715 52.267 265.258 52.8619C264.754 53.5027 265.441 54.235 265.944 54.6469C266.722 55.2418 267.638 55.4249 268.599 55.2418C268.782 56.2487 269.057 57.3014 269.331 58.3082C269.377 58.5371 269.743 58.4456 269.652 58.2167C269.331 57.2098 269.102 56.1572 268.873 55.1045C269.743 55.013 270.521 54.6469 271.07 53.9604C271.482 53.4569 271.986 52.6331 271.436 52.0381C270.933 51.4889 270.109 52.0381 269.652 52.4042C269.194 52.8162 268.828 53.3196 268.645 53.9146C268.461 52.6789 268.324 51.3974 268.233 50.1159C269.148 50.1159 269.972 49.7498 270.613 49.109C271.07 48.6514 271.574 47.8733 271.07 47.2325C270.613 46.6376 269.743 47.2325 269.285 47.5529C268.828 47.9191 268.462 48.3767 268.233 48.8802C268.233 47.5529 268.233 46.2714 268.37 44.9442C269.24 45.0815 270.109 44.8527 270.796 44.3492C271.253 44.0288 272.169 43.0677 271.665 42.427C271.208 41.9236 270.155 42.3354 269.697 42.61C269.24 42.8846 268.828 43.2508 268.553 43.7085C268.691 42.7016 268.874 41.6489 269.102 40.642C270.018 40.8709 271.024 40.7336 271.803 40.1386C272.26 39.8183 273.13 38.9487 272.672 38.3537C272.26 37.8502 271.162 38.1706 270.658 38.3995C270.155 38.6283 269.697 38.9944 269.377 39.4521C269.469 39.0402 269.606 38.6283 269.743 38.1706C269.789 37.9418 269.469 37.8502 269.423 38.0791L269.331 38.1249ZM271.208 39.086C270.613 39.3148 269.972 39.6352 269.377 40.0013C269.56 39.6809 269.789 39.4064 270.109 39.1317C270.521 38.8114 271.345 38.3537 271.848 38.491C273.038 38.8114 271.437 39.9556 271.07 40.1386C270.521 40.4132 269.926 40.459 269.377 40.3674C269.972 39.9555 270.704 39.5894 271.345 39.3606C271.528 39.269 271.345 38.9944 271.162 39.086H271.208ZM269.011 40.642C269.011 40.642 269.057 40.642 269.102 40.642C269.102 40.642 269.057 40.642 269.011 40.642ZM266.997 38.674C267.5 39.1775 268.05 39.7267 268.462 40.3674C267.912 40.2301 267.363 39.9555 266.951 39.4979C266.722 39.2233 265.624 37.5756 266.768 37.6214C267.272 37.6214 267.867 38.3537 268.141 38.7198C268.37 39.086 268.553 39.4979 268.599 39.9098C268.187 39.3606 267.729 38.8571 267.226 38.3995C267.088 38.2621 266.814 38.491 266.997 38.6283V38.674ZM270.292 43.2508C269.697 43.5254 269.102 43.8915 268.553 44.3034C268.736 43.8915 269.011 43.5712 269.331 43.2966C269.697 42.9762 270.43 42.5185 270.979 42.6558C272.123 42.8847 270.613 44.1661 270.247 44.395C269.743 44.7153 269.148 44.8069 268.553 44.7611C269.102 44.3034 269.789 43.8916 270.43 43.5712C270.613 43.4796 270.43 43.1593 270.247 43.2966L270.292 43.2508ZM266.082 43.1593C266.631 43.6169 267.226 44.1204 267.684 44.7154C267.134 44.6238 266.631 44.4407 266.219 44.0746C265.853 43.7542 265.166 42.9762 265.304 42.427C265.532 41.5574 266.951 42.7931 267.134 43.022C267.455 43.3881 267.683 43.8458 267.775 44.3034C267.363 43.8 266.814 43.2966 266.31 42.8847C266.127 42.7474 265.899 42.9762 266.082 43.1135V43.1593ZM269.926 48.1021C269.377 48.514 268.828 48.926 268.324 49.4294C268.461 48.9717 268.69 48.5598 269.057 48.1937C269.377 47.8733 270.613 46.9579 270.887 47.736C271.07 48.2394 270.338 48.9259 270.018 49.2005C269.56 49.5667 269.011 49.7497 268.462 49.7955C268.919 49.2463 269.56 48.7429 270.109 48.331C270.292 48.1937 270.109 47.9191 269.926 48.0106V48.1021ZM265.715 48.7429C266.356 49.109 266.997 49.5209 267.546 50.0244C266.997 50.0244 266.448 49.8871 265.99 49.6125C265.716 49.4752 265.487 49.2463 265.304 49.0175C265.166 48.8802 264.755 48.3768 264.846 48.1479C264.938 47.8733 265.349 47.736 265.578 47.8275C265.67 47.8275 265.807 47.8733 265.899 47.9191C266.219 48.0564 266.494 48.1937 266.768 48.4225C267.134 48.7429 267.455 49.1548 267.592 49.5667C267.089 49.109 266.448 48.7429 265.899 48.4225C265.716 48.331 265.532 48.6056 265.715 48.6971V48.7429ZM267.775 50.2532C267.775 50.2532 267.775 50.299 267.821 50.3447C267.821 50.3447 267.729 50.3447 267.729 50.2532H267.775ZM270.292 52.9535C269.789 53.3654 269.285 53.8688 268.828 54.3722C268.919 53.9603 269.057 53.5942 269.285 53.2738C269.56 52.9077 270.521 51.8551 271.07 52.3127C271.574 52.7704 270.75 53.7315 270.43 54.0519C270.018 54.4638 269.468 54.6926 268.919 54.7842C269.377 54.1892 269.926 53.64 270.475 53.1823C270.658 53.045 270.43 52.8162 270.247 52.9535H270.292ZM266.173 53.8688C266.814 54.1892 267.546 54.5553 268.095 55.013C267.546 55.0588 266.951 55.013 266.448 54.6926C266.036 54.4638 264.617 53.3654 265.67 52.9535C266.219 52.7246 266.951 53.1823 267.317 53.5027C267.638 53.8231 267.912 54.1892 268.095 54.6011C267.546 54.1892 266.905 53.8688 266.31 53.5484C266.127 53.4569 265.944 53.7315 266.127 53.8231L266.173 53.8688ZM268.37 55.2418C268.37 55.2418 268.416 55.2418 268.462 55.2876C268.462 55.2876 268.416 55.2876 268.37 55.2418Z" fill="#845B00"/>
<path fill-rule="evenodd" clip-rule="evenodd" d="M271.803 46.2718C272.078 46.2718 272.261 46.0429 272.261 45.8141C272.261 45.5853 272.032 45.3564 271.803 45.3564C271.574 45.3564 271.346 45.5853 271.346 45.8141C271.346 46.0429 271.574 46.2718 271.803 46.2718Z" fill="#845B00"/>
<path fill-rule="evenodd" clip-rule="evenodd" d="M254.088 47.1868C254.363 47.1868 254.546 46.958 254.546 46.7292C254.546 46.5003 254.317 46.2715 254.088 46.2715C253.86 46.2715 253.631 46.5003 253.631 46.7292C253.631 46.958 253.86 47.1868 254.088 47.1868Z" fill="#845B00"/>
<path fill-rule="evenodd" clip-rule="evenodd" d="M254.912 38.1253C254.546 37.5761 254.179 37.0268 253.722 36.5692C253.722 36.4776 253.768 36.3861 253.813 36.2946C253.813 36.2488 253.813 36.1573 253.813 36.0657C253.813 35.8827 253.722 35.6996 253.676 35.5623C253.585 35.3792 253.447 35.2419 253.264 35.1504C253.218 35.1504 253.127 35.1504 253.081 35.1962C253.081 35.2419 253.081 35.3335 253.127 35.3792C253.264 35.425 253.356 35.5623 253.402 35.6996C253.447 35.8369 253.493 35.9742 253.539 36.1115C253.402 35.8827 253.219 35.6538 253.035 35.4708C252.99 35.425 252.898 35.4708 252.852 35.4708C252.852 35.4708 252.852 35.5623 252.852 35.6081V35.6538C253.081 35.8827 253.31 36.1573 253.402 36.4776C253.402 36.4776 253.402 36.4776 253.356 36.4776C252.99 36.3861 252.669 36.1573 252.486 35.7911C252.486 35.7454 252.395 35.6996 252.303 35.7454C252.257 35.7454 252.212 35.8369 252.257 35.8827C252.441 36.2488 252.806 36.5692 253.218 36.6607C253.127 36.7065 252.99 36.7522 252.898 36.7522C252.852 36.7522 252.761 36.7522 252.715 36.7522C252.669 36.7522 252.623 36.7523 252.578 36.6607C252.44 36.5692 252.349 36.5234 252.257 36.4319C252.212 36.3861 252.12 36.4319 252.074 36.4319V36.5234C252.074 36.5234 252.074 36.5692 252.074 36.6149C252.212 36.7065 252.303 36.798 252.44 36.8895C252.486 36.8895 252.578 36.9811 252.669 36.9811C252.761 36.9811 252.806 36.9811 252.898 36.9811C253.127 36.9811 253.356 36.8895 253.493 36.7522C253.493 36.7522 253.585 36.7065 253.585 36.6607C253.997 37.1184 254.363 37.5761 254.683 38.1253C254.866 38.3999 255.049 38.171 254.912 38.0337V38.1253Z" fill="#845B00"/>
<path fill-rule="evenodd" clip-rule="evenodd" d="M263.288 34.8301C263.288 34.8301 263.242 34.3267 263.013 34.0521C262.647 33.5944 261.32 34.0521 261.96 34.8759C262.143 35.1047 262.418 35.2878 262.372 35.2878C262.372 35.2878 262.189 35.242 261.96 35.242C260.862 35.242 261.091 37.027 262.326 36.5693C262.509 36.4777 262.509 36.4778 262.372 36.6608C262.326 36.7524 262.235 36.8439 262.189 36.9812C262.052 37.21 262.143 37.4846 262.326 37.6219C262.647 37.8508 263.196 37.805 263.333 37.3931C263.379 37.21 263.425 37.027 263.425 36.8897C263.516 36.2031 263.242 37.805 264.34 37.7592C264.798 37.7592 265.164 37.3931 264.615 36.7524C264.523 36.6608 264.432 36.5693 264.386 36.5235C264.294 36.432 264.249 36.3862 264.386 36.432C264.569 36.4778 264.844 36.5235 265.027 36.432C265.301 36.3405 265.439 35.6539 265.255 35.2878C264.981 34.7844 264.523 34.9675 264.249 35.059C263.974 35.1505 263.883 35.1505 264.203 34.9217C264.294 34.8759 264.432 34.7844 264.523 34.6928C265.301 34.0521 263.837 33.0452 263.425 34.1894C263.333 34.464 263.287 34.7386 263.242 34.7386L263.288 34.8301ZM263.608 35.2878C263.608 35.2878 263.562 35.5166 263.425 35.4709C263.287 35.3793 263.425 35.1505 263.608 35.2878ZM262.967 35.5167C262.967 35.5167 263.196 35.1963 263.288 35.5167C263.333 35.6997 263.333 36.0201 263.059 35.9285C262.921 35.8828 262.876 35.6997 262.921 35.5167H262.967ZM263.745 35.6082C264.02 35.7455 263.928 35.9743 263.745 35.9743C263.287 35.9743 263.425 35.4251 263.745 35.6082ZM263.516 36.0658C263.882 36.2489 263.516 36.3862 263.196 36.2489C262.876 36.1116 263.196 35.8828 263.516 36.0658Z" fill="#845B00"/>
</g>
<path fill-rule="evenodd" clip-rule="evenodd" d="M240.407 11.3967C241.734 11.717 241.825 10.4813 241.184 10.0237C240.406 9.42869 238.347 10.8932 240.407 11.3967Z" fill="#845B00"/>
<circle cx="199.5" cy="90.5" r="3.5" fill="#FFD885"/>
<circle cx="216.5" cy="75.5" r="2.5" fill="#D6607A"/>
<circle cx="207" cy="43" r="2" fill="#D6607A"/>
</g>
<defs>
<clipPath id="clip0_308_4853">
<rect width="375" height="120" fill="white"/>
</clipPath>
</defs>
</svg>
