<svg width="375" height="433" viewBox="0 0 375 433" fill="none" xmlns="http://www.w3.org/2000/svg">
<path fill-rule="evenodd" clip-rule="evenodd" d="M33.1063 261.701C32.8777 261.826 34.0622 264.355 33.6466 266.34C32.94 269.705 25.3344 270.519 26.4357 264.961C26.789 263.373 27.5787 261.889 27.4748 261.847C26.9363 262.381 26.3281 262.838 25.6669 263.206C20.4094 266.089 16.7936 256.581 24.1914 255.62C25.3967 255.474 25.1681 255.62 24.1914 254.951C23.7343 254.638 23.0901 254.304 22.4874 253.928C21.9034 253.552 21.4837 252.967 21.3138 252.292C21.1439 251.616 21.2366 250.901 21.5731 250.292C22.5913 248.453 25.4383 247.178 27.0799 248.787C27.7557 249.492 28.3612 250.262 28.8878 251.086C30.9659 254.199 25.7292 247.032 31.1113 244.42C33.3764 243.312 36.0571 244.294 35.0388 248.599C34.8785 249.231 34.6772 249.853 34.4362 250.459C34.1245 251.232 34.1661 251.336 34.7895 250.751C35.5882 249.887 36.6213 249.277 37.7611 248.996C39.3612 248.808 41.9172 251.859 41.9172 253.99C41.9172 257.041 39.1741 257.355 37.4701 257.626C35.7662 257.898 35.3921 258.253 37.4701 258.379C38.17 258.401 38.8659 258.492 39.5482 258.65C45.055 259.946 40.2339 268.555 35.3921 263.979C34.2284 262.871 33.3141 261.597 33.3141 261.68L33.1063 261.701ZM33.4803 258.755C33.8751 257.877 32.5452 257.731 32.1088 258.316C31.6724 258.901 32.94 260.029 33.4803 258.755ZM29.8437 259.319C31.0074 260.113 31.9218 260.238 31.4646 258.525C31.2152 257.376 30.5503 255.913 29.3866 257.062C29.2465 257.231 29.1456 257.43 29.0912 257.643C29.0368 257.856 29.0303 258.079 29.0721 258.295C29.1138 258.511 29.2029 258.715 29.3328 258.892C29.4626 259.069 29.6301 259.215 29.8229 259.319H29.8437ZM33.3556 256.895C34.3739 255.578 33.3556 254.492 32.2543 255.035C29.8853 256.226 32.1296 258.483 33.3556 256.895ZM31.0906 255.265C32.3997 253.447 30.1762 253.677 29.0125 255.119C27.8488 256.561 29.8853 256.978 31.1321 255.265H31.0906Z" fill="#FFD885"/>
<path fill-rule="evenodd" clip-rule="evenodd" d="M77.3617 393.372C77.2681 393.418 77.7527 394.328 77.5827 395.042C77.2936 396.254 74.1822 396.547 74.6328 394.546C74.7773 393.974 75.1004 393.44 75.0579 393.425C74.8376 393.617 74.5888 393.782 74.3183 393.914C72.1675 394.952 70.6883 391.529 73.7147 391.183C74.2077 391.131 74.1142 391.183 73.7147 390.943C73.5277 390.83 73.2641 390.709 73.0176 390.574C72.7787 390.439 72.607 390.228 72.5375 389.985C72.468 389.742 72.5059 389.484 72.6435 389.265C73.0601 388.603 74.2247 388.144 74.8963 388.723C75.1728 388.977 75.4205 389.254 75.6359 389.551C76.486 390.672 74.3438 388.091 76.5455 387.151C77.4722 386.752 78.5688 387.106 78.1523 388.656C78.0866 388.883 78.0043 389.107 77.9057 389.325C77.7782 389.603 77.7952 389.641 78.0502 389.43C78.377 389.119 78.7996 388.9 79.2659 388.799C79.9205 388.731 80.9661 389.829 80.9661 390.596C80.9661 391.695 79.844 391.808 79.1469 391.905C78.4498 392.003 78.2968 392.131 79.1469 392.176C79.4332 392.184 79.7179 392.217 79.997 392.274C82.2498 392.74 80.2775 395.84 78.2968 394.192C77.8207 393.794 77.4467 393.335 77.4467 393.365L77.3617 393.372ZM77.5147 392.312C77.6762 391.996 77.1321 391.943 76.9536 392.154C76.7751 392.364 77.2936 392.771 77.5147 392.312ZM76.027 392.515C76.503 392.801 76.8771 392.846 76.6901 392.229C76.5881 391.815 76.316 391.289 75.84 391.702C75.7827 391.763 75.7414 391.835 75.7191 391.911C75.6969 391.988 75.6942 392.068 75.7113 392.146C75.7284 392.224 75.7648 392.297 75.8179 392.361C75.8711 392.425 75.9396 392.477 76.0185 392.515H76.027ZM77.4637 391.642C77.8802 391.168 77.4637 390.777 77.0131 390.973C76.044 391.401 76.9621 392.214 77.4637 391.642ZM76.537 391.055C77.0726 390.401 76.163 390.484 75.6869 391.003C75.2109 391.522 76.044 391.672 76.554 391.055H76.537Z" fill="#FFD885"/>
<path fill-rule="evenodd" clip-rule="evenodd" d="M339.128 224.161C338.951 224.261 339.866 226.284 339.545 227.872C338.999 230.564 333.122 231.216 333.973 226.769C334.246 225.498 334.856 224.311 334.776 224.278C334.36 224.705 333.89 225.07 333.379 225.365C329.316 227.672 326.522 220.065 332.239 219.296C333.17 219.179 332.994 219.296 332.239 218.761C331.886 218.51 331.388 218.243 330.922 217.942C330.471 217.642 330.146 217.174 330.015 216.633C329.884 216.093 329.956 215.521 330.216 215.033C331.002 213.562 333.202 212.542 334.471 213.83C334.993 214.394 335.461 215.01 335.868 215.668C337.474 218.159 333.427 212.425 337.586 210.336C339.336 209.45 341.408 210.235 340.621 213.679C340.497 214.185 340.341 214.682 340.155 215.167C339.914 215.786 339.946 215.869 340.428 215.401C341.045 214.709 341.844 214.221 342.724 213.997C343.961 213.846 345.936 216.287 345.936 217.992C345.936 220.433 343.816 220.684 342.5 220.901C341.183 221.118 340.894 221.403 342.5 221.503C343.04 221.521 343.578 221.594 344.105 221.72C348.361 222.757 344.635 229.644 340.894 225.983C339.995 225.097 339.288 224.077 339.288 224.144L339.128 224.161ZM339.417 221.804C339.722 221.102 338.694 220.985 338.357 221.453C338.02 221.921 338.999 222.823 339.417 221.804ZM336.607 222.255C337.506 222.89 338.212 222.991 337.859 221.62C337.666 220.7 337.152 219.53 336.253 220.45C336.145 220.585 336.067 220.744 336.025 220.914C335.983 221.085 335.978 221.263 336.01 221.436C336.043 221.609 336.111 221.772 336.212 221.913C336.312 222.055 336.441 222.172 336.59 222.255H336.607ZM339.32 220.316C340.107 219.263 339.32 218.393 338.469 218.828C336.639 219.781 338.373 221.586 339.32 220.316ZM337.57 219.012C338.582 217.558 336.863 217.741 335.964 218.895C335.065 220.048 336.639 220.383 337.602 219.012H337.57Z" fill="#FFD885"/>
<path fill-rule="evenodd" clip-rule="evenodd" d="M312.553 147.497C312.439 147.557 313.031 148.77 312.823 149.723C312.47 151.338 308.667 151.729 309.218 149.061C309.395 148.299 309.789 147.587 309.737 147.567C309.468 147.823 309.164 148.042 308.833 148.219C306.205 149.603 304.397 145.039 308.096 144.578C308.698 144.507 308.584 144.578 308.096 144.257C307.867 144.106 307.545 143.946 307.244 143.765C306.952 143.585 306.742 143.304 306.657 142.98C306.572 142.656 306.618 142.312 306.787 142.02C307.296 141.137 308.719 140.525 309.54 141.298C309.878 141.636 310.181 142.006 310.444 142.401C311.483 143.896 308.865 140.455 311.556 139.201C312.688 138.67 314.029 139.141 313.519 141.207C313.439 141.511 313.339 141.809 313.218 142.1C313.062 142.471 313.083 142.521 313.395 142.241C313.794 141.826 314.311 141.533 314.881 141.398C315.681 141.308 316.959 142.772 316.959 143.795C316.959 145.26 315.587 145.41 314.735 145.541C313.883 145.671 313.696 145.842 314.735 145.902C315.085 145.913 315.433 145.956 315.774 146.032C318.528 146.654 316.117 150.786 313.696 148.59C313.114 148.058 312.657 147.446 312.657 147.486L312.553 147.497ZM312.74 146.082C312.938 145.661 312.273 145.591 312.054 145.872C311.836 146.152 312.47 146.694 312.74 146.082ZM310.922 146.353C311.504 146.734 311.961 146.794 311.732 145.972C311.608 145.42 311.275 144.718 310.693 145.27C310.623 145.351 310.573 145.446 310.546 145.548C310.518 145.651 310.515 145.758 310.536 145.861C310.557 145.965 310.601 146.063 310.666 146.148C310.731 146.233 310.815 146.303 310.911 146.353H310.922ZM312.678 145.19C313.187 144.558 312.678 144.036 312.127 144.297C310.943 144.869 312.065 145.952 312.678 145.19ZM311.545 144.407C312.2 143.535 311.088 143.645 310.506 144.337C309.924 145.029 310.943 145.23 311.566 144.407H311.545Z" fill="#FFD885"/>
<path fill-rule="evenodd" clip-rule="evenodd" d="M65.5318 36.4528C65.3656 36.5481 66.227 38.4698 65.9248 39.9785C65.4109 42.5354 59.8795 43.1548 60.6805 38.9303C60.9375 37.7234 61.5118 36.5958 61.4362 36.564C61.0446 36.9693 60.6022 37.3166 60.1213 37.5963C56.2977 39.7879 53.6681 32.5619 59.0483 31.8313C59.9249 31.7202 59.7586 31.8313 59.0483 31.3231C58.7158 31.0849 58.2473 30.8308 57.8091 30.545C57.3843 30.2598 57.079 29.8152 56.9555 29.3017C56.8319 28.7883 56.8994 28.2446 57.1441 27.7816C57.8846 26.384 59.9551 25.4153 61.149 26.6381C61.6405 27.174 62.0809 27.759 62.4639 28.385C63.9752 30.7514 60.1667 25.3041 64.081 23.3189C65.7283 22.4772 67.6779 23.2236 66.9373 26.4952C66.8207 26.9759 66.6743 27.448 66.4991 27.9086C66.2724 28.4962 66.3026 28.5757 66.756 28.131C67.3369 27.474 68.0882 27.0102 68.9171 26.7969C70.0809 26.654 71.9398 28.9727 71.9398 30.5926C71.9398 32.9113 69.9448 33.1495 68.7056 33.3559C67.4663 33.5624 67.1943 33.8324 68.7056 33.9277C69.2145 33.9448 69.7207 34.014 70.2169 34.1342C74.2218 35.1188 70.7156 41.6619 67.1943 38.1839C66.3479 37.3422 65.683 36.3734 65.683 36.4369L65.5318 36.4528ZM65.8039 34.2136C66.091 33.5465 65.1238 33.4354 64.8064 33.8801C64.489 34.3247 65.4109 35.1823 65.8039 34.2136ZM63.1591 34.6423C64.0054 35.2458 64.6704 35.3412 64.3379 34.0389C64.1565 33.1654 63.6729 32.0537 62.8266 32.9272C62.7247 33.0557 62.6514 33.2064 62.6118 33.3685C62.5723 33.5305 62.5675 33.6997 62.5979 33.8639C62.6283 34.0281 62.693 34.1831 62.7875 34.3178C62.8819 34.4524 63.0037 34.5633 63.144 34.6423H63.1591ZM65.7132 32.8001C66.4537 31.7996 65.7132 30.9737 64.9122 31.3867C63.1893 32.2919 64.8215 34.0071 65.7132 32.8001ZM64.0659 31.5613C65.018 30.1797 63.4009 30.3544 62.5546 31.4502C61.7082 32.546 63.1893 32.8636 64.0961 31.5613H64.0659Z" fill="#FFD885"/>
</svg>
