<svg viewBox="0 0 1440 916" fill="none" xmlns="http://www.w3.org/2000/svg">
<g clip-path="url(#clip0_182_6813)">
<path fill-rule="evenodd" clip-rule="evenodd" d="M1002.04 1166.04C1043.86 1141.92 1106.47 1144.06 1155.34 1125.01C1204.21 1105.96 1239.27 1065.66 1300.55 1062.02C1361.82 1058.37 1449.84 1091.3 1518.85 1081.72C1587.87 1072.13 1638.32 1019.88 1666.38 975.406C1694.45 930.934 1701.13 894.388 1729.69 874.314C1758.25 854.24 1808.87 851.75 1804.48 808.087C1800.08 764.423 1740.59 680.053 1638.35 636.162C1536.1 592.27 1391.37 589.194 1288.94 583.746C1186.52 578.299 1127.79 570.194 1065.68 592.908C1003.57 615.622 939.465 668.795 895.074 722.552C850.684 776.31 826.143 830.556 793.722 906.375C761.301 982.194 720.11 1079.72 739.214 1147.53C758.318 1215.34 838.064 1253.24 888.417 1247C938.77 1240.76 960.162 1190.25 1002.04 1166.04Z" fill="#397621"/>
<path fill-rule="evenodd" clip-rule="evenodd" d="M1324.89 861.952C1318.44 855.3 1310.59 845.967 1304.04 838.422L1292.43 825.068L1296.89 827.6C1299.62 829.189 1303.45 831.472 1307.67 834.252C1316.68 840.014 1325.1 846.666 1332.78 854.108C1335.35 856.685 1337.76 859.42 1339.98 862.299C1340.63 855.399 1341.17 848.499 1341.57 841.599C1340.78 841.691 1339.98 841.535 1339.29 841.152C1334.66 838.211 1330.49 834.597 1326.93 830.43C1320.52 823.778 1312.68 814.445 1306.13 806.9L1294.46 793.547L1298.93 796.078C1301.71 797.667 1305.53 799.95 1309.75 802.73C1318.76 808.503 1327.17 815.154 1334.87 822.586C1337.43 825.204 1339.85 827.955 1342.12 830.827C1342.51 821.792 1342.66 812.757 1342.66 803.673C1340.48 804.021 1336.21 802.432 1326.08 795.681C1312.52 785.8 1299.65 775.002 1287.56 763.365C1302.97 770.03 1317.9 777.76 1332.24 786.497C1335.86 788.81 1339.33 791.364 1342.61 794.142C1342.61 793.497 1342.61 792.851 1342.61 792.206C1342.41 791.788 1342.31 791.33 1342.31 790.866C1342.31 790.402 1342.41 789.944 1342.61 789.526L1342.32 780.938C1342.32 778.257 1342.32 775.577 1341.87 772.846C1341.4 773.296 1340.81 773.59 1340.17 773.688C1339.53 773.786 1338.87 773.683 1338.29 773.392C1333.85 771.023 1329.81 767.956 1326.33 764.308C1320.03 758.55 1312.38 750.309 1305.93 743.707L1294.56 731.942L1298.88 733.928C1301.51 735.219 1305.23 737.055 1309.3 739.339C1318.04 744.015 1326.23 749.642 1333.73 756.117C1336.47 758.5 1339.01 761.107 1341.32 763.911C1340.83 757.094 1340.23 750.293 1339.54 743.509C1337.45 744.005 1333.68 742.367 1324.64 734.772C1312.88 724.318 1301.9 713.02 1291.78 700.966C1305.62 708.402 1318.89 716.848 1331.49 726.234C1334.42 728.616 1336.71 730.602 1338.39 732.24C1338.39 731.942 1338.39 731.644 1338.39 731.347C1338.02 730.962 1337.75 730.482 1337.62 729.959C1337.48 729.435 1337.5 728.886 1337.65 728.368C1337.69 728.028 1337.77 727.695 1337.9 727.375C1337.3 723.057 1336.71 718.738 1336.06 714.419C1334.07 715.015 1330.8 713.625 1322.56 705.93C1312.73 695.761 1303.73 684.821 1295.65 673.217C1307.78 680.559 1319.3 688.859 1330.1 698.038C1331.59 699.428 1332.83 700.669 1333.93 701.761C1332.83 695.754 1331.64 689.748 1330.4 683.791C1328.42 684.932 1325.44 684.039 1315.76 674.21C1305.7 662.887 1296.51 650.823 1288.26 638.121C1300.75 646.666 1312.58 656.141 1323.65 666.466C1325.14 668.005 1326.38 669.345 1327.47 670.586C1326.73 667.211 1325.98 663.835 1325.19 660.658C1323.05 660.41 1320.57 657.481 1316.01 645.269C1311.17 630.27 1307.42 614.941 1304.79 599.401C1312.97 612.869 1320.19 626.903 1326.38 641.397C1327.12 643.383 1327.72 645.121 1328.22 646.709C1332.67 634.725 1338.04 623.107 1344.3 611.96C1343.43 625.259 1341.43 638.461 1338.34 651.425C1334.52 664.282 1332.24 665.225 1329.71 664.679C1331.49 671.48 1333.13 678.33 1334.67 685.23C1335.42 683.592 1336.41 681.656 1337.7 679.422C1342.26 671.934 1347.82 665.103 1354.23 659.119C1357.16 656.24 1359.94 653.857 1361.92 652.17L1365.2 649.588L1363.26 653.262L1358.65 662.346C1355.02 669.593 1350.9 678.479 1347.28 684.932C1345.4 688.925 1342.83 692.555 1339.68 695.655C1339.29 695.971 1338.83 696.19 1338.34 696.293C1337.85 696.397 1337.34 696.382 1336.85 696.251C1337.6 700.172 1338.29 704.143 1338.89 708.115C1339.24 708.606 1339.47 709.168 1339.57 709.76C1339.67 710.353 1339.65 710.96 1339.49 711.54L1340.97 722.014C1341.87 720.525 1342.96 718.837 1344.35 717.05C1348.67 710.646 1354.97 702.605 1359.84 695.804L1366.04 687.117L1368.48 683.543C1368.48 683.543 1368.18 685.131 1367.58 687.812C1366.99 690.492 1366.09 694.116 1364.8 698.236C1362.17 706.974 1358.38 715.321 1353.53 723.057C1350.98 727.239 1347.48 730.76 1343.31 733.332C1342.87 733.602 1342.38 733.756 1341.87 733.779L1342.32 737.8C1342.54 738.195 1342.68 738.634 1342.73 739.088C1342.77 739.542 1342.71 740 1342.56 740.431C1343.06 744.899 1343.46 749.366 1343.85 753.834L1344.4 753.189C1345.89 751.501 1347.97 749.366 1350.7 746.537C1353.43 743.707 1356.71 740.481 1359.99 737.055C1363.26 733.63 1366.44 730.056 1369.17 726.73C1371.9 723.404 1374.14 720.227 1375.92 717.944L1378.55 714.27C1378.55 714.27 1378.21 715.908 1377.51 718.688C1376.53 722.361 1375.33 725.974 1373.94 729.51C1372.13 734.087 1369.93 738.504 1367.38 742.714C1364.89 746.84 1361.96 750.685 1358.65 754.181C1356.35 756.639 1353.83 758.867 1351.1 760.833C1349.71 761.912 1348.13 762.72 1346.44 763.216C1345.81 763.358 1345.17 763.358 1344.55 763.216C1344.95 769.173 1345.29 775.08 1345.59 781.037V784.76C1346.93 783.221 1348.72 781.335 1351.05 779.101C1356.56 773.69 1364.55 767.237 1370.91 761.876L1382.43 752.444C1382.43 752.444 1381.73 753.883 1380.44 756.266C1379.15 758.649 1377.31 761.925 1375.08 765.549C1370.4 773.273 1364.87 780.449 1358.6 786.944C1355.51 790.551 1351.66 793.433 1347.33 795.383C1346.82 795.5 1346.3 795.5 1345.79 795.383C1345.79 803.971 1346.04 812.559 1345.79 821.147C1347.68 819.112 1350.41 816.48 1354.23 813.006C1361.28 806.552 1371.16 798.759 1379.05 792.157L1393.1 780.491L1390.37 785.008C1388.63 787.788 1386.15 791.66 1383.12 795.929C1376.86 805.05 1369.67 813.5 1361.68 821.147C1357.66 825.293 1352.92 828.66 1347.68 831.075C1347 831.338 1346.26 831.424 1345.54 831.323C1345.54 838.868 1344.95 846.464 1344.4 854.009C1347.65 851.058 1351.07 848.291 1354.63 845.719C1362.27 839.961 1372.84 833.11 1381.38 827.352L1396.28 817.076L1393.1 821.296C1391.11 823.927 1388.13 827.501 1384.86 831.224C1377.73 839.68 1369.76 847.397 1361.08 854.257C1356.71 858.082 1351.66 861.046 1346.19 862.994C1345.33 863.347 1344.37 863.347 1343.51 862.994C1341.83 882.83 1339.01 902.553 1335.07 922.066C1334.62 924.35 1331.15 923.506 1331.54 921.223C1334.29 905.04 1336.52 888.857 1338.24 872.674C1337.64 872.644 1337.05 872.492 1336.51 872.227C1332.17 869.366 1328.26 865.907 1324.89 861.952Z" fill="#5EAD41"/>
<path fill-rule="evenodd" clip-rule="evenodd" d="M1387.64 577.55C1385.86 577.253 1383.62 576.458 1383.52 574.225C1383.53 573.505 1383.77 572.805 1384.19 572.226C1384.62 571.647 1385.22 571.217 1385.91 570.998C1387.41 570.643 1388.97 570.643 1390.47 570.998C1395.01 571.791 1399.4 573.282 1403.48 575.416C1406.96 577.298 1410.16 579.672 1412.96 582.465C1412.96 577.054 1412.66 571.693 1412.47 566.332C1404.03 564.346 1395.49 561.814 1387.64 559.779C1385.96 559.283 1383.87 558.29 1384.07 556.056C1384.13 555.352 1384.42 554.685 1384.88 554.151C1385.34 553.616 1385.96 553.241 1386.65 553.078C1388.11 552.861 1389.6 552.945 1391.02 553.326C1395.27 554.42 1399.34 556.09 1403.13 558.29C1406.53 560.298 1409.68 562.697 1412.52 565.438C1412.52 561.318 1412.12 557.198 1411.87 553.078C1403.61 549.359 1395.06 546.336 1386.3 544.043C1384.47 543.547 1382.23 542.554 1382.28 540.37C1382.34 539.644 1382.62 538.954 1383.1 538.4C1383.57 537.847 1384.21 537.459 1384.91 537.292C1386.57 537.047 1388.26 537.148 1389.88 537.59C1394.58 538.803 1399.04 540.8 1403.08 543.497C1406.41 545.745 1409.39 548.472 1411.92 551.588C1411.62 546.823 1411.27 542.057 1410.88 537.292C1402.99 533.356 1394.66 530.389 1386.06 528.456C1384.27 528.059 1382.04 527.215 1381.94 524.981C1381.95 524.255 1382.2 523.554 1382.65 522.981C1383.1 522.409 1383.72 521.996 1384.42 521.804C1386.05 521.426 1387.75 521.426 1389.38 521.804C1398.07 523.591 1405.81 528.501 1411.13 535.604C1410.78 531.434 1410.38 527.215 1409.88 522.995C1409.91 522.681 1409.91 522.366 1409.88 522.052C1400.84 517.969 1391.6 514.357 1382.18 511.23C1380.25 510.585 1377.91 509.394 1378.06 507.21C1378.19 506.472 1378.55 505.796 1379.1 505.285C1379.65 504.774 1380.35 504.456 1381.09 504.38C1382.78 504.272 1384.47 504.508 1386.06 505.075C1395.32 507.961 1403.55 513.481 1409.74 520.96C1409.24 516.741 1408.74 512.471 1408.2 508.252C1404.42 505.82 1400.6 503.288 1396.73 501.402C1392.29 498.988 1387.69 496.866 1382.98 495.047C1381.09 494.303 1378.86 493.012 1379.11 490.828C1379.24 490.091 1379.63 489.423 1380.2 488.935C1380.77 488.447 1381.48 488.169 1382.23 488.147C1383.93 488.125 1385.62 488.446 1387.2 489.091C1392.01 491.001 1396.46 493.721 1400.35 497.132C1403.21 499.662 1405.72 502.568 1407.8 505.77C1407.05 500.21 1406.21 494.7 1405.37 489.14C1401.79 486.41 1398.07 483.729 1394.25 481.347C1389.82 478.583 1385.19 476.16 1380.4 474.099C1378.51 473.255 1376.18 471.865 1376.48 469.681C1376.65 468.946 1377.07 468.292 1377.67 467.824C1378.26 467.356 1379 467.101 1379.75 467.1C1380.64 467.124 1381.52 467.241 1382.38 467.447C1383.26 467.692 1384.12 467.99 1384.96 468.341C1389.88 470.523 1394.37 473.566 1398.22 477.326C1400.77 479.844 1402.99 482.68 1404.82 485.765C1403.98 480.801 1403.13 475.837 1402.19 470.872C1395.91 465.323 1388.81 460.785 1381.14 457.42C1379.5 456.725 1377.57 455.533 1377.87 453.3C1378.01 452.593 1378.38 451.952 1378.91 451.47C1379.45 450.987 1380.13 450.689 1380.84 450.619C1381.63 450.502 1382.44 450.502 1383.23 450.619C1384 450.807 1384.74 451.074 1385.46 451.413C1392.21 454.333 1397.8 459.415 1401.35 465.859C1400.35 460.895 1399.36 455.583 1398.27 450.47C1391.92 444.915 1384.78 440.346 1377.07 436.918C1375.53 436.223 1373.7 435.081 1374.04 432.848C1374.18 432.153 1374.53 431.518 1375.04 431.036C1375.56 430.554 1376.22 430.249 1376.92 430.167C1377.68 430.023 1378.45 430.023 1379.21 430.167C1379.96 430.339 1380.69 430.589 1381.39 430.912C1385.58 432.751 1389.34 435.458 1392.41 438.854C1394.48 441.271 1396.16 444.002 1397.37 446.946C1396.48 442.528 1395.54 438.159 1394.54 433.741C1388.06 428.132 1382.38 421.65 1377.67 414.48C1376.67 412.991 1375.88 410.807 1377.67 409.516C1378.2 409.065 1378.86 408.782 1379.56 408.703C1380.26 408.623 1380.96 408.751 1381.59 409.07C1382.76 409.831 1383.77 410.809 1384.57 411.949C1388.29 417.212 1391.31 422.935 1393.55 428.976L1391.62 420.437C1386.31 411.65 1382.26 402.158 1379.6 392.241C1379.01 390.157 1378.91 387.277 1381.34 386.285C1382.13 385.986 1382.99 385.921 1383.82 386.097C1384.65 386.273 1385.41 386.683 1386.01 387.277C1387.08 388.563 1387.86 390.072 1388.29 391.695C1391.09 400.624 1392.47 409.939 1392.36 419.296L1393.55 423.664C1393.09 416.569 1393.41 409.444 1394.5 402.418C1394.74 400.631 1395.64 398.496 1397.82 398.496C1398.52 398.54 1399.2 398.782 1399.77 399.195C1400.34 399.608 1400.79 400.175 1401.05 400.829C1401.4 402.173 1401.49 403.573 1401.3 404.95C1400.12 413.047 1397.62 420.896 1393.9 428.181C1395.59 434.982 1397.18 441.833 1398.86 448.683C1398.77 444.437 1399.23 440.197 1400.25 436.074C1401.46 431.104 1403.31 426.313 1405.76 421.827C1406.71 419.991 1408.54 418.055 1410.73 418.899C1411.36 419.219 1411.89 419.719 1412.24 420.337C1412.6 420.955 1412.76 421.663 1412.71 422.373C1412.51 423.868 1412.04 425.313 1411.32 426.643L1405.32 438.11C1403.43 441.833 1401.44 445.655 1399.21 450.123C1400.1 454.392 1401 458.71 1401.79 462.98C1402.49 454.475 1404.82 446.183 1408.64 438.556C1409.49 436.769 1411.13 434.833 1413.21 435.528C1413.86 435.807 1414.42 436.269 1414.82 436.86C1415.22 437.45 1415.43 438.143 1415.44 438.854C1415.34 440.321 1414.95 441.754 1414.3 443.074C1410.87 450.846 1406.86 458.347 1402.29 465.511C1403.43 471.468 1404.47 477.475 1405.42 483.432C1405.11 478.747 1405.61 474.044 1406.91 469.532C1408.3 464.512 1410.49 459.75 1413.41 455.434C1414.55 453.647 1416.64 451.86 1418.37 452.952C1418.98 453.331 1419.46 453.885 1419.74 454.542C1420.02 455.198 1420.1 455.924 1419.96 456.626C1419.62 458.072 1419.03 459.449 1418.22 460.696C1415.79 464.667 1413.81 468.291 1411.72 472.064C1409.64 475.836 1407.6 479.708 1405.37 484.424C1405.66 486.211 1405.96 487.999 1406.21 489.786C1406.35 490.024 1406.46 490.273 1406.56 490.53C1406.48 490.509 1406.39 490.509 1406.31 490.53L1407.8 500.458C1407.89 495.378 1408.81 490.347 1410.53 485.566C1412.51 480.054 1415.36 474.894 1418.97 470.277C1420.41 468.39 1422.84 466.504 1424.73 467.646C1425.32 468.11 1425.75 468.746 1425.96 469.466C1426.18 470.187 1426.16 470.956 1425.92 471.667C1425.3 473.213 1424.5 474.68 1423.54 476.035C1420.46 480.354 1417.93 484.325 1415.39 488.495C1412.86 492.665 1410.43 496.785 1408 501.947L1408.89 508.798L1409.19 509.294H1408.94L1409.83 516.641C1410.54 512.43 1411.83 508.336 1413.66 504.479C1416.31 498.927 1419.93 493.886 1424.33 489.587C1426.12 487.85 1428.9 486.211 1430.58 487.651C1431.1 488.205 1431.42 488.906 1431.51 489.655C1431.6 490.404 1431.45 491.162 1431.08 491.821C1430.71 492.603 1430.24 493.336 1429.69 494.005C1429.16 494.679 1428.6 495.325 1428 495.941C1424.46 499.695 1421.15 503.657 1418.07 507.805C1415.17 511.698 1412.5 515.759 1410.08 519.967C1410.08 520.861 1410.08 521.804 1410.43 522.697C1410.83 526.371 1411.22 529.995 1411.57 533.668C1412.5 528.885 1414.18 524.279 1416.54 520.017C1419.17 515.252 1422.52 510.917 1426.46 507.16C1428.1 505.621 1430.58 504.231 1432.27 505.72C1432.79 506.237 1433.13 506.904 1433.25 507.626C1433.36 508.348 1433.25 509.088 1432.92 509.741C1432.19 511.135 1431.24 512.394 1430.09 513.464C1426.66 517.038 1423.68 520.315 1420.66 523.69C1417.63 527.066 1414.7 530.441 1411.37 534.611C1411.77 538.318 1412.12 542.041 1412.42 545.78C1416.56 537.977 1422.4 531.194 1429.49 525.924C1430.93 524.832 1433.17 523.938 1434.46 525.527C1434.93 526.041 1435.24 526.683 1435.34 527.372C1435.45 528.062 1435.35 528.767 1435.05 529.399C1434.4 530.595 1433.5 531.642 1432.42 532.477C1426.12 537.614 1419.38 542.182 1412.27 546.128C1412.66 551.092 1413.06 555.659 1413.41 560.424C1417.74 552.686 1424.02 546.217 1431.63 541.66C1433.27 540.667 1435.65 539.972 1436.99 541.66C1437.38 542.24 1437.58 542.923 1437.58 543.621C1437.58 544.319 1437.38 545.002 1436.99 545.582C1436.18 546.721 1435.15 547.684 1433.96 548.411C1430.34 550.844 1427.11 552.978 1423.68 555.113L1413.36 561.417C1413.66 565.934 1413.95 570.452 1414.15 575.019C1416.01 571.58 1418.39 568.449 1421.2 565.736C1424.71 562.423 1428.73 559.706 1433.12 557.694C1434.85 556.85 1437.39 556.503 1438.43 558.439C1438.74 559.063 1438.87 559.763 1438.8 560.457C1438.73 561.152 1438.46 561.812 1438.03 562.36C1437.09 563.357 1435.98 564.18 1434.75 564.793C1430.93 566.729 1427.66 568.615 1424.23 570.551C1420.81 572.487 1417.88 574.125 1414.3 576.458C1414.3 581.422 1414.7 586.386 1414.8 591.351C1416.84 587.468 1419.54 583.974 1422.79 581.025C1426.18 577.987 1430.02 575.477 1434.16 573.579C1435.8 572.785 1438.18 572.438 1439.12 574.374C1439.43 574.996 1439.56 575.691 1439.5 576.383C1439.44 577.075 1439.19 577.737 1438.78 578.295C1437.91 579.267 1436.87 580.059 1435.7 580.628L1414.65 591.499C1414.65 594.825 1414.65 598.151 1414.65 601.428C1416.15 597.743 1418.52 594.475 1421.55 591.897C1425.29 588.647 1429.8 586.423 1434.66 585.443C1435.66 585.169 1436.73 585.169 1437.73 585.443C1438.22 585.554 1438.66 585.806 1439.01 586.168C1439.35 586.53 1439.58 586.986 1439.67 587.479C1439.78 588.156 1439.7 588.85 1439.45 589.488C1439.19 590.125 1438.77 590.683 1438.23 591.102C1437.71 591.485 1437.14 591.802 1436.54 592.046L1434.75 592.641C1431.15 593.669 1427.66 595.049 1424.33 596.761C1420.89 598.443 1417.65 600.49 1414.65 602.867C1414.65 606.938 1414.65 611.008 1414.65 615.079C1418.5 609.362 1423.99 604.934 1430.39 602.371C1430.75 602.157 1431.16 602.02 1431.58 601.969C1432 601.918 1432.42 601.954 1432.83 602.076C1433.23 602.197 1433.61 602.4 1433.93 602.673C1434.25 602.946 1434.52 603.282 1434.7 603.662C1434.99 604.249 1435.14 604.894 1435.14 605.548C1435.14 606.201 1434.99 606.846 1434.7 607.434C1434.02 608.288 1433.13 608.954 1432.12 609.37C1429.15 610.81 1426.46 612.001 1423.59 613.093C1420.71 614.185 1418.07 615.029 1414.8 616.121C1414.8 623.22 1414.35 630.319 1413.95 637.417C1413.95 638.509 1411.97 638.46 1412.02 637.417C1412.02 629.177 1412.02 620.936 1412.02 612.597C1405.37 612.657 1398.73 613.222 1392.16 614.285C1391.38 614.513 1390.55 614.441 1389.82 614.082C1389.1 613.724 1388.53 613.105 1388.24 612.349C1387.99 611.719 1387.92 611.029 1388.04 610.361C1388.16 609.693 1388.47 609.074 1388.94 608.576C1389.93 607.786 1391.11 607.257 1392.36 607.037C1396.04 606.432 1399.81 606.584 1403.43 607.484C1406.55 608.274 1409.5 609.638 1412.12 611.505C1412.12 606.888 1412.12 602.272 1412.12 597.655C1404.72 597.655 1397.23 597.655 1390.28 597.258C1389.41 597.361 1388.54 597.13 1387.84 596.614C1387.14 596.098 1386.66 595.334 1386.5 594.478C1386.43 593.799 1386.55 593.112 1386.85 592.497C1387.14 591.882 1387.61 591.364 1388.19 591.003C1389.36 590.44 1390.66 590.183 1391.96 590.258C1399.13 590.384 1406.11 592.517 1412.12 596.414C1412.12 592.095 1412.12 587.727 1412.12 583.408C1404.47 581.224 1395.79 578.94 1387.64 577.55Z" fill="#5EAD41"/>
<path fill-rule="evenodd" clip-rule="evenodd" d="M1435.24 895.107C1435.6 886.927 1436.41 878.774 1437.68 870.684C1437.9 870.948 1438.19 871.138 1438.52 871.23C1440.64 871.837 1442.88 871.943 1445.05 871.538C1447.22 871.133 1449.27 870.229 1451.03 868.897C1453.12 867.259 1456.99 862.99 1455.75 859.962C1454.51 856.934 1448.15 858.323 1445.82 858.919C1443.42 859.452 1441.17 860.503 1439.22 861.997C1440.61 854.203 1442.24 846.311 1443.93 838.368L1444.43 838.815C1446.13 839.83 1448.02 840.478 1449.99 840.718C1451.96 840.957 1453.95 840.782 1455.85 840.205C1458.58 839.361 1464.28 836.084 1463.99 832.51C1463.69 828.936 1457.34 828.837 1454.75 828.738C1451.51 828.528 1448.29 829.326 1445.52 831.021C1447.26 822.979 1448.95 814.937 1450.48 806.846H1450.93C1453.12 807.23 1455.36 807.073 1457.47 806.39C1459.59 805.706 1461.5 804.517 1463.04 802.924C1465.08 801.137 1468.7 798.308 1465.92 795.528C1464.4 794.566 1462.68 793.959 1460.9 793.752C1459.11 793.546 1457.3 793.746 1455.6 794.337C1454.49 794.636 1453.43 795.105 1452.47 795.727C1453.81 787.635 1454.9 779.544 1455.55 771.551C1459.12 770.416 1462.25 768.185 1464.49 765.173C1466.72 762.162 1467.95 758.523 1468.01 754.773C1467.99 754.503 1467.9 754.243 1467.74 754.024C1467.58 753.804 1467.36 753.634 1467.11 753.532C1464.99 752.78 1462.66 752.876 1460.61 753.801C1458.55 754.726 1456.94 756.408 1456.09 758.496C1456.18 751.138 1455.68 743.785 1454.6 736.505H1455C1458.21 734.914 1460.89 732.425 1462.72 729.341C1464.54 726.257 1465.43 722.71 1465.28 719.131C1465.25 718.825 1465.14 718.532 1464.96 718.286C1464.77 718.04 1464.52 717.851 1464.24 717.741C1462.58 717.206 1460.8 717.217 1459.16 717.771C1457.52 718.325 1456.09 719.394 1455.1 720.818C1453.98 722.083 1453 723.464 1452.17 724.939C1450.29 717.746 1447.61 710.787 1444.18 704.189C1446.38 701.528 1447.79 698.305 1448.26 694.884C1448.72 691.463 1448.22 687.98 1446.81 684.829C1446.65 684.495 1446.39 684.214 1446.08 684.02C1445.76 683.827 1445.4 683.728 1445.02 683.737C1443.21 683.918 1441.5 684.691 1440.16 685.938C1438.82 687.184 1437.93 688.835 1437.63 690.637C1437.63 691.382 1437.18 692.176 1436.98 693.02C1436.19 691.895 1435.34 690.753 1434.45 689.595C1435.9 684.626 1436.13 679.378 1435.1 674.305C1434.35 671.227 1431.77 665.866 1427.85 668.894C1426.63 670.217 1425.73 671.796 1425.21 673.514C1424.68 675.233 1424.55 677.046 1424.82 678.822C1424.95 681.281 1425.64 683.677 1426.82 685.834C1428.01 687.991 1429.67 689.854 1431.67 691.282C1433.21 693.218 1434.65 695.204 1435.99 697.19C1433.72 696.329 1431.32 695.859 1428.89 695.8C1426.66 695.8 1421.39 695.403 1420.95 698.431C1420.5 701.459 1425.91 706.125 1428.84 707.167C1430.87 707.836 1433.02 708.088 1435.15 707.909C1437.28 707.73 1439.36 707.123 1441.25 706.125C1444.44 712.186 1446.95 718.578 1448.75 725.187C1446.91 723.781 1444.85 722.705 1442.64 722.01C1440.36 721.216 1436.73 719.875 1436.09 723.201C1436.01 725.075 1436.35 726.943 1437.1 728.663C1437.85 730.383 1438.98 731.911 1440.41 733.129C1443.47 735.694 1447.38 737.022 1451.38 736.853C1452.41 743.522 1452.94 750.258 1452.97 757.007C1452.06 755.024 1450.77 753.242 1449.17 751.767C1447.57 750.292 1445.69 749.153 1443.63 748.419C1443.37 748.38 1443.1 748.41 1442.84 748.506C1442.59 748.601 1442.37 748.759 1442.19 748.965C1441.02 750.675 1440.29 752.657 1440.09 754.724C1439.89 756.791 1440.22 758.876 1441.05 760.779C1442.01 763.045 1443.44 765.075 1445.26 766.729C1447.08 768.384 1449.23 769.623 1451.58 770.36C1451.89 770.434 1452.21 770.434 1452.52 770.36C1451.92 778.898 1450.73 787.585 1449.29 796.273C1448.83 793.979 1447.79 791.841 1446.27 790.061C1444.75 788.281 1442.8 786.917 1440.61 786.096C1440.42 786.015 1440.23 785.971 1440.03 785.967C1439.83 785.963 1439.63 785.999 1439.44 786.073C1439.26 786.147 1439.09 786.258 1438.95 786.398C1438.81 786.538 1438.7 786.706 1438.62 786.89C1437.84 788.552 1437.43 790.365 1437.43 792.202C1437.43 794.038 1437.84 795.852 1438.62 797.514C1440.89 800.675 1444.13 803.01 1447.85 804.165C1446.46 811.661 1444.88 819.058 1443.24 826.653C1441.75 822.715 1438.77 819.522 1434.95 817.767C1434.64 817.644 1434.29 817.626 1433.97 817.716C1433.65 817.805 1433.36 817.998 1433.16 818.263C1432.39 819.687 1431.91 821.252 1431.76 822.864C1431.61 824.475 1431.78 826.102 1432.27 827.646C1432.97 829.572 1434.09 831.319 1435.55 832.761C1437.01 834.203 1438.77 835.304 1440.71 835.985H1441.2C1439.27 844.821 1437.43 853.608 1435.89 862.295C1434.82 859.92 1433.18 857.846 1431.12 856.253C1429.06 854.66 1426.64 853.598 1424.08 853.161C1423.74 853.101 1423.4 853.157 1423.1 853.319C1422.8 853.482 1422.57 853.741 1422.44 854.054C1422.04 855.755 1422.01 857.522 1422.35 859.235C1422.69 860.948 1423.4 862.568 1424.42 863.983C1425.67 865.424 1427.19 866.604 1428.89 867.456C1430.59 868.308 1432.45 868.815 1434.35 868.947H1434.75C1433.37 877.343 1432.5 885.813 1432.12 894.313C1432.12 896.249 1435.1 896.745 1435.15 894.76L1435.24 895.107Z" fill="#5EAD41"/>
<path fill-rule="evenodd" clip-rule="evenodd" d="M980.627 719.83C994.477 727.624 998.845 742.665 1002.22 757.16V757.805V758.153C1003.58 761.319 1004.48 764.662 1004.9 768.081C1009.87 754.628 1014.83 741.474 1026.64 732.489C1026.81 732.344 1027.02 732.252 1027.24 732.222C1027.46 732.193 1027.68 732.227 1027.88 732.322C1028.08 732.417 1028.25 732.567 1028.36 732.755C1028.48 732.944 1028.54 733.161 1028.53 733.382C1028.53 749.515 1017.11 760.734 1005.89 770.861C1005.71 771.048 1005.46 771.155 1005.2 771.159C1005.49 775.844 1005.35 780.546 1004.8 785.207C1004.8 785.952 1004.8 786.696 1004.8 787.441H1005.4C1016.06 773.569 1030.09 762.65 1046.15 755.72C1046.38 755.621 1046.62 755.596 1046.86 755.648C1047.1 755.7 1047.32 755.826 1047.48 756.009C1047.64 756.192 1047.74 756.422 1047.76 756.665C1047.78 756.908 1047.72 757.151 1047.59 757.359C1038.96 771.804 1022.77 788.682 1004.75 789.774C1003.7 797.928 1002.04 805.992 999.789 813.899H1000.53C1011.19 800.04 1025.2 789.124 1041.24 782.179C1041.46 782.08 1041.71 782.054 1041.95 782.106C1042.19 782.158 1042.4 782.285 1042.56 782.468C1042.72 782.651 1042.82 782.881 1042.84 783.123C1042.86 783.366 1042.81 783.609 1042.68 783.817C1034.09 798.213 1017.86 815.141 999.888 816.233C999.633 816.242 999.384 816.153 999.193 815.984C998.498 818.268 997.803 820.551 997.009 822.835C996.562 824.175 994.378 823.48 994.874 822.14C996.214 818.218 997.406 814.247 998.498 810.226C986.584 799.504 971.195 781.137 970.5 764.259C970.5 763.117 971.84 762.968 972.535 763.564C984.946 774.832 997.654 787.292 1000.09 804.269C1001.28 798.908 1002.22 793.497 1002.92 788.037C1003.26 785.207 1003.51 782.328 1003.66 779.498C991.052 771.258 977.946 761.926 975.415 746.041C975.39 745.825 975.424 745.607 975.514 745.41C975.604 745.213 975.746 745.044 975.924 744.921C976.103 744.799 976.312 744.727 976.528 744.715C976.744 744.702 976.96 744.749 977.152 744.849C989.811 751.799 997.009 763.713 1003.86 775.974C1004.09 769.633 1002.77 763.331 1000.04 757.607C990.605 746.934 981.62 735.815 979.485 721.27C979.438 721.097 979.433 720.916 979.469 720.741C979.505 720.566 979.582 720.402 979.693 720.262C979.804 720.122 979.946 720.01 980.108 719.935C980.271 719.86 980.448 719.824 980.627 719.83Z" fill="#5EAD41"/>
<path fill-rule="evenodd" clip-rule="evenodd" d="M1172.94 839.558C1173.53 839.558 1173.78 833.154 1176.71 829.63C1181.68 823.574 1198.16 830.077 1189.97 840.054C1187.63 842.884 1184.41 845.018 1184.55 845.018C1186.17 844.554 1187.84 844.271 1189.52 844.174C1203.27 843.877 1200.64 867.009 1184.55 861.102C1181.97 860.159 1182.52 860.159 1183.76 862.442C1184.41 863.584 1185.35 864.924 1186.19 866.314C1186.98 867.693 1187.22 869.317 1186.86 870.863C1186.5 872.409 1185.57 873.763 1184.26 874.654C1180.24 877.285 1173.04 876.888 1171.4 871.874C1170.76 869.755 1170.35 867.576 1170.16 865.371C1169.17 856.833 1172.34 876.888 1158.59 876.54C1152.83 876.54 1148.37 871.576 1155.02 863.882C1155.99 862.751 1157.03 861.689 1158.15 860.705C1159.59 859.464 1159.63 859.216 1157.75 859.762C1155.22 860.671 1152.47 860.827 1149.86 860.208C1146.38 858.918 1144.49 850.28 1146.73 845.763C1149.95 839.558 1155.86 841.792 1159.59 843.033C1163.31 844.274 1164.55 843.926 1160.48 841.544C1159.1 840.764 1157.79 839.867 1156.56 838.863C1146.63 830.424 1165.59 818.014 1170.71 832.41C1171.95 835.934 1172.34 839.409 1172.74 839.409L1172.94 839.558ZM1169.07 845.118C1167.38 846.458 1169.91 848.195 1171.4 847.451C1172.89 846.706 1171.4 843.082 1169.07 845.118ZM1177.11 847.848C1175.52 844.969 1173.93 843.827 1172.94 847.848C1172.29 850.479 1172.09 854.152 1175.62 852.812C1176.07 852.618 1176.48 852.326 1176.81 851.957C1177.14 851.588 1177.38 851.152 1177.53 850.678C1177.67 850.205 1177.7 849.706 1177.63 849.217C1177.56 848.728 1177.38 848.26 1177.11 847.848ZM1167.43 849.039C1163.95 850.628 1164.9 854.003 1167.68 854.003C1173.78 854.003 1171.55 847.153 1167.43 849.039ZM1170.31 854.748C1165.74 857.031 1170.31 858.918 1174.38 857.23C1178.45 855.542 1174.53 852.365 1170.31 854.45V854.748Z" fill="#5EAD41"/>
<path fill-rule="evenodd" clip-rule="evenodd" d="M1317.57 483.353C1319.06 482.722 1320.32 481.663 1321.21 480.311C1322.09 478.958 1322.55 477.373 1322.53 475.758C1322.57 475.645 1322.57 475.523 1322.53 475.41C1321.6 474.099 1320.3 473.093 1318.8 472.519C1317.3 471.945 1315.66 471.828 1314.09 472.184C1312.76 472.615 1311.51 473.288 1310.42 474.169C1310.91 472.851 1311.16 471.456 1311.16 470.049C1311.03 468.438 1310.41 466.906 1309.39 465.649C1308.37 464.393 1307 463.47 1305.46 463H1305.11C1303.56 463.47 1302.19 464.393 1301.17 465.649C1300.16 466.906 1299.54 468.438 1299.4 470.049C1299.42 471.454 1299.67 472.847 1300.14 474.169C1299.04 473.306 1297.8 472.635 1296.47 472.184C1294.9 471.828 1293.26 471.945 1291.76 472.519C1290.26 473.093 1288.96 474.099 1288.03 475.41C1287.99 475.522 1287.99 475.646 1288.03 475.758C1288.01 477.373 1288.47 478.958 1289.36 480.311C1290.24 481.663 1291.51 482.722 1293 483.353C1294.33 483.78 1295.72 483.965 1297.12 483.899C1295.97 484.701 1294.95 485.671 1294.09 486.778C1293.27 488.164 1292.88 489.762 1292.97 491.371C1293.05 492.979 1293.62 494.525 1294.58 495.813C1294.58 495.813 1294.58 495.813 1294.88 495.813C1295.84 496.07 1296.82 496.203 1297.81 496.21C1299.65 496.232 1301.43 495.592 1302.84 494.407C1304.24 493.222 1305.17 491.571 1305.46 489.756C1305.74 491.571 1306.67 493.222 1308.08 494.407C1309.48 495.592 1311.26 496.232 1313.1 496.21C1314.07 496.199 1315.04 496.066 1315.98 495.813C1315.98 495.813 1316.23 495.813 1316.28 495.813C1317.24 494.525 1317.81 492.979 1317.9 491.371C1317.98 489.762 1317.59 488.164 1316.77 486.778C1315.92 485.671 1314.89 484.701 1313.75 483.899C1315.14 483.965 1316.54 483.78 1317.87 483.353H1317.57ZM1305.16 464.191C1306.42 464.615 1307.53 465.393 1308.35 466.432C1309.18 467.471 1309.69 468.727 1309.82 470.049C1309.56 473.58 1308.15 476.927 1305.8 479.58C1305.8 479.58 1305.8 480.126 1305.8 472.978C1305.81 472.902 1305.8 472.826 1305.78 472.754C1305.75 472.682 1305.71 472.615 1305.66 472.559C1305.61 472.503 1305.55 472.458 1305.48 472.428C1305.41 472.397 1305.33 472.382 1305.26 472.382C1305.1 472.382 1304.95 472.445 1304.84 472.557C1304.72 472.668 1304.66 472.82 1304.66 472.978V479.084C1303.92 478.048 1303.13 477.054 1302.28 476.105C1301.19 474.27 1300.59 472.184 1300.54 470.049C1300.68 468.721 1301.19 467.461 1302.03 466.421C1302.87 465.382 1303.99 464.607 1305.26 464.191H1305.16ZM1293.05 482.261C1291.84 481.702 1290.81 480.815 1290.08 479.7C1289.35 478.585 1288.95 477.288 1288.92 475.956C1289.71 474.883 1290.79 474.058 1292.03 473.583C1293.27 473.107 1294.62 473.001 1295.92 473.276C1299.22 474.613 1301.98 477.005 1303.77 480.076C1303.77 480.076 1304.21 480.076 1297.46 478.091C1297.32 478.059 1297.17 478.082 1297.04 478.155C1296.91 478.229 1296.81 478.347 1296.77 478.488C1296.72 478.633 1296.73 478.791 1296.79 478.93C1296.86 479.068 1296.97 479.177 1297.12 479.233L1302.92 481.119C1301.7 481.462 1300.5 481.91 1299.35 482.459C1297.28 482.955 1295.12 482.955 1293.05 482.459V482.261ZM1302.38 493.033C1302.14 493.783 1301.73 494.466 1301.17 495.024C1300.62 495.583 1299.94 496.002 1299.19 496.246C1298.44 496.49 1297.64 496.553 1296.87 496.429C1296.09 496.305 1295.35 495.998 1294.72 495.533C1294.08 495.067 1293.56 494.458 1293.21 493.754C1292.86 493.05 1292.68 492.273 1292.68 491.485C1292.69 490.698 1292.88 489.924 1293.25 489.226C1293.61 488.528 1294.14 487.927 1294.78 487.473C1297.08 484.777 1300.2 482.911 1303.67 482.161C1303.67 482.161 1303.97 481.814 1299.8 487.523C1299.71 487.636 1299.66 487.776 1299.66 487.92C1299.66 488.064 1299.71 488.203 1299.8 488.317C1299.85 488.371 1299.91 488.414 1299.98 488.443C1300.05 488.473 1300.12 488.488 1300.19 488.488C1300.27 488.488 1300.34 488.473 1300.41 488.443C1300.48 488.414 1300.54 488.371 1300.59 488.317L1304.16 483.353C1304.04 484.624 1304.04 485.904 1304.16 487.175C1303.92 489.306 1303.17 491.347 1301.98 493.132L1302.38 493.033ZM1305.16 481.814C1305 481.814 1304.85 481.751 1304.74 481.639C1304.62 481.528 1304.56 481.376 1304.56 481.218C1304.56 481.06 1304.62 480.909 1304.74 480.797C1304.85 480.685 1305 480.623 1305.16 480.623C1305.23 480.622 1305.31 480.638 1305.38 480.668C1305.45 480.699 1305.51 480.744 1305.56 480.8C1305.61 480.856 1305.65 480.922 1305.68 480.994C1305.7 481.066 1305.71 481.142 1305.7 481.218C1305.7 481.368 1305.65 481.512 1305.55 481.623C1305.45 481.733 1305.31 481.801 1305.16 481.814ZM1315.53 487.473C1316.16 487.934 1316.68 488.538 1317.03 489.236C1317.38 489.933 1317.57 490.705 1317.57 491.486C1317.57 492.268 1317.38 493.039 1317.03 493.736C1316.67 494.432 1316.16 495.035 1315.52 495.495C1314.89 495.955 1314.16 496.259 1313.39 496.382C1312.61 496.506 1311.82 496.445 1311.08 496.205C1310.34 495.965 1309.66 495.552 1309.1 495.001C1308.55 494.45 1308.13 493.776 1307.89 493.033C1306.09 490.051 1305.27 486.577 1305.55 483.105C1305.55 483.105 1305.55 482.658 1309.48 488.416C1309.53 488.509 1309.6 488.587 1309.7 488.641C1309.79 488.695 1309.89 488.723 1310 488.723C1310.1 488.723 1310.21 488.695 1310.3 488.641C1310.39 488.587 1310.47 488.509 1310.52 488.416C1310.58 488.32 1310.61 488.208 1310.61 488.094C1310.61 487.979 1310.58 487.867 1310.52 487.771L1306.94 482.807C1308.16 483.252 1309.4 483.601 1310.67 483.849C1312.59 484.748 1314.29 486.072 1315.63 487.721L1315.53 487.473ZM1306.9 481.317C1308.91 480.439 1311.01 479.742 1313.15 479.233C1313.29 479.177 1313.41 479.068 1313.47 478.93C1313.54 478.791 1313.55 478.633 1313.5 478.488C1313.45 478.347 1313.36 478.229 1313.23 478.155C1313.1 478.082 1312.95 478.059 1312.8 478.091L1306.94 479.977C1307.76 478.972 1308.47 477.892 1309.08 476.751C1310.51 475.164 1312.32 473.968 1314.34 473.276C1315.64 473.008 1316.98 473.113 1318.22 473.578C1319.46 474.044 1320.54 474.851 1321.34 475.907C1321.34 477.244 1320.95 478.551 1320.22 479.671C1319.49 480.79 1318.44 481.672 1317.22 482.211C1313.78 483.084 1310.14 482.769 1306.9 481.317Z" fill="#5EAD41"/>
<path fill-rule="evenodd" clip-rule="evenodd" d="M1234.89 538.707C1235.78 541.296 1236.72 543.696 1238.43 544.707C1242.34 547.107 1246.32 545.022 1248.47 541.359C1248.72 540.98 1248.79 541.043 1248.34 540.917C1246.26 540.285 1244.49 539.212 1243.54 538.138C1242.09 536.496 1239.69 533.528 1240.64 529.801C1241.84 525.001 1247.52 523.169 1250.24 525.885C1253.65 529.296 1253.9 533.149 1253.78 537.064C1253.78 537.191 1253.65 538.328 1253.71 538.328C1253.71 538.328 1254.09 538.328 1254.16 538.328C1255.36 538.328 1256.49 538.075 1257.38 537.443C1258.83 536.433 1260.22 534.601 1260.72 532.896C1261.23 531.254 1261.17 530.054 1261.54 529.991C1261.86 529.927 1262.62 530.812 1262.43 532.833C1262.18 535.991 1260.47 540.854 1255.54 541.296C1254.79 541.359 1253.97 541.423 1253.21 541.486C1253.02 541.486 1252.89 541.486 1252.83 541.738C1250.56 548.307 1244.24 553.549 1237.42 551.023C1237.8 556.012 1237.73 561.191 1237.23 566.37C1235.78 582.476 1233 588.855 1224.98 602.687C1217.4 615.824 1208.11 630.919 1209.56 636.983C1211.84 646.393 1206.34 649.362 1210.32 660.857C1210.7 661.93 1212.41 665.215 1211.9 668.499C1211.27 672.668 1203.25 676.836 1201.1 675.636C1200.09 675.131 1199.59 667.678 1195.54 661.615C1193.14 657.951 1184.36 649.299 1178.43 641.53C1176.85 639.446 1175.4 640.33 1174.83 642.541C1172.05 652.962 1160.87 655.488 1158.34 670.457C1158.03 672.352 1153.35 674.247 1149.18 674.31C1144.83 674.436 1145.39 671.594 1146.22 668.057C1146.97 664.836 1147.79 660.92 1148.24 658.015C1149.63 649.993 1148.99 640.456 1144.83 640.519C1133.27 640.772 1120.45 639.888 1108.76 638.877C1106.74 638.688 1106.68 640.014 1107.56 641.593C1108.83 643.867 1110.34 645.635 1111.23 648.225C1112.93 653.025 1111.23 665.72 1108.83 670.015C1107.06 673.11 1102.38 674.562 1099.04 674.373C1097.14 674.246 1097.46 672.794 1097.01 668.878C1095.37 653.341 1090.13 647.214 1082.93 638.372C1079.46 634.077 1078.57 633.888 1073.58 636.098C1065.37 639.698 1055.83 641.467 1051.67 650.814C1050.21 654.099 1049.9 657.762 1049.08 662.815C1048.76 664.583 1047.56 666.162 1041.25 670.52C1038.78 672.225 1037.33 669.068 1036.7 663.446C1035.06 648.541 1041.43 626.94 1049.46 620.751C1043.2 615.445 1035.31 605.024 1029.24 599.782C1011.75 584.56 1001.27 596.497 982.949 566.812C980.233 562.391 969.812 549.949 964.822 548.749C955.538 546.475 961.98 531.064 965.012 527.212C968.17 523.169 969.812 525.317 973.349 526.706C982.128 530.117 1001.01 525.948 1007.39 524.622C992.549 512.938 994.886 505.864 994.002 493.927C993.749 490.137 992.865 485.779 994.065 485.147C995.644 484.39 999.75 488.306 1003.6 490.769C1013.27 496.895 1028.36 504.979 1046.61 509.59C1070.61 505.485 1081.98 512.369 1102.38 511.106C1146.66 508.327 1195.92 486.6 1224.72 520.517C1229.97 526.643 1232.49 531.254 1234.95 538.707H1234.89ZM1249.67 537.191C1249.67 537.191 1249.86 537.317 1249.92 537.128C1250.3 534.601 1249.92 532.012 1248.91 530.496C1247.27 528.159 1243.36 528.348 1245.38 533.022C1246.13 534.727 1247.78 536.243 1249.67 537.191Z" fill="#F5AFB4"/>
<path fill-rule="evenodd" clip-rule="evenodd" d="M1024.83 512.621C1022.3 506.305 1022.24 499.989 1024.76 490.262C1030 470.051 1031.01 484.136 1038.91 494.746C1041.18 497.778 1043.84 500.999 1046.74 504.22C1052.93 510.978 1058.24 512.431 1061.33 515.526C1069.42 523.484 1069.23 528.221 1056.03 532.2C1053.12 533.084 1049.9 533.653 1046.8 533.653C1035.63 533.653 1028.61 522.031 1024.83 512.557V512.621Z" fill="#E7868C"/>
<mask id="mask0_182_6813" style="mask-type:alpha" maskUnits="userSpaceOnUse" x="1022" y="480" width="45" height="54">
<path fill-rule="evenodd" clip-rule="evenodd" d="M1024.83 512.621C1022.3 506.305 1022.24 499.989 1024.76 490.262C1030 470.051 1031.01 484.136 1038.91 494.746C1041.18 497.778 1043.84 500.999 1046.74 504.22C1052.93 510.978 1058.24 512.431 1061.33 515.526C1069.42 523.484 1069.23 528.221 1056.03 532.2C1053.12 533.084 1049.9 533.653 1046.8 533.653C1035.63 533.653 1028.61 522.031 1024.83 512.557V512.621Z" fill="#E7868C"/>
</mask>
<g mask="url(#mask0_182_6813)">
<path fill-rule="evenodd" clip-rule="evenodd" d="M1039.86 542.497C1039.73 539.528 1039.41 536.56 1038.97 533.465C1038.91 533.528 1038.78 533.654 1038.66 533.654C1037.08 534.096 1035.37 533.844 1034.04 532.77C1033.29 532.139 1031.83 530.56 1032.28 529.486C1032.78 528.223 1035.06 528.917 1036 529.107C1036.95 529.296 1037.77 529.675 1038.4 530.244C1037.9 527.339 1037.27 524.433 1036.63 521.528C1036.63 521.591 1036.51 521.654 1036.45 521.717C1035.18 522.475 1033.67 522.665 1032.21 522.223C1031.2 521.907 1029.12 520.707 1029.18 519.38C1029.31 517.991 1031.65 518.054 1032.59 517.991C1033.86 517.991 1034.99 518.18 1036 518.812C1035.37 515.843 1034.74 512.875 1034.17 509.843C1034.17 509.843 1034.05 509.843 1033.98 509.907C1032.28 510.286 1030.76 509.528 1029.5 508.454C1028.74 507.822 1027.41 506.749 1028.42 505.738C1029.31 504.854 1031.14 504.98 1032.21 505.296C1032.66 505.422 1033.03 505.612 1033.41 505.801C1032.91 502.833 1032.53 499.801 1032.28 496.833C1029.5 496.011 1027.73 493.485 1027.67 490.643C1027.67 490.453 1027.86 490.264 1027.98 490.201C1029.75 489.506 1031.14 490.517 1032.02 492.032C1032.02 489.253 1032.15 486.537 1032.59 483.885H1032.47C1029.88 482.622 1028.74 480.222 1028.68 477.443C1028.68 477.253 1028.87 477.001 1029.06 476.937C1030.38 476.495 1031.58 477.064 1032.47 478.074C1032.84 478.516 1033.22 479.022 1033.54 479.59C1034.23 477 1035.18 474.411 1036.51 471.948C1034.68 469.927 1034.61 467.274 1035.56 464.811C1035.69 464.558 1035.94 464.369 1036.19 464.432C1037.58 464.495 1038.47 465.632 1038.85 466.895C1038.91 467.148 1039.03 467.463 1039.1 467.779C1039.41 467.337 1039.73 466.958 1040.05 466.516C1039.54 464.684 1039.41 462.726 1039.79 460.832C1040.05 459.695 1040.99 457.674 1042.45 458.811C1043.46 459.568 1043.65 461.274 1043.58 462.411C1043.52 464.305 1042.51 465.884 1041.06 467.021C1040.49 467.716 1039.98 468.474 1039.48 469.232C1040.3 468.916 1041.18 468.727 1042.07 468.727C1042.89 468.727 1044.85 468.6 1045.03 469.674C1045.22 471.063 1043.2 472.516 1042.13 472.895C1040.61 473.464 1038.97 473.211 1037.52 472.516C1036.32 474.79 1035.43 477.127 1034.74 479.527C1035.43 479.021 1036.19 478.643 1037.01 478.327C1037.83 478.074 1039.22 477.569 1039.48 478.769C1039.73 480.095 1038.78 481.674 1037.83 482.558C1036.7 483.569 1035.25 483.948 1033.79 483.948C1033.41 486.411 1033.22 488.874 1033.22 491.401C1033.98 489.948 1035.18 488.622 1036.7 488.243C1036.89 488.243 1037.08 488.306 1037.2 488.432C1038.21 489.506 1038.15 491.464 1037.65 492.79C1036.95 494.559 1035.5 495.696 1033.73 496.327C1033.6 496.327 1033.48 496.327 1033.35 496.327C1033.54 499.485 1033.98 502.706 1034.55 505.928C1034.87 504.285 1036.07 502.833 1037.77 502.138C1038.02 502.012 1038.4 502.138 1038.53 502.454C1038.97 503.78 1039.29 505.106 1038.53 506.369C1037.77 507.633 1036.45 508.264 1035.12 508.833C1035.62 511.612 1036.26 514.391 1036.82 517.17C1037.33 515.717 1038.47 514.58 1039.86 513.885C1040.11 513.759 1040.36 513.885 1040.55 514.075C1041.25 514.959 1041.12 516.538 1040.87 517.549C1040.49 519.128 1039.1 519.949 1037.77 520.644C1037.77 520.644 1037.65 520.644 1037.58 520.644C1038.28 523.928 1038.97 527.149 1039.54 530.37C1040.3 528.602 1041.94 527.338 1043.9 526.959C1044.15 526.959 1044.4 527.086 1044.53 527.275C1044.97 528.412 1044.4 530.054 1043.77 531.002C1042.95 532.265 1041.5 532.644 1040.11 532.896H1039.98C1040.49 536.054 1040.87 539.212 1040.93 542.244C1040.93 542.939 1039.86 543.128 1039.79 542.434L1039.86 542.497Z" fill="#D1636E"/>
<path fill-rule="evenodd" clip-rule="evenodd" d="M1048.76 521.591C1049.58 521.591 1050.21 520.959 1050.21 520.138C1050.21 519.317 1049.58 518.686 1048.76 518.686C1047.94 518.686 1047.31 519.317 1047.31 520.138C1047.31 520.959 1047.94 521.591 1048.76 521.591Z" fill="#D1636E"/>
<path fill-rule="evenodd" clip-rule="evenodd" d="M1044.4 510.412C1045.22 510.412 1045.86 509.78 1045.86 508.959C1045.86 508.138 1045.22 507.506 1044.4 507.506C1043.58 507.506 1042.95 508.138 1042.95 508.959C1042.95 509.78 1043.58 510.412 1044.4 510.412Z" fill="#D1636E"/>
<path fill-rule="evenodd" clip-rule="evenodd" d="M1053.88 520.139C1054.7 520.139 1055.33 519.507 1055.33 518.686C1055.33 517.865 1054.7 517.233 1053.88 517.233C1053.06 517.233 1052.43 517.865 1052.43 518.686C1052.43 519.507 1053.06 520.139 1053.88 520.139Z" fill="#D1636E"/>
<path fill-rule="evenodd" clip-rule="evenodd" d="M1027.73 500.685C1028.55 500.685 1029.18 500.054 1029.18 499.233C1029.18 498.411 1028.55 497.78 1027.73 497.78C1026.91 497.78 1026.28 498.411 1026.28 499.233C1026.28 500.054 1026.91 500.685 1027.73 500.685Z" fill="#D1636E"/>
<path fill-rule="evenodd" clip-rule="evenodd" d="M1053.56 523.549C1054.38 523.549 1055.01 522.918 1055.01 522.097C1055.01 521.276 1054.38 520.644 1053.56 520.644C1052.74 520.644 1052.11 521.276 1052.11 522.097C1052.11 522.918 1052.74 523.549 1053.56 523.549Z" fill="#D1636E"/>
</g>
<path fill-rule="evenodd" clip-rule="evenodd" d="M1016.49 543.191C1013.65 543.317 1011.56 542.496 1012.82 539.97C1014.4 536.812 1016.87 537.443 1018.95 539.149C1022.55 542.054 1020.34 543.002 1016.49 543.191Z" fill="#845B00"/>
<path fill-rule="evenodd" clip-rule="evenodd" d="M1147.35 611.908C1144 619.803 1137.37 618.982 1134.09 615.571C1130.93 612.35 1130.87 606.729 1139.58 604.203C1145.77 602.434 1150.26 605.024 1147.35 611.908ZM1132.26 553.233C1131.06 559.486 1118.3 561.759 1112.87 568.581C1108.89 573.57 1109.33 579.949 1118.11 591.002C1125.88 600.792 1142.93 596.56 1151.08 592.455C1158.66 588.665 1157.39 609.887 1181.02 605.971C1192.57 604.076 1188.6 592.834 1189.42 584.244C1190.43 573.57 1211.84 569.591 1204.45 555.065C1196.62 539.717 1182.41 550.075 1172.49 541.233C1168.51 537.696 1164.72 534.79 1161.06 532.643C1151.46 526.895 1143.18 526.074 1137.44 530.875C1128.47 538.264 1133.46 547.106 1132.32 553.17L1132.26 553.233ZM1196.68 532.517C1196.87 541.927 1176.34 542.685 1173.56 533.148C1170.28 521.906 1196.36 517.422 1196.68 532.517Z" fill="#E7868C"/>
<mask id="mask1_182_6813" style="mask-type:alpha" maskUnits="userSpaceOnUse" x="1110" y="522" width="96" height="97">
<path fill-rule="evenodd" clip-rule="evenodd" d="M1147.35 611.908C1144 619.803 1137.37 618.982 1134.09 615.571C1130.93 612.35 1130.87 606.729 1139.58 604.203C1145.77 602.434 1150.26 605.024 1147.35 611.908ZM1132.26 553.233C1131.06 559.486 1118.3 561.759 1112.87 568.581C1108.89 573.57 1109.33 579.949 1118.11 591.002C1125.88 600.792 1142.93 596.56 1151.08 592.455C1158.66 588.665 1157.39 609.887 1181.02 605.971C1192.57 604.076 1188.6 592.834 1189.42 584.244C1190.43 573.57 1211.84 569.591 1204.45 555.065C1196.62 539.717 1182.41 550.075 1172.49 541.233C1168.51 537.696 1164.72 534.79 1161.06 532.643C1151.46 526.895 1143.18 526.074 1137.44 530.875C1128.47 538.264 1133.46 547.106 1132.32 553.17L1132.26 553.233ZM1196.68 532.517C1196.87 541.927 1176.34 542.685 1173.56 533.148C1170.28 521.906 1196.36 517.422 1196.68 532.517Z" fill="#E7868C"/>
</mask>
<g mask="url(#mask1_182_6813)">
<path fill-rule="evenodd" clip-rule="evenodd" d="M1183.99 576.285C1183.99 576.285 1183.99 575.906 1183.73 575.843C1183.54 575.843 1183.42 575.843 1183.35 576.032C1183.29 576.095 1182.98 576.348 1182.79 576.411C1182.66 576.474 1182.53 576.601 1182.47 576.664C1182.15 576.916 1181.78 577.232 1181.46 577.611C1180.83 578.243 1180.26 578.938 1179.82 579.695C1179.82 579.759 1179.69 579.822 1179.69 579.948C1179.38 580.39 1179 581.022 1179.12 581.59C1179.25 582.095 1179.56 582.222 1179.75 582.285C1180.26 582.411 1180.83 582.159 1181.21 581.78C1181.96 581.085 1182.85 580.264 1183.35 579.127C1183.35 579.064 1183.42 578.937 1183.48 578.874C1183.67 578.369 1183.73 577.801 1183.86 577.295C1183.86 576.916 1183.99 576.601 1184.05 576.285H1183.99ZM1182.53 570.411C1182.47 571.106 1182.34 571.864 1182.03 572.558C1181.84 572.937 1181.59 573.316 1181.27 573.695C1181.02 572.874 1181.4 571.611 1181.52 571.169C1181.78 570.537 1182.03 570.158 1182.34 570.095C1182.41 570.095 1182.47 570.095 1182.47 570.095C1182.47 570.095 1182.47 570.095 1182.47 570.411H1182.53ZM1184.11 573.632C1184.11 573.632 1183.61 573.506 1183.35 573.569C1182.79 573.695 1182.22 573.885 1181.71 574.264C1181.71 574.264 1182.03 574.453 1182.28 574.516C1182.98 574.643 1183.73 574.264 1184.18 573.695L1184.11 573.632ZM1183.42 583.043C1183.73 582.474 1184.18 581.969 1184.62 581.59C1185.06 581.148 1185.56 580.706 1186.13 580.517C1186.64 580.39 1187.27 580.453 1187.59 580.895C1187.59 580.895 1187.65 581.022 1187.71 581.085C1187.46 581.653 1187.02 582.095 1186.58 582.411C1185.63 583.106 1184.62 583.548 1183.54 583.99L1183.04 584.18C1183.04 583.738 1183.29 583.295 1183.42 583.043ZM1187.59 582.159C1187.4 582.537 1187.08 582.917 1186.58 583.232C1185.75 583.801 1184.74 584.18 1183.67 584.243C1183.61 584.243 1183.48 584.243 1183.42 584.243C1183.42 584.243 1183.42 584.243 1183.35 584.243L1183.54 584.117C1184.55 583.675 1185.63 583.169 1186.58 582.538C1186.95 582.222 1187.4 581.843 1187.71 581.338C1187.71 581.59 1187.71 581.906 1187.59 582.159ZM1186.2 585.885C1186.64 586.075 1187.14 586.453 1187.46 587.022C1187.59 587.338 1187.65 587.717 1187.52 587.969C1187.46 587.717 1187.27 587.464 1186.95 587.211C1186.01 586.39 1184.87 585.885 1183.73 585.38C1183.48 585.253 1183.16 585.127 1182.91 585.001C1183.16 585.001 1183.61 585.127 1183.86 585.253C1184.05 585.253 1184.24 585.38 1184.3 585.38C1184.93 585.506 1185.5 585.632 1186.07 585.885H1186.2ZM1185.5 587.906C1186.07 588.222 1186.58 588.285 1186.95 588.285C1187.14 588.285 1187.27 588.222 1187.33 588.159C1187.27 587.843 1187.02 587.59 1186.83 587.338C1185.94 586.517 1184.81 586.011 1183.67 585.506C1183.35 585.38 1183.1 585.253 1182.79 585.127C1182.79 585.317 1182.98 585.569 1183.04 585.696C1183.61 586.896 1184.68 587.527 1185.44 587.906H1185.5ZM1163.52 595.675C1163.14 595.675 1162.7 595.548 1162.57 595.233C1162.57 595.169 1162.57 595.106 1162.57 595.043C1164.09 594.601 1165.8 594.096 1167.44 594.222C1167.5 594.222 1167.56 594.222 1167.63 594.285C1166.55 595.296 1165.04 595.801 1163.59 595.675H1163.52ZM1162.7 594.538C1162.7 594.538 1162.57 594.664 1162.57 594.79C1162.57 594.79 1162.57 594.79 1162.57 594.854C1163.84 594.475 1165.29 594.033 1166.74 594.033C1165.67 593.78 1164.53 593.654 1163.52 594.033C1163.14 594.159 1162.89 594.348 1162.7 594.538ZM1165.99 591.948C1165.67 591.506 1165.29 590.938 1165.48 590.369C1166.11 591.443 1166.81 592.454 1167.63 593.401C1167 593.022 1166.43 592.517 1165.99 591.948ZM1166.17 589.864C1166.62 589.864 1167.06 590.18 1167.37 590.622C1167.69 591.064 1167.88 591.633 1168.01 592.201C1168.13 592.706 1168.26 593.275 1168.13 593.717C1168.13 593.717 1168.07 593.717 1168.01 593.717C1167.06 592.643 1166.24 591.443 1165.48 590.18C1165.48 590.18 1165.54 590.053 1165.61 590.053C1165.73 589.927 1165.92 589.864 1166.11 589.927L1166.17 589.864ZM1166.74 584.117C1165.99 584.117 1165.29 584.117 1164.79 583.864C1164.15 583.674 1163.59 583.295 1163.27 582.79C1164.53 583.422 1165.92 583.738 1167.37 583.674C1167.75 583.674 1168.07 583.611 1168.32 583.485C1168.2 583.611 1168.07 583.738 1167.88 583.864C1167.56 584.053 1167.12 584.053 1166.74 584.053V584.117ZM1166.24 582.411C1165.42 582.285 1164.53 582.411 1163.46 582.601C1163.4 582.601 1163.33 582.601 1163.27 582.601C1164.53 583.232 1165.92 583.548 1167.31 583.485C1167.82 583.485 1168.13 583.359 1168.39 583.232C1167.82 582.79 1167.06 582.474 1166.24 582.411ZM1167.06 579.506V579.316C1167.5 579.316 1167.88 579.695 1168.13 580.011C1168.39 580.39 1169.02 581.78 1168.89 582.032C1168.89 582.032 1168.89 582.032 1168.7 582.032C1168.01 581.843 1167.37 580.453 1167.12 579.569L1167.06 579.506ZM1180.83 570.979C1181.02 570.411 1181.4 569.653 1182.09 569.464C1182.41 569.4 1182.66 569.464 1182.91 569.59C1183.23 569.906 1183.16 570.348 1183.16 570.537C1183.1 571.232 1182.98 572.116 1182.6 572.874C1182.6 572.937 1182.53 573.001 1182.47 573.064C1182.66 573.001 1182.91 572.937 1183.1 572.874C1183.92 572.748 1184.36 572.937 1184.55 573.19C1184.68 573.316 1184.74 573.443 1184.74 573.632C1184.74 573.695 1184.74 573.758 1184.74 573.822C1184.74 573.885 1184.74 573.948 1184.68 574.011C1184.18 574.832 1183.1 575.337 1182.09 575.211C1181.71 575.211 1181.4 575.022 1181.14 574.769C1180.89 575.022 1180.64 575.211 1180.39 575.401C1180.13 575.653 1179.82 575.843 1179.56 576.095C1179.69 578.432 1179.12 580.643 1178.55 582.285C1178.43 582.601 1178.3 582.917 1178.18 583.232C1177.8 584.18 1177.35 585.064 1176.91 585.948C1178.55 585.001 1180.39 584.369 1182.22 584.18C1182.22 584.18 1182.22 584.18 1182.28 584.18C1182.28 583.674 1182.47 583.232 1182.79 582.727C1183.16 582.096 1183.67 581.527 1184.11 581.085C1184.62 580.58 1185.19 580.074 1185.88 579.885C1186.64 579.632 1187.4 579.822 1187.9 580.264C1187.9 580.264 1187.96 580.264 1187.96 580.327C1187.96 580.327 1188.03 580.453 1188.09 580.453C1188.47 580.959 1188.53 581.716 1188.22 582.411C1187.96 582.916 1187.59 583.359 1186.95 583.801C1186.32 584.243 1185.56 584.559 1184.87 584.748C1185.44 584.874 1186.01 585.001 1186.51 585.253C1187.02 585.506 1187.71 585.948 1188.09 586.643C1188.34 587.085 1188.41 587.59 1188.22 588.032C1188.15 588.222 1188.03 588.411 1187.84 588.601C1187.65 588.727 1187.4 588.853 1187.08 588.917C1186.39 588.98 1185.69 588.727 1185.25 588.474C1184.36 588.032 1183.23 587.275 1182.53 586.011C1182.34 585.632 1182.15 585.19 1182.22 584.811C1180.13 585.001 1177.99 585.822 1176.34 587.085C1175.27 589.169 1174.13 591.633 1173.31 595.359C1173.38 595.17 1173.5 595.043 1173.56 594.854C1173.94 594.159 1174.32 593.59 1174.76 593.085C1175.59 592.201 1176.66 591.632 1177.73 591.064C1178.36 590.748 1179.06 590.369 1179.69 589.927C1179.82 589.864 1180.01 589.864 1180.13 589.927C1180.26 590.054 1180.26 590.18 1180.26 590.306C1179.94 591.064 1179.69 591.948 1179.44 592.769C1179.25 593.338 1179.12 593.906 1178.87 594.475C1178.55 595.422 1178.11 596.369 1177.48 597.19C1177.04 597.696 1176.53 598.201 1175.96 598.58C1175.71 598.769 1175.33 599.022 1174.95 599.085C1174.64 599.149 1173.56 599.401 1172.93 599.085C1172.87 599.843 1172.81 600.664 1172.81 601.485C1172.81 601.738 1172.87 602.054 1172.81 602.306C1172.81 602.306 1172.81 602.37 1172.81 602.433C1172.81 605.401 1173.25 608.559 1175.02 611.149C1175.02 611.212 1175.08 611.338 1175.02 611.465C1175.02 611.528 1174.95 611.591 1174.89 611.654C1174.7 611.78 1174.51 611.654 1174.39 611.528C1172.74 609.001 1172.18 606.096 1172.11 603.254C1171.67 603.57 1170.98 603.696 1170.15 603.696C1168.64 603.696 1167.25 603.38 1166.05 602.685C1164.72 601.927 1163.71 600.727 1162.7 599.654C1162.64 599.591 1162.57 599.464 1162.64 599.338C1162.64 599.212 1162.76 599.149 1162.83 599.085C1164.53 598.454 1167 597.696 1169.4 598.454C1170.15 598.706 1170.91 599.149 1171.54 599.654C1171.73 599.843 1171.99 600.033 1172.11 600.285C1172.11 599.78 1172.17 599.275 1172.24 598.769C1172.3 598.012 1172.43 597.191 1172.49 596.433H1172.43C1171.16 595.675 1169.77 595.043 1168.32 594.538C1167.12 595.738 1165.29 596.433 1163.59 596.243C1162.83 596.243 1162.32 595.927 1162.07 595.485C1161.82 595.043 1161.88 594.475 1162.26 594.033C1162.51 593.717 1162.89 593.464 1163.4 593.275C1164.34 592.959 1165.35 592.959 1166.3 593.148C1166.05 592.896 1165.8 592.643 1165.54 592.327C1164.97 591.569 1164.72 590.811 1164.91 590.117C1164.97 589.801 1165.1 589.611 1165.29 589.422C1165.54 589.169 1165.92 589.106 1166.3 589.106C1166.93 589.106 1167.63 589.548 1168.07 590.18C1168.45 590.748 1168.64 591.317 1168.83 591.948C1169.02 592.58 1169.14 593.338 1168.83 593.969C1170.15 594.412 1171.35 594.98 1172.55 595.675C1172.74 593.843 1172.93 591.948 1173 590.117C1173 590.117 1172.93 590.117 1172.87 590.18C1172.62 590.369 1172.17 590.369 1171.61 590.306C1171.54 590.306 1171.42 590.306 1171.35 590.306C1170.79 590.306 1170.22 590.243 1169.77 589.927C1169.4 589.675 1169.14 589.296 1168.89 588.917C1168.89 588.853 1168.83 588.727 1168.89 588.601C1168.89 588.475 1169.02 588.411 1169.08 588.411L1169.84 588.096C1169.84 588.096 1170.34 587.906 1170.66 587.843C1170.97 587.843 1171.29 587.843 1171.67 588.032C1171.67 588.032 1172.55 588.411 1173 588.98C1173 587.906 1172.87 586.896 1172.68 585.885C1172.68 585.632 1172.55 585.317 1172.49 585.064C1172.49 585.064 1172.49 585.064 1172.43 585.064C1171.29 584.685 1170.15 584.18 1169.08 583.611C1168.95 583.927 1168.64 584.243 1168.26 584.432C1167.82 584.685 1167.31 584.685 1166.81 584.748C1165.92 584.748 1165.23 584.685 1164.6 584.496C1163.77 584.243 1163.14 583.738 1162.7 583.169C1162.57 583.043 1162.51 582.79 1162.51 582.538C1162.51 582.285 1162.7 582.032 1163.33 581.906C1164.53 581.653 1165.48 581.653 1166.36 581.717C1166.74 581.717 1167.19 581.843 1167.69 582.032C1166.87 581.148 1166.49 579.695 1166.49 579.632C1166.36 579.19 1166.49 578.811 1166.74 578.685C1166.87 578.622 1167.06 578.622 1167.12 578.622C1167.69 578.622 1168.26 578.938 1168.7 579.569C1168.83 579.695 1169.84 581.401 1169.52 582.222C1169.52 582.222 1169.52 582.348 1169.46 582.411C1169.4 582.538 1169.21 582.727 1168.83 582.664C1168.95 582.79 1169.08 582.853 1169.21 582.98C1170.15 583.548 1171.16 583.99 1172.18 584.369C1171.42 581.716 1170.15 579.253 1168.83 576.98C1168.83 577.106 1168.7 577.169 1168.64 577.232C1168.13 577.611 1167.19 577.358 1166.3 577.106H1166.17C1165.04 576.727 1164.09 576.159 1163.46 575.401C1163.21 575.148 1163.02 574.895 1162.83 574.58C1162.7 574.39 1162.57 574.2 1162.45 574.074C1162.39 573.948 1162.32 573.822 1162.45 573.695C1162.45 573.569 1162.64 573.506 1162.76 573.506C1164.09 573.506 1165.73 573.506 1167.06 574.264C1167.31 574.39 1167.56 574.643 1167.88 574.895C1167.63 574.2 1167.56 573.506 1167.69 572.811C1167.82 571.99 1168.2 571.169 1168.83 570.285C1169.08 569.906 1169.46 569.779 1169.77 569.969C1169.9 570.032 1169.96 570.158 1170.03 570.222C1170.47 571.169 1170.53 572.369 1170.03 573.885C1170.03 574.011 1169.96 574.137 1169.9 574.264C1169.84 574.453 1169.77 574.643 1169.65 574.832C1169.33 575.337 1169.08 575.59 1168.95 575.716C1169.52 576.727 1170.15 577.864 1170.72 578.938C1170.72 578.559 1170.85 578.053 1171.04 577.485C1171.35 576.537 1171.86 575.779 1172.49 575.085C1173.19 574.39 1173.88 574.074 1174.57 574.011C1174.7 574.011 1174.83 574.011 1174.89 574.201C1174.89 574.264 1174.95 574.39 1174.89 574.516C1174.58 575.085 1174.45 575.59 1174.26 576.222C1174.13 576.538 1174.01 576.916 1173.88 577.232C1173.56 578.053 1172.87 579.127 1171.8 579.506C1171.42 579.632 1171.1 579.569 1170.91 579.38C1171.92 581.464 1172.81 583.611 1173.25 585.885C1173.63 587.843 1173.63 589.738 1173.56 591.696C1174.32 589.359 1175.21 587.654 1176.03 586.075C1176.6 585.001 1177.1 584.053 1177.54 582.917C1177.67 582.664 1177.8 582.348 1177.86 582.032C1177.86 582.032 1177.86 582.096 1177.8 582.096C1176.98 582.79 1175.33 581.085 1175.33 581.022C1175.02 580.643 1174.7 580.201 1174.45 579.822C1174.2 579.506 1174.01 579.19 1173.75 578.874C1173.69 578.748 1173.63 578.622 1173.75 578.495C1173.82 578.369 1174.01 578.306 1174.13 578.306C1175.02 578.495 1176.28 578.748 1177.04 579.695C1177.04 579.695 1178.05 580.959 1178.05 581.653C1178.87 579.127 1179.56 575.464 1178.05 572.432C1177.99 572.432 1177.92 572.432 1177.8 572.432C1177.42 572.369 1177.1 572.432 1176.66 572.432C1176.34 572.432 1176.03 572.432 1175.71 572.432C1174.2 572.306 1172.87 571.295 1172.49 569.969C1172.49 569.843 1172.43 569.653 1172.49 569.464C1172.49 569.274 1172.68 569.021 1173.25 568.958C1174.26 568.832 1175.33 569.085 1176.28 569.653C1176.79 569.969 1177.29 570.348 1177.73 570.853C1178.05 571.169 1178.24 571.422 1178.36 571.674C1178.36 571.674 1178.36 571.674 1178.43 571.737C1179.06 572.874 1179.44 574.074 1179.56 575.274C1179.69 575.148 1179.88 575.022 1180.01 574.895C1180.26 574.706 1180.51 574.453 1180.76 574.264C1180.26 573.19 1180.7 571.674 1180.89 571.043L1180.83 570.979ZM1178.93 567.506C1178.93 567.506 1177.61 570.601 1178.24 571.485C1178.43 571.737 1178.68 571.864 1179 571.801C1179.63 571.737 1180.01 570.79 1180.39 569.906V569.779C1180.39 569.779 1180.58 569.4 1180.64 569.211C1180.83 568.643 1181.02 568.011 1181.14 567.506C1181.4 566.685 1181.02 566.432 1180.83 566.306C1180.64 566.243 1180.39 566.243 1180.13 566.306C1179.69 566.495 1179.25 566.874 1178.93 567.442V567.506Z" fill="#D1636E"/>
<path fill-rule="evenodd" clip-rule="evenodd" d="M1163.77 524.685C1164.66 525.001 1165.04 526.138 1164.66 526.959C1164.22 527.906 1163.14 527.97 1162.19 527.97C1162.01 527.906 1161.82 527.78 1161.63 527.654C1161.12 527.149 1161.12 526.391 1161.37 525.759C1161.75 524.812 1162.76 524.306 1163.71 524.685H1163.77ZM1163.39 538.77C1164.28 539.086 1164.66 540.223 1164.28 541.044C1163.84 541.991 1162.76 542.054 1161.82 542.054C1161.63 541.991 1161.44 541.865 1161.25 541.738C1160.74 541.233 1160.74 540.475 1160.99 539.844C1161.37 538.896 1162.38 538.391 1163.39 538.77ZM1151.08 567.823C1150.64 568.771 1149.56 568.834 1148.62 568.834C1148.43 568.771 1148.24 568.644 1148.05 568.518C1147.54 568.013 1147.54 567.255 1147.79 566.623C1148.17 565.676 1149.18 565.171 1150.13 565.549C1151.02 565.865 1151.39 567.002 1151.02 567.823H1151.08ZM1161.06 553.17C1160.62 554.118 1159.54 554.181 1158.59 554.181C1158.41 554.118 1158.22 553.991 1158.03 553.865C1157.52 553.36 1157.52 552.602 1157.77 551.97C1158.15 551.023 1159.16 550.518 1160.11 550.896C1161 551.212 1161.37 552.349 1160.99 553.17H1161.06ZM1156.38 564.602C1157.27 564.918 1157.65 566.055 1157.27 566.876C1156.83 567.823 1155.75 567.886 1154.81 567.886C1154.62 567.823 1154.43 567.697 1154.24 567.57C1153.73 567.065 1153.73 566.307 1153.98 565.676C1154.24 564.981 1154.87 564.539 1155.56 564.476C1155.63 564.476 1155.69 564.476 1155.82 564.476C1156.01 564.476 1156.19 564.476 1156.38 564.602ZM1149.44 558.981C1148.99 559.928 1147.92 559.991 1146.97 559.991C1146.78 559.928 1146.59 559.802 1146.41 559.676C1145.9 559.17 1145.9 558.412 1146.15 557.781C1146.53 556.833 1147.54 556.328 1148.49 556.707C1149.37 557.023 1149.75 558.16 1149.37 558.981H1149.44ZM1149.69 544.202C1149.25 545.149 1148.17 545.212 1147.23 545.212C1147.04 545.149 1146.85 545.023 1146.66 544.896C1146.15 544.391 1146.15 543.633 1146.41 543.002C1146.78 542.054 1147.79 541.549 1148.74 541.928C1149.63 542.244 1150.01 543.381 1149.63 544.202H1149.69ZM1149.82 530.749C1149.37 531.696 1148.3 531.759 1147.35 531.759C1147.16 531.696 1146.97 531.57 1146.78 531.443C1146.28 530.938 1146.28 530.18 1146.53 529.549C1146.91 528.601 1147.92 528.096 1148.87 528.475C1149.75 528.791 1150.13 529.928 1149.75 530.749H1149.82ZM1152.53 505.232C1153.04 507.001 1153.61 508.769 1153.98 510.538C1154.17 512.369 1154.36 514.201 1154.49 515.969C1151.84 519.254 1149.56 523.233 1148.74 527.401C1147.23 527.149 1145.77 528.159 1145.71 529.738C1145.71 530.685 1146.09 531.57 1146.78 532.075C1146.85 532.075 1146.91 532.138 1146.97 532.201C1147.04 532.201 1147.1 532.264 1147.23 532.328C1148.49 532.833 1150.07 532.328 1150.64 531.001C1151.21 529.675 1150.64 528.222 1149.37 527.591C1150.83 523.991 1152.34 520.643 1154.62 517.548C1154.93 522.096 1155.06 526.643 1154.93 531.191C1152.15 533.843 1149.82 537.128 1148.81 540.854C1148.81 540.854 1148.81 540.854 1148.74 540.854C1147.23 540.538 1145.65 541.549 1145.58 543.191C1145.58 544.138 1145.96 545.023 1146.66 545.528C1146.72 545.528 1146.78 545.591 1146.85 545.654C1146.91 545.654 1146.97 545.717 1147.1 545.781C1148.36 546.286 1149.94 545.781 1150.51 544.454C1151.02 543.191 1150.51 541.801 1149.44 541.17C1150.89 538.012 1152.53 535.233 1154.87 532.77C1154.87 534.222 1154.74 535.675 1154.62 537.065C1154.43 539.717 1154.11 542.37 1153.73 544.959C1151.02 547.928 1148.93 551.654 1148.49 555.697C1148.49 555.697 1148.43 555.697 1148.36 555.697C1146.85 555.381 1145.27 556.391 1145.21 558.034C1145.21 558.981 1145.58 559.865 1146.28 560.37C1146.34 560.37 1146.41 560.433 1146.47 560.497C1146.53 560.497 1146.59 560.56 1146.72 560.623C1147.98 561.128 1149.56 560.623 1150.13 559.297C1150.7 558.033 1150.13 556.518 1148.93 555.949C1149.88 552.539 1151.21 549.444 1153.42 546.728C1152.47 552.728 1151.21 558.602 1149.88 564.602C1148.36 564.349 1146.91 565.36 1146.85 566.939C1146.85 567.886 1147.23 568.771 1147.92 569.276C1147.98 569.276 1148.05 569.339 1148.11 569.402C1148.17 569.402 1148.24 569.465 1148.36 569.528C1149.63 570.034 1151.21 569.528 1151.77 568.202C1152.34 566.876 1151.77 565.36 1150.45 564.791C1151.39 562.202 1152.15 559.486 1152.78 556.77C1153.67 559.044 1154.43 561.255 1155.06 563.655C1153.92 563.844 1153.04 564.728 1152.97 565.991C1152.97 566.939 1153.35 567.823 1154.05 568.329C1154.11 568.329 1154.17 568.392 1154.24 568.455C1154.3 568.455 1154.36 568.518 1154.49 568.581C1155.75 569.086 1157.33 568.581 1157.9 567.255C1158.53 565.802 1157.65 564.034 1156.07 563.655C1155.88 563.655 1155.75 563.655 1155.56 563.655C1155.18 560.812 1154.36 557.844 1153.1 555.318C1154.17 550.517 1154.81 545.654 1155.25 540.854C1157.14 543.696 1158.41 546.602 1159.23 549.949C1157.9 549.949 1156.76 550.96 1156.7 552.349C1156.7 553.297 1157.08 554.181 1157.77 554.686C1157.77 554.686 1157.9 554.749 1157.96 554.812C1158.03 554.812 1158.09 554.875 1158.22 554.939C1159.48 555.444 1161.06 554.939 1161.63 553.612C1162.26 552.16 1161.37 550.391 1159.79 550.012C1159.79 550.012 1159.67 550.012 1159.61 550.012C1159.35 546.223 1157.77 542.181 1155.31 539.275C1155.31 538.58 1155.44 537.823 1155.5 537.128C1155.75 533.843 1155.88 530.496 1155.88 527.148C1158.59 530.37 1160.24 534.033 1161.75 537.949C1160.74 538.201 1159.92 539.086 1159.86 540.223C1159.86 541.17 1160.24 542.054 1160.93 542.559C1161 542.559 1161.06 542.622 1161.12 542.686C1161.18 542.686 1161.25 542.749 1161.37 542.812C1162.64 543.317 1164.22 542.812 1164.78 541.486C1165.42 540.033 1164.59 538.265 1162.95 537.886C1162.76 537.886 1162.51 537.886 1162.32 537.886C1161.5 533.275 1158.85 528.98 1155.75 525.57C1155.75 522.348 1155.56 519.191 1155.25 516.033C1155.25 515.654 1155.25 515.338 1155.25 514.959C1158.53 517.233 1160.55 520.138 1161.88 523.928C1160.93 524.243 1160.17 525.064 1160.17 526.201C1160.17 527.149 1160.55 528.033 1161.25 528.538C1161.31 528.538 1161.37 528.601 1161.44 528.664C1161.5 528.664 1161.56 528.728 1161.69 528.791C1162.95 529.296 1164.53 528.791 1165.1 527.464C1165.73 525.949 1164.85 524.243 1163.27 523.864C1163.02 523.864 1162.83 523.801 1162.57 523.864C1161.82 519.759 1158.85 515.717 1155.12 513.759C1154.93 510.727 1154.24 507.632 1153.16 505.106C1152.85 504.348 1151.71 504.727 1151.96 505.548L1152.53 505.232Z" fill="#D1636E"/>
<path fill-rule="evenodd" clip-rule="evenodd" d="M1122.41 550.391C1123.35 549.885 1124.36 549.38 1124.99 548.496C1125.63 547.612 1125.63 546.285 1125.12 545.212C1125.88 544.454 1126.64 543.696 1127.39 542.938C1126.76 547.233 1126.32 551.591 1126.13 555.949C1125.31 556.77 1124.55 557.717 1123.79 558.601C1123.73 558.475 1123.61 558.412 1123.54 558.286C1122.47 557.338 1120.64 558.033 1119.82 558.98C1118.87 560.054 1118.49 561.507 1118.11 562.833C1117.54 565.17 1116.91 567.444 1116.34 569.781C1117.29 567.444 1119.18 565.486 1121.46 564.223C1122.41 563.717 1123.42 563.212 1124.05 562.328C1124.62 561.507 1124.68 560.244 1124.24 559.233C1124.87 558.602 1125.5 557.907 1126.07 557.275C1125.88 562.012 1125.94 566.812 1126.19 571.549C1125.31 573.254 1124.43 574.897 1123.48 576.602C1122.28 575.97 1120.7 576.981 1120.07 578.054C1119.31 579.254 1119.18 580.77 1119.12 582.16C1118.93 584.56 1118.81 586.96 1118.62 589.297C1119.18 586.77 1120.7 584.56 1122.66 582.918C1123.48 582.223 1124.43 581.591 1124.87 580.644C1125.37 579.57 1125.06 578.118 1124.24 577.17C1124.99 575.844 1125.69 574.455 1126.32 573.065C1126.38 574.139 1126.51 575.212 1126.57 576.286C1126.83 579.002 1127.14 581.718 1127.58 584.434C1126.13 584.623 1125.5 586.455 1125.63 587.718C1125.75 589.17 1126.57 590.434 1127.39 591.634C1128.72 593.655 1130.05 595.676 1131.44 597.697C1130.3 595.36 1130.17 592.644 1130.74 590.118C1130.99 589.044 1131.31 587.97 1131.12 586.897C1130.87 585.697 1129.61 584.686 1128.34 584.497C1128.03 582.223 1127.77 579.949 1127.58 577.676C1127.9 578.054 1128.22 578.433 1128.53 578.812C1128.03 579.949 1128.22 581.465 1129.04 582.349C1129.79 583.171 1130.87 583.486 1131.88 583.865C1134.28 584.813 1136.43 586.518 1137.75 588.728C1136.81 586.455 1135.92 584.244 1134.97 581.97C1134.41 580.644 1133.84 579.255 1132.76 578.307C1131.82 577.486 1129.98 577.044 1129.04 577.991C1128.53 577.423 1127.96 576.918 1127.46 576.349C1127.08 572.181 1126.95 568.012 1126.89 563.844C1127.21 564.475 1127.58 565.17 1128.03 565.802C1127.46 566.938 1127.52 568.517 1128.34 569.465C1129.04 570.286 1130.17 570.602 1131.18 571.044C1133.58 572.054 1135.67 573.76 1136.93 576.034C1136.05 573.76 1135.23 571.486 1134.34 569.212C1133.84 567.886 1133.27 566.433 1132.19 565.486C1131.31 564.728 1129.67 564.16 1128.59 564.981C1127.96 563.97 1127.39 562.959 1126.83 561.886C1126.83 559.865 1126.89 557.78 1127.02 555.759C1127.02 555.633 1127.02 555.57 1127.02 555.444C1127.14 553.107 1127.33 550.77 1127.58 548.433C1127.96 549.064 1128.41 549.759 1128.78 550.391C1127.9 551.464 1127.77 553.233 1128.59 554.307C1129.23 555.191 1130.3 555.633 1131.25 556.138C1133.52 557.401 1135.48 559.296 1136.49 561.696L1134.59 554.686C1134.22 553.296 1133.77 551.843 1132.83 550.77C1132.07 549.949 1130.55 549.317 1129.48 549.822C1128.91 548.938 1128.28 548.054 1127.71 547.233C1127.9 545.591 1128.15 543.948 1128.41 542.306C1128.66 540.538 1129.04 538.706 1129.35 536.938C1129.73 537.633 1130.11 538.391 1130.55 539.085C1129.48 540.096 1129.29 542.117 1130.11 543.254C1130.74 544.138 1131.82 544.58 1132.76 545.085C1135.04 546.348 1137 548.243 1138.01 550.643C1137.37 548.306 1136.74 545.97 1136.11 543.633C1135.73 542.243 1135.29 540.791 1134.34 539.717C1133.65 538.959 1132.32 538.39 1131.31 538.643C1130.74 537.696 1130.24 536.685 1129.67 535.738C1130.17 533.338 1130.74 531.001 1131.31 528.664C1131.44 528.096 1130.62 527.78 1130.49 528.348C1129.29 532.706 1128.34 537.064 1127.58 541.548C1126.57 542.496 1125.56 543.443 1124.55 544.391C1124.55 544.391 1124.49 544.327 1124.43 544.264C1123.35 543.317 1121.52 544.012 1120.7 544.959C1119.75 546.033 1119.37 547.485 1118.99 548.812C1118.43 551.149 1117.79 553.422 1117.23 555.759C1118.17 553.422 1120.07 551.464 1122.34 550.201L1122.41 550.391Z" fill="#D1636E"/>
<path fill-rule="evenodd" clip-rule="evenodd" d="M1197.25 560.433C1199.27 559.801 1199.33 557.338 1199.33 557.275V557.148C1199.33 557.085 1197.82 555.127 1195.8 555.759C1195.23 555.948 1194.72 556.201 1194.28 556.58C1194.47 556.012 1194.6 555.443 1194.6 554.875C1194.6 552.727 1192.32 551.969 1192.2 551.906H1192.07C1191.94 551.906 1189.67 552.727 1189.67 554.875C1189.67 555.443 1189.8 556.075 1189.99 556.58C1189.54 556.201 1188.97 555.948 1188.41 555.759C1186.38 555.127 1184.93 557.022 1184.87 557.148V557.275C1184.87 557.401 1184.87 559.801 1186.95 560.433C1187.52 560.622 1188.09 560.685 1188.72 560.685C1188.22 561.001 1187.77 561.443 1187.46 561.885C1186.2 563.591 1187.59 565.612 1187.65 565.675C1187.65 565.675 1187.71 565.738 1187.77 565.738C1188.15 565.864 1188.6 565.928 1188.97 565.928C1190.74 565.928 1191.69 564.854 1192.2 563.212C1192.7 564.917 1193.65 565.928 1195.42 565.928C1195.8 565.928 1196.24 565.928 1196.62 565.738C1196.62 565.738 1196.74 565.738 1196.74 565.675C1196.74 565.612 1198.2 563.591 1196.93 561.885C1196.55 561.443 1196.17 561.001 1195.67 560.685C1196.24 560.685 1196.87 560.685 1197.44 560.433H1197.25Z" fill="#D1636E"/>
<path fill-rule="evenodd" clip-rule="evenodd" d="M1178.93 492.727C1179 495.19 1179.31 497.716 1179.69 500.306C1179.69 500.243 1179.82 500.179 1179.94 500.116C1181.27 499.737 1182.72 499.99 1183.8 500.811C1184.43 501.316 1185.63 502.643 1185.25 503.59C1184.81 504.664 1182.91 504.095 1182.15 503.906C1181.4 503.716 1180.7 503.401 1180.13 502.959C1180.58 505.359 1181.08 507.822 1181.59 510.285C1181.59 510.285 1181.65 510.159 1181.78 510.159C1182.85 509.527 1184.11 509.338 1185.31 509.717C1186.2 509.969 1187.96 510.98 1187.84 512.117C1187.71 513.253 1185.75 513.254 1185 513.254C1183.92 513.254 1182.98 513.064 1182.15 512.559C1182.66 515.085 1183.23 517.548 1183.73 520.075C1183.73 520.075 1183.8 520.075 1183.86 520.075C1185.25 519.759 1186.58 520.391 1187.59 521.275C1188.22 521.843 1189.35 522.727 1188.47 523.548C1187.71 524.306 1186.2 524.18 1185.25 523.928C1184.87 523.801 1184.55 523.675 1184.24 523.485C1184.68 526.012 1185 528.538 1185.19 531.001C1187.52 531.696 1188.98 533.843 1189.04 536.243C1189.04 536.433 1188.91 536.559 1188.79 536.622C1187.27 537.191 1186.13 536.307 1185.38 535.043C1185.38 537.38 1185.25 539.654 1184.93 541.865C1184.93 541.865 1185 541.865 1185.06 541.865C1187.27 542.938 1188.22 544.959 1188.22 547.296C1188.22 547.486 1188.09 547.675 1187.9 547.739C1186.77 548.117 1185.82 547.675 1185.06 546.791C1184.74 546.412 1184.43 545.97 1184.18 545.528C1183.61 547.738 1182.79 549.886 1181.65 551.97C1183.16 553.675 1183.23 555.949 1182.47 557.97C1182.41 558.223 1182.15 558.349 1181.9 558.286C1180.7 558.223 1179.94 557.276 1179.63 556.202C1179.56 555.949 1179.5 555.697 1179.44 555.444C1179.19 555.823 1178.93 556.139 1178.68 556.518C1179.12 558.033 1179.25 559.739 1178.87 561.255C1178.62 562.202 1177.86 563.907 1176.66 562.96C1175.84 562.328 1175.65 560.939 1175.71 559.928C1175.78 558.349 1176.6 557.023 1177.86 556.076C1178.3 555.444 1178.81 554.876 1179.19 554.244C1178.49 554.497 1177.73 554.686 1176.98 554.686C1176.28 554.686 1174.64 554.812 1174.51 553.865C1174.32 552.665 1176.09 551.465 1176.98 551.149C1178.24 550.707 1179.63 550.896 1180.83 551.465C1181.84 549.57 1182.6 547.549 1183.16 545.528C1182.6 545.97 1181.96 546.286 1181.27 546.538C1180.58 546.791 1179.44 547.17 1179.25 546.16C1179.06 545.023 1179.82 543.696 1180.58 543.002C1181.52 542.18 1182.72 541.802 1183.99 541.865C1184.3 539.78 1184.49 537.696 1184.49 535.612C1183.86 536.875 1182.85 537.949 1181.59 538.265C1181.4 538.265 1181.27 538.265 1181.14 538.075C1180.32 537.128 1180.39 535.486 1180.76 534.412C1181.33 532.959 1182.6 531.949 1184.05 531.443C1184.18 531.443 1184.24 531.443 1184.36 531.443C1184.18 528.791 1183.8 526.075 1183.35 523.359C1183.1 524.748 1182.09 525.948 1180.64 526.517C1180.39 526.58 1180.07 526.517 1180.01 526.264C1179.63 525.191 1179.38 524.054 1180.01 522.98C1180.64 521.906 1181.78 521.401 1182.85 520.896C1182.41 518.559 1181.9 516.222 1181.4 513.885C1180.95 515.085 1180.07 516.096 1178.81 516.664C1178.62 516.727 1178.36 516.664 1178.24 516.538C1177.67 515.78 1177.73 514.454 1177.99 513.633C1178.3 512.306 1179.44 511.611 1180.64 511.043C1180.64 511.043 1180.7 511.043 1180.76 511.043C1180.2 508.264 1179.56 505.548 1179.12 502.832C1178.49 504.348 1177.1 505.359 1175.46 505.674C1175.27 505.674 1175.02 505.611 1174.95 505.422C1174.58 504.474 1175.02 503.085 1175.59 502.327C1176.28 501.316 1177.48 501.001 1178.68 500.748C1178.68 500.748 1178.74 500.748 1178.81 500.748C1178.36 498.095 1178.11 495.443 1177.99 492.853C1177.99 492.221 1178.93 492.095 1178.93 492.727Z" fill="#D1636E"/>
<path fill-rule="evenodd" clip-rule="evenodd" d="M1146.72 584.561C1148.93 584.308 1151.96 585.698 1154.05 586.456C1154.24 586.645 1154.55 586.519 1154.62 586.329C1154.62 586.329 1154.62 586.329 1154.62 586.203C1154.62 583.424 1154.43 580.708 1154.24 577.929C1154.87 577.929 1155.56 577.487 1155.82 576.919C1156.19 576.098 1155.82 575.087 1155.12 574.582C1154.87 574.392 1154.68 574.329 1154.17 574.329C1153.42 574.329 1152.66 574.771 1152.41 575.592C1152.15 576.477 1152.59 577.487 1153.48 577.803C1153.48 577.803 1153.54 577.803 1153.61 577.803C1153.73 579.382 1153.86 580.961 1153.92 582.54C1153.92 583.235 1154.11 583.993 1153.98 584.687C1153.98 584.814 1153.98 584.94 1153.98 585.066C1152.78 583.235 1151.46 581.529 1149.94 579.887C1150.07 579.761 1150.13 579.635 1150.19 579.508C1150.51 578.813 1150.32 577.992 1149.82 577.424C1149.37 576.982 1148.81 576.856 1148.24 576.982C1147.61 577.108 1147.04 577.55 1146.85 578.245C1146.59 579.129 1147.04 580.14 1147.92 580.456C1148.43 580.645 1149.06 580.582 1149.5 580.266C1151.02 581.908 1152.41 583.677 1153.61 585.508C1153.42 585.508 1153.16 585.382 1152.78 585.256C1150.95 584.687 1148.62 583.614 1146.59 583.866C1146.53 583.74 1146.47 583.55 1146.34 583.424C1146.22 583.235 1146.09 583.108 1145.9 582.982C1145.9 582.982 1145.71 582.856 1145.52 582.856C1145.39 582.856 1145.21 582.856 1145.14 582.856C1144.89 582.856 1144.7 582.856 1144.45 582.919C1143.88 583.045 1143.37 583.487 1143.18 584.119C1142.93 585.003 1143.37 586.014 1144.26 586.329C1145.14 586.645 1146.15 586.203 1146.53 585.382C1146.66 585.129 1146.72 584.814 1146.66 584.498L1146.72 584.561Z" fill="#D1636E"/>
<path fill-rule="evenodd" clip-rule="evenodd" d="M1137.44 612.919C1138.26 612.919 1138.89 612.287 1138.89 611.466C1138.89 610.645 1138.26 610.014 1137.44 610.014C1136.62 610.014 1135.98 610.645 1135.98 611.466C1135.98 612.287 1136.62 612.919 1137.44 612.919Z" fill="#D1636E"/>
<path fill-rule="evenodd" clip-rule="evenodd" d="M1141.67 538.454C1142.49 538.454 1143.12 537.822 1143.12 537.001C1143.12 536.18 1142.49 535.548 1141.67 535.548C1140.85 535.548 1140.22 536.18 1140.22 537.001C1140.22 537.822 1140.85 538.454 1141.67 538.454Z" fill="#D1636E"/>
<path fill-rule="evenodd" clip-rule="evenodd" d="M1141.98 609.7C1142.81 609.7 1143.44 609.068 1143.44 608.247C1143.44 607.426 1142.81 606.794 1141.98 606.794C1141.16 606.794 1140.53 607.426 1140.53 608.247C1140.53 609.068 1141.16 609.7 1141.98 609.7Z" fill="#D1636E"/>
<path fill-rule="evenodd" clip-rule="evenodd" d="M1167.94 559.486C1168.76 559.486 1169.4 558.855 1169.4 558.034C1169.4 557.213 1168.76 556.581 1167.94 556.581C1167.12 556.581 1166.49 557.213 1166.49 558.034C1166.49 558.855 1167.12 559.486 1167.94 559.486Z" fill="#D1636E"/>
<path fill-rule="evenodd" clip-rule="evenodd" d="M1141.67 614.119C1142.49 614.119 1143.12 613.487 1143.12 612.666C1143.12 611.845 1142.49 611.213 1141.67 611.213C1140.85 611.213 1140.22 611.845 1140.22 612.666C1140.22 613.487 1140.85 614.119 1141.67 614.119Z" fill="#D1636E"/>
</g>
<path fill-rule="evenodd" clip-rule="evenodd" d="M930.092 818.267C930.44 818.267 930.539 814.842 932.128 812.857C934.858 809.531 943.793 813.105 939.375 818.516C938.085 820.055 936.347 821.246 936.446 821.345C937.352 821.087 938.285 820.937 939.226 820.898C946.673 820.898 945.283 833.309 936.546 830.082C935.106 829.586 935.404 829.586 936.099 830.827C936.794 832.068 936.943 832.167 937.389 832.961C937.825 833.705 937.96 834.587 937.766 835.427C937.573 836.267 937.065 837.001 936.347 837.478C934.163 838.918 930.291 838.67 929.397 835.94C929.018 834.799 928.784 833.615 928.702 832.415C928.156 827.749 929.894 838.67 922.398 838.471C919.27 838.471 916.838 835.791 920.462 831.621C920.974 830.995 921.538 830.413 922.15 829.883C922.944 829.238 922.993 829.089 922.15 829.387C920.741 829.808 919.24 829.808 917.831 829.387C915.994 828.692 914.952 823.877 916.143 821.544C917.93 818.168 921.107 819.409 923.142 820.055C925.178 820.7 925.823 820.551 923.639 819.26C922.89 818.82 922.176 818.322 921.504 817.771C916.143 813.204 926.468 806.453 929.199 814.296C929.844 816.183 930.092 818.119 930.291 818.069L930.092 818.267ZM928.007 821.296C927.064 822.04 928.454 822.983 929.248 822.586C930.043 822.189 929.248 820.204 928.007 821.296ZM932.376 822.785C931.532 821.246 930.638 820.601 930.092 822.785C929.745 824.175 929.645 826.21 931.532 825.565C931.786 825.463 932.015 825.306 932.201 825.105C932.387 824.903 932.525 824.663 932.606 824.401C932.687 824.139 932.708 823.863 932.668 823.592C932.628 823.321 932.529 823.062 932.376 822.834V822.785ZM927.064 823.43C925.178 824.324 925.724 826.111 927.064 826.111C930.39 826.111 929.199 822.388 927.064 823.43ZM928.653 826.558C926.171 827.799 928.653 828.841 930.886 827.898C933.12 826.955 931.284 825.366 928.653 826.558Z" fill="#A7CD7A"/>
</g>
<defs>
<clipPath id="clip0_182_6813">
<rect width="1440" height="916" fill="white"/>
</clipPath>
</defs>
</svg>
