<svg viewBox="0 0 375 998" fill="none" xmlns="http://www.w3.org/2000/svg">
<g clip-path="url(#clip0_182_14255)">
<path fill-rule="evenodd" clip-rule="evenodd" d="M80.6837 1182.81C103.216 1169.81 136.949 1170.97 163.283 1160.7C189.616 1150.44 208.506 1128.72 241.522 1126.76C274.539 1124.8 321.963 1142.54 359.15 1137.38C396.338 1132.21 423.522 1104.06 438.643 1080.09C453.763 1056.13 457.363 1036.44 472.753 1025.62C488.144 1014.81 515.417 1013.47 513.049 989.939C510.68 966.412 478.627 920.952 423.535 897.303C368.442 873.653 290.461 871.996 235.271 869.06C180.082 866.125 148.436 861.758 114.97 873.997C81.5045 886.236 46.965 914.886 23.0468 943.852C-0.87141 972.817 -14.0945 1002.05 -31.5638 1042.9C-49.033 1083.75 -71.2274 1136.3 -60.9339 1172.84C-50.6403 1209.38 -7.67128 1229.79 19.4597 1226.43C46.5908 1223.07 58.1172 1195.85 80.6837 1182.81Z" fill="#397621"/>
<path fill-rule="evenodd" clip-rule="evenodd" d="M254.64 1018.96C251.163 1015.38 246.936 1010.35 243.406 1006.28L237.147 999.089L239.554 1000.45C241.025 1001.31 243.085 1002.54 245.358 1004.04C250.216 1007.14 254.75 1010.73 258.893 1014.74C260.277 1016.12 261.572 1017.6 262.771 1019.15C263.119 1015.43 263.413 1011.71 263.627 1008C263.202 1008.05 262.772 1007.96 262.397 1007.76C259.902 1006.17 257.657 1004.22 255.736 1001.98C252.286 998.394 248.06 993.365 244.529 989.3L238.243 982.105L240.651 983.469C242.149 984.325 244.208 985.555 246.482 987.053C251.335 990.164 255.869 993.747 260.016 997.752C261.395 999.162 262.698 1000.64 263.921 1002.19C264.135 997.324 264.215 992.456 264.215 987.561C263.039 987.748 260.738 986.892 255.282 983.255C247.974 977.93 241.039 972.113 234.525 965.842C242.829 969.434 250.873 973.598 258.598 978.306C260.552 979.553 262.42 980.929 264.189 982.426C264.189 982.078 264.189 981.73 264.189 981.382C264.08 981.157 264.023 980.91 264.023 980.66C264.023 980.41 264.08 980.163 264.189 979.938L264.028 975.311C264.028 973.866 264.028 972.422 263.787 970.951C263.536 971.193 263.216 971.352 262.871 971.405C262.526 971.457 262.174 971.402 261.862 971.245C259.465 969.968 257.289 968.316 255.415 966.35C252.018 963.248 247.899 958.808 244.422 955.25L238.297 948.911L240.624 949.981C242.042 950.676 244.048 951.666 246.241 952.896C250.947 955.416 255.361 958.448 259.401 961.937C260.879 963.221 262.248 964.625 263.493 966.136C263.226 962.463 262.905 958.799 262.53 955.143C261.407 955.411 259.374 954.528 254.506 950.436C248.168 944.803 242.25 938.715 236.799 932.221C244.256 936.227 251.408 940.778 258.197 945.835C259.775 947.119 261.006 948.189 261.915 949.072C261.915 948.911 261.915 948.751 261.915 948.59C261.711 948.383 261.567 948.124 261.496 947.842C261.426 947.56 261.432 947.264 261.514 946.985C261.536 946.802 261.581 946.622 261.648 946.45C261.327 944.123 261.006 941.796 260.658 939.469C259.588 939.79 257.823 939.041 253.383 934.895C248.088 929.416 243.24 923.522 238.885 917.269C245.419 921.225 251.627 925.697 257.448 930.643C258.251 931.392 258.919 932.06 259.508 932.649C258.919 929.412 258.277 926.176 257.609 922.966C256.539 923.581 254.934 923.1 249.718 917.804C244.298 911.703 239.345 905.203 234.9 898.359C241.632 902.962 248.007 908.068 253.971 913.631C254.774 914.46 255.442 915.183 256.031 915.851C255.629 914.033 255.228 912.214 254.8 910.502C253.65 910.368 252.313 908.79 249.852 902.21C247.245 894.128 245.225 885.868 243.807 877.496C248.218 884.752 252.107 892.314 255.442 900.124C255.843 901.194 256.164 902.13 256.432 902.986C258.829 896.529 261.726 890.269 265.098 884.263C264.627 891.428 263.553 898.542 261.888 905.527C259.829 912.454 258.598 912.963 257.234 912.668C258.197 916.333 259.08 920.024 259.909 923.742C260.31 922.859 260.845 921.816 261.541 920.612C263.998 916.577 266.995 912.897 270.448 909.673C272.026 908.121 273.524 906.837 274.594 905.928L276.359 904.537L275.316 906.517L272.828 911.411C270.876 915.316 268.656 920.104 266.703 923.581C265.689 925.733 264.304 927.689 262.611 929.359C262.4 929.529 262.152 929.647 261.887 929.703C261.622 929.759 261.347 929.751 261.086 929.68C261.487 931.793 261.862 933.933 262.183 936.072C262.369 936.337 262.495 936.64 262.55 936.959C262.606 937.278 262.59 937.606 262.504 937.918L263.306 943.562C263.788 942.759 264.376 941.85 265.125 940.887C267.452 937.436 270.849 933.103 273.47 929.439L276.814 924.758L278.124 922.832C278.124 922.832 277.964 923.688 277.643 925.133C277.322 926.577 276.84 928.53 276.145 930.75C274.725 935.458 272.683 939.955 270.073 944.123C268.698 946.377 266.81 948.274 264.563 949.66C264.33 949.805 264.062 949.888 263.787 949.901L264.028 952.067C264.151 952.28 264.226 952.517 264.25 952.762C264.273 953.006 264.243 953.253 264.162 953.485C264.429 955.892 264.643 958.299 264.857 960.707L265.152 960.359C265.954 959.45 267.077 958.299 268.549 956.775C270.02 955.25 271.785 953.512 273.55 951.666C275.316 949.821 277.028 947.895 278.499 946.103C279.97 944.311 281.174 942.599 282.137 941.368L283.554 939.389C283.554 939.389 283.367 940.272 282.992 941.77C282.462 943.748 281.819 945.695 281.067 947.6C280.091 950.067 278.91 952.446 277.536 954.715C276.194 956.938 274.616 959.01 272.828 960.894C271.593 962.218 270.231 963.418 268.763 964.478C268.012 965.059 267.159 965.495 266.248 965.762C265.914 965.839 265.566 965.839 265.232 965.762C265.446 968.972 265.633 972.155 265.794 975.364V977.37C266.516 976.541 267.479 975.525 268.736 974.321C271.705 971.406 276.011 967.928 279.435 965.04L285.64 959.958C285.64 959.958 285.266 960.733 284.571 962.017C283.875 963.301 282.885 965.066 281.682 967.019C279.161 971.181 276.182 975.048 272.801 978.547C271.136 980.491 269.063 982.043 266.73 983.094C266.457 983.157 266.173 983.157 265.901 983.094C265.901 987.722 266.034 992.349 265.901 996.976C266.917 995.88 268.388 994.462 270.448 992.59C274.246 989.112 279.569 984.913 283.822 981.356L291.391 975.07L289.92 977.504C288.984 979.002 287.647 981.088 286.015 983.388C282.641 988.303 278.768 992.856 274.46 996.976C272.298 999.21 269.74 1001.02 266.917 1002.33C266.551 1002.47 266.155 1002.51 265.767 1002.46C265.767 1006.52 265.446 1010.62 265.152 1014.68C266.904 1013.09 268.744 1011.6 270.662 1010.22C274.781 1007.11 280.478 1003.42 285.079 1000.32L293.103 994.783L291.391 997.056C290.321 998.474 288.716 1000.4 286.951 1002.41C283.108 1006.96 278.815 1011.12 274.139 1014.82C271.785 1016.88 269.062 1018.47 266.115 1019.52C265.652 1019.71 265.133 1019.71 264.67 1019.52C263.764 1030.21 262.246 1040.84 260.123 1051.35C259.882 1052.58 258.01 1052.13 258.224 1050.9C259.704 1042.18 260.908 1033.46 261.835 1024.74C261.51 1024.72 261.191 1024.64 260.899 1024.5C258.562 1022.96 256.455 1021.09 254.64 1018.96Z" fill="#5EAD41"/>
<path fill-rule="evenodd" clip-rule="evenodd" d="M336.229 905.331C335.413 905.197 334.393 904.841 334.348 903.841C334.351 903.518 334.458 903.205 334.654 902.945C334.849 902.686 335.123 902.493 335.436 902.395C336.121 902.236 336.835 902.236 337.521 902.395C339.592 902.75 341.595 903.418 343.458 904.374C345.048 905.218 346.506 906.281 347.786 907.532C347.786 905.108 347.65 902.706 347.56 900.304C343.707 899.415 339.809 898.281 336.229 897.369C335.458 897.146 334.507 896.701 334.597 895.701C334.626 895.385 334.756 895.087 334.967 894.847C335.179 894.608 335.462 894.439 335.776 894.366C336.441 894.269 337.12 894.307 337.77 894.477C339.708 894.967 341.568 895.716 343.299 896.701C344.85 897.601 346.287 898.676 347.582 899.904C347.582 898.058 347.401 896.212 347.288 894.366C343.519 892.7 339.615 891.346 335.617 890.318C334.779 890.096 333.759 889.651 333.781 888.673C333.806 888.347 333.936 888.038 334.152 887.79C334.368 887.542 334.659 887.369 334.982 887.294C335.739 887.184 336.511 887.229 337.249 887.427C339.395 887.971 341.433 888.866 343.277 890.074C344.796 891.081 346.155 892.303 347.311 893.699C347.175 891.564 347.016 889.429 346.835 887.294C343.234 885.53 339.43 884.201 335.504 883.335C334.688 883.157 333.668 882.779 333.623 881.778C333.63 881.453 333.745 881.139 333.949 880.882C334.153 880.626 334.436 880.441 334.756 880.355C335.501 880.186 336.276 880.186 337.022 880.355C340.99 881.155 344.521 883.355 346.948 886.538C346.789 884.669 346.608 882.779 346.381 880.889C346.391 880.748 346.391 880.607 346.381 880.466C342.254 878.637 338.034 877.018 333.736 875.618C332.852 875.328 331.787 874.795 331.855 873.816C331.913 873.486 332.079 873.183 332.329 872.954C332.578 872.725 332.898 872.582 333.238 872.548C334.007 872.5 334.778 872.606 335.504 872.86C339.734 874.153 343.49 876.626 346.313 879.977C346.087 878.086 345.86 876.174 345.611 874.283C343.889 873.193 342.144 872.059 340.376 871.214C338.349 870.133 336.252 869.182 334.099 868.367C333.238 868.034 332.218 867.455 332.331 866.477C332.393 866.147 332.569 865.847 332.829 865.629C333.088 865.41 333.417 865.285 333.759 865.276C334.535 865.266 335.306 865.409 336.025 865.698C338.222 866.554 340.253 867.773 342.03 869.301C343.336 870.435 344.48 871.737 345.43 873.171C345.09 870.68 344.704 868.212 344.319 865.721C342.688 864.497 340.988 863.296 339.243 862.229C337.222 860.991 335.109 859.905 332.92 858.982C332.059 858.604 330.994 857.981 331.13 857.002C331.211 856.673 331.403 856.38 331.674 856.17C331.945 855.961 332.28 855.846 332.626 855.846C333.03 855.857 333.433 855.909 333.827 856.002C334.228 856.111 334.621 856.245 335.005 856.402C337.25 857.38 339.299 858.743 341.056 860.427C342.222 861.556 343.235 862.826 344.07 864.208C343.685 861.984 343.299 859.76 342.869 857.536C340.004 855.05 336.762 853.017 333.26 851.509C332.512 851.198 331.629 850.664 331.765 849.663C331.831 849.347 331.998 849.059 332.243 848.843C332.488 848.627 332.797 848.493 333.124 848.462C333.485 848.41 333.851 848.41 334.212 848.462C334.563 848.547 334.905 848.666 335.232 848.818C338.314 850.126 340.865 852.403 342.484 855.29C342.03 853.066 341.577 850.686 341.079 848.395C338.182 845.906 334.92 843.86 331.402 842.324C330.699 842.012 329.861 841.501 330.02 840.5C330.08 840.189 330.24 839.904 330.476 839.688C330.713 839.472 331.013 839.336 331.334 839.299C331.678 839.235 332.032 839.235 332.376 839.299C332.72 839.376 333.054 839.488 333.373 839.633C335.288 840.457 337.002 841.67 338.404 843.191C339.351 844.274 340.116 845.498 340.671 846.816C340.263 844.837 339.832 842.88 339.379 840.9C336.416 838.387 333.823 835.483 331.674 832.271C331.221 831.604 330.858 830.625 331.674 830.047C331.919 829.845 332.22 829.718 332.538 829.682C332.857 829.647 333.179 829.704 333.464 829.847C333.997 830.188 334.458 830.626 334.824 831.137C336.522 833.495 337.9 836.059 338.926 838.765L338.042 834.94C335.618 831.003 333.772 826.75 332.558 822.307C332.286 821.373 332.24 820.083 333.351 819.639C333.712 819.505 334.105 819.476 334.482 819.555C334.86 819.633 335.207 819.817 335.481 820.083C335.973 820.66 336.329 821.336 336.523 822.063C337.802 826.063 338.43 830.236 338.382 834.428L338.926 836.386C338.715 833.207 338.859 830.015 339.356 826.867C339.47 826.066 339.877 825.11 340.875 825.11C341.196 825.129 341.505 825.238 341.765 825.423C342.026 825.608 342.228 825.862 342.348 826.155C342.509 826.757 342.548 827.384 342.461 828.001C341.926 831.629 340.785 835.146 339.084 838.409C339.855 841.456 340.58 844.526 341.35 847.595C341.306 845.692 341.519 843.793 341.985 841.946C342.534 839.719 343.38 837.573 344.5 835.563C344.931 834.74 345.77 833.872 346.767 834.251C347.057 834.394 347.298 834.618 347.459 834.895C347.62 835.172 347.694 835.489 347.673 835.807C347.579 836.477 347.364 837.124 347.039 837.72L344.297 842.858C343.435 844.526 342.529 846.238 341.509 848.24C341.917 850.152 342.325 852.087 342.688 854C343.006 850.19 344.067 846.475 345.815 843.058C346.2 842.257 346.948 841.39 347.9 841.701C348.198 841.826 348.454 842.033 348.635 842.298C348.816 842.562 348.915 842.873 348.92 843.191C348.872 843.848 348.695 844.49 348.398 845.082C346.833 848.564 344.999 851.925 342.914 855.134C343.435 857.803 343.911 860.494 344.342 863.163C344.2 861.064 344.43 858.957 345.022 856.936C345.656 854.686 346.659 852.553 347.99 850.619C348.512 849.819 349.463 849.018 350.257 849.507C350.533 849.677 350.751 849.926 350.88 850.219C351.01 850.513 351.045 850.839 350.982 851.153C350.826 851.801 350.558 852.418 350.189 852.977C349.078 854.756 348.172 856.38 347.22 858.07C346.268 859.76 345.339 861.495 344.319 863.608C344.455 864.408 344.591 865.209 344.704 866.01C344.767 866.116 344.82 866.228 344.863 866.343C344.826 866.334 344.787 866.334 344.75 866.343L345.43 870.791C345.469 868.515 345.89 866.261 346.676 864.119C347.582 861.65 348.882 859.338 350.529 857.269C351.186 856.424 352.296 855.579 353.157 856.091C353.427 856.298 353.624 856.583 353.722 856.906C353.819 857.229 353.812 857.573 353.701 857.892C353.42 858.585 353.055 859.242 352.613 859.849C351.208 861.784 350.053 863.563 348.897 865.431C347.741 867.3 346.631 869.146 345.52 871.459L345.928 874.528L346.064 874.75H345.951L346.359 878.042C346.68 876.155 347.268 874.321 348.104 872.593C349.316 870.105 350.965 867.847 352.976 865.921C353.792 865.142 355.061 864.408 355.831 865.053C356.065 865.302 356.213 865.616 356.254 865.951C356.294 866.287 356.226 866.627 356.058 866.922C355.888 867.272 355.675 867.6 355.423 867.9C355.182 868.202 354.925 868.492 354.653 868.768C353.036 870.45 351.523 872.225 350.121 874.083C348.796 875.827 347.578 877.647 346.472 879.532C346.472 879.932 346.472 880.355 346.631 880.755C346.812 882.401 346.993 884.024 347.152 885.67C347.576 883.528 348.341 881.464 349.418 879.554C350.622 877.419 352.151 875.477 353.95 873.794C354.698 873.104 355.831 872.482 356.602 873.149C356.838 873.381 356.993 873.679 357.046 874.003C357.099 874.326 357.047 874.658 356.896 874.95C356.566 875.575 356.13 876.139 355.605 876.618C354.041 878.22 352.681 879.688 351.299 881.2C349.917 882.712 348.58 884.225 347.061 886.093C347.243 887.753 347.401 889.421 347.537 891.097C349.431 887.601 352.094 884.562 355.333 882.201C355.99 881.711 357.01 881.311 357.599 882.023C357.814 882.253 357.955 882.541 358.003 882.85C358.052 883.158 358.006 883.474 357.871 883.758C357.571 884.293 357.163 884.763 356.67 885.136C353.793 887.438 350.714 889.485 347.469 891.253C347.65 893.477 347.832 895.523 347.99 897.658C349.967 894.191 352.835 891.292 356.307 889.251C357.055 888.806 358.143 888.495 358.755 889.251C358.932 889.511 359.027 889.817 359.027 890.129C359.027 890.442 358.932 890.748 358.755 891.008C358.386 891.518 357.916 891.95 357.372 892.276C355.718 893.365 354.245 894.322 352.681 895.278L347.968 898.103C348.104 900.126 348.24 902.15 348.33 904.196C349.179 902.656 350.264 901.253 351.548 900.037C353.149 898.553 354.986 897.336 356.987 896.435C357.78 896.056 358.936 895.901 359.412 896.768C359.555 897.048 359.614 897.361 359.582 897.673C359.55 897.984 359.428 898.279 359.231 898.525C358.801 898.971 358.295 899.34 357.735 899.615C355.99 900.482 354.494 901.327 352.931 902.195C351.367 903.062 350.03 903.796 348.398 904.841C348.398 907.065 348.58 909.289 348.625 911.514C349.556 909.774 350.791 908.208 352.273 906.888C353.823 905.526 355.572 904.402 357.463 903.551C358.211 903.196 359.299 903.04 359.729 903.907C359.87 904.186 359.93 904.498 359.902 904.808C359.874 905.118 359.759 905.414 359.571 905.664C359.177 906.1 358.699 906.455 358.166 906.71L348.557 911.58C348.557 913.07 348.557 914.56 348.557 916.028C349.243 914.378 350.323 912.913 351.707 911.758C353.412 910.302 355.474 909.306 357.69 908.867C358.15 908.744 358.635 908.744 359.095 908.867C359.317 908.916 359.52 909.029 359.677 909.192C359.835 909.354 359.939 909.558 359.979 909.779C360.028 910.082 359.992 910.393 359.877 910.679C359.761 910.965 359.569 911.215 359.321 911.402C359.083 911.574 358.824 911.716 358.551 911.825L357.735 912.092C356.091 912.552 354.497 913.17 352.976 913.938C351.407 914.691 349.926 915.608 348.557 916.673C348.557 918.497 348.557 920.321 348.557 922.144C350.316 919.583 352.819 917.599 355.741 916.451C355.907 916.355 356.092 916.294 356.284 916.271C356.475 916.248 356.67 916.264 356.855 916.319C357.04 916.373 357.211 916.464 357.359 916.586C357.507 916.708 357.627 916.859 357.712 917.029C357.843 917.293 357.91 917.582 357.91 917.874C357.91 918.167 357.843 918.456 357.712 918.719C357.401 919.102 356.995 919.4 356.534 919.587C355.174 920.232 353.95 920.766 352.636 921.255C351.322 921.744 350.121 922.122 348.625 922.611C348.625 925.792 348.421 928.972 348.24 932.153C348.24 932.642 347.333 932.62 347.356 932.153C347.356 928.461 347.356 924.769 347.356 921.032C344.319 921.059 341.289 921.312 338.291 921.789C337.936 921.891 337.555 921.859 337.223 921.698C336.892 921.537 336.634 921.26 336.501 920.921C336.385 920.639 336.353 920.33 336.409 920.031C336.465 919.731 336.607 919.454 336.818 919.231C337.273 918.877 337.81 918.64 338.382 918.541C340.063 918.27 341.782 918.339 343.435 918.742C344.86 919.096 346.204 919.707 347.401 920.543C347.401 918.475 347.401 916.406 347.401 914.338C344.025 914.338 340.603 914.338 337.43 914.16C337.035 914.206 336.638 914.103 336.318 913.872C335.998 913.64 335.78 913.298 335.708 912.915C335.673 912.61 335.728 912.303 335.864 912.027C336 911.752 336.213 911.52 336.478 911.358C337.014 911.105 337.607 910.991 338.2 911.024C341.47 911.08 344.658 912.036 347.401 913.782C347.401 911.847 347.401 909.89 347.401 907.955C343.911 906.976 339.945 905.953 336.229 905.331Z" fill="#5EAD41"/>
<path fill-rule="evenodd" clip-rule="evenodd" d="M314.1 1036.83C314.293 1032.42 314.731 1028.03 315.411 1023.67C315.529 1023.81 315.688 1023.91 315.866 1023.96C317.01 1024.29 318.214 1024.35 319.384 1024.13C320.554 1023.91 321.657 1023.42 322.606 1022.7C323.729 1021.82 325.816 1019.52 325.147 1017.89C324.478 1016.26 321.055 1017.01 319.797 1017.33C318.505 1017.62 317.291 1018.18 316.24 1018.99C316.989 1014.79 317.872 1010.53 318.781 1006.26L319.048 1006.5C319.965 1007.04 320.986 1007.39 322.045 1007.52C323.105 1007.65 324.18 1007.56 325.201 1007.24C326.672 1006.79 329.748 1005.02 329.587 1003.1C329.427 1001.17 326.003 1001.12 324.612 1001.07C322.867 1000.95 321.129 1001.38 319.637 1002.3C320.573 997.964 321.483 993.63 322.312 989.271H322.552C323.73 989.478 324.941 989.393 326.078 989.025C327.216 988.657 328.246 988.015 329.079 987.158C330.176 986.195 332.128 984.67 330.63 983.172C329.811 982.654 328.885 982.327 327.922 982.216C326.959 982.104 325.983 982.212 325.067 982.53C324.47 982.692 323.901 982.944 323.382 983.279C324.104 978.919 324.692 974.56 325.04 970.253C326.966 969.642 328.651 968.439 329.856 966.817C331.061 965.194 331.725 963.234 331.754 961.213C331.744 961.067 331.694 960.927 331.609 960.809C331.524 960.691 331.407 960.599 331.272 960.544C330.129 960.139 328.872 960.19 327.766 960.689C326.66 961.187 325.789 962.094 325.334 963.219C325.378 959.254 325.11 955.292 324.532 951.37H324.746C326.476 950.512 327.919 949.171 328.902 947.51C329.885 945.848 330.364 943.937 330.283 942.008C330.269 941.843 330.209 941.685 330.109 941.553C330.01 941.421 329.875 941.319 329.721 941.259C328.831 940.971 327.872 940.977 326.986 941.276C326.1 941.574 325.333 942.15 324.799 942.917C324.195 943.599 323.666 944.343 323.221 945.138C322.206 941.262 320.762 937.512 318.915 933.957C320.1 932.523 320.861 930.787 321.111 928.944C321.362 927.1 321.092 925.224 320.332 923.526C320.245 923.345 320.108 923.194 319.937 923.09C319.767 922.986 319.569 922.933 319.369 922.937C318.39 923.035 317.469 923.451 316.749 924.123C316.029 924.795 315.549 925.684 315.384 926.655C315.384 927.056 315.143 927.484 315.036 927.939C314.608 927.333 314.154 926.717 313.672 926.093C314.455 923.416 314.575 920.589 314.02 917.855C313.619 916.197 312.228 913.308 310.115 914.94C309.46 915.653 308.974 916.503 308.691 917.429C308.409 918.355 308.338 919.332 308.483 920.289C308.554 921.614 308.923 922.905 309.562 924.067C310.201 925.23 311.094 926.233 312.174 927.003C313.003 928.046 313.779 929.116 314.501 930.186C313.278 929.722 311.985 929.469 310.676 929.437C309.473 929.437 306.638 929.223 306.397 930.854C306.156 932.486 309.072 935 310.65 935.562C311.745 935.922 312.901 936.058 314.05 935.961C315.199 935.865 316.317 935.538 317.337 935C319.054 938.266 320.408 941.71 321.376 945.271C320.387 944.513 319.274 943.934 318.086 943.559C316.855 943.131 314.903 942.409 314.555 944.201C314.511 945.211 314.698 946.218 315.102 947.144C315.505 948.071 316.114 948.894 316.882 949.551C318.533 950.933 320.642 951.648 322.793 951.557C323.348 955.15 323.634 958.78 323.649 962.416C323.163 961.348 322.468 960.388 321.604 959.593C320.74 958.798 319.726 958.185 318.621 957.789C318.477 957.768 318.33 957.784 318.195 957.836C318.059 957.887 317.939 957.972 317.845 958.083C317.209 959.004 316.819 960.072 316.712 961.186C316.604 962.3 316.782 963.423 317.23 964.449C317.743 965.67 318.517 966.764 319.496 967.655C320.475 968.547 321.637 969.214 322.9 969.611C323.067 969.651 323.241 969.651 323.408 969.611C323.087 974.212 322.445 978.893 321.67 983.573C321.419 982.338 320.857 981.186 320.038 980.227C319.219 979.267 318.17 978.532 316.989 978.09C316.891 978.046 316.785 978.023 316.677 978.02C316.57 978.018 316.463 978.038 316.363 978.078C316.264 978.118 316.173 978.177 316.097 978.253C316.02 978.329 315.96 978.419 315.919 978.518C315.497 979.413 315.278 980.391 315.278 981.38C315.278 982.37 315.497 983.347 315.919 984.242C317.144 985.946 318.89 987.204 320.894 987.826C320.145 991.865 319.289 995.85 318.407 999.943C317.606 997.821 316.001 996.101 313.94 995.155C313.772 995.089 313.587 995.079 313.413 995.127C313.24 995.176 313.086 995.279 312.977 995.423C312.561 996.19 312.305 997.033 312.222 997.901C312.139 998.77 312.232 999.646 312.495 1000.48C312.875 1001.52 313.479 1002.46 314.265 1003.23C315.052 1004.01 316 1004.6 317.042 1004.97H317.31C316.267 1009.73 315.277 1014.47 314.448 1019.15C313.871 1017.87 312.989 1016.75 311.879 1015.89C310.769 1015.03 309.465 1014.46 308.082 1014.23C307.902 1014.19 307.716 1014.22 307.556 1014.31C307.395 1014.4 307.27 1014.54 307.199 1014.71C306.983 1015.62 306.966 1016.58 307.151 1017.5C307.336 1018.42 307.717 1019.29 308.269 1020.06C308.94 1020.83 309.759 1021.47 310.677 1021.93C311.595 1022.39 312.595 1022.66 313.619 1022.73H313.833C313.092 1027.26 312.619 1031.82 312.415 1036.4C312.415 1037.44 314.02 1037.71 314.047 1036.64L314.1 1036.83Z" fill="#5EAD41"/>
<path fill-rule="evenodd" clip-rule="evenodd" d="M52.1441 933C59.6067 937.2 61.9605 945.304 63.7794 953.114V953.462V953.649C64.511 955.355 64.9972 957.156 65.2237 958.999C67.8985 951.75 70.5733 944.662 76.9393 939.821C77.0295 939.743 77.1403 939.693 77.2583 939.678C77.3763 939.662 77.4964 939.68 77.604 939.731C77.7116 939.782 77.8022 939.863 77.8646 939.965C77.927 940.066 77.9586 940.183 77.9557 940.302C77.9557 948.995 71.8037 955.04 65.7587 960.497C65.6599 960.597 65.5254 960.655 65.3843 960.657C65.5395 963.182 65.4678 965.715 65.1702 968.227C65.1702 968.628 65.1702 969.029 65.1702 969.43H65.4912C71.2359 961.956 78.7949 956.072 87.4512 952.339C87.5711 952.285 87.7049 952.271 87.8332 952.299C87.9615 952.327 88.0775 952.396 88.1641 952.494C88.2508 952.593 88.3036 952.717 88.3149 952.848C88.3262 952.978 88.2953 953.109 88.2268 953.221C83.5727 961.005 74.8529 970.099 65.1435 970.687C64.5764 975.081 63.6824 979.426 62.4687 983.687H62.8699C68.6106 976.219 76.159 970.337 84.8031 966.595C84.923 966.542 85.0569 966.528 85.1852 966.556C85.3135 966.584 85.4294 966.652 85.516 966.751C85.6027 966.849 85.6556 966.973 85.6669 967.104C85.6782 967.235 85.6473 967.366 85.5788 967.478C80.9515 975.234 72.2049 984.355 62.5222 984.944C62.3849 984.949 62.2507 984.901 62.1477 984.81C61.7733 986.04 61.3988 987.271 60.9709 988.501C60.7301 989.223 59.5532 988.849 59.8207 988.127C60.5429 986.014 61.1848 983.874 61.7733 981.707C55.3538 975.93 47.062 966.033 46.6875 956.939C46.6875 956.324 47.4097 956.244 47.7842 956.565C54.4711 962.636 61.3186 969.35 62.6292 978.498C63.2712 975.609 63.7793 972.693 64.1538 969.751C64.341 968.227 64.4748 966.675 64.555 965.151C57.7611 960.711 50.6997 955.682 49.3355 947.123C49.3222 947.007 49.3407 946.89 49.3891 946.783C49.4375 946.677 49.5139 946.586 49.6102 946.52C49.7065 946.454 49.819 946.415 49.9356 946.409C50.0521 946.402 50.1684 946.427 50.2717 946.481C57.0924 950.226 60.9708 956.645 64.662 963.252C64.7842 959.835 64.0776 956.439 62.6025 953.355C57.5204 947.604 52.679 941.613 51.5289 933.776C51.5037 933.683 51.5007 933.586 51.5201 933.491C51.5395 933.397 51.5808 933.308 51.6407 933.233C51.7005 933.157 51.7772 933.097 51.8647 933.057C51.9521 933.016 52.0478 932.997 52.1441 933Z" fill="#5EAD41"/>
<path fill-rule="evenodd" clip-rule="evenodd" d="M210.227 961.523C210.386 961.523 210.452 959.882 211.231 958.979C212.551 957.427 216.934 959.093 214.756 961.65C214.135 962.375 213.277 962.922 213.317 962.922C213.747 962.803 214.19 962.73 214.637 962.706C218.294 962.629 217.594 968.557 213.317 967.043C212.63 966.801 212.775 966.801 213.105 967.386C213.277 967.679 213.528 968.023 213.752 968.379C213.961 968.732 214.025 969.148 213.929 969.544C213.834 969.94 213.587 970.287 213.237 970.516C212.168 971.19 210.254 971.088 209.818 969.803C209.649 969.26 209.539 968.702 209.488 968.137C209.224 965.949 210.069 971.088 206.412 970.999C204.881 970.999 203.693 969.727 205.462 967.755C205.719 967.466 205.997 967.194 206.293 966.941C206.676 966.623 206.689 966.56 206.188 966.7C205.514 966.933 204.785 966.973 204.089 966.814C203.165 966.483 202.663 964.27 203.257 963.113C204.115 961.523 205.686 962.095 206.676 962.413C207.666 962.731 207.996 962.642 206.914 962.032C206.546 961.832 206.197 961.602 205.871 961.345C203.231 959.182 208.274 956.003 209.633 959.691C209.963 960.594 210.069 961.485 210.175 961.485L210.227 961.523ZM209.198 962.947C208.749 963.291 209.422 963.736 209.818 963.545C210.214 963.354 209.818 962.426 209.198 962.947ZM211.336 963.647C210.914 962.909 210.491 962.617 210.227 963.647C210.056 964.321 210.003 965.262 210.94 964.919C211.061 964.869 211.169 964.794 211.257 964.7C211.344 964.605 211.409 964.494 211.447 964.372C211.485 964.251 211.495 964.123 211.475 963.998C211.456 963.872 211.409 963.753 211.336 963.647ZM208.762 963.952C207.838 964.359 208.089 965.224 208.828 965.224C210.452 965.224 209.858 963.469 208.762 963.952ZM209.528 965.415C208.313 966 209.528 966.483 210.61 966.051C211.693 965.619 210.65 964.804 209.528 965.339V965.415Z" fill="#5EAD41"/>
<path fill-rule="evenodd" clip-rule="evenodd" d="M270.694 824.966C271.495 824.627 272.178 824.056 272.654 823.327C273.13 822.599 273.379 821.745 273.368 820.874C273.389 820.813 273.389 820.748 273.368 820.687C272.867 819.98 272.167 819.438 271.358 819.129C270.549 818.82 269.666 818.757 268.821 818.948C268.102 819.181 267.431 819.543 266.842 820.018C267.106 819.308 267.242 818.556 267.243 817.798C267.169 816.93 266.836 816.105 266.287 815.428C265.739 814.751 265.001 814.253 264.167 814H263.98C263.146 814.253 262.408 814.751 261.86 815.428C261.311 816.105 260.978 816.93 260.904 817.798C260.913 818.555 261.049 819.306 261.305 820.018C260.71 819.553 260.041 819.191 259.326 818.948C258.481 818.757 257.598 818.82 256.789 819.129C255.98 819.438 255.28 819.98 254.779 820.687C254.756 820.747 254.756 820.814 254.779 820.874C254.768 821.745 255.017 822.599 255.493 823.327C255.969 824.056 256.652 824.627 257.453 824.966C258.17 825.197 258.922 825.296 259.674 825.261C259.055 825.693 258.504 826.216 258.042 826.812C257.6 827.559 257.389 828.42 257.437 829.287C257.485 830.153 257.788 830.986 258.309 831.68C258.309 831.68 258.309 831.68 258.47 831.68C258.985 831.819 259.515 831.89 260.048 831.894C261.038 831.906 261.999 831.561 262.755 830.923C263.512 830.284 264.013 829.395 264.167 828.417C264.321 829.395 264.823 830.284 265.579 830.923C266.335 831.561 267.296 831.906 268.286 831.894C268.81 831.888 269.332 831.817 269.838 831.68C269.838 831.68 269.971 831.68 269.998 831.68C270.519 830.986 270.823 830.153 270.87 829.287C270.918 828.42 270.708 827.559 270.266 826.812C269.803 826.216 269.253 825.693 268.634 825.261C269.386 825.296 270.138 825.197 270.854 824.966H270.694ZM264.007 814.642C264.685 814.87 265.283 815.289 265.729 815.849C266.175 816.409 266.45 817.086 266.521 817.798C266.378 819.7 265.617 821.504 264.354 822.934C264.354 822.934 264.354 823.228 264.354 819.376C264.358 819.335 264.353 819.294 264.34 819.255C264.327 819.217 264.306 819.181 264.278 819.151C264.251 819.12 264.217 819.096 264.179 819.08C264.142 819.064 264.101 819.055 264.06 819.055C263.975 819.055 263.893 819.089 263.833 819.149C263.773 819.21 263.739 819.291 263.739 819.376V822.666C263.341 822.108 262.912 821.572 262.455 821.061C261.868 820.072 261.545 818.948 261.519 817.798C261.592 817.083 261.871 816.404 262.322 815.843C262.773 815.283 263.377 814.866 264.06 814.642H264.007ZM257.48 824.378C256.829 824.077 256.275 823.599 255.882 822.998C255.49 822.398 255.274 821.699 255.26 820.981C255.683 820.403 256.264 819.958 256.933 819.702C257.602 819.446 258.331 819.388 259.032 819.537C260.807 820.257 262.293 821.546 263.258 823.201C263.258 823.201 263.498 823.201 259.861 822.131C259.783 822.114 259.701 822.126 259.632 822.166C259.563 822.206 259.511 822.269 259.486 822.345C259.46 822.423 259.465 822.509 259.5 822.583C259.535 822.658 259.597 822.716 259.674 822.746L262.803 823.763C262.141 823.947 261.497 824.189 260.877 824.485C259.761 824.752 258.597 824.752 257.48 824.485V824.378ZM262.509 830.182C262.38 830.586 262.157 830.954 261.858 831.255C261.559 831.556 261.193 831.782 260.79 831.914C260.386 832.045 259.957 832.079 259.538 832.012C259.119 831.945 258.722 831.78 258.38 831.529C258.038 831.279 257.76 830.95 257.57 830.571C257.379 830.192 257.282 829.773 257.285 829.348C257.289 828.924 257.393 828.507 257.59 828.131C257.787 827.755 258.07 827.431 258.416 827.187C259.656 825.734 261.338 824.729 263.204 824.325C263.204 824.325 263.365 824.137 261.118 827.213C261.07 827.274 261.044 827.35 261.044 827.427C261.044 827.505 261.07 827.58 261.118 827.641C261.145 827.67 261.179 827.694 261.215 827.709C261.252 827.725 261.292 827.733 261.332 827.733C261.372 827.733 261.412 827.725 261.448 827.709C261.485 827.694 261.518 827.67 261.546 827.641L263.472 824.966C263.404 825.651 263.404 826.341 263.472 827.026C263.339 828.174 262.936 829.274 262.295 830.236L262.509 830.182ZM264.007 824.137C263.922 824.137 263.84 824.103 263.78 824.043C263.719 823.983 263.686 823.901 263.686 823.816C263.686 823.731 263.719 823.65 263.78 823.589C263.84 823.529 263.922 823.495 264.007 823.495C264.048 823.495 264.088 823.504 264.126 823.52C264.163 823.536 264.197 823.561 264.225 823.591C264.252 823.621 264.274 823.657 264.287 823.696C264.3 823.734 264.305 823.775 264.301 823.816C264.301 823.897 264.271 823.975 264.217 824.034C264.162 824.094 264.087 824.131 264.007 824.137ZM269.597 827.187C269.937 827.435 270.214 827.761 270.404 828.136C270.595 828.512 270.694 828.928 270.693 829.349C270.693 829.77 270.593 830.186 270.401 830.561C270.21 830.936 269.932 831.261 269.592 831.509C269.251 831.757 268.856 831.921 268.44 831.987C268.024 832.054 267.598 832.021 267.197 831.891C266.796 831.762 266.432 831.54 266.133 831.243C265.834 830.946 265.61 830.582 265.478 830.182C264.507 828.575 264.067 826.704 264.221 824.833C264.221 824.833 264.221 824.592 266.334 827.695C266.361 827.745 266.402 827.787 266.452 827.816C266.501 827.845 266.557 827.86 266.615 827.86C266.672 827.86 266.728 827.845 266.778 827.816C266.827 827.787 266.868 827.745 266.895 827.695C266.929 827.643 266.947 827.583 266.947 827.521C266.947 827.459 266.929 827.399 266.895 827.347L264.97 824.672C265.622 824.912 266.293 825.1 266.976 825.234C268.014 825.718 268.928 826.431 269.65 827.32L269.597 827.187ZM264.943 823.87C266.031 823.397 267.159 823.021 268.313 822.746C268.39 822.716 268.452 822.658 268.487 822.583C268.522 822.509 268.527 822.423 268.5 822.345C268.476 822.269 268.424 822.206 268.354 822.166C268.285 822.126 268.204 822.114 268.126 822.131L264.97 823.148C265.408 822.606 265.793 822.024 266.12 821.409C266.89 820.554 267.866 819.91 268.955 819.537C269.653 819.392 270.378 819.449 271.046 819.7C271.713 819.951 272.296 820.386 272.726 820.954C272.725 821.675 272.515 822.379 272.121 822.982C271.727 823.585 271.166 824.061 270.506 824.351C268.651 824.822 266.69 824.652 264.943 823.87Z" fill="#5EAD41"/>
<path fill-rule="evenodd" clip-rule="evenodd" d="M381.853 1033.86C385.036 1030.57 388.888 1025.83 392.124 1022.25L397.875 1015.64L395.682 1016.9C394.318 1017.68 392.419 1018.83 390.332 1020.19C385.887 1023.05 381.739 1026.35 377.948 1030.03C376.679 1031.31 375.491 1032.67 374.391 1034.1C374.07 1030.7 373.802 1027.28 373.615 1023.88C374.003 1023.93 374.395 1023.85 374.738 1023.67C377.021 1022.19 379.076 1020.39 380.837 1018.32C384.02 1015.03 387.871 1010.29 391.108 1006.68L396.859 1000.1C396.859 1000.1 396.003 1000.56 394.639 1001.36C393.275 1002.16 391.402 1003.29 389.289 1004.65C384.839 1007.5 380.69 1010.8 376.905 1014.49C375.636 1015.78 374.439 1017.14 373.321 1018.56C373.133 1014.09 373.026 1009.63 373.053 1005.19C374.123 1005.37 376.209 1004.6 381.211 1001.25C387.921 996.348 394.284 990.986 400.256 985.205C392.659 988.5 385.296 992.306 378.216 996.599C376.426 997.744 374.719 999.014 373.107 1000.4V999.435C373.202 999.229 373.252 999.006 373.252 998.779C373.252 998.553 373.202 998.329 373.107 998.124C373.107 996.706 373.107 995.289 373.24 993.871C373.374 992.453 373.24 991.196 373.454 989.886C373.683 990.11 373.977 990.257 374.294 990.305C374.611 990.353 374.935 990.3 375.22 990.153C377.426 988.994 379.424 987.475 381.131 985.66C384.234 982.824 388.032 978.759 391.188 975.496L396.805 969.718L394.692 970.681C393.382 971.296 391.536 972.232 389.53 973.356C385.219 975.673 381.174 978.453 377.467 981.648C376.124 982.836 374.872 984.124 373.722 985.499C373.963 982.129 374.257 978.786 374.605 975.442C375.621 975.656 377.493 974.854 382.094 971.109C387.891 965.952 393.308 960.383 398.303 954.446C391.456 958.108 384.886 962.265 378.643 966.883C377.199 968.087 375.969 969.05 375.247 969.879V969.424C375.43 969.231 375.56 968.995 375.626 968.737C375.692 968.48 375.69 968.21 375.621 967.953C375.589 967.789 375.544 967.628 375.487 967.471C375.782 965.332 376.076 963.192 376.397 961.079C377.36 961.373 379.071 960.678 383.057 956.879C387.939 951.898 392.412 946.531 396.431 940.831C390.453 944.428 384.774 948.498 379.446 953.001C378.724 953.697 378.082 954.285 377.547 954.847C378.109 951.878 378.67 948.909 379.312 945.967C380.275 946.528 381.8 945.967 386.534 941.232C391.491 935.64 396.024 929.686 400.095 923.419C393.927 927.632 388.088 932.309 382.629 937.407C381.88 938.156 381.265 938.852 380.73 939.44C381.104 937.782 381.479 936.097 381.88 934.438C382.896 934.438 384.127 932.887 386.4 926.869C388.782 919.458 390.632 911.887 391.937 904.214C387.867 910.852 384.291 917.78 381.238 924.943C380.864 925.933 380.569 926.789 380.302 927.618C378.078 921.685 375.395 915.935 372.278 910.419C372.693 916.992 373.677 923.516 375.22 929.918C377.092 936.257 378.242 936.739 379.473 936.444C378.59 939.815 377.788 943.185 377.065 946.608C376.691 945.779 376.209 944.843 375.594 943.747C373.338 940.052 370.594 936.678 367.436 933.716C365.965 932.299 364.601 931.041 363.611 930.293C362.622 929.544 362.006 929.009 362.006 929.009C362.006 929.009 362.381 929.704 362.943 930.828L365.243 935.321C367.035 938.878 369.068 943.345 370.86 946.448C371.779 948.44 373.047 950.252 374.605 951.797C374.797 951.952 375.023 952.059 375.265 952.11C375.507 952.161 375.757 952.155 375.995 952.092C375.648 954.044 375.3 955.997 374.979 957.949C374.811 958.197 374.7 958.479 374.654 958.775C374.608 959.071 374.627 959.374 374.712 959.661C374.444 961.373 374.203 963.085 373.963 964.797C373.508 964.075 372.973 963.245 372.304 962.256C370.164 959.1 366.955 955.114 364.628 951.744C363.424 950.059 362.354 948.561 361.605 947.464L360.375 945.699C360.375 945.699 360.535 946.502 360.829 947.812C361.124 949.123 361.578 950.942 362.194 952.974C363.491 957.31 365.372 961.449 367.784 965.278C368.916 967.403 370.528 969.235 372.492 970.628C372.728 970.738 372.981 970.81 373.24 970.842L373 972.794C372.793 973.199 372.745 973.667 372.866 974.105C372.652 976.325 372.438 978.518 372.251 980.738L371.983 980.417C371.261 979.561 370.218 978.518 368.854 977.127C367.49 975.736 365.885 974.132 364.307 972.446C362.729 970.761 361.097 968.996 359.733 967.338C358.369 965.679 357.219 964.155 356.416 963.005L355.132 961.186C355.132 961.186 355.293 962.015 355.64 963.379C356.11 965.196 356.691 966.983 357.379 968.729C358.283 970.983 359.375 973.157 360.642 975.228C361.863 977.265 363.298 979.166 364.922 980.899C366.071 982.103 367.324 983.204 368.667 984.189C369.362 984.708 370.139 985.105 370.967 985.365C371.274 985.445 371.596 985.445 371.903 985.365C371.689 988.308 371.529 991.25 371.395 994.165V996.011C370.726 995.235 369.87 994.326 368.72 993.202C366.045 990.528 362.033 987.371 358.823 984.723L353.126 980.043L354.116 981.942C354.758 983.119 355.667 984.617 356.791 986.516C359.065 990.365 361.756 993.953 364.815 997.215C366.349 998.981 368.247 1000.4 370.378 1001.36C370.635 1001.41 370.898 1001.41 371.154 1001.36C371.154 1005.59 371.02 1009.84 371.154 1014.09C370.218 1013.08 368.881 1011.77 366.981 1010.05C363.504 1006.87 358.636 1003.02 354.731 999.782L347.777 994.005C347.777 994.005 348.285 994.861 349.141 996.225C349.997 997.589 351.227 999.515 352.725 1001.57C355.855 1006.08 359.44 1010.24 363.424 1014.01C365.392 1016.09 367.733 1017.79 370.325 1019.01C370.668 1019.1 371.026 1019.1 371.368 1019.01C371.368 1022.76 371.662 1026.5 371.93 1030.22C370.325 1028.77 368.646 1027.41 366.901 1026.13C363.103 1023.29 357.887 1019.92 353.688 1017.06L346.252 1011.98C346.252 1011.98 346.814 1012.78 347.803 1014.09C348.793 1015.4 350.211 1017.14 351.869 1019.09C355.383 1023.28 359.317 1027.1 363.611 1030.49C365.776 1032.37 368.27 1033.83 370.967 1034.79C371.174 1034.88 371.397 1034.93 371.622 1034.93C371.847 1034.93 372.07 1034.88 372.278 1034.79C373.113 1044.58 374.506 1054.32 376.45 1063.95C376.664 1065.1 378.376 1064.67 378.189 1063.52C376.851 1055.5 375.728 1047.47 374.872 1039.45C375.178 1039.42 375.477 1039.34 375.755 1039.21C378.044 1037.74 380.1 1035.94 381.853 1033.86Z" fill="#5EAD41"/>
<path fill-rule="evenodd" clip-rule="evenodd" d="M72.6829 853.911C72.4387 855.001 71.8432 855.981 70.9879 856.7C70.5917 856.911 70.1551 857.035 69.7072 857.064C69.2593 857.093 68.8103 857.027 68.3901 856.869C67.9699 856.711 67.5882 856.466 67.2703 856.149C66.9524 855.832 66.7057 855.451 66.5466 855.031C66.5527 854.86 66.4044 855.026 66.5538 854.832C67.3682 854.632 68.118 854.227 68.7323 853.656C69.2638 853.208 69.6744 852.634 69.9265 851.986C70.1786 851.338 70.2642 850.637 70.1753 849.948C70.0909 849.496 69.8987 849.072 69.6149 848.711C69.3312 848.351 68.9644 848.064 68.5458 847.875C68.1272 847.687 67.6693 847.602 67.211 847.629C66.7527 847.656 66.3078 847.793 65.914 848.029C65.265 848.673 64.7707 849.456 64.4684 850.318C64.1662 851.181 64.0638 852.101 64.169 853.009C64.1751 853.199 64.1683 853.389 64.1487 853.578L63.9495 853.571C63.4318 853.6 62.9212 853.44 62.5128 853.12C61.8279 852.586 61.3265 851.851 61.0782 851.018C60.8486 850.269 60.8954 849.758 60.7551 849.696C60.6149 849.634 60.2582 850.049 60.311 850.962C60.2607 851.86 60.527 852.747 61.0633 853.469C61.5996 854.191 62.3722 854.702 63.2463 854.913L64.3275 854.951C64.4776 855.691 64.7732 856.393 65.1971 857.017C65.621 857.642 66.1647 858.175 66.7967 858.588C67.4287 859 68.1364 859.282 68.8786 859.419C69.6207 859.555 70.3826 859.543 71.1199 859.382C70.8389 861.675 70.7562 863.988 70.8726 866.295C70.9856 872.159 72.6912 877.882 75.8069 882.852C79.0378 888.892 82.9483 895.841 82.1963 898.548C81.0215 902.722 83.4438 904.29 81.4703 909.29C80.9014 910.328 80.614 911.496 80.6369 912.679C80.8247 914.594 84.4003 916.574 85.3859 916.096C86.1318 913.953 87.0445 911.871 88.1155 909.87C89.2556 908.258 93.3547 904.36 96.1492 901.099C96.894 900.185 97.5342 900.607 97.7546 901.612C98.8385 906.351 103.839 907.527 104.73 914.452C104.7 915.306 106.917 916.24 108.822 916.336C110.727 916.433 110.572 915.203 110.261 913.539C109.95 911.876 109.664 910.327 109.484 908.982C109.016 905.347 109.425 901.061 111.33 901.186C116.753 901.415 122.184 901.362 127.601 901.027C128.512 901.059 128.522 901.573 128.098 902.27C127.431 903.194 126.843 904.174 126.341 905.198C125.631 908.487 125.894 911.912 127.1 915.053C127.586 915.744 128.238 916.3 128.997 916.671C129.756 917.042 130.596 917.214 131.439 917.174C132.293 917.204 132.176 916.488 132.438 914.731C133.041 909.564 135.452 904.776 139.246 901.216C140.908 899.338 141.281 899.266 143.493 900.342C147.134 902.096 151.401 903.046 153.128 907.324C153.673 909.093 154 910.923 154.102 912.771C154.073 913.568 154.731 914.303 157.505 916.368C158.589 917.148 159.293 915.777 159.669 913.227C160.649 906.539 158.123 896.706 154.667 893.791C157.597 891.503 161.264 886.934 164.109 884.671C172.235 878.097 176.765 883.642 185.467 870.536C186.76 868.617 191.655 863.18 193.95 862.721C198.169 861.847 195.487 854.8 194.297 853.02C193.108 851.239 192.167 852.06 190.551 852.629C186.541 854.053 178.102 851.842 175.278 851.143C182.123 846.146 181.274 842.812 181.776 837.531C181.837 835.824 182.42 833.851 181.917 833.576C181.414 833.302 179.305 834.936 177.531 835.955C171.431 839.581 164.8 842.228 157.879 843.798C147.133 841.59 141.873 844.479 132.733 843.582C112.862 841.618 90.9921 831.036 77.4722 845.85C75.2684 848.139 73.5864 850.877 72.5416 853.878L72.6829 853.911ZM66.0488 853.019C65.9147 852.04 66.1107 851.045 66.6058 850.19C67.3842 849.136 69.144 849.312 68.1583 851.385C67.6575 852.144 66.9141 852.71 66.0498 852.991L66.0488 853.019Z" fill="#F5AFB4"/>
<path fill-rule="evenodd" clip-rule="evenodd" d="M167.759 845.548C169.016 842.328 169.143 838.778 168.119 835.476C166.083 826.288 165.376 832.53 161.674 837.268C160.518 838.71 159.289 840.092 157.993 841.41C155.892 843.228 153.631 844.853 151.239 846.267C147.468 849.75 147.451 851.829 153.359 853.892C154.692 854.349 156.083 854.61 157.491 854.667C162.554 854.876 165.9 849.726 167.759 845.548Z" fill="#E7868C"/>
<path fill-rule="evenodd" clip-rule="evenodd" d="M171.022 859.452C172.302 859.498 173.253 859.19 172.724 858.06C172.194 856.93 170.943 856.857 169.893 857.56C168.309 858.842 169.289 859.304 171.022 859.452Z" fill="#845B00"/>
<path fill-rule="evenodd" clip-rule="evenodd" d="M110.939 888.271C112.349 891.882 115.349 891.619 116.884 890.136C118.418 888.653 118.476 886.233 114.562 884.954C111.746 884.027 109.741 885.152 110.939 888.271ZM118.683 862.113C119.122 864.977 124.834 866.178 127.171 869.338C128.911 871.651 128.581 874.516 124.477 879.326C120.82 883.611 113.207 881.43 109.603 879.45C105.999 877.469 106.476 887.228 95.8709 885.055C90.7234 884.016 92.6685 879.015 92.4645 875.162C92.1812 870.337 82.6006 868.2 86.1349 861.775C89.6692 855.349 96.172 859.912 100.754 856.059C102.393 854.671 104.164 853.446 106.041 852.402C110.458 849.968 114.194 849.845 116.71 851.986C120.659 855.46 118.241 859.362 118.683 862.113ZM89.9976 851.743C89.846 855.982 98.9664 856.65 100.372 852.399C102.032 847.388 90.384 844.92 89.9996 851.686L89.9976 851.743Z" fill="#E7868C"/>
<path fill-rule="evenodd" clip-rule="evenodd" d="M20.7899 977.695C20.9772 977.695 21.0307 975.849 21.8866 974.779C23.3577 972.987 28.1723 974.913 25.7918 977.828C25.0963 978.658 24.1601 979.3 24.2136 979.353C24.7017 979.214 25.2045 979.133 25.7115 979.112C29.7237 979.112 28.9748 985.799 24.2671 984.061C23.4915 983.793 23.652 983.793 24.0264 984.462C24.4009 985.13 24.4811 985.184 24.7218 985.612C24.9567 986.013 25.0294 986.488 24.9249 986.941C24.8205 987.393 24.5469 987.789 24.1602 988.046C22.9833 988.822 20.8969 988.688 20.4155 987.217C20.211 986.602 20.0852 985.964 20.041 985.318C19.7468 982.803 20.683 988.688 16.644 988.581C14.9589 988.581 13.6483 987.137 15.6009 984.89C15.8768 984.552 16.181 984.239 16.5103 983.954C16.9383 983.606 16.965 983.526 16.5103 983.686C15.7512 983.913 14.9423 983.913 14.1832 983.686C13.1935 983.312 12.6318 980.717 13.2738 979.46C14.2367 977.641 15.9486 978.31 17.0452 978.658C18.1419 979.005 18.4896 978.925 17.3127 978.23C16.9092 977.992 16.5246 977.724 16.1626 977.427C13.2738 974.966 18.8374 971.329 20.3085 975.555C20.6562 976.571 20.7899 977.615 20.8969 977.588L20.7899 977.695ZM19.6665 979.326C19.1583 979.728 19.9072 980.236 20.3352 980.022C20.7632 979.808 20.3352 978.738 19.6665 979.326ZM22.0203 980.129C21.5656 979.3 21.0841 978.952 20.7899 980.129C20.6027 980.878 20.5492 981.974 21.5656 981.627C21.7028 981.572 21.8259 981.487 21.9261 981.379C22.0262 981.27 22.1008 981.141 22.1444 981C22.188 980.859 22.1995 980.71 22.178 980.564C22.1565 980.417 22.1027 980.278 22.0203 980.155V980.129ZM19.1583 980.476C18.1419 980.958 18.4361 981.921 19.1583 981.921C20.9504 981.921 20.3085 979.915 19.1583 980.476ZM20.0143 982.162C18.6769 982.83 20.0142 983.392 21.2179 982.884C22.4215 982.376 21.4319 981.52 20.0143 982.162Z" fill="#A7CD7A"/>
</g>
<defs>
<clipPath id="clip0_182_14255">
<rect width="375" height="998" fill="white"/>
</clipPath>
</defs>
</svg>
