<svg width="1440" height="750" viewBox="0 0 1440 750" fill="none" xmlns="http://www.w3.org/2000/svg">
<path fill-rule="evenodd" clip-rule="evenodd" d="M233.282 847.913C170.832 828.052 145.781 845.714 78.789 840.253C29.1828 835.475 -19.31 822.633 -64.7748 802.233C-151.85 763.149 -220.9 696.472 -175.765 610.715C-140.282 543.329 -97.2062 531.767 -25.1759 546.875C15.3456 555.458 60.4798 570.212 102.563 552.621C164.587 526.518 257.836 549.003 434.966 659.02C467.824 679.519 516.719 714.56 544.467 757.9C566.259 793.642 575.522 835.62 570.795 877.208C560.789 972.684 433.263 1008.58 369.536 964.03C323.905 932.323 283.383 863.944 233.282 847.913Z" fill="#81BD55"/>
<path fill-rule="evenodd" clip-rule="evenodd" d="M129.206 474.062C104.296 483.393 93.193 507.17 83.8376 530.273C83.8376 530.61 83.8376 530.891 83.4431 531.228C83.393 531.431 83.393 531.643 83.4431 531.846C80.4189 536.718 78.0681 541.974 76.4547 547.473C72.0024 524.033 66.5357 500.874 49.572 483.056C49.3282 482.784 49.0116 482.588 48.6597 482.49C48.3077 482.392 47.9351 482.396 47.5856 482.503C47.2361 482.609 46.9244 482.813 46.6872 483.09C46.45 483.367 46.2972 483.706 46.2468 484.067C42.2454 510.711 58.1384 532.184 74.0877 551.857C74.2065 552.023 74.3575 552.163 74.5318 552.27C74.7061 552.376 74.9001 552.446 75.1021 552.476C73.4493 560.173 72.4501 567.995 72.1152 575.859C72.1152 577.096 72.1152 578.333 72.1152 579.569H71.2698C57.2054 553.89 36.7975 532.22 11.9812 516.613C11.6363 516.383 11.2258 516.271 10.8114 516.294C10.3971 516.316 10.0014 516.473 9.68369 516.739C9.36598 517.005 9.14349 517.367 9.04965 517.77C8.95581 518.173 8.9957 518.596 9.16334 518.974C19.7023 545 42.3581 577.152 71.7206 583.56H71.3825C71.0808 597.31 71.7966 611.062 73.5241 624.707H73.186H72.3406C58.2818 599.041 37.896 577.374 13.1084 561.751C12.7587 561.539 12.3517 561.441 11.9438 561.47C11.5359 561.5 11.1473 561.655 10.8316 561.914C10.516 562.173 10.2888 562.524 10.1818 562.918C10.0747 563.311 10.093 563.729 10.2341 564.111C20.8294 590.137 43.4289 622.29 72.7914 628.698C73.171 628.851 73.5954 628.851 73.975 628.698C74.5386 632.445 75.1584 636.38 75.8347 640.502C75.9406 640.979 76.2257 641.397 76.6314 641.671C77.0371 641.945 77.5326 642.054 78.0161 641.975C78.4996 641.896 78.9343 641.635 79.2309 641.246C79.5275 640.857 79.6635 640.369 79.6108 639.883C78.3709 633.082 77.4128 626.224 76.6802 619.31C99.2234 604.639 129.431 578.276 134.954 550.565C135.349 548.766 133.095 548.091 131.855 548.935C108.353 564.336 84.063 581.649 75.4966 609.08C74.82 599.915 74.6507 590.72 74.9894 581.537C74.9894 576.759 75.4403 571.981 75.8912 567.203C98.9416 556.86 123.006 544.719 131.347 519.199C131.467 518.847 131.481 518.468 131.389 518.109C131.296 517.749 131.1 517.424 130.825 517.173C130.55 516.923 130.208 516.758 129.84 516.698C129.472 516.639 129.095 516.687 128.755 516.838C106.212 524.989 90.7696 542.751 76.4547 561.357C77.8184 550.821 81.6826 540.762 87.7263 532.015C106.099 516.782 123.908 500.706 131.178 477.266C131.457 476.95 131.626 476.554 131.662 476.135C131.698 475.716 131.598 475.296 131.377 474.938C131.157 474.58 130.827 474.301 130.436 474.144C130.045 473.986 129.614 473.957 129.206 474.062Z" fill="#5EAD41"/>
<path fill-rule="evenodd" clip-rule="evenodd" d="M124.808 699.034C125.345 699.725 125.676 700.567 125.761 701.454C125.846 702.342 125.68 703.236 125.285 704.026L125.135 704.184C124.383 704.587 123.535 704.749 122.696 704.65C121.857 704.552 121.064 704.197 120.415 703.629C119.896 703.066 119.472 702.414 119.16 701.702C119.082 702.475 118.869 703.227 118.533 703.92C118.077 704.674 117.418 705.267 116.64 705.625C115.862 705.982 115 706.087 114.165 705.927C114.137 705.939 114.107 705.946 114.077 705.946C114.047 705.946 114.017 705.939 113.989 705.927C113.39 705.297 112.979 704.495 112.81 703.622C112.64 702.748 112.719 701.842 113.035 701.015C113.384 700.323 113.843 699.697 114.391 699.166C113.66 699.298 112.913 699.298 112.182 699.166C109.672 698.717 109.044 695.575 109.019 695.443C108.994 695.375 108.994 695.3 109.019 695.232C109.399 694.434 109.995 693.772 110.732 693.33C111.469 692.888 112.314 692.686 113.161 692.749C113.883 692.881 114.579 693.14 115.219 693.515C114.859 692.845 114.621 692.111 114.516 691.35C114.474 690.446 114.691 689.551 115.139 688.778C115.586 688.006 116.244 687.393 117.027 687.019C117.054 687.006 117.084 687 117.114 687C117.145 687 117.174 687.006 117.202 687.019C117.707 687.127 118.197 687.304 118.658 687.547C119.52 688.007 120.196 688.777 120.565 689.717C120.933 690.657 120.969 691.705 120.666 692.67C121.238 691.884 122.05 691.331 122.966 691.105C123.881 690.879 124.843 690.993 125.687 691.429C126.14 691.691 126.562 692.01 126.942 692.38C126.954 692.409 126.96 692.44 126.96 692.472C126.96 692.504 126.954 692.535 126.942 692.564C127.081 693.444 126.969 694.348 126.621 695.161C126.272 695.974 125.703 696.66 124.984 697.133C124.318 697.463 123.606 697.677 122.875 697.767C123.54 698.105 124.15 698.55 124.683 699.087L124.808 699.034ZM114.366 705.187C115.057 705.308 115.766 705.216 116.408 704.92C117.05 704.625 117.596 704.14 117.98 703.524C118.717 701.714 118.858 699.697 118.382 697.793C117.758 698.825 117.221 699.912 116.776 701.041C116.716 701.095 116.641 701.125 116.562 701.125C116.484 701.125 116.408 701.095 116.349 701.041C116.278 700.997 116.225 700.926 116.202 700.843C116.179 700.76 116.186 700.67 116.223 700.592L117.704 697.582C117.109 697.926 116.488 698.217 115.847 698.453C114.892 699.116 114.114 700.026 113.588 701.094C113.332 701.779 113.27 702.527 113.408 703.248C113.546 703.969 113.878 704.633 114.366 705.161V705.187ZM113.085 693.251C112.385 693.212 111.689 693.386 111.079 693.751C110.469 694.116 109.972 694.657 109.646 695.311C109.744 696.023 110.032 696.691 110.476 697.238C110.921 697.785 111.503 698.188 112.157 698.401C114.026 698.569 115.895 698.086 117.478 697.027C116.348 696.737 115.198 696.534 114.039 696.42C113.971 696.399 113.911 696.356 113.868 696.297C113.826 696.237 113.803 696.164 113.803 696.09C113.803 696.015 113.826 695.943 113.868 695.883C113.911 695.824 113.971 695.78 114.039 695.76L117.227 696.314C116.724 695.838 116.27 695.306 115.872 694.73C115 693.998 113.977 693.491 112.885 693.251H113.085ZM120.039 690.32C119.738 688.286 117.529 687.679 117.127 687.52C116.503 687.855 115.984 688.372 115.632 689.009C115.281 689.646 115.111 690.376 115.144 691.112C115.542 693.046 116.519 694.795 117.93 696.103C117.93 696.103 117.93 696.341 117.453 692.485C117.446 692.445 117.447 692.404 117.456 692.364C117.465 692.324 117.482 692.287 117.506 692.254C117.53 692.222 117.559 692.195 117.594 692.176C117.628 692.156 117.666 692.145 117.704 692.142C117.78 692.132 117.857 692.15 117.921 692.194C117.985 692.237 118.033 692.303 118.056 692.38L118.533 695.733C118.828 695.103 119.163 694.494 119.537 693.911C119.953 692.805 120.1 691.607 119.964 690.425L120.039 690.32ZM118.633 696.552C118.597 696.529 118.557 696.515 118.516 696.509C118.474 696.503 118.432 696.507 118.392 696.519C118.352 696.532 118.315 696.553 118.283 696.581C118.251 696.609 118.225 696.645 118.206 696.684C118.188 696.722 118.177 696.764 118.175 696.806C118.172 696.849 118.177 696.892 118.19 696.932C118.202 696.973 118.223 697.01 118.249 697.042C118.276 697.074 118.308 697.101 118.344 697.12C118.381 697.139 118.42 697.15 118.461 697.153C118.501 697.156 118.542 697.151 118.58 697.137C118.619 697.124 118.654 697.103 118.685 697.075C118.715 697.047 118.74 697.013 118.759 696.975C118.808 696.916 118.835 696.841 118.835 696.763C118.835 696.685 118.808 696.61 118.759 696.552H118.633ZM124.833 696.394C125.178 696.278 125.495 696.085 125.763 695.829C126.03 695.572 126.242 695.258 126.383 694.907C126.524 694.556 126.591 694.178 126.58 693.797C126.569 693.416 126.48 693.043 126.319 692.702C126.158 692.361 125.928 692.061 125.647 691.822C125.365 691.583 125.037 691.411 124.686 691.317C124.335 691.224 123.969 691.212 123.613 691.281C123.258 691.35 122.92 691.5 122.624 691.719C121.023 692.737 119.781 694.276 119.085 696.103C119.085 696.103 118.859 696.262 122.198 694.492C122.246 694.459 122.303 694.442 122.361 694.442C122.419 694.442 122.475 694.459 122.524 694.492C122.57 694.523 122.608 694.566 122.635 694.617C122.661 694.668 122.675 694.725 122.675 694.783C122.67 694.846 122.649 694.907 122.613 694.958C122.578 695.009 122.529 695.049 122.474 695.073L119.612 696.605C120.282 696.692 120.945 696.833 121.595 697.027C122.708 697.099 123.82 696.882 124.833 696.394ZM119.336 697.212C119.336 697.212 119.135 697.212 121.846 699.853C121.874 699.883 121.897 699.917 121.912 699.956C121.927 699.995 121.935 700.036 121.935 700.078C121.935 700.119 121.927 700.161 121.912 700.199C121.897 700.238 121.874 700.273 121.846 700.302C121.82 700.335 121.788 700.362 121.751 700.38C121.714 700.399 121.674 700.408 121.633 700.408C121.592 700.408 121.552 700.399 121.515 700.38C121.478 700.362 121.445 700.335 121.419 700.302L119.135 697.899C119.264 698.595 119.331 699.302 119.336 700.012C119.633 701.152 120.183 702.202 120.942 703.075C121.486 703.535 122.142 703.825 122.835 703.909C123.528 703.993 124.23 703.869 124.858 703.55C125.186 702.894 125.322 702.151 125.251 701.414C125.179 700.676 124.903 699.977 124.457 699.404C123.028 698.105 121.223 697.351 119.336 697.265V697.212Z" fill="#D6607A"/>
<path fill-rule="evenodd" clip-rule="evenodd" d="M1210.25 605.768C1239.42 609.464 1257.44 632.26 1273.42 654.775C1273.5 655.138 1273.58 655.441 1274.09 655.704C1274.19 655.91 1274.25 656.139 1274.25 656.371C1278.74 660.849 1282.62 665.915 1285.76 671.431C1284.55 645.026 1284.49 618.665 1298.17 595.124C1298.36 594.769 1298.65 594.477 1299.01 594.281C1299.36 594.086 1299.76 593.995 1300.16 594.021C1300.57 594.046 1300.95 594.186 1301.28 594.425C1301.61 594.663 1301.86 594.989 1302 595.366C1313.13 623.065 1301.54 650.271 1289.43 675.553C1289.34 675.762 1289.22 675.951 1289.06 676.11C1288.9 676.269 1288.71 676.395 1288.5 676.478C1292.24 684.353 1295.32 692.53 1297.7 700.923C1298.01 702.256 1298.33 703.589 1298.65 704.922L1299.55 704.706C1308.1 673.432 1324.49 644.86 1347.18 621.698C1347.49 621.362 1347.9 621.136 1348.36 621.055C1348.81 620.973 1349.27 621.041 1349.68 621.247C1350.09 621.452 1350.42 621.786 1350.63 622.196C1350.83 622.607 1350.9 623.072 1350.81 623.523C1346.15 654.27 1330.02 694.716 1300.09 709.123L1300.46 709.037C1304.3 723.781 1307.05 738.789 1308.69 753.939L1309.05 753.852L1309.96 753.636C1318.5 722.379 1334.88 693.816 1357.53 670.643C1357.85 670.326 1358.26 670.116 1358.71 670.044C1359.15 669.971 1359.61 670.039 1360.02 670.238C1360.42 670.437 1360.76 670.757 1360.97 671.154C1361.19 671.551 1361.27 672.005 1361.22 672.454C1356.49 703.215 1340.43 743.647 1310.5 758.054C1310.13 758.316 1309.67 758.424 1309.23 758.356C1309.58 762.54 1309.92 766.94 1310.25 771.556C1310.26 772.097 1310.06 772.621 1309.69 773.02C1309.33 773.419 1308.82 773.663 1308.28 773.701C1307.74 773.739 1307.21 773.569 1306.79 773.225C1306.37 772.882 1306.1 772.391 1306.03 771.854C1305.62 764.205 1304.9 756.568 1303.91 748.928C1275.92 738.87 1236.69 718.167 1223.65 689.704C1222.77 687.866 1225.02 686.563 1226.57 687.156C1255.78 697.756 1286.33 710.215 1302.57 737.597C1300.95 727.545 1298.77 717.59 1296.06 707.777C1294.84 702.626 1293.13 697.591 1291.42 692.556C1263.99 687.293 1235 680.351 1219.5 654.972C1219.28 654.623 1219.17 654.218 1219.18 653.807C1219.19 653.395 1219.31 652.995 1219.54 652.654C1219.78 652.314 1220.1 652.049 1220.48 651.891C1220.86 651.733 1221.28 651.689 1221.68 651.764C1248.01 654.793 1269.16 669.997 1289.32 686.398C1285.15 675.389 1278.42 665.532 1269.68 657.646C1246.03 645.918 1222.76 633.136 1208.95 609.725C1208.57 609.456 1208.28 609.072 1208.14 608.629C1207.99 608.187 1207.99 607.709 1208.14 607.266C1208.28 606.824 1208.56 606.44 1208.94 606.17C1209.32 605.9 1209.78 605.759 1210.25 605.768Z" fill="#5EAD41"/>
<path fill-rule="evenodd" clip-rule="evenodd" d="M333.62 599.65C351.844 606.805 376.812 602.146 397.557 606.836C418.303 611.525 434.796 625.592 459.582 623.339C484.367 621.086 517.657 602.512 545.905 602.177C574.154 601.842 597.542 619.776 611.483 635.945C625.425 652.113 630.315 666.394 642.982 672.727C655.648 679.061 676.089 676.99 676.97 694.803C677.851 712.615 659.11 750.128 620.778 773.97C582.446 797.811 524.613 807.829 483.881 816.233C443.149 824.637 420.095 831.457 393.821 826.098C367.548 820.739 338.631 803.262 317.582 784.353C296.533 765.444 283.411 745.135 265.824 716.635C248.238 688.134 225.821 651.443 229.375 623.034C232.929 594.626 262.605 574.56 283.168 574.012C303.731 573.464 315.365 592.464 333.62 599.65Z" fill="#397621"/>
<path fill-rule="evenodd" clip-rule="evenodd" d="M176.398 751.427C175.691 751.312 174.808 751.003 174.768 750.135C174.771 749.855 174.864 749.584 175.033 749.359C175.202 749.134 175.44 748.967 175.711 748.881C176.305 748.744 176.924 748.744 177.518 748.881C179.313 749.19 181.049 749.769 182.664 750.598C184.042 751.329 185.305 752.252 186.415 753.337C186.415 751.235 186.297 749.151 186.219 747.068C182.88 746.297 179.502 745.313 176.398 744.522C175.731 744.33 174.906 743.944 174.984 743.076C175.01 742.802 175.122 742.543 175.305 742.336C175.488 742.128 175.733 741.982 176.006 741.918C176.582 741.834 177.171 741.867 177.734 742.015C179.414 742.44 181.026 743.089 182.526 743.944C183.87 744.724 185.115 745.656 186.238 746.721C186.238 745.12 186.081 743.519 185.983 741.918C182.717 740.473 179.333 739.299 175.868 738.408C175.141 738.215 174.258 737.829 174.277 736.981C174.299 736.699 174.411 736.431 174.598 736.216C174.786 736.001 175.038 735.85 175.318 735.785C175.974 735.69 176.643 735.729 177.282 735.901C179.143 736.372 180.909 737.148 182.507 738.196C183.823 739.069 185.001 740.129 186.002 741.34C185.885 739.488 185.747 737.637 185.59 735.785C182.47 734.255 179.172 733.103 175.77 732.352C175.063 732.197 174.179 731.869 174.14 731.001C174.146 730.719 174.246 730.447 174.422 730.224C174.599 730.002 174.845 729.842 175.122 729.767C175.768 729.62 176.44 729.62 177.086 729.767C180.524 730.461 183.585 732.369 185.688 735.129C185.551 733.509 185.394 731.869 185.197 730.23C185.206 730.108 185.206 729.985 185.197 729.863C181.621 728.277 177.963 726.873 174.238 725.659C173.472 725.408 172.549 724.945 172.608 724.096C172.658 723.81 172.802 723.547 173.018 723.348C173.235 723.15 173.511 723.026 173.806 722.997C174.472 722.955 175.141 723.047 175.77 723.267C179.436 724.388 182.691 726.533 185.138 729.439C184.942 727.8 184.745 726.141 184.529 724.501C183.037 723.556 181.524 722.573 179.993 721.84C178.235 720.902 176.418 720.077 174.552 719.371C173.806 719.081 172.922 718.58 173.02 717.731C173.074 717.445 173.226 717.185 173.451 716.996C173.677 716.806 173.961 716.698 174.258 716.69C174.931 716.681 175.599 716.806 176.222 717.056C178.125 717.798 179.886 718.855 181.426 720.181C182.558 721.164 183.549 722.293 184.372 723.537C184.078 721.377 183.744 719.236 183.41 717.075C181.996 716.015 180.523 714.973 179.011 714.047C177.259 712.973 175.428 712.032 173.531 711.231C172.785 710.903 171.861 710.363 171.979 709.514C172.05 709.229 172.216 708.975 172.451 708.793C172.686 708.611 172.976 708.512 173.276 708.511C173.626 708.521 173.975 708.566 174.316 708.647C174.664 708.742 175.005 708.857 175.338 708.994C177.283 709.842 179.059 711.024 180.582 712.485C181.592 713.463 182.47 714.565 183.194 715.764C182.86 713.835 182.526 711.906 182.153 709.977C179.67 707.821 176.861 706.058 173.825 704.75C173.177 704.48 172.411 704.017 172.529 703.149C172.587 702.875 172.732 702.626 172.944 702.438C173.156 702.251 173.424 702.135 173.708 702.108C174.02 702.062 174.338 702.062 174.65 702.108C174.955 702.181 175.251 702.284 175.534 702.416C178.205 703.551 180.416 705.526 181.819 708.029C181.426 706.1 181.033 704.037 180.601 702.05C178.091 699.891 175.264 698.116 172.215 696.784C171.606 696.514 170.879 696.071 171.017 695.203C171.069 694.933 171.208 694.686 171.413 694.499C171.618 694.311 171.878 694.193 172.156 694.161C172.455 694.105 172.761 694.105 173.06 694.161C173.357 694.228 173.647 694.325 173.924 694.45C175.583 695.165 177.069 696.217 178.284 697.537C179.104 698.476 179.767 699.537 180.248 700.681C179.894 698.964 179.521 697.267 179.128 695.55C176.561 693.37 174.314 690.852 172.451 688.066C172.058 687.487 171.744 686.639 172.451 686.137C172.663 685.962 172.924 685.852 173.2 685.821C173.476 685.79 173.755 685.84 174.002 685.964C174.464 686.26 174.864 686.639 175.181 687.082C176.652 689.127 177.847 691.351 178.736 693.698L177.97 690.381C175.869 686.966 174.269 683.278 173.217 679.425C172.981 678.615 172.942 677.496 173.904 677.11C174.217 676.994 174.557 676.969 174.885 677.038C175.212 677.106 175.512 677.265 175.75 677.496C176.177 677.996 176.485 678.582 176.654 679.213C177.762 682.682 178.306 686.301 178.264 689.937L178.736 691.634C178.553 688.877 178.678 686.109 179.109 683.379C179.207 682.685 179.56 681.855 180.425 681.855C180.703 681.872 180.971 681.966 181.197 682.127C181.423 682.287 181.598 682.508 181.701 682.762C181.841 683.284 181.875 683.828 181.799 684.363C181.336 687.509 180.347 690.559 178.873 693.39C179.541 696.032 180.169 698.694 180.837 701.356C180.798 699.706 180.983 698.058 181.387 696.456C181.863 694.525 182.596 692.664 183.567 690.921C183.94 690.207 184.667 689.455 185.531 689.783C185.783 689.907 185.991 690.102 186.131 690.342C186.271 690.582 186.335 690.857 186.317 691.133C186.235 691.713 186.049 692.275 185.767 692.792L183.39 697.247C182.644 698.694 181.858 700.179 180.975 701.915C181.328 703.574 181.682 705.252 181.996 706.911C182.272 703.606 183.192 700.384 184.706 697.421C185.04 696.726 185.688 695.974 186.513 696.244C186.772 696.353 186.993 696.532 187.15 696.762C187.307 696.991 187.393 697.26 187.397 697.537C187.356 698.107 187.202 698.663 186.945 699.176C185.588 702.196 183.999 705.111 182.192 707.894C182.644 710.209 183.056 712.543 183.43 714.857C183.307 713.037 183.506 711.21 184.019 709.457C184.569 707.506 185.438 705.656 186.592 703.979C187.043 703.284 187.868 702.59 188.556 703.014C188.795 703.162 188.984 703.377 189.096 703.632C189.208 703.887 189.239 704.169 189.184 704.442C189.049 705.004 188.817 705.539 188.497 706.023C187.534 707.566 186.749 708.974 185.924 710.44C185.099 711.906 184.294 713.411 183.41 715.243C183.528 715.937 183.646 716.632 183.744 717.326C183.798 717.419 183.844 717.515 183.881 717.615C183.849 717.607 183.815 717.607 183.783 717.615L184.372 721.473C184.406 719.499 184.771 717.544 185.453 715.687C186.238 713.545 187.365 711.54 188.791 709.746C189.361 709.013 190.323 708.28 191.07 708.724C191.303 708.904 191.474 709.151 191.559 709.431C191.643 709.711 191.637 710.01 191.541 710.286C191.297 710.887 190.981 711.457 190.598 711.983C189.381 713.661 188.379 715.204 187.377 716.825C186.376 718.445 185.413 720.046 184.451 722.052L184.804 724.713L184.922 724.906H184.824L185.178 727.761C185.456 726.125 185.965 724.534 186.69 723.035C187.741 720.878 189.17 718.919 190.913 717.249C191.62 716.574 192.719 715.937 193.387 716.497C193.59 716.712 193.718 716.985 193.753 717.276C193.789 717.567 193.729 717.861 193.584 718.117C193.436 718.421 193.251 718.706 193.034 718.966C192.824 719.228 192.602 719.479 192.366 719.718C190.965 721.177 189.653 722.716 188.438 724.328C187.29 725.84 186.234 727.418 185.276 729.053C185.276 729.4 185.276 729.767 185.413 730.114C185.57 731.541 185.727 732.95 185.865 734.377C186.232 732.519 186.895 730.729 187.829 729.073C188.873 727.221 190.197 725.537 191.757 724.077C192.405 723.479 193.387 722.939 194.055 723.518C194.26 723.719 194.394 723.978 194.44 724.258C194.486 724.539 194.44 724.826 194.31 725.08C194.024 725.622 193.646 726.111 193.191 726.527C191.836 727.915 190.657 729.188 189.459 730.5C188.261 731.811 187.102 733.123 185.786 734.743C185.944 736.183 186.081 737.63 186.199 739.083C187.84 736.051 190.148 733.416 192.955 731.368C193.525 730.944 194.409 730.596 194.919 731.214C195.106 731.413 195.227 731.663 195.269 731.931C195.311 732.198 195.272 732.473 195.155 732.718C194.895 733.183 194.541 733.59 194.114 733.914C191.621 735.91 188.952 737.685 186.14 739.218C186.297 741.147 186.454 742.921 186.592 744.773C188.305 741.766 190.79 739.253 193.8 737.482C194.448 737.096 195.39 736.826 195.921 737.482C196.074 737.708 196.157 737.973 196.157 738.244C196.157 738.515 196.074 738.781 195.921 739.006C195.602 739.449 195.194 739.823 194.723 740.105C193.289 741.051 192.012 741.88 190.657 742.709L186.572 745.159C186.69 746.914 186.808 748.669 186.886 750.444C187.621 749.108 188.562 747.891 189.675 746.837C191.062 745.55 192.654 744.494 194.389 743.712C195.076 743.384 196.078 743.249 196.49 744.002C196.614 744.244 196.665 744.516 196.638 744.786C196.61 745.056 196.504 745.312 196.333 745.525C195.961 745.912 195.522 746.232 195.037 746.47C193.525 747.223 192.228 747.956 190.873 748.708C189.518 749.46 188.359 750.097 186.945 751.003C186.945 752.932 187.102 754.861 187.142 756.79C187.949 755.281 189.019 753.923 190.304 752.778C191.647 751.597 193.163 750.622 194.801 749.884C195.449 749.576 196.392 749.441 196.765 750.193C196.887 750.435 196.939 750.705 196.915 750.974C196.891 751.243 196.791 751.5 196.628 751.717C196.286 752.094 195.873 752.402 195.41 752.623L187.083 756.847C187.083 758.14 187.083 759.432 187.083 760.705C187.677 759.274 188.614 758.003 189.813 757.002C191.291 755.739 193.077 754.875 194.998 754.494C195.396 754.388 195.817 754.388 196.215 754.494C196.408 754.537 196.584 754.635 196.72 754.776C196.857 754.917 196.947 755.094 196.981 755.285C197.024 755.548 196.993 755.818 196.893 756.066C196.793 756.314 196.627 756.53 196.412 756.693C196.205 756.842 195.981 756.965 195.744 757.06L195.037 757.291C193.612 757.69 192.23 758.227 190.913 758.892C189.553 759.545 188.269 760.341 187.083 761.264C187.083 762.846 187.083 764.428 187.083 766.009C188.607 763.788 190.776 762.068 193.309 761.072C193.453 760.988 193.613 760.935 193.779 760.915C193.945 760.896 194.114 760.91 194.274 760.957C194.435 761.004 194.583 761.083 194.711 761.189C194.839 761.295 194.943 761.426 195.017 761.573C195.13 761.801 195.189 762.052 195.189 762.306C195.189 762.56 195.13 762.81 195.017 763.039C194.747 763.371 194.396 763.629 193.996 763.791C192.818 764.351 191.757 764.813 190.618 765.238C189.479 765.662 188.438 765.99 187.142 766.414C187.142 769.173 186.965 771.931 186.808 774.689C186.808 775.113 186.022 775.094 186.042 774.689C186.042 771.487 186.042 768.285 186.042 765.045C183.41 765.068 180.784 765.288 178.186 765.701C177.878 765.79 177.548 765.761 177.26 765.622C176.973 765.483 176.749 765.242 176.634 764.948C176.533 764.704 176.506 764.436 176.554 764.176C176.603 763.917 176.726 763.676 176.909 763.483C177.303 763.176 177.769 762.97 178.264 762.885C179.721 762.65 181.211 762.709 182.644 763.058C183.878 763.365 185.044 763.895 186.081 764.621C186.081 762.827 186.081 761.033 186.081 759.239C183.155 759.239 180.189 759.239 177.439 759.085C177.097 759.125 176.753 759.035 176.475 758.835C176.198 758.634 176.009 758.337 175.947 758.005C175.917 757.741 175.964 757.474 176.082 757.235C176.2 756.996 176.385 756.795 176.614 756.655C177.079 756.436 177.593 756.336 178.107 756.365C180.941 756.414 183.703 757.243 186.081 758.757C186.081 757.079 186.081 755.382 186.081 753.703C183.056 752.855 179.619 751.968 176.398 751.427Z" fill="#5EAD41"/>
<path fill-rule="evenodd" clip-rule="evenodd" d="M484.841 719.42C485.079 719.42 485.178 716.895 486.346 715.506C488.326 713.119 494.901 715.682 491.633 719.615C490.703 720.731 489.415 721.572 489.475 721.572C490.12 721.389 490.785 721.278 491.455 721.24C496.94 721.122 495.891 730.241 489.475 727.912C488.445 727.541 488.663 727.541 489.158 728.441C489.415 728.891 489.792 729.419 490.128 729.967C490.442 730.511 490.537 731.151 490.394 731.76C490.25 732.37 489.88 732.903 489.356 733.255C487.752 734.292 484.881 734.135 484.227 732.159C483.974 731.323 483.808 730.464 483.732 729.595C483.336 726.23 484.604 734.135 479.118 733.998C476.821 733.998 475.039 732.041 477.693 729.008C478.078 728.562 478.495 728.144 478.94 727.756C479.514 727.267 479.534 727.169 478.782 727.384C477.771 727.743 476.678 727.804 475.633 727.56C474.247 727.051 473.494 723.647 474.386 721.866C475.673 719.42 478.029 720.3 479.514 720.79C480.999 721.279 481.495 721.142 479.871 720.203C479.32 719.895 478.796 719.542 478.306 719.146C474.346 715.819 481.91 710.927 483.95 716.602C484.445 717.991 484.604 719.361 484.762 719.361L484.841 719.42ZM483.297 721.611C482.623 722.14 483.633 722.825 484.227 722.531C484.821 722.238 484.227 720.809 483.297 721.611ZM486.505 722.688C485.871 721.553 485.237 721.103 484.841 722.688C484.584 723.725 484.505 725.173 485.911 724.645C486.092 724.568 486.254 724.453 486.385 724.308C486.517 724.162 486.614 723.99 486.671 723.803C486.727 723.617 486.742 723.42 486.713 723.227C486.685 723.035 486.613 722.85 486.505 722.688ZM482.643 723.157C481.257 723.784 481.633 725.114 482.742 725.114C485.178 725.114 484.287 722.414 482.643 723.157ZM483.792 725.408C481.97 726.308 483.792 727.051 485.415 726.386C487.039 725.721 485.475 724.468 483.792 725.29V725.408Z" fill="#5EAD41"/>
<path fill-rule="evenodd" clip-rule="evenodd" d="M522.122 671.9C522.682 671.656 523.158 671.244 523.491 670.719C523.823 670.194 523.997 669.579 523.989 668.952C524.004 668.908 524.004 668.861 523.989 668.817C523.639 668.308 523.151 667.918 522.586 667.695C522.021 667.472 521.405 667.427 520.815 667.565C520.313 667.732 519.844 667.993 519.433 668.335C519.618 667.824 519.713 667.282 519.713 666.736C519.661 666.111 519.429 665.516 519.046 665.028C518.663 664.541 518.148 664.183 517.566 664H517.435C516.853 664.183 516.338 664.541 515.955 665.028C515.572 665.516 515.34 666.111 515.288 666.736C515.294 667.282 515.389 667.822 515.568 668.335C515.152 668 514.685 667.74 514.186 667.565C513.596 667.427 512.98 667.472 512.415 667.695C511.85 667.918 511.362 668.308 511.012 668.817C510.996 668.861 510.996 668.909 511.012 668.952C511.004 669.579 511.178 670.194 511.511 670.719C511.843 671.244 512.319 671.656 512.879 671.9C513.379 672.066 513.904 672.138 514.429 672.112C513.997 672.423 513.613 672.8 513.29 673.23C512.981 673.768 512.834 674.388 512.868 675.012C512.901 675.637 513.113 676.237 513.477 676.737C513.477 676.737 513.477 676.737 513.589 676.737C513.948 676.836 514.318 676.888 514.69 676.891C515.381 676.9 516.052 676.651 516.58 676.191C517.108 675.731 517.458 675.09 517.566 674.386C517.674 675.09 518.023 675.731 518.552 676.191C519.08 676.651 519.751 676.9 520.442 676.891C520.807 676.887 521.171 676.835 521.525 676.737C521.525 676.737 521.618 676.737 521.637 676.737C522 676.237 522.212 675.637 522.246 675.012C522.279 674.388 522.132 673.768 521.823 673.23C521.5 672.8 521.116 672.423 520.684 672.112C521.209 672.138 521.734 672.066 522.234 671.9H522.122ZM517.454 664.462C517.928 664.627 518.345 664.929 518.656 665.332C518.968 665.736 519.16 666.223 519.209 666.736C519.109 668.107 518.578 669.406 517.697 670.436C517.697 670.436 517.697 670.648 517.697 667.873C517.699 667.844 517.696 667.814 517.687 667.786C517.678 667.758 517.663 667.732 517.643 667.711C517.624 667.689 517.601 667.671 517.574 667.66C517.548 667.648 517.52 667.642 517.491 667.642C517.432 667.642 517.375 667.666 517.333 667.71C517.291 667.753 517.267 667.812 517.267 667.873V670.243C516.989 669.841 516.69 669.455 516.371 669.087C515.961 668.374 515.736 667.565 515.717 666.736C515.768 666.221 515.963 665.732 516.278 665.328C516.593 664.924 517.014 664.624 517.491 664.462H517.454ZM512.898 671.476C512.443 671.259 512.056 670.915 511.782 670.482C511.508 670.05 511.358 669.546 511.348 669.029C511.643 668.612 512.048 668.292 512.516 668.108C512.983 667.923 513.491 667.882 513.981 667.989C515.22 668.508 516.257 669.436 516.931 670.628C516.931 670.628 517.099 670.628 514.56 669.858C514.505 669.845 514.448 669.854 514.4 669.883C514.352 669.911 514.315 669.957 514.298 670.012C514.28 670.068 514.283 670.13 514.308 670.183C514.332 670.237 514.375 670.279 514.429 670.301L516.614 671.033C516.152 671.166 515.702 671.34 515.269 671.553C514.49 671.746 513.677 671.746 512.898 671.553V671.476ZM516.408 675.658C516.318 675.949 516.163 676.214 515.954 676.431C515.745 676.648 515.49 676.81 515.208 676.905C514.927 677 514.627 677.024 514.335 676.976C514.042 676.928 513.765 676.809 513.526 676.628C513.287 676.447 513.093 676.211 512.96 675.938C512.827 675.665 512.759 675.363 512.762 675.057C512.764 674.751 512.837 674.451 512.974 674.18C513.112 673.909 513.309 673.676 513.551 673.5C514.417 672.453 515.591 671.729 516.894 671.438C516.894 671.438 517.006 671.303 515.437 673.519C515.404 673.563 515.386 673.617 515.386 673.673C515.386 673.729 515.404 673.783 515.437 673.827C515.456 673.848 515.48 673.865 515.505 673.876C515.531 673.888 515.559 673.894 515.587 673.894C515.615 673.894 515.642 673.888 515.668 673.876C515.694 673.865 515.717 673.848 515.736 673.827L517.08 671.9C517.033 672.394 517.033 672.891 517.08 673.384C516.988 674.211 516.706 675.003 516.259 675.696L516.408 675.658ZM517.454 671.303C517.394 671.303 517.337 671.279 517.295 671.235C517.253 671.192 517.23 671.133 517.23 671.072C517.23 671.01 517.253 670.952 517.295 670.908C517.337 670.865 517.394 670.84 517.454 670.84C517.483 670.84 517.511 670.846 517.537 670.858C517.563 670.87 517.587 670.887 517.606 670.909C517.625 670.931 517.64 670.957 517.649 670.985C517.659 671.013 517.662 671.042 517.659 671.072C517.659 671.13 517.638 671.186 517.6 671.229C517.562 671.272 517.51 671.298 517.454 671.303ZM521.356 673.5C521.594 673.679 521.787 673.913 521.92 674.184C522.053 674.455 522.122 674.754 522.122 675.057C522.121 675.361 522.052 675.66 521.918 675.93C521.784 676.201 521.591 676.435 521.353 676.613C521.115 676.792 520.84 676.91 520.549 676.958C520.259 677.006 519.961 676.982 519.681 676.889C519.401 676.796 519.147 676.636 518.938 676.422C518.73 676.208 518.573 675.946 518.481 675.658C517.803 674.5 517.496 673.152 517.603 671.804C517.603 671.804 517.603 671.63 519.078 673.866C519.098 673.902 519.126 673.932 519.161 673.953C519.195 673.974 519.234 673.985 519.274 673.985C519.315 673.985 519.354 673.974 519.388 673.953C519.423 673.932 519.451 673.902 519.471 673.866C519.494 673.828 519.506 673.785 519.506 673.74C519.506 673.696 519.494 673.653 519.471 673.615L518.126 671.688C518.582 671.861 519.05 671.997 519.527 672.093C520.251 672.442 520.89 672.956 521.394 673.596L521.356 673.5ZM518.107 671.11C518.867 670.769 519.654 670.499 520.46 670.301C520.514 670.279 520.557 670.237 520.582 670.183C520.606 670.13 520.609 670.068 520.591 670.012C520.574 669.957 520.537 669.911 520.489 669.883C520.441 669.854 520.384 669.845 520.33 669.858L518.126 670.59C518.432 670.2 518.701 669.781 518.929 669.337C519.467 668.722 520.148 668.257 520.908 667.989C521.396 667.885 521.902 667.925 522.368 668.106C522.834 668.287 523.241 668.6 523.541 669.01C523.54 669.529 523.393 670.036 523.118 670.471C522.843 670.905 522.452 671.248 521.991 671.457C520.696 671.796 519.327 671.674 518.107 671.11Z" fill="#5EAD41"/>
<path fill-rule="evenodd" clip-rule="evenodd" d="M612.68 761.875C615.388 759.076 618.665 755.048 621.419 751.998L626.312 746.377L624.446 747.447C623.285 748.107 621.669 749.086 619.894 750.246C616.112 752.68 612.583 755.486 609.358 758.621C608.278 759.71 607.267 760.865 606.331 762.08C606.058 759.19 605.83 756.277 605.671 753.387C606.001 753.427 606.335 753.363 606.627 753.204C608.569 751.949 610.317 750.415 611.815 748.653C614.524 745.854 617.801 741.826 620.554 738.754L625.447 733.156C625.447 733.156 624.719 733.543 623.558 734.225C622.397 734.908 620.804 735.864 619.007 737.025C615.221 739.453 611.69 742.259 608.47 745.399C607.39 746.494 606.372 747.649 605.421 748.858C605.261 745.058 605.17 741.257 605.193 737.48C606.103 737.639 607.878 736.979 612.134 734.134C617.843 729.961 623.257 725.399 628.337 720.48C621.874 723.284 615.609 726.522 609.585 730.175C608.063 731.149 606.61 732.229 605.239 733.406V732.587C605.32 732.412 605.362 732.222 605.362 732.029C605.362 731.837 605.32 731.647 605.239 731.472C605.239 730.266 605.239 729.06 605.352 727.854C605.466 726.648 605.352 725.578 605.534 724.463C605.729 724.654 605.979 724.779 606.249 724.82C606.518 724.86 606.794 724.815 607.036 724.69C608.914 723.704 610.613 722.412 612.066 720.867C614.706 718.455 617.937 714.996 620.622 712.22L625.401 707.304L623.604 708.124C622.488 708.647 620.918 709.443 619.211 710.399C615.544 712.37 612.102 714.736 608.948 717.454C607.806 718.465 606.741 719.561 605.762 720.731C605.967 717.863 606.217 715.019 606.513 712.174C607.378 712.356 608.971 711.674 612.885 708.488C617.817 704.1 622.426 699.362 626.676 694.31C620.851 697.426 615.26 700.963 609.949 704.892C608.72 705.916 607.674 706.735 607.059 707.441V707.054C607.215 706.89 607.326 706.689 607.382 706.47C607.438 706.251 607.436 706.021 607.378 705.802C607.35 705.663 607.312 705.526 607.264 705.393C607.514 703.572 607.765 701.752 608.038 699.954C608.857 700.204 610.313 699.613 613.704 696.381C617.858 692.143 621.663 687.577 625.083 682.727C619.997 685.787 615.165 689.25 610.632 693.081C610.018 693.673 609.471 694.174 609.016 694.652C609.494 692.126 609.972 689.6 610.518 687.096C611.338 687.574 612.635 687.096 616.663 683.069C620.88 678.311 624.737 673.245 628.201 667.913C622.953 671.498 617.985 675.476 613.34 679.814C612.703 680.451 612.18 681.043 611.724 681.544C612.043 680.133 612.362 678.699 612.703 677.288C613.568 677.288 614.615 675.968 616.549 670.848C618.575 664.543 620.149 658.102 621.26 651.573C617.797 657.221 614.754 663.115 612.157 669.21C611.838 670.052 611.588 670.78 611.36 671.485C609.469 666.438 607.186 661.545 604.533 656.853C604.886 662.445 605.724 667.995 607.036 673.442C608.629 678.836 609.608 679.245 610.655 678.995C609.904 681.862 609.221 684.73 608.607 687.643C608.288 686.937 607.878 686.141 607.355 685.208C605.436 682.064 603.101 679.193 600.414 676.674C599.163 675.468 598.002 674.398 597.16 673.761C596.318 673.124 595.794 672.669 595.794 672.669C595.794 672.669 596.113 673.26 596.591 674.216L598.548 678.039C600.073 681.066 601.802 684.866 603.327 687.506C604.109 689.201 605.188 690.742 606.513 692.057C606.677 692.189 606.869 692.28 607.075 692.323C607.28 692.367 607.493 692.361 607.696 692.308C607.401 693.969 607.105 695.63 606.832 697.291C606.689 697.502 606.594 697.742 606.555 697.994C606.516 698.246 606.532 698.503 606.604 698.748C606.376 700.204 606.172 701.661 605.967 703.117C605.58 702.503 605.125 701.797 604.556 700.955C602.735 698.27 600.005 694.879 598.025 692.012C597.001 690.578 596.09 689.304 595.453 688.371L594.406 686.869C594.406 686.869 594.543 687.552 594.793 688.667C595.043 689.782 595.43 691.329 595.954 693.059C597.058 696.747 598.658 700.269 600.71 703.527C601.673 705.335 603.045 706.893 604.715 708.078C604.917 708.172 605.132 708.233 605.352 708.26L605.148 709.921C604.972 710.266 604.931 710.664 605.034 711.036C604.852 712.925 604.67 714.791 604.51 716.68L604.283 716.407C603.668 715.679 602.781 714.791 601.62 713.608C600.46 712.425 599.094 711.059 597.752 709.626C596.409 708.192 595.021 706.69 593.86 705.279C592.7 703.868 591.721 702.571 591.038 701.592L589.946 700.045C589.946 700.045 590.082 700.75 590.378 701.911C590.778 703.457 591.272 704.977 591.858 706.462C592.627 708.38 593.556 710.23 594.634 711.992C595.673 713.725 596.893 715.342 598.275 716.817C599.253 717.842 600.319 718.778 601.461 719.616C602.052 720.057 602.714 720.396 603.418 720.617C603.679 720.684 603.953 720.684 604.215 720.617C604.033 723.12 603.896 725.623 603.782 728.104V729.674C603.213 729.014 602.485 728.24 601.507 727.285C599.231 725.009 595.817 722.324 593.086 720.071L588.239 716.088L589.081 717.704C589.627 718.705 590.401 719.98 591.357 721.596C593.292 724.871 595.582 727.923 598.184 730.698C599.489 732.201 601.104 733.404 602.917 734.225C603.135 734.267 603.359 734.267 603.577 734.225C603.577 737.821 603.464 741.439 603.577 745.058C602.781 744.193 601.643 743.078 600.027 741.621C597.069 738.913 592.927 735.636 589.605 732.883L583.688 727.967C583.688 727.967 584.12 728.696 584.848 729.856C585.577 731.017 586.623 732.655 587.898 734.408C590.561 738.238 593.611 741.784 597.001 744.989C598.675 746.762 600.667 748.205 602.872 749.245C603.163 749.317 603.468 749.317 603.759 749.245C603.759 752.431 604.01 755.617 604.237 758.78C602.872 757.547 601.444 756.385 599.959 755.298C596.728 752.886 592.29 750.019 588.717 747.584L582.391 743.26C582.391 743.26 582.868 743.943 583.711 745.058C584.553 746.173 585.759 747.652 587.17 749.313C590.159 752.878 593.507 756.127 597.16 759.007C599.001 760.605 601.123 761.848 603.418 762.671C603.595 762.746 603.784 762.784 603.976 762.784C604.167 762.784 604.357 762.746 604.533 762.671C605.244 771 606.429 779.282 608.083 787.476C608.265 788.455 609.722 788.091 609.563 787.112C608.425 780.285 607.469 773.458 606.741 766.631C607.001 766.606 607.255 766.537 607.492 766.426C609.439 765.177 611.188 763.643 612.68 761.875Z" fill="#5EAD41"/>
<path fill-rule="evenodd" clip-rule="evenodd" d="M223.597 708.726C223.731 708.726 223.77 707.493 224.385 706.778C225.441 705.58 228.901 706.867 227.19 708.815C226.691 709.369 226.018 709.798 226.056 709.834C226.407 709.741 226.768 709.687 227.133 709.673C230.015 709.673 229.477 714.14 226.095 712.979C225.538 712.8 225.653 712.8 225.922 713.247C226.191 713.694 226.249 713.729 226.422 714.015C226.59 714.283 226.642 714.601 226.567 714.903C226.492 715.205 226.296 715.47 226.018 715.642C225.172 716.16 223.674 716.071 223.328 715.088C223.181 714.677 223.09 714.251 223.059 713.819C222.847 712.139 223.52 716.071 220.618 715.999C219.407 715.999 218.466 715.034 219.869 713.533C220.067 713.307 220.285 713.098 220.522 712.907C220.829 712.675 220.849 712.621 220.522 712.729C219.977 712.88 219.395 712.88 218.85 712.729C218.139 712.479 217.736 710.745 218.197 709.905C218.889 708.69 220.118 709.137 220.906 709.369C221.694 709.601 221.944 709.548 221.098 709.083C220.809 708.925 220.532 708.745 220.272 708.547C218.197 706.903 222.194 704.472 223.251 707.296C223.501 707.975 223.597 708.672 223.674 708.654L223.597 708.726ZM222.79 709.816C222.424 710.084 222.962 710.423 223.27 710.28C223.577 710.137 223.27 709.423 222.79 709.816ZM224.481 710.352C224.154 709.798 223.808 709.566 223.597 710.352C223.462 710.852 223.424 711.585 224.154 711.353C224.252 711.316 224.341 711.259 224.413 711.187C224.485 711.115 224.538 711.028 224.57 710.934C224.601 710.84 224.609 710.74 224.594 710.642C224.578 710.545 224.54 710.452 224.481 710.37V710.352ZM222.424 710.584C221.694 710.906 221.906 711.549 222.424 711.549C223.712 711.549 223.251 710.209 222.424 710.584ZM223.039 711.71C222.079 712.157 223.039 712.532 223.904 712.193C224.769 711.853 224.058 711.281 223.039 711.71Z" fill="#A7CD7A"/>
<path fill-rule="evenodd" clip-rule="evenodd" d="M1369.91 502.504C1370.19 502.504 1370.31 499.475 1371.7 497.807C1374.06 494.943 1381.88 498.019 1377.99 502.739C1376.88 504.077 1375.35 505.087 1375.42 505.087C1376.19 504.867 1376.98 504.733 1377.78 504.688C1384.31 504.547 1383.06 515.489 1375.42 512.695C1374.2 512.249 1374.46 512.249 1375.05 513.329C1375.35 513.869 1375.8 514.503 1376.2 515.161C1376.57 515.813 1376.69 516.581 1376.52 517.312C1376.35 518.044 1375.9 518.684 1375.28 519.106C1373.37 520.35 1369.95 520.162 1369.18 517.791C1368.87 516.788 1368.68 515.757 1368.59 514.714C1368.11 510.676 1369.62 520.162 1363.09 519.998C1360.36 519.998 1358.24 517.65 1361.4 514.01C1361.85 513.475 1362.35 512.973 1362.88 512.507C1363.56 511.92 1363.59 511.803 1362.69 512.061C1361.49 512.491 1360.19 512.565 1358.94 512.272C1357.29 511.662 1356.4 507.576 1357.46 505.439C1358.99 502.504 1361.8 503.56 1363.56 504.148C1365.33 504.735 1365.92 504.57 1363.99 503.443C1363.33 503.074 1362.71 502.65 1362.13 502.175C1357.41 498.183 1366.42 492.313 1368.85 499.122C1369.43 500.79 1369.62 502.433 1369.81 502.433L1369.91 502.504ZM1368.07 505.134C1367.27 505.768 1368.47 506.59 1369.18 506.237C1369.88 505.885 1369.18 504.171 1368.07 505.134ZM1371.89 506.425C1371.13 505.063 1370.38 504.523 1369.91 506.425C1369.6 507.67 1369.51 509.407 1371.18 508.773C1371.4 508.682 1371.59 508.543 1371.74 508.369C1371.9 508.195 1372.02 507.988 1372.08 507.764C1372.15 507.54 1372.17 507.304 1372.13 507.073C1372.1 506.841 1372.02 506.62 1371.89 506.425ZM1367.29 506.989C1365.64 507.74 1366.09 509.337 1367.41 509.337C1370.31 509.337 1369.25 506.096 1367.29 506.989ZM1368.66 509.689C1366.49 510.769 1368.66 511.662 1370.59 510.863C1372.52 510.065 1370.66 508.562 1368.66 509.548V509.689Z" fill="#FFD885"/>
<path fill-rule="evenodd" clip-rule="evenodd" d="M1107.13 624.298C1107.57 624.298 1107.76 619.501 1109.93 616.862C1113.61 612.326 1125.82 617.196 1119.75 624.669C1118.02 626.789 1115.63 628.387 1115.74 628.387C1116.94 628.039 1118.17 627.827 1119.42 627.755C1129.6 627.532 1127.65 644.858 1115.74 640.434C1113.83 639.727 1114.23 639.727 1115.15 641.437C1115.63 642.293 1116.33 643.297 1116.95 644.338C1117.54 645.37 1117.71 646.587 1117.45 647.745C1117.18 648.902 1116.49 649.916 1115.52 650.584C1112.54 652.554 1107.21 652.257 1105.99 648.502C1105.52 646.914 1105.21 645.282 1105.07 643.631C1104.34 637.236 1106.69 652.257 1096.51 651.997C1092.24 651.997 1088.93 648.279 1093.86 642.516C1094.57 641.669 1095.35 640.874 1096.17 640.136C1097.24 639.207 1097.28 639.021 1095.88 639.43C1094 640.111 1091.97 640.227 1090.03 639.764C1087.46 638.798 1086.06 632.328 1087.72 628.945C1090.11 624.298 1094.48 625.971 1097.24 626.9C1100 627.83 1100.92 627.569 1097.9 625.785C1096.88 625.201 1095.91 624.529 1095 623.777C1087.64 617.456 1101.69 608.161 1105.48 618.944C1106.4 621.583 1106.69 624.186 1106.99 624.186L1107.13 624.298ZM1104.27 628.462C1103.01 629.466 1104.89 630.767 1105.99 630.209C1107.1 629.651 1105.99 626.937 1104.27 628.462ZM1110.22 630.507C1109.05 628.35 1107.87 627.495 1107.13 630.507C1106.66 632.477 1106.51 635.229 1109.12 634.225C1109.46 634.079 1109.76 633.86 1110 633.584C1110.25 633.308 1110.43 632.981 1110.53 632.627C1110.64 632.272 1110.66 631.898 1110.61 631.532C1110.56 631.166 1110.42 630.816 1110.22 630.507ZM1103.05 631.399C1100.48 632.589 1101.18 635.117 1103.24 635.117C1107.76 635.117 1106.1 629.986 1103.05 631.399ZM1105.18 635.675C1101.8 637.385 1105.18 638.798 1108.2 637.534C1111.22 636.27 1108.31 633.89 1105.18 635.452V635.675Z" fill="#FFD885"/>
<path fill-rule="evenodd" clip-rule="evenodd" d="M185.085 573.577C185.293 573.687 184.216 575.912 184.594 577.659C185.236 580.62 192.151 581.337 191.149 576.446C190.828 575.048 190.11 573.742 190.205 573.706C190.694 574.175 191.247 574.577 191.848 574.901C196.628 577.439 199.915 569.072 193.19 568.226C192.094 568.097 192.302 568.226 193.19 567.637C193.605 567.361 194.191 567.067 194.739 566.736C195.27 566.406 195.651 565.891 195.806 565.297C195.96 564.702 195.876 564.073 195.57 563.537C194.644 561.918 192.056 560.797 190.564 562.213C189.949 562.833 189.399 563.51 188.92 564.235C187.031 566.975 191.792 560.668 186.899 558.369C184.84 557.395 182.403 558.259 183.328 562.047C183.474 562.604 183.657 563.15 183.876 563.684C184.16 564.364 184.122 564.456 183.555 563.941C182.829 563.18 181.89 562.643 180.854 562.396C179.399 562.231 177.075 564.916 177.075 566.791C177.075 569.476 179.569 569.752 181.118 569.991C182.667 570.23 183.007 570.543 181.118 570.653C180.482 570.673 179.849 570.753 179.229 570.892C174.223 572.032 178.605 579.609 183.007 575.581C184.065 574.607 184.896 573.485 184.896 573.559L185.085 573.577ZM184.745 570.984C184.386 570.212 185.595 570.083 185.992 570.598C186.389 571.113 185.236 572.106 184.745 570.984ZM188.051 571.481C186.993 572.179 186.162 572.29 186.578 570.782C186.804 569.77 187.409 568.483 188.467 569.495C188.594 569.643 188.686 569.818 188.735 570.006C188.785 570.193 188.791 570.389 188.753 570.579C188.715 570.769 188.634 570.949 188.516 571.105C188.398 571.261 188.245 571.389 188.07 571.481H188.051ZM184.859 569.347C183.933 568.189 184.859 567.233 185.86 567.711C188.013 568.759 185.973 570.745 184.859 569.347ZM186.918 567.913C185.728 566.313 187.749 566.516 188.807 567.784C189.865 569.053 188.013 569.421 186.88 567.913H186.918Z" fill="#FFD885"/>
<path fill-rule="evenodd" clip-rule="evenodd" d="M417.651 643.334C418.04 644.46 418.457 645.504 419.201 645.941C420.91 646.98 422.64 646.065 423.569 644.466C423.678 644.301 423.706 644.328 423.513 644.274C422.604 644.003 421.832 643.538 421.418 643.072C420.782 642.36 419.732 641.071 420.139 639.447C420.653 637.354 423.125 636.547 424.312 637.725C425.803 639.205 425.92 640.882 425.872 642.587C425.872 642.642 425.819 643.138 425.846 643.137C425.846 643.137 426.011 643.137 426.039 643.137C426.561 643.135 427.056 643.023 427.44 642.746C428.071 642.304 428.673 641.504 428.89 640.76C429.107 640.044 429.078 639.522 429.243 639.494C429.38 639.466 429.711 639.849 429.632 640.73C429.528 642.105 428.793 644.226 426.649 644.427C426.319 644.456 425.961 644.485 425.631 644.514C425.549 644.514 425.494 644.514 425.467 644.624C424.488 647.488 421.746 649.782 418.772 648.693C418.945 650.865 418.926 653.121 418.715 655.377C418.11 662.393 416.91 665.175 413.441 671.212C410.163 676.946 406.145 683.535 406.788 686.172C407.794 690.267 405.406 691.569 407.158 696.567C407.325 697.034 408.073 698.462 407.859 699.893C407.591 701.709 404.105 703.538 403.168 703.019C402.727 702.801 402.494 699.556 400.724 696.922C399.673 695.331 395.835 691.578 393.237 688.205C392.546 687.3 391.914 687.688 391.671 688.652C390.478 693.194 385.614 694.313 384.539 700.836C384.405 701.662 382.373 702.495 380.558 702.529C378.66 702.591 378.903 701.353 379.255 699.811C379.579 698.407 379.93 696.701 380.118 695.435C380.709 691.94 380.418 687.788 378.603 687.822C373.57 687.952 367.986 687.588 362.896 687.168C362.015 687.089 361.99 687.667 362.378 688.353C362.932 689.341 363.595 690.108 363.984 691.234C364.735 693.322 364.014 698.853 362.976 700.727C362.211 702.078 360.178 702.718 358.72 702.641C357.895 702.59 358.03 701.956 357.831 700.252C357.09 693.489 354.796 690.83 351.646 686.992C350.126 685.127 349.741 685.046 347.572 686.017C344.002 687.599 339.852 688.385 338.053 692.463C337.426 693.895 337.295 695.491 336.946 697.693C336.811 698.463 336.291 699.153 333.548 701.061C332.478 701.808 331.841 700.435 331.556 697.989C330.816 691.501 333.557 682.084 337.039 679.375C334.308 677.075 330.852 672.55 328.203 670.278C320.559 663.679 316.013 668.895 307.987 655.999C306.797 654.079 302.238 648.678 300.063 648.164C296.016 647.19 298.796 640.468 300.109 638.785C301.478 637.02 302.196 637.952 303.739 638.551C307.568 640.021 315.784 638.174 318.56 637.586C312.077 632.523 313.082 629.438 312.677 624.242C312.561 622.592 312.168 620.696 312.69 620.419C313.376 620.086 315.17 621.784 316.852 622.85C321.071 625.502 327.658 628.997 335.614 630.974C346.058 629.145 351.02 632.124 359.902 631.539C379.177 630.254 400.593 620.71 413.192 635.431C415.485 638.089 416.593 640.093 417.678 643.334L417.651 643.334ZM424.084 642.649C424.084 642.649 424.167 642.704 424.194 642.621C424.355 641.521 424.185 640.393 423.743 639.735C423.024 638.72 421.319 638.809 422.207 640.841C422.54 641.583 423.257 642.24 424.084 642.649Z" fill="#F5AFB4"/>
<path fill-rule="evenodd" clip-rule="evenodd" d="M326.13 632.33C325.02 629.584 324.981 626.833 326.065 622.594C328.314 613.784 328.778 619.915 332.234 624.522C333.229 625.839 334.389 627.237 335.66 628.635C338.367 631.567 340.679 632.191 342.032 633.533C345.566 636.985 345.492 639.048 339.75 640.803C338.487 641.193 337.085 641.446 335.737 641.451C330.869 641.47 327.797 636.421 326.13 632.302L326.13 632.33Z" fill="#E7868C"/>
<mask id="mask0_182_11963" style="mask-type:alpha" maskUnits="userSpaceOnUse" x="325" y="618" width="20" height="24">
<path fill-rule="evenodd" clip-rule="evenodd" d="M326.13 632.33C325.02 629.584 324.981 626.833 326.065 622.594C328.314 613.784 328.778 619.915 332.234 624.522C333.229 625.839 334.389 627.237 335.66 628.635C338.367 631.567 340.679 632.191 342.032 633.533C345.566 636.985 345.492 639.048 339.75 640.803C338.487 641.193 337.085 641.446 335.737 641.451C330.869 641.47 327.797 636.421 326.13 632.302L326.13 632.33Z" fill="#E7868C"/>
</mask>
<g mask="url(#mask0_182_11963)">
<path fill-rule="evenodd" clip-rule="evenodd" d="M332.728 645.314C332.668 644.021 332.525 642.729 332.327 641.382C332.3 641.41 332.245 641.465 332.19 641.465C331.503 641.661 330.76 641.553 330.181 641.088C329.85 640.814 329.214 640.129 329.405 639.661C329.623 639.11 330.614 639.409 331.027 639.49C331.44 639.57 331.798 639.734 332.074 639.981C331.849 638.716 331.569 637.452 331.289 636.188C331.29 636.216 331.235 636.243 331.207 636.271C330.658 636.603 329.999 636.688 329.365 636.498C328.925 636.362 328.015 635.843 328.04 635.266C328.093 634.66 329.111 634.684 329.523 634.655C330.073 634.653 330.569 634.733 331.01 635.007C330.73 633.715 330.45 632.423 330.197 631.104C330.197 631.104 330.142 631.104 330.115 631.132C329.373 631.3 328.711 630.972 328.159 630.507C327.828 630.233 327.249 629.768 327.687 629.326C328.071 628.94 328.869 628.992 329.337 629.127C329.53 629.181 329.695 629.263 329.86 629.345C329.635 628.053 329.465 626.734 329.35 625.442C328.138 625.089 327.364 623.992 327.332 622.754C327.331 622.672 327.414 622.589 327.468 622.561C328.237 622.256 328.844 622.693 329.232 623.352C329.227 622.142 329.278 620.959 329.466 619.803L329.411 619.803C328.281 619.257 327.782 618.214 327.749 617.004C327.749 616.922 327.831 616.811 327.914 616.784C328.49 616.589 329.014 616.834 329.401 617.273C329.566 617.465 329.732 617.684 329.871 617.931C330.169 616.802 330.577 615.673 331.151 614.598C330.35 613.721 330.318 612.566 330.726 611.492C330.781 611.382 330.89 611.299 331 611.326C331.606 611.351 331.993 611.844 332.16 612.394C332.188 612.504 332.243 612.641 332.271 612.779C332.408 612.585 332.545 612.42 332.682 612.227C332.458 611.43 332.4 610.578 332.562 609.752C332.67 609.256 333.079 608.375 333.714 608.867C334.155 609.196 334.24 609.938 334.215 610.433C334.191 611.258 333.753 611.948 333.123 612.445C332.876 612.749 332.657 613.08 332.439 613.411C332.796 613.272 333.18 613.188 333.565 613.186C333.923 613.185 334.775 613.126 334.86 613.594C334.945 614.198 334.067 614.834 333.6 615.001C332.941 615.251 332.225 615.144 331.592 614.844C331.073 615.836 330.692 616.855 330.393 617.902C330.695 617.68 331.024 617.514 331.381 617.375C331.738 617.264 332.343 617.041 332.455 617.563C332.567 618.141 332.157 618.83 331.746 619.216C331.253 619.658 330.621 619.826 329.988 619.828C329.827 620.902 329.749 621.975 329.753 623.075C330.081 622.441 330.601 621.861 331.261 621.694C331.343 621.693 331.426 621.721 331.481 621.775C331.923 622.241 331.899 623.094 331.681 623.672C331.381 624.444 330.751 624.941 329.982 625.219C329.927 625.219 329.872 625.22 329.817 625.22C329.904 626.595 330.102 627.997 330.355 629.398C330.49 628.683 331.01 628.048 331.752 627.743C331.862 627.687 332.027 627.742 332.082 627.879C332.277 628.456 332.417 629.033 332.089 629.584C331.761 630.135 331.184 630.413 330.608 630.663C330.833 631.872 331.112 633.081 331.365 634.29C331.582 633.657 332.075 633.16 332.679 632.855C332.789 632.799 332.899 632.854 332.982 632.936C333.286 633.32 333.234 634.008 333.125 634.448C332.963 635.136 332.359 635.496 331.783 635.801C331.783 635.801 331.728 635.801 331.7 635.801C332.009 637.23 332.317 638.632 332.57 640.034C332.897 639.262 333.61 638.709 334.461 638.541C334.571 638.541 334.682 638.595 334.737 638.678C334.932 639.172 334.687 639.888 334.413 640.302C334.058 640.853 333.426 641.021 332.821 641.133L332.766 641.133C332.992 642.507 333.162 643.882 333.195 645.202C333.196 645.505 332.729 645.589 332.7 645.286L332.728 645.314Z" fill="#D1636E"/>
<path fill-rule="evenodd" clip-rule="evenodd" d="M336.569 636.195C336.927 636.194 337.201 635.918 337.199 635.56C337.198 635.203 336.922 634.929 336.564 634.93C336.207 634.932 335.933 635.208 335.934 635.565C335.935 635.923 336.212 636.197 336.569 636.195Z" fill="#D1636E"/>
<path fill-rule="evenodd" clip-rule="evenodd" d="M334.653 631.335C335.011 631.334 335.285 631.057 335.283 630.7C335.282 630.342 335.006 630.068 334.648 630.07C334.291 630.071 334.017 630.347 334.018 630.705C334.019 631.062 334.296 631.336 334.653 631.335Z" fill="#D1636E"/>
<path fill-rule="evenodd" clip-rule="evenodd" d="M338.794 635.554C339.151 635.552 339.425 635.276 339.424 634.919C339.423 634.561 339.146 634.287 338.789 634.289C338.431 634.29 338.157 634.566 338.159 634.924C338.16 635.281 338.436 635.555 338.794 635.554Z" fill="#D1636E"/>
<path fill-rule="evenodd" clip-rule="evenodd" d="M327.376 627.127C327.733 627.126 328.007 626.849 328.006 626.492C328.004 626.134 327.728 625.86 327.371 625.862C327.013 625.863 326.739 626.139 326.741 626.497C326.742 626.854 327.018 627.128 327.376 627.127Z" fill="#D1636E"/>
<path fill-rule="evenodd" clip-rule="evenodd" d="M338.663 637.04C339.02 637.039 339.294 636.763 339.293 636.405C339.292 636.047 339.016 635.773 338.658 635.775C338.3 635.776 338.026 636.052 338.028 636.41C338.029 636.767 338.305 637.041 338.663 637.04Z" fill="#D1636E"/>
</g>
<path fill-rule="evenodd" clip-rule="evenodd" d="M322.552 645.656C321.314 645.716 320.405 645.362 320.951 644.26C321.633 642.882 322.707 643.153 323.618 643.892C325.19 645.151 324.229 645.567 322.552 645.656Z" fill="#845B00"/>
<path fill-rule="evenodd" clip-rule="evenodd" d="M379.657 675.358C378.212 678.802 375.323 678.455 373.887 676.976C372.507 675.578 372.47 673.131 376.261 672.016C378.953 671.235 380.91 672.355 379.657 675.358ZM372.984 649.833C372.472 652.558 366.92 653.57 364.567 656.549C362.842 658.729 363.046 661.506 366.887 666.304C370.287 670.554 377.706 668.682 381.247 666.881C384.541 665.218 384.026 674.461 394.306 672.716C399.336 671.871 397.584 666.982 397.927 663.241C398.349 658.591 407.666 656.822 404.424 650.509C400.987 643.838 394.817 648.373 390.484 644.539C388.745 643.006 387.09 641.747 385.491 640.818C381.301 638.332 377.696 637.988 375.202 640.088C371.309 643.321 373.496 647.163 373.012 649.805L372.984 649.833ZM401.003 640.703C401.101 644.801 392.164 645.165 390.938 641.017C389.488 636.127 400.84 634.13 401.003 640.703Z" fill="#E7868C"/>
<mask id="mask1_182_11963" style="mask-type:alpha" maskUnits="userSpaceOnUse" x="363" y="636" width="43" height="43">
<path fill-rule="evenodd" clip-rule="evenodd" d="M379.657 675.358C378.212 678.802 375.323 678.455 373.887 676.976C372.507 675.578 372.47 673.131 376.261 672.016C378.953 671.235 380.91 672.355 379.657 675.358ZM372.984 649.833C372.472 652.558 366.92 653.57 364.567 656.549C362.842 658.729 363.046 661.506 366.887 666.304C370.287 670.554 377.706 668.682 381.247 666.881C384.541 665.218 384.026 674.461 394.306 672.716C399.336 671.871 397.584 666.982 397.927 663.241C398.349 658.591 407.666 656.822 404.424 650.509C400.987 643.838 394.817 648.373 390.484 644.539C388.745 643.006 387.09 641.747 385.491 640.818C381.301 638.332 377.696 637.988 375.202 640.088C371.309 643.321 373.496 647.163 373.012 649.805L372.984 649.833ZM401.003 640.703C401.101 644.801 392.164 645.165 390.938 641.017C389.488 636.127 400.84 634.13 401.003 640.703Z" fill="#E7868C"/>
</mask>
<g mask="url(#mask1_182_11963)">
<path fill-rule="evenodd" clip-rule="evenodd" d="M395.549 659.784C395.549 659.784 395.548 659.619 395.438 659.592C395.355 659.592 395.3 659.592 395.273 659.675C395.246 659.703 395.109 659.813 395.026 659.841C394.971 659.869 394.916 659.924 394.889 659.951C394.752 660.062 394.588 660.2 394.451 660.366C394.177 660.642 393.93 660.945 393.739 661.276C393.739 661.304 393.684 661.331 393.684 661.386C393.548 661.579 393.384 661.855 393.44 662.102C393.496 662.322 393.633 662.377 393.716 662.404C393.936 662.458 394.183 662.347 394.348 662.181C394.677 661.878 395.06 661.519 395.278 661.023C395.278 660.995 395.305 660.94 395.333 660.912C395.414 660.692 395.441 660.444 395.495 660.224C395.495 660.059 395.549 659.921 395.576 659.784L395.549 659.784ZM394.906 657.229C394.88 657.531 394.826 657.861 394.69 658.165C394.608 658.33 394.498 658.495 394.361 658.661C394.25 658.304 394.413 657.753 394.467 657.56C394.576 657.285 394.686 657.119 394.823 657.091C394.85 657.091 394.878 657.091 394.878 657.091C394.878 657.091 394.878 657.091 394.878 657.229L394.906 657.229ZM395.599 658.629C395.599 658.629 395.379 658.574 395.269 658.602C395.022 658.658 394.774 658.742 394.555 658.908C394.555 658.908 394.693 658.99 394.803 659.017C395.106 659.071 395.435 658.904 395.627 658.656L395.599 658.629ZM395.312 662.728C395.449 662.48 395.641 662.259 395.833 662.093C396.024 661.9 396.244 661.706 396.491 661.623C396.711 661.567 396.986 661.594 397.124 661.786C397.124 661.786 397.152 661.84 397.179 661.868C397.07 662.116 396.879 662.309 396.687 662.447C396.275 662.751 395.836 662.946 395.369 663.14L395.149 663.223C395.149 663.031 395.258 662.838 395.312 662.728ZM397.126 662.336C397.044 662.501 396.907 662.667 396.688 662.805C396.331 663.054 395.892 663.221 395.424 663.25C395.397 663.25 395.342 663.25 395.314 663.25C395.314 663.25 395.314 663.25 395.287 663.25L395.369 663.195C395.809 663.001 396.275 662.779 396.687 662.502C396.851 662.364 397.043 662.198 397.18 661.978C397.18 662.088 397.181 662.225 397.126 662.336ZM396.527 663.961C396.72 664.042 396.941 664.207 397.079 664.454C397.135 664.591 397.163 664.756 397.108 664.866C397.081 664.756 396.998 664.646 396.86 664.537C396.446 664.181 395.95 663.963 395.454 663.745C395.344 663.69 395.206 663.636 395.096 663.581C395.206 663.581 395.398 663.635 395.509 663.69C395.591 663.689 395.674 663.744 395.701 663.744C395.977 663.798 396.224 663.852 396.472 663.961L396.527 663.961ZM396.228 664.842C396.476 664.979 396.696 665.005 396.861 665.005C396.944 665.004 396.999 664.976 397.026 664.949C396.998 664.811 396.888 664.702 396.805 664.592C396.418 664.236 395.922 664.018 395.427 663.8C395.289 663.746 395.179 663.691 395.041 663.636C395.041 663.719 395.124 663.829 395.152 663.884C395.401 664.405 395.87 664.678 396.201 664.842L396.228 664.842ZM386.67 668.262C386.505 668.263 386.312 668.208 386.257 668.071C386.257 668.044 386.257 668.016 386.257 667.989C386.916 667.794 387.658 667.571 388.373 667.623C388.4 667.623 388.428 667.623 388.456 667.65C387.99 668.092 387.33 668.315 386.698 668.262L386.67 668.262ZM386.311 667.768C386.311 667.768 386.256 667.824 386.256 667.879C386.256 667.879 386.256 667.879 386.256 667.906C386.806 667.739 387.438 667.544 388.07 667.542C387.602 667.433 387.107 667.38 386.667 667.547C386.503 667.603 386.393 667.686 386.311 667.768ZM387.737 666.635C387.598 666.443 387.432 666.196 387.514 665.948C387.791 666.415 388.095 666.854 388.454 667.265C388.178 667.101 387.93 666.882 387.737 666.635ZM387.816 665.727C388.008 665.726 388.201 665.863 388.339 666.055C388.478 666.247 388.561 666.495 388.617 666.742C388.673 666.962 388.729 667.209 388.675 667.402C388.675 667.402 388.647 667.402 388.62 667.402C388.205 666.936 387.846 666.415 387.513 665.866C387.513 665.866 387.541 665.811 387.568 665.811C387.623 665.755 387.705 665.728 387.788 665.755L387.816 665.727ZM388.053 663.224C387.723 663.225 387.421 663.226 387.2 663.117C386.925 663.035 386.677 662.871 386.538 662.652C387.09 662.925 387.695 663.06 388.328 663.03C388.493 663.029 388.63 663.001 388.74 662.946C388.685 663.001 388.63 663.056 388.548 663.112C388.411 663.195 388.218 663.195 388.053 663.196L388.053 663.224ZM387.83 662.482C387.473 662.428 387.088 662.485 386.621 662.569C386.593 662.569 386.566 662.569 386.538 662.569C387.089 662.842 387.695 662.977 388.3 662.948C388.52 662.947 388.657 662.891 388.767 662.836C388.519 662.644 388.188 662.508 387.83 662.482ZM388.183 661.215L388.183 661.133C388.375 661.132 388.541 661.296 388.651 661.433C388.762 661.598 389.039 662.202 388.985 662.312C388.985 662.312 388.985 662.312 388.902 662.313C388.6 662.231 388.322 661.627 388.211 661.243L388.183 661.215ZM394.164 657.479C394.246 657.231 394.41 656.9 394.712 656.817C394.849 656.789 394.959 656.816 395.07 656.87C395.208 657.007 395.181 657.2 395.181 657.282C395.155 657.585 395.101 657.97 394.938 658.301C394.938 658.329 394.91 658.356 394.883 658.384C394.965 658.356 395.075 658.328 395.158 658.3C395.515 658.244 395.708 658.326 395.791 658.435C395.846 658.49 395.874 658.545 395.874 658.628C395.874 658.655 395.874 658.683 395.874 658.71C395.874 658.738 395.875 658.765 395.847 658.793C395.629 659.151 395.162 659.373 394.722 659.32C394.557 659.32 394.419 659.238 394.308 659.129C394.199 659.239 394.089 659.322 393.979 659.405C393.87 659.515 393.733 659.598 393.623 659.709C393.682 660.726 393.438 661.69 393.193 662.406C393.139 662.544 393.084 662.681 393.03 662.819C392.867 663.232 392.676 663.618 392.485 664.004C393.198 663.589 393.995 663.31 394.792 663.225C394.792 663.225 394.792 663.225 394.819 663.225C394.818 663.005 394.9 662.812 395.037 662.591C395.201 662.316 395.42 662.067 395.612 661.874C395.831 661.653 396.077 661.432 396.38 661.348C396.709 661.237 397.04 661.318 397.26 661.51C397.26 661.51 397.288 661.51 397.288 661.537C397.288 661.537 397.316 661.592 397.343 661.592C397.509 661.812 397.538 662.141 397.402 662.445C397.292 662.665 397.128 662.858 396.854 663.052C396.58 663.245 396.25 663.384 395.948 663.468C396.196 663.522 396.443 663.576 396.664 663.685C396.884 663.794 397.188 663.986 397.354 664.288C397.465 664.48 397.493 664.7 397.411 664.892C397.384 664.975 397.329 665.058 397.247 665.141C397.165 665.196 397.055 665.251 396.918 665.279C396.615 665.308 396.312 665.199 396.119 665.09C395.733 664.899 395.237 664.571 394.932 664.022C394.849 663.857 394.766 663.665 394.793 663.5C393.886 663.586 392.952 663.947 392.239 664.5C391.775 665.409 391.284 666.484 390.933 668.108C390.96 668.025 391.015 667.97 391.042 667.888C391.206 667.584 391.37 667.336 391.561 667.115C391.917 666.729 392.384 666.48 392.851 666.23C393.125 666.092 393.427 665.925 393.701 665.732C393.756 665.704 393.839 665.704 393.894 665.731C393.949 665.786 393.949 665.841 393.95 665.896C393.813 666.227 393.705 666.612 393.596 666.97C393.515 667.218 393.461 667.466 393.352 667.714C393.216 668.127 393.025 668.54 392.751 668.899C392.559 669.119 392.34 669.34 392.093 669.506C391.984 669.589 391.819 669.7 391.654 669.728C391.517 669.756 391.05 669.868 390.774 669.731C390.748 670.062 390.722 670.419 390.723 670.777C390.723 670.887 390.751 671.024 390.724 671.134C390.724 671.134 390.724 671.162 390.725 671.189C390.73 672.482 390.927 673.856 391.702 674.981C391.702 675.009 391.73 675.063 391.702 675.118C391.703 675.146 391.675 675.174 391.648 675.201C391.566 675.257 391.483 675.202 391.428 675.147C390.708 674.05 390.456 672.786 390.423 671.548C390.231 671.686 389.929 671.742 389.572 671.744C388.912 671.746 388.306 671.611 387.782 671.311C387.203 670.983 386.761 670.462 386.319 669.996C386.292 669.969 386.264 669.914 386.291 669.859C386.291 669.804 386.346 669.776 386.373 669.748C387.115 669.471 388.186 669.136 389.233 669.462C389.563 669.571 389.894 669.762 390.17 669.981C390.253 670.063 390.363 670.146 390.418 670.255C390.418 670.035 390.444 669.815 390.471 669.595C390.497 669.265 390.551 668.907 390.577 668.577L390.549 668.577C389.998 668.249 389.392 667.976 388.759 667.759C388.238 668.284 387.442 668.589 386.699 668.509C386.369 668.511 386.148 668.374 386.037 668.182C385.927 667.99 385.953 667.742 386.117 667.549C386.227 667.411 386.391 667.301 386.611 667.217C387.023 667.078 387.463 667.076 387.876 667.157C387.766 667.048 387.655 666.938 387.545 666.801C387.296 666.472 387.184 666.142 387.266 665.839C387.293 665.702 387.347 665.619 387.43 665.536C387.539 665.426 387.704 665.398 387.869 665.397C388.144 665.396 388.448 665.587 388.641 665.862C388.807 666.108 388.891 666.356 388.974 666.63C389.058 666.905 389.114 667.235 388.978 667.511C389.556 667.701 390.079 667.946 390.603 668.247C390.683 667.449 390.762 666.623 390.786 665.826C390.786 665.826 390.759 665.826 390.731 665.853C390.622 665.936 390.429 665.937 390.182 665.911C390.154 665.911 390.099 665.911 390.072 665.911C389.824 665.912 389.576 665.885 389.383 665.749C389.218 665.639 389.107 665.475 388.997 665.31C388.996 665.283 388.969 665.228 388.996 665.173C388.996 665.118 389.051 665.09 389.078 665.09L389.408 664.951C389.408 664.951 389.627 664.868 389.765 664.84C389.902 664.839 390.04 664.839 390.205 664.92C390.205 664.92 390.591 665.084 390.784 665.331C390.783 664.863 390.726 664.423 390.642 663.984C390.641 663.874 390.586 663.736 390.558 663.626C390.558 663.626 390.558 663.626 390.53 663.626C390.035 663.463 389.539 663.245 389.07 663C389.016 663.137 388.879 663.275 388.714 663.358C388.522 663.469 388.302 663.47 388.082 663.498C387.697 663.5 387.394 663.474 387.119 663.392C386.761 663.284 386.485 663.065 386.292 662.818C386.236 662.763 386.208 662.653 386.208 662.543C386.208 662.433 386.29 662.323 386.564 662.267C387.087 662.155 387.499 662.153 387.884 662.179C388.049 662.178 388.242 662.233 388.462 662.314C388.103 661.931 387.936 661.299 387.936 661.271C387.88 661.079 387.934 660.914 388.044 660.858C388.099 660.83 388.182 660.83 388.209 660.83C388.457 660.829 388.705 660.966 388.898 661.24C388.953 661.295 389.396 662.036 389.26 662.394C389.26 662.394 389.26 662.449 389.233 662.476C389.206 662.531 389.124 662.614 388.959 662.587C389.014 662.642 389.069 662.669 389.124 662.724C389.538 662.97 389.978 663.161 390.419 663.324C390.085 662.17 389.53 661.1 388.949 660.112C388.949 660.167 388.894 660.195 388.867 660.222C388.647 660.388 388.234 660.28 387.849 660.171L387.794 660.172C387.298 660.008 386.885 659.763 386.608 659.434C386.498 659.324 386.415 659.214 386.332 659.077C386.277 658.995 386.221 658.912 386.166 658.858C386.138 658.803 386.111 658.748 386.165 658.693C386.165 658.638 386.248 658.61 386.303 658.61C386.88 658.607 387.595 658.605 388.174 658.932C388.284 658.987 388.395 659.097 388.533 659.206C388.422 658.904 388.393 658.602 388.447 658.299C388.5 657.941 388.664 657.583 388.938 657.197C389.047 657.031 389.212 656.976 389.35 657.058C389.405 657.085 389.432 657.14 389.46 657.167C389.654 657.579 389.684 658.101 389.466 658.762C389.466 658.817 389.439 658.872 389.412 658.928C389.385 659.01 389.357 659.093 389.303 659.176C389.166 659.396 389.057 659.507 389.002 659.562C389.251 660.001 389.528 660.495 389.777 660.962C389.777 660.796 389.831 660.576 389.912 660.328C390.048 659.915 390.267 659.584 390.541 659.281C390.842 658.977 391.144 658.838 391.447 658.81C391.502 658.81 391.557 658.809 391.585 658.892C391.585 658.919 391.612 658.974 391.585 659.029C391.448 659.277 391.394 659.498 391.313 659.773C391.258 659.911 391.204 660.076 391.15 660.214C391.013 660.572 390.713 661.04 390.246 661.207C390.081 661.263 389.943 661.236 389.861 661.154C390.304 662.06 390.693 662.993 390.889 663.983C391.057 664.835 391.061 665.66 391.037 666.512C391.363 665.493 391.745 664.749 392.1 664.06C392.345 663.592 392.564 663.179 392.754 662.683C392.809 662.572 392.863 662.435 392.89 662.297C392.89 662.297 392.89 662.325 392.863 662.325C392.507 662.629 391.789 661.889 391.789 661.861C391.65 661.697 391.512 661.505 391.401 661.34C391.291 661.203 391.208 661.066 391.097 660.929C391.07 660.874 391.042 660.819 391.097 660.764C391.124 660.709 391.206 660.681 391.261 660.681C391.647 660.762 392.197 660.87 392.529 661.281C392.529 661.281 392.971 661.829 392.972 662.132C393.326 661.03 393.622 659.434 392.957 658.116C392.929 658.116 392.902 658.116 392.847 658.117C392.682 658.09 392.544 658.118 392.352 658.119C392.214 658.119 392.077 658.12 391.939 658.12C391.279 658.068 390.699 657.63 390.532 657.053C390.532 656.998 390.504 656.916 390.531 656.833C390.531 656.75 390.613 656.64 390.861 656.612C391.3 656.555 391.768 656.663 392.182 656.909C392.402 657.046 392.623 657.21 392.816 657.429C392.955 657.566 393.037 657.676 393.093 657.786C393.093 657.786 393.093 657.786 393.121 657.813C393.397 658.307 393.565 658.829 393.622 659.351C393.676 659.296 393.759 659.241 393.813 659.186C393.923 659.103 394.033 658.992 394.142 658.909C393.921 658.443 394.11 657.782 394.192 657.506L394.164 657.479ZM393.333 655.97C393.333 655.97 392.761 657.319 393.038 657.703C393.121 657.813 393.231 657.868 393.368 657.84C393.643 657.811 393.807 657.398 393.97 657.012L393.97 656.957C393.97 656.957 394.052 656.792 394.079 656.709C394.16 656.461 394.242 656.186 394.296 655.966C394.405 655.608 394.239 655.498 394.156 655.444C394.074 655.417 393.964 655.417 393.854 655.445C393.662 655.528 393.47 655.694 393.333 655.942L393.333 655.97Z" fill="#D1636E"/>
<path fill-rule="evenodd" clip-rule="evenodd" d="M386.661 637.348C387.046 637.484 387.213 637.978 387.05 638.336C386.859 638.75 386.391 638.779 385.979 638.781C385.896 638.754 385.813 638.699 385.731 638.644C385.51 638.425 385.509 638.095 385.618 637.819C385.781 637.406 386.22 637.185 386.633 637.348L386.661 637.348ZM386.52 643.482C386.905 643.618 387.072 644.112 386.909 644.47C386.718 644.884 386.25 644.913 385.838 644.915C385.755 644.887 385.672 644.833 385.59 644.778C385.369 644.559 385.367 644.229 385.476 643.953C385.64 643.54 386.079 643.318 386.52 643.482ZM381.206 656.154C381.015 656.567 380.547 656.597 380.135 656.598C380.052 656.571 379.969 656.517 379.887 656.462C379.666 656.243 379.664 655.913 379.773 655.637C379.937 655.224 380.376 655.002 380.789 655.166C381.175 655.302 381.342 655.796 381.178 656.154L381.206 656.154ZM385.526 649.756C385.335 650.17 384.868 650.199 384.455 650.201C384.373 650.174 384.29 650.119 384.207 650.064C383.986 649.845 383.985 649.515 384.094 649.239C384.258 648.826 384.697 648.605 385.11 648.768C385.496 648.904 385.662 649.398 385.499 649.757L385.526 649.756ZM383.51 654.742C383.896 654.878 384.063 655.373 383.899 655.731C383.708 656.144 383.241 656.174 382.828 656.175C382.746 656.148 382.663 656.093 382.58 656.039C382.359 655.82 382.358 655.49 382.467 655.214C382.576 654.911 382.85 654.718 383.153 654.689C383.18 654.689 383.208 654.689 383.263 654.688C383.345 654.688 383.428 654.688 383.51 654.742ZM380.476 652.306C380.285 652.72 379.817 652.749 379.405 652.751C379.322 652.724 379.239 652.669 379.157 652.614C378.936 652.395 378.934 652.065 379.043 651.789C379.207 651.376 379.646 651.154 380.059 651.318C380.445 651.454 380.612 651.948 380.448 652.307L380.476 652.306ZM380.561 645.87C380.37 646.284 379.902 646.313 379.49 646.314C379.407 646.287 379.324 646.233 379.242 646.178C379.021 645.959 379.019 645.629 379.128 645.353C379.292 644.94 379.731 644.718 380.144 644.882C380.53 645.018 380.697 645.512 380.533 645.87L380.561 645.87ZM380.593 640.012C380.402 640.425 379.934 640.454 379.522 640.456C379.439 640.429 379.357 640.374 379.274 640.319C379.053 640.1 379.052 639.77 379.161 639.495C379.324 639.082 379.763 638.86 380.176 639.023C380.562 639.159 380.729 639.654 380.565 640.012L380.593 640.012ZM381.732 628.896C381.955 629.665 382.206 630.434 382.374 631.204C382.46 632.001 382.545 632.798 382.603 633.568C381.453 635.003 380.47 636.739 380.12 638.556C379.459 638.448 378.828 638.891 378.803 639.579C378.805 639.991 378.972 640.376 379.275 640.594C379.302 640.594 379.33 640.622 379.358 640.649C379.385 640.649 379.413 640.676 379.468 640.704C380.019 640.922 380.706 640.699 380.951 640.12C381.196 639.542 380.946 638.91 380.395 638.637C381.021 637.067 381.676 635.607 382.661 634.255C382.806 636.235 382.869 638.215 382.821 640.196C381.616 641.356 380.604 642.79 380.17 644.414C380.17 644.414 380.17 644.414 380.142 644.414C379.482 644.279 378.796 644.722 378.771 645.437C378.773 645.85 378.939 646.234 379.243 646.453C379.27 646.453 379.298 646.48 379.325 646.508C379.353 646.507 379.381 646.535 379.436 646.562C379.987 646.78 380.673 646.557 380.919 645.979C381.136 645.428 380.914 644.824 380.445 644.55C381.073 643.173 381.783 641.96 382.797 640.883C382.799 641.516 382.746 642.149 382.694 642.754C382.616 643.909 382.483 645.065 382.322 646.193C381.144 647.491 380.243 649.117 380.057 650.878C380.057 650.878 380.03 650.878 380.002 650.878C379.342 650.743 378.656 651.186 378.631 651.901C378.633 652.314 378.799 652.698 379.103 652.917C379.13 652.917 379.158 652.944 379.185 652.972C379.213 652.971 379.241 652.999 379.296 653.026C379.847 653.244 380.533 653.021 380.779 652.443C381.024 651.892 380.774 651.233 380.25 650.987C380.657 649.5 381.23 648.15 382.188 646.964C381.785 649.578 381.245 652.138 380.678 654.753C380.017 654.646 379.386 655.089 379.361 655.776C379.363 656.189 379.529 656.573 379.833 656.792C379.86 656.792 379.888 656.819 379.916 656.847C379.943 656.847 379.971 656.874 380.026 656.901C380.577 657.119 381.264 656.897 381.509 656.318C381.754 655.739 381.504 655.08 380.925 654.835C381.334 653.706 381.659 652.522 381.93 651.338C382.318 652.327 382.652 653.288 382.931 654.332C382.437 654.417 382.053 654.803 382.028 655.353C382.029 655.766 382.196 656.15 382.499 656.369C382.527 656.369 382.554 656.396 382.582 656.424C382.609 656.424 382.637 656.451 382.692 656.478C383.243 656.696 383.93 656.474 384.175 655.895C384.448 655.261 384.06 654.493 383.371 654.33C383.289 654.331 383.234 654.331 383.151 654.331C382.981 653.094 382.619 651.803 382.065 650.705C382.524 648.613 382.791 646.494 382.975 644.403C383.805 645.638 384.36 646.901 384.723 648.357C384.146 648.359 383.652 648.801 383.627 649.406C383.629 649.819 383.795 650.203 384.099 650.422C384.099 650.422 384.154 650.449 384.182 650.477C384.209 650.477 384.237 650.504 384.292 650.531C384.843 650.749 385.529 650.527 385.775 649.948C386.047 649.314 385.659 648.546 384.971 648.383C384.971 648.383 384.916 648.384 384.888 648.384C384.772 646.734 384.078 644.976 383 643.715C382.999 643.413 383.053 643.083 383.079 642.78C383.183 641.349 383.233 639.891 383.227 638.434C384.415 639.832 385.136 641.424 385.803 643.127C385.364 643.239 385.007 643.625 384.982 644.12C384.984 644.533 385.15 644.917 385.453 645.136C385.481 645.136 385.509 645.163 385.536 645.191C385.564 645.191 385.591 645.218 385.646 645.245C386.197 645.463 386.884 645.241 387.129 644.662C387.402 644.028 387.041 643.26 386.326 643.097C386.243 643.098 386.133 643.098 386.051 643.099C385.685 641.092 384.523 639.226 383.169 637.746C383.164 636.344 383.076 634.969 382.933 633.594C382.933 633.429 382.932 633.292 382.931 633.127C384.365 634.111 385.251 635.373 385.834 637.021C385.422 637.16 385.094 637.519 385.096 638.014C385.097 638.427 385.264 638.811 385.567 639.03C385.595 639.03 385.622 639.057 385.65 639.085C385.677 639.084 385.705 639.112 385.76 639.139C386.311 639.357 386.998 639.134 387.243 638.556C387.516 637.895 387.128 637.154 386.439 636.991C386.329 636.992 386.247 636.964 386.137 636.992C385.8 635.206 384.5 633.451 382.874 632.604C382.787 631.285 382.479 629.938 382.007 628.84C381.868 628.51 381.374 628.677 381.485 629.034L381.732 628.896Z" fill="#D1636E"/>
<path fill-rule="evenodd" clip-rule="evenodd" d="M368.688 648.612C369.1 648.39 369.539 648.168 369.812 647.782C370.086 647.396 370.084 646.818 369.862 646.352C370.191 646.02 370.519 645.689 370.848 645.358C370.58 647.229 370.395 649.127 370.32 651.026C369.964 651.384 369.635 651.798 369.307 652.185C369.279 652.13 369.224 652.102 369.196 652.048C368.727 651.637 367.931 651.942 367.575 652.356C367.164 652.826 367.001 653.459 366.839 654.037C366.595 655.056 366.324 656.047 366.08 657.065C366.489 656.046 367.311 655.19 368.299 654.636C368.71 654.415 369.15 654.193 369.423 653.807C369.669 653.448 369.695 652.898 369.5 652.459C369.774 652.183 370.048 651.879 370.295 651.603C370.22 653.666 370.256 655.756 370.374 657.819C369.992 658.563 369.609 659.28 369.2 660.024C368.676 659.751 367.99 660.193 367.717 660.662C367.389 661.186 367.337 661.846 367.311 662.451C367.233 663.497 367.182 664.542 367.104 665.56C367.347 664.459 368.003 663.494 368.853 662.775C369.209 662.472 369.621 662.195 369.812 661.782C370.03 661.313 369.89 660.681 369.531 660.27C369.859 659.691 370.159 659.085 370.431 658.479C370.461 658.946 370.518 659.413 370.547 659.881C370.662 661.063 370.804 662.245 371.001 663.427C370.368 663.512 370.097 664.311 370.154 664.861C370.211 665.493 370.571 666.042 370.93 666.563C371.511 667.441 372.092 668.319 372.701 669.196C372.202 668.181 372.142 666.998 372.386 665.897C372.494 665.429 372.629 664.961 372.545 664.494C372.433 663.972 371.881 663.534 371.331 663.453C371.19 662.464 371.076 661.474 370.989 660.484C371.127 660.649 371.266 660.813 371.404 660.978C371.186 661.474 371.271 662.133 371.63 662.517C371.961 662.873 372.429 663.009 372.87 663.172C373.917 663.581 374.855 664.32 375.436 665.28C375.02 664.292 374.631 663.331 374.214 662.342C373.965 661.765 373.715 661.161 373.246 660.751C372.832 660.395 372.033 660.205 371.622 660.619C371.401 660.373 371.153 660.154 370.932 659.907C370.76 658.092 370.698 656.277 370.663 654.462C370.802 654.737 370.968 655.039 371.162 655.313C370.916 655.809 370.946 656.496 371.306 656.908C371.609 657.264 372.105 657.4 372.546 657.59C373.593 658.026 374.503 658.765 375.057 659.753C374.668 658.765 374.307 657.776 373.918 656.787C373.696 656.211 373.446 655.579 372.976 655.168C372.59 654.84 371.874 654.595 371.408 654.954C371.131 654.515 370.882 654.076 370.633 653.61C370.629 652.73 370.653 651.822 370.705 650.942C370.704 650.887 370.704 650.859 370.704 650.804C370.755 649.786 370.834 648.768 370.94 647.75C371.106 648.025 371.3 648.326 371.466 648.601C371.082 649.07 371.03 649.84 371.39 650.306C371.666 650.69 372.135 650.881 372.548 651.099C373.54 651.646 374.396 652.467 374.84 653.511L374.003 650.461C373.836 649.857 373.641 649.225 373.227 648.759C372.895 648.403 372.234 648.13 371.767 648.352C371.518 647.968 371.242 647.584 370.993 647.227C371.073 646.512 371.18 645.796 371.287 645.081C371.394 644.31 371.556 643.512 371.691 642.742C371.857 643.044 372.023 643.373 372.217 643.675C371.751 644.117 371.672 644.997 372.031 645.491C372.308 645.875 372.776 646.065 373.189 646.284C374.182 646.83 375.038 647.652 375.482 648.695C375.203 647.679 374.924 646.662 374.645 645.646C374.477 645.041 374.282 644.409 373.868 643.943C373.564 643.614 372.986 643.369 372.546 643.481C372.297 643.069 372.075 642.63 371.826 642.219C372.042 641.173 372.286 640.154 372.529 639.135C372.583 638.888 372.225 638.751 372.171 638.999C371.656 640.899 371.251 642.798 370.928 644.752C370.49 645.167 370.051 645.581 369.613 645.995C369.613 645.995 369.585 645.968 369.558 645.94C369.088 645.53 368.292 645.835 367.936 646.249C367.525 646.718 367.363 647.351 367.2 647.93C366.956 648.948 366.685 649.94 366.442 650.958C366.85 649.939 367.672 649.083 368.66 648.529L368.688 648.612Z" fill="#D1636E"/>
<path fill-rule="evenodd" clip-rule="evenodd" d="M401.298 652.858C402.177 652.58 402.2 651.507 402.2 651.479L402.2 651.424C402.2 651.397 401.536 650.547 400.657 650.825C400.41 650.909 400.19 651.02 399.999 651.185C400.08 650.937 400.134 650.69 400.133 650.442C400.13 649.507 399.138 649.181 399.083 649.154L399.028 649.154C398.973 649.154 397.984 649.515 397.988 650.451C397.989 650.698 398.045 650.973 398.128 651.193C397.935 651.028 397.687 650.919 397.439 650.838C396.558 650.566 395.929 651.394 395.901 651.449L395.902 651.504C395.902 651.559 395.906 652.604 396.815 652.875C397.063 652.957 397.31 652.984 397.585 652.982C397.366 653.121 397.174 653.314 397.037 653.507C396.49 654.252 397.098 655.13 397.126 655.157C397.126 655.157 397.154 655.184 397.181 655.184C397.346 655.239 397.539 655.265 397.704 655.265C398.474 655.262 398.885 654.793 399.102 654.077C399.325 654.818 399.739 655.257 400.509 655.254C400.674 655.253 400.867 655.253 401.032 655.169C401.032 655.169 401.087 655.169 401.087 655.142C401.086 655.114 401.716 654.232 401.163 653.491C400.997 653.299 400.831 653.107 400.611 652.971C400.858 652.97 401.133 652.969 401.38 652.858L401.298 652.858Z" fill="#D1636E"/>
<path fill-rule="evenodd" clip-rule="evenodd" d="M393.207 623.406C393.239 624.478 393.381 625.578 393.55 626.705C393.55 626.677 393.605 626.65 393.66 626.622C394.237 626.455 394.87 626.562 395.339 626.918C395.615 627.137 396.14 627.712 395.976 628.126C395.785 628.594 394.959 628.35 394.629 628.268C394.299 628.187 393.996 628.051 393.747 627.859C393.944 628.904 394.168 629.975 394.392 631.047C394.392 631.047 394.42 630.992 394.475 630.992C394.941 630.715 395.491 630.63 396.014 630.793C396.399 630.902 397.171 631.339 397.118 631.834C397.065 632.329 396.213 632.333 395.883 632.334C395.415 632.336 395.002 632.255 394.644 632.036C394.868 633.136 395.12 634.207 395.344 635.307C395.344 635.307 395.371 635.306 395.399 635.306C396.003 635.167 396.582 635.439 397.024 635.823C397.3 636.069 397.796 636.452 397.413 636.811C397.084 637.143 396.424 637.09 396.011 636.982C395.845 636.927 395.708 636.873 395.57 636.791C395.767 637.89 395.908 638.99 395.995 640.062C397.014 640.361 397.65 641.293 397.682 642.338C397.682 642.421 397.627 642.476 397.572 642.504C396.913 642.754 396.417 642.371 396.084 641.822C396.088 642.84 396.037 643.83 395.903 644.793C395.903 644.793 395.931 644.793 395.958 644.793C396.923 645.257 397.339 646.135 397.343 647.153C397.343 647.235 397.288 647.318 397.206 647.346C396.712 647.513 396.298 647.322 395.967 646.938C395.829 646.774 395.69 646.582 395.58 646.39C395.336 647.353 394.982 648.29 394.49 649.199C395.153 649.939 395.185 650.929 394.858 651.811C394.831 651.921 394.721 651.976 394.611 651.949C394.088 651.924 393.757 651.513 393.617 651.045C393.589 650.936 393.561 650.826 393.534 650.716C393.424 650.881 393.315 651.019 393.205 651.185C393.4 651.844 393.458 652.586 393.296 653.247C393.187 653.66 392.86 654.404 392.336 653.993C391.977 653.72 391.893 653.115 391.918 652.675C391.943 651.987 392.299 651.408 392.847 650.994C393.038 650.718 393.258 650.469 393.421 650.194C393.119 650.305 392.79 650.389 392.46 650.39C392.157 650.391 391.442 650.449 391.386 650.037C391.301 649.514 392.069 648.989 392.454 648.85C393.003 648.655 393.608 648.735 394.132 648.981C394.569 648.154 394.895 647.272 395.139 646.391C394.893 646.585 394.618 646.724 394.316 646.835C394.014 646.946 393.52 647.113 393.435 646.673C393.351 646.178 393.679 645.6 394.008 645.296C394.419 644.937 394.941 644.77 395.491 644.795C395.625 643.887 395.704 642.979 395.7 642.071C395.427 642.622 394.989 643.092 394.44 643.231C394.357 643.232 394.302 643.232 394.247 643.149C393.888 642.738 393.912 642.023 394.076 641.555C394.321 640.921 394.869 640.479 395.501 640.257C395.556 640.256 395.583 640.256 395.638 640.256C395.551 639.101 395.382 637.919 395.184 636.737C395.077 637.343 394.639 637.867 394.007 638.117C393.897 638.145 393.76 638.118 393.732 638.008C393.565 637.541 393.453 637.047 393.726 636.578C393.999 636.109 394.494 635.887 394.96 635.666C394.764 634.649 394.54 633.632 394.316 632.615C394.125 633.138 393.742 633.58 393.193 633.83C393.111 633.858 393 633.83 392.945 633.776C392.696 633.447 392.722 632.869 392.83 632.511C392.966 631.933 393.459 631.628 393.981 631.379C393.981 631.379 394.009 631.379 394.036 631.379C393.784 630.169 393.504 628.988 393.307 627.806C393.035 628.467 392.431 628.91 391.717 629.05C391.634 629.05 391.524 629.023 391.496 628.941C391.33 628.529 391.52 627.923 391.766 627.592C392.067 627.151 392.589 627.011 393.111 626.899C393.111 626.899 393.139 626.899 393.166 626.899C392.969 625.744 392.854 624.59 392.795 623.462C392.794 623.187 393.206 623.131 393.207 623.406Z" fill="#D1636E"/>
<path fill-rule="evenodd" clip-rule="evenodd" d="M379.336 663.45C380.299 663.337 381.621 663.937 382.53 664.263C382.613 664.345 382.75 664.29 382.777 664.207C382.777 664.207 382.777 664.207 382.777 664.152C382.772 662.942 382.685 661.76 382.598 660.55C382.873 660.549 383.175 660.355 383.284 660.107C383.447 659.749 383.281 659.31 382.977 659.091C382.867 659.009 382.784 658.981 382.564 658.982C382.234 658.984 381.905 659.177 381.796 659.535C381.688 659.921 381.882 660.36 382.268 660.496C382.268 660.496 382.295 660.496 382.323 660.496C382.38 661.183 382.438 661.871 382.468 662.558C382.469 662.861 382.553 663.19 382.499 663.493C382.5 663.548 382.5 663.603 382.5 663.658C381.974 662.863 381.394 662.122 380.731 661.41C380.786 661.355 380.813 661.299 380.84 661.244C380.977 660.941 380.893 660.584 380.672 660.337C380.479 660.146 380.231 660.092 379.984 660.147C379.709 660.204 379.462 660.397 379.381 660.7C379.272 661.085 379.466 661.525 379.852 661.661C380.072 661.742 380.347 661.714 380.539 661.576C381.202 662.288 381.81 663.056 382.336 663.851C382.253 663.852 382.143 663.797 381.978 663.743C381.179 663.498 380.16 663.035 379.28 663.148C379.252 663.093 379.225 663.011 379.169 662.956C379.114 662.874 379.059 662.819 378.976 662.764C378.976 662.764 378.893 662.71 378.811 662.71C378.756 662.71 378.673 662.71 378.646 662.711C378.536 662.711 378.453 662.711 378.343 662.739C378.096 662.795 377.877 662.989 377.795 663.264C377.687 663.649 377.881 664.089 378.267 664.225C378.652 664.361 379.091 664.166 379.255 663.808C379.31 663.698 379.337 663.56 379.309 663.423L379.336 663.45Z" fill="#D1636E"/>
<path fill-rule="evenodd" clip-rule="evenodd" d="M375.341 675.815C375.698 675.814 375.972 675.538 375.971 675.18C375.969 674.823 375.693 674.549 375.336 674.55C374.978 674.552 374.704 674.828 374.706 675.185C374.707 675.543 374.983 675.817 375.341 675.815Z" fill="#D1636E"/>
<path fill-rule="evenodd" clip-rule="evenodd" d="M377.057 643.381C377.415 643.379 377.689 643.103 377.688 642.746C377.686 642.388 377.41 642.114 377.053 642.116C376.695 642.117 376.421 642.393 376.422 642.751C376.424 643.108 376.7 643.382 377.057 643.381Z" fill="#D1636E"/>
<path fill-rule="evenodd" clip-rule="evenodd" d="M377.315 674.406C377.673 674.405 377.947 674.129 377.945 673.771C377.944 673.414 377.668 673.14 377.31 673.141C376.953 673.142 376.679 673.419 376.68 673.776C376.682 674.134 376.958 674.408 377.315 674.406Z" fill="#D1636E"/>
<path fill-rule="evenodd" clip-rule="evenodd" d="M388.534 652.496C388.892 652.495 389.166 652.219 389.164 651.861C389.163 651.504 388.887 651.23 388.529 651.231C388.172 651.232 387.898 651.508 387.899 651.866C387.9 652.224 388.176 652.497 388.534 652.496Z" fill="#D1636E"/>
<path fill-rule="evenodd" clip-rule="evenodd" d="M377.184 676.33C377.542 676.329 377.816 676.053 377.815 675.695C377.813 675.338 377.537 675.064 377.179 675.065C376.822 675.066 376.548 675.342 376.549 675.7C376.551 676.058 376.827 676.332 377.184 676.33Z" fill="#D1636E"/>
</g>
</svg>
