<svg width="375" height="812" viewBox="0 0 375 812" fill="none" xmlns="http://www.w3.org/2000/svg">
<g clip-path="url(#clip0_182_21470)">
<path fill-rule="evenodd" clip-rule="evenodd" d="M351.128 545.816C350.548 542.438 350.167 539.03 349.989 535.607C350.097 535.695 350.233 535.742 350.372 535.739C351.291 535.802 352.212 535.651 353.062 535.297C353.912 534.944 354.669 534.397 355.272 533.702C355.978 532.841 357.208 530.766 356.464 529.609C355.72 528.452 353.197 529.629 352.227 530.084C351.299 530.513 350.474 531.137 349.808 531.913C349.706 528.594 349.699 525.218 349.685 521.809L349.889 521.765C350.636 522.055 351.435 522.19 352.235 522.16C353.036 522.13 353.822 521.937 354.546 521.593C355.596 521.014 357.586 519.169 357.275 517.707C356.964 516.244 354.235 516.789 353.174 516.979C351.83 517.183 350.583 517.796 349.6 518.734C349.592 515.181 349.626 511.833 349.537 508.404L349.741 508.36C350.669 508.323 351.574 508.061 352.379 507.599C353.184 507.137 353.867 506.488 354.367 505.706C355.025 504.784 356.275 503.309 354.88 502.433C354.176 502.171 353.422 502.07 352.673 502.137C351.925 502.204 351.2 502.437 350.554 502.82C350.129 503.053 349.736 503.34 349.384 503.673C349.239 500.149 348.994 496.824 348.538 493.509C349.898 492.74 350.984 491.566 351.645 490.152C352.306 488.737 352.51 487.151 352.228 485.615C352.186 485.511 352.121 485.418 352.037 485.343C351.953 485.269 351.854 485.214 351.745 485.184C350.81 485.075 349.868 485.323 349.109 485.881C348.35 486.438 347.831 487.262 347.655 488.187C347.066 485.16 346.22 482.188 345.126 479.305C346.302 478.366 347.181 477.109 347.66 475.683C348.139 474.257 348.196 472.724 347.826 471.266C347.786 471.145 347.712 471.039 347.613 470.959C347.514 470.879 347.394 470.829 347.268 470.816C346.547 470.755 345.825 470.92 345.202 471.288C344.579 471.656 344.087 472.209 343.794 472.87C343.44 473.475 343.159 474.119 342.957 474.79C341.521 472.02 339.776 469.422 337.755 467.045C338.427 465.759 338.727 464.311 338.62 462.864C338.514 461.417 338.005 460.029 337.151 458.856C337.061 458.732 336.936 458.638 336.792 458.586C336.647 458.535 336.491 458.527 336.343 458.565C335.637 458.801 335.026 459.257 334.599 459.866C334.171 460.476 333.951 461.206 333.969 461.949C334.034 462.255 333.903 462.639 333.9 462.959L332.583 461.782C332.738 459.622 332.363 457.456 331.49 455.474C330.95 454.274 329.406 452.362 328.061 453.893C327.69 454.528 327.464 455.238 327.398 455.97C327.333 456.703 327.43 457.441 327.682 458.132C327.955 459.123 328.443 460.041 329.113 460.821C329.783 461.6 330.617 462.222 331.556 462.64C332.351 463.28 333.113 463.961 333.839 464.679C332.838 464.527 331.82 464.54 330.824 464.715C329.906 464.911 327.693 465.204 327.654 466.527C327.616 467.85 330.36 469.222 331.779 469.204C333.581 469.379 335.381 468.843 336.795 467.711C338.613 469.918 340.195 472.31 341.512 474.848C340.646 474.431 339.712 474.172 338.754 474.084C337.729 473.946 336.117 473.721 336.134 475.139C336.257 475.932 336.563 476.686 337.03 477.34C337.496 477.994 338.109 478.53 338.819 478.904C340.293 479.706 342.015 479.924 343.642 479.514C344.63 482.164 345.434 484.879 346.046 487.641C344.919 486.216 343.28 485.289 341.479 485.057C341.365 485.06 341.255 485.096 341.162 485.16C341.068 485.224 340.995 485.314 340.951 485.418C340.615 486.213 340.489 487.08 340.584 487.937C340.679 488.795 340.993 489.613 341.495 490.315C342.086 491.161 342.853 491.87 343.743 492.392C344.633 492.914 345.626 493.238 346.654 493.341C346.783 493.347 346.912 493.319 347.028 493.261C347.522 496.874 347.833 500.51 347.958 504.154C347.593 503.262 347.008 502.476 346.258 501.871C345.507 501.266 344.616 500.861 343.666 500.694C343.584 500.677 343.498 500.677 343.416 500.694C343.333 500.711 343.254 500.745 343.185 500.793C343.115 500.84 343.056 500.902 343.011 500.973C342.966 501.045 342.936 501.125 342.922 501.208C342.738 501.957 342.726 502.737 342.886 503.491C343.047 504.245 343.375 504.952 343.848 505.561C345.057 506.649 346.583 507.321 348.202 507.479C348.275 510.663 348.287 513.895 348.257 517.1C347.79 516.361 347.181 515.722 346.464 515.222C345.747 514.721 344.937 514.369 344.082 514.185C343.941 514.161 343.796 514.183 343.669 514.249C343.542 514.314 343.439 514.419 343.377 514.548C343.185 515.199 343.129 515.882 343.211 516.555C343.293 517.228 343.512 517.878 343.854 518.463C344.298 519.189 344.899 519.806 345.613 520.269C346.327 520.733 347.135 521.03 347.979 521.141L348.183 521.097C348.174 524.903 348.159 528.674 348.299 532.341C347.655 531.462 346.806 530.755 345.825 530.282C344.844 529.808 343.761 529.584 342.673 529.627C342.528 529.631 342.389 529.685 342.28 529.779C342.17 529.874 342.097 530.003 342.072 530.146C342.052 530.886 342.192 531.622 342.484 532.303C342.776 532.983 343.213 533.592 343.763 534.087C345.042 535.074 346.656 535.522 348.26 535.335L348.43 535.299C348.587 538.853 348.96 542.394 349.547 545.903C349.721 546.719 350.981 546.629 350.849 545.839L351.128 545.816Z" fill="#265113"/>
<path fill-rule="evenodd" clip-rule="evenodd" d="M407.697 374.046C404.811 367.797 401.559 361.724 397.956 355.86C397.876 356.128 397.705 356.36 397.471 356.515C396.023 357.665 394.327 358.464 392.518 358.847C390.709 359.231 388.835 359.189 387.045 358.725C384.897 358.105 380.499 356.074 380.412 353.313C380.325 350.551 385.838 349.624 387.961 349.272C389.986 348.925 392.062 349.017 394.048 349.543C390.435 343.935 386.601 338.344 382.741 332.688L382.354 332.848C381.449 334.179 380.281 335.31 378.923 336.173C377.564 337.036 376.044 337.612 374.454 337.866C372.058 338.105 366.665 337.319 365.514 334.546C364.362 331.772 369.497 329.566 371.47 328.671C373.924 327.478 376.686 327.071 379.38 327.505C375.348 321.617 371.477 316.117 367.719 310.343L367.332 310.503C365.754 311.498 363.959 312.096 362.101 312.249C360.242 312.402 358.374 312.104 356.655 311.382C354.518 310.605 350.769 309.59 352.079 306.552C352.946 305.316 354.078 304.29 355.393 303.548C356.707 302.806 358.171 302.367 359.677 302.264C360.645 302.166 361.622 302.192 362.583 302.343C358.81 296.348 355.428 290.569 352.406 284.565C349.281 284.841 346.148 284.137 343.442 282.55C340.737 280.962 338.594 278.571 337.311 275.709C337.262 275.489 337.264 275.261 337.318 275.042C337.371 274.823 337.474 274.619 337.619 274.447C339.041 273.2 340.883 272.539 342.773 272.596C344.663 272.653 346.462 273.425 347.805 274.755C345.331 269.077 343.346 263.198 341.872 257.182C338.859 256.967 335.971 255.888 333.556 254.075C331.14 252.262 329.298 249.791 328.251 246.958C328.179 246.712 328.18 246.452 328.252 246.207C328.325 245.962 328.467 245.744 328.661 245.577C329.784 244.655 331.166 244.105 332.615 244.005C334.065 243.905 335.509 244.259 336.748 245.018C338.022 245.615 339.22 246.362 340.318 247.242C339.539 241.024 339.467 234.738 340.103 228.504C337.526 227.143 335.381 225.089 333.909 222.573C332.438 220.058 331.698 217.182 331.774 214.269C331.782 213.961 331.883 213.664 332.062 213.414C332.242 213.164 332.492 212.974 332.781 212.868C334.217 212.455 335.748 212.513 337.148 213.034C338.549 213.555 339.745 214.511 340.562 215.763C340.803 216.343 341.457 216.827 341.827 217.354L342.665 213.907C339.947 210.51 338.101 206.5 337.288 202.227C336.813 199.626 337.191 194.706 341.16 195.705C342.497 196.334 343.679 197.25 344.622 198.387C345.564 199.525 346.245 200.856 346.615 202.287C347.293 204.237 347.53 206.312 347.31 208.365C347.089 210.417 346.417 212.396 345.34 214.157C344.754 216.122 344.269 218.115 343.886 220.129C345.368 218.739 347.067 217.6 348.915 216.756C350.657 216.033 354.651 213.997 356.223 216.143C357.794 218.288 354.815 223.683 352.448 225.27C349.665 227.611 346.078 228.774 342.451 228.513C341.955 234.235 342.064 239.993 342.775 245.692C343.733 244.016 344.984 242.524 346.467 241.287C348.006 239.892 350.416 237.682 352.003 240.048C352.704 241.5 353.055 243.097 353.029 244.709C353.002 246.322 352.598 247.906 351.85 249.335C350.325 252.34 347.724 254.662 344.566 255.837C345.949 261.346 347.713 266.753 349.845 272.018C350.087 268.379 351.742 264.978 354.458 262.543C354.649 262.419 354.872 262.353 355.1 262.352C355.327 262.352 355.55 262.416 355.742 262.539C357.203 263.471 358.4 264.762 359.219 266.288C360.038 267.815 360.451 269.526 360.42 271.258C360.406 273.331 359.945 275.377 359.066 277.255C358.188 279.134 356.915 280.8 355.332 282.141C355.125 282.297 354.88 282.399 354.623 282.435C357.92 288.975 361.547 295.343 365.491 301.514C365.078 299.623 365.151 297.657 365.703 295.802C366.255 293.946 367.269 292.261 368.65 290.903C368.767 290.781 368.908 290.683 369.064 290.617C369.22 290.551 369.388 290.516 369.558 290.517C369.728 290.517 369.896 290.551 370.052 290.618C370.208 290.685 370.348 290.783 370.466 290.905C371.622 291.934 372.531 293.211 373.125 294.641C373.718 296.07 373.981 297.616 373.892 299.161C373.131 302.338 371.372 305.188 368.873 307.293C372.379 312.642 376.041 318.003 379.741 323.272C379.671 321.517 379.952 319.766 380.568 318.121C381.184 316.477 382.122 314.971 383.327 313.693C383.533 313.493 383.799 313.365 384.084 313.329C384.368 313.293 384.657 313.35 384.907 313.491C385.966 314.349 386.837 315.415 387.468 316.622C388.1 317.829 388.477 319.153 388.577 320.512C388.669 322.218 388.378 323.923 387.725 325.503C387.072 327.082 386.074 328.495 384.803 329.639L384.416 329.8C388.765 336.085 393.086 342.306 397.031 348.531C397.094 346.345 397.694 344.207 398.778 342.307C399.862 340.407 401.397 338.802 403.247 337.635C403.491 337.476 403.782 337.407 404.071 337.438C404.36 337.47 404.629 337.601 404.832 337.809C405.709 339.01 406.315 340.387 406.606 341.846C406.898 343.304 406.87 344.809 406.523 346.255C405.531 349.343 403.372 351.922 400.506 353.441L400.183 353.574C403.971 359.633 407.387 365.916 410.413 372.389C411.055 373.937 408.867 375.224 408.186 373.767L407.697 374.046Z" fill="#92D660"/>
<path fill-rule="evenodd" clip-rule="evenodd" d="M2.08616 339.087C0.806385 333.897 -0.402416 326.923 -1.43576 321.208L-3.33468 311.153L-1.85793 313.72C-0.976528 315.331 0.308037 317.604 1.56935 320.228C4.40733 325.747 6.65687 331.55 8.28087 337.54C8.80177 339.584 9.21452 341.653 9.51742 343.74C11.85 340.481 14.1373 337.195 16.334 333.856C15.9147 333.674 15.5646 333.362 15.3343 332.967C13.8539 330.164 12.8309 327.142 12.304 324.015C11.0242 318.824 9.84185 311.805 8.78199 306.135L6.88306 296.08L8.35985 298.648C9.26778 300.213 10.4805 302.505 11.8136 305.11C14.6288 310.652 16.8689 316.468 18.4987 322.468C19.0311 324.522 19.4352 326.608 19.7087 328.712C22.3608 324.18 25.2846 319.807 27.9366 315.274C26.717 314.865 25.0656 312.803 21.9818 306.436C18.0869 297.54 14.8098 288.385 12.1738 279.037C17.9235 286.876 23.1247 295.103 27.7403 303.66C28.8898 305.871 29.8625 308.169 30.6494 310.534L31.2329 309.537C31.2486 309.273 31.3264 309.016 31.4601 308.787C31.5937 308.559 31.7794 308.365 32.0019 308.222L34.5214 303.916C35.317 302.557 36.1126 301.197 36.6553 299.75C36.2949 299.839 35.9157 299.814 35.5705 299.677C35.2254 299.541 34.9315 299.3 34.7297 298.989C33.194 296.495 32.0563 293.776 31.3578 290.931C29.9034 286.247 28.4669 279.87 27.1872 274.68L24.9733 265.475L26.5186 267.718C27.5061 269.147 28.7608 271.159 30.136 273.485C33.1571 278.371 35.6138 283.584 37.4587 289.025C38.1214 291.025 38.6308 293.072 38.9825 295.149C40.6998 291.591 42.4171 288.033 44.0438 284.421C43.002 283.812 41.4898 282.136 39.1319 275.463C36.3311 266.772 34.1514 257.893 32.6094 248.892C37.3197 256.724 41.4651 264.884 45.014 273.307C45.7473 275.379 46.3227 276.994 46.7059 278.313C46.763 278.165 46.8436 278.027 46.9446 277.905C46.8727 277.6 46.8778 277.282 46.9594 276.979C47.041 276.676 47.1966 276.399 47.4121 276.171L47.7038 275.672C48.7051 273.338 49.7671 270.795 50.5905 268.661C49.4084 268.395 48.2022 266.716 46.3348 260.452C44.3542 252.467 43.012 244.337 42.3209 236.139C46.2545 243.322 49.598 250.813 52.3185 258.538L53.1334 261.509C54.358 258.17 55.5372 254.803 56.6711 251.411C55.4017 251.398 54.18 249.953 52.1902 242.34C50.5346 233.735 49.5385 225.016 49.2106 216.259C52.9514 224.183 56.0816 232.381 58.5738 240.782C58.8741 241.931 59.1104 242.982 59.2826 243.934C59.9016 242.045 60.547 240.111 61.1206 238.195C60.0789 237.586 59.7389 235.257 61.0733 227.885C62.9549 219.06 65.455 210.378 68.5549 201.903C68.7026 211.04 68.1927 220.176 67.029 229.241L66.442 232.426C72.1668 227.718 78.2524 223.467 84.6426 219.712C80.3219 226.126 75.4528 232.153 70.0904 237.725C64.4222 243.048 63.0247 242.838 61.9156 241.824C60.8324 245.754 59.6321 249.675 58.3413 253.544C59.181 252.94 60.2361 252.28 61.5332 251.518C65.9979 249.106 70.7697 247.313 75.7171 246.189C78.0604 245.613 80.1086 245.229 81.609 244.951L84.0086 244.591L81.9701 245.893L77.0081 249.073C73.1013 251.594 68.4642 254.843 64.7695 257.001C62.6441 258.442 60.2908 259.512 57.809 260.169C57.5234 260.21 57.232 260.182 56.9597 260.086C56.6874 259.991 56.4425 259.83 56.2458 259.619C55.4413 261.825 54.5914 264.005 53.7681 266.14C53.7958 266.488 53.744 266.839 53.6165 267.165C53.4889 267.491 53.2891 267.783 53.0321 268.021C52.2695 269.948 51.5335 271.829 50.7257 273.729C51.6295 273.224 52.6768 272.68 53.9397 272.081C57.9701 270.18 63.4556 267.975 67.8905 266.007C70.1664 265.026 72.1551 264.121 73.6224 263.276L75.9514 262.205L74.252 264.071C73.1394 265.245 71.6256 266.793 69.7716 268.507C65.8905 272.134 61.5318 275.213 56.8169 277.658C54.4274 279.095 51.7372 279.958 48.9583 280.178C48.6447 280.171 48.3366 280.094 48.0557 279.955C47.6579 280.634 47.2866 281.269 46.8888 281.949C46.8654 282.211 46.7843 282.465 46.6514 282.692C46.5184 282.919 46.3369 283.114 46.1198 283.263C45.092 285.643 43.9207 288.061 42.8288 290.342L43.2862 290.184C44.5601 289.773 46.2118 289.34 48.4192 288.685C50.6267 288.03 53.2307 287.424 55.6005 286.803C57.9703 286.182 60.9036 285.221 63.1531 284.286C65.4025 283.351 67.5989 282.507 69.2021 281.741L71.5576 280.625C71.5576 280.625 71.0537 281.486 69.7599 282.554C68.192 284.112 66.5399 285.583 64.811 286.96C62.5451 288.681 60.1545 290.231 57.6592 291.597C55.1433 292.908 52.4961 293.949 49.7618 294.703C47.9085 295.276 45.9991 295.648 44.0666 295.812C43.0419 295.949 42.0009 295.897 40.9953 295.658C40.6311 295.568 40.3008 295.375 40.0442 295.101C38.2938 298.093 36.9058 301.296 35.2836 304.484C34.9123 305.119 34.541 305.753 34.1963 306.343C35.3265 305.97 36.7628 305.593 38.5581 305.123C42.9574 304.046 48.8261 303.16 53.6066 302.368L62.0561 301.228C62.0561 301.228 61.2694 301.741 59.9005 302.522C58.5316 303.303 56.7163 304.431 54.5762 305.49C49.9828 308.002 45.1253 309.996 40.0929 311.436C37.4797 312.318 34.7073 312.626 31.965 312.338C31.6743 312.255 31.4094 312.1 31.195 311.887C28.6756 316.193 26.1561 320.499 23.6367 324.805C25.1978 324.319 27.3257 323.8 30.2357 323.19C35.6515 322.039 42.8956 320.985 48.7455 320.027L59.187 318.288L56.5022 319.759C54.8195 320.661 52.4375 321.822 49.6964 323.078C43.8784 325.798 37.8038 327.93 31.5629 329.443C28.3452 330.38 24.9802 330.702 21.644 330.392C21.2556 330.27 20.8997 330.061 20.6023 329.783C18.4011 333.545 15.8564 337.167 13.3834 340.769C15.87 340.247 18.3847 339.87 20.9148 339.64C26.3902 339.01 33.6596 338.64 39.8066 338.525L50.322 337.803C50.322 337.803 49.3277 338.255 47.5168 338.96C45.706 339.665 43.2864 340.683 40.3984 341.67C34.3688 343.823 28.1355 345.354 21.7956 346.239C18.4763 346.931 15.0573 346.994 11.7156 346.425C11.1784 346.342 10.693 346.058 10.3568 345.63C3.718 355.067 -3.46189 364.111 -11.1467 372.717C-11.8097 373.85 -13.5186 372.303 -12.6479 371.23C-6.56848 363.958 -0.721786 356.528 4.89219 348.943C4.60692 348.746 4.36014 348.499 4.16419 348.213C3.02771 345.29 2.32753 342.215 2.08616 339.087Z" fill="#265113"/>
<path fill-rule="evenodd" clip-rule="evenodd" d="M31.319 174.869C31.1216 174.974 32.1446 177.098 31.7857 178.766C31.1755 181.592 24.607 182.276 25.5581 177.607C25.8632 176.273 26.5452 175.027 26.4555 174.992C25.9905 175.44 25.4652 175.824 24.8941 176.133C20.3536 178.555 17.2308 170.568 23.6199 169.761C24.6608 169.638 24.4634 169.761 23.6199 169.199C23.2251 168.936 22.6687 168.655 22.1482 168.339C21.6439 168.024 21.2814 167.533 21.1346 166.965C20.9879 166.398 21.068 165.797 21.3586 165.285C22.238 163.74 24.6967 162.669 26.1145 164.021C26.6981 164.613 27.2211 165.26 27.6759 165.952C29.4705 168.567 24.9479 162.547 29.5962 160.352C31.5524 159.422 33.8675 160.247 32.9881 163.863C32.8496 164.394 32.6757 164.916 32.4676 165.425C32.1984 166.075 32.2343 166.163 32.7727 165.671C33.4625 164.945 34.3547 164.432 35.3391 164.197C36.721 164.039 38.9285 166.601 38.9285 168.392C38.9285 170.955 36.5595 171.218 35.0879 171.446C33.6162 171.674 33.2932 171.973 35.0879 172.078C35.6922 172.097 36.2933 172.173 36.8825 172.306C41.6384 173.394 37.4748 180.626 33.2932 176.782C32.2882 175.852 31.4985 174.781 31.4985 174.851L31.319 174.869ZM31.6421 172.394C31.9831 171.657 30.8345 171.534 30.4576 172.025C30.0807 172.517 31.1755 173.465 31.6421 172.394ZM28.5014 172.868C29.5064 173.535 30.2961 173.64 29.9012 172.201C29.6859 171.235 29.1116 170.007 28.1066 170.972C27.9856 171.114 27.8985 171.281 27.8515 171.46C27.8045 171.639 27.7989 171.826 27.835 172.007C27.871 172.189 27.948 172.36 28.0601 172.509C28.1723 172.658 28.3169 172.78 28.4835 172.868H28.5014ZM31.5344 170.832C32.4138 169.726 31.5344 168.813 30.5832 169.269C28.5373 170.27 30.4755 172.166 31.5344 170.832ZM29.5782 169.463C30.7088 167.935 28.7885 168.129 27.7835 169.34C26.7785 170.551 28.5373 170.902 29.6141 169.463H29.5782Z" fill="#5EAD41"/>
<path fill-rule="evenodd" clip-rule="evenodd" d="M296.149 373.205C296.024 373.27 296.67 374.585 296.444 375.617C296.058 377.366 291.91 377.79 292.51 374.9C292.703 374.074 293.134 373.302 293.077 373.281C292.783 373.558 292.452 373.796 292.091 373.987C289.223 375.486 287.251 370.542 291.286 370.042C291.944 369.966 291.819 370.042 291.286 369.695C291.037 369.532 290.685 369.358 290.357 369.162C290.038 368.967 289.809 368.663 289.717 368.312C289.624 367.96 289.675 367.588 289.858 367.272C290.413 366.315 291.966 365.653 292.862 366.489C293.23 366.856 293.561 367.256 293.848 367.685C294.981 369.304 292.125 365.576 295.061 364.218C296.296 363.642 297.758 364.153 297.203 366.391C297.116 366.72 297.006 367.043 296.874 367.359C296.704 367.761 296.727 367.815 297.067 367.511C297.503 367.061 298.066 366.744 298.688 366.598C299.561 366.5 300.955 368.087 300.955 369.195C300.955 370.781 299.459 370.944 298.529 371.086C297.6 371.227 297.396 371.412 298.529 371.477C298.911 371.489 299.291 371.536 299.663 371.618C302.666 372.292 300.037 376.769 297.396 374.389C296.761 373.813 296.262 373.15 296.262 373.194L296.149 373.205ZM296.353 371.672C296.568 371.216 295.843 371.14 295.605 371.444C295.367 371.749 296.058 372.335 296.353 371.672ZM294.369 371.966C295.004 372.379 295.503 372.444 295.253 371.553C295.117 370.955 294.755 370.195 294.12 370.792C294.044 370.88 293.989 370.983 293.959 371.094C293.929 371.205 293.926 371.321 293.948 371.433C293.971 371.546 294.02 371.652 294.091 371.744C294.161 371.836 294.253 371.912 294.358 371.966H294.369ZM296.285 370.705C296.84 370.021 296.285 369.456 295.684 369.738C294.392 370.358 295.616 371.531 296.285 370.705ZM295.049 369.858C295.763 368.912 294.551 369.032 293.916 369.782C293.281 370.531 294.392 370.749 295.072 369.858H295.049Z" fill="#5EAD41"/>
<path fill-rule="evenodd" clip-rule="evenodd" d="M40.0453 111.013C39.7769 111.263 39.588 111.586 39.5022 111.943C39.4164 112.299 39.4375 112.673 39.5628 113.018C39.5628 113.018 39.5628 113.018 39.6185 113.091C39.9183 113.299 40.2725 113.415 40.6374 113.424C41.0023 113.433 41.3618 113.335 41.6715 113.142C41.9252 112.943 42.1434 112.702 42.3167 112.43C42.3073 112.75 42.3565 113.069 42.462 113.371C42.617 113.703 42.8662 113.984 43.1786 114.176C43.4911 114.369 43.8532 114.466 44.2202 114.455L44.2955 114.465C44.5875 114.244 44.8079 113.941 44.9293 113.596C45.0506 113.25 45.0675 112.876 44.9779 112.521C44.8669 112.218 44.7054 111.937 44.5001 111.688C44.8084 111.791 45.1329 111.835 45.4574 111.819C45.8191 111.776 46.1599 111.627 46.4363 111.389C46.7127 111.152 46.9122 110.838 47.0093 110.487C47.0239 110.46 47.0281 110.43 47.0211 110.401C46.9028 110.053 46.6842 109.749 46.393 109.526C46.1017 109.303 45.7509 109.171 45.3847 109.147C45.0662 109.156 44.7522 109.225 44.4586 109.349C44.6493 109.092 44.7927 108.804 44.8819 108.497C44.9526 108.138 44.9163 107.767 44.7776 107.428C44.6388 107.09 44.4038 106.8 44.1015 106.594C44.075 106.58 44.0446 106.576 44.0154 106.582C43.7929 106.596 43.5733 106.64 43.3622 106.712C42.9673 106.848 42.6346 107.122 42.4244 107.484C42.2141 107.845 42.1403 108.269 42.2162 108.68C42.0135 108.329 41.6952 108.058 41.3154 107.914C40.9356 107.77 40.5178 107.762 40.1328 107.891C39.9229 107.964 39.7245 108.066 39.5435 108.194C39.5368 108.205 39.5325 108.218 39.5307 108.231C39.529 108.244 39.5298 108.257 39.5332 108.269C39.4246 108.62 39.4222 108.994 39.5262 109.346C39.6302 109.697 39.8359 110.01 40.1175 110.245C40.3818 110.423 40.6758 110.552 40.9857 110.627C40.6822 110.725 40.396 110.871 40.1377 111.058L40.0453 111.013ZM44.1709 114.174C43.8681 114.183 43.5693 114.104 43.3108 113.946C43.0523 113.788 42.8452 113.558 42.7148 113.285C42.5002 112.504 42.552 111.675 42.8621 110.927C43.0719 111.384 43.2416 111.858 43.3694 112.344C43.3918 112.37 43.4226 112.386 43.4562 112.391C43.4898 112.395 43.5239 112.388 43.5523 112.369C43.5695 112.364 43.5853 112.355 43.5987 112.342C43.6122 112.33 43.6229 112.316 43.6303 112.299C43.6378 112.283 43.6417 112.265 43.6418 112.247C43.6419 112.228 43.6382 112.211 43.6311 112.194L43.1642 110.881C43.4014 111.054 43.6512 111.209 43.9116 111.345C44.2868 111.668 44.57 112.085 44.7324 112.553C44.8037 112.847 44.7888 113.155 44.6894 113.441C44.5901 113.726 44.4106 113.977 44.1724 114.164L44.1709 114.174ZM45.3846 109.388C45.6869 109.413 45.9757 109.525 46.2165 109.709C46.4574 109.893 46.6402 110.143 46.7434 110.428C46.6618 110.713 46.5013 110.968 46.2804 111.165C46.0596 111.361 45.7874 111.491 45.4956 111.54C44.6887 111.5 43.9176 111.194 43.3027 110.67C43.7992 110.61 44.3 110.594 44.7993 110.623C44.8328 110.617 44.8635 110.601 44.8867 110.577C44.9099 110.552 44.9243 110.52 44.9275 110.487C44.9229 110.452 44.9073 110.42 44.8831 110.395C44.8589 110.37 44.8274 110.354 44.7931 110.348L43.3962 110.387C43.6384 110.222 43.8627 110.032 44.0653 109.821C44.4798 109.574 44.9464 109.428 45.4277 109.394L45.3846 109.388ZM42.5687 107.786C42.811 106.976 43.7914 106.858 43.9723 106.817C44.221 106.99 44.4146 107.231 44.5298 107.511C44.645 107.791 44.677 108.098 44.6219 108.396C44.3297 109.148 43.8046 109.786 43.1235 110.218C43.1235 110.218 43.1102 110.315 43.5294 108.772C43.5348 108.756 43.5366 108.74 43.535 108.723C43.5333 108.706 43.5281 108.69 43.5198 108.675C43.5114 108.661 43.5001 108.648 43.4865 108.638C43.473 108.628 43.4575 108.621 43.441 108.618C43.4091 108.609 43.3752 108.612 43.3453 108.626C43.3154 108.64 43.2913 108.664 43.2772 108.694L42.8859 110.032C42.7946 109.758 42.6848 109.49 42.5573 109.231C42.4404 108.756 42.4444 108.259 42.5687 107.786ZM42.8344 110.408C42.8665 110.397 42.9018 110.399 42.9325 110.414C42.9633 110.428 42.9872 110.454 42.9992 110.486C43.0048 110.502 43.0071 110.52 43.006 110.537C43.0048 110.555 43.0003 110.572 42.9925 110.588C42.9848 110.604 42.974 110.618 42.9608 110.629C42.9476 110.641 42.9323 110.65 42.9157 110.655C42.8991 110.661 42.8816 110.663 42.8641 110.662C42.8466 110.661 42.8295 110.656 42.8137 110.649C42.798 110.641 42.784 110.63 42.7724 110.617C42.7608 110.604 42.752 110.588 42.7463 110.572C42.7413 110.555 42.7396 110.538 42.7413 110.521C42.743 110.504 42.748 110.487 42.7562 110.472C42.7644 110.457 42.7756 110.443 42.789 110.432C42.8024 110.421 42.8179 110.413 42.8344 110.408ZM40.1758 109.979C40.0345 109.912 39.9094 109.815 39.8091 109.694C39.7089 109.574 39.6357 109.434 39.5948 109.283C39.5539 109.132 39.5462 108.973 39.5721 108.819C39.598 108.665 39.6571 108.518 39.7451 108.388C39.8331 108.259 39.9481 108.15 40.0822 108.069C40.2163 107.988 40.3662 107.938 40.5218 107.92C40.6773 107.903 40.8348 107.919 40.9834 107.968C41.1321 108.017 41.2683 108.098 41.3828 108.205C42.0152 108.711 42.4625 109.411 42.6551 110.198C42.6551 110.198 42.7431 110.275 41.4112 109.359C41.3908 109.346 41.3676 109.337 41.3434 109.334C41.3192 109.33 41.2946 109.332 41.2713 109.34C41.2497 109.35 41.231 109.365 41.2169 109.384C41.2028 109.404 41.1937 109.426 41.1906 109.449C41.1912 109.475 41.1978 109.5 41.2099 109.523C41.2221 109.545 41.2394 109.565 41.2605 109.58L42.4013 110.371C42.1092 110.367 41.8172 110.386 41.528 110.427C41.0473 110.391 40.5829 110.237 40.1758 109.979ZM42.4843 110.645C42.4843 110.645 42.5791 110.593 41.2615 111.574C41.2478 111.584 41.2363 111.597 41.2277 111.612C41.219 111.627 41.2134 111.643 41.211 111.66C41.2087 111.677 41.2098 111.694 41.2141 111.711C41.2185 111.728 41.2261 111.743 41.2365 111.757C41.2457 111.772 41.2582 111.785 41.273 111.794C41.2878 111.804 41.3045 111.81 41.322 111.812C41.3395 111.815 41.3573 111.813 41.3741 111.808C41.3909 111.803 41.4064 111.794 41.4193 111.782L42.532 110.937C42.4375 111.216 42.3688 111.504 42.3268 111.796C42.1343 112.239 41.8406 112.631 41.4692 112.939C41.3614 113.054 41.2299 113.144 41.0837 113.203C40.9375 113.262 40.7802 113.289 40.6228 113.281C40.4653 113.273 40.3115 113.231 40.1719 113.158C40.0324 113.084 39.9105 112.982 39.8147 112.856C39.7189 112.731 39.6515 112.587 39.6173 112.433C39.583 112.279 39.5827 112.119 39.6163 111.965C39.6499 111.811 39.7167 111.666 39.8119 111.541C39.9072 111.415 40.0287 111.312 40.1679 111.238C40.8483 110.779 41.6669 110.569 42.4843 110.645Z" fill="#5EAD41"/>
<path fill-rule="evenodd" clip-rule="evenodd" d="M298.976 151.511C298.145 152.284 297.561 153.285 297.295 154.388C297.03 155.491 297.095 156.648 297.483 157.714C297.483 157.714 297.483 157.714 297.655 157.941C298.583 158.585 299.679 158.944 300.808 158.972C301.937 158.999 303.049 158.696 304.007 158.098C304.792 157.483 305.467 156.738 306.004 155.897C305.974 156.886 306.127 157.872 306.453 158.806C306.933 159.836 307.704 160.702 308.671 161.298C309.637 161.895 310.758 162.195 311.893 162.161L312.126 162.193C313.03 161.508 313.712 160.572 314.087 159.502C314.463 158.432 314.515 157.275 314.238 156.176C313.894 155.24 313.395 154.369 312.76 153.6C313.713 153.917 314.718 154.055 315.721 154.006C316.841 153.873 317.895 153.41 318.75 152.675C319.606 151.941 320.223 150.969 320.523 149.882C320.569 149.801 320.582 149.706 320.56 149.616C320.194 148.542 319.517 147.6 318.616 146.909C317.715 146.219 316.63 145.811 315.497 145.737C314.511 145.766 313.54 145.978 312.631 146.362C313.221 145.568 313.665 144.676 313.941 143.727C314.16 142.617 314.047 141.466 313.618 140.419C313.189 139.372 312.461 138.474 311.526 137.837C311.444 137.794 311.35 137.781 311.26 137.8C310.571 137.845 309.892 137.98 309.239 138.202C308.017 138.625 306.987 139.473 306.337 140.59C305.686 141.708 305.458 143.022 305.693 144.293C305.065 143.205 304.081 142.367 302.905 141.922C301.73 141.477 300.437 141.452 299.246 141.852C298.597 142.076 297.983 142.392 297.423 142.789C297.402 142.824 297.389 142.862 297.383 142.902C297.378 142.942 297.381 142.983 297.391 143.022C297.055 144.105 297.048 145.264 297.369 146.352C297.691 147.44 298.328 148.408 299.199 149.134C300.017 149.685 300.927 150.085 301.885 150.316C300.946 150.621 300.061 151.072 299.262 151.652L298.976 151.511ZM311.741 161.292C310.804 161.319 309.879 161.074 309.08 160.585C308.28 160.097 307.639 159.386 307.235 158.54C306.571 156.126 306.732 153.559 307.691 151.246C308.34 152.659 308.866 154.126 309.261 155.63C309.33 155.709 309.426 155.76 309.529 155.774C309.633 155.789 309.739 155.765 309.827 155.708C309.88 155.69 309.929 155.662 309.97 155.624C310.012 155.587 310.045 155.541 310.068 155.49C310.091 155.439 310.103 155.384 310.104 155.328C310.104 155.272 310.093 155.216 310.07 155.165L308.626 151.102C309.36 151.638 310.133 152.118 310.939 152.538C312.1 153.538 312.976 154.827 313.478 156.275C313.699 157.185 313.653 158.138 313.345 159.022C313.038 159.906 312.483 160.683 311.745 161.259L311.741 161.292ZM315.496 146.482C316.432 146.56 317.325 146.905 318.07 147.476C318.816 148.047 319.381 148.819 319.701 149.702C319.448 150.582 318.951 151.372 318.268 151.98C317.585 152.589 316.743 152.991 315.84 153.14C313.343 153.017 310.957 152.071 309.055 150.449C310.591 150.264 312.14 150.215 313.685 150.303C313.789 150.287 313.884 150.237 313.956 150.161C314.028 150.085 314.072 149.987 314.082 149.883C314.068 149.776 314.019 149.677 313.945 149.599C313.87 149.522 313.772 149.471 313.666 149.453L309.344 149.573C310.093 149.064 310.787 148.477 311.414 147.822C312.696 147.058 314.14 146.605 315.629 146.501L315.496 146.482ZM306.783 141.527C307.533 139.019 310.567 138.654 311.126 138.528C311.896 139.062 312.495 139.808 312.851 140.674C313.208 141.541 313.307 142.492 313.136 143.413C312.232 145.739 310.608 147.715 308.5 149.051C308.5 149.051 308.459 149.351 309.756 144.578C309.773 144.529 309.778 144.477 309.773 144.425C309.768 144.373 309.752 144.323 309.726 144.278C309.7 144.233 309.665 144.194 309.623 144.163C309.581 144.132 309.533 144.111 309.482 144.1C309.384 144.074 309.279 144.083 309.186 144.126C309.094 144.169 309.019 144.243 308.976 144.336L307.765 148.476C307.482 147.628 307.143 146.8 306.748 145.997C306.387 144.528 306.399 142.991 306.783 141.527ZM307.606 149.641C307.705 149.606 307.814 149.612 307.909 149.656C308.004 149.701 308.078 149.781 308.115 149.88C308.133 149.931 308.14 149.985 308.136 150.04C308.133 150.094 308.119 150.147 308.095 150.195C308.071 150.244 308.037 150.287 307.997 150.323C307.956 150.359 307.908 150.386 307.857 150.404C307.806 150.421 307.751 150.428 307.697 150.425C307.643 150.421 307.59 150.407 307.542 150.383C307.493 150.359 307.45 150.326 307.414 150.285C307.378 150.244 307.351 150.197 307.333 150.146C307.317 150.095 307.312 150.041 307.317 149.988C307.323 149.935 307.338 149.883 307.364 149.836C307.389 149.789 307.423 149.748 307.465 149.714C307.507 149.68 307.554 149.655 307.606 149.641ZM299.38 148.312C298.942 148.103 298.555 147.803 298.245 147.431C297.935 147.059 297.708 146.625 297.582 146.157C297.455 145.69 297.431 145.2 297.511 144.723C297.592 144.245 297.774 143.79 298.047 143.39C298.319 142.989 298.675 142.653 299.09 142.402C299.505 142.152 299.969 141.995 300.45 141.941C300.931 141.887 301.419 141.938 301.878 142.09C302.338 142.242 302.76 142.492 303.114 142.822C305.071 144.387 306.455 146.555 307.051 148.988C307.051 148.988 307.323 149.229 303.202 146.394C303.139 146.352 303.067 146.325 302.992 146.315C302.917 146.305 302.841 146.311 302.769 146.334C302.702 146.365 302.644 146.413 302.601 146.472C302.557 146.531 302.529 146.6 302.519 146.673C302.521 146.752 302.542 146.83 302.579 146.9C302.617 146.97 302.67 147.03 302.736 147.076L306.265 149.525C305.362 149.513 304.458 149.571 303.563 149.698C302.076 149.587 300.639 149.111 299.38 148.312ZM306.522 150.374C306.522 150.374 306.816 150.211 302.739 153.246C302.696 153.278 302.661 153.318 302.634 153.364C302.607 153.41 302.59 153.461 302.583 153.513C302.575 153.566 302.579 153.619 302.592 153.67C302.606 153.722 302.629 153.77 302.661 153.812C302.69 153.859 302.729 153.898 302.774 153.928C302.82 153.958 302.872 153.977 302.926 153.985C302.98 153.992 303.035 153.987 303.087 153.971C303.139 153.954 303.187 153.927 303.227 153.889L306.67 151.275C306.377 152.141 306.165 153.031 306.035 153.935C305.439 155.305 304.53 156.516 303.381 157.47C303.048 157.826 302.641 158.105 302.189 158.288C301.736 158.471 301.25 158.553 300.762 158.529C300.275 158.504 299.799 158.374 299.367 158.147C298.936 157.92 298.558 157.602 298.262 157.215C297.966 156.827 297.757 156.38 297.651 155.904C297.545 155.428 297.544 154.934 297.648 154.458C297.752 153.981 297.959 153.533 298.254 153.144C298.548 152.756 298.924 152.436 299.355 152.207C301.46 150.786 303.993 150.138 306.522 150.374Z" fill="#5EAD41"/>
<path fill-rule="evenodd" clip-rule="evenodd" d="M67.1384 395.341C66.6918 395.757 66.3775 396.295 66.2347 396.888C66.0919 397.481 66.127 398.103 66.3355 398.677C66.3355 398.677 66.3356 398.677 66.4283 398.799C66.927 399.145 67.5164 399.338 68.1235 399.353C68.7306 399.368 69.3287 399.204 69.844 398.883C70.2662 398.552 70.6292 398.152 70.9176 397.699C70.9019 398.231 70.9838 398.761 71.1593 399.264C71.4172 399.817 71.8318 400.283 72.3517 400.604C72.8716 400.924 73.4741 401.086 74.0846 401.068L74.2099 401.085C74.6958 400.716 75.0625 400.213 75.2644 399.638C75.4664 399.063 75.4945 398.44 75.3454 397.849C75.1607 397.346 74.8919 396.878 74.5504 396.464C75.0633 396.635 75.6033 396.709 76.1431 396.682C76.745 396.611 77.312 396.362 77.7719 395.967C78.2318 395.572 78.5637 395.049 78.7253 394.465C78.7496 394.421 78.7566 394.37 78.7449 394.322C78.5481 393.744 78.1844 393.237 77.6998 392.866C77.2152 392.495 76.6315 392.275 76.0223 392.236C75.4923 392.252 74.9699 392.366 74.4814 392.572C74.7987 392.145 75.0372 391.665 75.1857 391.155C75.3033 390.558 75.2429 389.939 75.012 389.376C74.7812 388.813 74.3901 388.33 73.8872 387.988C73.8431 387.965 73.7926 387.958 73.744 387.968C73.3738 387.992 73.0083 388.065 72.6571 388.184C72.0001 388.412 71.4465 388.867 71.0967 389.468C70.7469 390.069 70.624 390.776 70.7504 391.46C70.413 390.874 69.8834 390.424 69.2515 390.184C68.6196 389.945 67.9244 389.932 67.2839 390.147C66.9348 390.267 66.6046 390.437 66.3034 390.651C66.2923 390.669 66.2851 390.69 66.2822 390.712C66.2792 390.733 66.2806 390.755 66.2863 390.776C66.1056 391.359 66.1015 391.982 66.2746 392.567C66.4476 393.152 66.79 393.672 67.2585 394.063C67.6983 394.359 68.1875 394.574 68.703 394.698C68.198 394.862 67.7219 395.105 67.2921 395.416L67.1384 395.341ZM74.0027 400.601C73.4989 400.615 73.0017 400.483 72.5716 400.22C72.1415 399.958 71.7969 399.576 71.5799 399.121C71.2229 397.822 71.3091 396.442 71.8249 395.198C72.174 395.958 72.4565 396.747 72.6691 397.556C72.7064 397.598 72.7576 397.626 72.8135 397.633C72.8693 397.641 72.9261 397.628 72.9733 397.598C73.0019 397.588 73.0283 397.573 73.0506 397.553C73.073 397.533 73.0909 397.508 73.1032 397.481C73.1156 397.453 73.1221 397.423 73.1223 397.393C73.1225 397.363 73.1164 397.333 73.1044 397.306L72.3277 395.121C72.7223 395.409 73.138 395.667 73.5712 395.893C74.1956 396.431 74.6667 397.124 74.937 397.903C75.0555 398.392 75.0307 398.905 74.8654 399.38C74.7001 399.855 74.4015 400.273 74.0051 400.583L74.0027 400.601ZM76.0221 392.637C76.5251 392.679 77.0055 392.864 77.4062 393.171C77.807 393.478 78.1112 393.893 78.2828 394.368C78.1471 394.841 77.88 395.266 77.5125 395.593C77.145 395.92 76.6923 396.137 76.2068 396.217C74.8641 396.151 73.5812 395.642 72.5581 394.77C73.3842 394.67 74.2175 394.644 75.0482 394.691C75.1039 394.683 75.155 394.656 75.1937 394.615C75.2323 394.574 75.2562 394.521 75.2615 394.465C75.2538 394.408 75.2279 394.354 75.1877 394.313C75.1474 394.271 75.0949 394.244 75.0379 394.234L72.7137 394.299C73.1167 394.025 73.4898 393.709 73.827 393.357C74.5165 392.946 75.2929 392.703 76.0937 392.647L76.0221 392.637ZM71.3368 389.972C71.7401 388.624 73.3712 388.427 73.6722 388.359C74.086 388.647 74.4081 389.048 74.5998 389.514C74.7915 389.98 74.8447 390.491 74.753 390.986C74.2669 392.237 73.3932 393.299 72.2599 394.018C72.2599 394.018 72.2379 394.179 72.9354 391.613C72.9442 391.586 72.9473 391.558 72.9446 391.53C72.9418 391.503 72.9332 391.476 72.9193 391.451C72.9054 391.427 72.8866 391.406 72.864 391.39C72.8414 391.373 72.8156 391.362 72.7882 391.356C72.7351 391.342 72.6788 391.347 72.629 391.37C72.5792 391.393 72.5391 391.433 72.5157 391.482L71.8647 393.709C71.7126 393.253 71.5299 392.807 71.3178 392.376C71.1235 391.586 71.13 390.759 71.3368 389.972ZM71.779 394.335C71.8324 394.316 71.891 394.319 71.9422 394.344C71.9934 394.368 72.0332 394.411 72.0531 394.464C72.0625 394.491 72.0663 394.52 72.0644 394.55C72.0625 394.579 72.0549 394.607 72.042 394.633C72.0291 394.659 72.0112 394.683 71.9893 394.702C71.9674 394.721 71.9418 394.736 71.9142 394.745C71.8866 394.755 71.8574 394.759 71.8283 394.757C71.7992 394.755 71.7707 394.747 71.7446 394.734C71.7184 394.722 71.695 394.704 71.6758 394.682C71.6565 394.66 71.6418 394.634 71.6324 394.607C71.624 394.579 71.6211 394.55 71.6239 394.522C71.6268 394.493 71.6352 394.465 71.6489 394.44C71.6625 394.415 71.681 394.393 71.7034 394.375C71.7257 394.356 71.7514 394.343 71.779 394.335ZM67.3555 393.62C67.1204 393.508 66.9123 393.347 66.7454 393.147C66.5785 392.947 66.4569 392.713 66.3888 392.462C66.3207 392.21 66.3079 391.947 66.351 391.69C66.3942 391.434 66.4924 391.189 66.6388 390.974C66.7853 390.758 66.9767 390.577 67.1997 390.443C67.4228 390.308 67.6723 390.224 67.9311 390.195C68.1899 390.166 68.452 390.193 68.6992 390.275C68.9465 390.357 69.1732 390.491 69.3638 390.668C70.4159 391.51 71.1602 392.676 71.4806 393.984C71.4806 393.984 71.627 394.114 69.4109 392.589C69.377 392.567 69.3385 392.552 69.2982 392.547C69.2579 392.541 69.2169 392.545 69.1782 392.557C69.1423 392.574 69.1112 392.599 69.0877 392.631C69.0642 392.663 69.0492 392.7 69.0439 392.739C69.0449 392.782 69.0559 392.824 69.0761 392.861C69.0963 392.899 69.1251 392.931 69.1602 392.956L71.0583 394.273C70.5723 394.267 70.0865 394.298 69.6053 394.366C68.8055 394.306 68.0328 394.05 67.3555 393.62ZM71.1963 394.729C71.1963 394.729 71.3542 394.642 69.1619 396.274C69.1392 396.291 69.12 396.313 69.1056 396.337C69.0912 396.362 69.0818 396.389 69.0779 396.417C69.0741 396.446 69.0758 396.474 69.0831 396.502C69.0903 396.53 69.103 396.555 69.1203 396.578C69.1357 396.603 69.1564 396.624 69.181 396.64C69.2056 396.657 69.2335 396.667 69.2625 396.671C69.2916 396.675 69.3213 396.672 69.3493 396.664C69.3773 396.655 69.403 396.64 69.4245 396.62L71.2758 395.214C71.1186 395.679 71.0043 396.158 70.9343 396.644C70.6141 397.381 70.1254 398.032 69.5074 398.545C69.3281 398.737 69.1092 398.887 68.866 398.985C68.6228 399.083 68.3611 399.128 68.0992 399.114C67.8372 399.101 67.5812 399.031 67.349 398.909C67.1168 398.787 66.914 398.616 66.7546 398.408C66.5953 398.199 66.4832 397.959 66.4262 397.703C66.3692 397.447 66.3687 397.182 66.4246 396.925C66.4805 396.669 66.5916 396.428 66.7501 396.219C66.9086 396.01 67.1107 395.838 67.3424 395.715C68.4744 394.951 69.8363 394.602 71.1963 394.729Z" fill="#265113"/>
<path fill-rule="evenodd" clip-rule="evenodd" d="M67.4925 460.416C55.9948 466.626 52.1797 478.965 49.1697 490.858C49.1922 491.022 49.211 491.16 49.0416 491.35C49.0307 491.453 49.0449 491.556 49.0828 491.652C47.9365 494.23 47.1436 496.95 46.7255 499.74C42.9946 488.602 38.7889 477.668 29.3455 470.105C29.2087 469.989 29.0416 469.914 28.8638 469.89C28.686 469.865 28.505 469.892 28.3421 469.968C28.1791 470.043 28.041 470.163 27.9441 470.314C27.8472 470.465 27.7955 470.641 27.7951 470.82C27.6266 484.084 36.7929 493.501 45.8665 502.037C45.9354 502.11 46.0182 502.168 46.1101 502.208C46.202 502.249 46.3011 502.27 46.4014 502.271C46.1109 506.136 46.1468 510.018 46.5088 513.877C46.5914 514.48 46.6739 515.084 46.7565 515.687L46.3451 515.743C37.7878 504.152 26.4115 494.94 13.295 488.978C13.1118 488.889 12.9045 488.862 12.7044 488.9C12.5043 488.939 12.3222 489.041 12.1854 489.193C12.0486 489.344 11.9645 489.535 11.9457 489.738C11.927 489.941 11.9746 490.144 12.0814 490.318C18.9465 502.312 32.1163 516.489 46.8309 517.66L46.6664 517.683C47.4373 524.41 48.7036 531.072 50.4549 537.613L50.2904 537.635L49.879 537.692C41.3253 526.107 29.96 516.894 16.8562 510.923C16.672 510.843 16.4674 510.822 16.2709 510.864C16.0744 510.905 15.8957 511.007 15.7594 511.154C15.6231 511.302 15.536 511.488 15.5102 511.687C15.4843 511.886 15.5211 512.088 15.6153 512.266C22.5078 524.257 35.6502 538.437 50.3648 539.609C50.5597 539.658 50.7662 539.63 50.9407 539.53C51.465 541.32 52.0293 543.198 52.6335 545.164C52.7168 545.39 52.8835 545.575 53.0992 545.682C53.3149 545.789 53.5632 545.809 53.7932 545.738C54.0231 545.667 54.2172 545.511 54.3356 545.301C54.4539 545.092 54.4876 544.845 54.4295 544.611C53.3722 541.376 52.4483 538.094 51.6303 534.77C61.6199 526.112 74.5584 511.24 75.396 497.354C75.4679 496.45 74.326 496.271 73.779 496.765C63.372 505.843 52.7087 515.906 50.3716 529.858C49.4306 525.432 48.7345 520.958 48.2863 516.455C47.9674 514.125 47.8679 511.764 47.7683 509.403C58.2935 502.823 69.1923 495.298 71.5474 482.293C71.5821 482.113 71.5638 481.927 71.4946 481.758C71.4255 481.589 71.3085 481.443 71.1579 481.339C71.0074 481.236 70.8298 481.178 70.647 481.173C70.4641 481.169 70.2839 481.217 70.1284 481.314C59.7036 486.791 53.3756 496.484 47.6523 506.514C47.6126 501.283 48.8214 496.119 51.1782 491.449C59.101 482.795 66.6932 473.766 68.6661 461.848C68.7804 461.675 68.8364 461.47 68.8258 461.264C68.8153 461.057 68.7388 460.859 68.6076 460.699C68.4763 460.539 68.2972 460.425 68.0965 460.374C67.8959 460.323 67.6842 460.338 67.4925 460.416Z" fill="#5EAD41"/>
</g>
<defs>
<clipPath id="clip0_182_21470">
<rect width="375" height="812" fill="white"/>
</clipPath>
</defs>
</svg>
