<svg viewBox="0 0 1439 641" fill="none" xmlns="http://www.w3.org/2000/svg">
<g clip-path="url(#clip0_408_4861)">
<g clip-path="url(#clip1_408_4861)">
<g filter="url(#filter0_f_408_4861)">
<path fill-rule="evenodd" clip-rule="evenodd" d="M776 404.666C779.938 404.666 786.5 397.431 786.5 391.703C786.5 385.976 781.799 381.333 776 381.333C770.201 381.333 765.5 385.976 765.5 391.703C765.5 397.431 772.062 404.666 776 404.666ZM776 395.333C777.933 395.333 779.5 393.766 779.5 391.833C779.5 389.9 777.933 388.333 776 388.333C774.067 388.333 772.5 389.9 772.5 391.833C772.5 393.766 774.067 395.333 776 395.333Z" fill="#209665" fill-opacity="0.42"/>
</g>
<path fill-rule="evenodd" clip-rule="evenodd" d="M549.756 651.976C548.503 645.748 547.41 637.453 546.429 630.741L544.64 618.745C544.64 618.745 545.297 619.902 546.296 621.86C547.294 623.818 548.642 626.504 550.055 629.696C553.119 636.366 555.506 643.323 557.18 650.464C557.708 652.902 558.085 655.369 558.31 657.852C561.222 654.103 564.061 650.346 566.862 646.525C566.355 646.311 565.942 645.923 565.698 645.43C564.107 642.032 563.047 638.412 562.555 634.696C561.257 628.478 560.192 620.201 559.201 613.443L557.394 601.475L559.067 604.563C560.066 606.521 561.424 609.252 562.826 612.399C565.897 619.065 568.285 626.023 569.952 633.166C570.482 635.619 570.863 638.102 571.092 640.6C574.658 635.527 578.096 630.411 581.46 625.17C580.052 624.576 578.199 622.07 574.844 614.454C570.662 603.752 567.205 592.784 564.495 581.623C570.917 591.158 576.688 601.113 581.768 611.42C582.994 614.091 584.035 616.843 584.881 619.656L585.586 618.558C585.627 618.245 585.737 617.945 585.907 617.679C586.078 617.414 586.305 617.189 586.572 617.021C587.629 615.375 588.63 613.693 589.577 611.975C590.58 610.411 591.429 608.786 592.35 607.169C591.915 607.247 591.466 607.195 591.06 607.017C590.655 606.84 590.311 606.546 590.073 606.173C588.377 603.148 587.17 599.876 586.496 596.477C584.991 590.824 583.614 583.276 582.343 577.076L580.12 566.119L581.86 568.862C582.944 570.565 584.378 572.996 585.919 575.806C589.204 581.749 591.853 588.02 593.821 594.514C594.507 596.901 595.012 599.336 595.33 601.797C597.555 597.724 599.698 593.597 601.785 589.435C600.443 588.922 598.865 586.593 596.295 578.783C593.368 568.423 591.202 557.865 589.814 547.195C595.058 556.611 599.621 566.388 603.468 576.452C604.277 578.908 604.859 580.908 605.215 582.454C605.321 582.289 605.427 582.125 605.55 581.933C605.484 581.573 605.509 581.204 605.622 580.857C605.736 580.511 605.935 580.198 606.201 579.948C606.307 579.784 606.43 579.592 606.708 579.461C607.963 576.779 609.235 574.069 610.434 571.352C609.076 570.984 607.704 568.942 605.774 561.466C603.868 551.978 602.723 542.355 602.349 532.69C606.655 541.364 610.251 550.371 613.102 559.62C613.445 560.964 613.731 562.155 613.932 563.175C615.517 559.31 617.047 555.411 618.533 551.521C616.981 551.455 615.613 549.647 613.599 540.607C611.988 530.378 611.145 520.047 611.076 509.698C615.119 519.238 618.445 529.064 621.024 539.095L621.74 542.886C622.55 540.655 623.342 538.451 624.124 536.202C623 535.288 622.532 532.624 624.507 523.973C627.248 513.557 630.741 503.355 634.957 493.447C634.726 504.222 633.707 514.963 631.909 525.585C631.628 526.993 631.307 528.22 631.029 529.32C638.022 524.068 645.418 519.37 653.148 515.27C647.74 522.598 641.716 529.452 635.142 535.756C628.201 541.725 626.527 541.425 625.279 540.159C623.807 544.755 622.226 549.28 620.443 553.754C621.5 553.077 622.756 552.332 624.327 551.52C629.724 548.924 635.445 547.058 641.34 545.971C644.15 545.411 646.6 545.046 648.355 544.855C650.111 544.664 651.197 544.548 651.197 544.548L648.739 545.954L642.621 549.428C637.869 552.229 632.225 555.813 627.755 558.175C625.203 559.791 622.376 560.931 619.414 561.539C619.073 561.583 618.726 561.544 618.403 561.424C618.08 561.305 617.791 561.109 617.56 560.853C616.529 563.369 615.453 565.894 614.359 568.447C614.375 568.853 614.297 569.257 614.133 569.628C613.969 569.999 613.723 570.328 613.412 570.59C612.457 572.805 611.447 574.985 610.437 577.165C611.506 576.65 612.756 576.096 614.266 575.438C619.132 573.369 625.691 571.147 631.099 568.96L637.857 566.246C639.548 565.549 640.582 565.089 640.582 565.089C640.582 565.089 639.818 565.916 638.501 567.24C637.185 568.565 635.296 570.297 633.02 572.208C628.264 576.271 622.987 579.686 617.328 582.362C614.431 583.932 611.208 584.807 607.91 584.92C607.554 584.898 607.208 584.795 606.898 584.619C606.405 585.387 606.105 586.279 605.694 587.101C605.682 587.412 605.601 587.716 605.457 587.993C605.314 588.269 605.111 588.51 604.863 588.698C603.483 591.455 602.076 594.193 600.613 596.897L601.19 596.725C602.678 596.285 604.665 595.855 607.291 595.215C609.918 594.576 613.025 593.975 616.156 593.155C619.287 592.336 622.473 591.552 625.321 590.629C628.168 589.706 630.645 588.815 632.426 588.099L635.315 586.93C635.315 586.93 634.506 587.767 633.071 589.094C628.687 593.092 623.757 596.45 618.427 599.068C615.463 600.522 612.351 601.655 609.144 602.448C606.913 602.992 604.637 603.334 602.344 603.47C601.119 603.567 599.886 603.433 598.71 603.075C598.305 602.927 597.938 602.692 597.635 602.386C595.655 605.957 593.664 609.484 591.645 612.993L590.272 615.134C591.606 614.75 593.34 614.352 595.507 613.883C600.719 612.849 607.696 612.096 613.414 611.426L623.601 610.214L621.035 611.667C619.411 612.562 617.14 613.739 614.401 615.159C608.86 617.875 603.026 619.954 597.01 621.356C593.896 622.285 590.613 622.519 587.394 622.043C587.046 621.929 586.733 621.728 586.485 621.459C583.444 626.482 580.274 631.421 576.976 636.278C578.807 635.788 581.491 635.301 584.834 634.696C591.27 633.634 599.894 632.737 606.861 631.939L619.273 630.411L615.942 632.148C613.901 633.086 611.043 634.39 607.74 635.719C600.754 638.633 593.491 640.838 586.059 642.301C582.19 643.238 578.179 643.449 574.228 642.923C573.749 642.821 573.302 642.6 572.928 642.282C570.008 646.53 566.988 650.752 563.903 654.894C566.869 654.409 569.859 654.077 572.861 653.901C579.38 653.435 588.013 653.434 595.046 653.259L607.893 653.174C607.893 653.174 606.634 653.682 604.508 654.45C602.383 655.217 599.465 656.25 595.993 657.237C588.739 659.46 581.275 660.941 573.716 661.656C569.784 662.225 565.777 662.058 561.901 661.164C561.28 661.042 560.728 660.688 560.359 660.174C552.069 670.945 543.178 681.24 533.728 691.011C532.59 692.178 530.914 690.367 531.98 689.191C539.502 680.923 546.793 672.468 553.772 663.774C553.43 663.531 553.138 663.225 552.911 662.873C551.336 659.411 550.274 655.74 549.756 651.976Z" fill="#92D660"/>
<path fill-rule="evenodd" clip-rule="evenodd" d="M490.251 692.403C490.56 685.914 491.213 679.448 492.208 673.03C492.374 673.231 492.598 673.376 492.848 673.447C494.523 673.923 496.285 674.004 497.996 673.682C499.707 673.359 501.321 672.643 502.711 671.589C504.33 670.3 507.417 666.888 506.476 664.462C505.535 662.035 500.49 663.211 498.533 663.666C496.646 664.071 494.88 664.915 493.375 666.13C494.467 659.912 495.747 653.657 497.14 647.174C497.259 647.319 497.398 647.447 497.554 647.553C498.897 648.352 500.39 648.862 501.938 649.052C503.487 649.241 505.057 649.105 506.551 648.652C508.697 647.97 513.177 645.354 512.951 642.549C512.725 639.743 507.718 639.629 505.685 639.553C503.124 639.405 500.579 640.039 498.382 641.373C499.737 634.966 501.13 628.559 502.147 622.152C502.27 622.183 502.399 622.183 502.523 622.152C504.242 622.459 506.01 622.337 507.67 621.795C509.331 621.252 510.834 620.308 512.047 619.043C513.666 617.641 516.527 615.252 514.344 613.205C513.147 612.439 511.796 611.953 510.389 611.783C508.982 611.612 507.555 611.761 506.212 612.219C505.333 612.473 504.496 612.856 503.728 613.356C504.782 606.911 505.648 600.504 506.137 594.135C508.964 593.236 511.439 591.462 513.209 589.067C514.979 586.672 515.956 583.776 516 580.79C515.978 580.577 515.9 580.373 515.774 580.2C515.649 580.027 515.48 579.89 515.285 579.804C513.628 579.215 511.811 579.278 510.198 579.981C508.585 580.684 507.296 581.975 506.589 583.596C506.672 577.747 506.282 571.902 505.422 566.118C505.519 566.156 505.626 566.156 505.723 566.118C508.258 564.86 510.375 562.884 511.812 560.433C513.25 557.982 513.947 555.162 513.817 552.318C513.804 552.078 513.722 551.846 513.582 551.651C513.442 551.456 513.249 551.306 513.026 551.219C511.72 550.814 510.322 550.83 509.026 551.265C507.73 551.7 506.601 552.532 505.798 553.645C504.919 554.659 504.149 555.765 503.502 556.944C502.018 551.236 499.896 545.716 497.177 540.49C498.93 538.383 500.055 535.819 500.421 533.095C500.788 530.371 500.381 527.598 499.248 525.098C499.133 524.826 498.937 524.597 498.688 524.441C498.439 524.285 498.148 524.21 497.855 524.226C496.47 524.386 495.172 524.987 494.149 525.942C493.127 526.896 492.434 528.155 492.171 529.533C491.982 530.14 491.832 530.785 491.681 531.429C491.041 530.519 490.364 529.609 489.686 528.737C490.825 524.793 490.993 520.629 490.175 516.605C489.611 514.141 487.54 509.857 484.491 512.283C483.574 513.3 482.884 514.503 482.468 515.811C482.053 517.119 481.921 518.502 482.082 519.866C482.185 521.82 482.726 523.726 483.665 525.439C484.604 527.153 485.916 528.631 487.502 529.761C488.707 531.315 489.837 532.87 490.891 534.462C489.108 533.779 487.225 533.395 485.319 533.325C483.55 533.325 479.371 533.021 479.032 535.41C478.581 538.405 482.985 541.514 485.244 542.348C486.85 542.888 488.549 543.096 490.237 542.959C491.926 542.823 493.569 542.344 495.069 541.551C497.564 546.383 499.545 551.466 500.98 556.716C499.52 555.612 497.893 554.755 496.161 554.176C494.354 553.57 491.493 552.508 490.966 555.124C490.869 556.646 491.129 558.169 491.724 559.572C492.319 560.975 493.233 562.217 494.392 563.199C496.788 565.255 499.867 566.325 503.012 566.194C503.839 571.487 504.267 576.835 504.292 582.193C503.563 580.601 502.519 579.174 501.224 578.001C499.93 576.828 498.412 575.932 496.763 575.369C496.552 575.337 496.336 575.362 496.137 575.442C495.939 575.522 495.765 575.654 495.634 575.824C494.707 577.172 494.138 578.737 493.98 580.369C493.822 582.001 494.08 583.647 494.73 585.15C495.487 586.94 496.618 588.545 498.048 589.854C499.477 591.162 501.171 592.144 503.012 592.732C503.255 592.826 503.523 592.826 503.765 592.732C503.314 599.557 502.372 606.419 501.243 613.319C500.868 611.501 500.043 609.807 498.846 608.396C497.648 606.984 496.116 605.9 494.392 605.243C494.101 605.125 493.776 605.121 493.483 605.234C493.189 605.346 492.949 605.566 492.81 605.85C492.198 607.174 491.881 608.617 491.881 610.077C491.881 611.538 492.198 612.98 492.81 614.304C494.6 616.825 497.168 618.678 500.114 619.574C498.984 625.564 497.742 631.516 496.349 637.468C495.171 634.354 492.835 631.825 489.837 630.417C489.59 630.311 489.316 630.291 489.057 630.359C488.798 630.428 488.569 630.581 488.406 630.796C487.781 631.944 487.395 633.209 487.272 634.513C487.149 635.816 487.292 637.132 487.691 638.378C488.25 639.905 489.137 641.287 490.289 642.428C491.441 643.568 492.829 644.438 494.354 644.975H494.73C493.225 652.026 491.756 659.002 490.552 665.902C489.709 664.01 488.416 662.356 486.788 661.086C485.16 659.817 483.246 658.971 481.216 658.623C480.954 658.591 480.689 658.643 480.459 658.773C480.229 658.902 480.046 659.102 479.936 659.344C479.612 660.713 479.586 662.136 479.859 663.517C480.132 664.898 480.697 666.203 481.517 667.343C482.439 668.656 483.627 669.758 485.003 670.575C486.378 671.391 487.91 671.905 489.498 672.082H489.837C488.77 678.735 488.078 685.443 487.766 692.175C487.766 693.73 490.1 694.147 490.138 692.554L490.251 692.403Z" fill="#92D660"/>
<path fill-rule="evenodd" clip-rule="evenodd" d="M94.9249 526.948C114.161 537.76 120.197 558.654 124.906 578.818V579.68C124.935 579.856 124.935 580.035 124.906 580.211C126.76 584.598 128.009 589.217 128.621 593.941C135.254 575.236 142.683 556.929 158.868 544.459C159.103 544.271 159.387 544.153 159.687 544.12C159.986 544.086 160.289 544.139 160.56 544.271C160.831 544.403 161.059 544.609 161.217 544.865C161.376 545.122 161.458 545.418 161.455 545.719C161.455 568.139 145.535 583.726 129.948 597.788C129.723 598.028 129.414 598.171 129.085 598.186C129.467 604.824 129.267 611.482 128.488 618.085C128.488 619.08 128.488 620.142 128.157 621.136H128.953C143.739 601.846 163.218 586.661 185.533 577.027C185.847 576.908 186.191 576.887 186.518 576.968C186.845 577.048 187.139 577.226 187.362 577.478C187.585 577.73 187.727 578.044 187.767 578.378C187.808 578.712 187.746 579.05 187.589 579.348C175.583 599.247 152.964 622.861 127.891 624.32H127.56C126.079 635.649 123.728 646.848 120.529 657.817H121.59C136.377 638.526 155.855 623.341 178.17 613.707C178.476 613.582 178.814 613.555 179.136 613.63C179.458 613.706 179.748 613.879 179.967 614.127C180.186 614.375 180.322 614.685 180.357 615.014C180.391 615.343 180.322 615.675 180.16 615.963C168.22 635.861 145.535 659.541 120.462 661C120.318 661.071 120.159 661.108 119.998 661.108C119.837 661.108 119.678 661.071 119.534 661C118.605 664.118 117.61 667.634 116.482 670.419C116.308 670.745 116.025 671 115.683 671.14C115.34 671.28 114.96 671.296 114.607 671.187C114.254 671.077 113.95 670.847 113.748 670.538C113.545 670.229 113.457 669.858 113.498 669.491C115.355 664.052 117.079 658.546 118.539 652.975C101.956 638.05 80.5975 612.58 79.6025 589.099C79.6025 587.574 81.4598 587.374 82.3884 588.17C99.6344 603.824 117.278 621.335 120.661 644.75C122.4 637.314 123.707 629.784 124.575 622.198C125.105 618.284 125.503 614.304 125.702 610.325C108.191 598.85 90.0165 585.915 86.501 563.894C86.4438 563.592 86.4753 563.279 86.5918 562.995C86.7082 562.71 86.9045 562.466 87.1571 562.29C87.4096 562.115 87.7075 562.016 88.0148 562.007C88.3222 561.997 88.6258 562.077 88.8889 562.236C106.533 571.853 116.681 588.436 126.034 605.482C126.31 596.663 124.468 587.906 120.661 579.946C107.395 565.088 95.0576 549.633 92.1391 529.469C91.8048 529.099 91.631 528.612 91.6559 528.115C91.6807 527.617 91.9023 527.15 92.2717 526.815C92.6412 526.481 93.1283 526.308 93.6259 526.332C94.1234 526.357 94.5907 526.579 94.9249 526.948Z" fill="#92D660"/>
<g filter="url(#filter1_d_408_4861)">
<rect x="-1" y="641" width="1440" height="248" fill="#FFF9F0"/>
</g>
<path fill-rule="evenodd" clip-rule="evenodd" d="M130.839 -91.9196C133.77 -91.891 137.528 -91.2196 138.389 -87.7361C138.576 -86.5741 138.398 -85.3825 137.879 -84.3262C137.359 -83.2699 136.525 -82.4012 135.491 -81.8395C133.074 -80.8052 130.454 -80.3359 127.828 -80.4671C120.325 -80.4563 112.865 -81.6008 105.71 -83.8604C99.5633 -85.8855 93.7271 -88.7522 88.3675 -92.3793C89.9045 -83.7973 91.915 -75.2211 93.8488 -66.6311C107.898 -65.9049 122.341 -64.3003 135.651 -63.2835C138.547 -63.0113 142.13 -61.9925 142.545 -58.35C142.631 -57.1957 142.353 -56.043 141.75 -55.0552C141.146 -54.0674 140.248 -53.2944 139.181 -52.8446C136.932 -52.0179 134.522 -51.7216 132.14 -51.9788C125.035 -52.4062 118.024 -53.8117 111.304 -56.1555C105.161 -58.3209 99.3198 -61.2609 93.9208 -64.9045C95.101 -58.3148 96.9079 -51.758 98.4712 -45.2369C112.815 -41.6708 127.421 -39.2624 142.15 -38.0343C145.199 -37.7895 149.075 -36.9019 149.643 -33.2868C149.763 -32.0996 149.495 -30.9058 148.88 -29.8834C148.265 -28.8609 147.335 -28.0647 146.23 -27.6142C143.731 -26.7971 141.088 -26.5124 138.472 -26.7783C130.594 -27.342 122.87 -29.2488 115.635 -32.4158C109.627 -35.0827 104.04 -38.6106 99.0499 -42.889C100.882 -35.3089 102.791 -27.7425 104.853 -20.2036C118.777 -16.1721 133.136 -13.8318 147.62 -13.2331C150.565 -13.1278 154.337 -12.3796 155.121 -8.88233C155.337 -7.71647 155.16 -6.51203 154.62 -5.45678C154.079 -4.40155 153.205 -3.55496 152.133 -3.04874C149.71 -2.03486 147.094 -1.56634 144.47 -1.6764C136.617 -1.97554 128.892 -3.7582 121.702 -6.93039C115.802 -9.57745 110.376 -13.1741 105.639 -17.5768C107.46 -10.9437 109.281 -4.3104 111.255 2.29531C111.3 2.78715 111.387 3.27425 111.515 3.7512C127.197 7.74339 143.076 10.9177 159.087 13.2618C162.407 13.6952 166.505 14.9386 166.906 18.5045C166.921 19.7189 166.536 20.9044 165.81 21.8779C165.083 22.8513 164.057 23.5581 162.888 23.8896C160.174 24.5984 157.342 24.7289 154.574 24.2719C146.326 23.1772 138.288 20.8584 130.724 17.3925C123.964 14.2962 117.659 10.2903 111.984 5.48597C113.967 12.1428 116.031 18.8113 118.177 25.4917C124.854 28.3291 131.656 30.9858 138.543 33.232C146.37 35.8068 154.35 37.8906 162.437 39.4709C165.631 40.085 169.603 41.5089 169.851 45.1023C169.841 46.3224 169.422 47.504 168.661 48.4577C167.899 49.4113 166.84 50.0819 165.652 50.3619C162.868 50.8909 160.005 50.8381 157.242 50.2073C148.996 48.5575 141.093 45.5059 133.878 41.1851C128.575 37.9221 123.721 33.9793 119.441 29.4569C122.259 38.1258 125.139 46.7041 128.11 55.3455C134.609 58.8066 141.29 61.9131 148.125 64.6515C156.053 67.833 164.208 70.4172 172.522 72.3817C175.821 73.1354 179.897 74.6987 180.068 78.3057C179.988 79.5396 179.497 80.7114 178.673 81.6331C177.849 82.5549 176.739 83.1733 175.522 83.3902C174.099 83.6366 172.652 83.7103 171.211 83.609C169.753 83.4909 168.307 83.2471 166.89 82.8805C158.34 80.865 150.241 77.2735 143.008 72.2902C138.189 68.9763 133.819 65.0542 130.004 60.6213C132.748 68.4336 135.568 76.2322 138.451 83.9404C150.384 91.0394 163.373 96.188 176.929 99.1922C179.74 99.875 183.148 101.242 183.319 104.849C183.301 106.028 182.906 107.171 182.192 108.11C181.478 109.049 180.482 109.735 179.351 110.067C178.112 110.473 176.822 110.704 175.519 110.753C174.23 110.683 172.95 110.489 171.698 110.172C164.12 108.383 157.014 104.991 150.857 100.223C147.58 97.6821 144.615 94.7624 142.024 91.5249C145.115 99.5122 148.193 107.423 151.361 115.396C163.174 122.453 175.976 127.704 189.343 130.974C192 131.684 195.318 132.988 195.337 136.623C195.346 137.796 194.97 138.941 194.267 139.88C193.564 140.82 192.573 141.504 191.445 141.827C190.284 142.224 189.069 142.442 187.843 142.472C186.589 142.384 185.343 142.212 184.112 141.954C176.851 140.177 170.056 136.864 164.183 132.238C160.02 129.034 156.414 125.164 153.512 120.784C156.23 127.573 159.039 134.424 161.911 141.185C173.911 148.222 184.864 156.909 194.449 166.991C196.483 169.078 198.417 172.37 195.917 175.19C195.184 176.064 194.214 176.708 193.123 177.044C192.033 177.379 190.869 177.392 189.771 177.082C187.651 176.233 185.743 174.927 184.183 173.258C176.688 165.902 170.177 157.604 164.815 148.573C166.635 152.993 168.517 157.322 170.414 161.727C181.442 174.335 190.67 188.411 197.834 203.553C199.343 206.684 200.279 211.024 196.7 213.563C195.516 214.342 194.124 214.744 192.707 214.716C191.29 214.687 189.915 214.229 188.763 213.403C186.664 211.617 184.952 209.42 183.732 206.949C176.68 193.395 171.801 178.818 169.273 163.75C168.249 161.561 167.133 159.309 166.185 157.107C168.951 168.364 170.485 179.89 170.76 191.479C170.808 194.396 170.046 198.091 166.445 198.736C165.324 198.896 164.181 198.717 163.163 198.223C162.145 197.729 161.297 196.943 160.729 195.964C159.731 193.906 159.168 191.665 159.075 189.38C158.365 176.268 159.749 163.126 163.174 150.449C158.467 140.062 153.899 129.572 149.624 118.95C151.031 125.725 151.528 132.657 151.102 139.563C150.559 147.925 148.955 156.184 146.33 164.142C145.319 167.328 142.893 171.005 139.505 170.189C138.397 169.848 137.414 169.189 136.678 168.295C135.941 167.401 135.484 166.31 135.361 165.158C135.279 162.712 135.617 160.271 136.362 157.94L142.496 136.992C144.49 130.466 146.611 123.76 148.846 115.926C146.168 109.367 143.554 102.718 141.016 96.0548C142.303 109.911 140.97 123.886 137.085 137.249C136.214 140.331 134.171 143.939 130.287 143.449C129.159 143.203 128.127 142.633 127.318 141.808C126.51 140.983 125.961 139.94 125.739 138.807C125.485 136.431 125.7 134.028 126.37 131.734C129.618 118.238 133.913 105.015 139.216 92.1861C135.666 82.9629 132.265 73.6868 129.013 64.3577C130.887 71.7775 131.435 79.4701 130.631 87.0806C129.884 95.6511 127.755 104.044 124.327 111.934C122.982 115.022 120.132 118.538 116.765 117.401C115.666 116.963 114.726 116.202 114.07 115.218C113.413 114.234 113.071 113.073 113.089 111.891C113.269 109.477 113.832 107.107 114.758 104.87C117.45 97.8241 119.702 91.4105 121.913 84.767C124.123 78.1236 126.307 71.3272 128.55 63.0964L125.633 54.7611C125.633 54.7611 125.496 53.995 124.877 53.6313C123.151 48.4048 121.347 43.1922 119.683 37.8754C120.937 46.0479 120.852 54.3701 119.43 62.5151C117.881 71.9501 114.814 81.0722 110.349 89.5271C108.585 92.9271 105.226 96.6918 101.818 95.3251C100.753 94.7586 99.8922 93.8716 99.3579 92.7896C98.8235 91.7076 98.6424 90.485 98.8403 89.2945C99.3265 86.6075 100.191 84.0032 101.409 81.5591C105.078 73.7846 107.986 66.6209 110.854 59.2272C113.721 51.8336 116.128 44.5222 118.861 35.492C117.742 31.8963 116.492 28.0079 115.429 24.7188L114.832 24.0351L115.215 23.9664C114.055 20.1409 112.846 16.4822 111.659 12.5034C111.737 19.4465 110.847 26.3664 109.015 33.0637C106.369 42.716 102.028 51.8214 96.1954 59.9546C93.868 63.2975 89.4934 66.6904 86.6297 64.8308C85.6602 64.085 84.9494 63.0536 84.5977 61.8821C84.246 60.7106 84.2711 59.4582 84.6695 58.3017C85.0795 56.9547 85.6437 55.6594 86.3507 54.4418C86.9726 53.187 87.6806 51.977 88.47 50.8201C92.9784 43.7612 97.0822 36.4519 100.761 28.9274C104.295 21.8679 107.404 14.6031 110.072 7.17271C109.811 5.71685 109.537 4.18468 108.74 2.82488L103.758 -14.393C103.579 -6.45663 102.158 1.40302 99.5469 8.89987C96.5702 17.3484 92.3434 25.303 87.0075 32.4979C84.8414 35.4165 81.1782 38.3658 78.0709 36.4708C77.2645 35.6543 76.713 34.6209 76.4835 33.4965C76.2541 32.3722 76.3566 31.2054 76.7785 30.1383C77.5772 27.6928 78.7355 25.3799 80.2153 23.2755C84.7935 16.6035 88.6111 10.542 92.6037 4.13305C96.5963 -2.27592 100.184 -8.29629 104.34 -15.9999C102.657 -21.8668 101.05 -27.7472 99.4432 -33.6278C95.0289 -19.9017 87.6075 -7.33365 77.72 3.16071C75.7369 5.33478 72.4728 7.42204 69.5542 5.25596C68.6704 4.55197 68.0037 3.61265 67.6307 2.54606C67.2578 1.47948 67.194 0.329104 67.4466 -0.772207C68.1644 -2.88581 69.3282 -4.82047 70.8593 -6.44478C79.4622 -16.5484 88.9673 -25.8476 99.2568 -34.2272C97.2715 -41.7799 95.2862 -49.3325 93.3775 -56.8989C88.6064 -43.2256 80.3495 -31.0342 69.4231 -21.5295C67.106 -19.4538 63.4667 -17.6949 60.8409 -19.9925C60.0549 -20.828 59.5288 -21.8739 59.3266 -23.003C59.1243 -24.1322 59.2547 -25.2961 59.7019 -26.3524C60.7214 -28.3653 62.0807 -30.1869 63.7197 -31.7376C68.8571 -36.6118 73.3815 -41.3764 78.3496 -45.4295L92.5255 -58.5651C90.7757 -65.6854 89.0122 -72.8826 87.3254 -80.0933C85.3573 -74.0723 82.4496 -68.4004 78.71 -63.2875C74.031 -56.9435 68.3431 -51.4099 61.8728 -46.9071C59.2709 -45.0967 55.3963 -43.7699 53.0712 -46.5959C52.4163 -47.5251 52.0354 -48.6195 51.9719 -49.7546C51.9084 -50.8897 52.1649 -52.0199 52.7121 -53.0164C53.919 -54.8656 55.4521 -56.48 57.2366 -57.7808C62.7902 -62.0969 67.5558 -65.9557 72.5102 -70.0854C77.4646 -74.2151 81.6586 -77.734 86.8234 -82.4549C85.068 -90.0488 83.3069 -98.1158 81.7401 -105.981C79.6198 -99.1414 76.261 -92.7501 71.8311 -87.1245C67.3024 -81.2475 61.9054 -76.0943 55.8254 -71.8419C53.3631 -70.1356 49.6279 -68.913 47.3166 -71.6623C46.6649 -72.5794 46.2673 -73.6525 46.1638 -74.7728C46.0604 -75.8931 46.2548 -77.0207 46.7276 -78.0416C47.8592 -79.8472 49.3208 -81.4235 51.0359 -82.6882L81.6222 -106.197C80.6616 -111.561 79.7147 -116.848 78.7541 -122.211C77.4057 -115.867 74.564 -109.936 70.4646 -104.91C65.3446 -98.6657 58.735 -93.8106 51.2452 -90.7922C49.6873 -90.0779 47.9735 -89.771 46.2645 -89.9002C45.4646 -89.9721 44.6984 -90.256 44.0448 -90.7228C43.3912 -91.1896 42.874 -91.8223 42.5465 -92.5556C42.1753 -93.6308 42.1019 -94.7866 42.334 -95.9002C42.5662 -97.0138 43.0952 -98.0439 43.8652 -98.8812C44.5705 -99.6796 45.4173 -100.341 46.363 -100.831C47.2053 -101.405 48.094 -101.908 49.0198 -102.335C54.4931 -105.018 59.6923 -108.227 64.544 -111.916C69.5108 -115.594 74.0607 -119.803 78.1125 -124.469C76.9323 -131.059 75.7658 -137.572 74.5994 -144.085C70.0793 -133.78 62.5338 -125.092 52.9633 -119.174C52.4428 -118.735 51.8391 -118.406 51.1883 -118.205C50.5374 -118.005 49.8528 -117.939 49.1755 -118.01C48.4983 -118.08 47.8424 -118.287 47.2469 -118.617C46.6514 -118.947 46.1288 -119.394 45.7102 -119.931C45.0559 -120.794 44.6152 -121.799 44.4244 -122.864C44.2336 -123.93 44.298 -125.025 44.6124 -126.061C45.443 -127.619 46.6445 -128.948 48.1108 -129.93C52.5403 -133.017 56.5649 -135.714 60.8468 -138.3C65.1287 -140.886 69.0961 -143.02 74.0676 -145.729C72.0229 -157.146 70.6403 -168.84 69.3264 -180.151C69.0107 -181.913 72.1661 -182.399 72.3914 -180.7C74.7655 -167.444 77.1258 -154.265 79.4862 -141.085C90.2132 -143.018 100.768 -145.807 111.049 -149.427C112.229 -150.043 113.602 -150.177 114.879 -149.801C116.156 -149.425 117.238 -148.568 117.895 -147.411C118.463 -146.468 118.763 -145.389 118.765 -144.289C118.767 -143.189 118.471 -142.109 117.907 -141.165C116.504 -139.651 114.758 -138.497 112.815 -137.801C107.061 -135.727 100.939 -134.873 94.8376 -135.294C89.6102 -135.639 84.5017 -137.008 79.8019 -139.323C81.1742 -131.66 82.4642 -124.458 83.7953 -117.025C95.6723 -119.152 107.702 -121.307 118.923 -122.684C120.287 -123.095 121.756 -122.98 123.038 -122.36C124.321 -121.74 125.324 -120.662 125.849 -119.337C126.16 -118.258 126.168 -117.114 125.875 -116.03C125.581 -114.945 124.996 -113.962 124.183 -113.187C122.415 -111.977 120.384 -111.207 118.258 -110.94C106.719 -109.101 94.8953 -110.546 84.1384 -115.11C85.4009 -108.06 86.6497 -101.087 87.8985 -94.1145C102.706 -93.1286 117.338 -91.795 130.839 -91.9196Z" fill="#92D660"/>
</g>
</g>
<defs>
<filter id="filter0_f_408_4861" x="738.2" y="355.2" width="75.6" height="75.6" filterUnits="userSpaceOnUse" color-interpolation-filters="sRGB">
<feFlood flood-opacity="0" result="BackgroundImageFix"/>
<feBlend mode="normal" in="SourceGraphic" in2="BackgroundImageFix" result="shape"/>
<feGaussianBlur stdDeviation="11.9" result="effect1_foregroundBlur_408_4861"/>
</filter>
<filter id="filter1_d_408_4861" x="-55" y="511" width="1548" height="378" filterUnits="userSpaceOnUse" color-interpolation-filters="sRGB">
<feFlood flood-opacity="0" result="BackgroundImageFix"/>
<feColorMatrix in="SourceAlpha" type="matrix" values="0 0 0 0 0 0 0 0 0 0 0 0 0 0 0 0 0 0 127 0" result="hardAlpha"/>
<feOffset dy="-76"/>
<feGaussianBlur stdDeviation="27"/>
<feComposite in2="hardAlpha" operator="out"/>
<feColorMatrix type="matrix" values="0 0 0 0 0.320833 0 0 0 0 0.219889 0 0 0 0 0.0655035 0 0 0 0.03 0"/>
<feBlend mode="normal" in2="BackgroundImageFix" result="effect1_dropShadow_408_4861"/>
<feBlend mode="normal" in="SourceGraphic" in2="effect1_dropShadow_408_4861" result="shape"/>
</filter>
<clipPath id="clip0_408_4861">
<rect width="1440" height="641" fill="white"/>
</clipPath>
<clipPath id="clip1_408_4861">
<rect width="1439" height="1457" fill="white" transform="translate(0 -568)"/>
</clipPath>
</defs>
</svg>
