<svg viewBox="0 0 375 487" fill="none" xmlns="http://www.w3.org/2000/svg">
<g clip-path="url(#clip0_182_18127)">
<path fill-rule="evenodd" clip-rule="evenodd" d="M382.834 276.007C376.523 275.103 368.326 273.325 361.584 271.976L349.642 269.598L353.139 269.095C355.294 268.811 358.335 268.445 361.802 268.182C369.133 267.523 376.513 267.602 383.829 268.417C386.311 268.738 388.771 269.215 391.194 269.845C388.641 265.818 386.034 261.833 383.346 257.911C382.955 258.293 382.455 258.544 381.915 258.629C378.158 258.976 374.37 258.763 370.675 257.995C364.391 257.07 356.194 255.292 349.452 253.943L337.483 251.586L340.98 251.083C343.162 250.778 346.203 250.412 349.67 250.149C357.002 249.5 364.38 249.578 371.697 250.384C374.191 250.731 376.666 251.21 379.11 251.818C375.523 246.734 371.802 241.754 367.978 236.81C366.936 237.919 363.944 238.851 355.591 239.439C344.052 239.769 332.503 239.309 321.025 238.064C332.218 235.205 343.596 233.129 355.076 231.85C358.023 231.583 360.984 231.514 363.94 231.644C363.669 231.293 363.397 230.942 363.125 230.59C362.839 230.448 362.589 230.243 362.394 229.99C362.199 229.738 362.063 229.444 361.997 229.132L358.221 224.583C357.092 223.124 355.964 221.665 354.572 220.367C354.508 220.808 354.308 221.218 354.001 221.541C353.694 221.864 353.294 222.083 352.857 222.169C349.439 222.751 345.95 222.782 342.522 222.26C336.668 221.779 329.039 220.512 322.748 219.635L311.61 218.016L314.796 217.279C316.771 216.874 319.57 216.307 322.747 215.837C329.468 214.705 336.294 214.32 343.101 214.689C345.597 214.831 348.076 215.18 350.514 215.734C347.375 212.233 344.188 208.782 340.955 205.383C340.029 206.53 337.286 207.227 329.173 206.895C318.372 206.157 307.639 204.63 297.06 202.328C307.722 200.55 318.5 199.56 329.308 199.365C331.904 199.43 333.983 199.549 335.591 199.73C335.465 199.568 335.34 199.406 335.215 199.244C334.847 199.194 334.499 199.046 334.207 198.816C333.916 198.586 333.691 198.283 333.556 197.937C333.436 197.734 333.341 197.517 333.273 197.292C331.131 195.192 328.99 193.092 326.821 191.013C325.991 192.173 323.623 192.796 315.9 192.076C306.272 190.677 296.771 188.51 287.488 185.596C297.178 184.488 306.941 184.157 316.684 184.605C318.08 184.735 319.277 184.888 320.331 185.023C317.209 182.213 314.033 179.446 310.85 176.726C310.25 178.183 308.253 178.95 298.848 177.675C288.608 175.746 278.528 173.049 268.692 169.609C279.088 169 289.515 169.177 299.884 170.139C301.343 170.349 302.582 170.556 303.699 170.772C301.873 169.248 300.047 167.725 298.277 166.33C297.011 167.093 294.428 166.544 286.803 161.82C277.857 155.693 269.365 148.928 261.392 141.578C271.516 145.462 281.35 150.063 290.82 155.346C292.06 156.113 293.116 156.808 294.055 157.464C291.432 149.07 289.469 140.483 288.183 131.783C293.305 139.389 297.776 147.412 301.551 155.768C304.882 164.374 304.036 165.849 302.428 166.617C306.263 169.566 310.038 172.605 313.779 175.713C313.495 174.508 313.221 173.036 312.983 171.277C312.313 165.282 312.465 159.224 313.434 153.27C313.817 150.471 314.327 148.004 314.697 146.25L315.394 143.466L315.886 146.28L317.197 153.167C318.275 158.637 319.772 165.207 320.516 170.244C321.173 173.209 321.301 176.266 320.895 179.276C320.816 179.613 320.657 179.925 320.433 180.189C320.209 180.452 319.926 180.659 319.606 180.791C321.662 182.612 323.712 184.481 325.707 186.391C326.102 186.513 326.466 186.721 326.771 187C327.076 187.279 327.316 187.622 327.473 188.005L332.692 193.079C332.551 191.892 332.435 190.514 332.44 188.956C332.095 183.653 332.141 176.623 331.927 170.875L331.648 163.535L331.467 160.566C331.467 160.566 331.974 161.556 332.778 163.266C333.582 164.975 334.621 167.324 335.652 170.109C337.895 175.974 339.346 182.112 339.966 188.36C340.337 191.711 339.912 195.101 338.725 198.256C338.603 198.586 338.398 198.878 338.13 199.105L340.065 201.106C340.355 201.225 340.616 201.405 340.831 201.634C341.045 201.863 341.208 202.136 341.307 202.433C343.458 204.656 345.554 206.92 347.651 209.184L347.676 208.603C347.777 207.058 348.013 205.019 348.308 202.33C348.603 199.641 349.028 196.506 349.37 193.263C349.711 190.02 349.936 186.737 350.022 183.778C350.108 180.819 349.987 178.15 349.998 176.155L349.884 173.048C349.884 173.048 350.384 174.086 351.176 175.892C352.186 178.304 353.057 180.773 353.786 183.285C354.726 186.539 355.392 189.865 355.777 193.23C356.158 196.523 356.182 199.849 355.848 203.147C355.634 205.45 355.197 207.726 354.541 209.943C354.237 211.117 353.716 212.223 353.004 213.204C352.726 213.543 352.375 213.814 351.978 213.998C354.701 217.073 357.376 220.142 360.045 223.258L361.612 225.284C361.694 223.883 361.873 222.104 362.203 219.906C362.924 214.643 364.558 207.767 365.759 202.175L368.058 192.194C368.058 192.194 368.285 193.27 368.586 195.11C368.886 196.95 369.265 199.507 369.575 202.419C370.279 208.592 370.291 214.824 369.61 220.999C369.446 224.263 368.565 227.45 367.029 230.335C366.803 230.611 366.516 230.833 366.192 230.982C369.806 235.656 373.555 240.226 377.035 245.004C377.205 243.102 377.583 240.521 378.201 237.021C379.321 230.543 381.418 222.143 382.935 215.228L385.67 202.967L386.086 206.574C386.31 208.819 386.589 211.971 386.738 215.568C387.168 223.168 386.814 230.792 385.68 238.318C385.242 242.264 384.075 246.093 382.24 249.613C381.981 250.042 381.617 250.398 381.183 250.647C384.358 254.753 387.231 259.138 390.109 263.474C390.637 260.499 391.331 257.556 392.185 254.658C393.922 248.307 396.794 240.128 399.017 233.401L402.797 221.541L402.844 225.174C402.871 227.442 402.754 230.641 402.538 234.046C402.215 241.65 401.127 249.203 399.291 256.589C398.523 260.509 397.021 264.249 394.863 267.612C394.544 268.165 394.02 268.571 393.404 268.74C400.838 280.243 407.605 292.163 413.674 304.441C414.391 305.872 412.145 306.875 411.4 305.465C406.084 295.502 400.489 285.754 394.615 276.223C394.274 276.46 393.888 276.626 393.481 276.711C389.917 276.979 386.332 276.742 382.834 276.007Z" fill="#5EAD41"/>
<path fill-rule="evenodd" clip-rule="evenodd" d="M379.167 177.825C377.775 174.205 376.586 170.51 375.605 166.758C375.75 166.831 375.913 166.859 376.074 166.836C377.111 166.698 378.102 166.321 378.968 165.735C379.834 165.149 380.553 164.369 381.066 163.457C381.661 162.352 382.536 159.765 381.424 158.685C380.312 157.605 377.816 159.41 376.915 160.11C375.974 160.795 375.195 161.677 374.63 162.695C373.76 159.047 372.979 155.31 372.21 151.542L372.51 151.642C373.441 151.761 374.386 151.684 375.285 151.416C376.184 151.148 377.017 150.695 377.731 150.086C378.757 149.203 380.617 146.701 379.812 145.205C379.006 143.709 376.228 144.868 375.088 145.313C373.642 145.834 372.392 146.791 371.51 148.051C370.744 144.23 369.956 140.418 369.095 136.613L369.289 136.529C370.31 136.282 371.256 135.789 372.044 135.093C372.832 134.397 373.437 133.519 373.807 132.535C374.353 131.374 375.392 129.46 373.659 128.778C372.817 128.648 371.956 128.709 371.14 128.958C370.325 129.206 369.576 129.636 368.95 130.214C368.525 130.553 368.156 130.956 367.854 131.409C366.906 127.641 365.85 123.921 364.619 120.328C365.957 119.159 366.893 117.598 367.295 115.868C367.697 114.137 367.544 112.324 366.858 110.685C366.799 110.571 366.71 110.476 366.599 110.411C366.489 110.345 366.363 110.312 366.235 110.315C365.171 110.39 364.177 110.872 363.46 111.662C362.743 112.452 362.359 113.489 362.388 114.555C361.031 111.344 359.425 108.245 357.582 105.286L357.755 105.211C358.848 103.913 359.541 102.326 359.75 100.641C359.959 98.9573 359.675 97.2486 358.932 95.7227C358.863 95.5947 358.759 95.4887 358.632 95.4168C358.506 95.3449 358.362 95.3101 358.216 95.3163C357.398 95.3964 356.627 95.7375 356.018 96.2892C355.409 96.8409 354.993 97.5739 354.832 98.3801C354.584 99.1412 354.419 99.9268 354.339 100.723C352.161 97.9561 349.68 95.4406 346.944 93.2234C347.396 91.6518 347.4 89.9852 346.955 88.4116C346.51 86.838 345.634 85.4202 344.426 84.3182C344.292 84.2036 344.129 84.1299 343.955 84.1057C343.78 84.0815 343.603 84.108 343.443 84.1819C342.688 84.6043 342.092 85.2632 341.747 86.0573C341.402 86.8514 341.328 87.7367 341.536 88.5771C341.677 88.9005 341.633 89.3299 341.706 89.734C341.149 89.3955 340.566 89.0593 339.959 88.7252C339.651 86.2927 338.755 83.9717 337.348 81.9633C336.443 80.7675 334.308 78.9274 333.177 80.984C332.9 81.7884 332.807 82.6447 332.904 83.49C333.001 84.3353 333.287 85.1479 333.74 85.8682C334.262 86.9107 335.013 87.8221 335.936 88.5346C336.859 89.2471 337.93 89.7425 339.071 89.9839C340.105 90.5336 341.106 91.1237 342.064 91.7326C340.915 91.788 339.783 92.0379 338.718 92.4713C337.748 92.8937 335.388 93.7163 335.766 95.1158C336.145 96.5153 339.377 97.5185 340.846 97.4174C341.855 97.3233 342.835 97.0269 343.727 96.5459C344.619 96.065 345.405 95.4093 346.038 94.6179C348.569 96.6477 350.869 98.9483 352.898 101.479C351.836 101.215 350.735 101.139 349.646 101.254C348.504 101.341 346.677 101.444 347.026 103.01C347.345 103.839 347.849 104.585 348.499 105.19C349.149 105.796 349.929 106.245 350.779 106.505C352.595 107.039 354.545 106.876 356.247 106.047C357.955 108.749 359.46 111.574 360.748 114.499C359.981 113.809 359.084 113.279 358.109 112.942C357.134 112.604 356.101 112.466 355.071 112.535C354.948 112.568 354.836 112.633 354.744 112.722C354.653 112.811 354.586 112.922 354.549 113.044C354.36 114.01 354.421 115.007 354.725 115.943C355.029 116.878 355.567 117.721 356.287 118.391C357.13 119.194 358.137 119.805 359.239 120.179C360.341 120.554 361.512 120.685 362.669 120.561C362.818 120.535 362.958 120.474 363.079 120.383C364.435 124.204 365.56 128.202 366.578 132.246C365.942 131.339 365.085 130.607 364.088 130.122C363.092 129.636 361.988 129.412 360.881 129.47C360.786 129.469 360.693 129.487 360.605 129.523C360.518 129.559 360.439 129.612 360.372 129.679C360.306 129.747 360.254 129.826 360.219 129.914C360.184 130.002 360.167 130.096 360.169 130.19C360.143 131.06 360.31 131.924 360.657 132.722C361.004 133.519 361.523 134.23 362.178 134.804C363.763 135.747 365.612 136.148 367.445 135.946C368.259 139.465 368.968 142.977 369.693 146.585C368.303 145.156 366.405 144.333 364.412 144.294C364.254 144.299 364.101 144.357 363.978 144.456C363.855 144.556 363.768 144.694 363.73 144.847C363.664 145.612 363.753 146.381 363.991 147.11C364.23 147.839 364.612 148.513 365.116 149.091C365.786 149.794 366.604 150.341 367.51 150.691C368.416 151.042 369.389 151.187 370.358 151.117L370.574 151.023C371.404 155.226 372.268 159.389 373.242 163.453C372.328 162.624 371.225 162.033 370.029 161.731C368.833 161.429 367.582 161.425 366.384 161.721C366.228 161.758 366.089 161.847 365.99 161.974C365.891 162.101 365.839 162.258 365.842 162.418C365.989 163.233 366.31 164.006 366.782 164.685C367.255 165.364 367.869 165.934 368.581 166.355C369.395 166.745 370.278 166.97 371.179 167.018C372.08 167.066 372.981 166.935 373.832 166.633L374.004 166.558C374.995 170.464 376.215 174.309 377.658 178.071C378.024 178.912 379.412 178.565 379.058 177.693L379.167 177.825Z" fill="#5EAD41"/>
<path fill-rule="evenodd" clip-rule="evenodd" d="M25.9386 -0.683298C26.2442 -0.683298 26.3715 -4.09113 27.8736 -5.96676C30.4197 -9.18967 38.8724 -5.72899 34.6715 -0.419108C33.4748 1.08668 31.8199 2.22262 31.8963 2.22262C32.7263 1.97536 33.5802 1.8247 34.4423 1.77349C41.4948 1.61499 40.1454 13.9255 31.8963 10.7818C30.5724 10.2799 30.8524 10.2798 31.4889 11.495C31.8199 12.1026 32.3037 12.816 32.7365 13.5557C33.1398 14.2893 33.2615 15.1537 33.0775 15.9764C32.8934 16.7991 32.417 17.5195 31.7436 17.9938C29.6813 19.3939 25.9896 19.1825 25.1494 16.5144C24.8234 15.3865 24.6101 14.2269 24.5129 13.0537C24.0037 8.50995 25.6331 19.1825 18.5807 18.9976C15.6273 18.9976 13.3359 16.3558 16.7475 12.2612C17.2434 11.6593 17.7794 11.0944 18.3515 10.5705C19.0899 9.91006 19.1153 9.77797 18.1478 10.0686C16.849 10.5527 15.4428 10.6353 14.0996 10.3063C12.3174 9.61946 11.3499 5.02284 12.4956 2.61886C14.1506 -0.683298 17.1803 0.505513 19.0898 1.16595C20.9993 1.82638 21.6359 1.64141 19.5482 0.373378C18.8395 -0.0413857 18.1666 -0.518681 17.5368 -1.05318C12.4448 -5.54412 22.1706 -12.1484 24.793 -4.4874C25.4295 -2.61177 25.6332 -0.762547 25.8368 -0.762547L25.9386 -0.683298ZM23.9527 2.27543C23.0871 2.98869 24.3856 3.9133 25.1494 3.51704C25.9132 3.12078 25.1494 1.19232 23.9527 2.27543ZM28.0773 3.72843C27.2626 2.19622 26.4478 1.58862 25.9386 3.72843C25.6076 5.12854 25.5058 7.08342 27.3135 6.37016C27.5466 6.2667 27.755 6.11135 27.9239 5.91514C28.0928 5.71894 28.2181 5.48662 28.2909 5.23464C28.3638 4.98265 28.3825 4.71718 28.3456 4.4569C28.3086 4.19662 28.217 3.94794 28.0773 3.72843ZM23.1126 4.36242C21.3304 5.20777 21.8141 7.00415 23.2399 7.00415C26.3715 7.00415 25.2258 3.35856 23.1126 4.36242ZM24.5892 7.40039C22.2469 8.61559 24.5893 9.61944 26.677 8.72125C28.7647 7.82307 26.7534 6.13237 24.5892 7.24189V7.40039Z" fill="#5EAD41"/>
<path fill-rule="evenodd" clip-rule="evenodd" d="M78.2665 192.293C78.7831 192.067 79.2228 191.687 79.5298 191.203C79.8367 190.718 79.997 190.15 79.9901 189.571C80.0033 189.531 80.0033 189.487 79.9901 189.447C79.667 188.977 79.2162 188.616 78.6947 188.411C78.1733 188.205 77.6044 188.163 77.06 188.291C76.5962 188.445 76.1639 188.686 75.7845 189.002C75.9548 188.53 76.0423 188.03 76.043 187.526C75.995 186.949 75.7805 186.399 75.4272 185.949C75.0739 185.499 74.598 185.168 74.0609 185H73.9402C73.4031 185.168 72.9272 185.499 72.5739 185.949C72.2206 186.399 72.0061 186.949 71.958 187.526C71.9639 188.029 72.0513 188.528 72.2166 189.002C71.833 188.693 71.4019 188.452 70.9411 188.291C70.3966 188.163 69.8278 188.205 69.3063 188.411C68.7848 188.616 68.3341 188.977 68.0109 189.447C67.9964 189.487 67.9964 189.531 68.0109 189.571C68.0041 190.15 68.1643 190.718 68.4713 191.203C68.7782 191.687 69.218 192.067 69.7345 192.293C70.1962 192.446 70.6808 192.512 71.1652 192.488C70.7663 192.775 70.4118 193.123 70.1137 193.52C69.8289 194.016 69.6933 194.589 69.724 195.165C69.7546 195.742 69.9503 196.295 70.2861 196.757C70.2861 196.757 70.2861 196.757 70.3895 196.757C70.7212 196.849 71.063 196.897 71.4065 196.899C72.0443 196.907 72.6636 196.678 73.1511 196.253C73.6385 195.829 73.9615 195.237 74.0609 194.587C74.1602 195.237 74.4832 195.829 74.9706 196.253C75.4581 196.678 76.0774 196.907 76.7153 196.899C77.053 196.896 77.3889 196.848 77.7149 196.757C77.7149 196.757 77.8011 196.757 77.8184 196.757C78.1542 196.295 78.3498 195.742 78.3805 195.165C78.4112 194.589 78.2755 194.016 77.9907 193.52C77.6926 193.123 77.3381 192.775 76.9393 192.488C77.4237 192.512 77.9083 192.446 78.3699 192.293H78.2665ZM73.9574 185.427C74.3946 185.579 74.7801 185.857 75.0675 186.23C75.3549 186.602 75.532 187.052 75.5777 187.526C75.4856 188.791 74.9953 189.99 74.1815 190.941C74.1815 190.941 74.1815 191.136 74.1815 188.575C74.1839 188.548 74.1808 188.521 74.1723 188.495C74.1639 188.469 74.1503 188.445 74.1324 188.425C74.1146 188.405 74.0929 188.389 74.0687 188.378C74.0445 188.367 74.0183 188.362 73.9919 188.362C73.937 188.362 73.8845 188.384 73.8457 188.424C73.8069 188.464 73.7851 188.519 73.7851 188.575V190.763C73.5284 190.392 73.2522 190.036 72.9577 189.696C72.5791 189.038 72.3713 188.291 72.3545 187.526C72.4015 187.05 72.5811 186.598 72.8718 186.226C73.1624 185.853 73.5515 185.576 73.9919 185.427H73.9574ZM69.7518 191.901C69.332 191.701 68.9752 191.383 68.7222 190.984C68.4692 190.584 68.3303 190.119 68.3211 189.642C68.5935 189.258 68.9678 188.962 69.3989 188.792C69.8301 188.621 70.2998 188.583 70.7515 188.682C71.8953 189.161 72.853 190.018 73.4748 191.119C73.4748 191.119 73.6299 191.119 71.2858 190.407C71.2356 190.396 71.1832 190.404 71.1386 190.43C71.094 190.457 71.0604 190.499 71.0445 190.549C71.0276 190.601 71.0307 190.658 71.0531 190.708C71.0756 190.757 71.1157 190.796 71.1652 190.816L73.1818 191.492C72.7554 191.615 72.3402 191.776 71.9408 191.972C71.2213 192.15 70.4713 192.15 69.7518 191.972V191.901ZM72.9922 195.761C72.9093 196.03 72.7656 196.274 72.5729 196.475C72.3803 196.675 72.1443 196.825 71.8844 196.912C71.6245 197 71.3481 197.022 71.0781 196.978C70.8081 196.933 70.5523 196.823 70.3317 196.657C70.1111 196.49 69.932 196.272 69.8094 196.019C69.6867 195.767 69.6239 195.489 69.6262 195.206C69.6285 194.924 69.6958 194.647 69.8225 194.397C69.9493 194.147 70.1318 193.932 70.3551 193.769C71.1538 192.803 72.2377 192.134 73.4403 191.866C73.4403 191.866 73.5437 191.741 72.0959 193.787C72.0651 193.827 72.0484 193.877 72.0484 193.929C72.0484 193.98 72.0651 194.031 72.0959 194.071C72.1136 194.091 72.135 194.106 72.1587 194.117C72.1824 194.127 72.208 194.133 72.2338 194.133C72.2596 194.133 72.2852 194.127 72.3089 194.117C72.3326 194.106 72.354 194.091 72.3717 194.071L73.6127 192.293C73.5694 192.748 73.5694 193.207 73.6127 193.662C73.5271 194.425 73.2672 195.157 72.8543 195.796L72.9922 195.761ZM73.9574 191.741C73.9026 191.741 73.85 191.719 73.8112 191.679C73.7724 191.639 73.7506 191.584 73.7506 191.528C73.7506 191.471 73.7724 191.417 73.8112 191.377C73.85 191.337 73.9026 191.314 73.9574 191.314C73.9839 191.314 74.01 191.32 74.0342 191.331C74.0584 191.342 74.0801 191.358 74.098 191.378C74.1158 191.398 74.1294 191.422 74.1379 191.447C74.1463 191.473 74.1494 191.501 74.147 191.528C74.1472 191.581 74.1278 191.633 74.0927 191.673C74.0575 191.712 74.0093 191.737 73.9574 191.741ZM77.5598 193.769C77.779 193.934 77.9572 194.151 78.08 194.4C78.2028 194.65 78.2666 194.927 78.2663 195.207C78.2659 195.487 78.2015 195.763 78.0781 196.013C77.9547 196.262 77.776 196.478 77.5564 196.643C77.3368 196.808 77.0826 196.917 76.8145 196.961C76.5464 197.005 76.272 196.983 76.0136 196.897C75.7552 196.811 75.5201 196.664 75.3275 196.466C75.135 196.269 74.9903 196.027 74.9054 195.761C74.2799 194.692 73.9965 193.448 74.0953 192.204C74.0953 192.204 74.0953 192.044 75.457 194.107C75.4749 194.14 75.5011 194.168 75.5329 194.187C75.5648 194.207 75.601 194.217 75.638 194.217C75.6749 194.217 75.7112 194.207 75.743 194.187C75.7749 194.168 75.8011 194.14 75.8189 194.107C75.8405 194.072 75.8519 194.032 75.8519 193.991C75.8519 193.95 75.8405 193.91 75.8189 193.876L74.5779 192.097C74.9986 192.257 75.4308 192.381 75.8706 192.47C76.5395 192.792 77.1288 193.267 77.5943 193.858L77.5598 193.769ZM74.5607 191.563C75.2619 191.249 75.9886 190.999 76.7325 190.816C76.7819 190.796 76.822 190.757 76.8445 190.708C76.867 190.658 76.8701 190.601 76.8531 190.549C76.8372 190.499 76.8037 190.457 76.7591 190.43C76.7145 190.404 76.662 190.396 76.6118 190.407L74.5779 191.083C74.8602 190.723 75.1085 190.336 75.3191 189.927C75.8156 189.358 76.4445 188.93 77.1462 188.682C77.5962 188.586 78.0634 188.623 78.4935 188.79C78.9237 188.957 79.2992 189.246 79.5765 189.625C79.5758 190.104 79.4401 190.572 79.1861 190.973C78.9322 191.374 78.5708 191.69 78.1459 191.883C76.9499 192.196 75.6868 192.083 74.5607 191.563Z" fill="#5EAD41"/>
</g>
<defs>
<clipPath id="clip0_182_18127">
<rect width="375" height="487" fill="white"/>
</clipPath>
</defs>
</svg>
