<svg width="562" height="254" viewBox="0 0 562 254" fill="none" xmlns="http://www.w3.org/2000/svg">
<g clip-path="url(#clip0_407_4853)">
<g clip-path="url(#clip1_407_4853)">
<path fill-rule="evenodd" clip-rule="evenodd" d="M505.183 106.204C506.159 103.805 506.264 101.143 505.478 98.6762C504.64 96.6231 502.472 95.1566 500.549 96.4765C499.958 94.2279 497.345 93.9834 495.373 95.01C493.178 96.4171 491.528 98.5188 490.69 100.974C489.787 103.504 489.175 106.128 488.866 108.795C488.275 113.194 487.979 117.545 487.732 121.895C486.507 117.746 484.855 113.733 482.803 109.919C479.106 102.587 473.536 94.4234 469.05 85.9179C472.451 80.5897 476.05 75.457 478.909 69.7867C480.115 67.7444 481.059 65.5603 481.719 63.2854C482.391 61.1212 482.304 58.7951 481.472 56.6862C480.585 54.9265 478.613 53.8021 476.986 55.122C476.345 53.1667 474.029 53.1178 472.353 54.1443C470.527 55.5104 469.238 57.463 468.705 59.6681C468.092 61.9513 467.744 64.2966 467.67 66.6582C467.324 72.4263 467.67 77.999 467.67 83.6693C462.05 72.3286 458.698 60.548 464.219 49.4517C469.74 43.7324 475.507 38.4043 480.733 32.1962C482.51 30.1773 484.048 27.9631 485.317 25.5971C486.575 23.3516 487.027 20.7492 486.599 18.2159C486.007 16.1139 484.085 14.3541 482.014 15.4295C481.718 13.1321 479.155 12.5455 477.085 13.3276C474.753 14.4478 472.863 16.3049 471.712 18.6068C470.488 20.9962 469.561 23.524 468.951 26.1348C467.127 32.8316 466.092 39.4796 464.86 46.1276C461.651 51.1579 460.085 57.0469 460.374 62.992C458.846 57.2239 457.416 51.4558 455.445 45.6877C454.672 43.2508 453.595 40.919 452.24 38.7464C451.025 36.5515 449.097 34.8287 446.769 33.8582C444.698 33.2716 442.332 33.8581 442.234 36.2534C440.163 35.3735 438.438 37.1333 438.044 39.2352C437.822 41.6817 438.448 44.1302 439.818 46.1766C441.225 48.3305 442.879 50.3153 444.748 52.0913C449.677 57.3217 455.395 61.8678 460.818 66.4627C461.971 74.377 464.578 82.0148 468.508 88.9975C471.564 94.7656 475.113 100.289 478.367 106.057C474.275 101.854 470.233 97.6007 465.698 93.6413C463.791 91.9098 461.691 90.4009 459.437 89.1441C457.307 87.9216 454.826 87.4398 452.388 87.7754C450.318 88.2642 448.593 90.0729 449.579 92.0771C447.36 92.0771 446.769 94.7167 447.459 96.9653C448.506 99.0949 450.241 100.816 452.388 101.854C454.651 103.073 457.05 104.025 459.536 104.689C466.388 106.693 473.191 107.817 480.043 109.235C482.08 113.192 483.731 117.333 484.972 121.602C487.334 131.154 486.107 141.233 481.521 149.954C481.521 143.99 481.817 138.075 481.521 132.014C481.416 129.301 480.986 126.61 480.24 123.997C479.605 121.472 478.107 119.243 476 117.691C474.078 116.518 471.416 116.567 470.677 118.816C468.803 117.349 466.536 118.816 465.747 120.673C464.898 123.145 464.898 125.827 465.747 128.299C466.525 130.897 467.617 133.392 469.001 135.729C472.5 142.035 476.493 147.754 480.388 153.669C479.451 155.771 478.416 157.824 477.43 159.975C473.87 167.646 471.972 175.972 471.86 184.416C471.317 180.261 470.726 176.106 469.839 171.902C469.334 169.229 468.524 166.621 467.423 164.13C466.468 161.745 464.732 159.748 462.494 158.459C460.423 157.579 457.811 158.019 457.564 160.366C455.494 159.144 453.423 160.806 452.635 162.908C452.067 165.46 452.38 168.128 453.522 170.484C454.671 172.942 456.111 175.256 457.811 177.377C462.444 183.536 467.67 188.962 472.599 194.632C473.87 204.428 476.065 214.084 479.155 223.473C480.141 226.846 481.176 230.267 482.162 233.689C479.599 229.681 476.986 225.673 474.029 221.811C472.454 219.581 470.599 217.561 468.508 215.798C466.565 214.051 464.077 213.016 461.459 212.865C459.191 212.865 457.022 214.43 457.614 216.727C455.247 216.483 454.114 218.829 454.409 221.078C454.987 223.618 456.411 225.891 458.451 227.53C460.56 229.264 462.858 230.756 465.304 231.978C471.465 235.204 477.726 237.697 483.986 240.386C487.88 255.882 489.606 271.622 483.099 286.531C482.877 286.625 482.701 286.8 482.606 287.02C481.817 288.682 481.078 290.344 480.338 291.908C480.162 292.245 480.127 292.638 480.243 293C480.359 293.362 480.615 293.664 480.954 293.839C481.294 294.014 481.69 294.048 482.056 293.933C482.421 293.819 482.725 293.565 482.902 293.228C493.746 277.585 491.577 257.153 487.141 239.702C485.564 233.689 483.69 227.579 481.817 221.518C485.218 215.603 488.718 209.835 491.676 203.529C492.902 201.123 493.829 198.579 494.437 195.952C495.07 193.458 494.844 190.825 493.796 188.473C492.662 186.518 490.345 185.345 488.571 186.909C487.733 184.758 485.071 184.807 483.247 186.127C481.242 187.785 479.883 190.084 479.402 192.628C478.821 195.26 478.557 197.951 478.613 200.645C478.613 204.653 478.613 208.564 479.106 212.474C474.679 199.464 473.695 185.544 476.247 172.049C482.754 168.529 489.31 165.352 495.62 161.294C497.949 159.931 500.101 158.289 502.028 156.406C503.909 154.626 505.126 152.265 505.478 149.709C505.478 147.461 504.246 145.212 501.929 145.652C502.324 143.355 500.056 142.035 497.789 142.181C495.225 142.562 492.865 143.784 491.084 145.652C489.193 147.587 487.538 149.736 486.155 152.056C483 156.944 480.388 161.832 477.775 167.063C478.169 165.889 478.613 164.765 479.106 163.641C482.951 154.744 488.472 146.434 489.655 136.658C489.876 134.349 489.876 132.025 489.655 129.716C493.796 124.291 498.035 119.06 501.831 113.194C503.209 110.996 504.334 108.652 505.183 106.204Z" fill="#265113"/>
<path fill-rule="evenodd" clip-rule="evenodd" d="M347.613 182.595C347.847 181.358 347.645 180.078 347.041 178.973C346.445 178.048 345.279 177.551 344.499 178.385C344.001 177.344 342.741 177.472 342.021 178.124C341.067 178.991 340.442 180.16 340.251 181.435C340.067 182.736 340.028 184.054 340.133 185.364C340.269 187.52 340.536 189.602 340.831 191.702C339.854 189.839 338.692 188.078 337.363 186.446C334.895 183.297 331.508 179.917 328.584 176.3C329.69 173.436 330.908 170.648 331.721 167.648C332.103 166.561 332.344 165.429 332.436 164.28C332.549 163.184 332.288 162.081 331.695 161.152C331.113 160.418 330.068 160.043 329.423 160.826C328.934 159.953 327.832 160.147 327.141 160.818C326.409 161.634 325.982 162.679 325.931 163.774C325.859 164.922 325.917 166.074 326.103 167.209C326.485 169.996 327.181 172.648 327.713 175.332C323.983 170.468 321.276 165.134 322.84 159.317C324.913 156.068 327.145 153.006 329.008 149.555C329.669 148.425 330.195 147.222 330.577 145.969C330.959 144.779 330.926 143.494 330.486 142.324C330.002 141.353 328.925 140.693 328.051 141.424C327.689 140.332 326.424 140.315 325.513 140.86C324.522 141.623 323.813 142.694 323.497 143.904C323.141 145.154 322.933 146.441 322.874 147.739C322.644 151.108 322.784 154.379 322.829 157.67C321.807 160.376 321.631 163.33 322.325 166.139C321.055 163.528 319.832 160.908 318.353 158.339C317.752 157.25 317.022 156.238 316.178 155.325C315.384 154.438 314.318 153.839 313.148 153.621C312.117 153.558 311.047 154.037 311.204 155.195C310.164 154.964 309.518 155.99 309.525 157.007C309.65 158.197 310.179 159.308 311.023 160.155C311.894 161.059 312.867 161.859 313.921 162.54C316.746 164.552 319.888 166.209 322.886 167.871C324.188 171.543 326.138 174.953 328.642 177.938C330.654 180.377 332.862 182.705 334.92 185.135C332.585 183.512 330.268 181.861 327.751 180.419C326.689 179.763 325.55 179.239 324.361 178.859C323.239 178.457 322.014 178.452 320.889 178.844C319.959 179.295 319.309 180.297 319.965 181.162C318.915 181.37 318.885 182.686 319.401 183.578C320.091 184.546 321.086 185.254 322.226 185.59C323.413 185.946 324.637 186.167 325.874 186.249C329.308 186.563 332.636 186.462 336.019 186.519C337.362 188.214 338.536 190.037 339.524 191.961C341.543 196.294 341.915 201.214 340.569 205.8C340.009 202.976 339.589 200.124 338.871 197.234C338.562 195.949 338.104 194.704 337.505 193.526C336.952 192.39 336.035 191.47 334.901 190.913C333.88 190.533 332.628 190.83 332.491 191.973C331.461 191.425 330.53 192.361 330.333 193.322C330.152 194.575 330.405 195.851 331.05 196.94C331.664 198.108 332.417 199.197 333.294 200.183C335.529 202.893 337.984 205.245 340.384 207.681C340.139 208.772 339.848 209.873 339.58 210.969C338.608 214.965 338.497 219.121 339.256 223.163C338.606 221.23 337.932 219.301 337.114 217.377C336.616 216.151 335.986 214.983 335.235 213.892C334.558 212.849 333.548 212.066 332.369 211.671C331.305 211.445 330.105 211.877 330.21 213.02C329.138 212.627 328.315 213.615 328.121 214.72C328.093 215.985 328.492 217.222 329.254 218.232C330.031 219.297 330.931 220.267 331.937 221.12C334.719 223.65 337.702 225.727 340.573 227.972C342.099 232.531 344.053 236.936 346.407 241.128C347.193 242.646 348.007 244.183 348.798 245.724C347.205 244.051 345.588 242.382 343.822 240.816C342.742 239.904 341.554 239.129 340.284 238.509C339.194 237.868 337.922 237.608 336.669 237.77C335.595 237.983 334.72 238.957 335.213 239.975C334.07 240.08 333.76 241.33 334.108 242.353C334.617 243.515 335.508 244.468 336.633 245.055C337.791 245.694 339.021 246.191 340.298 246.536C343.521 247.498 346.722 248.101 349.94 248.797C353.228 255.835 355.562 263.208 353.892 270.938C353.796 271.004 353.729 271.104 353.705 271.218C353.485 272.062 353.292 272.925 353.094 273.765C353.074 273.931 353.113 274.099 353.204 274.24C353.295 274.38 353.433 274.484 353.593 274.533C353.753 274.582 353.926 274.574 354.08 274.509C354.234 274.444 354.361 274.327 354.438 274.178C358.092 265.691 355.131 256.137 351.379 248.221C350.058 245.474 348.597 242.756 347.132 240.014C348.183 236.87 349.299 233.811 350.103 230.522C350.447 229.257 350.645 227.956 350.693 226.645C350.76 225.384 350.393 224.138 349.653 223.115C348.955 222.283 347.747 221.941 347.054 222.854C346.431 221.91 345.203 222.202 344.459 222.98C343.667 223.961 343.241 225.186 343.254 226.446C343.228 227.757 343.358 229.067 343.639 230.348C344.019 232.262 344.389 234.129 344.992 235.95C341.665 230.153 339.881 223.599 339.812 216.915C342.565 214.647 345.341 212.496 347.968 209.962C348.943 209.093 349.806 208.107 350.54 207.026C351.257 205.988 351.607 204.74 351.535 203.481C351.327 202.431 350.53 201.473 349.475 201.9C349.44 200.743 348.246 200.349 347.181 200.608C345.998 201.031 344.995 201.846 344.34 202.918C343.63 204.021 343.05 205.202 342.612 206.438C341.604 209.064 340.829 211.643 340.083 214.363C340.163 213.789 340.262 213.187 340.389 212.604C341.349 208.023 343.2 203.532 342.835 198.753C342.721 197.63 342.501 196.52 342.178 195.438C343.625 192.459 345.133 189.54 346.375 186.382C346.933 185.172 347.349 183.901 347.613 182.595Z" fill="#265113"/>
<path fill-rule="evenodd" clip-rule="evenodd" d="M518.111 150.301C517.594 148.787 517.602 147.143 518.134 145.634C518.743 144.392 520.09 143.52 521.227 144.426C521.66 143.053 523.272 142.953 524.449 143.649C525.751 144.588 526.698 145.939 527.135 147.483C527.611 149.085 527.894 150.738 527.978 152.407C528.234 155.148 528.279 157.848 528.296 160.517C529.183 157.991 530.321 155.56 531.694 153.261C534.19 148.87 537.862 143.993 540.879 138.871C538.959 135.469 536.912 132.183 535.335 128.587C534.681 127.28 534.181 125.901 533.845 124.479C533.439 123.136 533.512 121.693 534.051 120.397C534.651 119.336 535.897 118.671 536.823 119.537C537.306 118.379 538.729 118.42 539.725 119.107C540.802 120.009 541.532 121.257 541.79 122.637C542.097 124.068 542.237 125.53 542.207 126.993C542.24 130.542 541.852 134.009 541.677 137.486C545.507 130.677 547.933 123.463 544.893 116.428C541.686 112.689 538.313 109.244 535.302 105.242C534.271 103.941 533.396 102.523 532.696 101.018C531.997 99.589 531.801 97.966 532.141 96.412C532.571 95.0998 533.803 94.1011 535.04 94.8305C535.293 93.4184 536.884 93.135 538.129 93.683C539.54 94.4289 540.647 95.6424 541.26 97.1152C541.941 98.6294 542.431 100.222 542.718 101.857C543.628 106.057 544.057 110.171 544.603 114.352C546.409 117.564 547.176 121.256 546.798 124.921C547.917 121.37 548.973 117.877 550.362 114.37C550.942 112.884 551.684 111.468 552.577 110.146C553.399 108.878 554.636 107.933 556.077 107.474C557.365 107.175 558.798 107.611 558.785 109.066C560.083 108.585 561.085 109.758 561.261 111.07C561.318 112.59 560.858 114.085 559.955 115.309C559.025 116.598 557.948 117.774 556.747 118.815C553.559 121.898 549.91 124.533 546.44 127.207C545.48 132.066 543.643 136.709 541.019 140.909C538.964 144.382 536.614 147.689 534.439 151.126C537.111 148.654 539.693 146.147 542.627 143.87C543.844 142.848 545.181 141.979 546.608 141.282C547.952 140.59 549.49 140.368 550.975 140.654C552.23 141.02 553.232 142.193 552.566 143.372C553.926 143.44 554.207 145.092 553.721 146.31C553.038 147.661 551.914 148.739 550.535 149.363C549.114 150.05 547.611 150.555 546.063 150.865C541.798 151.892 537.588 152.407 533.341 153.072C531.95 155.447 530.807 157.96 529.93 160.569C528.186 166.405 528.623 172.677 531.161 178.214C531.347 174.525 531.351 170.857 531.723 167.087C531.867 165.413 532.205 163.761 532.73 162.166C533.228 160.631 534.223 159.305 535.557 158.398C536.772 157.762 538.403 157.875 538.787 159.289C539.983 158.409 541.327 159.417 541.752 160.59C542.196 162.136 542.113 163.785 541.516 165.277C540.95 166.867 540.202 168.386 539.286 169.803C536.942 173.595 534.314 177.009 531.741 180.548C532.251 181.847 532.82 183.179 533.358 184.54C535.306 189.394 536.21 194.605 536.011 199.832C536.473 197.278 536.966 194.726 537.642 192.153C538.011 190.518 538.59 188.937 539.365 187.45C540.017 185.999 541.147 184.815 542.566 184.096C543.863 183.615 545.452 183.969 545.532 185.397C546.84 184.706 548.028 185.796 548.474 187.153C548.746 188.74 548.471 190.372 547.695 191.782C546.908 193.273 545.952 194.669 544.847 195.943C541.812 199.609 538.439 202.774 535.237 206.159C534.151 212.179 532.503 218.084 530.314 223.796C529.573 225.851 528.863 227.907 528.15 230.023C529.849 227.593 531.575 225.224 533.512 222.897C534.555 221.583 535.755 220.401 537.085 219.379C538.325 218.347 539.888 217.783 541.501 217.783C542.892 217.853 544.173 218.888 543.708 220.289C545.198 220.213 545.82 221.7 545.568 223.081C545.133 224.626 544.189 225.977 542.888 226.917C541.548 227.935 540.09 228.787 538.546 229.457C534.664 231.292 530.746 232.64 526.823 234.079C523.949 243.574 522.368 253.256 525.924 262.682C526.057 262.747 526.16 262.86 526.211 262.999C526.643 264.052 527.046 265.073 527.449 266.093C527.505 266.299 527.487 266.518 527.398 266.711C527.31 266.905 527.155 267.061 526.963 267.153C526.77 267.244 526.552 267.265 526.345 267.212C526.139 267.158 525.958 267.034 525.834 266.861C519.671 256.848 521.64 244.276 524.906 233.618C526.033 229.916 527.402 226.226 528.742 222.504C526.839 218.77 524.842 215.092 523.255 211.101C522.578 209.575 522.089 207.973 521.798 206.329C521.488 204.756 521.709 203.125 522.427 201.692C523.182 200.548 524.641 199.864 525.649 200.915C526.262 199.582 527.892 199.725 528.971 200.567C530.148 201.655 530.911 203.12 531.126 204.708C531.384 206.356 531.463 208.027 531.36 209.692C531.234 212.171 531.111 214.621 530.686 217.024C533.792 209.109 534.831 200.534 533.703 192.106C529.822 189.727 525.899 187.559 522.157 184.823C520.77 183.908 519.501 182.826 518.379 181.601C517.29 180.434 516.619 178.94 516.471 177.351C516.542 175.96 517.368 174.607 518.775 174.951C518.605 173.518 520.037 172.772 521.425 172.902C522.988 173.23 524.396 174.069 525.428 175.287C526.528 176.543 527.476 177.923 528.252 179.401C530.034 182.523 531.484 185.628 532.925 188.914C532.718 188.206 532.481 187.497 532.215 186.756C530.133 181.164 527.006 175.852 526.586 169.768C526.507 168.333 526.58 166.894 526.803 165.474C524.432 161.989 521.997 158.592 519.852 154.846C519.099 153.403 518.515 151.878 518.111 150.301Z" fill="#265113"/>
<path fill-rule="evenodd" clip-rule="evenodd" d="M101.3 253.532C101.483 249.37 101.897 245.223 102.54 241.107C102.652 241.241 102.802 241.338 102.97 241.385C104.053 241.694 105.192 241.748 106.299 241.542C107.405 241.336 108.449 240.876 109.347 240.198C110.409 239.365 112.383 237.193 111.75 235.653C111.118 234.112 107.879 234.82 106.69 235.123C105.467 235.394 104.319 235.928 103.325 236.688C104.033 232.724 104.868 228.708 105.728 224.668L105.981 224.895C106.848 225.412 107.814 225.742 108.816 225.863C109.818 225.985 110.835 225.896 111.801 225.602C113.193 225.173 116.102 223.506 115.951 221.688C115.799 219.87 112.56 219.82 111.244 219.769C109.593 219.663 107.949 220.068 106.538 220.931C107.424 216.84 108.284 212.749 109.068 208.633H109.296C110.41 208.828 111.555 208.748 112.631 208.401C113.707 208.053 114.682 207.448 115.47 206.638C116.507 205.729 118.354 204.289 116.937 202.875C116.162 202.386 115.286 202.077 114.375 201.972C113.464 201.867 112.541 201.969 111.674 202.269C111.11 202.421 110.572 202.66 110.08 202.976C110.763 198.86 111.32 194.744 111.649 190.678C113.471 190.101 115.065 188.966 116.205 187.434C117.345 185.902 117.973 184.051 118 182.143C117.991 182.006 117.944 181.874 117.863 181.762C117.783 181.65 117.672 181.564 117.545 181.512C116.463 181.129 115.274 181.178 114.228 181.648C113.181 182.119 112.357 182.975 111.927 184.037C111.969 180.294 111.715 176.553 111.168 172.85H111.371C113.007 172.04 114.373 170.775 115.302 169.206C116.232 167.637 116.686 165.833 116.608 164.012C116.595 163.856 116.538 163.707 116.444 163.582C116.35 163.457 116.223 163.361 116.077 163.305C115.235 163.033 114.328 163.038 113.49 163.32C112.652 163.602 111.926 164.145 111.421 164.87C110.85 165.513 110.349 166.216 109.928 166.966C108.968 163.307 107.602 159.767 105.855 156.411C106.976 155.057 107.696 153.418 107.933 151.677C108.17 149.937 107.915 148.165 107.196 146.562C107.113 146.392 106.984 146.249 106.822 146.151C106.661 146.052 106.474 146.002 106.285 146.007C105.358 146.099 104.487 146.492 103.806 147.126C103.125 147.76 102.671 148.6 102.515 149.517C102.515 149.896 102.287 150.3 102.186 150.729C101.781 150.157 101.351 149.576 100.895 148.986C101.636 146.459 101.749 143.789 101.224 141.209C100.845 139.643 99.5292 136.916 97.5303 138.456C96.911 139.129 96.4509 139.932 96.1838 140.806C95.9167 141.681 95.8494 142.603 95.9869 143.507C96.0543 144.757 96.4032 145.976 97.0078 147.074C97.6123 148.171 98.4567 149.118 99.4785 149.845C100.263 150.83 100.997 151.84 101.68 152.85C100.523 152.412 99.2991 152.173 98.0616 152.143C96.923 152.143 94.241 151.941 94.0133 153.481C93.7855 155.022 96.5435 157.395 98.0364 157.926C99.0724 158.266 100.166 158.394 101.253 158.303C102.34 158.212 103.397 157.903 104.362 157.396C105.986 160.479 107.267 163.731 108.183 167.092C107.247 166.377 106.194 165.83 105.07 165.476C103.907 165.072 102.059 164.39 101.731 166.082C101.689 167.036 101.866 167.986 102.248 168.861C102.629 169.736 103.205 170.513 103.932 171.133C105.494 172.438 107.488 173.113 109.524 173.027C110.049 176.419 110.319 179.846 110.333 183.279C109.874 182.271 109.216 181.364 108.399 180.614C107.582 179.863 106.622 179.284 105.576 178.911C105.441 178.891 105.302 178.906 105.174 178.955C105.045 179.003 104.931 179.084 104.843 179.188C104.242 180.058 103.873 181.066 103.771 182.118C103.669 183.17 103.838 184.23 104.261 185.198C104.747 186.351 105.478 187.384 106.405 188.225C107.331 189.067 108.43 189.697 109.625 190.072C109.783 190.11 109.948 190.11 110.106 190.072C109.802 194.416 109.195 198.835 108.461 203.254C108.223 202.087 107.692 201 106.918 200.094C106.143 199.189 105.15 198.495 104.033 198.077C103.94 198.036 103.84 198.013 103.738 198.011C103.637 198.009 103.536 198.028 103.441 198.065C103.347 198.103 103.261 198.159 103.189 198.231C103.117 198.302 103.06 198.387 103.021 198.481C102.622 199.326 102.415 200.249 102.415 201.183C102.415 202.117 102.622 203.04 103.021 203.885C104.18 205.494 105.832 206.681 107.727 207.269C107.019 211.082 106.209 214.845 105.374 218.708C104.617 216.705 103.098 215.081 101.149 214.188C100.99 214.126 100.815 214.117 100.651 214.162C100.486 214.208 100.341 214.306 100.238 214.441C99.8447 215.165 99.6018 215.961 99.5236 216.781C99.4453 217.601 99.5333 218.428 99.7822 219.214C100.141 220.194 100.713 221.082 101.457 221.816C102.2 222.549 103.097 223.109 104.084 223.456H104.337C103.35 227.951 102.414 232.421 101.629 236.84C101.084 235.632 100.25 234.576 99.1995 233.766C98.1494 232.956 96.9158 232.416 95.6073 232.193C95.437 232.163 95.2614 232.191 95.1096 232.274C94.9578 232.357 94.8388 232.488 94.7723 232.648C94.5676 233.513 94.5521 234.412 94.7268 235.283C94.9014 236.155 95.2621 236.978 95.7844 237.698C96.4194 238.432 97.1934 239.032 98.0619 239.465C98.9304 239.899 99.8762 240.156 100.845 240.224H101.047C100.347 244.495 99.8992 248.804 99.7063 253.128C99.7063 254.112 101.224 254.365 101.25 253.355L101.3 253.532Z" fill="#5EAD41"/>
<path fill-rule="evenodd" clip-rule="evenodd" d="M75.184 151.349C62.3741 161.088 60.0295 176.906 58.605 192.039L58.6919 192.692L58.7388 193.044C57.8067 196.432 57.3541 199.939 57.3943 203.458C50.6134 190.492 43.8725 177.827 30.838 170.299C30.651 170.175 30.4327 170.109 30.2095 170.108C29.9864 170.107 29.768 170.172 29.5809 170.294C29.3938 170.417 29.2459 170.592 29.1554 170.798C29.0648 171.004 29.0354 171.232 29.0706 171.455C31.245 187.798 44.1831 197.642 56.7753 206.406C56.984 206.572 57.2483 206.647 57.5109 206.616C57.8541 211.4 58.6209 216.145 59.8018 220.793C59.9022 221.548 60.0025 222.302 60.1029 223.056L59.5068 223.136C46.9675 210.503 31.4566 201.31 14.4453 196.43C14.2093 196.359 13.9573 196.366 13.726 196.451C13.4948 196.535 13.2965 196.692 13.1602 196.899C13.0238 197.106 12.9567 197.351 12.9685 197.6C12.9802 197.849 13.0703 198.087 13.2256 198.281C23.8166 211.764 42.2865 226.706 60.4671 225.413C62.6193 233.533 65.3666 241.481 68.6864 249.191L67.9412 249.29C55.4112 236.669 39.9203 227.476 22.9296 222.578C22.6936 222.507 22.4414 222.514 22.2101 222.598C21.9789 222.682 21.7807 222.84 21.6444 223.046C21.5081 223.253 21.4409 223.499 21.4526 223.748C21.4644 223.996 21.5544 224.235 21.7097 224.429C32.2443 237.868 50.7706 252.854 68.9014 251.567C69.1579 251.543 69.395 251.42 69.5636 251.223C70.5668 253.444 71.57 255.664 72.6726 257.872C73.3004 259.17 75.3926 258.175 74.7152 256.883C72.8453 253.089 71.1178 249.225 69.483 245.298C79.9607 232.85 92.8856 212.195 91.3064 195.006C91.1525 193.849 89.7911 193.877 89.1759 194.573C78.2749 207.64 67.2365 221.954 67.0904 239.475C65.1755 234.203 63.5024 228.847 62.071 223.408C61.3419 220.588 60.7055 217.705 60.1751 214.859C71.6828 204.832 83.5401 193.634 83.9328 177.206C83.9286 176.984 83.8649 176.768 83.7484 176.58C83.632 176.392 83.4671 176.24 83.2718 176.14C83.0764 176.039 82.8579 175.995 82.6397 176.011C82.4215 176.027 82.2119 176.103 82.0334 176.23C70.3021 184.955 64.7044 197.982 59.5013 211.315C58.4198 204.922 58.8829 198.363 60.851 192.2C68.8515 180.133 76.3447 167.673 76.5206 152.655C76.5441 152.474 76.5253 152.29 76.4656 152.118C76.406 151.945 76.3071 151.789 76.1771 151.662C76.0471 151.535 75.8895 151.44 75.717 151.386C75.5445 151.332 75.3619 151.319 75.184 151.349Z" fill="#5EAD41"/>
</g>
</g>
<defs>
<clipPath id="clip0_407_4853">
<rect width="562" height="254" fill="transparent"/>
</clipPath>
<clipPath id="clip1_407_4853">
<rect width="1440" height="3963" fill="transparent" transform="translate(-878 -1326)"/>
</clipPath>
</defs>
</svg>
