<svg width="12" height="13" viewBox="0 0 12 13" fill="none" xmlns="http://www.w3.org/2000/svg">
<path fill-rule="evenodd" clip-rule="evenodd" d="M7.14887 9.20458C7.02419 9.26977 7.67027 10.5846 7.44358 11.6169C7.05819 13.3663 2.90966 13.7901 3.5104 10.8997C3.70309 10.0739 4.13381 9.30238 4.07714 9.28065C3.78345 9.55797 3.45168 9.79558 3.09101 9.98695C0.223309 11.4865 -1.74894 6.54234 2.28624 6.0425C2.94366 5.96643 2.81898 6.04249 2.28624 5.69477C2.03688 5.53178 1.6855 5.35793 1.35679 5.16233C1.03823 4.96725 0.809284 4.66304 0.716613 4.31172C0.623942 3.9604 0.674525 3.58842 0.858055 3.27162C1.41346 2.31539 2.96633 1.65255 3.86178 2.48925C4.23039 2.85587 4.56067 3.25618 4.84791 3.68451C5.98139 5.30358 3.12502 1.57649 6.06073 0.218207C7.29622 -0.357703 8.75841 0.15301 8.203 2.39146C8.11552 2.72034 8.00572 3.04338 7.87429 3.35853C7.70427 3.76058 7.72694 3.81493 8.06698 3.51068C8.50265 3.06115 9.06615 2.74379 9.68786 2.59788C10.5606 2.50009 11.9548 4.08657 11.9548 5.19493C11.9548 6.7814 10.4586 6.94439 9.52917 7.08565C8.59972 7.22691 8.39569 7.41165 9.52917 7.47685C9.91089 7.48855 10.2905 7.53587 10.6627 7.61812C13.6664 8.29182 11.0367 12.7687 8.39569 10.389C7.76095 9.81308 7.26221 9.15024 7.26221 9.1937L7.14887 9.20458ZM7.35289 7.67243C7.56826 7.21605 6.84282 7.14 6.60479 7.44425C6.36676 7.74851 7.05819 8.33527 7.35289 7.67243ZM5.36931 7.96581C6.00405 8.37873 6.50278 8.44395 6.25342 7.55292C6.1174 6.95528 5.75469 6.19463 5.11994 6.79227C5.04355 6.88022 4.98853 6.98335 4.95886 7.0942C4.92919 7.20506 4.92562 7.32087 4.9484 7.43321C4.97119 7.54555 5.01976 7.65161 5.0906 7.74373C5.16144 7.83585 5.25277 7.91171 5.35797 7.96581H5.36931ZM7.28489 6.70532C7.84029 6.02075 7.28488 5.45572 6.68414 5.73824C5.39197 6.35762 6.61614 7.53116 7.28489 6.70532ZM6.04939 5.85776C6.76348 4.91239 5.55066 5.03195 4.91591 5.78172C4.28116 6.53149 5.39198 6.74879 6.07207 5.85776H6.04939Z" fill="#5EAD41"/>
</svg>
