<svg viewBox="0 0 59 57" fill="none" xmlns="http://www.w3.org/2000/svg">
<path fill-rule="evenodd" clip-rule="evenodd" d="M29.6229 15.1631C30.2788 15.1353 30.2558 8.11901 33.3176 4.12724C38.5032 -2.72866 56.9509 3.61702 48.3939 14.913C45.9558 18.1168 42.5018 20.602 42.6658 20.5951C44.4261 20.0114 46.2463 19.6242 48.0926 19.4407C63.2194 18.4743 61.393 43.9009 43.4101 38.1884C40.5242 37.2769 41.1254 37.2514 42.5975 39.6914C43.3609 40.9103 44.4616 42.3326 45.4551 43.8137C46.3846 45.2851 46.7212 47.0509 46.3976 48.7586C46.074 50.4663 45.1139 51.9903 43.7093 53.0264C39.4036 56.0916 31.4597 55.9925 29.4239 50.5845C28.6261 48.2958 28.0673 45.9315 27.7565 43.5289C26.2682 34.2355 30.6946 56.0249 15.5379 56.2853C9.19743 56.5536 4.04837 51.3315 11.0166 42.6051C12.0288 41.323 13.1304 40.1131 14.3132 38.9843C15.8408 37.5597 15.8839 37.2859 13.8321 37.971C11.086 39.0842 8.07413 39.3816 5.16203 38.8274C1.27617 37.5775 -1.20063 28.217 1.04998 23.1716C4.31567 16.2337 10.9235 18.4022 15.0803 19.5862C19.2372 20.7703 20.5877 20.3323 15.9954 17.9155C14.438 17.1273 12.9517 16.2074 11.5532 15.1659C0.230875 6.39729 20.5364 -8.06111 26.8325 7.44786C28.3621 11.2454 28.9602 15.0279 29.3974 15.0094L29.6229 15.1631ZM25.6167 21.4251C23.8203 22.9698 26.6884 24.7524 28.2937 23.8685C29.899 22.9847 28.0915 19.0901 25.6167 21.4251ZM34.5978 24.0371C32.7155 20.9617 30.9136 19.7868 30.0065 24.2313C29.4177 27.1393 29.3691 31.1668 33.1879 29.5365C33.6793 29.3027 34.1132 28.9645 34.4587 28.5458C34.8043 28.1272 35.053 27.6383 35.1875 27.1137C35.322 26.5891 35.3391 26.0418 35.2372 25.5101C35.1353 24.9785 34.9169 24.4756 34.5978 24.0371ZM23.9945 25.7912C20.2419 27.6907 21.4366 31.3392 24.4975 31.2097C31.2206 30.9252 28.444 23.5358 23.9945 25.7912ZM27.4289 31.9016C22.5059 34.6122 27.6219 36.4628 32.0258 34.427C36.4298 32.3912 31.9646 29.0986 27.4151 31.5758L27.4289 31.9016Z" fill="#5EAD41"/>
</svg>
