<svg viewBox="0 0 75 75" fill="none" xmlns="http://www.w3.org/2000/svg">
<rect x="0.5" y="0.5" width="74" height="74" rx="37" fill="white"/>
<path d="M37.5 21.2461C34.2853 21.2461 31.1428 22.1994 28.4698 23.9854C25.7969 25.7714 23.7136 28.3099 22.4834 31.2799C21.2531 34.2499 20.9313 37.5181 21.5584 40.671C22.1856 43.824 23.7336 46.7202 26.0068 48.9933C28.2799 51.2665 31.1761 52.8145 34.3291 53.4417C37.482 54.0688 40.7501 53.747 43.7202 52.5167C46.6902 51.2865 49.2287 49.2032 51.0147 46.5302C52.8007 43.8573 53.754 40.7148 53.754 37.5C53.7491 33.1907 52.0351 29.0593 48.988 26.0121C45.9408 22.965 41.8094 21.2509 37.5 21.2461ZM37.5 52.797C34.4746 52.797 31.5171 51.8998 29.0015 50.219C26.486 48.5381 24.5253 46.1491 23.3675 43.3539C22.2098 40.5588 21.9068 37.4831 22.4971 34.5158C23.0873 31.5484 24.5442 28.8228 26.6835 26.6835C28.8228 24.5442 31.5485 23.0873 34.5158 22.4971C37.4831 21.9068 40.5588 22.2097 43.3539 23.3675C46.1491 24.5253 48.5381 26.486 50.219 29.0015C51.8998 31.5171 52.797 34.4746 52.797 37.5C52.7924 41.5556 51.1793 45.4438 48.3116 48.3116C45.4438 51.1793 41.5556 52.7924 37.5 52.797Z" fill="#1E1E1E"/>
<path d="M37.4999 24.2188C34.8731 24.2188 32.3054 24.9977 30.1213 26.457C27.9372 27.9164 26.2349 29.9906 25.2297 32.4174C24.2245 34.8442 23.9615 37.5146 24.4739 40.0909C24.9864 42.6672 26.2513 45.0337 28.1087 46.8911C29.9661 48.7485 32.3326 50.0134 34.9089 50.5258C37.4852 51.0383 40.1555 50.7753 42.5824 49.7701C45.0092 48.7648 47.0834 47.0626 48.5427 44.8785C50.0021 42.6944 50.781 40.1266 50.781 37.4999C50.777 33.9787 49.3765 30.6029 46.8867 28.1131C44.3968 25.6233 41.021 24.2227 37.4999 24.2188ZM29.1357 46.5405L30.2986 45.3779C30.3884 45.2881 30.4388 45.1664 30.4388 45.0395C30.4388 44.9126 30.3884 44.7909 30.2986 44.7011C30.2542 44.6567 30.2014 44.6214 30.1434 44.5974C30.0853 44.5733 30.0231 44.561 29.9603 44.561C29.8333 44.561 29.7116 44.6114 29.6219 44.7011L28.4592 45.8641C26.4604 43.7116 25.2996 40.9137 25.1878 37.9784H26.8375C26.9644 37.9784 27.0861 37.928 27.1758 37.8382C27.2656 37.7485 27.316 37.6268 27.316 37.4999C27.316 37.373 27.2656 37.2513 27.1758 37.1615C27.0861 37.0718 26.9644 37.0214 26.8375 37.0214H25.1878C25.2996 34.0861 26.4604 31.2882 28.4592 29.1357L29.6219 30.2986C29.6663 30.3431 29.7191 30.3783 29.7771 30.4024C29.8352 30.4264 29.8974 30.4388 29.9603 30.4388C30.0231 30.4388 30.0853 30.4264 30.1434 30.4024C30.2014 30.3783 30.2542 30.3431 30.2986 30.2986C30.3431 30.2542 30.3783 30.2014 30.4024 30.1434C30.4264 30.0853 30.4388 30.0231 30.4388 29.9603C30.4388 29.8974 30.4264 29.8352 30.4024 29.7771C30.3783 29.7191 30.3431 29.6663 30.2986 29.6219L29.1357 28.4592C31.2882 26.4604 34.0861 25.2996 37.0214 25.1878V26.8375C37.0214 26.9644 37.0718 27.0861 37.1615 27.1758C37.2513 27.2656 37.373 27.316 37.4999 27.316C37.6268 27.316 37.7485 27.2656 37.8383 27.1758C37.928 27.0861 37.9784 26.9644 37.9784 26.8375V25.1878C40.9137 25.2996 43.7116 26.4604 45.8641 28.4592L44.7011 29.6219C44.6114 29.7116 44.561 29.8333 44.561 29.9603C44.561 30.0872 44.6114 30.2089 44.7011 30.2986C44.7909 30.3884 44.9126 30.4388 45.0395 30.4388C45.1664 30.4388 45.2882 30.3884 45.3779 30.2986L46.5406 29.1357C48.5394 31.2882 49.7001 34.0861 49.812 37.0214H48.1623C48.0354 37.0214 47.9137 37.0718 47.8239 37.1615C47.7342 37.2513 47.6838 37.373 47.6838 37.4999C47.6838 37.6268 47.7342 37.7485 47.8239 37.8382C47.9137 37.928 48.0354 37.9784 48.1623 37.9784H49.812C49.7001 40.9137 48.5394 43.7116 46.5406 45.8641L45.3779 44.7011C45.2882 44.6114 45.1664 44.561 45.0395 44.561C44.9126 44.561 44.7909 44.6114 44.7011 44.7011C44.6114 44.7909 44.561 44.9126 44.561 45.0395C44.561 45.1664 44.6114 45.2881 44.7011 45.3779L45.8641 46.5405C43.5901 48.6511 40.6024 49.824 37.4999 49.824C34.3974 49.824 31.4097 48.6511 29.1357 46.5405Z" fill="#1E1E1E"/>
<path d="M43.1634 31.1718L36.3912 35.7702L36.386 35.7746C36.128 35.9407 35.9104 36.1624 35.7493 36.4236C35.5882 36.6848 35.4876 36.9787 35.455 37.2839C35.4224 37.589 35.4585 37.8975 35.5608 38.1869C35.663 38.4762 35.8288 38.7389 36.0458 38.9558C36.2629 39.1727 36.5258 39.3382 36.8153 39.4402C37.1047 39.5421 37.4133 39.578 37.7184 39.545C38.0235 39.5121 38.3173 39.4113 38.5783 39.2499C38.8393 39.0886 39.0609 38.8708 39.2267 38.6126L39.2297 38.6091L43.8281 31.8368C43.8909 31.7447 43.9195 31.6336 43.9091 31.5227C43.8987 31.4117 43.8499 31.3079 43.7711 31.2291C43.6923 31.1503 43.5885 31.1014 43.4776 31.091C43.3666 31.0805 43.2555 31.1091 43.1634 31.1718ZM36.724 38.2766C36.5704 38.1231 36.4659 37.9275 36.4235 37.7146C36.3811 37.5017 36.4029 37.281 36.4859 37.0804C36.569 36.8798 36.7097 36.7084 36.8902 36.5878C37.0707 36.4672 37.2829 36.4028 37.5 36.4028C37.7171 36.4028 37.9293 36.4672 38.1098 36.5878C38.2903 36.7084 38.431 36.8798 38.514 37.0804C38.5971 37.281 38.6188 37.5017 38.5764 37.7146C38.5341 37.9275 38.4295 38.1231 38.276 38.2766C38.0699 38.4819 37.7909 38.5973 37.5 38.5973C37.2091 38.5973 36.93 38.4819 36.724 38.2766ZM39.382 36.68C39.1768 36.2033 38.7969 35.8233 38.3203 35.6179L41.6302 33.3714L39.382 36.68Z" fill="#1E1E1E"/>
<path d="M40.8405 42.0146H34.1582C34.0313 42.0146 33.9096 42.0651 33.8198 42.1548C33.7301 42.2445 33.6797 42.3663 33.6797 42.4932V45.0391C33.6797 45.166 33.7301 45.2878 33.8198 45.3775C33.9096 45.4672 34.0313 45.5177 34.1582 45.5177H40.8405C40.9674 45.5177 41.0891 45.4672 41.1788 45.3775C41.2686 45.2878 41.319 45.166 41.319 45.0391V42.4932C41.319 42.3663 41.2686 42.2445 41.1788 42.1548C41.0891 42.0651 40.9674 42.0146 40.8405 42.0146ZM40.362 44.5606H34.6367V42.9717H40.362V44.5606Z" fill="#1E1E1E"/>
<rect x="0.5" y="0.5" width="74" height="74" rx="37" stroke="black"/>
</svg>
