<svg viewBox="0 0 75 75" fill="none" xmlns="http://www.w3.org/2000/svg">
<rect x="0.5" y="0.5" width="74" height="74" rx="37" fill="white"/>
<path d="M42.981 30.0137C42.8545 30.0208 42.7346 30.0725 42.6427 30.1597C42.5507 30.2469 42.4927 30.3638 42.4788 30.4898C42.4649 30.6157 42.4962 30.7425 42.567 30.8476C42.6378 30.9527 42.7436 31.0292 42.8655 31.0637C44.8745 31.2912 46.7155 32.9082 47.552 35.1867C47.588 35.2882 47.6542 35.3763 47.7419 35.4389C47.8295 35.5015 47.9343 35.5356 48.042 35.5367C48.1044 35.537 48.1662 35.5251 48.224 35.5017C48.291 35.4769 48.3522 35.439 48.4042 35.39C48.4561 35.3411 48.4977 35.2823 48.5264 35.217C48.5552 35.1517 48.5705 35.0812 48.5714 35.0099C48.5724 34.9385 48.559 34.8677 48.532 34.8017C47.5555 32.1732 45.375 30.2867 42.981 30.0137Z" fill="#1E1E1E"/>
<path d="M28.7714 36.0998C28.7714 34.8643 27.9314 33.8633 26.8989 33.8633C25.8664 33.8633 25.0264 34.8538 25.0264 36.0998C25.0264 37.3458 25.8664 38.3363 26.8989 38.3363C27.9314 38.3363 28.7714 37.3248 28.7714 36.0998ZM26.8989 37.2688C26.4509 37.2688 26.0729 36.7333 26.0729 36.0998C26.0729 35.4663 26.4509 34.9308 26.8989 34.9308C27.3469 34.9308 27.7249 35.4663 27.7249 36.0998C27.7249 36.7333 27.3504 37.2583 26.8989 37.2583V37.2688Z" fill="#1E1E1E"/>
<path d="M24.9491 39.7158C24.1616 39.7158 23.5176 40.4718 23.5176 41.3958C23.5176 42.3198 24.1616 43.0758 24.9491 43.0758C25.7366 43.0758 26.3806 42.3233 26.3806 41.3958C26.3806 40.4683 25.7366 39.7158 24.9491 39.7158ZM24.9491 42.0083C24.7671 42.0083 24.5641 41.7563 24.5641 41.3958C24.5641 41.0353 24.7671 40.7833 24.9491 40.7833C25.1311 40.7833 25.3341 41.0353 25.3341 41.3958C25.3341 41.7563 25.1311 42.0083 24.9491 42.0083V42.0083Z" fill="#1E1E1E"/>
<path d="M29.1561 38.5713C28.3651 38.5713 27.7246 39.3238 27.7246 40.2513C27.7246 41.1788 28.3651 41.9313 29.1561 41.9313C29.9471 41.9313 30.5876 41.1788 30.5876 40.2513C30.5876 39.3238 29.9436 38.5713 29.1561 38.5713ZM29.1561 40.8638C28.9741 40.8638 28.7711 40.6118 28.7711 40.2513C28.7711 39.8908 28.9741 39.6388 29.1561 39.6388C29.3381 39.6388 29.5411 39.8908 29.5411 40.2513C29.5411 40.6118 29.3381 40.8638 29.1561 40.8638Z" fill="#1E1E1E"/>
<path d="M53.0783 32.2495C53.0783 31.672 53.0153 30.3175 52.3783 29.733C52.2499 29.6113 52.0943 29.5221 51.9244 29.4728C51.7546 29.4234 51.5754 29.4154 51.4018 29.4495C50.4008 29.6245 49.8163 30.4995 49.5363 31.049C47.9333 28.648 45.3363 27.2935 42.7078 27.8045L26.9578 30.8845C25.9347 31.0897 24.9835 31.5605 24.1998 32.2495C22.3168 33.6495 21.0498 36.257 21.0498 39.2495C21.0498 43.6945 23.8498 47.2995 27.2903 47.2995C27.7852 47.2979 28.2772 47.2224 28.7498 47.0755C28.8131 47.1018 28.8808 47.116 28.9493 47.1175H29.0473L45.7248 43.8975C49.1898 43.2185 51.4613 39.5085 51.0658 35.3995C51.4687 35.5961 51.9092 35.7035 52.3573 35.7145C52.6773 35.7158 52.9933 35.6439 53.2813 35.5045C53.4406 35.4311 53.5807 35.3218 53.6906 35.1852C53.8006 35.0485 53.8773 34.8883 53.9148 34.717C54.1178 33.863 53.4073 32.715 53.0783 32.2495ZM22.0998 39.2495C22.0998 36.677 23.1498 34.4335 24.6758 33.219C24.7135 33.1985 24.7487 33.1739 24.7808 33.1455L24.8928 33.051C25.5891 32.5408 26.4272 32.2606 27.2903 32.2495C30.1498 32.2495 32.4843 35.3995 32.4843 39.2495C32.4843 43.0995 30.1498 46.2495 27.2903 46.2495C24.4308 46.2495 22.0998 43.0995 22.0998 39.2495ZM45.5498 42.858L31.1088 45.658C32.5928 44.181 33.5588 41.864 33.5588 39.267C33.5588 35.662 31.7178 32.617 29.1873 31.567L42.9038 28.8545C46.0538 28.242 49.2038 30.881 49.9038 34.738C50.6038 38.595 48.6683 42.235 45.5288 42.8475L45.5498 42.858ZM52.8998 34.472C52.8998 34.5 52.8998 34.5175 52.8368 34.5455C52.0703 34.9165 51.0868 34.1955 51.0553 34.1745C50.994 34.1293 50.9235 34.0982 50.8488 34.0835C50.6896 33.4037 50.4548 32.7439 50.1488 32.1165C50.2353 32.0508 50.3 31.9605 50.3343 31.8575C50.3343 31.8575 50.7438 30.6535 51.5838 30.5065C51.6433 30.5065 51.6538 30.5065 51.6748 30.5275C51.9303 30.755 52.0423 31.658 52.0248 32.2775C52.0071 32.3722 52.0144 32.4699 52.0458 32.561C52.0697 32.6545 52.1194 32.7394 52.1893 32.806C52.5498 33.331 52.9768 34.136 52.8998 34.472Z" fill="#1E1E1E"/>
<rect x="0.5" y="0.5" width="74" height="74" rx="37" stroke="black"/>
</svg>
