<svg viewBox="0 0 145 275" fill="none" xmlns="http://www.w3.org/2000/svg">
<path fill-rule="evenodd" clip-rule="evenodd" d="M164.874 219.958C165.966 210.92 166.556 198.838 167.242 189.01L168.461 171.539C168.461 171.539 167.637 173.263 166.428 176.184C165.219 179.105 163.595 183.182 161.922 187.877C158.266 197.819 155.636 208.11 154.074 218.587C153.599 222.171 153.338 225.78 153.291 229.394C148.691 224.354 144.141 219.21 139.611 213.923C140.288 213.526 140.83 212.934 141.166 212.225C143.029 207.125 144.133 201.779 144.444 196.359C145.577 187.29 146.126 175.239 146.812 165.411L147.99 147.971C147.99 147.971 147.165 149.695 145.956 152.616C144.748 155.537 143.123 159.614 141.451 164.309C137.81 174.256 135.181 184.545 133.603 195.019C133.128 198.603 132.867 202.212 132.82 205.826C127.107 198.98 121.568 191.937 116.121 184.76C118.062 183.74 120.491 179.957 124.402 168.587C129.18 152.702 132.873 136.511 135.454 120.125C127.343 134.59 120.217 149.586 114.125 165.01C112.63 169.005 111.418 173.1 110.498 177.264C110.124 176.772 109.719 176.239 109.346 175.747C109.247 175.295 109.05 174.871 108.771 174.502C108.492 174.134 108.136 173.831 107.727 173.614L102.869 166.701C101.25 164.568 99.9614 162.444 98.3414 160.054C98.9712 160.131 99.6095 160.013 100.17 159.715C100.73 159.417 101.185 158.954 101.473 158.388C103.605 153.857 104.966 149.001 105.5 144.021C106.998 135.775 108.109 124.719 109.086 115.446C110.063 106.172 111.024 99.4321 111.024 99.4321C111.024 99.4321 110.157 100.93 108.844 103.543C107.53 106.156 105.676 109.76 103.754 113.869C99.6846 122.777 96.5956 132.099 94.5404 141.674C93.8297 145.176 93.3919 148.728 93.231 152.298C89.5538 146.686 85.9996 140.981 82.4554 135.203C84.376 134.328 86.3642 130.815 89.1926 119.297C92.1726 104.042 94.057 88.5935 94.8311 73.0698C88.3636 87.2023 82.9261 101.784 78.5611 116.7C77.6961 120.33 77.0742 123.258 76.7577 125.567C76.571 125.32 76.3843 125.074 76.2286 124.869C76.272 124.335 76.1823 123.798 75.9674 123.307C75.7526 122.816 75.4194 122.386 74.9976 122.055C74.7696 121.827 74.5122 121.631 74.2322 121.472C72.124 117.729 70.0329 113.951 67.9586 110.139C69.8496 109.48 71.5931 106.412 73.5077 95.3926C75.2894 81.6079 75.9543 67.7018 75.4962 53.81C70.31 66.7838 66.1676 80.1505 63.1083 93.7834C62.7692 95.7212 62.4909 97.4838 62.3242 98.9676C59.6061 93.5975 56.9289 88.1961 54.3748 82.7015C56.5771 82.4521 58.6321 79.794 60.1319 66.4399C61.3032 51.5257 61.342 36.5441 60.2483 21.6241C55.5199 35.8102 51.8707 50.3335 49.3321 65.0698C49.0453 67.1618 48.8704 68.9753 48.7561 70.6133C47.3481 67.4805 45.8991 64.379 44.3355 61.0412C46.0171 59.765 46.0772 55.8412 42.372 43.464C37.2241 28.7686 31.0313 14.4605 23.8408 0.649207C25.4287 16.1468 28.1243 31.5107 31.907 46.6231C32.5156 48.6174 33.1227 50.3542 33.584 51.8138C22.9097 45.024 11.7206 39.0796 0.119054 34.0349C8.75219 43.9965 18.2232 53.1996 28.4285 61.5433C39.0793 69.3604 41.4443 68.7292 43.0706 66.784C45.7535 73.215 48.5595 79.5527 51.7064 86.084C49.8001 85.0556 47.8427 84.1249 45.8417 83.2958C37.7833 80.1484 29.3375 78.1009 20.7324 77.2085C16.6827 76.727 13.1082 76.531 10.5226 76.3603C7.9369 76.1897 6.38253 76.2705 6.38253 76.2705L10.11 78.0309L19.1759 82.397C26.3733 85.9191 34.8637 90.4636 41.5943 93.3704C45.4649 95.3931 49.663 96.7149 53.9942 97.2747C54.4896 97.3026 54.984 97.2044 55.4312 96.9893C55.8784 96.7743 56.2637 96.4495 56.5512 96.0451C58.3425 99.5978 60.175 103.12 62.0484 106.61C62.0726 107.205 62.229 107.788 62.5062 108.315C62.7835 108.843 63.1747 109.302 63.6514 109.659C65.3266 112.718 67.002 115.778 68.6871 118.765C67.0872 118.104 65.2299 117.446 62.9496 116.655C55.7171 114.194 46.1251 111.52 37.9463 109.26C33.9544 108.088 30.4365 106.944 27.8677 106.114L23.8236 104.788C23.8236 104.788 25.0346 105.873 27.0731 107.622C29.1117 109.372 32.0288 111.682 35.513 114.144C42.8211 119.497 50.8152 123.843 59.281 127.066C63.6264 128.918 68.3342 129.764 73.0526 129.542C73.5741 129.467 74.0744 129.286 74.5221 129.008L76.5186 132.406C76.5817 132.855 76.737 133.287 76.9749 133.674C77.2128 134.06 77.528 134.394 77.9008 134.653C80.2221 138.45 82.5709 142.226 84.9469 145.981L84.091 145.79C81.9466 145.349 78.989 144.944 75.1444 144.307C71.2998 143.67 66.7762 143.16 62.1791 142.383C57.582 141.606 52.9225 140.747 48.6945 139.69C44.4665 138.632 40.7337 137.717 38.1748 136.815L33.9141 135.459C33.9141 135.459 35.156 136.584 37.3799 138.322C40.3302 140.652 43.4239 142.795 46.6429 144.737C50.7983 147.256 55.1618 149.416 59.6855 151.191C64.1032 152.946 68.6944 154.228 73.3823 155.016C76.6638 155.56 79.9876 155.806 83.3134 155.753C85.0605 155.74 86.7929 155.43 88.4366 154.838C89.0258 154.613 89.5382 154.225 89.913 153.717C93.1643 158.683 96.4664 163.545 99.7375 168.366L101.978 171.319C100.019 170.867 97.4946 170.521 94.4845 169.962C86.9835 169.191 76.7555 168.744 68.4638 168.38L53.6939 167.825C53.6939 167.825 55.1396 168.538 57.5968 169.646C60.0539 170.754 63.419 172.208 67.2384 173.834C75.5199 177.134 84.1441 179.499 92.9504 180.886C97.5503 181.865 102.309 181.827 106.893 180.775C107.357 180.543 107.774 180.226 108.123 179.842C113.228 186.568 118.158 193.491 123.499 200.102C120.809 199.623 117.12 199.191 112.04 198.715C102.603 197.863 90.1824 197.594 80.0264 197.157L61.9805 196.374L66.8623 198.293C69.8654 199.439 74.1372 200.98 79.0683 202.538C89.4571 205.956 100.166 208.31 111.031 209.565C116.683 210.48 122.456 210.35 128.061 209.179C128.724 208.909 129.304 208.469 129.742 207.903C134.461 213.695 139.261 219.424 144.215 225.1C139.831 224.732 135.429 224.619 131.032 224.763C121.579 224.827 109.176 225.773 99.0363 226.294L80.9171 227.118C80.9171 227.118 82.7844 227.705 85.9713 228.582C89.1582 229.46 93.4895 230.568 98.6765 231.867C109.337 234.265 120.212 235.583 131.136 235.802C136.865 236.188 142.616 235.505 148.095 233.79C148.985 233.539 149.747 232.961 150.228 232.171C163.376 246.783 177.355 260.625 192.096 273.628C193.866 275.194 196.085 272.411 194.428 270.824C182.592 259.77 171.169 248.381 160.16 236.656C160.595 236.256 160.958 235.783 161.233 235.26C163.187 230.364 164.414 225.209 164.874 219.958Z" fill="#92D660"/>
</svg>
