<svg viewBox="0 0 46 101" fill="none" xmlns="http://www.w3.org/2000/svg">
<path fill-rule="evenodd" clip-rule="evenodd" d="M18.3642 6.58454C17.4762 6.62249 16.3309 6.84446 16.1082 7.9344C16.0686 8.28811 16.1366 8.64572 16.3033 8.96097C16.4701 9.27623 16.728 9.5346 17.0436 9.70255C17.7476 9.97767 18.5018 10.1014 19.2565 10.0656C21.5548 10.0055 23.828 9.58236 25.9914 8.81216C27.8454 8.1332 29.5955 7.20163 31.1918 6.04397C30.7391 8.68176 30.2649 11.3138 29.7906 13.9458C25.4669 14.3048 21.0741 14.9212 17.0033 15.3709C16.1195 15.479 15.0318 15.8312 14.9441 16.9344C14.9374 17.2872 15.0363 17.6343 15.2282 17.9314C15.4201 18.2285 15.6964 18.4622 16.0218 18.6027C16.7505 18.8275 17.5175 18.8999 18.2749 18.8155C20.4491 18.5846 22.5804 18.0571 24.609 17.2478C26.4376 16.5241 28.1669 15.5738 29.7562 14.4194C29.3782 16.4334 28.9787 18.4417 28.5519 20.4656C24.2013 21.6883 19.7576 22.5583 15.2644 23.0672C14.3376 23.1638 13.1636 23.4929 13.0329 24.5845C13.0048 24.9468 13.0965 25.3086 13.2939 25.6147C13.4913 25.9208 13.7836 26.1545 14.1264 26.2801C14.9015 26.5146 15.7171 26.5843 16.5203 26.4847C18.9246 26.2278 21.2663 25.5646 23.4449 24.5234C25.2442 23.6774 26.9094 22.5745 28.3881 21.2494C27.9081 23.558 27.4008 25.8823 26.8447 28.2164C22.626 29.5821 18.2556 30.4338 13.8288 30.7529C12.9351 30.8123 11.7783 31.0772 11.5829 32.1514C11.5325 32.5108 11.6014 32.877 11.779 33.1944C11.9567 33.5118 12.2334 33.7629 12.5672 33.9096C13.325 34.1788 14.1311 34.2851 14.9324 34.2215C17.3366 34.0513 19.6847 33.424 21.8498 32.3733C23.6219 31.5421 25.2415 30.4219 26.6421 29.0589C26.1018 31.0754 25.5557 33.1133 25.1389 35.1859L25.0182 35.6364C20.2597 36.9946 15.4345 38.1114 10.5611 38.9823C9.54662 39.1473 8.30653 39.5508 8.24041 40.6597C8.24378 41.0307 8.37142 41.3903 8.60309 41.6814C8.83475 41.9726 9.15717 42.1786 9.51927 42.2669C10.3527 42.448 11.2139 42.4598 12.0512 42.3015C14.5646 41.877 17.0015 41.0893 19.2848 39.9632C21.3333 38.9643 23.2311 37.6851 24.9234 36.1629C24.3486 38.3081 23.8197 40.2817 23.2737 42.3196C21.2461 43.2479 19.2085 44.1274 17.1135 44.8766C14.7426 45.7395 12.3207 46.4573 9.8612 47.026C8.89988 47.2512 7.6914 47.7092 7.66983 48.738C7.69667 49.108 7.84504 49.4591 8.09202 49.7372C8.339 50.0153 8.67084 50.205 9.03633 50.2768C9.88642 50.4086 10.7541 50.3673 11.5869 50.1555C14.0965 49.5753 16.4851 48.5662 18.6467 47.1728C20.2389 46.1263 21.685 44.8749 22.9475 43.4508C22.229 46.1323 21.4027 48.785 20.5764 51.4376C18.5948 52.5391 16.5817 53.5862 14.5556 54.4228C12.1637 55.4912 9.68897 56.3658 7.15527 57.0384C6.15516 57.3222 4.93519 57.8231 4.91218 58.9435C4.94934 59.3181 5.11274 59.6695 5.37575 59.9403C5.63875 60.2112 5.98587 60.3857 6.36059 60.4353C6.79605 60.5048 7.2395 60.5072 7.67541 60.4426C8.12588 60.3961 8.57209 60.3158 9.01031 60.2026C11.5959 59.4914 14.0303 58.3211 16.1965 56.7479C17.6408 55.6833 18.9439 54.4411 20.0749 53.0507C19.2903 55.4616 18.5114 57.851 17.711 60.2347C14.2054 62.5206 10.3604 64.2445 6.31597 65.3436C5.46817 65.5763 4.42207 66.0318 4.42637 67.1366C4.44107 67.496 4.57369 67.8409 4.8039 68.1185C5.03411 68.3962 5.34921 68.5912 5.70091 68.6737C6.09035 68.7534 6.48938 68.7751 6.88495 68.738C7.28709 68.7066 7.68511 68.6361 8.07332 68.5276C10.3629 67.8927 12.4926 66.7874 14.3255 65.2825C15.3057 64.4867 16.1802 63.5699 16.9278 62.554C16.0829 65.0177 15.2221 67.4542 14.334 69.9063C10.7793 72.1932 6.89496 73.9278 2.814 75.0508C1.9935 75.2678 0.990507 75.7348 1.01061 76.8668C1.02738 77.2233 1.15711 77.5656 1.38119 77.8446C1.60527 78.1236 1.91218 78.3248 2.25785 78.4196C2.63019 78.5031 3.01321 78.5282 3.39304 78.4938C3.76901 78.4441 4.14214 78.3752 4.51098 78.2875C6.72037 77.6785 8.77224 76.6056 10.5289 75.1407C11.7594 74.1152 12.8178 72.9008 13.6644 71.5432C12.8956 73.6365 12.1268 75.7297 11.3149 77.8114C7.71353 80.1123 4.44873 82.8971 1.61255 86.0871C0.99609 86.7496 0.444289 87.7744 1.16706 88.6118C1.39916 88.8718 1.70253 89.0585 2.03964 89.1488C2.37676 89.2392 2.73283 89.2292 3.06382 89.1201C3.7058 88.8309 4.28134 88.4139 4.75512 87.8948C6.97054 85.5919 8.87385 83.0101 10.4168 80.2149C9.89228 81.5688 9.36778 82.9228 8.82172 84.271C5.58503 88.2184 2.91237 92.5934 0.879539 97.2719C0.431197 98.2554 0.247238 99.6317 1.32924 100.335C1.69679 100.531 2.11179 100.621 2.52725 100.594C2.9427 100.567 3.34205 100.425 3.6801 100.184C4.29598 99.6599 4.78683 99.006 5.11707 98.2694C7.14411 94.0671 8.49646 89.5728 9.1249 84.9501C9.31459 84.2422 9.69826 83.5862 10.0015 82.8857C9.2703 86.353 8.91902 89.8899 8.95377 93.4344C8.95088 94.3073 9.22532 95.4385 10.3375 95.5985C10.6856 95.6262 11.0343 95.5553 11.3432 95.394C11.6521 95.2326 11.9087 94.9875 12.0834 94.6868C12.36 94.0463 12.498 93.3548 12.4887 92.6571C12.5746 88.657 12.0218 84.6672 10.8507 80.837C12.1728 77.6274 13.4416 74.3576 14.6617 71.0977C14.3169 73.183 14.2453 75.3047 14.4489 77.4096C14.7094 79.9248 15.2887 82.3977 16.1731 84.7693C16.5208 85.7132 17.2881 86.8155 18.3745 86.5548C18.7138 86.443 19.0121 86.2333 19.2313 85.9523C19.4505 85.6713 19.5809 85.3317 19.606 84.9763C19.603 84.2289 19.4738 83.487 19.2237 82.7817L17.1791 76.5317C16.5009 74.5795 15.7968 72.5515 15.0008 70.1769C15.7696 68.0837 16.4881 66.0919 17.2023 64.03C16.9443 68.2705 17.4981 72.5231 18.8344 76.5614C19.1391 77.4937 19.7986 78.5671 20.8892 78.3765C21.2352 78.29 21.5474 78.1033 21.7865 77.84C22.0256 77.5768 22.1809 77.2487 22.2328 76.8972C22.2707 76.1751 22.1832 75.4516 21.9742 74.7586C20.8241 70.6846 19.3747 66.6996 17.6377 62.8361C18.6134 59.9706 19.5403 57.115 20.4513 54.2322C19.9677 56.5204 19.8758 58.8745 20.1797 61.1951C20.5125 63.7894 21.2544 66.3161 22.3781 68.6818C22.8177 69.6274 23.7158 70.6727 24.7662 70.2874C25.0921 70.1364 25.3651 69.8918 25.5501 69.585C25.7352 69.2783 25.824 68.9233 25.8052 68.5654C25.7333 67.8373 25.5415 67.1256 25.2376 66.459C24.3352 64.3088 23.5809 62.3823 22.8222 60.3856C22.0635 58.3889 21.3437 56.3336 20.5764 53.8518C20.812 52.9722 21.042 52.1142 21.2719 51.2561C21.316 51.1301 21.3505 51.0011 21.3753 50.87C21.8065 49.2611 22.2433 47.6306 22.8095 46.0349C22.5021 48.5358 22.6029 51.0708 23.1083 53.5415C23.6974 56.3993 24.7392 59.1465 26.1947 61.6801C26.7738 62.709 27.9247 63.8452 28.8573 63.3823C29.1797 63.1963 29.4353 62.9143 29.5882 62.5758C29.741 62.2374 29.7834 61.8595 29.7094 61.4953C29.5311 60.6815 29.2354 59.8976 28.8315 59.1677C27.6346 56.8237 26.6618 54.6777 25.712 52.4458C24.7622 50.214 23.8929 48.0267 23.0049 45.3056C23.3038 44.19 23.5797 43.1604 23.8959 41.9805C23.9273 41.8972 23.9504 41.811 23.9648 41.7231C24.281 40.5432 24.5971 39.3633 24.919 38.162C24.9916 40.312 25.3699 42.4415 26.0426 44.4871C26.9631 47.3904 28.3935 50.1092 30.2671 52.5167C31.0143 53.5217 32.2975 54.5093 33.2373 53.9334C33.5269 53.6954 33.7345 53.3733 33.8314 53.0119C33.9282 52.6505 33.9094 52.2677 33.7776 51.9168C33.6379 51.5016 33.4498 51.1039 33.2172 50.7321C32.9959 50.3509 32.7531 49.9639 32.5361 49.6528C31.1332 47.5574 29.8573 45.3806 28.7154 43.1339C27.5588 41.0147 26.5325 38.8278 25.6419 36.5852L25.9925 35.2767C26.4638 33.5176 26.9352 31.7585 27.4123 29.978C27.5349 32.4059 28.0567 34.7982 28.9569 37.0596C29.9423 39.614 31.3215 42.0005 33.0449 44.133C33.713 45.0019 34.8899 45.869 35.8138 45.2659C36.09 45.0324 36.288 44.7205 36.3814 44.3718C36.4749 44.023 36.4593 43.654 36.3369 43.3137C36.0859 42.5732 35.7087 41.881 35.2219 41.2675C33.7706 39.2692 32.5277 37.4416 31.2416 35.6025C29.9556 33.7634 28.7946 31.8889 27.4511 29.5745L28.7645 24.1554C30.2395 28.3223 32.636 32.1077 35.7766 35.2312C36.416 35.8624 37.4291 36.4787 38.2769 35.9012C38.5263 35.6628 38.7052 35.3609 38.7944 35.0281C38.8835 34.6954 38.8795 34.3444 38.7827 34.0134C38.528 33.3852 38.1571 32.81 37.6892 32.3178C34.9461 29.3178 31.9294 26.5775 28.6783 24.1323C29.2953 21.8297 29.8241 19.5113 30.2648 17.1768C31.8633 21.2955 34.5127 24.9298 37.9508 27.7205C38.688 28.3319 39.8217 28.8426 40.602 28.086C40.8424 27.8281 41.0024 27.506 41.0626 27.159C41.1228 26.8119 41.0806 26.4547 40.9411 26.1305C40.6177 25.5135 40.1759 24.9655 39.6407 24.5175C38.0184 23.0712 36.5614 21.784 35.0397 20.4796L30.3812 16.6562C30.956 14.511 31.2937 12.3023 31.7176 10.1166C32.3866 11.934 33.3427 13.6339 34.5498 15.152C36.033 17.0497 37.8301 18.6821 39.8635 19.9787C40.6667 20.5159 41.9269 20.8995 42.5578 20.0109C42.7476 19.7216 42.8539 19.3858 42.8651 19.0401C42.8762 18.6944 42.7918 18.3521 42.621 18.0505C42.2308 17.484 41.7328 16.999 41.1554 16.6231C39.4325 15.3797 37.941 14.2213 36.3632 13.0398C34.7855 11.8583 33.4922 10.822 31.8585 9.41858C32.3183 7.01264 32.7566 4.6009 33.1676 2.20486C33.8601 4.24723 34.9153 6.14984 36.2828 7.82197C37.7277 9.5761 39.4428 11.0912 41.3638 12.3104C42.1297 12.8145 43.2821 13.1693 43.9345 12.2865C44.1334 12.0061 44.2506 11.6763 44.2732 11.3335C44.2958 10.9906 44.2228 10.648 44.0624 10.3434C43.696 9.80535 43.2338 9.33861 42.6988 8.9663L32.9966 2.06705C33.2711 0.439164 33.5241 -1.1945 33.777 -2.82816C34.2552 -0.907492 35.1884 0.87214 36.4985 2.36158C38.127 4.22268 40.2034 5.64149 42.5321 6.48446C43.0246 6.66242 43.5495 6.73251 44.0711 6.6899C44.3169 6.66355 44.5504 6.56994 44.7457 6.41935C44.941 6.26875 45.0905 6.06706 45.1775 5.83676C45.2759 5.50588 45.2855 5.15496 45.2053 4.81884C45.1251 4.48272 44.958 4.17312 44.7206 3.92092C44.4835 3.6937 44.2173 3.49866 43.9289 3.34089L43.0969 2.91103C41.3849 2.14981 39.7535 1.21974 38.2271 0.134709C37.4282 -0.393722 36.6655 -0.974523 35.9439 -1.60376C35.224 -2.21158 34.5421 -2.86265 33.902 -3.55338C34.188 -5.56906 34.474 -7.58474 34.7326 -9.58474C36.2367 -6.48851 38.6346 -3.90836 41.6184 -2.17553C41.7833 -2.0465 41.9729 -1.95235 42.1755 -1.89875C42.3781 -1.84516 42.5895 -1.83329 42.7966 -1.86388C43.0038 -1.89447 43.2024 -1.96684 43.3803 -2.07663C43.5582 -2.18641 43.7117 -2.33129 43.8313 -2.50234C44.0108 -2.77702 44.1226 -3.09007 44.1578 -3.41619C44.193 -3.74231 44.1506 -4.07231 44.0339 -4.37939C43.7447 -4.83757 43.3618 -5.23004 42.9102 -5.53118C41.5336 -6.42887 40.2849 -7.2003 38.9385 -7.95194C37.5921 -8.70357 36.3679 -9.30755 34.8864 -10.0724C35.3204 -13.5889 35.7056 -17.0955 35.9772 -20.6095C36.1152 -21.1244 35.0949 -21.2828 35.0159 -20.7291C34.5028 -16.659 33.9682 -12.5947 33.369 -8.54763C30.0698 -9.05937 26.8132 -9.81664 23.6265 -10.8132C23.2568 -10.9822 22.8369 -11.0056 22.4513 -10.8785C22.0657 -10.7514 21.7432 -10.4834 21.5487 -10.1284C21.3801 -9.837 21.297 -9.50412 21.3089 -9.16764C21.3208 -8.83115 21.4273 -8.50455 21.6162 -8.2249C22.0585 -7.76493 22.6124 -7.42644 23.2241 -7.24227C24.9983 -6.67333 26.8693 -6.46921 28.7233 -6.64242C30.3184 -6.82301 31.8672 -7.28809 33.2957 -8.01541C32.9747 -5.72553 32.6413 -3.44665 32.2955 -1.17878C28.6313 -1.81571 24.8981 -2.19523 21.4681 -2.58547C20.7008 -2.65312 19.6978 -2.53099 19.3946 -1.48561C19.3124 -1.15499 19.3216 -0.808192 19.4213 -0.481942C19.521 -0.155692 19.7074 0.137837 19.9607 0.367496C20.515 0.721627 21.1463 0.938097 21.8015 0.998664C25.3517 1.44375 28.9539 0.896356 32.2049 -0.582268C31.8457 1.6207 31.5266 3.6735 31.1631 5.80634C26.9772 5.99531 22.4997 6.49704 18.3642 6.58454Z" fill="#265113"/>
</svg>
