<svg viewBox="0 0 104 313" fill="none" xmlns="http://www.w3.org/2000/svg">
<path fill-rule="evenodd" clip-rule="evenodd" d="M35.9161 252.404C29.7267 246.037 22.1425 237.054 15.8659 229.728L4.70747 216.907L8.97903 219.349C11.5943 220.919 15.3428 223.099 19.3529 225.803C28.0523 231.334 36.146 237.765 43.5004 244.991C45.9614 247.483 48.2894 250.103 50.4744 252.84C51.0847 246.212 51.6077 239.583 51.9564 232.955C51.2021 233.045 50.4387 232.892 49.777 232.519C45.3024 229.742 41.3 226.268 37.9212 222.227C31.7318 215.86 24.1475 206.79 17.8709 199.551L6.71246 186.73L10.9841 189.172C13.5993 190.655 17.2607 192.923 21.3579 195.539C30.0439 201.122 38.1353 207.581 45.5055 214.814C47.9923 217.312 50.3215 219.963 52.4794 222.751C52.4794 214.029 53.0025 205.307 53.0025 196.586C50.9103 197.022 46.8131 195.452 37.0495 188.911C24.0012 179.425 11.622 169.051 0 157.862C14.8206 164.276 29.1806 171.707 42.9774 180.102C46.4803 182.307 49.8033 184.786 52.9153 187.515V185.596C52.7163 185.205 52.6125 184.771 52.6125 184.332C52.6125 183.892 52.7163 183.459 52.9153 183.067V174.782C52.9153 172.165 52.9153 169.549 52.4794 167.019C52.0375 167.449 51.4726 167.731 50.8632 167.825C50.2538 167.919 49.6303 167.82 49.0796 167.543C44.7854 165.256 40.8736 162.313 37.4853 158.821C31.4702 153.326 24.0603 145.39 17.8709 139.023L6.97398 127.685L11.0712 129.604C13.6865 130.825 17.1735 132.656 21.0964 134.837C29.5272 139.306 37.4235 144.719 44.6337 150.972C47.2614 153.282 49.7095 155.789 51.9564 158.472C51.4334 151.931 50.9103 145.39 50.2129 138.848C48.2079 138.848 44.6337 137.715 35.6546 130.127C24.3473 120.018 13.7725 109.117 4.01005 97.5078C17.3351 104.785 30.1242 113.004 42.28 122.103C45.0696 124.458 47.249 126.289 48.9053 127.859C48.863 127.599 48.863 127.334 48.9053 127.074C48.5462 126.697 48.2864 126.237 48.1495 125.734C48.0125 125.232 48.0026 124.703 48.1207 124.196V123.237C47.5976 119.05 46.9874 114.515 46.3772 110.765C44.4593 111.375 41.3211 109.98 33.3881 102.566C23.8496 92.782 15.1045 82.2537 7.23556 71.0813C18.9016 78.0784 29.9802 86.0121 40.3621 94.8042L44.0234 98.3801C42.9773 92.5656 41.8441 86.7512 40.6236 80.9368C38.7929 81.9834 35.829 80.9368 26.5884 71.6919C16.9958 60.7461 8.25288 49.0833 0.435836 36.8053C12.4468 45.0255 23.8127 54.1517 34.4342 64.1041C35.829 65.4995 37.0494 66.8078 38.0955 68.0288C37.3981 64.8018 36.7007 61.4875 35.9161 58.2605C33.9111 58.2605 31.4702 55.208 27.1986 43.521C22.4924 29.2918 18.7928 14.7489 16.1274 0C24.0049 12.9739 30.9387 26.4983 36.8751 40.4684L38.7057 45.527C42.9641 33.9761 48.1234 22.7779 54.1358 12.0359C53.3217 24.8541 51.3965 37.5773 48.3822 50.0622C44.7208 62.447 42.5415 63.3191 40.1006 62.7958C41.8441 69.337 43.4132 75.9655 44.808 82.5939C45.5054 81.024 46.4644 79.1925 47.6848 77.0121C52.0629 69.8098 57.4005 63.2373 63.5507 57.4756C66.4275 54.6846 69.0427 52.4171 70.9606 50.76L74.0989 48.2306L72.2682 51.8065L67.8223 60.5282C64.3353 67.4183 60.4124 75.9654 56.9254 82.1578C55.0863 86.0054 52.6105 89.5144 49.6026 92.5366C49.2281 92.836 48.7866 93.0399 48.3159 93.1311C47.8452 93.2222 47.3594 93.1978 46.9002 93.0599C47.5976 96.8974 48.2079 100.735 48.8181 104.485C49.1505 104.962 49.3702 105.508 49.4608 106.082C49.5514 106.656 49.5105 107.243 49.3411 107.799C49.8642 111.201 50.3873 114.515 50.8232 117.917C51.6949 116.434 52.741 114.777 54.0486 112.858C58.233 106.753 64.2481 98.9906 68.9555 92.4494C71.3964 89.1352 73.4887 86.1698 74.8835 83.7278L77.3243 80.239L76.4526 84.3382C75.8424 86.9547 74.9707 90.4434 73.7502 94.4554C71.2283 102.91 67.562 110.98 62.8533 118.44C60.6329 122.504 57.4995 125.998 53.6999 128.644C53.2436 128.896 52.7378 129.045 52.2179 129.08C52.2179 130.389 52.2179 131.61 52.2179 132.918C52.4043 133.313 52.501 133.745 52.501 134.182C52.501 134.62 52.4043 135.052 52.2179 135.447C52.741 139.721 53.0897 144.169 53.4384 148.355L53.9614 147.745C55.4434 146.087 57.4484 144.081 60.0637 141.291C62.679 138.5 65.9044 135.447 68.7812 132.569C71.658 129.691 75.0578 125.853 77.4987 122.626C79.9396 119.399 82.3805 116.347 84.0369 113.905L86.4778 110.329C86.4778 110.329 86.4778 111.986 85.5188 114.602C84.5779 118.151 83.4429 121.644 82.119 125.068C80.3137 129.436 78.1866 133.663 75.7552 137.715C73.2474 141.704 70.3254 145.416 67.0377 148.791C64.8606 151.166 62.4349 153.301 59.8022 155.158C58.4478 156.214 56.9113 157.012 55.269 157.513C54.6716 157.69 54.0358 157.69 53.4384 157.513C53.4384 163.269 54.1358 169.025 54.4845 174.956C54.4845 176.177 54.4845 177.398 54.4845 178.532C55.7921 177.049 57.5356 175.305 59.715 173.125C65.1199 167.892 72.7913 161.699 78.9807 156.553L90.1391 147.832C90.1391 147.832 89.4417 149.227 88.1341 151.495C86.8265 153.762 85.1701 156.902 82.9908 160.216C78.5115 167.669 73.2196 174.602 67.2121 180.887C64.2056 184.344 60.4886 187.11 56.3152 188.998C55.8291 189.123 55.3192 189.123 54.8332 188.998C54.8332 197.283 54.8332 205.569 54.8332 213.855C56.6639 211.849 59.2791 209.319 62.9405 206.005C69.7402 199.813 79.2422 192.225 86.8265 185.945L100.339 174.694L97.7234 179.055C96.067 181.759 93.6261 185.422 90.7493 189.521C84.6895 198.3 77.7683 206.452 70.0889 213.855C66.2616 217.897 61.7071 221.181 56.6639 223.536C56.0039 223.685 55.3188 223.685 54.6588 223.536C54.6588 230.775 54.0486 238.101 53.5256 245.34C56.6529 242.506 59.942 239.856 63.3763 237.403C70.6991 231.908 80.8114 225.28 89.5289 219.96L104 210.104C104 210.104 102.954 211.587 100.949 214.116C98.9439 216.646 96.3286 220.134 93.0159 223.972C86.1763 232.115 78.5233 239.538 70.176 246.125C65.9968 249.9 61.1475 252.858 55.8793 254.846C55.0388 255.177 54.1045 255.177 53.264 254.846C51.6622 273.942 48.9553 292.929 45.1567 311.711C45.1567 313.892 41.4082 313.107 41.7569 310.839C44.3722 295.315 46.5225 279.761 48.2079 264.178C47.6338 264.136 47.0723 263.988 46.5515 263.742C42.4697 260.505 38.8861 256.685 35.9161 252.404Z" fill="#5EAD41"/>
</svg>
