<svg viewBox="0 0 118 120" fill="none" xmlns="http://www.w3.org/2000/svg">
<g clip-path="url(#clip0_413_4853)">
<path fill-rule="evenodd" clip-rule="evenodd" d="M201.172 -154.142C195.276 -144.173 189.912 -133.901 185.103 -123.368C185.547 -123.506 186.02 -123.505 186.461 -123.365C189.414 -122.441 192.108 -120.842 194.331 -118.692C196.555 -116.543 198.249 -113.901 199.281 -110.973C200.421 -107.473 201.661 -99.3778 197.888 -96.6812C194.114 -93.9845 187.778 -100.658 185.318 -103.246C182.916 -105.691 181.121 -108.671 180.077 -111.949C175.607 -101.621 171.38 -91.0521 167.098 -80.0342C167.418 -80.1349 167.75 -80.1892 168.084 -80.1951C170.86 -80.0752 173.576 -79.3788 176.059 -78.1497C178.543 -76.9207 180.741 -75.1856 182.515 -73.054C185.032 -69.9436 189.119 -61.675 186.036 -57.7156C182.953 -53.7562 175.41 -58.4719 172.318 -60.3425C168.372 -62.6199 165.215 -66.0491 163.261 -70.1801C158.997 -59.3119 154.789 -48.407 150.022 -37.8694C150.236 -37.7942 150.427 -37.6682 150.581 -37.5021C153.433 -36.2828 155.937 -34.3751 157.871 -31.9469C159.805 -29.5188 161.111 -26.6445 161.673 -23.577C162.701 -19.9076 164.608 -13.5572 159.363 -12.6376C156.837 -12.6641 154.356 -13.2589 152.1 -14.3778C149.845 -15.4967 147.872 -17.1116 146.328 -19.1036C145.272 -20.3399 144.404 -21.7277 143.754 -23.2224C139.006 -12.5916 134.016 -2.20083 128.504 7.766C131.82 11.8649 133.756 16.9211 134.037 22.2173C134.319 27.5136 132.932 32.781 130.073 37.2724C129.831 37.5687 129.516 37.7961 129.16 37.9315C128.804 38.0668 128.42 38.1054 128.046 38.0431C125.009 37.3047 122.373 35.4377 120.668 32.8164C118.963 30.1952 118.314 27.0135 118.852 23.9095C113.248 32.7042 106.944 41.0319 100.002 48.8098C100.183 48.8476 100.342 48.9524 100.449 49.1036C102.98 53.4523 104.186 58.4609 103.919 63.5155C103.652 68.5701 101.924 73.4514 98.9457 77.5615C98.6913 77.9073 98.3438 78.1727 97.9447 78.3264C97.5455 78.4801 97.1116 78.5155 96.6954 78.4279C94.3608 77.7576 92.3006 76.3689 90.803 74.4561C89.3055 72.5432 88.4458 70.2021 88.3439 67.7603C88.0316 65.391 87.9719 62.9925 88.1659 60.6055C80.373 67.6612 71.8175 73.815 62.6632 78.9486C63.2011 83.7982 62.3596 88.7153 60.2355 93.1312C58.1114 97.547 54.7918 101.281 50.6607 103.901C50.2234 104.194 49.7086 104.344 49.186 104.334C48.6634 104.323 48.1583 104.151 47.7392 103.841C45.8405 102.251 44.5025 100.089 43.92 97.669C43.3375 95.2492 43.5411 92.698 44.5007 90.3868C44.8154 89.2994 45.2232 88.1923 45.6309 87.0851C43.7898 87.8163 41.8928 88.5108 40.033 89.1488C37.8609 96.1361 34.0318 102.504 28.877 107.701C25.6253 110.822 18.356 115.184 16.2066 108.594C15.8407 106.184 15.9952 103.719 16.6595 101.365C17.3238 99.01 18.4823 96.8212 20.0569 94.9461C22.1246 92.1352 24.7946 89.8245 27.8666 88.1874C30.9385 86.5503 34.3328 85.629 37.7948 85.493C41.1052 84.3526 44.304 83.1389 47.4281 81.7951C44.1127 81.0728 40.9428 79.8087 38.0445 78.0531C35.4183 76.3266 28.9189 72.7012 30.7554 68.8121C33.0184 63.9091 42.6009 63.5751 46.7703 64.5364C49.6844 65.2985 52.409 66.6459 54.781 68.4972C57.1531 70.3485 59.1236 72.6657 60.574 75.3099C69.0085 70.5457 76.9276 64.9056 84.1995 58.4833C80.9527 58.7039 77.6972 58.394 74.5596 57.5659C71.2834 56.7065 65.9971 55.4963 67.777 51.0847C69.1247 48.7228 71.0024 46.7066 73.2593 45.1975C75.5162 43.6884 78.0892 42.7287 80.771 42.3962C86.3419 41.6711 91.9591 43.0818 96.5 46.3459C102.911 39.2673 108.785 31.7167 114.069 23.7587C111.427 25.419 108.481 26.525 105.41 27.01C102.34 27.4949 99.2102 27.3484 96.2105 26.5793C95.8655 26.4205 95.5697 26.172 95.3534 25.8593C95.1371 25.5465 95.0081 25.1807 94.9797 24.7994C94.925 21.8862 95.6123 18.9998 96.9762 16.4138C98.3401 13.8279 100.336 11.6279 102.773 10.0227C105.649 8.09321 108.9 6.80684 112.304 6.25181C115.708 5.69679 119.183 5.88627 122.493 6.80713C122.944 6.90458 123.342 7.1661 123.61 7.54171C129.623 -3.0662 134.948 -14.208 140.029 -25.5901C137.692 -23.2476 134.81 -21.5295 131.65 -20.595C128.489 -19.6606 125.153 -19.54 121.951 -20.2443C121.403 -20.3512 120.917 -20.6629 120.592 -21.1168C120.267 -21.5706 120.126 -22.1333 120.198 -22.6911C120.586 -25.2611 121.528 -27.7204 122.958 -29.8963C124.389 -32.0723 126.273 -33.9122 128.479 -35.2869C133.604 -37.2963 139.23 -37.5514 144.48 -36.0121C148.671 -46.0386 152.656 -56.1186 156.419 -66.3457C151.621 -62.8557 145.676 -61.3667 139.846 -62.1944C139.376 -62.2769 138.949 -62.5145 138.632 -62.8696C138.314 -63.2247 138.125 -63.6768 138.094 -64.155C138.291 -66.4758 138.957 -68.7365 140.051 -70.7989C141.146 -72.8613 142.645 -74.682 144.458 -76.1497C146.783 -77.8782 149.455 -79.0728 152.281 -79.6479C155.108 -80.2231 158.02 -80.1644 160.809 -79.4762L161.368 -79.1089C166.04 -91.0842 170.693 -102.91 175.663 -114.366C172.559 -112.369 169.02 -111.166 165.36 -110.863C161.7 -110.56 158.03 -111.167 154.677 -112.63C154.257 -112.838 153.915 -113.174 153.7 -113.592C153.485 -114.009 153.409 -114.486 153.482 -114.952C154.343 -117.308 155.699 -119.455 157.456 -121.245C159.213 -123.036 161.331 -124.429 163.664 -125.328C166.319 -126.385 169.161 -126.867 172.003 -126.741C174.845 -126.616 177.622 -125.887 180.151 -124.601L180.654 -124.27C185.587 -135.223 191.131 -145.893 197.261 -156.227C198.784 -158.543 202.656 -156.887 201.153 -154.478L201.172 -154.142Z" fill="#92D660"/>
</g>
<defs>
<clipPath id="clip0_413_4853">
<rect width="118" height="120" fill="white"/>
</clipPath>
</defs>
</svg>
