<svg viewBox="0 0 51 84" fill="none" xmlns="http://www.w3.org/2000/svg">
<path fill-rule="evenodd" clip-rule="evenodd" d="M6.69341 -13.3884C5.88663 -12.8755 4.93921 -12.0528 5.31789 -10.9177C5.47123 -10.567 5.72689 -10.2704 6.0518 -10.0665C6.3767 -9.86252 6.75587 -9.76052 7.14014 -9.7738C7.94388 -9.89614 8.7129 -10.1865 9.39665 -10.6258C11.5052 -11.9177 13.3952 -13.5344 14.9962 -15.4153C16.358 -17.0448 17.4872 -18.8538 18.3515 -20.7906C19.3484 -18.0901 20.3222 -15.3833 21.2959 -12.6766C17.4614 -10.0169 13.7011 -7.08032 10.151 -4.47212C9.38594 -3.89617 8.56216 -2.98302 9.07376 -1.90831C9.25724 -1.57604 9.53601 -1.30594 9.87457 -1.1324C10.2131 -0.95886 10.5962 -0.889732 10.9748 -0.933859C11.7744 -1.11637 12.5279 -1.46144 13.1881 -1.94734C15.0891 -3.33172 16.7907 -4.96925 18.2451 -6.81406C19.5592 -8.47161 20.659 -10.2868 21.5185 -12.2169C22.2496 -10.1376 22.9575 -8.05201 23.6484 -5.9372C20.2534 -2.45852 16.5821 0.74167 12.6704 3.63211C11.859 4.22048 10.9424 5.15848 11.4077 6.24561C11.5764 6.59816 11.8563 6.88588 12.2048 7.06484C12.5534 7.24381 12.9513 7.30424 13.3381 7.23695C14.1863 7.03846 14.9835 6.66475 15.6781 6.14007C17.7795 4.6078 19.6042 2.73058 21.0736 0.589087C22.2945 -1.1666 23.2525 -3.0895 23.9173 -5.119C24.7118 -2.71044 25.4892 -0.272619 26.2265 2.20073C23.0312 5.74162 19.4183 8.88539 15.4664 11.5633C14.6658 12.0993 13.7308 12.9682 14.1265 14.0739C14.2728 14.4358 14.5339 14.7399 14.8701 14.9399C15.2063 15.14 15.5991 15.2251 15.9889 15.1824C16.8396 15.0256 17.6476 14.691 18.3598 14.2008C20.5078 12.7493 22.3577 10.9021 23.8094 8.75903C25.013 7.03178 25.9193 5.11728 26.4908 3.09443C27.072 5.26337 27.6594 7.45538 28.3858 9.61012L28.5156 10.0947C24.8135 13.919 20.9194 17.5542 16.8483 20.9863C15.9921 21.6856 15.0539 22.7284 15.5887 23.7969C15.7914 24.1407 16.1037 24.407 16.4761 24.5536C16.8484 24.7002 17.2596 24.7187 17.6443 24.6062C18.518 24.3267 19.3266 23.8745 20.0214 23.2768C22.1343 21.5297 23.9806 19.4854 25.5019 17.2085C26.8729 15.1763 27.9528 12.9641 28.7104 10.636C29.3287 12.9434 29.8975 15.0662 30.4848 17.2582C29.0954 19.2133 27.6704 21.1284 26.1217 22.953C24.3774 25.0319 22.5074 27.003 20.5222 28.8554C19.7479 29.5822 18.8685 30.6587 19.4017 31.6287C19.6257 31.9588 19.9527 32.2061 20.3324 32.3324C20.712 32.4586 21.1231 32.4568 21.5022 32.3271C22.3649 31.9927 23.151 31.4876 23.8128 30.8424C25.8384 28.9524 27.5207 26.7278 28.7848 24.2673C29.7052 22.4363 30.3792 20.4929 30.7893 18.4874C31.5621 21.3716 32.219 24.2869 32.876 27.2022C31.6225 29.2939 30.3104 31.3519 28.873 33.2209C27.2196 35.5023 25.3848 37.648 23.3863 39.6371C22.6074 40.4394 21.7403 41.562 22.3215 42.6181C22.5576 42.947 22.8987 43.1864 23.2894 43.2973C23.6801 43.4081 24.0972 43.384 24.4729 43.2287C24.916 43.0592 25.3303 42.823 25.7016 42.5284C26.0962 42.2428 26.4687 41.9281 26.816 41.5869C28.842 39.5339 30.4803 37.1346 31.652 34.5042C32.4248 32.7358 32.9705 30.8779 33.2763 28.9745C33.842 31.6421 34.4015 34.2868 34.9379 36.9376C32.9018 40.9523 30.2473 44.6259 27.0711 47.8248C26.4065 48.4975 25.677 49.4843 26.2752 50.5111C26.4821 50.838 26.7912 51.0879 27.1549 51.2228C27.5187 51.3576 27.9171 51.3698 28.2891 51.2575C28.6947 51.1223 29.078 50.9278 29.4266 50.6806C29.7843 50.4351 30.1171 50.1553 30.4204 49.8455C32.2117 48.0228 33.601 45.8478 34.499 43.4604C34.9842 42.1919 35.3056 40.8676 35.4557 39.5192C35.9936 42.2685 36.5021 45.001 36.9937 47.7628C34.9124 51.8047 32.227 55.5095 29.0295 58.7503C28.3819 59.3937 27.6988 60.3681 28.3263 61.4117C28.5337 61.7348 28.8386 61.9839 29.1974 62.1232C29.5561 62.2626 29.9503 62.285 30.3232 62.1874C30.7149 62.0649 31.0852 61.8823 31.4205 61.646C31.744 61.3975 32.0545 61.1327 32.351 60.8526C34.0814 59.0971 35.4157 56.9942 36.2643 54.6849C36.8589 53.0679 37.1917 51.3676 37.2502 49.6477C37.6599 52.011 38.0695 54.3743 38.4327 56.75C36.3155 60.8301 34.772 65.1799 33.8457 69.6766C33.6278 70.6253 33.6649 71.8766 34.7885 72.268C35.1445 72.3853 35.5275 72.3961 35.8901 72.2989C36.2527 72.2018 36.579 72.001 36.8286 71.7213C37.2711 71.1067 37.583 70.4088 37.7451 69.6704C38.5703 66.3339 38.9547 62.9054 38.8887 59.4718C39.1283 61.0151 39.3679 62.5584 39.5843 64.1079C38.6922 69.5255 38.5555 75.0382 39.1781 80.4895C39.2894 81.6467 39.8581 83.0276 41.2445 83.1012C41.6922 83.0859 42.1268 82.9461 42.4994 82.6977C42.872 82.4492 43.1675 82.1021 43.3526 81.6955C43.6447 80.8765 43.7503 80.0034 43.6617 79.1396C43.2899 74.1351 42.1326 69.2214 40.2319 64.5774C40.0279 63.816 40.0325 62.9986 39.9382 62.183C41.1218 65.806 42.6967 69.2895 44.6353 72.5725C45.1021 73.3872 45.9661 74.2933 47.0881 73.8442C47.4273 73.6828 47.7139 73.4292 47.9149 73.1128C48.1159 72.7964 48.2231 72.43 48.2241 72.056C48.1373 71.3107 47.894 70.5923 47.51 69.9474C45.4389 66.1751 42.7782 62.756 39.6275 59.8179C39.1328 56.1172 38.5563 52.389 37.9396 48.6963C38.7398 50.8242 39.8143 52.839 41.1359 54.6903C42.7312 56.8931 44.6008 58.885 46.7 60.6185C47.5316 61.3107 48.8391 61.9249 49.7108 61.0978C49.9668 60.8111 50.1318 60.4554 50.1849 60.0758C50.238 59.6961 50.1768 59.3096 50.0091 58.9652C49.6043 58.2705 49.085 57.649 48.4727 57.1264L43.2069 52.4042C41.5253 50.9505 39.7788 49.44 37.7602 47.6562C37.3506 45.293 36.9488 43.0513 36.5052 40.7465C38.5454 44.8353 41.3483 48.4987 44.7648 51.5416C45.55 52.2463 46.7416 52.8914 47.655 52.1273C47.9307 51.8607 48.1212 51.5189 48.2023 51.1451C48.2834 50.7712 48.2517 50.3821 48.111 50.0268C47.7579 49.3338 47.2874 48.7069 46.7199 48.1738C43.4576 44.9974 39.9644 42.0649 36.2686 39.4002C35.6365 36.2063 34.9641 33.0479 34.2624 29.8726C35.0424 32.2642 36.2229 34.5064 37.7539 36.5045C39.4592 38.7422 41.5091 40.6968 43.8281 42.2961C44.7462 42.9404 46.1449 43.4312 46.9161 42.5073C47.1385 42.1914 47.2612 41.8168 47.2686 41.4315C47.276 41.0462 47.1678 40.6678 46.9578 40.3446C46.4993 39.705 45.9379 39.1452 45.2963 38.6877C43.2994 37.1701 41.5606 35.7813 39.7801 34.3294C37.9996 32.8775 36.2237 31.3501 34.1743 29.451C33.9208 28.5049 33.6735 27.582 33.4262 26.6591C33.3995 26.518 33.3623 26.3792 33.3149 26.2437C32.8512 24.5132 32.3813 22.7595 32.0505 20.9687C33.1091 23.4636 34.5664 25.7706 36.3658 27.8003C38.4515 30.1455 40.8994 32.1442 43.6177 33.7215C44.7105 34.3685 46.3936 34.8078 47.0134 33.8751C47.2137 33.5285 47.3001 33.1283 47.2605 32.7309C47.2208 32.3334 47.0571 31.9586 46.7923 31.6591C46.1885 30.997 45.4915 30.4258 44.7228 29.9631C42.3472 28.4234 40.2869 26.9475 38.2019 25.3794C36.117 23.8112 34.1309 22.2413 31.8403 20.1842C31.5188 18.9843 31.222 17.8768 30.882 16.6077C30.8665 16.5132 30.8416 16.4205 30.8078 16.3309C30.4678 15.0618 30.1277 13.7927 29.7815 12.5006C31.0053 14.4643 32.5029 16.2445 34.2297 17.7881C36.6485 19.9975 39.443 21.7607 42.4831 22.9957C43.7196 23.53 45.446 23.7598 46.0117 22.718C46.1535 22.3406 46.1737 21.9289 46.0695 21.5401C45.9654 21.1513 45.742 20.8049 45.4305 20.549C45.077 20.2373 44.688 19.9681 44.2713 19.7468C43.8602 19.5107 43.4259 19.2808 43.0565 19.1078C40.6228 17.9104 38.2636 16.5688 35.9916 15.0902C33.7746 13.7382 31.6424 12.253 29.6068 10.6431L29.2297 9.23563C28.7227 7.34357 28.2157 5.45152 27.7026 3.53639C29.1225 5.73202 30.8951 7.67983 32.9499 9.30221C35.2415 11.1516 37.8097 12.6329 40.5618 13.6925C41.6515 14.1425 43.2141 14.3173 43.7504 13.2586C43.882 12.8926 43.8987 12.4956 43.7982 12.1205C43.6977 11.7454 43.4848 11.41 43.1877 11.1589C42.5556 10.6041 41.832 10.1622 41.0486 9.85251C38.6221 8.77157 36.4815 7.73767 34.2945 6.71619C32.1075 5.69471 30.0178 4.57297 27.5217 3.13971L25.8308 -2.61458C29.4457 0.473669 33.7139 2.71088 38.3191 3.93139C39.2542 4.17545 40.5293 4.20474 41.0084 3.2108C41.1125 2.85468 41.1168 2.47721 41.0209 2.11929C40.925 1.76137 40.7325 1.43664 40.4643 1.18028C39.8892 0.73209 39.2343 0.395846 38.5339 0.189015C34.3652 -1.13026 30.0815 -2.06052 25.7381 -2.58974C25.0745 -5.06633 24.3202 -7.51037 23.4752 -9.92188C27.1793 -6.94508 31.6017 -4.98451 36.3051 -4.23407C37.3205 -4.06101 38.6513 -4.19499 38.9712 -5.31939C39.0564 -5.68895 39.0323 -6.075 38.9017 -6.43066C38.7711 -6.78633 38.5397 -7.09639 38.2355 -7.3233C37.6023 -7.72414 36.896 -7.997 36.1567 -8.12644C33.8677 -8.60125 31.8182 -9.01659 29.6993 -9.4133L23.3037 -10.4694C22.6854 -12.7768 21.8121 -15.0159 21.0316 -17.2798C22.6321 -15.9466 24.4369 -14.8774 26.3777 -14.1124C28.78 -13.1424 31.3318 -12.5884 33.9232 -12.4741C34.9603 -12.4058 36.3405 -12.7262 36.4502 -13.8932C36.4715 -14.2647 36.3899 -14.6346 36.2144 -14.9626C36.0389 -15.2907 35.7761 -15.5641 35.4549 -15.7532C34.7866 -16.0711 34.062 -16.255 33.3219 -16.2946C31.0484 -16.5263 29.0361 -16.8032 26.931 -17.0552C24.8259 -17.3073 23.064 -17.5771 20.7874 -18.0057C19.9218 -20.4941 19.0331 -22.9764 18.1273 -25.4293C19.8707 -23.8993 21.8769 -22.6945 24.05 -21.8724C26.3393 -21.0155 28.7516 -20.5266 31.1967 -20.424C32.1813 -20.3663 33.4455 -20.6556 33.5784 -21.8288C33.613 -22.1969 33.5448 -22.5671 33.3814 -22.8986C33.2181 -23.2301 32.9659 -23.5101 32.6526 -23.7076C32.022 -24.0117 31.3405 -24.1979 30.6418 -24.2569L17.8939 -25.4657C17.2741 -27.1297 16.6312 -28.7875 15.9882 -30.4452C17.4666 -28.9133 19.2929 -27.7575 21.3143 -27.0746C23.8322 -26.2169 26.5293 -26.012 29.1519 -26.4791C29.7063 -26.5782 30.2329 -26.7952 30.6959 -27.1154C30.9107 -27.2721 31.0778 -27.4849 31.1788 -27.7302C31.2797 -27.9755 31.3105 -28.2438 31.2677 -28.5051C31.1814 -28.8662 31.0016 -29.1983 30.7461 -29.4682C30.4907 -29.7382 30.1685 -29.9367 29.8118 -30.044C29.4687 -30.1281 29.1158 -30.1666 28.7623 -30.1585L27.7561 -30.1115C25.7521 -29.8998 23.7322 -29.8888 21.7269 -30.0786C20.6985 -30.1412 19.6757 -30.272 18.6651 -30.4701C17.6677 -30.6491 16.6823 -30.8888 15.7146 -31.188C14.897 -33.2194 14.0793 -35.2508 13.2447 -37.2529C16.3109 -35.1777 19.9321 -34.0638 23.6434 -34.0544C23.8664 -34.0229 24.0936 -34.0372 24.3112 -34.0962C24.5287 -34.1552 24.732 -34.2579 24.9085 -34.3978C25.0851 -34.5377 25.2311 -34.7119 25.3378 -34.9099C25.4445 -35.1078 25.5095 -35.3253 25.5289 -35.5489C25.5484 -35.9013 25.4842 -36.2531 25.3416 -36.5758C25.199 -36.8985 24.982 -37.1831 24.7082 -37.4064C24.1924 -37.6776 23.6246 -37.8373 23.0421 -37.8749C21.277 -37.9708 19.699 -38.0178 18.0406 -37.9939C16.3822 -37.9699 14.917 -37.8741 13.1257 -37.7898C11.6388 -41.2988 10.1117 -44.7723 8.47492 -48.1917C8.32654 -48.7455 7.29101 -48.3444 7.51512 -47.7862C9.22613 -43.719 10.9139 -39.6455 12.5322 -35.5535C9.18382 -34.2559 5.74305 -33.2098 2.2388 -32.4243C1.8035 -32.383 1.39974 -32.1789 1.10891 -31.8531C0.818079 -31.5274 0.6618 -31.1043 0.671607 -30.669C0.671213 -30.3069 0.772841 -29.9521 0.964918 -29.6451C1.15699 -29.3381 1.43182 -29.0911 1.75817 -28.9322C2.41749 -28.7416 3.11549 -28.7242 3.7844 -28.8817C5.74301 -29.3058 7.59555 -30.1219 9.22943 -31.2804C10.6182 -32.3064 11.8107 -33.5726 12.7502 -35.0183C13.6827 -32.7127 14.5977 -30.4106 15.4952 -28.1121C11.7395 -26.7348 8.05796 -25.0806 4.6531 -23.5995C3.90195 -23.2499 3.03336 -22.5967 3.31313 -21.4599C3.41436 -21.1077 3.60946 -20.7896 3.87776 -20.5393C4.14606 -20.289 4.47755 -20.1158 4.83707 -20.0382C5.54382 -20.0064 6.2483 -20.1443 6.89113 -20.4402C10.4375 -21.9349 13.4986 -24.3821 15.7317 -27.5078C16.5818 -25.2625 17.3886 -23.1788 18.197 -20.9965C14.3995 -18.5694 10.4986 -15.694 6.69341 -13.3884Z" fill="#5EAD41"/>
</svg>
