<svg width="110" height="38" viewBox="0 0 110 38" fill="none" xmlns="http://www.w3.org/2000/svg">
<path fill-rule="evenodd" clip-rule="evenodd" d="M27.4538 1.0821C30.1684 1.0821 32.3693 3.2823 32.3693 5.99725C32.3693 8.71254 30.1684 10.9127 27.4538 10.9127H4.97433C2.25939 10.9127 0.0586548 8.71254 0.0586548 5.99725C0.0586548 3.2823 2.2594 1.0821 4.97416 1.0821H27.4538ZM25.1943 13.9622C27.9094 13.9622 30.1101 16.1628 30.1101 18.8777C30.1101 21.5927 27.9094 23.7932 25.1943 23.7932H12.3998C11.3085 23.7971 10.4154 24.6604 10.3736 25.7407V32.1473C10.3736 34.8619 8.17286 37.0624 5.45863 37.0624C2.74369 37.0624 0.542949 34.8619 0.542949 32.1473V21.2443C0.542949 17.2227 3.80308 13.9621 7.82487 13.9621L25.1943 13.9622ZM34.6015 4.9614C34.6015 2.24681 36.8022 0.0458984 39.517 0.0458984C42.2321 0.0458984 44.4325 2.24681 44.4325 4.9614V32.1816C44.4325 34.8966 42.2323 37.0971 39.517 37.0971C36.8024 37.0971 34.6015 34.8964 34.6015 32.1816V4.9614ZM95.1004 27.3475L97.0758 27.3426C97.4794 27.3422 97.8065 27.015 97.8068 26.6114C97.8098 26.5153 97.7922 26.4198 97.7551 26.3312L90.41 13.9884L78.9353 33.8573C78.0489 35.3938 76.4572 36.27 74.8054 36.314C74.7561 36.321 74.7065 36.3244 74.6567 36.3245H55.9824C51.9605 36.3245 48.7001 33.064 48.7001 29.0424V4.96175C48.7001 2.24699 50.9011 0.0460757 53.6157 0.0460757C56.3301 0.0460757 58.5311 2.24699 58.5311 4.96157V24.4667C58.5347 25.5585 59.3978 26.4522 60.4788 26.493H70.925C71.1937 26.4103 72.0154 26.131 72.2657 25.7421L85.3867 3.02848C86.3824 1.31894 88.2344 0.168034 90.3543 0.168034C92.4752 0.168034 94.3276 1.32071 95.3188 3.03379L108.104 24.4998C109.091 25.7823 109.624 27.3553 109.622 28.9732C109.622 33.0332 106.331 36.3241 102.271 36.3241H87.368C84.8881 36.3241 82.8796 34.3144 82.8796 31.8352C82.8796 29.3569 84.8883 27.3475 87.368 27.3475H95.1004Z" fill="white"/>
</svg>
