<svg width="70" height="63" viewBox="0 0 70 63" fill="none" xmlns="http://www.w3.org/2000/svg">
<path fill-rule="evenodd" clip-rule="evenodd" d="M21.4038 52.837H19.9235L19.0123 60.5812H18.6707L17.5317 52.837H15.2537L14.2286 60.5812H14.0008L12.8622 52.837H11.382L12.7488 62.8588H15.2541L16.3927 55.0002H16.5066L17.5317 62.8588H20.1509L21.4038 52.837ZM23.6813 62.8588H25.2759V59.1005H28.4651V62.8588H30.0592V52.9505H28.4646V56.7087H25.2755V52.9505H23.6809L23.6813 62.8588ZM38.4865 57.506C38.4865 54.5446 37.1201 52.7223 34.6143 52.7223C31.8807 52.7223 30.7422 54.5446 30.7422 57.506C30.7422 60.2391 31.6534 62.8588 34.6143 62.8588C37.4613 62.8588 38.4865 60.2391 38.4865 57.506ZM39.1698 62.8588H43.7253V60.5808H40.764V52.8366H39.1698V62.8588ZM54.6579 52.9505H51.6974L49.5333 62.8588H51.2414L51.5831 61.0364H54.7718L55.1135 62.8588H56.7085L54.6579 52.9505ZM52.7221 55.1149H53.6336L54.4309 59.4422H51.8113L52.7221 55.1149ZM10.6986 62.8588V60.5808H7.39599V58.645H10.6986V57.2782H7.39599V55.1149H10.6986V52.837H5.80139V60.8082L3.06826 52.837H0.5625V62.8588H2.15706L2.04317 55.0002L4.89023 62.8588H10.6986ZM44.4087 62.8588H48.9634V60.5808H46.0029V52.8366H44.4087V62.8588ZM62.8577 60.8082L60.0111 52.837H57.5054V62.8588H59.1003L58.986 55.0002L61.8335 62.8588H65.4774C68.7804 62.8588 69.4638 61.1499 69.4638 57.3917C69.3495 54.3176 68.4387 52.837 65.4774 52.837H62.7443V57.3917L62.8577 60.8082ZM64.4527 55.0002H65.5917C67.2998 55.0002 68.0966 55.5701 68.0966 57.8477V57.7333C68.0966 60.0113 67.2994 60.6947 65.5917 60.5808H64.4527V55.0002ZM37.0057 57.506C37.0057 58.9866 36.8923 60.6947 34.6143 60.6947C32.3367 60.6947 32.109 58.9866 32.109 57.506C32.109 56.1392 32.7923 55.0002 34.6143 55.0002C36.4367 55.0002 37.0057 56.1392 37.0057 57.506ZM13.4318 20.6071C13.4318 19.9237 13.8873 19.4681 14.229 19.8098C18.3289 23.9097 33.4757 35.0709 33.3618 44.8645C33.2479 45.4336 32.7923 45.7753 32.2229 45.7753C20.9482 44.9784 11.7233 40.5372 13.4318 20.6071ZM48.5082 3.18277C45.3195 1.4743 42.0169 0.677428 38.0308 0.449219C37.2335 0.449219 36.8919 1.01871 36.7784 1.7021C36.4367 6.8271 36.5502 9.67414 36.4367 14.6848C36.3224 15.4821 36.8923 16.5072 37.8035 15.3682C42.0165 11.2683 44.4087 8.99075 48.6217 4.89083C49.3055 4.32176 49.0781 3.41056 48.5082 3.18277ZM21.176 3.18277C24.4786 1.4743 27.7813 0.677428 31.7673 0.449219C32.5646 0.449219 32.9063 1.01871 33.0202 1.7021C33.3619 6.8271 33.2479 9.67414 33.3618 14.6848C33.4757 15.4821 32.9063 16.5072 31.8812 15.3682C27.6678 11.2683 25.2759 8.99075 21.1764 4.89083C20.3787 4.32176 20.7204 3.41056 21.176 3.18277ZM51.1279 6.37192C43.1554 14.0019 36.095 19.1264 36.4367 32.7934C36.4367 33.3625 36.8923 33.9324 37.6892 33.249C44.2944 26.7572 48.0527 23.2268 54.7718 16.7354C55.7969 15.7103 56.0251 14.7991 55.6834 13.2046C55 10.3575 54.431 9.10465 52.7221 6.8271C52.2669 6.37192 51.8113 6.14371 51.1279 6.37192ZM18.6707 6.37192C26.6423 14.0019 33.7035 19.1269 33.3618 32.7934C33.3618 33.3625 32.9062 33.9324 32.109 33.249C25.5033 26.7568 21.7455 23.2268 15.0263 16.7354C14.0012 15.7103 13.7734 14.7991 14.1151 13.2046C14.7985 10.3575 15.368 9.10465 17.0761 6.8271C17.5317 6.37192 17.9873 6.14371 18.6707 6.37192ZM56.4803 20.6071C56.4803 19.9237 56.1386 19.4681 55.683 19.8098C51.6974 23.9097 36.4363 35.0709 36.5502 44.8645C36.6636 45.4336 37.2336 45.7753 37.8035 45.7753C48.9638 44.9784 58.1883 40.5372 56.4803 20.6071Z" fill="white"/>
</svg>
