<svg width="111" height="58" viewBox="0 0 111 58" fill="none" xmlns="http://www.w3.org/2000/svg">
<path d="M26.6775 30.0458H34.2393L45.3814 0.337891H38.3589L33.3551 13.6616L34.2176 0.337891H26.746L15.6044 30.0458H22.6264L27.537 16.9024L26.6775 30.0458Z" fill="white"/>
<path d="M46.2925 0.337891L35.1515 30.0458H42.1734L53.3144 0.337891H46.2925Z" fill="white"/>
<path fill-rule="evenodd" clip-rule="evenodd" d="M14.7947 19.8059C4.98222 31.3292 -4.27401 46.6618 3.90196 53.7224C11.7548 60.5045 21.7319 56.5123 28.4791 53.8125C35.2311 51.1116 109.861 18.7028 109.861 18.7028C110.581 18.3427 110.447 17.8925 109.546 18.1173C109.393 18.1556 94.933 22.0725 78.2544 26.5914L79.0824 24.2844H70.8906L73.5822 17.0827H80.3336L82.411 11.5462H75.6596L77.9741 5.2895H85.085L86.9721 0.337891H65.5462L58.1893 9.25043L61.5858 0.337891H54.4737L43.4217 30.0458H50.4437L55.1623 17.6226L55.4855 30.0458L65.5867 30.0238C46.4457 35.2104 28.2994 40.1281 28.2994 40.1281C18.0355 43.0094 6.3324 36.7299 14.7947 19.8059ZM62.4518 28.065L62.0015 12.5814L72.6185 0.924565L62.4518 28.065Z" fill="white"/>
</svg>
