<svg width="102" height="54" viewBox="0 0 102 54" fill="none" xmlns="http://www.w3.org/2000/svg">
<path fill-rule="evenodd" clip-rule="evenodd" d="M52.7826 25.0615H78.4472V27.2824H52.7826V30.342H84.7029C93.9013 30.342 101.403 23.8168 101.403 15.7872C101.403 7.75766 93.9013 1.20866 84.7029 1.20866L76.61 0.99761H52.7826V25.0615ZM78.5727 35.5295V32.5164H52.7826V35.5295H78.5727ZM78.5727 40.764V37.7509H52.7826V40.764H78.5727ZM78.5727 45.9986V42.9849H52.7826V45.9986H78.5727ZM78.5727 48.2189V50.8116H52.7826V48.2189H78.5727ZM23.331 12.3174L0.555631 0.99707H0.161133V3.64816L48.7662 27.8078V0.99707H23.331V12.3174ZM0.161133 5.96104L48.7662 30.1202V32.9677L0.161133 8.80803V5.96104ZM0.161133 11.1209V13.9674L48.7662 38.127V35.2795L0.161133 11.1209ZM0.161133 16.2802V19.1272L48.7662 43.2869V40.4393L0.161133 16.2802ZM0.161133 21.4396V24.286L48.7662 48.4457V45.5981L0.161133 21.4396ZM0.161133 26.5989V50.8116H24.2493V41.4188L48.7667 53.6055V50.758L0.161133 26.5989Z" fill="white"/>
</svg>
