<svg viewBox="0 0 375 161" fill="none" xmlns="http://www.w3.org/2000/svg">
<g clip-path="url(#clip0_182_12336)">
<path d="M375 0H0V161H375V0Z" fill="#A3E3FF"/>
<path opacity="0.2" d="M21 177.519L450 180V-9C432.73 -8.9161 410.167 -7.79147 385.651 -3.93613C367.04 -1.01367 347.293 3.48489 327.857 10.2927C321.695 12.45 315.58 14.8471 309.511 17.484C229.218 52.5895 226.496 58.8899 226.496 58.8899C226.496 58.8899 220.891 53.7681 210.343 50.3003C200.766 47.1581 187.114 45.3822 169.871 50.0526C168.904 50.3162 167.925 50.5979 166.932 50.9035C164.301 51.7137 161.738 52.6172 159.254 53.6103C154.676 55.4512 150.31 57.5144 146.194 59.7828C95.3401 87.5692 21 177.519 21 177.519Z" fill="white"/>
<path d="M120.11 130.489C120.11 130.489 255.682 122.779 338.019 82.6989C378.862 62.8193 412.673 36.9695 436.377 15.9686L433.068 -30.5332L323.335 -20.9669C296.741 -3.9829 268.45 15.7576 259.961 26.7677C243.012 48.8127 240.275 62.4195 240.275 62.4195C240.275 62.4195 220.659 60.0215 206.175 77.7162L191.695 95.4311C191.695 95.4311 169.875 88.0903 148.174 108.468C126.473 128.846 120.11 130.489 120.11 130.489Z" fill="url(#paint0_linear_182_12336)"/>
<path d="M150.94 150.403C151.972 150.571 208.189 159.664 286.065 133.214C340.881 114.579 395.319 79.3038 423.232 59.6613L422.031 42.7793C396.393 61.4903 343.136 97.5344 284.355 120.709C202.86 152.845 151.934 150.463 150.94 150.403Z" fill="white"/>
</g>
<defs>
<linearGradient id="paint0_linear_182_12336" x1="397.126" y1="-5.86359" x2="-13.9348" y2="180.234" gradientUnits="userSpaceOnUse">
<stop stop-color="#FFFDEC"/>
<stop offset="1" stop-color="white"/>
</linearGradient>
<clipPath id="clip0_182_12336">
<rect width="375" height="161" fill="white"/>
</clipPath>
</defs>
</svg>
