<svg width="375" height="311" viewBox="0 0 375 311" fill="none" xmlns="http://www.w3.org/2000/svg">
<g clip-path="url(#clip0_407_4853)">
<g clip-path="url(#clip1_407_4853)">
<path fill-rule="evenodd" clip-rule="evenodd" d="M404.408 43.3124C404.901 44.4967 405.418 45.5903 406.247 46.0106C408.153 47.013 409.95 45.9156 410.842 44.1358C410.948 43.9508 410.98 43.9784 410.769 43.9329C409.775 43.7015 408.914 43.2536 408.438 42.7804C407.708 42.0569 406.494 40.7419 406.823 38.9695C407.237 36.6869 409.839 35.6553 411.194 36.8423C412.894 38.3331 413.131 40.1277 413.192 41.9635C413.196 42.0226 413.172 42.5584 413.201 42.5564C413.201 42.5564 413.378 42.5448 413.408 42.5428C413.969 42.5059 414.494 42.3527 414.888 42.0301C415.536 41.5127 416.13 40.6131 416.314 39.7997C416.5 39.016 416.433 38.4565 416.609 38.4153C416.755 38.3761 417.136 38.7664 417.11 39.7177C417.089 41.2029 416.44 43.5306 414.149 43.8889C413.797 43.9417 413.415 43.9965 413.062 44.0493C412.973 44.0552 412.914 44.059 412.892 44.1791C412.031 47.322 409.237 49.9686 405.968 48.9965C406.299 51.3191 406.429 53.7439 406.351 56.1823C406.167 63.7616 405.063 66.8314 401.736 73.549C398.594 79.9279 394.715 87.2753 395.581 90.0672C396.934 94.3999 394.454 95.9576 396.669 101.213C396.88 101.704 397.778 103.188 397.643 104.74C397.476 106.709 393.851 108.906 392.81 108.411C392.321 108.205 391.856 104.734 389.778 102.022C388.543 100.382 384.17 96.6038 381.154 93.152C380.351 92.2255 379.698 92.6838 379.5 93.7355C378.521 98.6963 373.368 100.222 372.647 107.302C372.557 108.198 370.429 109.229 368.481 109.386C366.446 109.579 366.624 108.232 366.9 106.552C367.155 105.022 367.419 103.165 367.537 101.792C367.94 97.9969 367.351 93.5546 365.403 93.7123C360.004 94.1859 353.978 94.1664 348.481 94.0529C347.53 94.0264 347.541 94.6488 348.003 95.3603C348.664 96.3852 349.427 97.166 349.921 98.3503C350.866 100.543 350.459 106.535 349.468 108.618C348.736 110.12 346.594 110.943 345.022 110.958C344.132 110.957 344.235 110.268 343.907 108.449C342.661 101.231 340.021 98.5261 336.38 94.6108C334.623 92.7084 334.204 92.6469 331.937 93.8345C328.207 95.7711 323.8 96.8917 322.137 101.393C321.558 102.974 321.523 104.698 321.294 107.087C321.201 107.924 320.688 108.699 317.867 110.932C316.767 111.806 315.991 110.373 315.522 107.763C314.296 100.84 316.616 90.5385 320.178 87.3962C317.09 85.1065 313.076 80.4738 310.078 78.2078C301.426 71.6247 296.888 77.5316 287.406 64.2073C286 62.2225 280.742 56.7221 278.371 56.3141C273.957 55.5358 276.497 48.1281 277.797 46.2325C279.15 44.2444 279.985 45.1984 281.682 45.7397C285.894 47.0654 294.6 44.5347 297.544 43.718C290.241 38.7081 291.117 35.3269 290.336 29.7696C290.101 28.0045 289.554 25.9929 290.096 25.6605C290.811 25.2574 292.852 26.9631 294.73 27.997C299.44 30.5661 306.75 33.884 315.431 35.4797C326.533 32.8212 332.063 35.6923 341.568 34.4741C362.196 31.8128 384.575 20.1337 399.091 35.1153C401.732 37.8203 403.056 39.8996 404.437 43.3105L404.408 43.3124ZM411.275 42.1488C411.275 42.1488 411.368 42.2021 411.391 42.1115C411.491 40.918 411.234 39.7181 410.715 39.04C409.875 37.9973 408.049 38.2063 409.138 40.3307C409.545 41.1052 410.36 41.7638 411.275 42.1488Z" fill="#F5AFB4"/>
<path fill-rule="evenodd" clip-rule="evenodd" d="M305.33 37.5678C303.954 34.6907 303.73 31.7378 304.613 27.1098C306.444 17.4934 307.35 24.0514 311.37 28.7727C312.527 30.1211 313.867 31.5464 315.325 32.964C318.428 35.9353 320.955 36.4518 322.498 37.8045C326.525 41.279 326.582 43.5009 320.529 45.7683C319.197 46.2713 317.707 46.6362 316.259 46.7313C311.029 47.075 307.392 41.8538 305.328 37.5382L305.33 37.5678Z" fill="#E7868C"/>
<mask id="mask0_407_4853" style="mask-type:alpha" maskUnits="userSpaceOnUse" x="304" y="22" width="22" height="25">
<path fill-rule="evenodd" clip-rule="evenodd" d="M305.33 37.5678C303.954 34.6907 303.73 31.7378 304.613 27.1098C306.444 17.4934 307.35 24.0514 311.37 28.7727C312.527 30.1211 313.867 31.5464 315.325 32.964C318.428 35.9353 320.955 36.4518 322.498 37.8045C326.525 41.279 326.582 43.5009 320.529 45.7683C319.197 46.2713 317.707 46.6362 316.259 46.7313C311.029 47.075 307.392 41.8538 305.328 37.5382L305.33 37.5678Z" fill="#E7868C"/>
</mask>
<g mask="url(#mask0_407_4853)">
<path fill-rule="evenodd" clip-rule="evenodd" d="M313.282 51.0824C313.132 49.6975 312.893 48.3185 312.591 46.8843C312.563 46.9158 312.508 46.9787 312.449 46.9826C311.724 47.238 310.918 47.1723 310.265 46.7108C309.891 46.4386 309.163 45.7445 309.336 45.2286C309.534 44.6221 310.619 44.8772 311.068 44.9368C311.517 44.9963 311.913 45.1484 312.226 45.3949C311.9 44.0512 311.515 42.7114 311.13 41.3717C311.132 41.4012 311.075 41.4347 311.048 41.4661C310.48 41.8596 309.777 41.9948 309.084 41.8326C308.601 41.7159 307.589 41.2187 307.578 40.5962C307.594 39.9423 308.689 39.9 309.131 39.8413C309.722 39.8025 310.259 39.8561 310.751 40.1205C310.365 38.7512 309.978 37.3819 309.619 35.9811C309.619 35.9811 309.56 35.985 309.532 36.0165C308.746 36.2462 308.014 35.9382 307.39 35.4747C307.016 35.2026 306.362 34.741 306.804 34.2372C307.19 33.7964 308.051 33.7991 308.563 33.9138C308.774 33.9593 308.957 34.0363 309.14 34.1133C308.812 32.7401 308.542 31.3335 308.332 29.9525C307.007 29.6539 306.102 28.5263 305.985 27.1986C305.979 27.1099 306.062 27.0155 306.119 26.982C306.925 26.6026 307.606 27.0327 308.067 27.7146C307.981 26.4146 307.957 25.1401 308.082 23.8855L308.023 23.8894C306.773 23.3781 306.167 22.2902 306.052 20.9921C306.046 20.9034 306.127 20.7795 306.214 20.7441C306.821 20.4965 307.4 20.7255 307.844 21.1711C308.035 21.3662 308.228 21.5909 308.393 21.8472C308.639 20.6143 309.002 19.3738 309.547 18.1806C308.628 17.2914 308.517 16.0524 308.884 14.8709C308.936 14.7488 309.048 14.6524 309.168 14.6742C309.82 14.661 310.269 15.1656 310.485 15.7449C310.522 15.8612 310.591 16.0051 310.63 16.1509C310.764 15.9343 310.901 15.7473 311.035 15.5308C310.742 14.6894 310.623 13.7773 310.742 12.8793C310.825 12.3396 311.206 11.365 311.921 11.8521C312.417 12.1756 312.558 12.9676 312.563 13.5014C312.592 14.3898 312.168 15.1596 311.523 15.7361C311.278 16.0786 311.065 16.4487 310.852 16.8189C311.227 16.6459 311.634 16.53 312.048 16.5028C312.432 16.4776 313.344 16.3582 313.466 16.8547C313.597 17.4989 312.696 18.2407 312.206 18.451C311.514 18.7636 310.738 18.6959 310.037 18.4155C309.546 19.5161 309.204 20.6365 308.953 21.7807C309.262 21.5229 309.605 21.3224 309.979 21.1495C310.356 21.006 310.99 20.7268 311.145 21.2805C311.304 21.8932 310.91 22.6611 310.494 23.1038C309.993 23.6116 309.325 23.8335 308.645 23.8782C308.544 25.0422 308.531 26.2004 308.609 27.3823C308.919 26.6794 309.439 26.022 310.137 25.7981C310.225 25.7922 310.316 25.816 310.379 25.8712C310.885 26.3424 310.915 27.2603 310.72 27.8964C310.449 28.7451 309.804 29.3216 308.996 29.6714C308.937 29.6753 308.878 29.6792 308.819 29.6831C309.005 31.1546 309.311 32.648 309.676 34.1375C309.773 33.3595 310.29 32.643 311.066 32.2656C311.181 32.1987 311.362 32.2461 311.43 32.39C311.678 32.9969 311.867 33.6077 311.551 34.2219C311.235 34.8362 310.634 35.1725 310.031 35.4792C310.353 36.7637 310.734 38.0444 311.085 39.3271C311.277 38.6319 311.774 38.0651 312.402 37.6973C312.517 37.6304 312.639 37.6818 312.733 37.7646C313.085 38.1569 313.075 38.8995 312.988 39.3801C312.859 40.1304 312.234 40.5572 311.635 40.923C311.635 40.923 311.576 40.9269 311.546 40.9288C311.972 42.444 312.397 43.9295 312.762 45.419C313.062 44.5684 313.791 43.9269 314.695 43.6894C314.814 43.6816 314.936 43.733 315.001 43.8178C315.242 44.336 315.027 45.1218 314.761 45.5844C314.415 46.2006 313.747 46.4225 313.105 46.5834L313.046 46.5873C313.38 48.0491 313.654 49.5149 313.777 50.9312C313.798 51.2563 313.302 51.3779 313.251 51.0548L313.282 51.0824Z" fill="#D1636E"/>
<path fill-rule="evenodd" clip-rule="evenodd" d="M316.804 41.0284C317.188 41.0031 317.464 40.6883 317.439 40.3042C317.414 39.92 317.099 39.644 316.715 39.6692C316.331 39.6944 316.055 40.0094 316.08 40.3935C316.105 40.7776 316.42 41.0536 316.804 41.0284Z" fill="#D1636E"/>
<path fill-rule="evenodd" clip-rule="evenodd" d="M314.421 35.9327C314.805 35.9074 315.082 35.5925 315.056 35.2084C315.031 34.8243 314.716 34.5483 314.332 34.5735C313.948 34.5987 313.672 34.9136 313.697 35.2977C313.722 35.6818 314.037 35.9579 314.421 35.9327Z" fill="#D1636E"/>
<path fill-rule="evenodd" clip-rule="evenodd" d="M319.154 40.1915C319.538 40.1663 319.814 39.8514 319.789 39.4672C319.763 39.0831 319.449 38.807 319.064 38.8323C318.68 38.8575 318.404 39.1725 318.429 39.5566C318.455 39.9407 318.77 40.2168 319.154 40.1915Z" fill="#D1636E"/>
<path fill-rule="evenodd" clip-rule="evenodd" d="M306.322 31.8946C306.706 31.8693 306.982 31.5545 306.957 31.1704C306.931 30.7863 306.616 30.5102 306.232 30.5354C305.848 30.5607 305.572 30.8756 305.597 31.2597C305.623 31.6438 305.937 31.9198 306.322 31.8946Z" fill="#D1636E"/>
<path fill-rule="evenodd" clip-rule="evenodd" d="M319.111 41.7969C319.495 41.7717 319.771 41.4568 319.746 41.0727C319.72 40.6886 319.406 40.4125 319.021 40.4378C318.637 40.463 318.361 40.7779 318.386 41.162C318.412 41.5462 318.727 41.8222 319.111 41.7969Z" fill="#D1636E"/>
</g>
<path fill-rule="evenodd" clip-rule="evenodd" d="M302.368 52.1256C301.043 52.2721 300.042 51.952 300.556 50.7312C301.197 49.2053 302.369 49.425 303.397 50.1587C305.17 51.4073 304.165 51.9185 302.368 52.1256Z" fill="#845B00"/>
<path fill-rule="evenodd" clip-rule="evenodd" d="M365.704 80.2494C364.38 84.0458 361.253 83.8655 359.611 82.3709C358.035 80.9611 357.832 78.3333 361.832 76.8834C364.674 75.8658 366.851 76.9394 365.704 80.2494ZM356.838 53.2637C356.469 56.2258 350.57 57.6818 348.238 61.0399C346.53 63.4965 346.933 66.4673 351.38 71.3682C355.316 75.7093 363.163 73.2052 366.849 71.0341C370.278 69.0282 370.34 78.9951 381.27 76.4368C386.619 75.195 384.412 70.0579 384.532 66.0142C384.676 60.9896 394.571 58.4698 390.667 51.901C386.531 44.9617 380.201 50.2445 375.291 46.4127C373.32 44.8804 371.458 43.6376 369.678 42.7456C365.01 40.352 361.114 40.2223 358.573 42.6446C354.605 46.3774 357.211 50.3607 356.865 53.2322L356.838 53.2637ZM386.339 41.5913C386.717 45.9881 377.138 46.9738 375.544 42.5976C373.662 37.4391 385.727 34.5392 386.339 41.5913Z" fill="#E7868C"/>
<mask id="mask1_407_4853" style="mask-type:alpha" maskUnits="userSpaceOnUse" x="347" y="37" width="45" height="47">
<path fill-rule="evenodd" clip-rule="evenodd" d="M365.704 80.2494C364.38 84.0458 361.253 83.8655 359.611 82.3709C358.035 80.9611 357.832 78.3333 361.832 76.8834C364.674 75.8658 366.851 76.9394 365.704 80.2494ZM356.838 53.2637C356.469 56.2258 350.57 57.6818 348.238 61.0399C346.53 63.4965 346.933 66.4673 351.38 71.3682C355.316 75.7093 363.163 73.2052 366.849 71.0341C370.278 69.0282 370.34 78.9951 381.27 76.4368C386.619 75.195 384.412 70.0579 384.532 66.0142C384.676 60.9896 394.571 58.4698 390.667 51.901C386.531 44.9617 380.201 50.2445 375.291 46.4127C373.32 44.8804 371.458 43.6376 369.678 42.7456C365.01 40.352 361.114 40.2223 358.573 42.6446C354.605 46.3774 357.211 50.3607 356.865 53.2322L356.838 53.2637ZM386.339 41.5913C386.717 45.9881 377.138 46.9738 375.544 42.5976C373.662 37.4391 385.727 34.5392 386.339 41.5913Z" fill="#E7868C"/>
</mask>
<g mask="url(#mask1_407_4853)">
<path fill-rule="evenodd" clip-rule="evenodd" d="M381.747 62.4575C381.747 62.4575 381.736 62.2801 381.616 62.2584C381.527 62.2642 381.468 62.2682 381.444 62.3587C381.417 62.3902 381.277 62.5181 381.19 62.5535C381.133 62.5869 381.078 62.6499 381.05 62.6813C380.91 62.8092 380.742 62.9687 380.606 63.1557C380.33 63.4706 380.086 63.8131 379.902 64.1812C379.904 64.2108 379.847 64.2442 379.851 64.3033C379.717 64.5199 379.559 64.8269 379.635 65.089C379.71 65.3215 379.862 65.3709 379.952 65.3946C380.192 65.4382 380.451 65.3025 380.616 65.1135C380.95 64.7652 381.338 64.3539 381.539 63.8066C381.537 63.777 381.563 63.7159 381.591 63.6845C381.664 63.4422 381.676 63.1744 381.719 62.9341C381.708 62.7568 381.757 62.6052 381.777 62.4555L381.747 62.4575ZM380.887 59.7542C380.879 60.0812 380.843 60.4396 380.717 60.7744C380.64 60.9575 380.533 61.1425 380.397 61.3295C380.254 60.9531 380.392 60.3506 380.438 60.1398C380.537 59.8366 380.643 59.6516 380.789 59.6123C380.818 59.6104 380.848 59.6085 380.848 59.6085C380.848 59.6085 380.848 59.6084 380.858 59.7562L380.887 59.7542ZM381.725 61.2126C381.725 61.2126 381.485 61.169 381.368 61.2063C381.106 61.2829 380.846 61.389 380.622 61.5818C380.622 61.5818 380.775 61.6608 380.895 61.6826C381.224 61.7203 381.567 61.5197 381.756 61.2402L381.725 61.2126ZM381.689 65.6365C381.82 65.3609 382.011 65.1109 382.206 64.92C382.399 64.6996 382.622 64.4773 382.882 64.3712C383.115 64.2965 383.412 64.3067 383.573 64.5038C383.573 64.5038 383.607 64.5609 383.638 64.5885C383.538 64.8622 383.344 65.0826 383.147 65.244C382.725 65.5981 382.266 65.836 381.778 66.0759L381.547 66.18C381.533 65.9732 381.638 65.7586 381.689 65.6365ZM383.612 65.0947C383.535 65.2778 383.399 65.4648 383.173 65.6281C382.806 65.9193 382.345 66.1276 381.844 66.1902C381.815 66.1921 381.756 66.196 381.726 66.198C381.726 66.198 381.726 66.198 381.697 66.1999L381.781 66.135C382.241 65.8971 382.727 65.6277 383.151 65.3031C383.319 65.1437 383.514 64.9528 383.646 64.7067C383.654 64.8249 383.664 64.9726 383.612 65.0947ZM383.077 66.8808C383.289 66.9558 383.537 67.1176 383.703 67.3738C383.771 67.5176 383.813 67.693 383.761 67.815C383.724 67.6988 383.628 67.5864 383.472 67.478C383.004 67.123 382.456 66.9215 381.909 66.7201C381.787 66.6688 381.635 66.6194 381.513 66.5681C381.631 66.5603 381.842 66.6058 381.964 66.6571C382.053 66.6513 382.145 66.7046 382.175 66.7026C382.474 66.7423 382.744 66.784 383.018 66.8847L383.077 66.8808ZM382.814 67.8476C383.09 67.9779 383.328 67.9919 383.505 67.9802C383.594 67.9744 383.651 67.941 383.679 67.9095C383.639 67.7637 383.513 67.6533 383.417 67.5409C382.978 67.184 382.431 66.9826 381.883 66.7812C381.732 66.7318 381.61 66.6804 381.458 66.631C381.464 66.7196 381.56 66.8321 381.594 66.8892C381.896 67.4332 382.418 67.6956 382.784 67.8495L382.814 67.8476ZM372.77 72.1578C372.593 72.1694 372.382 72.1239 372.313 71.9801C372.311 71.9505 372.309 71.921 372.308 71.8914C373.003 71.638 373.785 71.3491 374.557 71.3578C374.587 71.3558 374.617 71.3539 374.648 71.3815C374.177 71.8873 373.483 72.1703 372.8 72.1558L372.77 72.1578ZM372.351 71.6512C372.351 71.6512 372.296 71.7141 372.3 71.7732C372.3 71.7732 372.3 71.7732 372.302 71.8028C372.881 71.5867 373.547 71.3351 374.227 71.2905C373.717 71.2053 373.181 71.1812 372.72 71.3895C372.546 71.4603 372.434 71.5567 372.351 71.6512ZM373.808 70.3387C373.647 70.1416 373.452 69.8873 373.523 69.6156C373.851 70.0985 374.208 70.5499 374.621 70.9679C374.314 70.81 374.032 70.5911 373.808 70.3387ZM373.833 69.3578C374.039 69.3442 374.256 69.4784 374.417 69.6755C374.579 69.8727 374.685 70.1328 374.761 70.3948C374.836 70.6273 374.912 70.8893 374.867 71.1001C374.867 71.1001 374.837 71.102 374.808 71.1039C374.332 70.6308 373.911 70.0946 373.517 69.527C373.517 69.527 373.543 69.4659 373.572 69.4639C373.628 69.4009 373.714 69.3656 373.805 69.3893L373.833 69.3578ZM373.922 66.6516C373.567 66.6749 373.242 66.6962 372.998 66.5935C372.697 66.5243 372.419 66.3645 372.256 66.1378C372.866 66.3944 373.526 66.4995 374.204 66.4253C374.381 66.4136 374.527 66.3744 374.641 66.3075C374.586 66.3705 374.531 66.4335 374.446 66.4984C374.304 66.5968 374.097 66.6103 373.92 66.622L373.922 66.6516ZM373.633 65.8693C373.245 65.8354 372.835 65.9217 372.339 66.0433C372.309 66.0453 372.28 66.0472 372.25 66.0492C372.86 66.3058 373.52 66.4109 374.168 66.3386C374.405 66.3231 374.548 66.2542 374.663 66.1874C374.383 65.998 374.019 65.8736 373.633 65.8693ZM373.928 64.4849L373.922 64.3962C374.129 64.3826 374.318 64.5482 374.446 64.6882C374.575 64.8577 374.914 65.4883 374.862 65.6104C374.862 65.6104 374.862 65.6104 374.774 65.6162C374.443 65.549 374.105 64.9184 373.959 64.5125L373.928 64.4849ZM380.107 60.0726C380.178 59.8008 380.332 59.4346 380.651 59.3246C380.797 59.2854 380.917 59.3071 381.039 59.3584C381.197 59.4965 381.181 59.7052 381.187 59.7939C381.178 60.1208 381.147 60.5384 380.993 60.9047C380.994 60.9342 380.967 60.9657 380.939 60.9972C381.026 60.9618 381.142 60.9245 381.229 60.8891C381.609 60.8048 381.822 60.8798 381.918 60.9922C381.981 61.0474 382.015 61.1046 382.02 61.1932C382.022 61.2227 382.024 61.2523 382.026 61.2818C382.028 61.3114 382.03 61.3409 382.003 61.3724C381.791 61.7721 381.305 62.0415 380.828 62.0135C380.651 62.0251 380.497 61.9462 380.371 61.8357C380.261 61.9617 380.148 62.0581 380.036 62.1545C379.926 62.2805 379.784 62.3788 379.673 62.5048C379.804 63.5941 379.606 64.6458 379.391 65.4315C379.341 65.5831 379.292 65.7347 379.243 65.8864C379.094 66.3412 378.915 66.7685 378.735 67.1957C379.474 66.702 380.312 66.3502 381.163 66.2053C381.163 66.2053 381.163 66.2053 381.192 66.2033C381.177 65.967 381.252 65.7544 381.384 65.5083C381.542 65.2011 381.761 64.9196 381.954 64.6992C382.175 64.4473 382.425 64.1934 382.745 64.0834C383.091 63.9419 383.452 64.0073 383.702 64.1986C383.702 64.1986 383.731 64.1967 383.733 64.2262C383.733 64.2262 383.767 64.2833 383.796 64.2814C383.989 64.5061 384.042 64.8587 383.915 65.1935C383.813 65.4376 383.649 65.6561 383.367 65.8824C383.085 66.1086 382.74 66.2796 382.421 66.3896C382.691 66.4313 382.961 66.4729 383.205 66.5756C383.449 66.6782 383.788 66.8637 383.987 67.1771C384.118 67.3762 384.163 67.6106 384.088 67.8233C384.065 67.9138 384.011 68.0064 383.928 68.1008C383.844 68.1657 383.729 68.2326 383.584 68.2718C383.261 68.3227 382.928 68.2259 382.713 68.1213C382.286 67.9416 381.731 67.6221 381.367 67.0525C381.267 66.881 381.164 66.68 381.182 66.5008C380.213 66.6535 379.234 67.1037 378.504 67.7451C378.066 68.7532 377.61 69.9405 377.34 71.7091C377.364 71.6185 377.419 71.5555 377.443 71.4649C377.599 71.1282 377.759 70.8506 377.95 70.6007C378.307 70.1617 378.792 69.8628 379.277 69.5638C379.562 69.3967 379.876 69.1981 380.158 68.9718C380.215 68.9384 380.303 68.9325 380.364 68.9582C380.427 69.0134 380.431 69.0725 380.435 69.1316C380.311 69.4959 380.22 69.9174 380.127 70.3093C380.056 70.581 380.014 70.8508 379.913 71.1245C379.795 71.5774 379.617 72.0342 379.347 72.4377C379.156 72.6877 378.935 72.9396 378.68 73.1344C378.568 73.2308 378.398 73.3607 378.223 73.4019C378.077 73.4412 377.583 73.5924 377.278 73.464C377.271 73.8205 377.267 74.2066 377.292 74.5907C377.3 74.7089 377.339 74.8547 377.318 74.9748C377.318 74.9748 377.319 75.0044 377.321 75.0339C377.413 76.4227 377.717 77.8865 378.624 79.0436C378.626 79.0731 378.659 79.1302 378.633 79.1913C378.635 79.2208 378.608 79.2523 378.58 79.2838C378.495 79.3487 378.403 79.2955 378.34 79.2403C377.494 78.1088 377.139 76.7671 377.022 75.4394C376.825 75.6008 376.503 75.6812 376.119 75.7064C375.41 75.753 374.75 75.648 374.168 75.3598C373.524 75.0461 373.014 74.5158 372.508 74.0445C372.477 74.0169 372.443 73.9597 372.469 73.8987C372.465 73.8396 372.522 73.8062 372.55 73.7747C373.328 73.4268 374.457 72.9965 375.604 73.2773C375.966 73.3722 376.334 73.5557 376.645 73.7727C376.74 73.8555 376.864 73.9364 376.93 74.0507C376.915 73.8143 376.929 73.5759 376.943 73.3376C376.949 72.9811 376.983 72.5931 376.989 72.2366L376.96 72.2385C376.345 71.9228 375.676 71.6701 374.981 71.4784C374.456 72.0767 373.621 72.458 372.817 72.4218C372.463 72.4451 372.217 72.3129 372.085 72.1138C371.953 71.9147 371.965 71.6468 372.129 71.4284C372.237 71.2728 372.407 71.143 372.637 71.0388C373.071 70.862 373.544 70.8309 373.993 70.8905C373.867 70.78 373.741 70.6696 373.613 70.5296C373.324 70.1925 373.182 69.8457 373.249 69.5149C373.269 69.3652 373.322 69.2727 373.405 69.1782C373.516 69.0523 373.691 69.011 373.868 68.9994C374.164 68.9799 374.502 69.1655 374.729 69.4473C374.923 69.7016 375.03 69.9617 375.138 70.2514C375.246 70.541 375.328 70.8917 375.2 71.1969C375.834 71.363 376.413 71.592 376.996 71.8801C377.028 71.0174 377.058 70.1251 377.031 69.2663C377.031 69.2663 377.002 69.2683 376.974 69.2997C376.862 69.3962 376.655 69.4097 376.387 69.3977C376.358 69.3996 376.299 69.4035 376.269 69.4054C376.003 69.4229 375.735 69.4108 375.519 69.2767C375.334 69.1701 375.204 69.0006 375.074 68.8311C375.072 68.8016 375.039 68.7444 375.064 68.6834C375.06 68.6243 375.117 68.5909 375.147 68.5889L375.492 68.4178C375.492 68.4178 375.722 68.3137 375.868 68.2745C376.016 68.2648 376.164 68.255 376.347 68.332C376.347 68.332 376.772 68.4821 376.996 68.7345C376.963 68.2321 376.873 67.7633 376.754 67.2964C376.746 67.1782 376.677 67.0343 376.64 66.918C376.64 66.918 376.64 66.9181 376.61 66.92C376.067 66.7777 375.519 66.5762 374.999 66.3433C374.95 66.4949 374.812 66.6524 374.641 66.7527C374.441 66.8844 374.205 66.8999 373.971 66.945C373.557 66.9722 373.23 66.9641 372.929 66.8949C372.537 66.8019 372.226 66.5849 372.002 66.3326C371.939 66.2773 371.901 66.1612 371.894 66.043C371.886 65.9248 371.967 65.8008 372.258 65.7222C372.812 65.5672 373.255 65.538 373.671 65.5404C373.848 65.5287 374.059 65.5742 374.301 65.6473C373.89 65.2589 373.668 64.5909 373.666 64.5614C373.593 64.3584 373.64 64.1773 373.755 64.1104C373.812 64.077 373.901 64.0711 373.93 64.0692C374.196 64.0517 374.472 64.1821 374.698 64.4639C374.761 64.5191 375.286 65.2858 375.164 65.6796C375.164 65.6796 375.167 65.7387 375.14 65.7702C375.114 65.8313 375.031 65.9257 374.852 65.9079C374.915 65.9631 374.976 65.9887 375.039 66.0439C375.5 66.2807 375.986 66.4565 376.471 66.6027C376.034 65.385 375.368 64.2715 374.677 63.2486C374.681 63.3077 374.624 63.3411 374.596 63.3725C374.372 63.5654 373.921 63.4763 373.499 63.3853L373.44 63.3892C372.897 63.2469 372.436 63.0101 372.117 62.675C371.991 62.5645 371.895 62.4522 371.797 62.3102C371.732 62.2255 371.667 62.1407 371.604 62.0855C371.57 62.0283 371.537 61.9712 371.592 61.9082C371.588 61.8491 371.675 61.8137 371.734 61.8098C372.354 61.7691 373.123 61.7186 373.766 62.0323C373.889 62.0837 374.015 62.1941 374.17 62.3026C374.03 61.9853 373.98 61.6623 374.017 61.3334C374.051 60.9454 374.203 60.5496 374.472 60.1165C374.578 59.9315 374.751 59.8607 374.905 59.9396C374.966 59.9653 374.999 60.0225 375.031 60.0501C375.267 60.4797 375.333 61.0391 375.144 61.7638C375.147 61.8229 375.122 61.8839 375.096 61.945C375.072 62.0355 375.049 62.1262 374.995 62.2187C374.863 62.4648 374.753 62.5907 374.698 62.6537C374.995 63.109 375.325 63.6215 375.624 64.1063C375.612 63.929 375.656 63.6887 375.727 63.417C375.846 62.964 376.059 62.5939 376.333 62.2495C376.637 61.9031 376.952 61.734 377.275 61.6831C377.334 61.6792 377.393 61.6754 377.429 61.7621C377.43 61.7916 377.464 61.8487 377.438 61.9098C377.308 62.1854 377.264 62.4257 377.195 62.727C377.146 62.8786 377.098 63.0597 377.049 63.2114C376.926 63.6052 376.634 64.1289 376.144 64.3392C375.97 64.41 375.821 64.3901 375.726 64.3073C376.263 65.2513 376.743 66.2288 377.02 67.2789C377.257 68.1832 377.315 69.0696 377.346 69.9875C377.629 68.8709 377.99 68.046 378.325 67.2821C378.558 66.7623 378.766 66.3035 378.937 65.7581C378.989 65.636 379.038 65.4843 379.058 65.3347C379.058 65.3347 379.06 65.3642 379.03 65.3662C378.668 65.7165 377.847 64.9691 377.845 64.9396C377.686 64.772 377.524 64.5749 377.394 64.4053C377.267 64.2654 377.168 64.1235 377.04 63.9835C377.007 63.9264 376.974 63.8692 377.029 63.8062C377.054 63.7452 377.141 63.7098 377.2 63.7059C377.62 63.7674 378.218 63.8468 378.602 64.2667C378.602 64.2667 379.114 64.8265 379.135 65.1516C379.441 63.9444 379.654 62.2093 378.852 60.8376C378.822 60.8396 378.792 60.8415 378.733 60.8454C378.554 60.8275 378.408 60.8668 378.201 60.8804C378.054 60.8901 377.906 60.8998 377.758 60.9095C377.045 60.897 376.394 60.465 376.176 59.8561C376.172 59.797 376.136 59.7104 376.16 59.6198C376.154 59.5311 376.235 59.4071 376.499 59.36C376.968 59.2699 377.478 59.3551 377.939 59.5919C378.185 59.7241 378.433 59.8859 378.655 60.1087C378.813 60.2467 378.909 60.3591 378.976 60.4734C378.976 60.4734 378.976 60.4733 379.007 60.5009C379.338 61.0133 379.552 61.5631 379.648 62.1206C379.703 62.0576 379.788 61.9927 379.843 61.9297C379.956 61.8333 380.066 61.7074 380.178 61.6109C379.909 61.1242 380.069 60.4015 380.138 60.1002L380.107 60.0726ZM379.114 58.5057C379.114 58.5057 378.588 59.9944 378.911 60.3886C379.007 60.501 379.129 60.5523 379.275 60.513C379.569 60.464 379.717 60.0092 379.867 59.5839L379.863 59.5247C379.863 59.5247 379.94 59.3416 379.964 59.2511C380.035 58.9793 380.104 58.678 380.148 58.4378C380.241 58.0459 380.056 57.9393 379.963 57.8861C379.873 57.8623 379.754 57.8701 379.638 57.9074C379.437 58.0097 379.242 58.2005 379.112 58.4762L379.114 58.5057Z" fill="#D1636E"/>
<path fill-rule="evenodd" clip-rule="evenodd" d="M370.704 38.9397C371.127 39.0602 371.34 39.5804 371.188 39.9762C371.01 40.433 370.509 40.4956 370.066 40.5247C369.976 40.501 369.883 40.4477 369.791 40.3945C369.539 40.1736 369.515 39.819 369.614 39.5157C369.762 39.0609 370.22 38.7935 370.674 38.9416L370.704 38.9397ZM370.96 45.5404C371.383 45.661 371.595 46.1812 371.443 46.577C371.266 47.0338 370.765 47.0964 370.322 47.1255C370.231 47.1018 370.139 47.0484 370.046 46.9952C369.794 46.7743 369.771 46.4198 369.87 46.1166C370.018 45.6617 370.475 45.3942 370.96 45.5404ZM366.091 59.511C365.913 59.9678 365.413 60.0304 364.97 60.0595C364.879 60.0358 364.787 59.9826 364.694 59.9293C364.442 59.7085 364.419 59.3538 364.518 59.0506C364.666 58.5957 365.123 58.3283 365.578 58.4765C366.001 58.597 366.214 59.1172 366.062 59.513L366.091 59.511ZM370.309 52.3491C370.132 52.8059 369.631 52.8685 369.188 52.8976C369.097 52.8739 369.005 52.8207 368.912 52.7674C368.66 52.5466 368.637 52.1919 368.736 51.8887C368.884 51.4338 369.341 51.1664 369.796 51.3146C370.219 51.4351 370.432 51.9553 370.28 52.3511L370.309 52.3491ZM368.474 57.8409C368.898 57.9615 369.11 58.4817 368.958 58.8775C368.78 59.3343 368.28 59.3969 367.837 59.426C367.746 59.4023 367.653 59.349 367.561 59.2957C367.309 59.0749 367.286 58.7203 367.384 58.4171C367.481 58.0843 367.763 57.858 368.086 57.8071C368.116 57.8052 368.145 57.8032 368.204 57.7994C368.293 57.7935 368.382 57.7877 368.474 57.8409ZM365.051 55.4249C364.873 55.8817 364.373 55.9442 363.93 55.9734C363.839 55.9496 363.747 55.8963 363.654 55.843C363.402 55.6222 363.379 55.2677 363.478 54.9644C363.626 54.5096 364.083 54.2421 364.538 54.3902C364.961 54.5108 365.174 55.031 365.022 55.4268L365.051 55.4249ZM364.715 48.503C364.537 48.9598 364.037 49.0223 363.594 49.0515C363.503 49.0277 363.41 48.9744 363.318 48.9211C363.066 48.7003 363.043 48.3458 363.142 48.0425C363.29 47.5877 363.747 47.3202 364.202 47.4683C364.625 47.5889 364.837 48.1091 364.685 48.5049L364.715 48.503ZM364.36 42.2054C364.183 42.6622 363.682 42.7248 363.239 42.7539C363.148 42.7302 363.056 42.6769 362.963 42.6236C362.711 42.4028 362.688 42.0482 362.787 41.745C362.935 41.2901 363.392 41.0226 363.847 41.1708C364.271 41.2913 364.483 41.8116 364.331 42.2073L364.36 42.2054ZM364.846 30.1846C365.137 30.9964 365.457 31.8063 365.689 32.622C365.834 33.473 365.979 34.3241 366.092 35.1476C364.952 36.7656 364.011 38.697 363.755 40.6724C363.038 40.6008 362.39 41.1182 362.409 41.8589C362.438 42.3021 362.642 42.7041 362.983 42.9191C363.012 42.9172 363.044 42.9448 363.075 42.9724C363.105 42.9705 363.136 42.998 363.197 43.0237C363.804 43.2213 364.527 42.9364 364.752 42.2984C364.977 41.6604 364.667 40.9983 364.056 40.7416C364.625 39.0127 365.232 37.4001 366.2 35.8824C366.488 38.0001 366.687 40.1237 366.767 42.255C365.549 43.5814 364.556 45.1897 364.198 46.9641C364.198 46.9641 364.198 46.9641 364.169 46.9661C363.45 46.8649 362.742 47.3862 362.763 48.1564C362.792 48.5996 362.997 49.0016 363.337 49.2166C363.367 49.2147 363.398 49.2423 363.43 49.2699C363.459 49.2679 363.491 49.2956 363.552 49.3213C364.159 49.5188 364.882 49.2339 365.107 48.5959C365.304 47.9894 365.025 47.3549 364.504 47.0924C365.086 45.5704 365.769 44.2198 366.786 42.9956C366.831 43.6752 366.817 44.3586 366.8 45.0126C366.793 46.2594 366.727 47.5101 366.629 48.7332C365.45 50.2055 364.59 52.0129 364.507 53.9175C364.507 53.9175 364.477 53.9195 364.448 53.9214C363.729 53.8203 363.021 54.3416 363.042 55.1118C363.071 55.555 363.276 55.957 363.616 56.172C363.646 56.1701 363.677 56.1976 363.709 56.2252C363.739 56.2233 363.77 56.251 363.831 56.2766C364.438 56.4742 365.161 56.1892 365.386 55.5512C365.613 54.9428 365.3 54.2511 364.721 54.0221C365.06 52.3974 365.585 50.9088 366.536 49.5703C366.277 52.4064 365.867 55.1931 365.431 58.0409C364.714 57.9694 364.065 58.4869 364.084 59.2275C364.113 59.6707 364.318 60.0727 364.658 60.2877C364.688 60.2858 364.719 60.3134 364.751 60.341C364.781 60.339 364.812 60.3666 364.873 60.3923C365.48 60.5898 366.203 60.3049 366.428 59.6669C366.653 59.029 366.341 58.3373 365.703 58.1121C366.066 56.8715 366.337 55.5777 366.549 54.2877C367.033 55.3243 367.455 56.3351 367.825 57.4385C367.298 57.5621 366.912 58.003 366.921 58.5958C366.95 59.0391 367.155 59.4412 367.495 59.6562C367.525 59.6542 367.556 59.6818 367.588 59.7094C367.618 59.7075 367.649 59.735 367.71 59.7607C368.317 59.9583 369.04 59.6733 369.265 59.0354C369.516 58.3364 369.048 57.5362 368.297 57.4074C368.209 57.4133 368.15 57.4172 368.061 57.423C367.796 56.105 367.321 54.7415 366.652 53.5984C367.007 51.3198 367.153 49.0253 367.212 46.766C368.186 48.0374 368.866 49.3578 369.353 50.8986C368.733 50.9393 368.232 51.4471 368.245 52.0991C368.274 52.5423 368.479 52.9443 368.819 53.1593C368.819 53.1593 368.88 53.1849 368.912 53.2125C368.941 53.2106 368.973 53.2382 369.034 53.2638C369.64 53.4614 370.364 53.1765 370.589 52.5385C370.84 51.8395 370.371 51.0393 369.621 50.9106C369.621 50.9106 369.562 50.9145 369.532 50.9164C369.298 49.1513 368.435 47.3089 367.193 46.0254C367.172 45.7004 367.208 45.3419 367.216 45.015C367.233 43.4707 367.189 41.9008 367.086 40.3347C368.456 41.7582 369.337 43.4214 370.166 45.2068C369.701 45.356 369.344 45.795 369.35 46.3288C369.379 46.772 369.583 47.174 369.924 47.389C369.953 47.3871 369.985 47.4146 370.016 47.4423C370.046 47.4403 370.077 47.468 370.138 47.4936C370.745 47.6912 371.468 47.4063 371.693 46.7683C371.944 46.0693 371.506 45.2672 370.726 45.1404C370.637 45.1462 370.519 45.154 370.43 45.1598C369.904 43.0281 368.531 41.1004 366.979 39.5999C366.88 38.093 366.694 36.6215 366.449 35.1538C366.437 34.9766 366.428 34.8288 366.416 34.6515C368.022 35.6142 369.057 36.9113 369.794 38.6434C369.361 38.8203 369.031 39.2276 369.066 39.7595C369.095 40.2027 369.3 40.6047 369.641 40.8197C369.67 40.8178 369.702 40.8455 369.733 40.8731C369.763 40.8711 369.794 40.8987 369.855 40.9244C370.462 41.1219 371.185 40.837 371.41 40.199C371.659 39.4705 371.193 38.6998 370.442 38.5711C370.324 38.5789 370.234 38.5551 370.117 38.5925C369.636 36.6952 368.123 34.8954 366.32 34.094C366.138 32.6815 365.718 31.255 365.138 30.1061C364.967 29.7613 364.447 29.9735 364.59 30.3499L364.846 30.1846Z" fill="#D1636E"/>
<path fill-rule="evenodd" clip-rule="evenodd" d="M352.141 52.2366C352.568 51.9711 353.026 51.7037 353.294 51.2706C353.562 50.8375 353.521 50.217 353.252 49.7303C353.583 49.3524 353.915 48.9745 354.246 48.5966C354.082 50.6253 354.01 52.6776 354.055 54.7222C353.696 55.1316 353.371 55.5982 353.043 56.0351C353.01 55.978 352.949 55.9523 352.915 55.8951C352.384 55.4849 351.548 55.8663 351.193 56.3348C350.783 56.8662 350.651 57.5574 350.514 58.1895C350.32 59.3003 350.094 60.3834 349.9 61.4942C350.272 60.3718 351.098 59.3975 352.123 58.7367C352.551 58.4712 353.008 58.2038 353.276 57.7707C353.517 57.3691 353.507 56.7762 353.269 56.317C353.546 56.0021 353.82 55.6577 354.066 55.3448C354.123 57.5666 354.3 59.8103 354.564 62.0186C354.203 62.8435 353.84 63.639 353.449 64.4659C352.868 64.2074 352.161 64.7286 351.898 65.2503C351.58 65.835 351.568 66.5481 351.581 67.2C351.566 68.3287 351.581 69.4554 351.564 70.5545C351.752 69.3551 352.393 68.2744 353.259 67.4459C353.622 67.0957 354.046 66.771 354.223 66.3142C354.427 65.7964 354.234 65.1265 353.821 64.7086C354.135 64.0648 354.417 63.3934 354.67 62.7239C354.732 63.2243 354.825 63.7226 354.887 64.223C355.089 65.4858 355.32 66.7466 355.61 68.0036C354.937 68.1369 354.697 69.0132 354.795 69.6002C354.899 70.2759 355.322 70.8416 355.743 71.3778C356.426 72.2825 357.108 73.1874 357.821 74.0902C357.217 73.0318 357.074 71.7651 357.262 70.5658C357.348 70.0557 357.462 69.5436 357.341 69.0472C357.186 68.4935 356.564 68.0597 355.967 68.0099C355.749 66.9559 355.561 65.8999 355.403 64.842C355.562 65.0096 355.721 65.1771 355.881 65.3447C355.679 65.8921 355.815 66.5955 356.226 66.9839C356.606 67.3447 357.118 67.4594 357.602 67.6056C358.754 67.975 359.811 68.7068 360.5 69.7002C359.986 68.6656 359.505 67.6586 358.992 66.624C358.685 66.021 358.376 65.3884 357.845 64.9782C357.376 64.6232 356.506 64.4728 356.092 64.9451C355.838 64.6947 355.557 64.4758 355.303 64.2254C354.997 62.2869 354.81 60.3406 354.652 58.3924C354.819 58.6782 355.018 58.9915 355.244 59.2734C355.013 59.8227 355.091 60.5595 355.505 60.9775C355.855 61.3403 356.396 61.4531 356.883 61.6288C358.037 62.0278 359.064 62.7615 359.725 63.7864C359.242 62.7499 358.787 61.7113 358.304 60.6748C358.027 60.0699 357.716 59.4077 357.185 58.9975C356.748 58.6702 355.962 58.4548 355.485 58.8719C355.158 58.4185 354.861 57.9632 354.562 57.4784C354.5 56.5328 354.466 55.5558 354.463 54.6064C354.459 54.5473 354.457 54.5178 354.453 54.4587C354.44 53.3616 354.457 52.2624 354.503 51.1614C354.7 51.4452 354.928 51.7567 355.125 52.0405C354.744 52.57 354.74 53.4013 355.157 53.8783C355.479 54.2726 355.995 54.4463 356.454 54.6536C357.557 55.1746 358.531 56.0009 359.077 57.0926L357.975 53.8711C357.755 53.2327 357.504 52.5667 357.028 52.0936C356.648 51.7327 355.919 51.4838 355.433 51.7532C355.139 51.357 354.817 50.9627 354.526 50.5961C354.564 49.822 354.631 49.046 354.699 48.27C354.763 47.4349 354.884 46.5665 354.977 45.7294C355.176 46.0428 355.377 46.3857 355.605 46.6971C355.134 47.2029 355.107 48.1543 355.526 48.6609C355.849 49.0551 356.365 49.2289 356.823 49.4361C357.926 49.9572 358.9 50.7834 359.447 51.8752C359.079 50.8013 358.712 49.7275 358.345 48.6537C358.125 48.0153 357.873 47.3493 357.397 46.8761C357.049 46.5429 356.411 46.3177 355.946 46.467C355.651 46.0412 355.383 45.584 355.088 45.1583C355.251 44.02 355.445 42.9092 355.639 41.7985C355.681 41.5287 355.287 41.4061 355.245 41.6759C354.818 43.7516 354.508 45.8195 354.292 47.9407C353.848 48.415 353.405 48.8893 352.961 49.3636C352.961 49.3636 352.929 49.336 352.898 49.3083C352.366 48.8981 351.531 49.2795 351.176 49.748C350.766 50.2794 350.633 50.9706 350.497 51.6028C350.303 52.7135 350.077 53.7967 349.883 54.9074C350.254 53.785 351.08 52.8108 352.105 52.1499L352.141 52.2366Z" fill="#D1636E"/>
<path fill-rule="evenodd" clip-rule="evenodd" d="M376.812 23.5228C376.918 24.6732 377.143 25.8453 377.4 27.0451C377.398 27.0156 377.455 26.9821 377.512 26.9487C378.121 26.7306 378.808 26.8042 379.336 27.1553C379.647 27.3723 380.249 27.9559 380.101 28.4108C379.927 28.9267 379.023 28.719 378.663 28.6536C378.303 28.5883 377.968 28.4619 377.688 28.2726C377.969 29.3818 378.281 30.5186 378.593 31.6554C378.593 31.6554 378.619 31.5943 378.678 31.5905C379.161 31.262 379.746 31.1345 380.319 31.2749C380.74 31.3659 381.599 31.7843 381.575 32.32C381.551 32.8557 380.635 32.916 380.28 32.9393C379.778 32.9723 379.329 32.9128 378.929 32.7016C379.243 33.868 379.585 35.0029 379.899 36.1693C379.899 36.1693 379.928 36.1673 379.958 36.1654C380.598 35.9749 381.238 36.2296 381.738 36.6122C382.051 36.8587 382.61 37.2374 382.222 37.6487C381.89 38.0266 381.177 38.0142 380.726 37.9251C380.545 37.8777 380.394 37.8282 380.24 37.7493C380.524 38.9176 380.75 40.0898 380.914 41.2364C382.029 41.4895 382.775 42.4495 382.878 43.5703C382.884 43.659 382.828 43.7219 382.771 43.7554C382.08 44.0679 381.521 43.6892 381.127 43.1215C381.199 44.2148 381.21 45.2824 381.13 46.3263C381.13 46.3263 381.16 46.3244 381.189 46.3224C382.256 46.7568 382.762 47.6731 382.834 48.7664C382.839 48.855 382.786 48.9476 382.699 48.983C382.179 49.1952 381.722 49.0175 381.341 48.6272C381.181 48.4596 381.02 48.2624 380.888 48.0634C380.69 49.115 380.372 50.1448 379.904 51.1549C380.666 51.906 380.765 52.9678 380.473 53.9367C380.451 54.0568 380.337 54.1236 380.217 54.1019C379.653 54.1092 379.27 53.6893 379.089 53.1967C379.052 53.0805 379.014 52.9642 378.977 52.848C378.87 53.033 378.762 53.1885 378.655 53.3736C378.909 54.0691 379.02 54.863 378.89 55.5838C378.801 56.0348 378.499 56.8559 377.908 56.4496C377.504 56.1794 377.373 55.5351 377.372 55.0604C377.353 54.3198 377.696 53.6741 378.258 53.192C378.445 52.883 378.664 52.6015 378.822 52.2944C378.505 52.4339 378.156 52.5459 377.801 52.5692C377.476 52.5905 376.712 52.7001 376.624 52.2608C376.498 51.7052 377.289 51.0894 377.693 50.9145C378.27 50.6688 378.926 50.7147 379.505 50.9438C379.919 50.0263 380.212 49.0574 380.415 48.0944C380.163 48.3187 379.877 48.4859 379.56 48.6255C379.243 48.765 378.723 48.9772 378.603 48.5103C378.479 47.9843 378.793 47.3405 379.126 46.9922C379.544 46.5789 380.094 46.3647 380.687 46.3555C380.771 45.3707 380.795 44.3897 380.731 43.4146C380.474 44.025 380.035 44.5584 379.453 44.745C379.365 44.7508 379.306 44.7547 379.241 44.67C378.827 44.252 378.807 43.4818 378.951 42.9678C379.172 42.2707 379.732 41.7591 380.396 41.4781C380.455 41.4742 380.485 41.4723 380.544 41.4684C380.374 40.2332 380.113 38.9743 379.822 37.7173C379.747 38.3752 379.311 38.9676 378.649 39.2782C378.533 39.3155 378.383 39.2958 378.346 39.1795C378.135 38.6889 377.982 38.1647 378.245 37.643C378.507 37.1213 379.024 36.85 379.51 36.5806C379.232 35.5009 378.923 34.4231 378.615 33.3454C378.445 33.9204 378.063 34.4204 377.489 34.7251C377.402 34.7605 377.282 34.7387 377.219 34.6835C376.93 34.3464 376.919 33.724 377.012 33.3321C377.119 32.7019 377.629 32.3419 378.173 32.0391C378.173 32.0391 378.203 32.0372 378.232 32.0352C377.881 30.7526 377.502 29.5014 377.212 28.2445C376.963 28.973 376.344 29.4886 375.585 29.6868C375.497 29.6926 375.376 29.6708 375.341 29.5841C375.135 29.1525 375.299 28.4889 375.541 28.1169C375.835 27.6228 376.387 27.4381 376.941 27.283C376.941 27.283 376.97 27.2811 377 27.2792C376.711 26.0517 376.512 24.8185 376.373 23.6109C376.354 23.3155 376.793 23.2273 376.812 23.5228Z" fill="#D1636E"/>
<path fill-rule="evenodd" clip-rule="evenodd" d="M364.567 67.4756C365.593 67.2894 367.054 67.8463 368.052 68.1368C368.147 68.2196 368.291 68.1508 368.315 68.0602C368.315 68.0602 368.315 68.0602 368.311 68.0011C368.225 66.701 368.053 65.4363 367.879 64.142C368.174 64.1226 368.486 63.8944 368.587 63.6207C368.739 63.2249 368.53 62.7638 368.19 62.5488C368.066 62.468 367.975 62.4442 367.739 62.4597C367.384 62.483 367.043 62.7132 366.95 63.1051C366.859 63.5265 367.097 63.9857 367.521 64.1063C367.521 64.1063 367.55 64.1043 367.58 64.1024C367.687 64.8372 367.795 65.572 367.873 66.3088C367.894 66.6338 368.006 66.9825 367.969 67.3114C367.973 67.3705 367.976 67.4296 367.98 67.4887C367.363 66.6687 366.69 65.9117 365.93 65.1901C365.985 65.1271 366.011 65.066 366.037 65.005C366.163 64.6703 366.049 64.2919 365.795 64.0415C365.575 63.8483 365.305 63.8067 365.043 63.8833C364.751 63.9618 364.499 64.1861 364.432 64.5169C364.341 64.9384 364.578 65.3976 365.002 65.5181C365.244 65.5912 365.538 65.5423 365.735 65.3809C366.494 66.1026 367.199 66.8872 367.817 67.7072C367.728 67.713 367.606 67.6617 367.425 67.6142C366.55 67.4046 365.424 66.9742 364.486 67.1545C364.453 67.0973 364.417 67.0106 364.354 66.9554C364.29 66.8706 364.227 66.8154 364.134 66.7621C364.134 66.7621 364.042 66.7089 363.953 66.7147C363.894 66.7186 363.805 66.7244 363.776 66.7264C363.657 66.7341 363.569 66.74 363.453 66.7773C363.19 66.8539 362.968 67.0763 362.898 67.3776C362.807 67.799 363.045 68.2581 363.469 68.3787C363.892 68.4992 364.351 68.2613 364.503 67.8656C364.555 67.7435 364.575 67.5938 364.535 67.448L364.567 67.4756Z" fill="#D1636E"/>
<path fill-rule="evenodd" clip-rule="evenodd" d="M361.095 81.0275C361.479 81.0022 361.755 80.6873 361.73 80.3032C361.705 79.9191 361.39 79.643 361.006 79.6682C360.622 79.6935 360.346 80.0084 360.371 80.3925C360.396 80.7766 360.711 81.0527 361.095 81.0275Z" fill="#D1636E"/>
<path fill-rule="evenodd" clip-rule="evenodd" d="M360.785 46.0606C361.169 46.0353 361.445 45.7204 361.42 45.3363C361.394 44.9522 361.079 44.6762 360.695 44.7014C360.311 44.7267 360.035 45.0415 360.06 45.4256C360.086 45.8098 360.4 46.0858 360.785 46.0606Z" fill="#D1636E"/>
<path fill-rule="evenodd" clip-rule="evenodd" d="M363.122 79.3809C363.507 79.3557 363.783 79.0407 363.757 78.6566C363.732 78.2725 363.417 77.9965 363.033 78.0217C362.649 78.047 362.373 78.3618 362.398 78.7459C362.423 79.1301 362.738 79.4062 363.122 79.3809Z" fill="#D1636E"/>
<path fill-rule="evenodd" clip-rule="evenodd" d="M373.724 55.0918C374.108 55.0666 374.384 54.7518 374.359 54.3676C374.334 53.9835 374.019 53.7074 373.635 53.7327C373.251 53.7579 372.974 54.0729 373 54.457C373.025 54.8411 373.34 55.1171 373.724 55.0918Z" fill="#D1636E"/>
<path fill-rule="evenodd" clip-rule="evenodd" d="M363.113 81.4581C363.497 81.4329 363.773 81.118 363.748 80.7339C363.722 80.3497 363.407 80.0736 363.023 80.0989C362.639 80.1241 362.363 80.4391 362.388 80.8232C362.414 81.2073 362.729 81.4834 363.113 81.4581Z" fill="#D1636E"/>
</g>
<path fill-rule="evenodd" clip-rule="evenodd" d="M340.623 186.64C340.851 186.63 340.843 184.192 341.907 182.804C343.709 180.421 350.122 182.627 347.147 186.553C346.3 187.667 345.099 188.531 345.156 188.528C345.768 188.325 346.401 188.191 347.043 188.127C352.301 187.791 351.666 196.629 345.415 194.644C344.412 194.327 344.621 194.318 345.133 195.166C345.398 195.59 345.781 196.084 346.126 196.599C346.449 197.11 346.566 197.724 346.453 198.318C346.341 198.911 346.007 199.441 345.519 199.801C344.022 200.867 341.261 200.832 340.554 198.952C340.276 198.157 340.082 197.335 339.974 196.5C339.457 193.27 340.995 200.844 335.727 200.934C333.523 201.027 331.733 199.212 334.155 196.179C334.507 195.733 334.89 195.313 335.301 194.92C335.832 194.425 335.847 194.33 335.134 194.568C334.179 194.955 333.132 195.058 332.12 194.866C330.769 194.431 329.909 191.178 330.691 189.424C331.826 187.012 334.123 187.766 335.568 188.178C337.013 188.589 337.482 188.437 335.886 187.597C335.344 187.323 334.828 187.003 334.342 186.641C330.406 183.593 337.464 178.567 339.653 183.958C340.184 185.278 340.392 186.593 340.544 186.587L340.623 186.64ZM339.23 188.817C338.606 189.354 339.603 189.973 340.161 189.666C340.719 189.359 340.09 188.005 339.23 188.817ZM342.352 189.725C341.698 188.656 341.071 188.247 340.756 189.792C340.551 190.803 340.534 192.203 341.862 191.636C342.033 191.555 342.183 191.437 342.304 191.292C342.424 191.146 342.51 190.976 342.557 190.794C342.604 190.612 342.61 190.422 342.574 190.237C342.539 190.052 342.463 189.877 342.352 189.725ZM338.666 190.334C337.362 190.995 337.777 192.263 338.841 192.218C341.178 192.119 340.213 189.55 338.666 190.334ZM339.86 192.458C338.149 193.401 339.927 194.044 341.458 193.336C342.989 192.629 341.437 191.484 339.855 192.345L339.86 192.458Z" fill="#5EAD41"/>
</g>
</g>
<defs>
<clipPath id="clip0_407_4853">
<rect width="375" height="311" fill="white"/>
</clipPath>
<clipPath id="clip1_407_4853">
<rect width="375" height="3577" fill="white" transform="translate(0 -31)"/>
</clipPath>
</defs>
</svg>
