<svg viewBox="0 0 1440 700" fill="none" xmlns="http://www.w3.org/2000/svg">
<g clip-path="url(#clip0_410_4853)">
<g clip-path="url(#clip1_410_4853)">
<path fill-rule="evenodd" clip-rule="evenodd" d="M104.257 -20.6472C106.143 -20.6288 108.562 -20.1968 109.116 -17.9552C109.236 -17.2074 109.121 -16.4407 108.787 -15.761C108.453 -15.0813 107.916 -14.5223 107.251 -14.1608C105.696 -13.4953 104.01 -13.1933 102.32 -13.2777C97.492 -13.2708 92.6915 -14.0072 88.0874 -15.4612C84.1322 -16.7644 80.3766 -18.6091 76.9278 -20.943C77.9168 -15.4207 79.2106 -9.90198 80.455 -4.37449C89.4951 -3.90713 98.7891 -2.87461 107.354 -2.22034C109.217 -2.04517 111.523 -1.38963 111.79 0.954277C111.846 1.69706 111.667 2.43879 111.278 3.07442C110.89 3.71004 110.312 4.20747 109.626 4.49695C108.178 5.02888 106.628 5.21958 105.094 5.05409C100.523 4.77903 96.0115 3.87462 91.6874 2.36644C87.7345 0.973048 83.9754 -0.918832 80.5013 -3.2634C81.2607 0.97697 82.4234 5.19614 83.4294 9.39235C92.6591 11.6871 102.058 13.2369 111.536 14.0271C113.498 14.1846 115.992 14.7558 116.358 17.0821C116.435 17.846 116.263 18.6142 115.867 19.2721C115.471 19.93 114.873 20.4424 114.162 20.7323C112.553 21.2581 110.853 21.4413 109.169 21.2702C104.1 20.9075 99.1299 19.6804 94.4741 17.6425C90.6081 15.9265 87.0129 13.6563 83.8018 10.9032C84.9807 15.7809 86.2089 20.6497 87.5357 25.5009C96.4958 28.0951 105.736 29.601 115.056 29.9863C116.951 30.054 119.378 30.5355 119.883 32.7859C120.021 33.5362 119.908 34.3112 119.56 34.9902C119.212 35.6693 118.65 36.214 117.96 36.5398C116.401 37.1922 114.717 37.4937 113.029 37.4228C107.976 37.2304 103.005 36.0832 98.3781 34.042C94.5815 32.3387 91.0898 30.0243 88.042 27.1912C89.2135 31.4595 90.3852 35.7279 91.6553 39.9786C91.6844 40.2951 91.7405 40.6085 91.8231 40.9154C101.914 43.4843 112.132 45.527 122.435 47.0353C124.571 47.3143 127.208 48.1143 127.466 50.4089C127.476 51.1904 127.228 51.9533 126.761 52.5796C126.293 53.206 125.633 53.6608 124.881 53.8742C123.134 54.3303 121.312 54.4142 119.531 54.1202C114.223 53.4158 109.051 51.9236 104.184 49.6934C99.8336 47.7009 95.7764 45.1232 92.1248 42.0317C93.4008 46.3153 94.7291 50.6063 96.1097 54.9051C100.406 56.7309 104.783 58.4405 109.215 59.8858C114.252 61.5427 119.387 62.8835 124.59 63.9004C126.646 64.2957 129.201 65.2119 129.361 67.5242C129.355 68.3093 129.085 69.0696 128.595 69.6833C128.105 70.297 127.424 70.7285 126.659 70.9087C124.868 71.2491 123.025 71.2151 121.247 70.8092C115.941 69.7475 110.856 67.7839 106.213 65.0035C102.801 62.9039 99.6773 60.3667 96.9229 57.4566C98.7362 63.0349 100.59 68.5549 102.502 74.1155C106.683 76.3427 110.983 78.3417 115.381 80.1038C120.482 82.1511 125.73 83.8139 131.08 85.0781C133.202 85.5631 135.825 86.569 135.936 88.8901C135.884 89.6841 135.568 90.4381 135.038 91.0312C134.508 91.6244 133.794 92.0223 133.01 92.1618C132.095 92.3204 131.163 92.3678 130.237 92.3027C129.298 92.2266 128.367 92.0698 127.456 91.8338C121.954 90.5369 116.742 88.2258 112.088 85.0191C108.987 82.8867 106.175 80.3629 103.72 77.5104C105.486 82.5375 107.301 87.5558 109.156 92.5159C116.834 97.084 125.193 100.397 133.915 102.33C135.724 102.77 137.917 103.649 138.028 105.97C138.016 106.729 137.762 107.464 137.303 108.068C136.843 108.673 136.202 109.114 135.474 109.328C134.677 109.589 133.847 109.738 133.009 109.77C132.179 109.724 131.356 109.599 130.55 109.396C125.674 108.245 121.101 106.061 117.139 102.994C115.03 101.358 113.122 99.4797 111.455 97.3964C113.444 102.536 115.424 107.626 117.463 112.757C125.064 117.298 133.303 120.677 141.904 122.781C143.614 123.238 145.749 124.077 145.761 126.416C145.766 127.171 145.525 127.908 145.072 128.512C144.62 129.117 143.982 129.557 143.256 129.765C142.509 130.02 141.728 130.16 140.939 130.18C140.132 130.124 139.33 130.012 138.538 129.847C133.866 128.703 129.493 126.571 125.714 123.595C123.035 121.533 120.715 119.042 118.847 116.224C120.596 120.593 122.404 125.001 124.252 129.352C131.974 133.88 139.022 139.47 145.189 145.958C146.499 147.301 147.743 149.419 146.134 151.233C145.663 151.796 145.038 152.21 144.337 152.426C143.635 152.642 142.886 152.651 142.179 152.451C140.815 151.904 139.587 151.065 138.584 149.991C133.76 145.257 129.571 139.917 126.121 134.106C127.292 136.95 128.503 139.735 129.723 142.57C136.82 150.684 142.758 159.741 147.367 169.485C148.339 171.499 148.941 174.292 146.638 175.926C145.876 176.427 144.98 176.686 144.068 176.668C143.157 176.649 142.272 176.355 141.531 175.823C140.18 174.673 139.079 173.26 138.293 171.67C133.756 162.948 130.616 153.568 128.989 143.872C128.33 142.463 127.612 141.015 127.002 139.597C128.782 146.841 129.769 154.258 129.946 161.715C129.977 163.593 129.487 165.97 127.169 166.385C126.448 166.488 125.713 166.373 125.057 166.055C124.402 165.737 123.857 165.231 123.491 164.601C122.849 163.277 122.487 161.835 122.427 160.365C121.97 151.927 122.86 143.471 125.065 135.313C122.036 128.63 119.096 121.879 116.346 115.044C117.251 119.403 117.57 123.864 117.296 128.308C116.947 133.689 115.915 139.004 114.226 144.124C113.575 146.175 112.014 148.541 109.834 148.015C109.121 147.796 108.489 147.372 108.015 146.797C107.541 146.221 107.246 145.519 107.168 144.778C107.114 143.204 107.332 141.633 107.812 140.133L111.758 126.654C113.042 122.454 114.406 118.139 115.844 113.098C114.122 108.877 112.439 104.599 110.806 100.311C111.635 109.228 110.776 118.22 108.277 126.819C107.716 128.802 106.402 131.124 103.902 130.808C103.176 130.651 102.512 130.284 101.992 129.753C101.472 129.222 101.119 128.551 100.976 127.821C100.813 126.292 100.951 124.746 101.382 123.27C103.472 114.586 106.236 106.077 109.648 97.8219C107.364 91.8869 105.175 85.9179 103.082 79.9147C104.289 84.6892 104.641 89.6393 104.124 94.5366C103.643 100.052 102.273 105.452 100.067 110.53C99.2015 112.516 97.3675 114.779 95.201 114.047C94.494 113.765 93.8892 113.276 93.4669 112.642C93.0445 112.009 92.8244 111.263 92.8357 110.501C92.9516 108.948 93.3141 107.423 93.9095 105.984C95.6419 101.45 97.091 97.3228 98.5136 93.0478C99.9362 88.7729 101.341 84.3995 102.784 79.1031L100.908 73.7394C100.908 73.7394 100.819 73.2465 100.421 73.0125C99.3101 69.6493 98.1496 66.2951 97.0789 62.8738C97.8859 68.1327 97.831 73.4879 96.9161 78.7291C95.919 84.8003 93.9457 90.6702 91.0726 96.1108C89.9377 98.2987 87.7763 100.721 85.5832 99.8418C84.8976 99.4772 84.3438 98.9065 83.9999 98.2102C83.6561 97.5139 83.5396 96.7272 83.6669 95.9612C83.9798 94.2321 84.5363 92.5563 85.3199 90.9835C87.6808 85.9808 89.5523 81.3711 91.3973 76.6134C93.2423 71.8557 94.7915 67.1509 96.5497 61.3401C95.83 59.0264 95.0256 56.5242 94.3413 54.4077L93.9571 53.9678L94.2037 53.9236C93.4575 51.4619 92.6796 49.1076 91.9157 46.5473C91.9659 51.0151 91.3932 55.4679 90.2141 59.7776C88.5113 65.9886 85.7182 71.8478 81.9649 77.0814C80.4673 79.2325 77.6523 81.4158 75.8096 80.2191C75.1857 79.7392 74.7283 79.0755 74.502 78.3217C74.2757 77.5679 74.2918 76.762 74.5482 76.0178C74.812 75.151 75.1751 74.3175 75.6301 73.534C76.0302 72.7265 76.4858 71.9479 76.9937 71.2035C79.8949 66.6613 82.5356 61.9578 84.903 57.1159C87.1771 52.5732 89.1777 47.8985 90.8943 43.1171C90.7265 42.1803 90.5499 41.1944 90.037 40.3193L86.8314 29.2399C86.7159 34.3468 85.8016 39.4044 84.1215 44.2285C82.2061 49.665 79.4863 54.7836 76.0527 59.4135C74.6588 61.2915 72.3016 63.1894 70.3021 61.97C69.7832 61.4446 69.4283 60.7796 69.2807 60.0561C69.133 59.3326 69.199 58.5818 69.4705 57.8951C69.9844 56.3214 70.7298 54.8332 71.682 53.479C74.628 49.1856 77.0845 45.2852 79.6537 41.1611C82.2229 37.0371 84.5315 33.163 87.206 28.2059C86.1227 24.4306 85.0888 20.6467 84.0548 16.8626C81.2143 25.6952 76.4388 33.7825 70.0763 40.5355C68.8002 41.9344 66.6999 43.2776 64.8218 41.8837C64.2531 41.4307 63.824 40.8263 63.584 40.1399C63.3441 39.4536 63.303 38.7134 63.4655 38.0047C63.9274 36.6446 64.6764 35.3997 65.6616 34.3545C71.1974 27.853 77.3138 21.8691 83.9349 16.4769C82.6574 11.6169 81.3799 6.75688 80.1517 1.88803C77.0815 10.6866 71.7684 18.5316 64.7374 24.6477C63.2464 25.9834 60.9046 27.1152 59.2149 25.6367C58.7091 25.0991 58.3706 24.4261 58.2404 23.6995C58.1103 22.9729 58.1942 22.224 58.4819 21.5442C59.138 20.249 60.0127 19.0768 61.0673 18.0789C64.3732 14.9425 67.2845 11.8765 70.4814 9.26845L79.6034 0.815899C78.4775 -3.76594 77.3427 -8.39722 76.2572 -13.0372C74.9908 -9.16278 73.1197 -5.51299 70.7134 -2.22292C67.7025 1.85934 64.0424 5.42013 59.8789 8.3176C58.2046 9.48255 55.7114 10.3363 54.2152 8.51787C53.7938 7.91991 53.5487 7.2157 53.5078 6.4853C53.467 5.75489 53.632 5.02761 53.9841 4.38639C54.7607 3.19643 55.7473 2.15759 56.8955 1.32056C60.4693 -1.45678 63.5358 -3.93985 66.7239 -6.59724C69.912 -9.25463 72.6107 -11.519 75.9342 -14.5568C74.8046 -19.4434 73.6714 -24.6344 72.6632 -29.6953C71.2988 -25.2943 69.1375 -21.1816 66.2869 -17.5616C63.3728 -13.7799 59.8999 -10.4639 55.9875 -7.72755C54.403 -6.62957 51.9995 -5.8428 50.5122 -7.61195C50.0929 -8.20209 49.837 -8.89265 49.7704 -9.61353C49.7039 -10.3344 49.829 -11.06 50.1332 -11.7169C50.8614 -12.8788 51.8019 -13.8931 52.9055 -14.7069L72.5873 -29.8345C71.9692 -33.286 71.3599 -36.688 70.7418 -40.1394C69.8741 -36.0571 68.0455 -32.2406 65.4076 -29.0065C62.113 -24.9882 57.8598 -21.8641 53.0402 -19.9217C52.0377 -19.4621 50.9349 -19.2646 49.8352 -19.3477C49.3205 -19.394 48.8274 -19.5767 48.4069 -19.8771C47.9863 -20.1775 47.6535 -20.5846 47.4427 -21.0565C47.2039 -21.7484 47.1566 -22.4921 47.306 -23.2086C47.4554 -23.9252 47.7958 -24.5881 48.2913 -25.1269C48.7451 -25.6407 49.2901 -26.0661 49.8986 -26.3817C50.4406 -26.7511 51.0125 -27.0748 51.6082 -27.3494C55.1302 -29.0757 58.4758 -31.1405 61.5977 -33.5148C64.7939 -35.881 67.7216 -38.5897 70.3289 -41.5924C69.5694 -45.8327 68.8188 -50.0238 68.0682 -54.2148C65.1596 -47.5839 60.3042 -41.9934 54.1458 -38.185C53.8108 -37.9025 53.4224 -37.6905 53.0036 -37.5617C52.5848 -37.4329 52.1442 -37.3902 51.7084 -37.4357C51.2726 -37.4812 50.8505 -37.614 50.4674 -37.8265C50.0842 -38.039 49.7479 -38.3266 49.4785 -38.6722C49.0575 -39.2271 48.7739 -39.874 48.6511 -40.5597C48.5283 -41.2453 48.5698 -41.9501 48.7721 -42.6167C49.3066 -43.6189 50.0797 -44.4741 51.0233 -45.1064C53.8736 -47.0927 56.4634 -48.8285 59.2187 -50.4924C61.974 -52.1563 64.527 -53.5296 67.7261 -55.2729C66.4103 -62.6196 65.5207 -70.1445 64.6752 -77.4228C64.4721 -78.5568 66.5025 -78.8696 66.6474 -77.776C68.1751 -69.2459 69.694 -60.7653 71.2128 -52.2846C78.1155 -53.5282 84.9073 -55.323 91.5231 -57.6521C92.2824 -58.0487 93.166 -58.1352 93.9878 -57.8932C94.8095 -57.6511 95.5052 -57.0996 95.9284 -56.3548C96.2935 -55.7484 96.4871 -55.0539 96.4884 -54.3461C96.4896 -53.6383 96.2986 -52.9434 95.9357 -52.3357C95.0333 -51.3616 93.9095 -50.6192 92.6593 -50.1714C88.9571 -48.8364 85.0174 -48.287 81.0912 -48.5577C77.7275 -48.7802 74.4402 -49.661 71.416 -51.1503C72.2991 -46.2196 73.1291 -41.585 73.9857 -36.8022C81.6283 -38.171 89.3696 -39.5573 96.5898 -40.4433C97.4673 -40.7084 98.4125 -40.634 99.238 -40.2352C100.063 -39.8364 100.709 -39.1422 101.047 -38.2899C101.246 -37.5952 101.252 -36.8593 101.063 -36.1616C100.874 -35.4639 100.497 -34.8311 99.9743 -34.3322C98.8367 -33.5539 97.5298 -33.0583 96.1621 -32.8863C88.7368 -31.7033 81.1283 -32.6331 74.2064 -35.5696C75.0189 -31.0333 75.8224 -26.5465 76.626 -22.0596C86.1541 -21.4252 95.5696 -20.5671 104.257 -20.6472Z" fill="#92D660"/>
<path fill-rule="evenodd" clip-rule="evenodd" d="M470.154 702.838C468.902 696.61 467.809 688.315 466.828 681.603L465.038 669.607C465.038 669.607 465.695 670.765 466.694 672.723C467.693 674.681 469.041 677.367 470.453 680.559C473.517 687.228 475.905 694.185 477.579 701.326C478.106 703.764 478.483 706.232 478.709 708.715C481.62 704.965 484.459 701.208 487.26 697.388C486.754 697.174 486.341 696.785 486.097 696.293C484.506 692.894 483.446 689.274 482.953 685.558C481.655 679.34 480.59 671.063 479.599 664.306L477.792 652.337L479.466 655.425C480.464 657.383 481.822 660.114 483.225 663.261C486.296 669.928 488.683 676.886 490.35 684.028C490.88 686.482 491.261 688.964 491.49 691.462C495.056 686.39 498.495 681.274 501.858 676.032C500.45 675.439 498.598 672.933 495.242 665.317C491.061 654.614 487.603 643.646 484.893 632.485C491.315 642.02 497.086 651.975 502.166 662.282C503.393 664.953 504.433 667.705 505.28 670.518L505.984 669.42C506.026 669.107 506.135 668.807 506.306 668.542C506.476 668.276 506.703 668.051 506.97 667.883C508.027 666.237 509.029 664.555 509.975 662.838C510.979 661.273 511.827 659.648 512.748 658.031C512.313 658.11 511.864 658.057 511.459 657.88C511.053 657.702 510.709 657.408 510.471 657.035C508.775 654.01 507.568 650.738 506.894 647.34C505.39 641.686 504.012 634.138 502.742 627.938L500.519 616.981L502.258 619.724C503.342 621.427 504.776 623.858 506.317 626.668C509.603 632.611 512.252 638.882 514.22 645.377C514.906 647.763 515.41 650.198 515.729 652.66C517.954 648.586 520.096 644.459 522.184 640.297C520.841 639.785 519.264 637.455 516.693 629.646C513.766 619.285 511.6 608.728 510.212 598.057C515.457 607.473 520.02 617.251 523.866 627.314C524.675 629.77 525.258 631.771 525.614 633.316C525.719 633.152 525.825 632.987 525.948 632.795C525.882 632.436 525.907 632.066 526.021 631.719C526.134 631.373 526.333 631.06 526.599 630.811C526.705 630.646 526.828 630.454 527.107 630.323C528.361 627.641 529.633 624.932 530.832 622.214C529.474 621.846 528.102 619.804 526.173 612.328C524.266 602.84 523.121 593.217 522.747 583.552C527.054 592.227 530.65 601.233 533.5 610.483C533.843 611.826 534.129 613.017 534.33 614.037C535.916 610.173 537.446 606.273 538.931 602.383C537.379 602.317 536.012 600.51 533.998 591.469C532.386 581.241 531.543 570.909 531.475 560.56C535.518 570.101 538.843 579.927 541.422 589.957L542.139 593.749C542.948 591.517 543.741 589.314 544.523 587.065C543.399 586.15 542.931 583.486 544.905 574.835C547.647 564.419 551.139 554.217 555.356 544.309C555.125 555.084 554.106 565.825 552.308 576.447C552.026 577.855 551.705 579.082 551.427 580.182C558.421 574.93 565.816 570.232 573.546 566.133C568.139 573.461 562.115 580.314 555.54 586.619C548.6 592.587 546.926 592.287 545.677 591.021C544.206 595.617 542.624 600.142 540.842 604.617C541.899 603.939 543.154 603.195 544.725 602.382C550.122 599.786 555.844 597.92 561.739 596.834C564.548 596.273 566.998 595.908 568.754 595.717C570.509 595.527 571.595 595.41 571.595 595.41L569.138 596.816L563.02 600.29C558.268 603.091 552.624 606.675 548.153 609.037C545.601 610.653 542.775 611.793 539.812 612.402C539.471 612.446 539.124 612.406 538.801 612.287C538.478 612.167 538.189 611.971 537.958 611.716C536.927 614.231 535.851 616.756 534.758 619.309C534.773 619.715 534.696 620.119 534.532 620.49C534.368 620.862 534.121 621.19 533.81 621.452C532.855 623.667 531.845 625.847 530.835 628.027C531.904 627.512 533.154 626.958 534.665 626.301C539.531 624.231 546.089 622.009 551.497 619.823L558.255 617.108C559.946 616.411 560.98 615.951 560.98 615.951C560.98 615.951 560.216 616.778 558.9 618.103C557.583 619.427 555.694 621.16 553.418 623.07C548.662 627.134 543.386 630.548 537.726 633.224C534.83 634.794 531.606 635.669 528.309 635.782C527.953 635.76 527.606 635.658 527.296 635.481C526.803 636.249 526.503 637.141 526.093 637.963C526.08 638.274 525.999 638.579 525.856 638.855C525.712 639.131 525.509 639.372 525.262 639.561C523.882 642.317 522.474 645.056 521.012 647.759L521.589 647.587C523.076 647.147 525.063 646.717 527.69 646.078C530.316 645.439 533.424 644.837 536.555 644.018C539.685 643.199 542.871 642.415 545.719 641.491C548.567 640.568 551.043 639.677 552.825 638.961L555.713 637.793C555.713 637.793 554.904 638.629 553.47 639.956C549.085 643.954 544.155 647.312 538.826 649.931C535.862 651.384 532.749 652.517 529.542 653.31C527.312 653.854 525.036 654.197 522.743 654.332C521.518 654.429 520.285 654.295 519.108 653.937C518.704 653.789 518.337 653.554 518.034 653.248C516.053 656.82 514.062 660.346 512.044 663.855L510.67 665.996C512.005 665.613 513.738 665.214 515.905 664.745C521.118 663.712 528.095 662.958 533.812 662.288L543.999 661.076L541.434 662.53C539.81 663.425 537.538 664.602 534.8 666.021C529.258 668.738 523.424 670.817 517.409 672.218C514.294 673.147 511.012 673.382 507.792 672.905C507.444 672.792 507.131 672.591 506.883 672.322C503.842 677.344 500.672 682.283 497.374 687.141C499.205 686.65 501.889 686.164 505.232 685.558C511.668 684.497 520.293 683.6 527.259 682.801L539.671 681.274L536.34 683.01C534.3 683.948 531.441 685.252 528.139 686.581C521.153 689.495 513.889 691.7 506.457 693.163C502.589 694.1 498.577 694.311 494.627 693.785C494.147 693.683 493.7 693.463 493.327 693.145C490.407 697.392 487.386 701.614 484.301 705.756C487.268 705.271 490.257 704.94 493.259 704.763C499.779 704.297 508.411 704.296 515.444 704.122L528.292 704.036C528.292 704.036 527.032 704.545 524.907 705.312C522.781 706.079 519.863 707.112 516.391 708.1C509.137 710.323 501.673 711.803 494.115 712.518C490.182 713.087 486.176 712.921 482.299 712.026C481.678 711.904 481.127 711.55 480.757 711.037C472.467 721.807 463.576 732.102 454.127 741.873C452.988 743.041 451.312 741.229 452.378 740.053C459.9 731.785 467.192 723.33 474.17 714.636C473.829 714.393 473.536 714.087 473.31 713.735C471.735 710.273 470.672 706.602 470.154 702.838Z" fill="#92D660"/>
<path fill-rule="evenodd" clip-rule="evenodd" d="M410.649 743.265C410.958 736.777 411.612 730.31 412.607 723.892C412.773 724.093 412.996 724.239 413.247 724.309C414.922 724.786 416.683 724.866 418.394 724.544C420.105 724.222 421.719 723.505 423.11 722.451C424.728 721.162 427.815 717.75 426.874 715.324C425.933 712.898 420.889 714.073 418.931 714.528C417.045 714.934 415.279 715.777 413.774 716.992C414.865 710.774 416.145 704.519 417.538 698.036C417.657 698.182 417.797 698.31 417.952 698.415C419.295 699.214 420.788 699.725 422.337 699.914C423.885 700.103 425.456 699.967 426.949 699.515C429.095 698.832 433.575 696.216 433.349 693.411C433.123 690.605 428.117 690.492 426.084 690.416C423.523 690.267 420.977 690.902 418.78 692.236C420.136 685.829 421.529 679.421 422.545 673.014C422.669 673.045 422.798 673.045 422.921 673.014C424.64 673.322 426.408 673.199 428.069 672.657C429.73 672.115 431.233 671.17 432.446 669.906C434.064 668.503 436.925 666.114 434.742 664.067C433.546 663.301 432.195 662.816 430.787 662.645C429.38 662.474 427.953 662.624 426.611 663.081C425.731 663.335 424.894 663.719 424.126 664.219C425.18 657.774 426.046 651.367 426.535 644.997C429.363 644.098 431.837 642.325 433.607 639.929C435.378 637.534 436.354 634.638 436.398 631.652C436.376 631.439 436.299 631.235 436.173 631.062C436.047 630.889 435.878 630.753 435.683 630.667C434.026 630.077 432.209 630.14 430.596 630.843C428.983 631.546 427.694 632.838 426.987 634.458C427.071 628.61 426.681 622.765 425.82 616.981C425.917 617.019 426.024 617.019 426.121 616.981C428.657 615.722 430.773 613.747 432.211 611.296C433.648 608.844 434.345 606.024 434.215 603.181C434.202 602.94 434.121 602.709 433.981 602.514C433.84 602.319 433.647 602.168 433.424 602.081C432.119 601.676 430.72 601.692 429.424 602.127C428.128 602.562 427 603.395 426.197 604.508C425.317 605.522 424.547 606.627 423.9 607.806C422.416 602.098 420.295 596.578 417.576 591.352C419.329 589.245 420.453 586.681 420.82 583.957C421.186 581.233 420.779 578.461 419.646 575.96C419.531 575.688 419.335 575.459 419.086 575.303C418.837 575.147 418.546 575.072 418.253 575.088C416.868 575.248 415.57 575.849 414.548 576.804C413.526 577.759 412.832 579.017 412.569 580.396C412.381 581.002 412.23 581.647 412.08 582.291C411.44 581.381 410.762 580.471 410.084 579.599C411.223 575.656 411.391 571.492 410.574 567.468C410.009 565.003 407.939 560.719 404.889 563.146C403.972 564.162 403.282 565.365 402.867 566.673C402.451 567.981 402.319 569.364 402.48 570.728C402.583 572.682 403.125 574.588 404.064 576.302C405.002 578.015 406.314 579.493 407.901 580.623C409.106 582.178 410.235 583.732 411.289 585.324C409.506 584.641 407.624 584.257 405.718 584.187C403.948 584.187 399.77 583.884 399.431 586.272C398.979 589.267 403.384 592.376 405.642 593.21C407.249 593.751 408.947 593.959 410.636 593.822C412.324 593.685 413.968 593.206 415.468 592.414C417.962 597.245 419.943 602.328 421.378 607.578C419.919 606.475 418.291 605.617 416.559 605.038C414.752 604.432 411.891 603.37 411.364 605.986C411.268 607.508 411.528 609.032 412.123 610.434C412.718 611.837 413.631 613.079 414.79 614.061C417.187 616.118 420.265 617.187 423.411 617.056C424.238 622.349 424.666 627.697 424.691 633.055C423.961 631.463 422.917 630.037 421.623 628.864C420.328 627.69 418.811 626.795 417.162 626.231C416.95 626.199 416.734 626.224 416.536 626.304C416.337 626.384 416.164 626.516 416.032 626.686C415.106 628.034 414.536 629.599 414.378 631.231C414.22 632.863 414.478 634.509 415.129 636.012C415.885 637.803 417.017 639.407 418.446 640.716C419.876 642.025 421.569 643.007 423.411 643.595C423.653 643.688 423.921 643.688 424.164 643.595C423.712 650.419 422.771 657.281 421.642 664.181C421.267 662.363 420.442 660.67 419.244 659.258C418.047 657.847 416.515 656.762 414.79 656.106C414.499 655.987 414.174 655.983 413.881 656.096C413.588 656.208 413.348 656.429 413.209 656.712C412.596 658.036 412.279 659.479 412.279 660.939C412.279 662.4 412.596 663.843 413.209 665.167C414.999 667.687 417.567 669.54 420.512 670.436C419.383 676.426 418.14 682.379 416.748 688.331C415.57 685.217 413.234 682.687 410.235 681.279C409.989 681.173 409.714 681.153 409.455 681.222C409.196 681.29 408.967 681.444 408.804 681.658C408.18 682.807 407.794 684.071 407.671 685.375C407.548 686.679 407.69 687.994 408.089 689.241C408.648 690.767 409.535 692.15 410.687 693.29C411.839 694.431 413.227 695.3 414.752 695.837H415.129C413.623 702.889 412.155 709.865 410.95 716.765C410.107 714.872 408.815 713.218 407.186 711.949C405.558 710.679 403.644 709.833 401.614 709.486C401.353 709.453 401.088 709.506 400.857 709.635C400.627 709.765 400.444 709.965 400.334 710.206C400.011 711.575 399.984 712.999 400.257 714.379C400.53 715.76 401.096 717.065 401.915 718.205C402.837 719.519 404.025 720.62 405.401 721.437C406.777 722.254 408.309 722.768 409.896 722.944H410.235C409.168 729.597 408.477 736.306 408.164 743.037C408.164 744.592 410.498 745.009 410.536 743.417L410.649 743.265Z" fill="#92D660"/>
<path fill-rule="evenodd" clip-rule="evenodd" d="M1441.22 -212.145C1427.02 -203.641 1409.1 -191.083 1394.27 -181.149L1367.91 -163.489C1367.91 -163.489 1371.38 -164.27 1377.02 -165.849C1382.67 -167.428 1390.47 -169.718 1399.21 -172.626C1417.85 -178.627 1435.73 -186.416 1452.56 -195.871C1458.25 -199.186 1463.7 -202.82 1468.9 -206.754C1467.39 -194.892 1465.67 -182.985 1463.73 -170.946C1462.33 -171.432 1460.82 -171.518 1459.4 -171.194C1449.85 -168.098 1440.88 -163.694 1432.79 -158.123C1418.49 -149.64 1400.66 -137.061 1385.84 -127.127L1359.57 -109.446C1359.57 -109.446 1363.04 -110.226 1368.68 -111.805C1374.33 -113.385 1382.13 -115.674 1390.86 -118.582C1409.5 -124.61 1427.38 -132.397 1444.22 -141.827C1449.91 -145.142 1455.36 -148.776 1460.56 -152.711C1457.85 -137.331 1454.65 -121.972 1451.14 -106.59C1447.3 -108.113 1438.93 -107.248 1417.93 -100.015C1389.45 -88.9752 1361.87 -76.1119 1335.38 -61.5147C1365.94 -66.4305 1396.05 -73.2797 1425.49 -82.0156C1433.02 -84.3922 1440.34 -87.2654 1447.39 -90.6135C1447.15 -89.5587 1446.89 -88.416 1446.65 -87.3612C1446.13 -86.7262 1445.77 -85.9885 1445.59 -85.1993C1445.41 -84.4101 1445.42 -83.5881 1445.61 -82.7903L1441.75 -68.5044C1440.71 -63.9336 1439.27 -59.8225 1437.87 -54.965C1437.2 -55.9115 1436.25 -56.653 1435.13 -57.089C1434.02 -57.525 1432.8 -57.6342 1431.64 -57.4018C1422.57 -55.3035 1413.99 -51.7923 1406.24 -47.0131C1392.67 -39.9383 1375.57 -29.2281 1361.17 -20.3059C1346.77 -11.3838 1336 -5.24132 1336 -5.24132C1336 -5.24132 1339.2 -5.7139 1344.53 -6.80886C1349.87 -7.90384 1357.28 -9.35755 1365.49 -11.2752C1383.17 -15.5674 1400.24 -21.6583 1416.39 -29.4403C1422.25 -32.3429 1427.84 -35.6736 1433.12 -39.4026C1429.66 -28.1703 1425.92 -17.0025 1422.06 -5.76868C1418.45 -7.42449 1411 -6.25625 1391.13 2.61955C1365.76 15.4208 1341.46 29.9335 1318.42 46.0469C1346.49 39.2527 1373.93 30.5541 1400.52 20.0194C1406.75 17.1866 1411.68 14.7979 1415.36 12.6769C1415.24 13.2043 1415.12 13.7315 1415.02 14.171C1414.2 14.7028 1413.55 15.4193 1413.12 16.2562C1412.68 17.0931 1412.48 18.0243 1412.53 18.9667C1412.48 19.5298 1412.52 20.0983 1412.64 20.6569C1409.91 27.6783 1407.11 34.7144 1404.24 41.7655C1400.97 39.9108 1394.46 40.9223 1376.42 50.4941C1354.62 63.307 1334.01 77.7802 1314.81 93.7722C1339.65 86.5088 1363.77 77.3843 1386.93 66.4853C1390.11 64.8052 1392.96 63.2359 1395.27 61.8224C1390.98 71.4768 1386.59 81.1098 1381.91 90.6778C1378.85 87.9441 1372.54 88.0762 1351.69 100.798C1329.02 115.694 1307.66 132.213 1287.78 150.21C1313.78 140.981 1338.94 129.903 1363.03 117.072C1366.36 115.15 1369.16 113.383 1371.63 111.727C1368.9 117.116 1366.27 122.527 1363.45 128.356C1359.56 127.469 1353.9 131.727 1340.85 150.481C1326.28 173.771 1313.54 198.06 1302.74 223.163C1322.84 203.851 1341.38 183.173 1358.23 161.288C1360.32 158.25 1362.04 155.5 1363.55 153.255C1367.03 175.352 1372.34 197.217 1379.44 218.651C1382.99 195.835 1384.43 172.713 1383.74 149.538C1381.75 126.336 1377.94 123.803 1373.18 123.732C1379.02 112.952 1384.59 102.108 1390.01 90.5828C1390.89 94.3253 1391.98 98.0296 1393.26 101.681C1398.7 116.175 1406.18 129.981 1415.5 142.727C1419.8 148.794 1423.92 153.895 1426.86 157.617C1429.8 161.34 1431.83 163.374 1431.83 163.374L1429.74 156.333L1424.8 139.115C1420.95 125.384 1416.97 108.754 1412.82 96.3417C1410.94 88.815 1407.65 81.6162 1403.12 75.0782C1402.55 74.3703 1401.8 73.8034 1400.94 73.4301C1400.09 73.0569 1399.15 72.8896 1398.22 72.9441C1401.07 66.5664 1403.83 60.1668 1406.49 53.7458C1407.3 53.0541 1407.94 52.1964 1408.35 51.2341C1408.76 50.2718 1408.93 49.2294 1408.85 48.1825C1411.14 42.5095 1413.44 36.8363 1415.61 31.2295C1416.64 34.1461 1417.99 37.4129 1419.67 41.4031C1425.07 54.009 1433.07 70.0749 1439.92 83.7515C1443.17 90.5026 1445.87 96.5749 1447.85 101.003L1450.94 107.996C1450.94 107.996 1450.99 105.142 1450.97 100.421C1450.95 95.7002 1450.65 89.1581 1449.87 81.6736C1448.49 65.7663 1444.83 50.0346 1439 34.9005C1436.29 26.9138 1431.7 19.5445 1425.57 13.343C1424.83 12.7126 1423.95 12.2296 1423.01 11.9248L1425.38 5.43889C1425.95 4.85527 1426.37 4.16561 1426.63 3.41279C1426.88 2.65996 1426.97 1.86065 1426.88 1.06454C1429.43 -6.30744 1431.91 -13.694 1434.33 -21.0948L1435.11 -19.7143C1437.12 -16.2962 1440.18 -11.8063 1444.01 -5.84769C1447.83 0.110908 1452.68 6.85637 1457.23 13.998C1461.78 21.1397 1466.29 28.4572 1469.99 35.4043C1473.69 42.3514 1476.98 48.4655 1478.85 52.96L1482.16 60.2819C1482.16 60.2819 1482.24 57.3397 1481.97 52.3784C1481.66 45.7695 1480.9 39.172 1479.7 32.6252C1478.17 24.1597 1475.87 15.8081 1472.83 7.66251C1469.89 -0.315858 1466.06 -8.00774 1461.42 -15.2851C1458.15 -20.3707 1454.41 -25.1857 1450.24 -29.6711C1448.07 -32.0442 1445.5 -34.0695 1442.63 -35.6603C1441.59 -36.2171 1440.41 -36.4872 1439.22 -36.4385C1442.29 -46.374 1445.14 -56.2646 1447.98 -66.0675L1449.42 -72.396C1451.19 -69.2186 1453.8 -65.3858 1456.71 -60.6535C1464.85 -49.5505 1476.8 -35.0799 1486.48 -23.3456L1503.87 -2.54866C1503.87 -2.54866 1503.11 -5.31245 1501.66 -9.89627C1500.21 -14.4801 1498.14 -20.6862 1495.75 -27.7039C1490.26 -42.671 1483.01 -57.0726 1474.14 -70.6405C1469.88 -78.0098 1463.97 -84.4707 1456.83 -89.5713C1455.92 -89.9478 1454.96 -90.1676 1453.98 -90.2198C1457.27 -104.635 1461.05 -119.031 1463.89 -133.642C1466.52 -129.436 1470.44 -123.917 1476.02 -116.449C1486.42 -102.61 1501.32 -85.3391 1513.2 -70.9779L1534.3 -45.4512L1531.02 -54.2447C1528.95 -59.6167 1525.89 -67.1586 1522.04 -75.6202C1514.12 -93.5975 1504.29 -110.836 1492.7 -127.07C1487.04 -135.807 1479.75 -143.551 1471.19 -149.916C1469.99 -150.524 1468.65 -150.83 1467.31 -150.803C1469.74 -163.656 1471.98 -176.553 1473.96 -189.602C1478.83 -183.204 1484.09 -177.064 1489.71 -171.214C1501.43 -158.368 1518.04 -142.465 1531.27 -129.184L1554.74 -105.335C1554.74 -105.335 1553.27 -108.536 1550.6 -113.862C1547.93 -119.188 1544.17 -126.332 1539.64 -134.857C1529.93 -152.077 1518.42 -168.396 1505.29 -183.566C1498.79 -191.822 1490.74 -198.926 1481.55 -204.516C1480.1 -205.455 1478.34 -205.857 1476.62 -205.64C1481.23 -239.77 1483.73 -274.184 1484.09 -308.711C1484.14 -312.861 1477.44 -312.815 1477.23 -308.796C1476.06 -280.394 1473.92 -252.186 1470.78 -224.173C1469.68 -224.325 1468.56 -224.299 1467.48 -224.095C1458.1 -221.35 1449.26 -217.324 1441.22 -212.145Z" fill="#92D660"/>
<path fill-rule="evenodd" clip-rule="evenodd" d="M15.3224 577.81C34.5583 588.621 40.5945 609.515 45.3039 629.679V630.542C45.3324 630.717 45.3324 630.896 45.3039 631.072C47.1573 635.46 48.4069 640.079 49.0184 644.802C55.6515 626.097 63.0806 607.791 79.2653 595.321C79.5006 595.132 79.7845 595.014 80.0841 594.981C80.3837 594.948 80.6866 595 80.9575 595.132C81.2285 595.264 81.4565 595.47 81.6149 595.727C81.7733 595.983 81.8555 596.279 81.8522 596.581C81.8522 619 65.9328 634.588 50.345 648.65C50.1205 648.89 49.8111 649.032 49.4828 649.048C49.8647 655.685 49.6649 662.344 48.8858 668.946C48.8858 669.941 48.8858 671.003 48.5542 671.998H49.3501C64.1369 652.707 83.615 637.522 105.93 627.888C106.245 627.769 106.589 627.748 106.915 627.829C107.242 627.909 107.537 628.087 107.76 628.339C107.983 628.591 108.124 628.905 108.165 629.239C108.205 629.573 108.143 629.912 107.987 630.21C95.9806 650.109 73.3618 673.722 48.2888 675.182H47.9571C46.4761 686.511 44.1255 697.709 40.9261 708.678H41.9874C56.7742 689.387 76.2523 674.202 98.5675 664.569C98.8736 664.443 99.2111 664.416 99.5331 664.492C99.8552 664.567 100.146 664.741 100.365 664.989C100.583 665.237 100.72 665.546 100.754 665.875C100.789 666.204 100.72 666.536 100.557 666.824C88.618 686.723 65.9328 710.402 40.8598 711.862C40.7151 711.932 40.5563 711.969 40.3954 711.969C40.2345 711.969 40.0758 711.932 39.9312 711.862C39.0025 714.979 38.0075 718.495 36.8799 721.281C36.705 721.607 36.4223 721.861 36.08 722.001C35.7378 722.141 35.3574 722.158 35.0043 722.048C34.6512 721.938 34.3474 721.709 34.145 721.399C33.9426 721.09 33.8542 720.72 33.895 720.352C35.7523 714.913 37.4769 709.408 38.9361 703.836C22.3534 688.912 0.994962 663.441 0 639.96C0 638.435 1.85725 638.236 2.78588 639.032C20.0319 654.686 37.6759 672.197 41.0588 695.611C42.7975 688.176 44.1042 680.646 44.9723 673.059C45.5029 669.145 45.9009 665.166 46.0999 661.186C28.5885 649.711 10.414 636.777 6.89846 614.755C6.84128 614.453 6.87281 614.141 6.98925 613.856C7.10568 613.571 7.30197 613.327 7.55452 613.152C7.80707 612.976 8.10498 612.878 8.4123 612.868C8.71961 612.858 9.02326 612.938 9.28637 613.097C26.9304 622.715 37.0789 639.297 46.4315 656.344C46.708 647.524 44.8655 638.767 41.0588 630.807C27.7926 615.949 15.4551 600.494 12.5365 580.33C12.2023 579.961 12.0284 579.473 12.0533 578.976C12.0782 578.478 12.2998 578.011 12.6692 577.677C13.0386 577.342 13.5258 577.169 14.0233 577.194C14.5209 577.219 14.9881 577.44 15.3224 577.81Z" fill="#92D660"/>
<g filter="url(#filter0_d_410_4853)">
<rect y="-454" width="1440" height="454" fill="#FFF9F0"/>
</g>
</g>
</g>
<defs>
<filter id="filter0_d_410_4853" x="-54" y="-454" width="1548" height="584" filterUnits="userSpaceOnUse" color-interpolation-filters="sRGB">
<feFlood flood-opacity="0" result="BackgroundImageFix"/>
<feColorMatrix in="SourceAlpha" type="matrix" values="0 0 0 0 0 0 0 0 0 0 0 0 0 0 0 0 0 0 127 0" result="hardAlpha"/>
<feOffset dy="76"/>
<feGaussianBlur stdDeviation="27"/>
<feComposite in2="hardAlpha" operator="out"/>
<feColorMatrix type="matrix" values="0 0 0 0 0.320833 0 0 0 0 0.219889 0 0 0 0 0.0655035 0 0 0 0.05 0"/>
<feBlend mode="normal" in2="BackgroundImageFix" result="effect1_dropShadow_410_4853"/>
<feBlend mode="normal" in="SourceGraphic" in2="effect1_dropShadow_410_4853" result="shape"/>
</filter>
<clipPath id="clip0_410_4853">
<rect width="1440" height="700" fill="white"/>
</clipPath>
<clipPath id="clip1_410_4853">
<rect width="1440" height="1154" fill="white" transform="translate(0 -454)"/>
</clipPath>
</defs>
</svg>
