<svg viewBox="0 0 1440 798" fill="none" xmlns="http://www.w3.org/2000/svg">
<g clip-path="url(#clip0_407_4853)">
<path fill-rule="evenodd" clip-rule="evenodd" d="M1011.49 -34.8621C1018.46 -31.61 1027.27 -26.6814 1034.56 -22.7742L1047.52 -15.8726C1047.52 -15.8726 1045.92 -16.0764 1043.31 -16.5008C1040.69 -16.9252 1037.06 -17.5701 1032.97 -18.4888C1024.28 -20.3227 1015.79 -23.0222 1007.64 -26.5472C1004.88 -27.7808 1002.2 -29.1959 999.631 -30.7832C1001.2 -25.2541 1002.8 -19.7432 1004.52 -14.2865C1005.1 -14.6084 1005.77 -14.7342 1006.43 -14.6454C1010.88 -13.7319 1015.17 -12.1466 1019.16 -9.94357C1026.11 -6.7279 1034.93 -1.76288 1042.23 2.14429L1055.17 9.00959L1050.97 8.41771C1048.36 7.99335 1044.7 7.31211 1040.63 6.42984C1031.94 4.60961 1023.45 1.9095 1015.3 -1.62866C1012.54 -2.89494 1009.85 -4.3152 1007.24 -5.88292C1009.6 1.24747 1012.17 8.32375 1014.84 15.3458C1016.48 14.5319 1020.19 14.4137 1030.05 16.6368C1043.46 20.2868 1056.61 24.8363 1069.4 30.2545C1055.51 29.6231 1041.67 28.0533 1027.99 25.5558C1024.51 24.8445 1021.09 23.8763 1017.75 22.6593L1018.47 24.1151C1018.74 24.382 1018.95 24.7032 1019.09 25.0576C1019.23 25.412 1019.29 25.7914 1019.27 26.1708C1020.32 28.2816 1021.11 30.5191 1022.07 32.7206C1023.03 34.9221 1023.84 36.8326 1024.76 38.8704C1025.02 38.4058 1025.41 38.0303 1025.88 37.7943C1026.36 37.5583 1026.89 37.4731 1027.42 37.5501C1031.59 38.0582 1035.64 39.2469 1039.42 41.0688C1045.98 43.6655 1054.33 47.7751 1061.28 50.9908L1073.56 56.6912C1073.56 56.6912 1072.08 56.6513 1069.63 56.4636C1067.18 56.2759 1063.78 55.9223 1060 55.3498C1051.85 54.3041 1043.84 52.3647 1036.11 49.5667C1033.3 48.5215 1030.57 47.2507 1027.96 45.7666C1030.48 50.8254 1032.81 55.9745 1035.5 60.9429C1036.92 59.9648 1040.36 60.1186 1049.8 63.2312C1061.99 67.8583 1073.83 73.3661 1085.22 79.7111C1072.3 78.0435 1059.52 75.4308 1046.98 71.894C1043.97 70.9416 1041.53 70.0632 1039.83 69.2776L1040.17 69.9691C1040.57 70.1707 1040.91 70.4676 1041.16 70.833C1041.41 71.1985 1041.57 71.621 1041.62 72.0627C1041.68 72.3311 1041.71 72.6056 1041.71 72.8808C1043.31 76.1078 1045.07 79.2745 1046.97 82.381C1048.3 81.3119 1051.08 81.5186 1059.95 85.0115C1070.46 89.9621 1080.56 95.7484 1090.15 102.315C1078.62 100.252 1067.27 97.2703 1056.22 93.3994C1054.67 92.7596 1053.29 92.1745 1052.17 91.6447C1054.78 95.9767 1057.45 100.273 1060.21 104.532C1061.39 103.081 1063.94 102.906 1074.36 107.62C1085.48 113.433 1096.15 120.069 1106.28 127.472C1094.08 124.538 1082.12 120.682 1070.5 115.935C1068.92 115.222 1067.53 114.51 1066.33 113.926L1071.11 121.08C1072.8 120.648 1075.6 122.163 1082.72 130.287C1090.92 140.456 1098.36 151.214 1104.98 162.474C1094.62 154.416 1084.86 145.615 1075.78 136.14C1074.62 134.811 1073.62 133.627 1072.75 132.607C1072.86 143.199 1072.14 153.783 1070.6 164.263C1067.35 153.692 1065.01 142.863 1063.59 131.894C1062.66 120.878 1064.26 119.446 1066.33 119.142C1062.95 114.426 1059.67 109.566 1056.5 104.651C1056.39 106.46 1056.18 108.261 1055.87 110.047C1054.54 117.188 1052.26 124.12 1049.09 130.659C1047.63 133.746 1046.19 136.414 1045.17 138.283C1044.14 140.153 1043.38 141.26 1043.38 141.26C1043.38 141.26 1043.56 139.988 1043.77 137.844C1043.97 135.7 1044.33 132.756 1044.68 129.449C1045.35 122.762 1045.91 114.676 1046.86 108.626C1047.12 105.005 1048.06 101.464 1049.61 98.1816C1049.81 97.8143 1050.1 97.5022 1050.46 97.272C1050.81 97.0418 1051.21 96.9004 1051.63 96.8598C1049.91 94.0385 1048.17 91.1807 1046.51 88.2868C1046.12 87.9801 1045.81 87.5931 1045.59 87.153C1045.37 86.713 1045.25 86.2304 1045.24 85.7392C1043.94 83.1188 1042.38 80.6251 1040.99 78.0954C1040.73 79.4942 1040.36 81.1291 1039.96 83.1456C1038.51 89.358 1035.96 97.4761 1034.16 104.178C1033.25 107.539 1032.51 110.536 1031.96 112.715L1031.12 116.221C1031.12 116.221 1030.87 114.894 1030.53 112.657C1030.19 110.421 1029.85 107.276 1029.62 103.713C1029.05 96.1497 1029.51 88.5439 1031 81.1064C1031.54 77.1014 1032.99 73.2738 1035.25 69.9208C1035.54 69.6088 1035.89 69.3458 1036.27 69.1418C1035.78 68.1591 1035.29 67.1765 1034.78 66.1574C1034.49 65.9155 1034.26 65.6159 1034.09 65.2776C1033.92 64.9392 1033.82 64.5695 1033.81 64.1921C1032.16 60.8802 1030.5 57.532 1028.83 54.1837L1028.61 54.8376C1027.95 56.6172 1026.95 58.8865 1025.67 61.8823C1024.39 64.8781 1022.8 68.3457 1021.32 71.9408C1019.84 75.5359 1018.37 79.2583 1017.22 82.6906C1016.07 86.123 1015.15 89.2106 1014.58 91.4447L1013.63 95.0956L1013.13 91.3503C1012.79 88.2236 1012.65 85.0787 1012.72 81.9345C1012.76 77.8565 1013.16 73.7899 1013.89 69.7782C1014.59 65.8408 1015.72 61.9918 1017.26 58.2997C1018.32 55.7263 1019.61 53.2587 1021.13 50.9299C1021.91 49.6862 1022.9 48.5928 1024.07 47.7019C1024.46 47.3608 1024.94 47.1245 1025.45 47.0146C1023.24 42.5745 1021.38 38.008 1019.41 33.4957C1018.96 32.5859 1018.51 31.6761 1018.04 30.7299C1017.47 32.3279 1016.63 34.2888 1015.41 36.5759C1012.74 42.44 1008.34 49.7539 1004.98 55.78L998.831 66.5066L999.239 62.9452C999.553 60.7467 1000.02 57.6581 1000.7 54.1883C1002.04 46.8501 1004.2 39.6859 1007.15 32.8299C1008.49 29.2134 1010.61 25.932 1013.35 23.2121C1013.67 22.9356 1014.06 22.743 1014.48 22.6514C1011.79 16.0473 1009.22 9.42536 1006.78 2.69464C1005.94 4.83727 1004.7 7.63321 1002.67 11.4996C999.111 18.5793 993.764 27.5449 989.565 34.9865L982.136 48.1637C982.136 48.1637 982.412 46.5286 982.946 43.8582C983.48 41.1877 984.288 37.4274 985.353 33.2678C987.51 24.3518 990.576 15.6806 994.503 7.39045C996.305 2.98379 998.924 -1.04285 1002.22 -4.47749C1002.67 -4.85937 1003.21 -5.12624 1003.79 -5.25523C1001.75 -11.1853 999.816 -17.1695 998.013 -23.1717C996.361 -19.9285 994.533 -16.7779 992.537 -13.7339C988.268 -7.074 982.123 1.38078 977.253 8.3846L968.589 20.8136C968.589 20.8136 969.011 19.197 969.799 16.5817C970.587 13.9664 971.723 10.3159 973.168 6.28456C976.185 -2.37672 980.073 -10.7099 984.77 -18.5873C987.041 -22.8359 990.083 -26.6251 993.74 -29.7615C994.346 -30.2313 995.103 -30.4623 995.868 -30.4107C991.312 -46.2502 987.68 -62.3408 984.989 -78.6012C984.667 -80.5286 987.576 -80.885 987.971 -78.9938C990.646 -65.6649 993.65 -52.4988 997.107 -39.4225C997.576 -39.5762 998.07 -39.6368 998.562 -39.6007C1003.08 -38.6631 1007.44 -37.0665 1011.49 -34.8621V-34.8621Z" fill="#5EAD41"/>
<path fill-rule="evenodd" clip-rule="evenodd" d="M929.543 5.24001C930.68 5.60114 932.086 6.29332 931.996 7.79802C931.924 8.27485 931.712 8.71907 931.387 9.07321C931.062 9.42734 930.638 9.67509 930.171 9.78423C929.164 9.89742 928.144 9.79484 927.179 9.48327C924.224 8.59857 921.427 7.24755 918.893 5.48072C916.727 3.94184 914.784 2.10878 913.119 0.0337297C912.79 3.645 912.491 7.25629 912.192 10.8676C917.666 12.8538 923.141 15.2011 928.256 17.2174C929.363 17.6688 930.65 18.5114 930.38 19.986C930.267 20.4502 930.018 20.8698 929.667 21.1913C929.315 21.5129 928.876 21.7219 928.406 21.7917C927.384 21.8303 926.366 21.6561 925.414 21.28C922.679 20.2153 920.102 18.7774 917.756 17.0068C915.639 15.4182 913.729 13.5679 912.072 11.4995C911.862 14.2682 911.683 17.0369 911.533 19.8356C916.743 22.9617 922.196 25.6589 927.838 27.9007C929.004 28.3522 930.41 29.1947 930.201 30.6693C930.112 31.1533 929.867 31.5947 929.505 31.9262C929.144 32.2576 928.684 32.4609 928.197 32.5051C927.111 32.5401 926.031 32.3453 925.026 31.9333C922.001 30.7539 919.199 29.0645 916.739 26.9377C914.702 25.1994 912.929 23.1718 911.474 20.9189C911.294 24.1089 911.145 27.3289 911.055 30.5791C916.044 33.846 921.408 36.4936 927.03 38.4637C928.167 38.855 929.573 39.6073 929.453 41.0819C929.394 41.57 929.177 42.0251 928.837 42.3782C928.497 42.7313 928.051 42.963 927.568 43.038C926.494 43.1246 925.413 42.9809 924.397 42.6166C921.343 41.5508 918.52 39.9061 916.081 37.7715C914.074 36.0622 912.366 34.028 911.025 31.7528C911.025 34.5816 911.025 37.4405 910.845 40.2994V40.9314C916.536 44.378 922.397 47.5319 928.406 50.3809C929.662 50.9527 931.128 51.9157 930.829 53.3903C930.696 53.8748 930.406 54.3006 930.005 54.6005C929.604 54.9003 929.115 55.0569 928.615 55.0454C927.473 54.9902 926.354 54.7036 925.325 54.2028C922.217 52.7656 919.335 50.88 916.769 48.6054C914.463 46.5794 912.449 44.2396 910.786 41.6537C910.786 44.6631 910.786 47.4317 910.786 50.2906C913.089 52.2166 915.422 54.0824 917.876 55.7978C920.646 57.7588 923.534 59.5477 926.521 61.1545C927.688 61.7865 929.094 62.8097 928.765 64.1639C928.602 64.6387 928.288 65.0462 927.872 65.3236C927.455 65.601 926.96 65.7329 926.461 65.6987C925.315 65.5731 924.206 65.2148 923.201 64.6454C920.152 63.0059 917.409 60.8474 915.093 58.2655C913.395 56.3375 911.956 54.1923 910.815 51.8856C910.815 55.6474 910.965 59.4091 911.115 63.1708C913.298 65.3075 915.542 67.384 917.876 69.1896C920.602 71.4268 923.504 73.4395 926.551 75.2084C927.748 75.9307 929.154 77.014 928.795 78.4886C928.617 78.9659 928.283 79.3685 927.849 79.6308C927.414 79.893 926.904 79.9997 926.402 79.9332C925.814 79.8714 925.238 79.7191 924.696 79.4817C924.129 79.2627 923.579 79.0013 923.051 78.6993C919.95 76.8617 917.203 74.4762 914.944 71.6573C913.443 69.7575 912.187 67.6745 911.204 65.458C911.384 68.8887 911.563 72.2893 911.773 75.6899C915.519 79.9114 919.9 83.5162 924.756 86.3732C925.773 86.9751 926.97 87.9381 926.581 89.3826C926.437 89.8479 926.146 90.2528 925.752 90.5355C925.357 90.8181 924.881 90.9629 924.397 90.9476C923.865 90.9153 923.341 90.8037 922.842 90.6165C922.332 90.4343 921.841 90.2024 921.376 89.9243C918.631 88.2903 916.257 86.0967 914.405 83.4842C913.412 82.0989 912.598 80.5922 911.982 79.0003C912.221 82.5213 912.491 86.0122 912.79 89.5332C916.6 93.773 921.028 97.4057 925.923 100.307C926.91 100.879 928.047 101.842 927.628 103.316C927.483 103.777 927.196 104.179 926.809 104.466C926.422 104.753 925.955 104.908 925.474 104.911C924.963 104.89 924.458 104.788 923.978 104.61C923.509 104.413 923.05 104.192 922.602 103.948C919.953 102.376 917.668 100.252 915.901 97.7187C914.664 95.9449 913.714 93.9843 913.089 91.9105C913.358 94.9199 913.628 97.9293 913.957 100.939C917.822 105.213 921.083 110.003 923.649 115.173C924.218 116.257 924.577 117.791 923.35 118.634C922.959 118.893 922.502 119.031 922.034 119.031C921.566 119.031 921.108 118.893 920.718 118.634C919.987 118.03 919.386 117.283 918.953 116.437C916.883 112.646 915.314 108.599 914.286 104.399C914.495 106.356 914.705 108.312 914.944 110.268C917.766 116.57 919.709 123.233 920.718 130.07C920.957 131.514 920.718 133.38 919.072 133.922C918.528 134.049 917.96 134.021 917.431 133.84C916.902 133.659 916.435 133.333 916.081 132.898C915.465 131.997 915.056 130.969 914.884 129.889C913.717 123.678 913.525 117.321 914.316 111.05C914.316 110.057 914.046 109.064 913.897 108.041C913.641 112.836 912.868 117.588 911.593 122.215C911.294 123.359 910.546 124.743 909.05 124.562C908.59 124.477 908.163 124.261 907.819 123.942C907.475 123.622 907.228 123.212 907.106 122.757C906.97 121.822 907.031 120.868 907.285 119.958C908.562 114.692 910.662 109.664 913.508 105.062C912.91 100.397 912.401 95.6723 911.952 90.9776C911.675 93.8279 911.032 96.63 910.038 99.3137C908.828 102.514 907.219 105.548 905.251 108.342C904.473 109.455 903.097 110.629 901.781 109.907C901.38 109.641 901.067 109.262 900.88 108.818C900.694 108.373 900.643 107.883 900.734 107.409C900.997 106.432 901.422 105.506 901.99 104.67L906.807 97.2071C908.362 94.8898 909.978 92.4823 911.833 89.6535C911.563 86.6441 911.324 83.7852 911.115 80.836C909.977 86.4767 907.784 91.8485 904.653 96.6654C903.935 97.7789 902.708 98.9525 901.362 98.3205C900.944 98.0859 900.605 97.7321 900.386 97.3037C900.168 96.8752 900.081 96.3913 900.135 95.9131C900.337 94.9546 900.701 94.0384 901.212 93.2046C904.115 88.2756 907.375 83.5682 910.965 79.1206C910.696 75.0278 910.486 70.9652 910.307 66.8724C910.139 70.037 909.441 73.1504 908.243 76.0812C906.911 79.3601 905.074 82.407 902.798 85.1093C901.901 86.1927 900.375 87.246 899.148 86.3732C898.779 86.0613 898.51 85.6455 898.377 85.179C898.244 84.7126 898.252 84.2168 898.4 83.7551C898.746 82.8273 899.241 81.963 899.866 81.1971C901.781 78.6993 903.426 76.4423 905.102 74.095C906.777 71.7476 908.422 69.31 910.277 66.3307C910.277 65.0968 910.277 63.8931 910.277 62.6893C910.264 62.509 910.264 62.328 910.277 62.1477V62.1477C910.277 59.8906 910.277 57.6034 910.097 55.3163C909.628 58.6975 908.618 61.98 907.106 65.0366C905.351 68.5704 903.049 71.8008 900.285 74.6065C899.178 75.7501 897.293 76.8335 896.246 75.9006C895.893 75.5442 895.66 75.0854 895.58 74.5888C895.499 74.0922 895.575 73.5827 895.798 73.1319C896.311 72.1294 896.966 71.207 897.742 70.3934C900.106 67.7451 902.11 65.2774 904.114 62.6893C906.119 60.1012 908.003 57.5432 910.097 54.2931C910.097 52.7282 910.097 51.2837 910.097 49.6286C910.086 49.5085 910.086 49.3875 910.097 49.2675V49.2675C910.097 47.6123 910.097 45.9571 910.097 44.2719C909.258 47.0604 908.029 49.715 906.448 52.1564C904.248 55.6337 901.453 58.6905 898.191 61.1846C896.875 62.2379 894.87 63.0805 893.853 61.9971C893.561 61.5842 893.403 61.0898 893.403 60.5827C893.403 60.0757 893.561 59.5812 893.853 59.1683C894.178 58.6737 894.56 58.2193 894.99 57.8141C895.409 57.3928 895.857 56.9714 896.246 56.6404C898.79 54.3898 901.198 51.9881 903.456 49.448C905.689 47.0798 907.777 44.5774 909.709 41.9546V40.1189C909.709 37.6512 909.709 35.1835 909.709 32.6857C908.707 35.8205 907.202 38.7687 905.251 41.4129C903.089 44.4106 900.474 47.0505 897.503 49.2373C896.336 50.1401 894.511 50.8624 893.524 49.749C893.247 49.3466 893.099 48.8689 893.099 48.3796C893.099 47.8904 893.247 47.4128 893.524 47.0104C894.106 46.1292 894.835 45.3555 895.678 44.7232C898.251 42.6167 900.494 40.6606 902.798 38.7045C905.102 36.7483 907.255 34.702 909.798 32.144L909.978 24.5904C906.622 29.5271 902.205 33.6412 897.054 36.628C896.007 37.2298 894.481 37.6813 893.584 36.628C893.344 36.2286 893.217 35.7706 893.217 35.3038C893.217 34.837 893.344 34.3791 893.584 33.9797C894.132 33.2468 894.812 32.6241 895.588 32.144C900.182 29.1794 905.039 26.6506 910.097 24.5904C910.097 21.3603 910.217 18.1403 910.456 14.9303C906.957 19.7604 902.265 23.5881 896.845 26.0349C895.678 26.5766 894.033 26.8475 893.285 25.5835C893.063 25.1616 892.967 24.684 893.01 24.2086C893.052 23.7332 893.231 23.2805 893.524 22.9051C894.157 22.2109 894.919 21.6486 895.768 21.25C898.37 19.9259 900.704 18.7522 903.127 17.5785L910.486 14.208C910.486 11.1986 910.815 8.18925 911.025 5.17986C909.528 7.32399 907.7 9.21361 905.61 10.7773C903.031 12.7409 900.137 14.2472 897.054 15.2312C895.828 15.6525 894.063 15.7127 893.554 14.3283C893.408 13.8832 893.387 13.4064 893.493 12.95C893.598 12.4936 893.826 12.0752 894.152 11.7403C894.854 11.1357 895.667 10.6755 896.546 10.3861C899.208 9.36286 901.542 8.36976 903.995 7.37666C906.448 6.38356 908.482 5.48078 911.085 4.21683C911.324 0.906498 911.593 -2.40386 911.892 -5.6841C910.287 -3.25376 908.26 -1.13357 905.909 0.575398C903.429 2.36458 900.683 3.74611 897.772 4.66822C896.605 5.05944 894.99 5.11964 894.451 3.73532C894.291 3.29864 894.254 2.82588 894.344 2.36921C894.433 1.91254 894.647 1.48965 894.96 1.14719C895.621 0.571513 896.382 0.122702 897.204 -0.17695L912.162 -5.8045C912.371 -8.03145 912.61 -10.2584 912.85 -12.4854C911.564 -10.1392 909.738 -8.13717 907.525 -6.64713C904.77 -4.78236 901.589 -3.65353 898.281 -3.3669C897.581 -3.30667 896.877 -3.39904 896.216 -3.63773C895.907 -3.75842 895.637 -3.96284 895.437 -4.22844C895.236 -4.49405 895.112 -4.81046 895.08 -5.14243C895.067 -5.60999 895.177 -6.07266 895.397 -6.48448C895.617 -6.8963 895.941 -7.24292 896.336 -7.48975C896.722 -7.70398 897.135 -7.8659 897.563 -7.97127L898.789 -8.2421C901.27 -8.63803 903.706 -9.28322 906.059 -10.1681C907.277 -10.5795 908.466 -11.0722 909.619 -11.6427C910.762 -12.1858 911.871 -12.7988 912.939 -13.4784C913.269 -16.217 913.598 -18.9555 913.957 -21.664C910.935 -18.1389 906.934 -15.6028 902.469 -14.3812C902.211 -14.2702 901.932 -14.2134 901.651 -14.2143C901.37 -14.2152 901.093 -14.2738 900.835 -14.3865C900.577 -14.4992 900.345 -14.6636 900.153 -14.8697C899.961 -15.0758 899.812 -15.3192 899.717 -15.585C899.58 -16.0075 899.543 -16.4565 899.611 -16.8957C899.678 -17.3349 899.848 -17.7519 900.106 -18.1129C900.639 -18.6112 901.271 -18.9906 901.96 -19.2264C904.054 -19.9185 905.939 -20.4903 907.944 -21.0019C909.948 -21.5135 911.743 -21.8747 913.927 -22.3562C914.585 -27.111 915.303 -31.8357 916.17 -36.5304C916.17 -37.2526 917.547 -37.1022 917.457 -36.3498C916.709 -30.8426 915.991 -25.3355 915.363 -19.8283C919.813 -19.341 924.293 -19.1901 928.765 -19.3768C929.302 -19.4684 929.854 -19.3517 930.31 -19.0501C930.765 -18.7486 931.089 -18.2846 931.218 -17.7518C931.335 -17.3113 931.327 -16.8464 931.195 -16.4102C931.063 -15.974 930.812 -15.5838 930.47 -15.2841C929.738 -14.8371 928.903 -14.5884 928.047 -14.5618C925.552 -14.4394 923.058 -14.8284 920.718 -15.7053C918.715 -16.5011 916.87 -17.653 915.273 -19.106C914.894 -15.9963 914.535 -12.8966 914.196 -9.80695C919.162 -9.35554 924.128 -8.54303 928.705 -7.85087C929.722 -7.6703 930.979 -7.1587 931.009 -5.6841C931 -5.22253 930.868 -4.77186 930.626 -4.3798C930.384 -3.98773 930.04 -3.66891 929.633 -3.45718C928.792 -3.18806 927.899 -3.12614 927.03 -3.27662C922.278 -3.93917 917.803 -5.91896 914.106 -8.99445C913.807 -5.98506 913.508 -3.18634 913.239 -0.267228C918.594 1.44813 924.218 3.67513 929.543 5.24001Z" fill="#5EAD41"/>
<path fill-rule="evenodd" clip-rule="evenodd" d="M685.685 97.4201C667.721 90.6738 659.715 73.4828 652.969 56.7795C652.969 56.5356 652.969 56.3324 652.684 56.0885C652.648 55.9417 652.648 55.7883 652.684 55.6415C650.503 52.1195 648.808 48.3192 647.645 44.3434C644.434 61.2906 640.492 78.0345 628.259 90.9176C628.083 91.1138 627.855 91.2558 627.601 91.3266C627.347 91.3974 627.078 91.3942 626.826 91.3173C626.574 91.2404 626.349 91.0931 626.178 90.8927C626.007 90.6922 625.897 90.4471 625.861 90.1861C622.975 70.9224 634.436 55.3977 645.938 41.1735C646.023 41.0537 646.132 40.9523 646.258 40.8755C646.384 40.7987 646.524 40.7479 646.669 40.7263C645.477 35.1614 644.757 29.506 644.515 23.8199C644.515 22.9258 644.515 22.0317 644.515 21.1376H643.906C633.763 39.7039 619.047 55.3716 601.151 66.6551C600.902 66.8214 600.606 66.9025 600.307 66.8862C600.009 66.8698 599.723 66.7569 599.494 66.5644C599.265 66.372 599.105 66.1104 599.037 65.8189C598.969 65.5275 598.998 65.222 599.119 64.9483C606.719 46.1316 623.057 22.8851 644.231 18.2521H643.987C643.769 8.31125 644.286 -1.63197 645.531 -11.4968H645.287H644.678C634.54 7.05919 619.839 22.7248 601.964 34.0207C601.712 34.1736 601.418 34.2444 601.124 34.2232C600.83 34.202 600.55 34.0899 600.322 33.9025C600.094 33.715 599.931 33.4614 599.853 33.1768C599.776 32.8922 599.789 32.5906 599.891 32.3138C607.532 13.4972 623.829 -9.74936 645.003 -14.3824C645.277 -14.4931 645.583 -14.4931 645.856 -14.3824C646.263 -17.0918 646.71 -19.9365 647.198 -22.9168C647.274 -23.2618 647.479 -23.5645 647.772 -23.7626C648.065 -23.9606 648.422 -24.0391 648.771 -23.9818C649.119 -23.9246 649.433 -23.7361 649.647 -23.4549C649.86 -23.1736 649.959 -22.8211 649.921 -22.4698C649.026 -17.5523 648.336 -12.5942 647.807 -7.59535C664.064 3.01187 685.847 22.0724 689.83 42.1082C690.115 43.4087 688.489 43.8963 687.595 43.2867C670.648 32.1512 653.131 19.6339 646.954 -0.198717C646.466 6.42749 646.344 13.0755 646.588 19.7152C646.588 23.1696 646.913 26.624 647.238 30.0785C663.861 37.5564 681.214 46.3348 687.229 64.7857C687.316 65.04 687.326 65.314 687.259 65.5741C687.192 65.8342 687.051 66.0692 686.853 66.2503C686.654 66.4314 686.407 66.5507 686.142 66.5937C685.877 66.6368 685.605 66.6017 685.36 66.4926C669.103 60.5997 657.968 47.7572 647.645 34.3052C648.628 41.9225 651.415 49.1953 655.773 55.5196C669.022 66.5332 681.865 78.1564 687.107 95.1036C687.308 95.332 687.43 95.6186 687.456 95.9215C687.482 96.2244 687.41 96.5277 687.251 96.7867C687.092 97.0458 686.854 97.2471 686.572 97.3611C686.29 97.4751 685.979 97.4957 685.685 97.4201V97.4201Z" fill="#DC0030"/>
<path fill-rule="evenodd" clip-rule="evenodd" d="M642.595 230.125C643.463 229.062 644 227.767 644.137 226.401C644.274 225.035 644.007 223.659 643.367 222.444C643.367 222.444 643.367 222.444 643.123 222.2C641.905 221.58 640.533 221.331 639.175 221.482C637.817 221.634 636.533 222.18 635.482 223.054C634.642 223.921 633.955 224.924 633.45 226.021C633.323 224.83 632.979 223.673 632.434 222.607C631.69 221.451 630.624 220.539 629.367 219.983C628.11 219.426 626.718 219.251 625.363 219.477H625.078C624.107 220.447 623.443 221.68 623.169 223.025C622.894 224.369 623.021 225.764 623.534 227.037C624.099 228.102 624.841 229.064 625.728 229.882C624.533 229.658 623.307 229.658 622.111 229.882C620.791 230.224 619.603 230.952 618.698 231.973C617.794 232.993 617.213 234.26 617.031 235.612C616.99 235.716 616.99 235.832 617.031 235.937C617.646 237.165 618.611 238.183 619.805 238.863C620.999 239.543 622.367 239.854 623.737 239.757C624.914 239.56 626.043 239.146 627.07 238.538C626.492 239.586 626.107 240.728 625.932 241.911C625.852 243.278 626.175 244.638 626.861 245.823C627.548 247.008 628.567 247.965 629.792 248.576C629.898 248.613 630.012 248.613 630.118 248.576C630.936 248.41 631.728 248.137 632.475 247.763C633.87 247.055 634.965 245.87 635.561 244.424C636.158 242.977 636.216 241.365 635.726 239.879C636.657 241.081 637.975 241.924 639.457 242.265C640.938 242.606 642.492 242.423 643.854 241.749C644.596 241.373 645.28 240.894 645.886 240.326C645.905 240.281 645.915 240.233 645.915 240.184C645.915 240.135 645.905 240.087 645.886 240.042C646.111 238.688 645.93 237.297 645.366 236.046C644.802 234.795 643.88 233.739 642.716 233.011C641.646 232.485 640.49 232.154 639.303 232.035C640.378 231.515 641.366 230.83 642.229 230.003L642.595 230.125ZM625.688 220.494C626.806 220.307 627.955 220.45 628.994 220.905C630.033 221.359 630.918 222.106 631.54 223.054C632.732 225.839 632.961 228.943 632.19 231.873C631.18 230.285 630.31 228.612 629.589 226.874C629.493 226.791 629.371 226.746 629.244 226.746C629.117 226.746 628.994 226.791 628.898 226.874C628.837 226.904 628.783 226.946 628.74 226.998C628.696 227.049 628.664 227.11 628.644 227.175C628.625 227.24 628.62 227.308 628.629 227.375C628.637 227.442 628.66 227.507 628.695 227.565L631.093 232.198C630.126 231.676 629.12 231.228 628.086 230.857C626.53 229.848 625.268 228.446 624.428 226.793C624.014 225.739 623.913 224.588 624.137 223.478C624.36 222.368 624.899 221.346 625.688 220.534V220.494ZM623.615 238.863C622.481 238.923 621.353 238.656 620.366 238.094C619.38 237.532 618.575 236.699 618.047 235.693C618.205 234.597 618.671 233.569 619.391 232.727C620.11 231.885 621.053 231.265 622.111 230.938C625.125 230.676 628.14 231.419 630.687 233.051C628.875 233.525 627.026 233.838 625.159 233.986C625.038 234.022 624.932 234.098 624.858 234.201C624.785 234.304 624.748 234.429 624.753 234.555C624.788 234.681 624.862 234.792 624.964 234.872C625.066 234.953 625.192 234.998 625.322 235.002L630.483 234.149C629.669 234.883 628.933 235.7 628.289 236.587C626.877 237.714 625.22 238.493 623.452 238.863H623.615ZM634.873 243.374C634.385 246.503 630.809 247.438 630.158 247.682C629.148 247.167 628.308 246.372 627.738 245.392C627.169 244.411 626.894 243.287 626.948 242.155C627.65 239.218 629.273 236.584 631.581 234.636C631.581 234.636 631.581 234.271 630.809 240.204C630.797 240.266 630.799 240.33 630.813 240.391C630.828 240.452 630.855 240.509 630.894 240.559C630.932 240.609 630.98 240.65 631.036 240.68C631.091 240.71 631.152 240.728 631.215 240.732C631.338 240.748 631.462 240.719 631.566 240.653C631.67 240.586 631.747 240.485 631.784 240.367L632.556 235.205C633.034 236.176 633.577 237.113 634.182 238.01C634.856 239.712 635.094 241.556 634.873 243.374V243.374ZM632.556 233.783C632.443 233.841 632.311 233.852 632.19 233.814C632.068 233.776 631.966 233.692 631.906 233.58C631.876 233.521 631.859 233.457 631.854 233.392C631.85 233.326 631.858 233.26 631.879 233.198C631.9 233.136 631.932 233.078 631.975 233.029C632.018 232.979 632.071 232.939 632.129 232.909C632.188 232.88 632.252 232.862 632.317 232.858C632.383 232.853 632.449 232.861 632.511 232.882C632.573 232.903 632.631 232.936 632.68 232.979C632.73 233.022 632.771 233.074 632.8 233.133C632.827 233.191 632.842 233.255 632.845 233.319C632.847 233.384 632.837 233.448 632.814 233.509C632.791 233.569 632.757 233.625 632.713 233.672C632.668 233.719 632.615 233.757 632.556 233.783V233.783ZM642.635 234.027C643.193 234.205 643.707 234.501 644.14 234.896C644.573 235.291 644.915 235.775 645.144 236.315C645.372 236.854 645.481 237.437 645.463 238.023C645.445 238.609 645.301 239.183 645.04 239.708C644.779 240.233 644.408 240.695 643.952 241.063C643.495 241.431 642.965 241.695 642.397 241.839C641.829 241.983 641.236 242.002 640.66 241.895C640.084 241.788 639.538 241.558 639.059 241.22C636.456 239.665 634.442 237.293 633.328 234.474C633.328 234.474 632.963 234.23 638.368 236.953C638.45 236.993 638.541 237.013 638.632 237.013C638.723 237.013 638.814 236.993 638.896 236.953C638.971 236.905 639.033 236.839 639.076 236.761C639.118 236.683 639.14 236.595 639.14 236.506C639.125 236.411 639.088 236.321 639.031 236.243C638.975 236.166 638.9 236.102 638.815 236.059L634.182 233.702C635.267 233.567 636.34 233.35 637.392 233.051C639.194 232.941 640.994 233.276 642.635 234.027V234.027ZM633.735 232.726C633.735 232.726 633.41 232.97 637.799 228.662C637.844 228.617 637.88 228.563 637.905 228.504C637.93 228.445 637.942 228.381 637.942 228.317C637.942 228.253 637.93 228.189 637.905 228.13C637.88 228.07 637.844 228.017 637.799 227.971C637.757 227.92 637.704 227.879 637.644 227.851C637.585 227.823 637.519 227.808 637.453 227.808C637.387 227.808 637.322 227.823 637.262 227.851C637.203 227.879 637.15 227.92 637.108 227.971L633.41 231.67C633.618 230.585 633.727 229.483 633.735 228.378C634.224 226.638 635.115 225.037 636.336 223.704C636.677 223.223 637.119 222.821 637.631 222.528C638.144 222.235 638.714 222.057 639.302 222.006C639.89 221.955 640.482 222.033 641.036 222.234C641.591 222.436 642.096 222.755 642.514 223.171C642.933 223.587 643.256 224.089 643.462 224.642C643.667 225.196 643.749 225.787 643.702 226.375C643.656 226.964 643.482 227.535 643.192 228.049C642.903 228.563 642.505 229.008 642.026 229.353C639.735 231.402 636.805 232.594 633.735 232.726Z" fill="#5EAD41"/>
<path fill-rule="evenodd" clip-rule="evenodd" d="M1391.59 242.125C1392.46 241.062 1393 239.767 1393.14 238.401C1393.27 237.035 1393.01 235.659 1392.37 234.444C1392.37 234.444 1392.37 234.444 1392.12 234.2C1390.91 233.58 1389.53 233.331 1388.17 233.482C1386.82 233.634 1385.53 234.18 1384.48 235.054C1383.64 235.921 1382.96 236.924 1382.45 238.021C1382.32 236.83 1381.98 235.673 1381.43 234.607C1380.69 233.451 1379.62 232.539 1378.37 231.983C1377.11 231.426 1375.72 231.251 1374.36 231.477H1374.08C1373.11 232.447 1372.44 233.68 1372.17 235.025C1371.89 236.369 1372.02 237.764 1372.53 239.037C1373.1 240.102 1373.84 241.064 1374.73 241.882C1373.53 241.658 1372.31 241.658 1371.11 241.882C1369.79 242.224 1368.6 242.952 1367.7 243.973C1366.79 244.993 1366.21 246.26 1366.03 247.612C1365.99 247.716 1365.99 247.832 1366.03 247.937C1366.65 249.165 1367.61 250.183 1368.8 250.863C1370 251.543 1371.37 251.854 1372.74 251.757C1373.91 251.56 1375.04 251.146 1376.07 250.538C1375.49 251.586 1375.11 252.728 1374.93 253.911C1374.85 255.278 1375.17 256.638 1375.86 257.823C1376.55 259.008 1377.57 259.965 1378.79 260.576C1378.9 260.613 1379.01 260.613 1379.12 260.576C1379.94 260.41 1380.73 260.137 1381.47 259.763C1382.87 259.055 1383.97 257.87 1384.56 256.424C1385.16 254.977 1385.22 253.365 1384.73 251.879C1385.66 253.081 1386.97 253.924 1388.46 254.265C1389.94 254.606 1391.49 254.423 1392.85 253.749C1393.6 253.373 1394.28 252.894 1394.89 252.326C1394.91 252.281 1394.92 252.233 1394.92 252.184C1394.92 252.135 1394.91 252.087 1394.89 252.042C1395.11 250.688 1394.93 249.297 1394.37 248.046C1393.8 246.795 1392.88 245.739 1391.72 245.011C1390.65 244.485 1389.49 244.154 1388.3 244.035C1389.38 243.515 1390.37 242.83 1391.23 242.003L1391.59 242.125ZM1374.69 232.494C1375.81 232.307 1376.96 232.45 1377.99 232.905C1379.03 233.359 1379.92 234.106 1380.54 235.054C1381.73 237.839 1381.96 240.943 1381.19 243.873C1380.18 242.285 1379.31 240.612 1378.59 238.874C1378.49 238.791 1378.37 238.746 1378.24 238.746C1378.12 238.746 1377.99 238.791 1377.9 238.874C1377.84 238.904 1377.78 238.946 1377.74 238.998C1377.7 239.049 1377.66 239.11 1377.64 239.175C1377.63 239.24 1377.62 239.308 1377.63 239.375C1377.64 239.442 1377.66 239.507 1377.7 239.565L1380.09 244.198C1379.13 243.676 1378.12 243.228 1377.09 242.857C1375.53 241.848 1374.27 240.446 1373.43 238.793C1373.01 237.739 1372.91 236.588 1373.14 235.478C1373.36 234.368 1373.9 233.346 1374.69 232.534V232.494ZM1372.62 250.863C1371.48 250.923 1370.35 250.656 1369.37 250.094C1368.38 249.532 1367.57 248.699 1367.05 247.693C1367.21 246.597 1367.67 245.569 1368.39 244.727C1369.11 243.885 1370.05 243.265 1371.11 242.938C1374.12 242.676 1377.14 243.419 1379.69 245.051C1377.88 245.525 1376.03 245.838 1374.16 245.986C1374.04 246.022 1373.93 246.098 1373.86 246.201C1373.78 246.304 1373.75 246.429 1373.75 246.555C1373.79 246.681 1373.86 246.792 1373.96 246.872C1374.07 246.953 1374.19 246.998 1374.32 247.002L1379.48 246.149C1378.67 246.883 1377.93 247.7 1377.29 248.587C1375.88 249.714 1374.22 250.493 1372.45 250.863H1372.62ZM1383.87 255.374C1383.38 258.503 1379.81 259.438 1379.16 259.682C1378.15 259.167 1377.31 258.372 1376.74 257.392C1376.17 256.411 1375.89 255.287 1375.95 254.155C1376.65 251.218 1378.27 248.584 1380.58 246.636C1380.58 246.636 1380.58 246.271 1379.81 252.204C1379.8 252.266 1379.8 252.33 1379.81 252.391C1379.83 252.452 1379.86 252.509 1379.89 252.559C1379.93 252.609 1379.98 252.65 1380.04 252.68C1380.09 252.71 1380.15 252.728 1380.21 252.732C1380.34 252.748 1380.46 252.719 1380.57 252.653C1380.67 252.586 1380.75 252.485 1380.78 252.367L1381.56 247.205C1382.03 248.176 1382.58 249.113 1383.18 250.01C1383.86 251.712 1384.09 253.556 1383.87 255.374V255.374ZM1381.56 245.783C1381.44 245.841 1381.31 245.852 1381.19 245.814C1381.07 245.776 1380.97 245.692 1380.91 245.58C1380.88 245.521 1380.86 245.457 1380.85 245.392C1380.85 245.326 1380.86 245.26 1380.88 245.198C1380.9 245.136 1380.93 245.078 1380.98 245.029C1381.02 244.979 1381.07 244.939 1381.13 244.909C1381.19 244.88 1381.25 244.862 1381.32 244.858C1381.38 244.853 1381.45 244.861 1381.51 244.882C1381.57 244.903 1381.63 244.936 1381.68 244.979C1381.73 245.022 1381.77 245.074 1381.8 245.133C1381.83 245.191 1381.84 245.255 1381.84 245.319C1381.85 245.384 1381.84 245.448 1381.81 245.509C1381.79 245.569 1381.76 245.625 1381.71 245.672C1381.67 245.719 1381.62 245.757 1381.56 245.783V245.783ZM1391.64 246.027C1392.19 246.205 1392.71 246.501 1393.14 246.896C1393.57 247.291 1393.92 247.775 1394.14 248.315C1394.37 248.854 1394.48 249.437 1394.46 250.023C1394.45 250.609 1394.3 251.183 1394.04 251.708C1393.78 252.233 1393.41 252.695 1392.95 253.063C1392.5 253.431 1391.97 253.695 1391.4 253.839C1390.83 253.983 1390.24 254.002 1389.66 253.895C1389.08 253.788 1388.54 253.558 1388.06 253.22C1385.46 251.665 1383.44 249.293 1382.33 246.474C1382.33 246.474 1381.96 246.23 1387.37 248.953C1387.45 248.993 1387.54 249.013 1387.63 249.013C1387.72 249.013 1387.81 248.993 1387.9 248.953C1387.97 248.905 1388.03 248.839 1388.08 248.761C1388.12 248.683 1388.14 248.595 1388.14 248.506C1388.12 248.411 1388.09 248.321 1388.03 248.243C1387.97 248.166 1387.9 248.102 1387.81 248.059L1383.18 245.702C1384.27 245.567 1385.34 245.35 1386.39 245.051C1388.19 244.941 1389.99 245.276 1391.64 246.027V246.027ZM1382.73 244.726C1382.73 244.726 1382.41 244.97 1386.8 240.662C1386.84 240.617 1386.88 240.563 1386.9 240.504C1386.93 240.445 1386.94 240.381 1386.94 240.317C1386.94 240.253 1386.93 240.189 1386.9 240.13C1386.88 240.07 1386.84 240.017 1386.8 239.971C1386.76 239.92 1386.7 239.879 1386.64 239.851C1386.58 239.823 1386.52 239.808 1386.45 239.808C1386.39 239.808 1386.32 239.823 1386.26 239.851C1386.2 239.879 1386.15 239.92 1386.11 239.971L1382.41 243.67C1382.62 242.585 1382.73 241.483 1382.73 240.378C1383.22 238.638 1384.11 237.037 1385.34 235.704C1385.68 235.223 1386.12 234.821 1386.63 234.528C1387.14 234.235 1387.71 234.057 1388.3 234.006C1388.89 233.955 1389.48 234.033 1390.04 234.234C1390.59 234.436 1391.1 234.755 1391.51 235.171C1391.93 235.587 1392.26 236.089 1392.46 236.642C1392.67 237.196 1392.75 237.787 1392.7 238.375C1392.66 238.964 1392.48 239.535 1392.19 240.049C1391.9 240.563 1391.5 241.008 1391.03 241.353C1388.74 243.402 1385.81 244.594 1382.73 244.726Z" fill="#DC0030"/>
<path fill-rule="evenodd" clip-rule="evenodd" d="M71.9377 454.263C73.6667 452.155 74.7346 449.586 75.0079 446.876C75.2812 444.166 74.7479 441.437 73.4745 439.027L72.9892 438.544C70.566 437.314 67.8341 436.819 65.1315 437.12C62.4289 437.42 59.8741 438.504 57.7828 440.237C56.1109 441.956 54.7435 443.946 53.7385 446.121C53.4854 443.76 52.8 441.465 51.7164 439.35C50.2482 437.049 48.1247 435.237 45.6176 434.146C43.1105 433.054 40.3337 432.733 37.6424 433.223C37.5528 433.185 37.4565 433.166 37.3593 433.166C37.262 433.166 37.1658 433.185 37.0762 433.223C35.144 435.146 33.8223 437.593 33.2758 440.259C32.7292 442.926 32.982 445.693 34.0026 448.217C35.1273 450.331 36.6042 452.24 38.3703 453.86C36.0149 453.457 33.6079 453.457 31.2525 453.86C23.1639 455.231 21.1418 464.824 21.0609 465.227C20.9797 465.434 20.9797 465.664 21.0609 465.872C22.2851 468.308 24.2062 470.328 26.5815 471.677C28.9569 473.025 31.68 473.642 34.407 473.45C36.7343 473.048 38.9767 472.258 41.0396 471.112C39.88 473.156 39.1121 475.398 38.7748 477.722C38.6396 480.48 39.3384 483.214 40.7805 485.571C42.2226 487.929 44.3417 489.8 46.8633 490.943C46.9529 490.981 47.0492 491 47.1464 491C47.2437 491 47.3399 490.981 47.4295 490.943C49.0575 490.613 50.6348 490.071 52.1209 489.331C54.8974 487.925 57.0768 485.575 58.2639 482.706C59.4511 479.837 59.5673 476.639 58.5916 473.691C60.4328 476.09 63.051 477.778 66.0005 478.468C68.95 479.159 72.0485 478.81 74.7687 477.48C76.2299 476.68 77.588 475.706 78.8129 474.578C78.8507 474.489 78.8703 474.393 78.8703 474.296C78.8703 474.199 78.8507 474.103 78.8129 474.014C79.2607 471.328 78.9005 468.57 77.7777 466.089C76.6549 463.607 74.8198 461.511 72.5039 460.068C70.3595 459.059 68.0647 458.406 65.7096 458.133C67.8504 457.101 69.8156 455.741 71.5333 454.102L71.9377 454.263ZM38.2895 435.48C40.5159 435.111 42.802 435.395 44.8698 436.296C46.9376 437.198 48.698 438.679 49.9369 440.559C52.3093 446.084 52.7647 452.24 51.2311 458.052C49.2209 454.903 47.4888 451.585 46.0545 448.137C45.8634 447.972 45.6194 447.882 45.3669 447.882C45.1145 447.882 44.8705 447.972 44.6794 448.137C44.4506 448.272 44.2816 448.488 44.2066 448.743C44.1316 448.997 44.156 449.27 44.275 449.507L49.0472 458.697C47.129 457.648 45.127 456.758 43.0617 456.037C39.9845 454.013 37.4784 451.238 35.782 447.975C34.9592 445.885 34.7581 443.602 35.2028 441.4C35.6475 439.199 36.7191 437.172 38.2895 435.561V435.48ZM34.1643 471.918C31.9072 472.037 29.6632 471.507 27.699 470.393C25.7347 469.278 24.1326 467.625 23.083 465.63C23.398 463.456 24.3251 461.416 25.7569 459.747C27.1886 458.077 29.0662 456.847 31.1716 456.198C37.1939 455.685 43.2186 457.158 48.3192 460.39C44.6758 461.277 40.9722 461.897 37.2379 462.244C37.0182 462.307 36.825 462.439 36.6874 462.621C36.5498 462.803 36.4753 463.024 36.4753 463.252C36.4753 463.48 36.5498 463.701 36.6874 463.883C36.825 464.065 37.0182 464.197 37.2379 464.26L47.5104 462.567C45.8889 464.022 44.4249 465.643 43.1426 467.403C40.3328 469.638 37.0359 471.184 33.5172 471.918H34.1643ZM56.5695 480.866C55.5989 487.073 48.481 488.928 47.1869 489.411C45.1764 488.39 43.5042 486.812 42.3708 484.868C41.2374 482.923 40.6909 480.694 40.7969 478.448C42.0811 472.544 45.2273 467.205 49.7752 463.212C49.7752 463.212 49.7752 462.486 48.2383 474.256C48.2152 474.378 48.2184 474.505 48.2475 474.626C48.2767 474.747 48.3313 474.861 48.4076 474.96C48.484 475.059 48.5804 475.141 48.6906 475.2C48.8008 475.259 48.9224 475.295 49.0472 475.304C49.2913 475.334 49.5383 475.278 49.7452 475.145C49.9521 475.013 50.1058 474.812 50.1796 474.578L51.7164 464.34C52.6678 466.265 53.7487 468.123 54.9518 469.903C56.2939 473.28 56.7666 476.938 56.3269 480.544L56.5695 480.866ZM52.04 461.841C51.9246 461.911 51.7959 461.956 51.6622 461.973C51.5285 461.99 51.3926 461.98 51.2633 461.942C51.1339 461.904 51.0139 461.839 50.9108 461.753C50.8078 461.666 50.7241 461.559 50.6649 461.438C50.6065 461.322 50.5717 461.195 50.5624 461.065C50.5532 460.935 50.5696 460.805 50.6109 460.681C50.6522 460.558 50.7176 460.443 50.8031 460.345C50.8887 460.247 50.9929 460.166 51.1098 460.108C51.2266 460.05 51.3538 460.015 51.4841 460.006C51.6144 459.997 51.7453 460.013 51.8692 460.054C51.9931 460.095 52.1078 460.16 52.2064 460.246C52.3051 460.331 52.386 460.435 52.4444 460.551C52.6036 460.729 52.6916 460.958 52.6916 461.196C52.6916 461.434 52.6036 461.664 52.4444 461.841H52.04ZM72.0186 462.325C73.1298 462.678 74.1513 463.266 75.013 464.05C75.8747 464.833 76.5563 465.793 77.0109 466.863C77.4656 467.934 77.6826 469.089 77.647 470.251C77.6115 471.413 77.3242 472.554 76.805 473.594C76.2858 474.635 75.5468 475.552 74.6388 476.281C73.7308 477.011 72.6753 477.536 71.5445 477.821C70.4138 478.106 69.2346 478.144 68.0878 477.932C66.9411 477.72 65.8539 477.264 64.9007 476.594C59.7414 473.486 55.7378 468.789 53.4959 463.212C53.4959 463.212 52.7679 462.728 63.5256 468.129C63.6824 468.23 63.8649 468.283 64.0514 468.283C64.2379 468.283 64.4204 468.23 64.5772 468.129C64.7265 468.034 64.8493 467.903 64.9341 467.748C65.019 467.593 65.0631 467.419 65.0625 467.242C65.0473 467.049 64.9788 466.864 64.8646 466.708C64.7503 466.551 64.5949 466.429 64.4154 466.355L55.1945 461.68C57.3544 461.413 59.4906 460.982 61.5844 460.39C65.1692 460.17 68.7531 460.835 72.0186 462.325ZM54.3047 459.826C54.3047 459.826 53.6576 459.826 62.3932 451.764C62.4837 451.674 62.5556 451.568 62.6045 451.45C62.6535 451.333 62.6787 451.206 62.6787 451.079C62.6787 450.952 62.6535 450.826 62.6045 450.708C62.5556 450.591 62.4837 450.484 62.3932 450.394C62.3098 450.293 62.2049 450.211 62.086 450.155C61.9671 450.099 61.8372 450.07 61.7057 450.07C61.5742 450.07 61.4444 450.099 61.3255 450.155C61.2066 450.211 61.1017 450.293 61.0182 450.394L53.6577 457.73C54.0731 455.605 54.2897 453.446 54.3047 451.281C55.2607 447.798 57.0352 444.593 59.4814 441.929C61.2318 440.523 63.3464 439.641 65.5797 439.384C67.8131 439.127 70.0738 439.507 72.0995 440.478C73.1536 442.482 73.5929 444.75 73.3628 447.001C73.1327 449.251 72.2432 451.385 70.8053 453.135C66.2003 457.102 60.3859 459.403 54.3047 459.665V459.826Z" fill="#265113"/>
</g>
<defs>
<clipPath id="clip0_407_4853">
<rect width="1440" height="798" fill="white"/>
</clipPath>
</defs>
</svg>
