<svg viewBox="0 0 375 670" fill="none" xmlns="http://www.w3.org/2000/svg">
<g clip-path="url(#clip0_411_4854)">
<path fill-rule="evenodd" clip-rule="evenodd" d="M349.378 0.0426971C351.955 2.19392 355.124 5.26794 357.77 7.73851L362.473 12.11C362.473 12.11 361.827 11.8524 360.779 11.3913C359.732 10.9303 358.283 10.2658 356.673 9.43426C353.235 7.71796 349.971 5.64684 346.93 3.25186C345.905 2.42373 344.933 1.52563 344.022 0.563433C344.116 3.13399 344.226 5.70049 344.388 8.25496C344.663 8.17639 344.954 8.19242 345.22 8.30065C346.985 9.16895 348.613 10.3121 350.049 11.691C352.621 13.8244 355.795 16.9162 358.441 19.3868L363.139 23.7406L361.45 23.0396C360.403 22.5785 358.95 21.8963 357.343 21.0826C353.903 19.3718 350.639 17.3003 347.6 14.9001C346.577 14.0573 345.599 13.1552 344.672 12.198C344.935 15.5492 345.287 18.8979 345.69 22.2347C346.455 22.0537 348.012 22.3942 351.898 24.4035C357.117 27.4081 362.136 30.7763 366.921 34.4853C361.194 32.7424 355.587 30.5976 350.138 28.0654C348.759 27.3881 347.43 26.6052 346.162 25.723L346.316 26.4327C346.401 26.5774 346.457 26.7393 346.478 26.908C346.499 27.0766 346.486 27.248 346.439 27.4108C346.662 28.4398 346.767 29.4969 346.943 30.5557C347.119 31.6145 347.265 32.5314 347.443 33.5152C347.596 33.3401 347.797 33.2181 348.019 33.1657C348.241 33.1132 348.473 33.1328 348.684 33.2217C350.369 33.8831 351.939 34.8287 353.331 36.0208C355.8 37.843 358.864 40.513 361.436 42.6465L365.974 46.4229C365.974 46.4229 365.365 46.2499 364.361 45.909C363.358 45.5681 361.977 45.0553 360.46 44.4069C357.169 43.0907 354.027 41.4006 351.091 39.3672C350.023 38.6151 349.016 37.7743 348.078 36.8529C348.614 39.3189 349.064 41.805 349.685 44.2509C350.376 43.9756 351.792 44.4054 355.412 46.7573C360.024 50.0581 364.4 53.7048 368.506 57.6684C363.289 55.5776 358.227 53.0905 353.36 50.2271C352.2 49.4943 351.274 48.8551 350.643 48.333L350.716 48.6701C350.861 48.7996 350.972 48.9647 351.04 49.1503C351.109 49.336 351.132 49.5365 351.108 49.7338C351.106 49.857 351.09 49.9795 351.062 50.0991C351.404 51.6721 351.814 53.235 352.295 54.7877C352.957 54.4632 354.095 54.8469 357.434 57.3026C361.315 60.5669 364.938 64.151 368.269 68.0203C363.673 65.9045 359.246 63.4088 355.031 60.5569C354.453 60.1155 353.937 59.7152 353.521 59.3658C354.169 61.5255 354.851 63.6772 355.566 65.8208C356.207 65.3148 357.286 65.5074 361.152 68.6593C365.197 72.3629 368.973 76.3768 372.446 80.6674C367.658 78.1021 363.063 75.1606 358.703 71.8684C358.117 71.3915 357.606 70.9341 357.166 70.5532L358.434 74.1703C359.183 74.1611 360.194 75.1156 362.341 79.4016C364.728 84.6911 366.739 90.1567 368.358 95.754C364.857 91.1544 361.681 86.295 358.856 81.2144C358.507 80.5135 358.211 79.8932 357.952 79.3577C356.925 83.9762 355.554 88.504 353.851 92.8994C353.566 87.958 353.685 83.0002 354.207 78.0798C354.932 73.1892 355.745 72.7358 356.64 72.8226C355.706 70.4136 354.832 67.953 354.009 65.4804C353.78 66.2555 353.509 67.0169 353.2 67.7609C351.921 70.7263 350.27 73.5005 348.289 76.0103C347.367 77.1982 346.496 78.2064 345.88 78.9115C345.265 79.6166 344.833 80.0171 344.833 80.0171C344.833 80.0171 345.039 79.4834 345.342 78.5725C345.644 77.6616 346.089 76.4185 346.572 75.0175C347.528 72.1799 348.583 68.7223 349.588 66.1903C350.066 64.6436 350.813 63.2021 351.792 61.9385C351.915 61.8004 352.068 61.6954 352.237 61.6324C352.407 61.5695 352.59 61.5505 352.768 61.5771C352.337 60.1682 351.902 58.7416 351.501 57.3069C351.372 57.1329 351.281 56.9316 351.235 56.7171C351.188 56.5026 351.187 56.28 351.232 56.065C350.954 54.7876 350.558 53.5384 350.233 52.2909C349.984 52.8721 349.665 53.5443 349.292 54.3786C348.059 56.9274 346.175 60.1893 344.748 62.9145C344.025 64.2791 343.416 65.5052 342.965 66.395L342.258 67.8306C342.258 67.8306 342.288 67.2267 342.373 66.2181C342.458 65.2094 342.635 63.8058 342.901 62.232C343.429 58.882 344.393 55.623 345.767 52.5453C346.396 50.86 347.388 49.3486 348.668 48.1286C348.823 48.0242 348.993 47.9462 349.172 47.8975C349.068 47.4185 348.964 46.9395 348.856 46.4427C348.759 46.3068 348.691 46.1515 348.655 45.9866C348.62 45.8216 348.617 45.6507 348.648 45.4847C348.297 43.8702 347.943 42.2381 347.588 40.6059L347.431 40.8671C346.976 41.5715 346.327 42.4523 345.491 43.6201C344.654 44.7879 343.64 46.1282 342.659 47.5354C341.678 48.9425 340.691 50.407 339.863 51.778C339.034 53.149 338.34 54.3951 337.877 55.3068L337.109 56.7939L337.28 55.112C337.456 53.7165 337.717 52.3341 338.061 50.973C338.494 49.2043 339.07 47.477 339.782 45.8097C340.474 44.1714 341.335 42.6168 342.35 41.1735C343.05 40.1656 343.84 39.2293 344.709 38.3771C345.159 37.9181 345.684 37.5476 346.259 37.2831C346.459 37.1766 346.681 37.1241 346.905 37.1303C346.435 34.9659 346.122 32.783 345.758 30.6122C345.661 30.1687 345.565 29.7252 345.465 29.2639C345.067 29.899 344.518 30.6631 343.776 31.5286C342.07 33.7972 339.497 36.5137 337.487 38.7797L333.837 42.7952L334.368 41.2894C334.721 40.3664 335.227 39.0718 335.862 37.6345C337.165 34.5849 338.792 31.6974 340.713 29.0263C341.641 27.5957 342.855 26.3922 344.272 25.4985C344.435 25.4125 344.616 25.3697 344.799 25.3739C344.346 22.2169 343.947 19.0656 343.613 15.8805C343.045 16.7236 342.244 17.8083 341.008 19.2758C338.807 21.9788 335.67 25.3133 333.167 28.1064L328.736 33.0526C328.736 33.0526 329.017 32.3707 329.51 31.2656C330.003 30.1605 330.721 28.6104 331.585 26.9136C333.387 23.2636 335.543 19.8161 338.02 16.6253C339.217 14.899 340.716 13.4243 342.438 12.2788C342.664 12.1604 342.915 12.1011 343.169 12.1059C342.919 9.31111 342.721 6.50427 342.577 3.70308C341.56 4.93913 340.479 6.1163 339.339 7.22939C336.886 9.67498 333.468 12.7029 330.729 15.2346L325.86 19.7251C325.86 19.7251 326.199 19.0665 326.793 18.0123C327.386 16.958 328.229 15.4902 329.24 13.8896C331.374 10.4412 333.838 7.22743 336.594 4.29758C337.97 2.68967 339.622 1.36298 341.463 0.385218C341.764 0.244927 342.102 0.224477 342.416 0.327759C342.121 -7.04309 342.237 -14.4256 342.762 -21.7825C342.823 -22.6549 344.071 -22.5024 344.044 -21.6381C343.81 -15.5579 343.728 -9.51392 343.845 -3.46093C344.056 -3.47827 344.268 -3.4524 344.47 -3.38475C346.258 -2.49938 347.912 -1.34457 349.378 0.0426971V0.0426971Z" fill="#5EAD41"/>
<path fill-rule="evenodd" clip-rule="evenodd" d="M325.201 4.54656C324.821 4.42365 324.305 4.34171 324.042 4.78909C323.971 4.93941 323.945 5.1084 323.966 5.27417C323.988 5.43995 324.056 5.59489 324.163 5.71888C324.417 5.95141 324.716 6.12483 325.039 6.22771C326.016 6.56271 327.038 6.73311 328.068 6.73259C328.954 6.72377 329.834 6.58679 330.685 6.32553C330.087 7.42185 329.481 8.51222 328.875 9.60258C326.999 9.08118 325.054 8.66288 323.271 8.22143C322.882 8.13024 322.37 8.11502 322.163 8.58949C322.105 8.7446 322.093 8.91378 322.128 9.07548C322.163 9.23719 322.243 9.3841 322.359 9.49748C322.631 9.71161 322.943 9.86436 323.274 9.94618C324.226 10.186 325.204 10.2879 326.183 10.2489C327.065 10.2162 327.94 10.0677 328.787 9.80677C328.317 10.6388 327.839 11.4648 327.347 12.2935C325.326 12.1502 323.321 11.8361 321.35 11.3544C320.945 11.2513 320.4 11.2123 320.177 11.6749C320.109 11.8308 320.091 12.0054 320.127 12.1719C320.163 12.3385 320.25 12.4879 320.375 12.5974C320.665 12.8232 320.998 12.9823 321.351 13.0646C322.403 13.3292 323.492 13.4041 324.57 13.286C325.458 13.1946 326.329 12.9685 327.157 12.6146C326.598 13.5609 326.025 14.5099 325.431 15.4555C323.444 15.3962 321.472 15.0856 319.559 14.5303C319.174 14.416 318.646 14.3513 318.398 14.796C318.321 14.9471 318.293 15.1201 318.319 15.2885C318.345 15.4569 318.423 15.6116 318.54 15.7291C318.818 15.9675 319.141 16.1413 319.488 16.2392C320.527 16.5422 321.612 16.634 322.686 16.5095C323.56 16.4204 324.415 16.1795 325.215 15.7965C324.677 16.604 324.132 17.4202 323.636 18.272L323.516 18.4524C321.303 18.3049 319.099 18.04 316.912 17.6587C316.46 17.5721 315.875 17.5556 315.676 18.036C315.62 18.2008 315.619 18.38 315.671 18.5453C315.724 18.7107 315.828 18.8526 315.967 18.9486C316.29 19.1599 316.65 19.3006 317.027 19.3623C318.151 19.5698 319.299 19.6046 320.434 19.4654C321.451 19.3456 322.447 19.078 323.395 18.6705C322.822 19.5295 322.294 20.3199 321.749 21.136C320.752 21.2279 319.759 21.2966 318.761 21.2985C317.629 21.3075 316.499 21.2441 315.376 21.1089C314.936 21.0573 314.357 21.0699 314.189 21.5219C314.143 21.6898 314.151 21.8686 314.212 22.0306C314.273 22.1925 314.384 22.3287 314.526 22.418C314.864 22.6101 315.236 22.7283 315.619 22.7656C316.765 22.9036 317.927 22.8328 319.052 22.5561C319.884 22.3434 320.686 22.0171 321.437 21.5854C320.721 22.6592 319.963 23.7033 319.206 24.7474C318.201 24.9232 317.192 25.0699 316.21 25.1214C315.038 25.218 313.861 25.2158 312.69 25.1148C312.225 25.0831 311.634 25.1128 311.452 25.6051C311.409 25.7768 311.424 25.958 311.493 26.1193C311.562 26.2805 311.681 26.4124 311.831 26.4933C312.004 26.5926 312.19 26.6634 312.383 26.7034C312.58 26.7537 312.781 26.7884 312.983 26.8072C314.181 26.8992 315.387 26.7643 316.542 26.4087C317.314 26.1648 318.055 25.82 318.746 25.3825C318.043 26.3261 317.346 27.2612 316.641 28.1903C314.812 28.6506 312.927 28.8086 311.054 28.6588C310.661 28.6284 310.151 28.6654 309.982 29.1551C309.933 29.3165 309.935 29.49 309.989 29.6491C310.043 29.8082 310.146 29.9441 310.281 30.036C310.433 30.1325 310.597 30.2049 310.77 30.2508C310.944 30.3001 311.122 30.3315 311.302 30.3446C312.365 30.4238 313.432 30.2696 314.436 29.8919C314.972 29.6939 315.481 29.4257 315.953 29.0937C315.217 30.0512 314.478 30.9942 313.726 31.9399C311.876 32.3928 309.972 32.5494 308.081 32.4044C307.702 32.3713 307.207 32.4202 307.041 32.9244C306.993 33.0849 306.995 33.2568 307.046 33.4155C307.097 33.5743 307.196 33.7117 307.326 33.808C307.47 33.9035 307.628 33.9749 307.793 34.0194C307.959 34.0566 308.127 34.0848 308.295 34.104C309.32 34.1821 310.349 34.03 311.315 33.658C311.992 33.3977 312.625 33.0267 313.191 32.559C312.544 33.3646 311.897 34.1701 311.234 34.9638C309.362 35.4156 307.557 36.1345 305.871 37.1002C305.509 37.2965 305.118 37.6632 305.293 38.1476C305.351 38.2992 305.45 38.4296 305.578 38.5226C305.706 38.6156 305.857 38.6672 306.013 38.671C306.328 38.644 306.635 38.55 306.915 38.3948C308.203 37.7241 309.403 36.8808 310.484 35.8863C310.054 36.4031 309.625 36.9198 309.186 37.4307C307.214 38.6686 305.413 40.1845 303.835 41.9355C303.494 42.3003 303.204 42.8805 303.551 43.3622C303.676 43.5067 303.837 43.6116 304.016 43.6651C304.195 43.7186 304.385 43.7185 304.564 43.6649C304.905 43.53 305.212 43.3178 305.465 43.0437C306.967 41.5026 308.231 39.7261 309.209 37.7789C309.398 37.4954 309.661 37.2655 309.897 37.0031C309.054 38.4228 308.36 39.933 307.827 41.5073C307.691 41.8932 307.632 42.4371 308.075 42.6829C308.218 42.7499 308.375 42.7734 308.53 42.7506C308.685 42.7278 308.831 42.6596 308.951 42.5541C309.167 42.3141 309.331 42.0297 309.435 41.7194C310.089 39.9625 310.473 38.1095 310.571 36.2299C311.623 35.0173 312.662 33.7697 313.679 32.5187C313.212 33.3875 312.855 34.3153 312.615 35.279C312.336 36.4333 312.198 37.619 312.205 38.8079C312.205 39.2803 312.358 39.889 312.856 39.9445C313.016 39.9484 313.174 39.9025 313.31 39.8126C313.445 39.7227 313.553 39.5929 313.618 39.4396C313.732 39.1083 313.792 38.7596 313.796 38.4081L313.9 35.32C313.916 34.3492 313.933 33.3408 313.964 32.1645C314.611 31.359 315.221 30.5904 315.841 29.7902C315.077 31.6265 314.654 33.5959 314.593 35.5936C314.577 36.0542 314.689 36.6331 315.177 36.7203C315.336 36.7364 315.497 36.7029 315.638 36.624C315.779 36.5451 315.895 36.4243 315.972 36.2769C316.099 35.9632 316.174 35.6293 316.193 35.2896C316.338 33.3054 316.343 31.3136 316.208 29.3302C317.062 28.2154 317.893 27.0973 318.722 25.9647C318.165 26.9014 317.762 27.9289 317.532 29.0038C317.271 30.2045 317.194 31.4396 317.301 32.6635C317.341 33.1512 317.557 33.7552 318.059 33.7499C318.219 33.7343 318.372 33.669 318.497 33.5624C318.623 33.4557 318.715 33.3125 318.762 33.1512C318.844 32.8176 318.874 32.4724 318.849 32.1295C318.801 31.0359 318.781 30.0645 318.77 29.0613C318.758 28.0582 318.773 27.0352 318.833 25.816C319.068 25.4637 319.297 25.1201 319.527 24.7765C319.565 24.7277 319.599 24.676 319.63 24.6219V24.6219C320.06 23.9776 320.495 23.3246 320.98 22.7074C320.465 23.766 320.116 24.9039 319.947 26.077C319.754 27.4346 319.768 28.8145 319.99 30.1649C320.074 30.7114 320.384 31.3954 320.848 31.3372C321.012 31.3057 321.163 31.221 321.28 31.0953C321.397 30.9695 321.473 30.8089 321.498 30.6361C321.548 30.2478 321.545 29.8543 321.488 29.4677C321.346 28.2419 321.268 27.139 321.212 26.0017C321.157 24.8644 321.129 23.7595 321.175 22.4154C321.473 21.9686 321.748 21.5563 322.064 21.0838C322.09 21.0519 322.113 21.0173 322.133 20.9807V20.9807C322.448 20.5082 322.763 20.0357 323.084 19.5546C322.783 20.5177 322.613 21.5198 322.581 22.531C322.52 23.9609 322.702 25.3893 323.119 26.7498C323.279 27.3121 323.666 27.9511 324.151 27.8441C324.31 27.7843 324.447 27.6745 324.543 27.5297C324.64 27.385 324.691 27.2126 324.69 27.0365C324.695 26.8308 324.677 26.6252 324.637 26.424C324.603 26.2204 324.56 26.0109 324.517 25.8391C324.25 24.6909 324.049 23.5267 323.915 22.3526C323.755 21.2326 323.661 20.1032 323.632 18.9705L323.982 18.4464C324.452 17.742 324.922 17.0376 325.398 16.3245C325.074 17.4184 324.925 18.5594 324.955 19.702C324.975 20.9877 325.187 22.261 325.583 23.476C325.731 23.9657 326.092 24.5347 326.574 24.4131C326.727 24.3532 326.858 24.2463 326.951 24.1066C327.045 23.967 327.095 23.8012 327.096 23.6313C327.105 23.2641 327.053 22.8983 326.942 22.5502C326.64 21.4374 326.399 20.4329 326.141 19.4165C325.884 18.4002 325.685 17.3878 325.476 16.152L326.866 13.9601C326.844 16.0365 327.268 18.0891 328.108 19.9657C328.28 20.3457 328.611 20.7779 329.057 20.6556C329.199 20.5894 329.321 20.4839 329.41 20.3506C329.499 20.2174 329.552 20.0614 329.562 19.8996C329.552 19.5815 329.484 19.2686 329.363 18.9771C328.672 17.2176 327.825 15.5301 326.834 13.9363C327.449 13.0142 328.03 12.0712 328.576 11.1073C328.613 13.1818 329.167 15.2073 330.183 16.9834C330.399 17.37 330.798 17.7744 331.243 17.5623C331.384 17.486 331.501 17.3686 331.58 17.2245C331.659 17.0803 331.697 16.9155 331.688 16.7501C331.647 16.4261 331.546 16.114 331.39 15.8316C330.93 14.9362 330.515 14.1372 330.076 13.3204L328.705 10.8952C329.278 10.0361 329.762 9.11161 330.278 8.2109C330.279 9.12057 330.419 10.0234 330.692 10.8853C331.024 11.9586 331.528 12.9638 332.184 13.8577C332.44 14.2218 332.911 14.5899 333.314 14.2958C333.438 14.1977 333.535 14.0658 333.593 13.9145C333.651 13.7632 333.668 13.5984 333.643 13.4381C333.566 13.1259 333.431 12.8329 333.246 12.5757C332.713 11.7543 332.264 11.0069 331.782 10.2357C331.3 9.46448 330.916 8.80234 330.445 7.92409C331.01 6.93153 331.567 5.93301 332.11 4.93715C332.086 5.95009 332.236 6.95823 332.554 7.91351C332.891 8.91726 333.38 9.85768 334 10.6996C334.245 11.0432 334.675 11.3816 335.086 11.0935C335.213 11.0007 335.313 10.8731 335.376 10.7249C335.438 10.5767 335.461 10.4136 335.44 10.2535C335.369 9.95775 335.246 9.67845 335.079 9.42947L332.059 4.84925C332.426 4.1719 332.785 3.4886 333.144 2.80531C333.048 3.73067 333.166 4.6652 333.488 5.53057C333.886 6.61056 334.541 7.56524 335.392 8.30474C335.572 8.46099 335.782 8.5746 336.008 8.63781C336.115 8.66482 336.228 8.66012 336.334 8.6242C336.439 8.58827 336.533 8.52252 336.606 8.43428C336.698 8.3033 336.756 8.14948 336.774 7.98809C336.793 7.82671 336.77 7.66338 336.709 7.5144C336.644 7.37652 336.562 7.2483 336.465 7.1331L336.181 6.81194C335.578 6.20565 335.035 5.5373 334.56 4.8169C334.305 4.45731 334.074 4.08023 333.867 3.68818C333.658 3.30589 333.471 2.91042 333.308 2.50398C333.74 1.6568 334.172 0.80962 334.589 -0.0349178C334.744 1.57218 335.356 3.09147 336.344 4.3279C336.394 4.41097 336.459 4.48247 336.536 4.53807C336.613 4.59367 336.7 4.63218 336.792 4.65123C336.884 4.67029 336.979 4.6695 337.071 4.6489C337.163 4.6283 337.25 4.58831 337.326 4.53142C337.444 4.43808 337.54 4.31712 337.605 4.17831C337.67 4.03951 337.703 3.88676 337.702 3.73248C337.651 3.48418 337.55 3.25022 337.406 3.04588C336.965 2.43197 336.559 1.89406 336.108 1.34953C335.657 0.805005 335.235 0.345054 334.729 -0.226566C335.455 -1.71475 336.159 -3.20623 336.816 -4.71886C336.953 -4.92504 336.548 -5.15568 336.43 -4.92306C335.585 -3.20227 334.732 -1.48743 333.855 0.209572C332.545 -0.536016 331.291 -1.38358 330.103 -2.32603C329.974 -2.45903 329.8 -2.53544 329.618 -2.53986C329.436 -2.54427 329.259 -2.47638 329.122 -2.34984C329.006 -2.24741 328.92 -2.11314 328.873 -1.96233C328.826 -1.81152 328.821 -1.6502 328.857 -1.49671C328.972 -1.22353 329.153 -0.986561 329.382 -0.80879C330.041 -0.277825 330.798 0.106887 331.605 0.321926C332.304 0.492966 333.028 0.530796 333.742 0.433614C333.253 1.39666 332.761 2.35287 332.265 3.30226C330.821 2.44384 329.308 1.68849 327.924 0.976111C327.611 0.82544 327.17 0.721691 326.881 1.13669C326.795 1.27009 326.746 1.42504 326.737 1.58513C326.729 1.74522 326.762 1.90447 326.833 2.04598C327.012 2.28993 327.244 2.48507 327.511 2.61496C328.937 3.37054 330.538 3.69501 332.135 3.55205C331.643 4.4706 331.192 5.32901 330.71 6.21584C328.918 5.6409 326.955 5.1585 325.201 4.54656Z" fill="#5EAD41"/>
<path fill-rule="evenodd" clip-rule="evenodd" d="M151.62 26.075C145.689 23.7564 143.046 17.8483 140.818 12.1078C140.818 12.0239 140.818 11.9541 140.725 11.8703C140.713 11.8198 140.713 11.7671 140.725 11.7167C140.004 10.5063 139.445 9.20016 139.061 7.83379C138.001 13.6581 136.699 19.4126 132.66 23.8402C132.602 23.9076 132.527 23.9564 132.443 23.9808C132.359 24.0051 132.27 24.004 132.187 23.9776C132.104 23.9512 132.03 23.9005 131.973 23.8316C131.917 23.7628 131.88 23.6785 131.868 23.5888C130.916 16.9683 134.7 11.6329 138.497 6.74435C138.525 6.70318 138.561 6.66836 138.603 6.64196C138.644 6.61557 138.691 6.59811 138.739 6.59069C138.345 4.67815 138.107 2.73452 138.027 0.780366C138.027 0.473088 138.027 0.165804 138.027 -0.141475H137.826C134.477 6.23928 129.618 11.6239 123.71 15.5018C123.628 15.5589 123.53 15.5868 123.431 15.5812C123.333 15.5756 123.238 15.5368 123.163 15.4706C123.087 15.4045 123.034 15.3146 123.012 15.2144C122.989 15.1142 122.999 15.0092 123.039 14.9152C125.548 8.44836 130.942 0.459085 137.933 -1.13318H137.853C137.781 -4.54959 137.952 -7.96683 138.363 -11.3571H138.282H138.081C134.734 -4.97989 129.88 0.403985 123.978 4.28611C123.895 4.33866 123.798 4.36299 123.701 4.35571C123.604 4.34843 123.511 4.30991 123.436 4.24548C123.361 4.18106 123.307 4.0939 123.281 3.99609C123.256 3.89827 123.26 3.79464 123.294 3.69951C125.817 -2.76731 131.197 -10.7566 138.188 -12.3488C138.279 -12.3869 138.38 -12.3869 138.47 -12.3488C138.604 -13.28 138.752 -14.2577 138.913 -15.2819C138.938 -15.4005 139.006 -15.5045 139.103 -15.5726C139.199 -15.6407 139.317 -15.6676 139.432 -15.6479C139.548 -15.6283 139.651 -15.5635 139.722 -15.4668C139.792 -15.3702 139.825 -15.249 139.812 -15.1283C139.517 -13.4383 139.289 -11.7343 139.114 -10.0163C144.482 -6.37086 151.674 0.179775 152.989 7.06561C153.083 7.51256 152.546 7.68014 152.251 7.47063C146.656 3.64361 140.872 -0.658261 138.833 -7.47426C138.671 -5.19699 138.631 -2.91222 138.712 -0.630336C138.712 0.556877 138.819 1.74407 138.926 2.93129C144.415 5.50125 150.144 8.51818 152.13 14.8593C152.159 14.9467 152.162 15.0409 152.14 15.1303C152.118 15.2197 152.071 15.3004 152.006 15.3626C151.94 15.4249 151.859 15.4659 151.771 15.4807C151.684 15.4955 151.594 15.4834 151.513 15.4459C146.146 13.4207 142.469 9.00703 139.061 4.38389C139.385 7.00178 140.305 9.50126 141.744 11.6748C146.119 15.4599 150.359 19.4545 152.09 25.2788C152.156 25.3573 152.197 25.4558 152.205 25.5599C152.214 25.664 152.19 25.7682 152.137 25.8573C152.085 25.9463 152.006 26.0155 151.913 26.0547C151.82 26.0938 151.718 26.1009 151.62 26.075V26.075Z" fill="#DC0030"/>
<path fill-rule="evenodd" clip-rule="evenodd" d="M240.052 98.2324C240.529 97.6143 240.823 96.8613 240.899 96.0671C240.974 95.2729 240.827 94.4728 240.476 93.7666L240.342 93.6249C239.673 93.2644 238.92 93.1193 238.174 93.2075C237.429 93.2956 236.724 93.6133 236.147 94.1211C235.686 94.6252 235.309 95.2084 235.031 95.846C234.961 95.1538 234.772 94.4811 234.473 93.8612C234.068 93.1868 233.483 92.6557 232.791 92.3358C232.099 92.0159 231.333 91.9218 230.591 92.0654C230.566 92.0544 230.54 92.0487 230.513 92.0487C230.486 92.0487 230.46 92.0544 230.435 92.0654C229.902 92.629 229.537 93.3463 229.386 94.1278C229.236 94.9093 229.305 95.7204 229.587 96.4602C229.897 97.0799 230.305 97.6392 230.792 98.1142C230.142 97.9961 229.478 97.9961 228.828 98.1142C226.597 98.5159 226.039 101.328 226.017 101.446C225.994 101.507 225.994 101.574 226.017 101.635C226.355 102.349 226.884 102.941 227.54 103.336C228.195 103.732 228.946 103.912 229.698 103.856C230.34 103.738 230.959 103.507 231.528 103.171C231.208 103.77 230.996 104.427 230.903 105.108C230.866 105.916 231.059 106.718 231.457 107.409C231.855 108.1 232.439 108.648 233.135 108.983C233.159 108.994 233.186 109 233.213 109C233.24 109 233.266 108.994 233.291 108.983C233.74 108.887 234.175 108.728 234.585 108.511C235.351 108.099 235.952 107.41 236.28 106.569C236.607 105.728 236.639 104.791 236.37 103.927C236.878 104.63 237.6 105.124 238.414 105.327C239.228 105.529 240.082 105.427 240.833 105.037C241.236 104.803 241.61 104.517 241.948 104.187C241.959 104.161 241.964 104.132 241.964 104.104C241.964 104.076 241.959 104.047 241.948 104.021C242.072 103.234 241.973 102.426 241.663 101.698C241.353 100.971 240.847 100.357 240.208 99.9336C239.616 99.6381 238.983 99.4466 238.334 99.3665C238.924 99.0642 239.466 98.6655 239.94 98.1851L240.052 98.2324ZM230.77 92.727C231.384 92.6188 232.014 92.7018 232.585 92.9661C233.155 93.2304 233.641 93.6645 233.983 94.2156C234.637 95.835 234.763 97.6393 234.34 99.3429C233.785 98.4197 233.307 97.4474 232.912 96.4367C232.859 96.3884 232.792 96.3619 232.722 96.3619C232.652 96.3619 232.585 96.3884 232.532 96.4367C232.469 96.4763 232.423 96.5397 232.402 96.6143C232.381 96.6888 232.388 96.7688 232.421 96.8383L233.737 99.532C233.208 99.2243 232.656 98.9635 232.086 98.7522C231.237 98.159 230.546 97.3456 230.078 96.3894C229.851 95.7766 229.795 95.1075 229.918 94.4622C230.041 93.8169 230.336 93.2227 230.77 92.7507V92.727ZM229.632 103.407C229.009 103.442 228.39 103.287 227.848 102.96C227.306 102.633 226.864 102.149 226.575 101.564C226.662 100.927 226.917 100.329 227.312 99.8396C227.707 99.3502 228.225 98.9896 228.806 98.7995C230.467 98.6491 232.129 99.0808 233.536 100.028C232.531 100.288 231.51 100.47 230.479 100.572C230.419 100.59 230.366 100.629 230.328 100.682C230.29 100.735 230.269 100.8 230.269 100.867C230.269 100.934 230.29 100.999 230.328 101.052C230.366 101.105 230.419 101.144 230.479 101.162L233.313 100.666C232.866 101.093 232.462 101.568 232.108 102.084C231.333 102.739 230.424 103.192 229.453 103.407H229.632ZM235.812 106.03C235.545 107.849 233.581 108.393 233.224 108.534C232.669 108.235 232.208 107.773 231.895 107.203C231.583 106.633 231.432 105.979 231.461 105.321C231.815 103.59 232.683 102.026 233.938 100.855C233.938 100.855 233.938 100.642 233.514 104.092C233.508 104.128 233.509 104.165 233.517 104.201C233.525 104.236 233.54 104.27 233.561 104.299C233.582 104.328 233.608 104.352 233.639 104.369C233.669 104.386 233.703 104.397 233.737 104.399C233.805 104.408 233.873 104.392 233.93 104.353C233.987 104.314 234.029 104.255 234.05 104.187L234.473 101.186C234.736 101.75 235.034 102.295 235.366 102.816C235.736 103.806 235.867 104.878 235.745 105.935L235.812 106.03ZM234.563 100.453C234.531 100.474 234.495 100.487 234.459 100.492C234.422 100.497 234.384 100.494 234.348 100.483C234.313 100.472 234.28 100.453 234.251 100.428C234.223 100.402 234.2 100.371 234.183 100.335C234.167 100.301 234.158 100.264 234.155 100.226C234.153 100.188 234.157 100.15 234.169 100.113C234.18 100.077 234.198 100.044 234.222 100.015C234.245 99.9861 234.274 99.9625 234.306 99.9454C234.338 99.9284 234.373 99.9182 234.409 99.9155C234.445 99.9128 234.481 99.9176 234.516 99.9297C234.55 99.9418 234.581 99.9608 234.609 99.9858C234.636 100.011 234.658 100.041 234.674 100.075C234.718 100.127 234.742 100.195 234.742 100.264C234.742 100.334 234.718 100.401 234.674 100.453H234.563ZM240.074 100.595C240.381 100.699 240.662 100.871 240.9 101.101C241.138 101.33 241.326 101.612 241.451 101.925C241.577 102.239 241.637 102.578 241.627 102.918C241.617 103.259 241.538 103.593 241.394 103.898C241.251 104.203 241.047 104.472 240.797 104.686C240.546 104.9 240.255 105.054 239.943 105.137C239.631 105.221 239.306 105.232 238.99 105.17C238.673 105.108 238.373 104.974 238.111 104.777C236.687 103.867 235.583 102.49 234.964 100.855C234.964 100.855 234.764 100.713 237.731 102.296C237.774 102.326 237.825 102.342 237.876 102.342C237.928 102.342 237.978 102.326 238.021 102.296C238.062 102.269 238.096 102.23 238.12 102.185C238.143 102.139 238.155 102.088 238.155 102.037C238.151 101.98 238.132 101.926 238.101 101.88C238.069 101.834 238.026 101.798 237.977 101.777L235.433 100.406C236.029 100.328 236.618 100.202 237.196 100.028C238.185 99.9636 239.173 100.158 240.074 100.595ZM235.188 99.8627C235.188 99.8627 235.009 99.8627 237.419 97.4999C237.444 97.4735 237.464 97.4423 237.477 97.4078C237.491 97.3733 237.498 97.3364 237.498 97.2991C237.498 97.2617 237.491 97.2248 237.477 97.1903C237.464 97.1559 237.444 97.1246 237.419 97.0982C237.396 97.0686 237.367 97.0446 237.334 97.0282C237.301 97.0118 237.265 97.0033 237.229 97.0033C237.193 97.0033 237.157 97.0118 237.124 97.0282C237.091 97.0446 237.063 97.0686 237.04 97.0982L235.009 99.2484C235.124 98.6255 235.183 97.9927 235.188 97.3581C235.451 96.3374 235.941 95.3978 236.616 94.6172C237.098 94.2051 237.682 93.9464 238.298 93.8711C238.914 93.7959 239.538 93.9071 240.096 94.1919C240.387 94.7792 240.508 95.444 240.445 96.1037C240.381 96.7633 240.136 97.3886 239.739 97.9016C238.469 99.0644 236.865 99.7388 235.188 99.8155V99.8627Z" fill="#265113"/>
<path fill-rule="evenodd" clip-rule="evenodd" d="M287.594 632.72C288.463 631.657 288.999 630.362 289.137 628.996C289.274 627.63 289.006 626.254 288.366 625.039L288.122 624.795C286.905 624.175 285.532 623.925 284.174 624.077C282.816 624.229 281.533 624.775 280.482 625.648C279.642 626.516 278.955 627.519 278.45 628.615C278.323 627.425 277.978 626.268 277.434 625.201C276.696 624.042 275.629 623.128 274.369 622.578C273.11 622.028 271.714 621.866 270.362 622.113C270.317 622.094 270.269 622.084 270.22 622.084C270.171 622.084 270.123 622.094 270.078 622.113C269.107 623.082 268.443 624.316 268.168 625.66C267.893 627.004 268.021 628.399 268.533 629.672C269.098 630.738 269.841 631.7 270.728 632.517C269.544 632.314 268.335 632.314 267.151 632.517C263.087 633.208 262.071 638.044 262.031 638.247C261.99 638.352 261.99 638.468 262.031 638.572C262.646 639.8 263.611 640.819 264.805 641.499C265.998 642.179 267.366 642.49 268.737 642.392C269.906 642.19 271.033 641.792 272.069 641.214C271.486 642.245 271.101 643.375 270.931 644.546C270.863 645.937 271.214 647.315 271.939 648.503C272.664 649.692 273.728 650.635 274.995 651.211C275.04 651.23 275.089 651.24 275.138 651.24C275.186 651.24 275.235 651.23 275.28 651.211C276.098 651.045 276.89 650.772 277.637 650.399C279.032 649.69 280.127 648.505 280.724 647.059C281.32 645.613 281.379 644 280.888 642.514C281.813 643.723 283.129 644.574 284.611 644.923C286.093 645.271 287.65 645.095 289.017 644.424C289.751 644.021 290.433 643.53 291.049 642.961C291.068 642.916 291.077 642.868 291.077 642.819C291.077 642.77 291.068 642.722 291.049 642.677C291.274 641.323 291.093 639.933 290.528 638.681C289.964 637.43 289.042 636.374 287.879 635.646C286.801 635.138 285.648 634.808 284.465 634.671C285.54 634.151 286.528 633.465 287.391 632.639L287.594 632.72ZM270.687 623.251C271.806 623.065 272.955 623.207 273.994 623.662C275.033 624.116 275.917 624.863 276.54 625.811C277.732 628.596 277.96 631.7 277.19 634.63C276.18 633.042 275.31 631.37 274.589 629.631C274.493 629.548 274.37 629.503 274.243 629.503C274.117 629.503 273.994 629.548 273.898 629.631C273.783 629.699 273.698 629.809 273.66 629.937C273.623 630.065 273.635 630.203 273.695 630.322L276.093 634.955C275.129 634.426 274.123 633.977 273.085 633.614C271.539 632.594 270.28 631.195 269.427 629.55C269.014 628.496 268.913 627.345 269.136 626.235C269.36 625.125 269.898 624.103 270.687 623.291V623.251ZM268.615 641.62C267.48 641.68 266.353 641.413 265.366 640.851C264.379 640.289 263.574 639.456 263.047 638.45C263.205 637.354 263.671 636.326 264.39 635.484C265.11 634.643 266.053 634.022 267.111 633.695C270.137 633.437 273.164 634.179 275.727 635.809C273.896 636.256 272.035 636.568 270.159 636.743C270.049 636.775 269.951 636.841 269.882 636.933C269.813 637.025 269.776 637.137 269.776 637.251C269.776 637.366 269.813 637.478 269.882 637.57C269.951 637.661 270.049 637.728 270.159 637.759L275.32 636.906C274.506 637.64 273.77 638.457 273.126 639.344C271.714 640.471 270.057 641.25 268.289 641.62H268.615ZM279.872 646.131C279.385 649.261 275.808 650.195 275.158 650.439C274.148 649.924 273.307 649.129 272.738 648.149C272.169 647.168 271.894 646.045 271.947 644.912C272.592 641.936 274.173 639.244 276.458 637.231C276.458 637.231 276.458 636.865 275.686 642.799C275.675 642.861 275.676 642.924 275.691 642.985C275.705 643.047 275.733 643.104 275.771 643.154C275.81 643.204 275.858 643.245 275.913 643.275C275.969 643.305 276.03 643.323 276.093 643.327C276.215 643.342 276.339 643.314 276.443 643.247C276.547 643.18 276.624 643.079 276.662 642.961L277.434 637.8C277.912 638.77 278.455 639.707 279.059 640.604C279.734 642.307 279.971 644.151 279.75 645.969L279.872 646.131ZM277.596 636.54C277.538 636.575 277.474 636.598 277.407 636.607C277.339 636.615 277.271 636.61 277.206 636.591C277.141 636.572 277.081 636.539 277.029 636.496C276.977 636.452 276.935 636.398 276.905 636.337C276.876 636.278 276.859 636.214 276.854 636.149C276.849 636.083 276.858 636.018 276.878 635.955C276.899 635.893 276.932 635.835 276.975 635.786C277.018 635.736 277.07 635.696 277.129 635.666C277.188 635.637 277.252 635.62 277.317 635.615C277.383 635.61 277.448 635.619 277.511 635.639C277.573 635.66 277.63 635.693 277.68 635.736C277.73 635.779 277.77 635.831 277.8 635.89C277.88 635.979 277.924 636.095 277.924 636.215C277.924 636.335 277.88 636.451 277.8 636.54H277.596ZM287.635 636.784C288.193 636.962 288.706 637.259 289.139 637.653C289.572 638.048 289.915 638.532 290.143 639.072C290.372 639.612 290.481 640.194 290.463 640.78C290.445 641.366 290.301 641.941 290.04 642.465C289.779 642.99 289.408 643.452 288.951 643.82C288.495 644.188 287.965 644.453 287.397 644.596C286.828 644.74 286.236 644.759 285.66 644.652C285.083 644.545 284.537 644.315 284.058 643.977C281.466 642.411 279.454 640.043 278.328 637.231C278.328 637.231 277.962 636.987 283.367 639.71C283.446 639.761 283.538 639.788 283.632 639.788C283.725 639.788 283.817 639.761 283.896 639.71C283.971 639.662 284.032 639.596 284.075 639.518C284.118 639.44 284.14 639.352 284.14 639.263C284.132 639.166 284.098 639.072 284.04 638.994C283.983 638.915 283.905 638.853 283.814 638.816L279.181 636.459C280.267 636.324 281.34 636.107 282.392 635.809C284.193 635.698 285.994 636.033 287.635 636.784ZM278.734 635.524C278.734 635.524 278.409 635.524 282.798 631.46C282.844 631.415 282.88 631.361 282.905 631.302C282.929 631.242 282.942 631.179 282.942 631.115C282.942 631.05 282.929 630.987 282.905 630.928C282.88 630.868 282.844 630.815 282.798 630.769C282.756 630.718 282.704 630.677 282.644 630.649C282.584 630.621 282.519 630.606 282.453 630.606C282.387 630.606 282.322 630.621 282.262 630.649C282.202 630.677 282.149 630.718 282.108 630.769L278.409 634.468C278.618 633.396 278.727 632.308 278.734 631.216C279.215 629.461 280.106 627.844 281.335 626.502C282.215 625.793 283.277 625.348 284.399 625.219C285.522 625.089 286.658 625.28 287.675 625.77C288.205 626.78 288.426 627.924 288.31 629.059C288.194 630.193 287.748 631.269 287.025 632.151C284.711 634.151 281.79 635.311 278.734 635.443V635.524Z" fill="#DC0030"/>
</g>
<defs>
<clipPath id="clip0_411_4854">
<rect width="375" height="670" fill="white"/>
</clipPath>
</defs>
</svg>
