<svg viewBox="0 0 206 206" fill="none" xmlns="http://www.w3.org/2000/svg">
<path d="M122.531 186.469C168.63 175.682 197.256 129.567 186.469 83.4687C175.682 37.3702 129.567 8.74436 83.4687 19.5312C37.3702 30.318 8.74449 76.4328 19.5313 122.531C30.3182 168.63 76.4328 197.255 122.531 186.469Z" fill="#397621"/>
<mask id="mask0_401_5083" style="mask-type:alpha" maskUnits="userSpaceOnUse" x="17" y="17" width="172" height="172">
<path d="M122.531 186.469C168.63 175.682 197.256 129.567 186.469 83.4687C175.682 37.3702 129.567 8.74436 83.4687 19.5312C37.3702 30.318 8.74449 76.4328 19.5313 122.531C30.3182 168.63 76.4328 197.255 122.531 186.469Z" fill="#397621"/>
</mask>
<g mask="url(#mask0_401_5083)">
<path fill-rule="evenodd" clip-rule="evenodd" d="M235.29 19.2009C236.197 16.9561 236.305 14.4683 235.598 12.1529C234.805 10.2146 232.823 8.80484 231.193 10.0823C230.664 7.96787 228.242 7.70353 226.391 8.67266C224.32 9.97202 222.764 11.9491 221.986 14.2672C221.149 16.6472 220.587 19.1155 220.312 21.6237C219.74 25.7645 219.475 29.8173 219.255 33.87C218.138 29.9971 216.664 26.2366 214.85 22.637C211.37 15.8091 206.04 8.14407 202.031 0.170832C205.247 -4.80694 208.551 -9.60847 211.37 -14.9387C212.468 -16.8735 213.34 -18.9281 213.969 -21.0618C214.641 -23.0627 214.641 -25.2281 213.969 -27.2289C213.132 -28.8588 211.282 -29.9601 209.564 -28.7267C208.947 -30.5328 206.833 -30.5767 205.159 -29.6076C203.45 -28.3219 202.236 -26.486 201.723 -24.4096C201.153 -22.2815 200.843 -20.0926 200.798 -17.8901C200.445 -12.4719 200.798 -7.22966 200.798 -1.94353C195.556 -12.5598 192.428 -23.6167 197.582 -34.1009C202.736 -39.4751 208.11 -44.4528 212.956 -50.2676C214.663 -52.1417 216.142 -54.212 217.361 -56.4348C218.517 -58.5433 218.935 -60.9773 218.55 -63.3507C218.022 -65.3771 216.216 -67.007 214.145 -65.9497C213.881 -68.1523 211.502 -68.6809 209.74 -67.9321C207.558 -66.9163 205.797 -65.1717 204.762 -62.9984C203.625 -60.7578 202.753 -58.3925 202.163 -55.9502C200.489 -49.6949 199.52 -43.4837 198.375 -37.2285C195.415 -32.5023 193.97 -26.9844 194.234 -21.4142C192.825 -26.8324 191.503 -32.2066 189.565 -37.6249C188.821 -39.9064 187.816 -42.0942 186.569 -44.1445C185.411 -46.1467 183.61 -47.699 181.459 -48.5496C179.565 -49.0782 177.319 -48.5496 177.054 -46.303C175.16 -47.14 173.574 -45.422 173.222 -43.4838C172.996 -41.2015 173.572 -38.9118 174.852 -37.0083C176.101 -34.9809 177.579 -33.1037 179.257 -31.4137C184.014 -26.524 189.168 -22.6035 194.19 -18.1984C195.263 -10.7749 197.682 -3.60949 201.326 2.94607C204.146 8.3203 207.494 13.5183 210.401 18.8925C206.612 14.972 202.868 10.9633 198.639 7.30708C196.895 5.59862 194.941 4.11842 192.825 2.90198C190.844 1.74564 188.53 1.29537 186.261 1.62459C184.323 2.0651 182.737 3.78298 183.662 5.63312C181.592 5.85338 181.019 8.09998 181.68 10.0382C182.557 12.1166 184.109 13.8392 186.085 14.9281C188.194 16.0491 190.426 16.9212 192.736 17.527C199.124 19.4212 205.423 20.4784 211.811 21.9321C213.725 25.6194 215.274 29.4849 216.436 33.4734C218.607 42.3775 217.48 51.7664 213.264 59.9041C213.264 54.3096 213.529 48.7591 213.264 43.0765C213.173 40.5268 212.774 37.9976 212.075 35.544C211.458 33.185 210.061 31.1043 208.11 29.641C206.304 28.5397 203.705 28.5837 203.132 30.6982C201.414 29.2886 199.344 30.6983 198.375 32.4603C197.573 34.7715 197.573 37.2855 198.375 39.5966C199.114 42.0268 200.134 44.3627 201.414 46.5567C204.63 52.4596 208.375 57.8338 211.987 63.3843L209.256 69.287C205.945 76.4454 204.174 84.2193 204.058 92.1054C203.573 88.2289 203 84.3085 202.207 80.3879C201.741 77.8867 200.987 75.4476 199.961 73.1194C199.027 70.8647 197.347 68.9987 195.203 67.8332C193.265 66.9962 190.798 67.3928 190.446 69.5954C188.552 68.45 186.657 69.9917 186.041 71.974C185.51 74.3606 185.789 76.8559 186.834 79.0664C187.921 81.3691 189.266 83.5413 190.842 85.5418C195.247 91.3125 199.917 96.3783 204.542 101.708C205.766 110.89 207.816 119.942 210.665 128.756C211.59 131.884 212.559 135.099 213.484 138.315C211.106 134.527 208.683 130.782 205.908 127.17C204.418 125.107 202.704 123.216 200.798 121.531C198.972 119.921 196.664 118.96 194.234 118.8C192.12 118.8 190.093 120.254 190.666 122.413C188.463 122.413 187.406 124.395 187.671 126.509C188.215 128.881 189.532 131.003 191.415 132.544C193.377 134.166 195.521 135.556 197.802 136.685C203.529 139.725 209.344 142.059 215.158 144.57C218.771 159.107 220.4 173.864 214.321 187.872C214.123 187.957 213.966 188.115 213.881 188.313C213.117 189.87 212.413 191.338 211.766 192.718C211.657 193.026 211.661 193.363 211.779 193.667C211.896 193.972 212.119 194.224 212.407 194.379C212.695 194.533 213.028 194.58 213.347 194.509C213.666 194.439 213.949 194.257 214.145 193.996C224.233 179.327 222.207 160.208 218.066 143.821C216.656 138.183 214.85 132.5 213.132 126.774C216.304 121.223 219.564 115.849 222.339 109.946C223.464 107.685 224.335 105.306 224.938 102.854C225.513 100.501 225.296 98.0234 224.321 95.8058C223.264 93.9557 221.105 92.8543 219.475 94.352C218.682 92.3257 216.216 92.4139 214.498 93.6032C212.653 95.1664 211.395 97.31 210.929 99.6823C210.386 102.155 210.15 104.685 210.225 107.215C210.225 110.959 210.225 114.66 210.665 118.316C206.571 106.119 205.661 93.0789 208.022 80.432C214.057 77.1282 220.136 74.1325 226.039 70.3441C228.191 69.0175 230.187 67.4511 231.986 65.6747C233.729 63.9917 234.861 61.7748 235.202 59.3755C235.202 57.3051 234.012 55.1907 231.854 55.5871C232.25 53.4286 230.136 52.1953 228.065 52.3274C225.666 52.6589 223.456 53.8107 221.81 55.5871C220.124 57.4144 218.646 59.4237 217.405 61.578C214.498 66.2034 212.075 70.9169 209.652 75.6303C210.005 74.5371 210.417 73.4637 210.885 72.4147C214.454 64.1331 219.696 56.3359 220.709 47.1732C220.929 45.0056 220.929 42.8214 220.709 40.6538C224.585 35.5879 228.55 30.6541 232.03 25.1477C233.343 23.2983 234.437 21.3027 235.29 19.2009V19.2009Z" fill="#265113"/>
<path fill-rule="evenodd" clip-rule="evenodd" d="M173.397 43.9128C174.304 41.668 174.412 39.1802 173.705 36.8648C172.912 34.9265 170.93 33.5167 169.3 34.7942C168.771 32.6357 166.349 32.4154 164.454 33.3846C162.391 34.6921 160.836 36.6663 160.049 38.9791C159.212 41.3591 158.65 43.8274 158.375 46.3356C157.803 50.4764 157.538 54.5292 157.318 58.5819C156.201 54.709 154.727 50.9485 152.913 47.3489C149.433 40.521 144.103 32.856 140.094 24.8827C143.266 19.905 146.614 15.1034 149.433 9.77326C150.535 7.8458 151.393 5.78898 151.988 3.65009C152.679 1.65252 152.679 -0.519322 151.988 -2.5169C151.151 -4.14678 149.301 -5.24818 147.803 -4.01475C147.186 -5.82084 145.072 -5.86468 143.398 -4.89556C141.726 -3.60201 140.533 -1.78871 140.006 0.258343C139.425 2.40036 139.1 4.60349 139.037 6.82191C138.729 12.2402 139.037 17.4822 139.037 22.7684C133.751 12.1521 130.667 1.09531 135.821 -9.38885C140.975 -14.7631 146.349 -19.7409 151.195 -25.5556C152.888 -27.4413 154.366 -29.5097 155.6 -31.7228C156.753 -33.8324 157.171 -36.2654 156.79 -38.6388C156.217 -40.6652 154.455 -42.295 152.384 -41.2378C152.12 -43.4404 149.741 -43.9689 147.979 -43.2641C145.804 -42.2164 144.049 -40.4614 143.002 -38.2863C141.858 -36.0489 140.985 -33.6828 140.403 -31.2383C138.685 -24.983 137.759 -18.7718 136.614 -12.5166C133.654 -7.7904 132.209 -2.2724 132.473 3.29788C131.064 -2.1204 129.742 -7.49473 127.804 -12.913C127.069 -15.1979 126.063 -17.3866 124.808 -19.4325C123.64 -21.4259 121.842 -22.9752 119.699 -23.8376C117.804 -24.3662 115.558 -23.8377 115.293 -21.5911C113.399 -22.4281 111.813 -20.754 111.417 -18.7717C111.229 -16.4863 111.819 -14.2046 113.091 -12.2964C114.327 -10.2596 115.806 -8.38086 117.496 -6.7018C122.254 -1.81213 127.407 2.32861 132.429 6.73372C133.489 14.1543 135.892 21.3196 139.522 27.8782C142.385 33.2524 145.689 38.4507 148.64 43.8249C144.852 39.9044 141.107 35.8957 136.834 32.2395C135.115 30.5216 133.174 29.0403 131.064 27.8344C128.966 26.7378 126.55 26.4104 124.236 26.9092C122.298 27.3497 120.712 29.0676 121.637 30.9177C119.566 31.138 118.994 33.3846 119.655 35.3228C120.578 37.4322 122.216 39.1483 124.28 40.1686C126.378 41.3235 128.613 42.2113 130.932 42.8116C137.275 44.6617 143.618 45.763 149.962 47.2167C151.909 50.9093 153.473 54.7913 154.631 58.8021C156.814 67.7054 155.687 77.0987 151.459 85.2328C151.459 79.6823 151.68 74.1319 151.459 68.4493C151.347 65.9017 150.948 63.3748 150.27 60.9165C149.653 58.5575 148.256 56.4771 146.305 55.0138C144.499 53.9125 141.9 53.9565 141.328 56.071C139.61 54.6613 137.495 56.0711 136.57 57.8331C135.768 60.1291 135.768 62.6293 136.57 64.9253C137.301 67.3727 138.321 69.7239 139.61 71.9292C142.825 77.8321 146.57 83.2063 150.182 88.7568L147.451 94.6597C144.14 101.818 142.369 109.592 142.253 117.478C141.768 113.602 141.195 109.681 140.359 105.761C139.934 103.255 139.194 100.812 138.156 98.4922C137.222 96.2375 135.543 94.3715 133.398 93.206C131.46 92.369 128.993 92.7656 128.641 94.9681C126.747 93.8228 124.853 95.3645 124.236 97.3468C123.706 99.7333 123.985 102.228 125.029 104.439C126.117 106.742 127.461 108.914 129.037 110.915C133.442 116.685 138.112 121.751 142.737 127.081C143.94 136.266 145.99 145.321 148.86 154.129C149.785 157.256 150.755 160.472 151.636 163.688C149.257 159.899 146.878 156.155 144.103 152.543C142.613 150.48 140.9 148.589 138.993 146.904C137.178 145.276 134.864 144.313 132.429 144.173C130.315 144.173 128.289 145.627 128.861 147.785C126.659 147.785 125.601 149.768 125.866 151.882C126.41 154.253 127.727 156.376 129.61 157.917C131.583 159.524 133.725 160.912 135.997 162.058C141.68 165.097 147.495 167.432 153.354 169.943C156.966 184.48 158.596 199.237 152.517 213.201C152.314 213.315 152.146 213.483 152.032 213.686C151.327 215.228 150.622 216.769 149.962 218.091C149.852 218.399 149.857 218.735 149.974 219.04C150.092 219.345 150.314 219.597 150.602 219.752C150.89 219.906 151.223 219.952 151.542 219.882C151.861 219.812 152.144 219.629 152.34 219.368C162.428 204.699 160.402 185.581 156.261 169.194C154.851 163.556 153.045 157.829 151.327 152.146C154.499 146.596 157.759 141.222 160.534 135.319C161.671 133.052 162.529 130.656 163.089 128.183C163.707 125.847 163.489 123.37 162.472 121.179C161.459 119.328 159.3 118.227 157.671 119.725C156.834 117.654 154.411 117.743 152.693 118.976C150.849 120.539 149.59 122.683 149.125 125.055C148.581 127.528 148.345 130.057 148.42 132.588C148.42 136.332 148.42 139.988 148.86 143.645C144.747 131.467 143.836 118.436 146.217 105.805C152.252 102.501 158.331 99.5053 164.19 95.7169C166.364 94.4019 168.375 92.8346 170.181 91.0475C171.931 89.3748 173.051 87.1502 173.353 84.7483C173.353 82.6779 172.207 80.5635 170.049 80.9599C170.445 78.8014 168.331 77.568 166.216 77.7002C163.823 78.0489 161.618 79.1978 159.961 80.9599C158.274 82.786 156.796 84.7954 155.556 86.9508C152.649 91.5762 150.226 96.2896 147.803 101.003C148.156 99.9099 148.568 98.8365 149.037 97.7875C152.605 89.5059 157.847 81.7086 158.86 72.546C159.08 70.3784 159.08 68.1942 158.86 66.0266C162.736 60.9607 166.701 56.0269 170.181 50.5205C171.526 48.4617 172.607 46.2416 173.397 43.9128V43.9128Z" fill="#265113"/>
<path fill-rule="evenodd" clip-rule="evenodd" d="M111.505 68.6266C112.411 66.3818 112.52 63.8939 111.813 61.5785C111.02 59.6403 109.038 58.2308 107.408 59.5083C106.879 57.3498 104.412 57.1295 102.562 58.0986C100.499 59.4061 98.9441 61.38 98.1572 63.6929C97.2941 66.0655 96.7317 68.5372 96.4832 71.0496C95.9105 75.1464 95.6463 79.243 95.426 83.2957C94.3092 79.4228 92.8345 75.6623 91.0209 72.0627C87.5409 65.1907 82.2107 57.57 78.202 49.5968C81.3737 44.619 84.7216 39.7732 87.5408 34.487C88.635 32.5559 89.4929 30.5003 90.0958 28.3641C90.7414 26.3453 90.6635 24.1645 89.8755 22.1969C89.0826 20.567 87.2325 19.4659 85.7347 20.6993C85.118 18.8932 83.0036 18.8491 81.3296 19.8182C79.6579 21.1118 78.4645 22.9251 77.9377 24.9721C77.3538 27.1134 77.0284 29.317 76.9686 31.5357C76.6603 36.9099 76.9686 42.196 76.9686 47.4821C71.6825 36.8658 68.5989 25.8091 73.7528 15.3249C78.9068 9.95069 84.237 4.973 89.0826 -0.841744C90.7887 -2.71689 92.2673 -4.78705 93.4878 -7.009C94.6403 -9.1186 95.0587 -11.5515 94.6771 -13.9249C94.1044 -15.9513 92.2983 -17.5812 90.272 -16.568C90.0077 -18.7265 87.6289 -19.2552 85.8669 -18.5504C83.7042 -17.5003 81.9639 -15.7445 80.9332 -13.5726C79.7702 -11.3435 78.8968 -8.97501 78.3342 -6.5245C76.6162 -0.269252 75.6911 5.94195 74.5458 12.1972C71.5859 16.9234 70.1411 22.4414 70.405 28.0117C68.9953 22.5934 67.6298 17.2192 65.7356 11.8009C65.0007 9.516 63.995 7.32734 62.7401 5.28142C61.5845 3.27696 59.783 1.72392 57.6302 0.876312C55.736 0.3477 53.4894 0.876087 53.2251 3.12269C51.3309 2.28572 49.701 3.95973 49.3486 5.94202C49.161 8.22748 49.7509 10.5094 51.0225 12.4177C52.2477 14.4484 53.7281 16.3136 55.4276 17.9679C60.1852 22.8575 65.2951 26.7783 70.3609 31.4478C71.4309 38.8659 73.8336 46.0293 77.4532 52.5922C80.3165 57.9665 83.6203 63.1645 86.5717 68.5387C82.7833 64.5741 79.039 60.6094 74.7661 56.9091C73.0268 55.2139 71.0892 53.7348 68.9954 52.504C67.0079 51.3241 64.6718 50.8725 62.3877 51.2266C60.4935 51.6672 58.8636 53.341 59.8327 55.2352C57.7623 55.2352 57.1896 57.702 57.8504 59.6403C58.7243 61.7099 60.2783 63.4194 62.2555 64.4861C64.3691 65.6415 66.6183 66.5292 68.9513 67.129C75.2946 68.9792 81.638 70.0804 87.9814 71.5341C89.9284 75.2268 91.493 79.1088 92.6508 83.1196C94.8203 92.0282 93.6774 101.422 89.4351 109.55C89.4351 104 89.6994 98.4493 89.4351 92.7227C89.3227 90.1895 88.9237 87.6772 88.2457 85.2339C87.6245 83.0773 86.3465 81.168 84.5894 79.7717C82.7833 78.6704 80.1843 78.7144 79.6116 80.8288C77.8936 79.4192 75.7792 80.8289 74.8541 82.591C74.0517 84.887 74.0517 87.3872 74.8541 89.6831C75.5847 92.1306 76.6052 94.482 77.8936 96.6874C81.1094 102.59 84.8538 107.964 88.4659 113.471C87.5849 115.453 86.6598 117.391 85.7347 119.374C82.4279 126.549 80.6575 134.336 80.5367 142.236C80.0522 138.36 79.4795 134.439 78.6425 130.519C78.1976 128.017 77.4583 125.577 76.44 123.25C75.5059 120.995 73.8267 119.129 71.6825 117.964C69.7442 117.127 67.2774 117.523 66.925 119.682C65.0308 118.537 63.0925 120.122 62.5199 122.105C61.9652 124.49 62.245 126.993 63.3128 129.197C64.4006 131.499 65.7454 133.672 67.3214 135.672C71.7265 141.443 76.3959 146.509 81.0213 151.839C82.2259 161.006 84.2606 170.044 87.1004 178.842C88.0695 182.014 89.0386 185.23 89.9196 188.446C87.5409 184.657 85.118 180.913 82.3869 177.301C80.9061 175.217 79.1751 173.324 77.2329 171.662C75.4259 170.021 73.1068 169.056 70.6693 168.931C68.5989 168.931 66.5725 170.385 67.1452 172.543C64.9426 172.543 63.8854 174.525 64.1497 176.596C64.6818 178.984 66.0004 181.125 67.8941 182.675C69.8675 184.282 72.0091 185.67 74.2815 186.816C79.9641 189.855 85.7788 192.19 91.5935 194.701C95.2057 209.238 96.8797 223.995 90.8006 237.959C90.598 238.073 90.4304 238.241 90.3161 238.444L88.2016 242.849C88.0322 243.17 87.9974 243.545 88.1048 243.892C88.2122 244.239 88.453 244.529 88.7743 244.699C89.0955 244.868 89.471 244.903 89.8179 244.796C90.1649 244.688 90.455 244.447 90.6244 244.126C100.712 229.457 98.6857 210.339 94.5449 193.952C93.1353 188.313 91.3292 182.587 89.6112 176.904C92.7829 171.354 96.0427 165.935 98.8179 160.033C99.9618 157.784 100.82 155.402 101.373 152.94C101.991 150.605 101.773 148.128 100.756 145.936C99.743 144.086 97.5845 142.985 95.9546 144.483C95.1176 142.412 92.6948 142.5 90.9768 143.69C89.1401 145.278 87.8846 147.432 87.4087 149.813C86.8654 152.285 86.6287 154.815 86.7039 157.346C86.7039 161.09 86.7039 164.746 87.1444 168.402C83.0353 156.225 82.1103 143.199 84.4573 130.563C90.5363 127.259 96.6154 124.263 102.474 120.431C104.638 119.225 106.637 117.744 108.421 116.026C110.173 114.349 111.306 112.129 111.637 109.726C111.637 107.656 110.491 105.321 108.333 105.938C108.729 103.779 106.615 102.546 104.501 102.678C102.107 103.027 99.9022 104.176 98.2453 105.938C96.5474 107.756 95.0689 109.766 93.8402 111.929C90.9328 116.334 88.51 121.268 86.0431 125.981C86.4396 124.924 86.836 123.823 87.2765 122.766C90.8887 114.44 96.0867 106.687 97.0999 97.5244C97.3418 95.3579 97.3418 93.1711 97.0999 91.0046C100.976 85.9387 104.941 81.0052 108.421 75.4988C109.705 73.3322 110.74 71.0265 111.505 68.6266V68.6266Z" fill="#265113"/>
<path fill-rule="evenodd" clip-rule="evenodd" d="M49.614 93.3388C50.5205 91.0786 50.6293 88.5767 49.9224 86.2464C49.1295 84.3522 47.1472 82.9427 45.5173 84.2202C44.9446 82.0617 42.5218 81.8414 40.6716 82.8105C38.6079 84.118 37.0535 86.0922 36.2665 88.4051C35.4034 90.7777 34.841 93.2491 34.5926 95.7615C34.0199 99.8583 33.7116 103.955 33.5354 108.008C32.4377 104.128 30.9623 100.366 29.1303 96.7746C25.6943 89.9027 20.32 82.2819 16.3554 74.3087C19.5271 69.3309 22.831 64.4853 25.6943 59.1551C26.7964 57.2434 27.6547 55.2011 28.2493 53.076C28.9655 51.0827 28.9655 48.9021 28.2493 46.9088C27.4564 45.2789 25.6062 44.1778 24.1085 45.4112C23.4917 43.6051 21.3332 43.561 19.7034 44.5301C18.0316 45.8237 16.8382 47.637 16.3114 49.684C15.7275 51.8254 15.4021 54.0289 15.3423 56.2476C15.0339 61.6218 15.3423 66.8641 15.3423 72.1502C10.0562 61.578 6.97255 50.521 12.0825 40.0368C17.2365 34.6626 22.5667 29.6849 27.4123 23.8702C29.1239 21.9995 30.603 19.9287 31.8174 17.7029C33.0141 15.6089 33.4352 13.1606 33.0067 10.7871C32.4781 8.76078 30.672 7.13073 28.6016 8.14391C28.2933 5.98541 25.9586 5.45674 23.9763 6.16156C21.8113 7.22338 20.0604 8.97434 18.9985 11.1393C17.8685 13.3783 17.0108 15.7447 16.4436 18.1877C14.7256 24.4429 13.7565 30.6541 12.6111 36.9094C9.66406 41.6394 8.23448 47.1576 8.51435 52.7236C7.06067 47.3053 5.73914 41.887 3.84495 36.5128C3.11008 34.2279 2.10447 32.0393 0.849508 29.9933C-0.306052 27.9889 -2.10759 26.4358 -4.26043 25.5882C-6.19868 25.0596 -8.40123 25.5883 -8.66554 27.8349C-10.6038 26.9979 -12.1896 28.6716 -12.5421 30.6539C-12.7296 32.9394 -12.1398 35.2214 -10.8681 37.1296C-9.63189 39.1527 -8.1525 41.0167 -6.46299 42.6801C-1.70547 47.5697 3.40448 51.4903 8.4263 56.1597C9.53227 63.5753 11.9487 70.7349 15.5625 77.3041C18.4259 82.6784 21.7297 87.8764 24.6811 93.2506C20.8486 89.286 17.1043 85.3213 12.8754 81.621C11.1362 79.9258 9.19859 78.4467 7.10475 77.2159C5.11369 76.0444 2.7856 75.5788 0.497092 75.8945C-1.3971 76.379 -3.027 78.0529 -2.05788 79.9471C-4.12828 79.9471 -4.70097 82.4139 -4.08426 84.3522C-3.13355 86.4431 -1.50337 88.1511 0.541119 89.198C2.65474 90.3534 4.90397 91.2411 7.2369 91.8409C13.5803 93.6911 19.9236 94.7923 26.2669 96.246C28.1954 99.9473 29.7592 103.827 30.9364 107.831C33.0816 116.742 31.9397 126.126 27.7206 134.262C27.7206 128.712 27.9849 123.161 27.7206 117.435C27.6481 114.901 27.2634 112.386 26.5753 109.946C25.9428 107.594 24.5485 105.518 22.6107 104.043C20.8046 102.942 18.2056 102.986 17.633 105.1C15.915 103.691 13.8005 105.1 12.8754 106.862C12.073 109.158 12.073 111.659 12.8754 113.955C13.6061 116.402 14.6265 118.753 15.915 120.959C19.1307 126.861 22.875 132.236 26.4872 137.742C25.6062 139.724 24.6811 141.663 23.756 143.645C20.4293 150.814 18.6577 158.605 18.558 166.508C18.0734 162.631 17.5008 158.711 16.6638 154.79C16.2189 152.289 15.4796 149.849 14.4613 147.522C13.5152 145.274 11.8391 143.412 9.70375 142.235C7.7655 141.398 5.29863 141.795 4.94623 143.953C3.05203 142.808 1.11378 144.394 0.541119 146.376C0.0278678 148.753 0.322421 151.233 1.3781 153.424C2.45548 155.746 3.80085 157.935 5.38676 159.944C9.79187 165.715 14.4613 170.78 19.0866 176.111C20.296 185.276 22.3306 194.314 25.1656 203.114C26.1348 206.286 27.1039 209.501 27.9849 212.717C25.6062 208.929 23.1834 205.184 20.4522 201.572C18.9714 199.489 17.2405 197.595 15.2983 195.934C13.4912 194.293 11.1722 193.328 8.73462 193.202C6.66422 193.202 4.63786 194.656 5.21052 196.815C3.00797 196.815 1.95077 198.797 2.21508 200.867C2.71957 203.255 4.04435 205.39 5.95938 206.902C7.90157 208.625 10.0466 210.104 12.3468 211.307C18.0294 214.347 23.8441 216.682 29.6589 219.193C33.2711 233.73 34.945 248.486 28.866 262.451C28.6531 262.551 28.4818 262.722 28.3814 262.935L26.2669 267.34C26.1575 267.648 26.1619 267.985 26.2794 268.29C26.3969 268.594 26.6197 268.847 26.9074 269.001C27.1951 269.156 27.5287 269.202 27.8476 269.132C28.1665 269.061 28.4497 268.879 28.6457 268.618C38.7775 253.949 36.7511 234.787 32.6103 218.444C31.1566 212.761 29.3946 207.078 27.6766 201.396C30.8483 195.845 34.108 190.427 36.8832 184.525C38.0081 182.268 38.8656 179.888 39.4382 177.432C40.0555 175.082 39.8375 172.591 38.8215 170.384C37.8083 168.578 35.6498 167.477 34.02 168.974C33.183 166.904 30.7602 166.992 29.0422 168.181C27.2054 169.769 25.95 171.924 25.474 174.305C24.9344 176.763 24.6977 179.277 24.7692 181.793C24.7692 185.581 24.7692 189.238 25.2097 192.894C21.1027 180.701 20.1778 167.661 22.5226 155.01C28.6017 151.75 34.6807 148.755 40.5395 144.922C42.7083 143.637 44.7064 142.083 46.4864 140.297C48.2382 138.62 49.3715 136.4 49.7021 133.998C49.7021 131.883 48.5568 129.593 46.3983 130.209C46.7948 128.051 44.6803 126.818 42.5659 126.95C40.1724 127.298 37.9675 128.447 36.3106 130.209C34.6127 132.027 33.1342 134.038 31.9055 136.2C28.9981 140.605 26.5753 145.539 24.1085 150.253C24.5049 149.151 24.9014 148.094 25.3419 147.037C28.91 138.711 34.1521 130.914 35.1653 121.796C35.3849 119.628 35.3849 117.444 35.1653 115.276C39.0418 110.21 42.9623 105.276 46.4864 99.7701C47.749 97.7404 48.7971 95.5852 49.614 93.3388V93.3388Z" fill="#265113"/>
</g>
</svg>
