<svg viewBox="0 0 1440 358" fill="none" xmlns="http://www.w3.org/2000/svg">
<g clip-path="url(#clip0_182_7319)">
<path fill-rule="evenodd" clip-rule="evenodd" d="M632.353 291.277C632.103 291.413 633.4 294.167 632.945 296.329C632.171 299.993 623.842 300.88 625.048 294.827C625.435 293.097 626.3 291.482 626.186 291.436C625.596 292.017 624.93 292.514 624.206 292.915C618.448 296.056 614.489 285.701 622.59 284.655C623.91 284.495 623.66 284.655 622.59 283.926C622.089 283.585 621.384 283.221 620.724 282.811C620.084 282.403 619.625 281.766 619.439 281.03C619.253 280.294 619.354 279.515 619.723 278.852C620.838 276.849 623.956 275.461 625.753 277.213C626.493 277.981 627.157 278.819 627.733 279.716C630.009 283.107 624.274 275.302 630.168 272.457C632.649 271.251 635.584 272.32 634.469 277.008C634.294 277.697 634.073 278.374 633.809 279.034C633.468 279.876 633.513 279.989 634.196 279.352C635.071 278.411 636.202 277.746 637.45 277.441C639.203 277.236 642.002 280.558 642.002 282.88C642.002 286.202 638.998 286.543 637.132 286.839C635.266 287.135 634.856 287.522 637.132 287.658C637.898 287.683 638.66 287.782 639.408 287.954C645.438 289.365 640.159 298.741 634.856 293.757C633.582 292.551 632.58 291.163 632.58 291.254L632.353 291.277ZM632.763 288.068C633.195 287.112 631.738 286.953 631.261 287.59C630.783 288.227 632.171 289.456 632.763 288.068ZM628.78 288.682C630.054 289.547 631.056 289.684 630.555 287.818C630.282 286.566 629.554 284.973 628.279 286.225C628.126 286.409 628.016 286.625 627.956 286.857C627.896 287.089 627.889 287.332 627.935 287.567C627.981 287.802 628.078 288.024 628.22 288.217C628.363 288.41 628.546 288.569 628.757 288.682H628.78ZM632.626 286.043C633.741 284.609 632.626 283.426 631.42 284.017C628.826 285.314 631.283 287.772 632.626 286.043ZM630.145 284.268C631.579 282.288 629.144 282.538 627.87 284.108C626.595 285.679 628.826 286.134 630.191 284.268H630.145Z" fill="#FFD885"/>
<path fill-rule="evenodd" clip-rule="evenodd" d="M47.2551 314.614C46.9019 314.809 48.7324 318.754 48.0901 321.851C46.9982 327.099 35.244 328.37 36.9461 319.699C37.4921 317.222 38.7125 314.907 38.5519 314.842C37.7198 315.674 36.7798 316.387 35.7579 316.961C27.6327 321.459 22.0447 306.627 33.4777 305.127C35.3404 304.899 34.9871 305.127 33.4777 304.084C32.7711 303.595 31.7756 303.074 30.8442 302.487C29.9417 301.902 29.293 300.989 29.0304 299.935C28.7678 298.881 28.9112 297.765 29.4312 296.815C31.0048 293.946 35.4046 291.958 37.9417 294.468C38.9861 295.568 39.9219 296.769 40.7357 298.054C43.9473 302.911 35.8542 291.729 44.1721 287.655C47.6726 285.927 51.8155 287.459 50.2418 294.174C49.994 295.161 49.6829 296.13 49.3105 297.076C48.8288 298.282 48.893 298.445 49.8565 297.532C51.0908 296.183 52.6874 295.231 54.4489 294.794C56.9218 294.5 60.872 299.26 60.872 302.585C60.872 307.344 56.6328 307.833 53.9993 308.257C51.3659 308.681 50.7878 309.235 53.9993 309.431C55.0808 309.466 56.1564 309.608 57.2108 309.854C65.7214 311.875 58.2706 325.306 50.7878 318.167C48.9893 316.439 47.5763 314.451 47.5763 314.581L47.2551 314.614ZM47.8332 310.017C48.4434 308.648 46.388 308.42 45.7136 309.333C45.0392 310.246 46.9982 312.006 47.8332 310.017ZM42.213 310.897C44.0115 312.136 45.4246 312.332 44.718 309.659C44.3326 307.866 43.3049 305.584 41.5065 307.377C41.2901 307.641 41.1342 307.95 41.0501 308.283C40.966 308.615 40.9559 308.963 41.0205 309.3C41.085 309.637 41.2226 309.955 41.4234 310.231C41.6241 310.508 41.8828 310.735 42.1809 310.897H42.213ZM47.6405 307.116C49.2142 305.062 47.6405 303.367 45.9384 304.215C42.2773 306.073 45.7457 309.593 47.6405 307.116ZM44.1399 304.573C46.1632 301.737 42.7269 302.096 40.9284 304.345C39.13 306.594 42.2773 307.246 44.2042 304.573H44.1399Z" fill="#FFD885"/>
<path fill-rule="evenodd" clip-rule="evenodd" d="M576.936 217.037C576.78 217.122 577.588 218.841 577.304 220.191C576.823 222.479 571.637 223.033 572.388 219.253C572.629 218.174 573.167 217.165 573.096 217.136C572.729 217.499 572.315 217.81 571.864 218.06C568.279 220.021 565.814 213.555 570.858 212.902C571.68 212.802 571.524 212.902 570.858 212.447C570.546 212.234 570.107 212.007 569.696 211.751C569.298 211.496 569.012 211.098 568.896 210.638C568.78 210.179 568.843 209.693 569.073 209.278C569.767 208.028 571.708 207.161 572.827 208.255C573.288 208.735 573.701 209.258 574.06 209.818C575.477 211.935 571.906 207.062 575.576 205.285C577.12 204.532 578.948 205.2 578.254 208.127C578.144 208.557 578.007 208.98 577.843 209.392C577.63 209.918 577.659 209.989 578.084 209.591C578.628 209.003 579.333 208.588 580.11 208.397C581.201 208.269 582.944 210.344 582.944 211.793C582.944 213.868 581.073 214.081 579.911 214.266C578.75 214.451 578.495 214.692 579.911 214.777C580.389 214.793 580.863 214.855 581.328 214.962C585.083 215.843 581.796 221.698 578.495 218.586C577.701 217.832 577.078 216.966 577.078 217.023L576.936 217.037ZM577.191 215.033C577.46 214.436 576.554 214.337 576.256 214.735C575.958 215.133 576.823 215.9 577.191 215.033ZM574.712 215.417C575.505 215.957 576.128 216.042 575.817 214.877C575.647 214.095 575.193 213.101 574.4 213.882C574.304 213.997 574.236 214.132 574.199 214.277C574.161 214.422 574.157 214.573 574.186 214.72C574.214 214.867 574.275 215.006 574.363 215.126C574.452 215.247 574.566 215.346 574.697 215.417H574.712ZM577.106 213.768C577.8 212.873 577.106 212.134 576.355 212.504C574.74 213.314 576.27 214.848 577.106 213.768ZM575.562 212.66C576.454 211.424 574.938 211.58 574.145 212.561C573.351 213.541 574.74 213.825 575.59 212.66H575.562Z" fill="#FFD885"/>
<path fill-rule="evenodd" clip-rule="evenodd" d="M962.936 232.037C962.78 232.122 963.588 233.841 963.304 235.191C962.823 237.479 957.637 238.033 958.388 234.253C958.629 233.174 959.167 232.165 959.096 232.136C958.729 232.499 958.315 232.81 957.864 233.06C954.279 235.021 951.814 228.555 956.858 227.902C957.68 227.802 957.524 227.902 956.858 227.447C956.546 227.234 956.107 227.007 955.696 226.751C955.298 226.496 955.012 226.098 954.896 225.638C954.78 225.179 954.843 224.693 955.073 224.278C955.767 223.028 957.708 222.161 958.827 223.255C959.288 223.735 959.701 224.258 960.06 224.818C961.477 226.935 957.906 222.062 961.576 220.285C963.12 219.532 964.948 220.2 964.254 223.127C964.144 223.557 964.007 223.98 963.843 224.392C963.63 224.918 963.659 224.989 964.084 224.591C964.628 224.003 965.333 223.588 966.11 223.397C967.201 223.269 968.944 225.344 968.944 226.793C968.944 228.868 967.073 229.081 965.911 229.266C964.75 229.451 964.495 229.692 965.911 229.777C966.389 229.793 966.863 229.855 967.328 229.962C971.083 230.843 967.796 236.698 964.495 233.586C963.701 232.832 963.078 231.966 963.078 232.023L962.936 232.037ZM963.191 230.033C963.46 229.436 962.554 229.337 962.256 229.735C961.958 230.133 962.823 230.9 963.191 230.033ZM960.712 230.417C961.505 230.957 962.128 231.042 961.817 229.877C961.647 229.095 961.193 228.101 960.4 228.882C960.304 228.997 960.236 229.132 960.199 229.277C960.161 229.422 960.157 229.573 960.186 229.72C960.214 229.867 960.275 230.006 960.363 230.126C960.452 230.247 960.566 230.346 960.697 230.417H960.712ZM963.106 228.768C963.8 227.873 963.106 227.134 962.355 227.504C960.74 228.314 962.27 229.848 963.106 228.768ZM961.562 227.66C962.454 226.424 960.938 226.58 960.145 227.561C959.351 228.541 960.74 228.825 961.59 227.66H961.562Z" fill="#FFD885"/>
<path fill-rule="evenodd" clip-rule="evenodd" d="M1425.77 116.899C1425.19 117.21 1428.16 123.48 1427.12 128.404C1425.35 136.747 1406.34 138.768 1409.09 124.983C1409.97 121.045 1411.95 117.365 1411.69 117.262C1410.34 118.584 1408.82 119.717 1407.17 120.63C1394.02 127.782 1384.98 104.202 1403.48 101.818C1406.49 101.455 1405.92 101.818 1403.48 100.16C1402.34 99.3823 1400.73 98.5532 1399.22 97.6204C1397.76 96.6899 1396.71 95.2391 1396.28 93.5636C1395.86 91.888 1396.09 90.114 1396.93 88.6031C1399.48 84.0426 1406.6 80.8814 1410.7 84.8718C1412.39 86.6203 1413.9 88.5295 1415.22 90.5723C1420.41 98.294 1407.32 80.5186 1420.78 74.0407C1426.44 71.294 1433.14 73.7297 1430.6 84.4054C1430.2 85.9739 1429.69 87.5146 1429.09 89.0176C1428.31 90.9351 1428.42 91.1943 1429.97 89.7432C1431.97 87.5993 1434.55 86.0858 1437.4 85.3899C1441.4 84.9235 1447.79 92.4898 1447.79 97.7758C1447.79 105.342 1440.94 106.119 1436.68 106.793C1432.42 107.467 1431.48 108.348 1436.68 108.659C1438.42 108.715 1440.16 108.94 1441.87 109.333C1455.64 112.546 1443.58 133.897 1431.48 122.548C1428.57 119.801 1426.29 116.64 1426.29 116.847L1425.77 116.899ZM1426.7 109.592C1427.69 107.415 1424.36 107.052 1423.27 108.503C1422.18 109.954 1425.35 112.753 1426.7 109.592ZM1417.61 110.991C1420.52 112.96 1422.8 113.271 1421.66 109.022C1421.04 106.171 1419.38 102.544 1416.47 105.394C1416.12 105.813 1415.86 106.305 1415.73 106.834C1415.59 107.363 1415.58 107.915 1415.68 108.451C1415.78 108.986 1416.01 109.492 1416.33 109.932C1416.66 110.371 1417.08 110.733 1417.56 110.991H1417.61ZM1426.39 104.979C1428.93 101.714 1426.39 99.0196 1423.64 100.367C1417.71 103.321 1423.32 108.918 1426.39 104.979ZM1420.73 100.937C1424 96.4283 1418.44 96.9985 1415.53 100.574C1412.62 104.15 1417.71 105.187 1420.83 100.937H1420.73Z" fill="#FFD885"/>
</g>
<defs>
<clipPath id="clip0_182_7319">
<rect width="1440" height="358" fill="white"/>
</clipPath>
</defs>
</svg>
