<svg width="166" height="123" viewBox="0 0 166 123" fill="none" xmlns="http://www.w3.org/2000/svg">
<path fill-rule="evenodd" clip-rule="evenodd" d="M113.198 44.7387C124.761 49.0816 129.915 60.148 134.258 70.9005C134.258 71.0575 134.258 71.1883 134.441 71.3453C134.465 71.4398 134.465 71.5385 134.441 71.633C135.845 73.9002 136.936 76.3467 137.685 78.906C139.752 67.9965 142.29 57.2179 150.165 48.9246C150.278 48.7983 150.425 48.7069 150.588 48.6613C150.752 48.6158 150.925 48.6178 151.087 48.6673C151.249 48.7168 151.394 48.8117 151.504 48.9407C151.614 49.0697 151.685 49.2275 151.708 49.3955C153.566 61.7962 146.188 71.79 138.784 80.9466C138.729 81.0237 138.659 81.0889 138.578 81.1384C138.497 81.1878 138.407 81.2205 138.313 81.2344C139.081 84.8167 139.544 88.4573 139.7 92.1176C139.7 92.6932 139.7 93.2687 139.7 93.8443H140.092C146.621 81.8926 156.095 71.8068 167.615 64.5432C167.775 64.4361 167.966 64.3839 168.158 64.3945C168.35 64.405 168.534 64.4777 168.681 64.6016C168.829 64.7255 168.932 64.8939 168.976 65.0815C169.019 65.2691 169.001 65.4658 168.923 65.642C164.031 77.7548 153.513 92.7194 139.883 95.7018H140.04C140.18 102.101 139.848 108.502 139.046 114.852H139.203H139.595C146.121 102.907 155.585 92.8226 167.092 85.5511C167.254 85.4526 167.443 85.4071 167.632 85.4207C167.822 85.4343 168.002 85.5065 168.148 85.6272C168.295 85.7478 168.4 85.9111 168.45 86.0943C168.5 86.2775 168.491 86.4716 168.426 86.6498C163.507 98.7627 153.016 113.727 139.386 116.71C139.21 116.781 139.013 116.781 138.836 116.71C138.575 118.454 138.287 120.285 137.973 122.204C137.924 122.426 137.792 122.621 137.603 122.748C137.415 122.876 137.185 122.926 136.961 122.889C136.736 122.852 136.534 122.731 136.397 122.55C136.259 122.369 136.196 122.142 136.22 121.916C136.796 118.75 137.241 115.559 137.581 112.341C127.116 105.512 113.093 93.2426 110.529 80.3448C110.346 79.5077 111.392 79.1938 111.968 79.5862C122.878 86.7545 134.153 94.8123 138.13 107.579C138.444 103.314 138.523 99.0341 138.366 94.76C138.366 92.5362 138.156 90.3125 137.947 88.0888C127.247 83.275 116.075 77.6241 112.203 65.7466C112.148 65.5829 112.141 65.4065 112.184 65.2391C112.227 65.0716 112.318 64.9204 112.446 64.8038C112.574 64.6872 112.733 64.6104 112.903 64.5827C113.074 64.555 113.249 64.5776 113.407 64.6478C123.872 68.4412 131.04 76.7084 137.685 85.3679C137.052 80.4644 135.258 75.7827 132.453 71.7115C123.924 64.6217 115.657 57.1394 112.282 46.23C112.153 46.083 112.074 45.8984 112.057 45.7034C112.041 45.5085 112.087 45.3133 112.189 45.1465C112.292 44.9797 112.445 44.8501 112.626 44.7768C112.808 44.7034 113.008 44.6901 113.198 44.7387Z" fill="#5EAD41"/>
<path fill-rule="evenodd" clip-rule="evenodd" d="M72.7233 90.1609C72.5363 90.2612 73.5054 92.284 73.1654 93.8721C72.5873 96.5636 66.3645 97.2156 67.2656 92.7688C67.5546 91.4983 68.2007 90.3114 68.1157 90.2779C67.6752 90.7046 67.1775 91.0701 66.6365 91.3645C62.335 93.6715 59.3766 86.0651 65.4294 85.2961C66.4155 85.1791 66.2285 85.2961 65.4294 84.7612C65.0553 84.5104 64.5282 84.243 64.0352 83.9421C63.5574 83.6419 63.2139 83.1739 63.0749 82.6334C62.9359 82.0929 63.0118 81.5206 63.2871 81.0333C64.1202 79.5621 66.4495 78.5424 67.7927 79.8296C68.3456 80.3936 68.841 81.0095 69.2719 81.6685C70.9721 84.1594 66.6875 78.4254 71.0911 76.3357C72.9443 75.4497 75.1376 76.2354 74.3045 79.6792C74.1733 80.1851 74.0086 80.6821 73.8114 81.167C73.5564 81.7855 73.5904 81.8691 74.1005 81.401C74.754 80.7095 75.5992 80.2212 76.5318 79.9967C77.841 79.8463 79.9322 82.287 79.9322 83.9922C79.9322 86.4329 77.6879 86.6837 76.2938 86.901C74.8996 87.1183 74.5935 87.4025 76.2938 87.5028C76.8663 87.5209 77.4358 87.5936 77.994 87.7202C82.4996 88.7566 78.555 95.6442 74.5935 91.9831C73.6414 91.0971 72.8933 90.0773 72.8933 90.1442L72.7233 90.1609ZM73.0293 87.8037C73.3524 87.1016 72.2642 86.9846 71.9072 87.4527C71.5501 87.9208 72.5873 88.8235 73.0293 87.8037ZM70.054 88.2551C71.0061 88.8903 71.7542 88.9907 71.3801 87.6199C71.1761 86.7004 70.632 85.5302 69.6799 86.4496C69.5653 86.585 69.4828 86.7436 69.4383 86.9142C69.3938 87.0847 69.3884 87.2629 69.4226 87.4357C69.4568 87.6085 69.5296 87.7717 69.6359 87.9134C69.7422 88.0552 69.8791 88.1719 70.037 88.2551H70.054ZM72.9273 86.3159C73.7604 85.2627 72.9273 84.3934 72.0262 84.8281C70.088 85.781 71.9242 87.5864 72.9273 86.3159ZM71.0741 85.0119C72.1452 83.5575 70.326 83.7415 69.3739 84.895C68.4217 86.0484 70.088 86.3828 71.1081 85.0119H71.0741Z" fill="#5EAD41"/>
<path fill-rule="evenodd" clip-rule="evenodd" d="M138.519 11.8953C137.96 12.5796 137.615 13.4135 137.526 14.2928C137.438 15.1721 137.611 16.058 138.022 16.8399C138.022 16.8399 138.022 16.8399 138.179 16.9969C138.963 17.396 139.847 17.5567 140.721 17.4591C141.595 17.3614 142.421 17.0098 143.098 16.4475C143.639 15.8894 144.081 15.2436 144.406 14.5377C144.488 15.304 144.71 16.0489 145.06 16.7353C145.539 17.4792 146.225 18.0665 147.034 18.4245C147.843 18.7825 148.74 18.8956 149.612 18.7497H149.795C150.42 18.1257 150.848 17.3316 151.025 16.4663C151.201 15.601 151.12 14.7028 150.79 13.8836C150.426 13.1976 149.948 12.5783 149.377 12.0523C150.146 12.1962 150.936 12.1962 151.705 12.0523C152.555 11.8316 153.32 11.3629 153.902 10.706C154.485 10.049 154.858 9.23354 154.976 8.36348C155.002 8.29618 155.002 8.22151 154.976 8.15422C154.58 7.36359 153.958 6.70803 153.19 6.27033C152.422 5.83263 151.541 5.63243 150.659 5.69501C149.901 5.82209 149.174 6.08815 148.513 6.47983C148.885 5.80544 149.133 5.07011 149.246 4.30844C149.297 3.42846 149.089 2.55274 148.648 1.78999C148.206 1.02723 147.55 0.411068 146.761 0.0179546C146.693 -0.00598486 146.619 -0.00598486 146.551 0.0179546C146.025 0.125017 145.515 0.300892 145.034 0.541141C144.136 0.99715 143.431 1.75984 143.047 2.69097C142.663 3.62211 142.625 4.66005 142.941 5.61653C142.342 4.84266 141.493 4.30002 140.54 4.08066C139.586 3.86129 138.585 3.97874 137.708 4.41311C137.231 4.65457 136.791 4.96291 136.4 5.32878C136.388 5.35776 136.382 5.38883 136.382 5.42028C136.382 5.45173 136.388 5.48288 136.4 5.51186C136.256 6.38346 136.372 7.27849 136.735 8.08396C137.098 8.88943 137.692 9.56929 138.441 10.0379C139.13 10.3766 139.874 10.5892 140.639 10.6657C139.946 11.0005 139.311 11.4419 138.755 11.9738L138.519 11.8953ZM149.403 18.0956C148.683 18.2155 147.943 18.1235 147.275 17.8309C146.606 17.5383 146.036 17.0577 145.636 16.4475C144.868 14.6544 144.721 12.6566 145.217 10.7704C145.867 11.7925 146.427 12.8692 146.891 13.9883C146.953 14.0417 147.032 14.071 147.114 14.071C147.195 14.071 147.274 14.0417 147.336 13.9883C147.375 13.9692 147.41 13.942 147.438 13.9087C147.466 13.8754 147.487 13.8366 147.5 13.7948C147.512 13.7529 147.515 13.7089 147.51 13.6657C147.504 13.6224 147.49 13.5808 147.467 13.5435L145.923 10.5611C146.546 10.897 147.193 11.1855 147.859 11.4244C148.861 12.0739 149.673 12.9764 150.214 14.0406C150.48 14.7191 150.545 15.4599 150.401 16.1744C150.257 16.8889 149.911 17.5469 149.403 18.0695V18.0956ZM150.737 6.27057C151.467 6.23203 152.193 6.40385 152.828 6.76557C153.464 7.12729 153.982 7.6637 154.321 8.31118C154.22 9.01661 153.92 9.67873 153.457 10.2205C152.993 10.7624 152.386 11.1617 151.705 11.3721C149.765 11.5407 147.824 11.0623 146.185 10.0117C147.351 9.70683 148.542 9.50553 149.743 9.41001C149.821 9.38679 149.889 9.33815 149.937 9.27181C149.984 9.20546 150.008 9.12517 150.005 9.04371C149.982 8.96291 149.935 8.89142 149.869 8.83964C149.803 8.78785 149.722 8.75853 149.638 8.75597L146.316 9.30534C146.84 8.83292 147.314 8.30679 147.729 7.73562C148.637 7.0104 149.704 6.5086 150.842 6.27057H150.737ZM143.49 3.36665C143.804 1.3522 146.106 0.750407 146.525 0.593436C147.175 0.924833 147.716 1.43682 148.083 2.06791C148.449 2.699 148.626 3.42244 148.592 4.15147C148.14 6.04177 147.095 7.73781 145.609 8.99141C145.609 8.99141 145.609 9.22688 146.107 5.40727C146.114 5.36746 146.113 5.3265 146.104 5.28711C146.094 5.24772 146.076 5.21079 146.052 5.17869C146.027 5.14658 145.996 5.12006 145.96 5.10084C145.925 5.08162 145.885 5.07014 145.845 5.06715C145.766 5.05736 145.686 5.07555 145.619 5.11857C145.552 5.16159 145.502 5.22671 145.479 5.3026L144.982 8.62511C144.674 8.00047 144.324 7.39737 143.935 6.81994C143.501 5.72397 143.348 4.53685 143.49 3.36665ZM144.982 9.54079C145.055 9.50365 145.139 9.49654 145.217 9.52099C145.296 9.54543 145.361 9.59944 145.4 9.67156C145.419 9.70935 145.43 9.75053 145.433 9.79268C145.436 9.83483 145.431 9.87714 145.418 9.91723C145.404 9.95731 145.383 9.99437 145.355 10.0263C145.328 10.0582 145.294 10.0844 145.256 10.1033C145.218 10.1221 145.177 10.1334 145.135 10.1364C145.093 10.1394 145.051 10.1341 145.011 10.1207C144.971 10.1074 144.933 10.0862 144.902 10.0585C144.87 10.0309 144.843 9.99718 144.825 9.95938C144.807 9.92164 144.797 9.88079 144.796 9.83923C144.794 9.79766 144.801 9.75618 144.816 9.71723C144.83 9.67829 144.852 9.64262 144.881 9.61232C144.909 9.58203 144.944 9.55773 144.982 9.54079ZM138.493 9.38382C138.134 9.26926 137.804 9.07828 137.525 8.82407C137.246 8.56985 137.026 8.25842 136.879 7.91103C136.732 7.56363 136.661 7.18854 136.673 6.81148C136.684 6.43442 136.777 6.06433 136.945 5.72654C137.113 5.38875 137.352 5.09122 137.646 4.85446C137.94 4.61769 138.281 4.44728 138.647 4.35483C139.012 4.26237 139.394 4.25005 139.765 4.31882C140.136 4.38758 140.487 4.53582 140.796 4.75322C142.471 5.75417 143.768 7.28102 144.484 9.096C144.484 9.096 144.72 9.25301 141.24 7.50017C141.187 7.47466 141.129 7.46145 141.07 7.46145C141.011 7.46145 140.953 7.47466 140.9 7.50017C140.852 7.53103 140.812 7.57361 140.785 7.62392C140.757 7.67424 140.743 7.73061 140.743 7.78791C140.753 7.84898 140.777 7.90692 140.813 7.95693C140.85 8.00695 140.897 8.04765 140.953 8.07574L143.935 9.59308C143.236 9.67964 142.545 9.81959 141.868 10.0117C140.709 10.0831 139.55 9.86744 138.493 9.38382ZM144.223 10.221C144.223 10.221 144.432 10.064 141.607 12.8372C141.577 12.8664 141.554 12.901 141.538 12.9391C141.522 12.9773 141.514 13.0182 141.514 13.0595C141.514 13.1009 141.522 13.1418 141.538 13.1799C141.554 13.2181 141.577 13.2527 141.607 13.2819C141.634 13.3148 141.668 13.3412 141.706 13.3594C141.744 13.3776 141.786 13.387 141.829 13.387C141.872 13.387 141.914 13.3776 141.952 13.3594C141.99 13.3412 142.024 13.3148 142.051 13.2819L144.432 10.9012C144.298 11.5997 144.228 12.309 144.223 13.0203C143.908 14.1404 143.334 15.171 142.548 16.0289C142.329 16.3388 142.044 16.5971 141.714 16.7859C141.385 16.9747 141.018 17.0894 140.639 17.1221C140.261 17.1547 139.88 17.1045 139.523 16.975C139.165 16.8455 138.841 16.6398 138.571 16.3721C138.301 16.1044 138.093 15.7812 137.961 15.425C137.829 15.0688 137.776 14.6881 137.806 14.3093C137.836 13.9306 137.948 13.563 138.135 13.2319C138.321 12.9009 138.577 12.6144 138.886 12.3924C140.36 11.0733 142.246 10.3059 144.223 10.221Z" fill="#5EAD41"/>
<path fill-rule="evenodd" clip-rule="evenodd" d="M1.58293 77.8675C1.19538 78.3764 0.956048 78.9966 0.894791 79.6506C0.833534 80.3046 0.953063 80.9635 1.23847 81.5451L1.34724 81.6619C1.89039 81.9587 2.5027 82.0783 3.10845 82.0056C3.71421 81.933 4.28685 81.6714 4.75558 81.2532C5.13031 80.8381 5.43681 80.3578 5.66205 79.8327C5.71879 80.4027 5.8724 80.9567 6.11529 81.4673C6.44437 82.0226 6.92032 82.46 7.48226 82.7234C8.0442 82.9869 8.66659 83.0644 9.26981 82.9461C9.28989 82.9552 9.31147 82.9599 9.33327 82.9599C9.35506 82.9599 9.37663 82.9552 9.39671 82.9461C9.82979 82.482 10.126 81.8913 10.2485 81.2477C10.371 80.6041 10.3144 79.9361 10.0856 79.3269C9.83354 78.8166 9.50251 78.356 9.10665 77.9647C9.63458 78.062 10.1741 78.062 10.702 77.9647C12.515 77.6339 12.9682 75.3184 12.9863 75.2211C13.0046 75.171 13.0046 75.1155 12.9863 75.0654C12.712 74.4774 12.2814 73.9898 11.749 73.6642C11.2166 73.3387 10.6062 73.1898 9.99499 73.2363C9.47336 73.3331 8.97073 73.5239 8.50838 73.8006C8.76827 73.3071 8.9404 72.7661 9.016 72.205C9.04629 71.5394 8.88968 70.8793 8.56644 70.3103C8.2432 69.7414 7.76823 69.2897 7.20305 69.0138C7.18297 69.0047 7.16139 69 7.13959 69C7.1178 69 7.09623 69.0047 7.07615 69.0138C6.71125 69.0934 6.35771 69.2243 6.02464 69.403C5.40231 69.7421 4.91382 70.3094 4.64774 71.002C4.38165 71.6945 4.3556 72.4665 4.57429 73.1779C4.16161 72.5991 3.57478 72.1916 2.91369 72.0248C2.2526 71.8581 1.5581 71.9424 0.948402 72.2634C0.620881 72.4565 0.316485 72.6918 0.0419304 72.9639C0.0334539 72.9854 0.0290807 73.0086 0.0290807 73.032C0.0290807 73.0554 0.0334539 73.0785 0.0419304 73.1001C-0.0584271 73.7484 0.0223101 74.414 0.27397 75.0131C0.525631 75.6122 0.936941 76.1179 1.45602 76.4664C1.93666 76.7098 2.45101 76.8675 2.97889 76.9334C2.49904 77.1825 2.05858 77.5108 1.67357 77.9064L1.58293 77.8675ZM9.12477 82.4013C8.62574 82.4904 8.11334 82.422 7.64987 82.2044C7.1864 81.9867 6.79184 81.6292 6.51414 81.1754C5.9824 79.8417 5.88032 78.3559 6.22406 76.9529C6.67463 77.7132 7.06285 78.5139 7.38435 79.3463C7.42716 79.386 7.48186 79.4079 7.53844 79.4079C7.59503 79.4079 7.64973 79.386 7.69254 79.3463C7.74383 79.3137 7.7817 79.2614 7.79852 79.2C7.81534 79.1386 7.80986 79.0727 7.78319 79.0155L6.71355 76.7972C7.1435 77.0506 7.59223 77.2654 8.05514 77.4394C8.74485 77.9279 9.30657 78.5978 9.68679 79.3852C9.87122 79.8899 9.91628 80.4409 9.81662 80.9723C9.71695 81.5037 9.47675 81.9931 9.12477 82.3818V82.4013ZM10.0494 73.606C10.5553 73.5774 11.0582 73.7051 11.4985 73.9741C11.9388 74.2432 12.2979 74.6422 12.5331 75.1238C12.4625 75.6485 12.2547 76.1409 11.9338 76.5439C11.6129 76.9469 11.1921 77.2439 10.7202 77.4004C9.37033 77.5243 8.01997 77.1688 6.87672 76.3886C7.69335 76.1746 8.52348 76.025 9.36046 75.941C9.40971 75.9259 9.45302 75.8941 9.48387 75.8502C9.51471 75.8063 9.53141 75.7528 9.53141 75.6978C9.53141 75.6428 9.51471 75.5894 9.48387 75.5455C9.45302 75.5016 9.40971 75.4697 9.36046 75.4546L7.05801 75.8632C7.42146 75.5119 7.74959 75.1205 8.03701 74.6957C8.6668 74.1563 9.40575 73.7831 10.1944 73.606H10.0494ZM5.02753 71.4461C5.24508 69.9478 6.84046 69.5002 7.13053 69.3835C7.58115 69.63 7.95595 70.0108 8.20998 70.4802C8.46402 70.9496 8.58651 71.4877 8.56276 72.0299C8.27493 73.4549 7.56974 74.7436 6.55039 75.7075C6.55039 75.7075 6.5504 75.8827 6.89486 73.0417C6.90003 73.0121 6.89933 72.9816 6.89279 72.9523C6.88626 72.9231 6.87403 72.8956 6.85692 72.8717C6.8398 72.8478 6.81819 72.8281 6.79348 72.8138C6.76878 72.7995 6.74154 72.791 6.71355 72.7887C6.65884 72.7815 6.60349 72.795 6.55711 72.827C6.51074 72.859 6.47628 72.9074 6.45974 72.9639L6.11529 75.4351C5.90206 74.9706 5.65977 74.522 5.39011 74.0925C5.0893 73.2773 4.98335 72.3943 5.08191 71.524L5.02753 71.4461ZM6.04277 76.0384C6.06862 76.0216 6.09746 76.0107 6.12743 76.0065C6.15741 76.0023 6.18786 76.0049 6.21686 76.0141C6.24585 76.0232 6.27276 76.0387 6.29585 76.0597C6.31894 76.0806 6.33771 76.1065 6.35097 76.1356C6.36406 76.1637 6.37187 76.1944 6.37394 76.2257C6.37602 76.2571 6.37233 76.2885 6.36307 76.3183C6.35381 76.3482 6.33917 76.3757 6.31998 76.3995C6.3008 76.4232 6.27744 76.4427 6.25125 76.4567C6.22507 76.4708 6.19656 76.4791 6.16735 76.4814C6.13815 76.4836 6.10882 76.4796 6.08104 76.4697C6.05326 76.4597 6.02757 76.444 6.00545 76.4235C5.98333 76.4029 5.96521 76.3778 5.95212 76.3497C5.91644 76.3069 5.89672 76.2514 5.89672 76.194C5.89672 76.1366 5.91644 76.0812 5.95212 76.0384H6.04277ZM1.5648 75.9216C1.31573 75.8364 1.08677 75.6944 0.893629 75.5053C0.700488 75.3162 0.547731 75.0845 0.445829 74.8261C0.343926 74.5677 0.295285 74.2888 0.303252 74.0084C0.311218 73.7279 0.375606 73.4526 0.491985 73.2013C0.608364 72.9501 0.77399 72.7289 0.977504 72.5528C1.18102 72.3767 1.41761 72.2498 1.67105 72.1811C1.92449 72.1123 2.1888 72.1032 2.44583 72.1544C2.70287 72.2055 2.94655 72.3157 3.16018 72.4774C4.31659 73.2274 5.21394 74.3613 5.71644 75.7075C5.71644 75.7075 5.87961 75.8243 3.46839 74.5206C3.43326 74.4963 3.39234 74.4834 3.35055 74.4834C3.30875 74.4834 3.26784 74.4963 3.2327 74.5206C3.19924 74.5435 3.17172 74.5752 3.1527 74.6126C3.13368 74.65 3.12379 74.692 3.12393 74.7346C3.12733 74.7812 3.14269 74.8259 3.16829 74.8636C3.19389 74.9014 3.22874 74.9309 3.26897 74.9487L5.33572 76.0773C4.85161 76.1416 4.3728 76.2457 3.9035 76.3886C3.10001 76.4417 2.29672 76.2813 1.5648 75.9216ZM5.53515 76.5248C5.53515 76.5248 5.68018 76.5248 3.7222 78.4707C3.70192 78.4924 3.68582 78.5181 3.67484 78.5465C3.66386 78.5749 3.65822 78.6053 3.65822 78.6361C3.65822 78.6668 3.66386 78.6972 3.67484 78.7256C3.68582 78.754 3.70192 78.7798 3.7222 78.8014C3.74091 78.8259 3.76443 78.8456 3.79107 78.8591C3.81772 78.8726 3.84683 78.8797 3.8763 78.8797C3.90578 78.8797 3.93487 78.8726 3.96152 78.8591C3.98817 78.8456 4.01169 78.8259 4.0304 78.8014L5.68017 77.0307C5.58706 77.5437 5.53851 78.0648 5.53515 78.5874C5.32088 79.428 4.92314 80.2018 4.37487 80.8446C3.98252 81.184 3.50857 81.3971 3.00799 81.4591C2.50741 81.5211 2.00071 81.4294 1.54666 81.1949C1.3104 80.7113 1.21194 80.1637 1.26352 79.6205C1.31509 79.0773 1.51445 78.5624 1.83674 78.1399C2.86891 77.1823 4.17212 76.6269 5.53515 76.5637V76.5248Z" fill="#5EAD41"/>
</svg>
