<svg viewBox="0 0 1440 1004" fill="none" xmlns="http://www.w3.org/2000/svg">
<g clip-path="url(#clip0_182_6031)">
<path fill-rule="evenodd" clip-rule="evenodd" d="M552.149 915.871C570.833 920.244 580.989 936.259 589.833 951.953C589.864 952.195 589.891 952.397 590.204 952.602C590.259 952.743 590.279 952.895 590.262 953.045C592.879 956.257 595.05 959.807 596.716 963.599C597.715 946.379 599.465 929.267 609.934 914.914C610.084 914.697 610.292 914.526 610.534 914.423C610.777 914.321 611.044 914.289 611.303 914.333C611.563 914.377 611.805 914.494 612.001 914.67C612.196 914.847 612.337 915.076 612.407 915.33C617.752 934.061 608.389 950.934 598.818 966.522C598.748 966.652 598.653 966.767 598.538 966.859C598.424 966.952 598.292 967.02 598.15 967.06C600.049 972.425 601.493 977.94 602.466 983.548C602.581 984.434 602.696 985.321 602.812 986.208L603.416 986.129C611.08 966.41 623.653 948.975 639.945 935.478C640.17 935.281 640.453 935.163 640.751 935.14C641.05 935.118 641.347 935.193 641.599 935.355C641.851 935.516 642.044 935.755 642.149 936.035C642.253 936.315 642.264 936.622 642.18 936.909C637.07 956.548 623.866 981.708 603.466 989.032L603.708 989.001C605.205 998.831 605.976 1008.76 606.012 1018.7L606.254 1018.67L606.859 1018.59C614.52 998.882 627.077 981.452 643.347 967.945C643.577 967.761 643.859 967.653 644.153 967.636C644.448 967.619 644.74 967.694 644.99 967.851C645.24 968.007 645.435 968.238 645.548 968.51C645.662 968.782 645.687 969.083 645.622 969.37C640.472 989.015 627.308 1014.17 606.908 1021.49C606.651 1021.64 606.348 1021.68 606.062 1021.6C606.008 1024.34 605.932 1027.22 605.833 1030.24C605.801 1030.59 605.637 1030.92 605.372 1031.15C605.107 1031.39 604.763 1031.51 604.41 1031.5C604.057 1031.49 603.722 1031.34 603.473 1031.09C603.225 1030.84 603.082 1030.5 603.075 1030.15C603.327 1025.16 603.373 1020.15 603.252 1015.13C585.764 1006.7 561.704 990.61 555.171 971.255C554.721 970.002 556.27 969.309 557.236 969.799C575.477 978.656 594.462 988.81 603.145 1007.68C602.774 1001.05 602.038 994.438 600.94 987.885C600.494 984.46 599.726 981.076 598.959 977.692C581.511 972.42 563.17 965.953 554.826 948.432C554.708 948.191 554.662 947.92 554.695 947.654C554.728 947.387 554.837 947.136 555.011 946.931C555.184 946.726 555.413 946.576 555.671 946.499C555.928 946.422 556.202 946.422 556.46 946.498C573.34 950.246 586.039 961.545 598.011 973.554C596.053 966.127 592.352 959.274 587.215 953.564C572.656 944.351 558.422 934.481 551.037 918.351C550.809 918.151 550.651 917.882 550.586 917.585C550.521 917.288 550.554 916.978 550.678 916.701C550.802 916.423 551.012 916.193 551.277 916.044C551.542 915.894 551.848 915.834 552.149 915.871Z" fill="#5EAD41"/>
<path fill-rule="evenodd" clip-rule="evenodd" d="M1062.23 994.154C1061.83 994.375 1063.93 998.825 1063.19 1002.32C1061.94 1008.24 1048.46 1009.67 1050.41 999.891C1051.04 997.096 1052.43 994.485 1052.25 994.411C1051.3 995.35 1050.22 996.154 1049.05 996.802C1039.73 1001.88 1033.32 985.143 1046.43 983.452C1048.57 983.194 1048.16 983.452 1046.43 982.275C1045.62 981.723 1044.48 981.135 1043.41 980.473C1042.37 979.812 1041.63 978.783 1041.33 977.594C1041.03 976.404 1041.19 975.145 1041.79 974.073C1043.59 970.837 1048.64 968.593 1051.55 971.425C1052.75 972.666 1053.82 974.021 1054.76 975.471C1058.44 980.951 1049.16 968.336 1058.7 963.739C1062.71 961.789 1067.46 963.518 1065.66 971.094C1065.38 972.207 1065.02 973.301 1064.59 974.367C1064.04 975.728 1064.11 975.912 1065.22 974.882C1066.63 973.361 1068.46 972.287 1070.49 971.793C1073.32 971.462 1077.85 976.831 1077.85 980.583C1077.85 985.952 1072.99 986.504 1069.97 986.982C1066.95 987.46 1066.29 988.086 1069.97 988.306C1071.21 988.346 1072.44 988.506 1073.65 988.784C1083.42 991.065 1074.87 1006.22 1066.29 998.163C1064.22 996.214 1062.6 993.97 1062.6 994.117L1062.23 994.154ZM1062.9 988.968C1063.6 987.424 1061.24 987.166 1060.47 988.196C1059.69 989.226 1061.94 991.212 1062.9 988.968ZM1056.45 989.961C1058.51 991.359 1060.13 991.58 1059.32 988.564C1058.88 986.541 1057.7 983.966 1055.64 985.989C1055.39 986.287 1055.21 986.636 1055.12 987.011C1055.02 987.386 1055.01 987.778 1055.08 988.159C1055.16 988.539 1055.31 988.898 1055.54 989.21C1055.77 989.521 1056.07 989.778 1056.41 989.961H1056.45ZM1062.68 985.695C1064.48 983.378 1062.68 981.466 1060.72 982.422C1056.52 984.518 1060.5 988.49 1062.68 985.695ZM1058.66 982.826C1060.98 979.627 1057.04 980.031 1054.98 982.569C1052.91 985.107 1056.52 985.842 1058.73 982.826H1058.66Z" fill="#5EAD41"/>
<path fill-rule="evenodd" clip-rule="evenodd" d="M677.515 859.025C676.646 860.088 676.11 861.383 675.972 862.749C675.835 864.115 676.103 865.491 676.743 866.706C676.743 866.706 676.743 866.706 676.987 866.95C678.204 867.57 679.577 867.819 680.935 867.668C682.293 867.516 683.576 866.97 684.627 866.096C685.467 865.229 686.154 864.226 686.659 863.129C686.786 864.32 687.131 865.477 687.675 866.543C688.419 867.699 689.485 868.611 690.742 869.167C691.999 869.723 693.391 869.899 694.747 869.672H695.031C696.002 868.703 696.666 867.469 696.941 866.125C697.215 864.781 697.088 863.386 696.576 862.113C696.011 861.048 695.268 860.086 694.381 859.268C695.576 859.492 696.803 859.492 697.998 859.268C699.318 858.926 700.506 858.197 701.411 857.177C702.316 856.156 702.896 854.89 703.078 853.538C703.119 853.434 703.119 853.318 703.078 853.213C702.463 851.985 701.498 850.966 700.304 850.286C699.111 849.607 697.743 849.296 696.372 849.393C695.196 849.59 694.066 850.003 693.04 850.612C693.617 849.564 694.002 848.422 694.178 847.239C694.258 845.872 693.935 844.511 693.248 843.327C692.562 842.142 691.543 841.184 690.317 840.574C690.212 840.537 690.097 840.537 689.992 840.574C689.174 840.74 688.381 841.013 687.635 841.387C686.239 842.095 685.144 843.28 684.548 844.726C683.951 846.173 683.893 847.785 684.383 849.271C683.453 848.069 682.134 847.226 680.653 846.885C679.171 846.544 677.617 846.727 676.255 847.401C675.513 847.776 674.829 848.255 674.223 848.824C674.204 848.869 674.194 848.917 674.194 848.966C674.194 849.015 674.204 849.063 674.223 849.108C673.998 850.462 674.179 851.853 674.743 853.104C675.307 854.355 676.229 855.411 677.393 856.139C678.464 856.665 679.62 856.996 680.807 857.114C679.731 857.635 678.744 858.32 677.881 859.146L677.515 859.025ZM694.422 868.656C693.303 868.843 692.154 868.7 691.115 868.245C690.076 867.791 689.192 867.044 688.569 866.096C687.377 863.311 687.148 860.207 687.919 857.277C688.929 858.865 689.799 860.537 690.52 862.276C690.616 862.359 690.739 862.404 690.866 862.404C690.992 862.404 691.115 862.359 691.211 862.276C691.272 862.246 691.326 862.204 691.37 862.152C691.413 862.1 691.446 862.04 691.465 861.975C691.484 861.91 691.489 861.842 691.481 861.775C691.472 861.708 691.449 861.643 691.414 861.585L689.016 856.952C689.984 857.474 690.989 857.922 692.024 858.293C693.58 859.302 694.842 860.704 695.682 862.357C696.095 863.411 696.196 864.562 695.973 865.672C695.749 866.782 695.211 867.804 694.422 868.616V868.656ZM696.494 850.287C697.628 850.227 698.756 850.494 699.743 851.056C700.73 851.618 701.535 852.451 702.062 853.457C701.904 854.553 701.438 855.581 700.719 856.423C699.999 857.265 699.056 857.885 697.998 858.212C694.985 858.474 691.969 857.73 689.423 856.098C691.234 855.625 693.084 855.312 694.95 855.164C695.071 855.128 695.177 855.052 695.251 854.949C695.325 854.846 695.362 854.721 695.356 854.595C695.322 854.469 695.248 854.358 695.145 854.278C695.043 854.197 694.918 854.152 694.787 854.148L689.626 855.001C690.441 854.267 691.176 853.45 691.821 852.563C693.232 851.436 694.889 850.657 696.657 850.287H696.494ZM685.237 845.776C685.724 842.646 689.301 841.712 689.951 841.468C690.961 841.983 691.801 842.778 692.371 843.758C692.94 844.739 693.215 845.862 693.162 846.995C692.46 849.931 690.836 852.566 688.529 854.514C688.529 854.514 688.529 854.879 689.301 848.946C689.312 848.884 689.311 848.82 689.296 848.759C689.282 848.698 689.254 848.641 689.216 848.591C689.177 848.541 689.129 848.5 689.074 848.47C689.018 848.44 688.957 848.422 688.894 848.417C688.772 848.402 688.648 848.43 688.544 848.497C688.44 848.564 688.363 848.665 688.325 848.783L687.553 853.944C687.075 852.974 686.532 852.037 685.928 851.14C685.253 849.438 685.016 847.594 685.237 845.776ZM687.553 855.367C687.667 855.309 687.798 855.298 687.92 855.336C688.041 855.374 688.143 855.458 688.204 855.57C688.233 855.629 688.25 855.693 688.255 855.758C688.26 855.824 688.251 855.889 688.231 855.952C688.21 856.014 688.177 856.072 688.134 856.121C688.091 856.171 688.039 856.211 687.98 856.241C687.921 856.27 687.857 856.288 687.792 856.292C687.726 856.297 687.661 856.289 687.598 856.268C687.536 856.247 687.479 856.214 687.429 856.171C687.379 856.128 687.339 856.076 687.309 856.017C687.282 855.959 687.267 855.895 687.265 855.831C687.262 855.766 687.273 855.702 687.295 855.641C687.318 855.581 687.353 855.525 687.397 855.478C687.441 855.431 687.494 855.393 687.553 855.367ZM677.474 855.123C676.916 854.945 676.403 854.648 675.97 854.254C675.537 853.859 675.194 853.375 674.966 852.835C674.737 852.296 674.628 851.713 674.646 851.127C674.664 850.541 674.808 849.966 675.069 849.442C675.33 848.917 675.701 848.455 676.158 848.087C676.614 847.719 677.144 847.454 677.712 847.311C678.281 847.167 678.873 847.148 679.449 847.255C680.025 847.362 680.572 847.592 681.051 847.93C683.653 849.485 685.668 851.857 686.781 854.676C686.781 854.676 687.147 854.92 681.742 852.197C681.659 852.157 681.569 852.137 681.477 852.137C681.386 852.137 681.296 852.157 681.213 852.197C681.138 852.245 681.077 852.311 681.034 852.389C680.991 852.467 680.969 852.555 680.969 852.644C680.985 852.739 681.022 852.829 681.078 852.907C681.135 852.984 681.209 853.047 681.295 853.091L685.928 855.448C684.842 855.583 683.769 855.8 682.717 856.098C680.916 856.209 679.115 855.874 677.474 855.123ZM686.375 856.424C686.375 856.424 686.7 856.18 682.311 860.488C682.265 860.533 682.229 860.587 682.204 860.646C682.18 860.705 682.167 860.769 682.167 860.833C682.167 860.897 682.18 860.961 682.204 861.02C682.229 861.079 682.265 861.133 682.311 861.179C682.352 861.23 682.405 861.271 682.465 861.299C682.525 861.327 682.59 861.342 682.656 861.342C682.722 861.342 682.787 861.327 682.847 861.299C682.907 861.271 682.96 861.23 683.001 861.179L686.7 857.48C686.491 858.565 686.382 859.667 686.375 860.772C685.886 862.512 684.995 864.113 683.774 865.446C683.432 865.927 682.99 866.328 682.478 866.622C681.966 866.915 681.396 867.093 680.808 867.144C680.22 867.195 679.628 867.117 679.073 866.916C678.518 866.714 678.014 866.395 677.595 865.979C677.176 865.563 676.853 865.061 676.648 864.508C676.443 863.954 676.36 863.363 676.407 862.775C676.453 862.186 676.628 861.615 676.917 861.101C677.207 860.587 677.605 860.142 678.084 859.797C680.374 857.748 683.304 856.556 686.375 856.424Z" fill="#5EAD41"/>
<path fill-rule="evenodd" clip-rule="evenodd" d="M441.025 971.762C440.156 972.825 439.62 974.12 439.482 975.486C439.345 976.852 439.613 978.228 440.253 979.443L440.497 979.686C441.714 980.306 443.087 980.556 444.445 980.404C445.803 980.253 447.087 979.706 448.137 978.833C448.977 977.966 449.664 976.963 450.169 975.866C450.297 977.057 450.641 978.214 451.185 979.28C451.923 980.44 452.99 981.353 454.25 981.904C455.509 982.454 456.905 982.616 458.257 982.369C458.302 982.388 458.35 982.397 458.399 982.397C458.448 982.397 458.496 982.388 458.541 982.369C459.512 981.399 460.176 980.166 460.451 978.821C460.726 977.477 460.599 976.082 460.086 974.81C459.521 973.744 458.779 972.782 457.891 971.965C459.075 972.168 460.284 972.168 461.468 971.965C465.532 971.274 466.548 966.438 466.588 966.234C466.629 966.13 466.629 966.014 466.588 965.909C465.973 964.681 465.008 963.663 463.815 962.983C462.621 962.303 461.253 961.992 459.883 962.089C458.713 962.291 457.587 962.69 456.55 963.268C457.133 962.237 457.519 961.107 457.688 959.935C457.756 958.545 457.405 957.166 456.68 955.978C455.956 954.79 454.891 953.846 453.624 953.27C453.579 953.251 453.53 953.241 453.482 953.241C453.433 953.241 453.384 953.251 453.339 953.27C452.521 953.436 451.729 953.71 450.982 954.083C449.587 954.791 448.492 955.976 447.896 957.422C447.299 958.869 447.241 960.481 447.731 961.967C446.806 960.758 445.49 959.907 444.008 959.559C442.526 959.211 440.969 959.387 439.603 960.057C438.868 960.46 438.186 960.952 437.571 961.52C437.552 961.565 437.542 961.613 437.542 961.662C437.542 961.711 437.552 961.76 437.571 961.805C437.346 963.159 437.527 964.549 438.091 965.8C438.655 967.051 439.577 968.108 440.741 968.835C441.818 969.344 442.971 969.673 444.154 969.811C443.079 970.331 442.091 971.017 441.228 971.843L441.025 971.762ZM457.932 981.231C456.813 981.417 455.664 981.274 454.626 980.82C453.587 980.365 452.702 979.618 452.08 978.67C450.887 975.885 450.659 972.782 451.429 969.851C452.439 971.439 453.31 973.112 454.03 974.85C454.126 974.933 454.249 974.979 454.376 974.979C454.503 974.979 454.625 974.933 454.721 974.85C454.836 974.782 454.921 974.673 454.959 974.545C454.996 974.417 454.984 974.279 454.924 974.159L452.527 969.526C453.49 970.055 454.496 970.504 455.534 970.867C457.08 971.888 458.339 973.287 459.192 974.932C459.605 975.986 459.706 977.136 459.483 978.246C459.259 979.356 458.721 980.378 457.932 981.19V981.231ZM460.005 962.861C461.139 962.801 462.266 963.068 463.253 963.63C464.24 964.192 465.045 965.025 465.572 966.031C465.414 967.127 464.948 968.155 464.229 968.997C463.51 969.839 462.566 970.459 461.508 970.786C458.482 971.045 455.455 970.302 452.892 968.673C454.723 968.226 456.584 967.913 458.46 967.738C458.571 967.707 458.668 967.64 458.737 967.548C458.806 967.457 458.843 967.345 458.843 967.23C458.843 967.115 458.806 967.004 458.737 966.912C458.668 966.82 458.571 966.754 458.46 966.722L453.299 967.576C454.113 966.842 454.849 966.024 455.493 965.137C456.905 964.011 458.562 963.231 460.33 962.861H460.005ZM448.747 958.35C449.235 955.221 452.811 954.286 453.461 954.042C454.471 954.557 455.312 955.352 455.881 956.333C456.451 957.313 456.725 958.437 456.672 959.569C456.027 962.546 454.446 965.237 452.161 967.25C452.161 967.25 452.161 967.616 452.933 961.683C452.945 961.621 452.943 961.557 452.928 961.496C452.914 961.435 452.886 961.377 452.848 961.328C452.81 961.278 452.761 961.236 452.706 961.207C452.65 961.177 452.589 961.159 452.527 961.154C452.404 961.139 452.28 961.167 452.176 961.234C452.072 961.301 451.995 961.402 451.958 961.52L451.185 966.681C450.707 965.711 450.164 964.774 449.56 963.877C448.885 962.175 448.648 960.33 448.869 958.513L448.747 958.35ZM451.023 967.941C451.081 967.906 451.145 967.884 451.213 967.875C451.28 967.866 451.348 967.871 451.413 967.891C451.478 967.91 451.538 967.942 451.59 967.986C451.642 968.03 451.684 968.084 451.714 968.144C451.743 968.203 451.761 968.267 451.765 968.333C451.77 968.398 451.762 968.464 451.741 968.526C451.72 968.588 451.687 968.646 451.644 968.696C451.601 968.745 451.549 968.786 451.49 968.815C451.431 968.844 451.368 968.862 451.302 968.867C451.237 968.871 451.171 968.863 451.109 968.842C451.046 968.821 450.989 968.789 450.939 968.746C450.89 968.703 450.849 968.65 450.82 968.592C450.74 968.502 450.695 968.386 450.695 968.266C450.695 968.146 450.74 968.031 450.82 967.941H451.023ZM440.984 967.697C440.426 967.52 439.913 967.223 439.48 966.828C439.047 966.433 438.704 965.949 438.476 965.409C438.248 964.87 438.139 964.287 438.156 963.702C438.174 963.116 438.319 962.541 438.579 962.016C438.84 961.491 439.212 961.029 439.668 960.661C440.124 960.294 440.654 960.029 441.223 959.885C441.791 959.742 442.383 959.723 442.959 959.829C443.536 959.936 444.082 960.166 444.561 960.504C447.153 962.071 449.165 964.439 450.291 967.25C450.291 967.25 450.657 967.494 445.252 964.771C445.173 964.721 445.081 964.694 444.988 964.694C444.894 964.694 444.802 964.721 444.723 964.771C444.648 964.819 444.587 964.885 444.544 964.963C444.501 965.042 444.479 965.129 444.48 965.218C444.487 965.316 444.522 965.409 444.579 965.488C444.636 965.567 444.715 965.628 444.805 965.665L449.438 968.023C448.353 968.157 447.279 968.374 446.227 968.673C444.426 968.784 442.625 968.449 440.984 967.697ZM449.885 968.957C449.885 968.957 450.21 968.957 445.821 973.021C445.775 973.067 445.739 973.121 445.715 973.18C445.69 973.239 445.677 973.303 445.677 973.367C445.677 973.431 445.69 973.495 445.715 973.554C445.739 973.613 445.775 973.667 445.821 973.712C445.863 973.763 445.915 973.804 445.975 973.833C446.035 973.861 446.1 973.876 446.166 973.876C446.232 973.876 446.297 973.861 446.357 973.833C446.417 973.804 446.47 973.763 446.512 973.712L450.21 970.014C450.001 971.085 449.892 972.174 449.885 973.265C449.405 975.021 448.513 976.637 447.284 977.98C446.404 978.688 445.342 979.133 444.22 979.263C443.098 979.392 441.962 979.201 440.944 978.711C440.414 977.701 440.193 976.557 440.309 975.423C440.425 974.288 440.872 973.213 441.594 972.33C443.908 970.331 446.829 969.171 449.885 969.039V968.957Z" fill="#5EAD41"/>
<path fill-rule="evenodd" clip-rule="evenodd" d="M1353.39 942.479C1352.52 943.542 1351.98 944.837 1351.84 946.203C1351.71 947.569 1351.97 948.945 1352.61 950.16C1352.61 950.16 1352.61 950.16 1352.86 950.404C1354.08 951.024 1355.45 951.273 1356.81 951.122C1358.16 950.97 1359.45 950.424 1360.5 949.55C1361.34 948.683 1362.03 947.68 1362.53 946.583C1362.66 947.774 1363 948.931 1363.55 949.997C1364.29 951.153 1365.36 952.065 1366.61 952.621C1367.87 953.178 1369.26 953.353 1370.62 953.127H1370.9C1371.87 952.157 1372.54 950.924 1372.81 949.579C1373.09 948.235 1372.96 946.84 1372.45 945.567C1371.88 944.502 1371.14 943.54 1370.25 942.723C1371.45 942.946 1372.67 942.946 1373.87 942.723C1375.19 942.38 1376.38 941.652 1377.28 940.631C1378.19 939.611 1378.77 938.344 1378.95 936.992C1378.99 936.888 1378.99 936.772 1378.95 936.667C1378.33 935.439 1377.37 934.421 1376.18 933.741C1374.98 933.061 1373.61 932.75 1372.24 932.847C1371.07 933.044 1369.94 933.458 1368.91 934.066C1369.49 933.018 1369.87 931.876 1370.05 930.693C1370.13 929.326 1369.81 927.966 1369.12 926.781C1368.43 925.596 1367.41 924.639 1366.19 924.028C1366.08 923.991 1365.97 923.991 1365.86 924.028C1365.04 924.194 1364.25 924.467 1363.51 924.841C1362.11 925.549 1361.02 926.734 1360.42 928.18C1359.82 929.627 1359.76 931.239 1360.25 932.725C1359.32 931.523 1358.01 930.68 1356.52 930.339C1355.04 929.998 1353.49 930.181 1352.13 930.855C1351.38 931.231 1350.7 931.71 1350.09 932.278C1350.07 932.323 1350.07 932.371 1350.07 932.42C1350.07 932.469 1350.07 932.517 1350.09 932.562C1349.87 933.916 1350.05 935.307 1350.61 936.558C1351.18 937.809 1352.1 938.865 1353.26 939.593C1354.33 940.119 1355.49 940.45 1356.68 940.569C1355.6 941.089 1354.61 941.774 1353.75 942.601L1353.39 942.479ZM1370.29 952.11C1369.17 952.297 1368.03 952.154 1366.99 951.699C1365.95 951.245 1365.06 950.498 1364.44 949.55C1363.25 946.765 1363.02 943.661 1363.79 940.731C1364.8 942.319 1365.67 943.992 1366.39 945.73C1366.49 945.813 1366.61 945.858 1366.74 945.858C1366.86 945.858 1366.99 945.813 1367.08 945.73C1367.14 945.7 1367.2 945.658 1367.24 945.606C1367.28 945.555 1367.32 945.494 1367.34 945.429C1367.36 945.364 1367.36 945.296 1367.35 945.229C1367.34 945.162 1367.32 945.097 1367.29 945.039L1364.89 940.406C1365.85 940.928 1366.86 941.376 1367.89 941.747C1369.45 942.756 1370.71 944.158 1371.55 945.811C1371.97 946.865 1372.07 948.016 1371.84 949.126C1371.62 950.236 1371.08 951.258 1370.29 952.07V952.11ZM1372.37 933.741C1373.5 933.681 1374.63 933.948 1375.61 934.51C1376.6 935.072 1377.41 935.905 1377.93 936.911C1377.78 938.007 1377.31 939.035 1376.59 939.877C1375.87 940.719 1374.93 941.339 1373.87 941.666C1370.86 941.928 1367.84 941.185 1365.29 939.553C1367.11 939.079 1368.95 938.766 1370.82 938.618C1370.94 938.582 1371.05 938.506 1371.12 938.403C1371.2 938.3 1371.23 938.175 1371.23 938.049C1371.19 937.923 1371.12 937.812 1371.02 937.732C1370.91 937.651 1370.79 937.606 1370.66 937.602L1365.5 938.455C1366.31 937.721 1367.05 936.904 1367.69 936.017C1369.1 934.89 1370.76 934.111 1372.53 933.741H1372.37ZM1361.11 929.23C1361.6 926.101 1365.17 925.166 1365.82 924.922C1366.83 925.437 1367.67 926.232 1368.24 927.212C1368.81 928.193 1369.09 929.317 1369.03 930.449C1368.33 933.386 1366.71 936.02 1364.4 937.968C1364.4 937.968 1364.4 938.333 1365.17 932.4C1365.18 932.338 1365.18 932.274 1365.17 932.213C1365.15 932.152 1365.13 932.095 1365.09 932.045C1365.05 931.995 1365 931.954 1364.94 931.924C1364.89 931.894 1364.83 931.876 1364.77 931.872C1364.64 931.856 1364.52 931.885 1364.41 931.951C1364.31 932.018 1364.23 932.119 1364.2 932.237L1363.42 937.399C1362.95 936.428 1362.4 935.491 1361.8 934.594C1361.12 932.892 1360.89 931.048 1361.11 929.23ZM1363.42 938.821C1363.54 938.763 1363.67 938.752 1363.79 938.79C1363.91 938.828 1364.01 938.912 1364.07 939.024C1364.1 939.083 1364.12 939.147 1364.13 939.212C1364.13 939.278 1364.12 939.344 1364.1 939.406C1364.08 939.468 1364.05 939.526 1364.01 939.575C1363.96 939.625 1363.91 939.665 1363.85 939.695C1363.79 939.724 1363.73 939.742 1363.66 939.746C1363.6 939.751 1363.53 939.743 1363.47 939.722C1363.41 939.701 1363.35 939.668 1363.3 939.625C1363.25 939.582 1363.21 939.53 1363.18 939.471C1363.15 939.413 1363.14 939.349 1363.14 939.285C1363.13 939.22 1363.14 939.156 1363.17 939.095C1363.19 939.035 1363.22 938.979 1363.27 938.932C1363.31 938.885 1363.37 938.847 1363.42 938.821ZM1353.35 938.577C1352.79 938.399 1352.27 938.103 1351.84 937.708C1351.41 937.313 1351.07 936.829 1350.84 936.289C1350.61 935.75 1350.5 935.167 1350.52 934.581C1350.54 933.995 1350.68 933.421 1350.94 932.896C1351.2 932.371 1351.57 931.909 1352.03 931.541C1352.48 931.173 1353.02 930.909 1353.58 930.765C1354.15 930.621 1354.74 930.602 1355.32 930.709C1355.9 930.816 1356.44 931.046 1356.92 931.384C1359.52 932.939 1361.54 935.311 1362.65 938.13C1362.65 938.13 1363.02 938.374 1357.61 935.651C1357.53 935.611 1357.44 935.591 1357.35 935.591C1357.26 935.591 1357.17 935.611 1357.08 935.651C1357.01 935.699 1356.95 935.765 1356.9 935.843C1356.86 935.921 1356.84 936.009 1356.84 936.098C1356.86 936.193 1356.89 936.283 1356.95 936.361C1357.01 936.438 1357.08 936.502 1357.17 936.545L1361.8 938.902C1360.71 939.037 1359.64 939.254 1358.59 939.553C1356.79 939.663 1354.99 939.328 1353.35 938.577ZM1362.25 939.878C1362.25 939.878 1362.57 939.634 1358.18 943.942C1358.14 943.987 1358.1 944.041 1358.08 944.1C1358.05 944.159 1358.04 944.223 1358.04 944.287C1358.04 944.351 1358.05 944.415 1358.08 944.474C1358.1 944.534 1358.14 944.587 1358.18 944.633C1358.22 944.684 1358.28 944.725 1358.34 944.753C1358.4 944.781 1358.46 944.796 1358.53 944.796C1358.59 944.796 1358.66 944.781 1358.72 944.753C1358.78 944.725 1358.83 944.684 1358.87 944.633L1362.57 940.934C1362.36 942.019 1362.25 943.121 1362.25 944.226C1361.76 945.966 1360.87 947.567 1359.64 948.9C1359.3 949.381 1358.86 949.783 1358.35 950.076C1357.84 950.369 1357.27 950.547 1356.68 950.598C1356.09 950.649 1355.5 950.571 1354.94 950.37C1354.39 950.168 1353.88 949.849 1353.47 949.433C1353.05 949.017 1352.72 948.515 1352.52 947.962C1352.31 947.408 1352.23 946.817 1352.28 946.229C1352.32 945.64 1352.5 945.069 1352.79 944.555C1353.08 944.041 1353.48 943.596 1353.95 943.251C1356.25 941.202 1359.18 940.01 1362.25 939.878Z" fill="#5EAD41"/>
</g>
<defs>
<clipPath id="clip0_182_6031">
<rect width="1440" height="1004" fill="white"/>
</clipPath>
</defs>
</svg>
