<svg viewBox="0 0 375 628" fill="none" xmlns="http://www.w3.org/2000/svg">
<g clip-path="url(#clip0_403_5078)">
<path fill-rule="evenodd" clip-rule="evenodd" d="M25.6886 494.854C22.824 496.19 19.2067 498.216 16.2083 499.821L10.8827 502.657C10.8827 502.657 11.5397 502.573 12.6148 502.399C13.6898 502.225 15.1828 501.96 16.8623 501.582C20.4343 500.829 23.9218 499.719 27.2728 498.271C28.4065 497.764 29.5053 497.182 30.5621 496.53C29.9179 498.802 29.2587 501.067 28.5547 503.309C28.3158 503.177 28.0407 503.125 27.7701 503.161C25.9388 503.537 24.1751 504.188 22.5394 505.093C19.6822 506.415 16.0575 508.455 13.0591 510.06L7.74096 512.881L9.4656 512.638C10.5406 512.464 12.0411 512.184 13.7131 511.821C17.2866 511.073 20.7747 509.964 24.1236 508.51C25.2593 507.99 26.365 507.406 27.4353 506.762C26.4641 509.692 25.4107 512.6 24.3124 515.485C23.6394 515.151 22.1157 515.102 18.0625 516.016C12.5528 517.515 7.15035 519.385 1.89201 521.611C7.60101 521.352 13.2859 520.707 18.9079 519.681C20.3385 519.388 21.7455 518.99 23.1173 518.49L22.82 519.089C22.7088 519.198 22.6222 519.33 22.5659 519.476C22.5096 519.621 22.4849 519.777 22.4934 519.933C22.0624 520.801 21.736 521.72 21.3424 522.625C20.9487 523.529 20.6145 524.314 20.2357 525.152C20.1307 524.961 19.9699 524.806 19.7748 524.709C19.5797 524.613 19.3596 524.577 19.144 524.609C17.4316 524.818 15.765 525.306 14.2108 526.055C11.5173 527.122 8.08596 528.811 5.22876 530.132L0.18578 532.474C0.18578 532.474 0.790694 532.458 1.79875 532.381C2.8068 532.304 4.20304 532.158 5.75591 531.923C9.10492 531.494 12.3965 530.697 15.5712 529.547C16.7279 529.117 17.848 528.595 18.9207 527.985C17.8876 530.064 16.9294 532.18 15.8215 534.221C15.238 533.82 13.8266 533.883 9.94614 535.162C4.93684 537.063 0.0724969 539.326 -4.60835 541.934C0.700885 541.248 5.95273 540.175 11.1049 538.721C12.3438 538.33 13.3437 537.969 14.0449 537.646L13.9037 537.93C13.741 538.013 13.6013 538.135 13.4974 538.285C13.3935 538.436 13.3285 538.609 13.3083 538.791C13.2834 538.901 13.2711 539.014 13.2718 539.127C12.6128 540.453 11.8915 541.754 11.108 543.031C10.5617 542.591 9.41923 542.676 5.77811 544.112C1.45785 546.146 -2.6922 548.523 -6.63208 551.222C-1.89452 550.374 2.76771 549.149 7.31007 547.558C7.94425 547.295 8.51128 547.055 8.9738 546.837C7.90267 548.617 6.80164 550.383 5.67069 552.133C5.18379 551.537 4.13803 551.464 -0.144152 553.402C-4.71356 555.79 -9.09814 558.517 -13.2613 561.559C-8.2478 560.354 -3.33321 558.769 1.44001 556.818C2.08905 556.525 2.66341 556.233 3.15574 555.993L1.19122 558.932C0.49622 558.755 -0.652397 559.378 -3.57937 562.716C-6.94822 566.894 -10.0053 571.315 -12.7259 575.942C-8.46945 572.631 -4.45957 569.014 -0.728036 565.121C-0.251385 564.575 0.158212 564.088 0.515678 563.669C0.470555 568.021 0.76579 572.371 1.39873 576.677C2.735 572.333 3.69859 567.884 4.27904 563.376C4.66385 558.849 4.0052 558.261 3.15349 558.136C4.54538 556.198 5.89229 554.201 7.19436 552.181C7.23987 552.925 7.32645 553.665 7.45369 554.399C8.00112 557.333 8.93737 560.182 10.2377 562.869C10.8382 564.137 11.4309 565.233 11.851 566.002C12.2711 566.77 12.5859 567.225 12.5859 567.225C12.5859 567.225 12.5099 566.702 12.4256 565.821C12.3413 564.94 12.1965 563.73 12.0513 562.371C11.7757 559.624 11.5436 556.301 11.1566 553.815C11.047 552.327 10.6637 550.872 10.0259 549.523C9.94175 549.372 9.82222 549.244 9.67761 549.15C9.53299 549.055 9.36758 548.997 9.19558 548.98C9.90226 547.821 10.6164 546.647 11.3006 545.457C11.4583 545.331 11.5866 545.172 11.6765 544.992C11.7663 544.811 11.8156 544.612 11.8208 544.411C12.3559 543.334 12.9957 542.309 13.5683 541.27C13.6742 541.844 13.8252 542.516 13.9916 543.345C14.5878 545.898 15.634 549.233 16.3726 551.987C16.7494 553.368 17.0511 554.6 17.2774 555.495L17.6244 556.936C17.6244 556.936 17.7277 556.391 17.8673 555.472C18.007 554.553 18.1458 553.26 18.2393 551.796C18.474 548.688 18.2829 545.563 17.6715 542.507C17.4511 540.861 16.8543 539.288 15.9276 537.911C15.8058 537.782 15.6643 537.674 15.5086 537.59C15.7092 537.187 15.9099 536.783 16.118 536.364C16.2373 536.265 16.3345 536.142 16.4036 536.003C16.4727 535.864 16.5121 535.712 16.5193 535.557C17.1957 534.196 17.8794 532.82 18.5632 531.444L18.6534 531.713C18.9241 532.444 19.3371 533.377 19.8629 534.608C20.3887 535.839 21.0419 537.263 21.6505 538.741C22.259 540.218 22.8602 541.748 23.3341 543.158C23.8081 544.568 24.1846 545.837 24.4183 546.755L24.8104 548.255L25.0157 546.716C25.1541 545.431 25.2108 544.139 25.1856 542.847C25.1661 541.171 25.0046 539.5 24.7029 537.852C24.4139 536.234 23.9493 534.653 23.3172 533.135C22.8838 532.078 22.3512 531.064 21.7265 530.107C21.4077 529.596 20.9992 529.147 20.5209 528.781C20.358 528.64 20.1626 528.543 19.9526 528.498C20.8593 526.674 21.624 524.797 22.4335 522.943C22.6193 522.569 22.8051 522.195 22.9983 521.807C23.2315 522.463 23.577 523.269 24.0796 524.209C25.1759 526.618 26.9831 529.624 28.3634 532.1L30.891 536.508L30.7231 535.044C30.5939 534.141 30.4041 532.872 30.1243 531.446C29.5718 528.431 28.6828 525.487 27.4741 522.67C26.9201 521.183 26.0505 519.835 24.9252 518.717C24.7918 518.604 24.6326 518.525 24.4616 518.487C25.5678 515.773 26.6216 513.052 27.6231 510.287C27.9688 511.167 28.4795 512.316 29.3124 513.905C30.7758 516.814 32.973 520.498 34.6982 523.556L37.7511 528.97C37.7511 528.97 37.6374 528.298 37.4181 527.201C37.1989 526.104 36.8665 524.559 36.4292 522.849C35.5428 519.186 34.2828 515.623 32.6691 512.216C31.9286 510.405 30.8527 508.751 29.498 507.339C29.3127 507.183 29.092 507.073 28.855 507.02C29.693 504.583 30.4861 502.124 31.2269 499.658C31.9058 500.991 32.6569 502.285 33.4769 503.536C35.2312 506.273 37.7565 509.747 39.7576 512.625L43.3176 517.732C43.3176 517.732 43.1442 517.068 42.8204 515.993C42.4967 514.918 42.03 513.418 41.4359 511.762C40.1962 508.203 38.5989 504.779 36.6686 501.542C35.7353 499.796 34.4855 498.239 32.9829 496.95C32.7339 496.757 32.4228 496.662 32.1085 496.683C33.9804 490.175 35.473 483.563 36.5787 476.881C36.7112 476.089 35.5158 475.943 35.3534 476.72C34.254 482.197 33.0199 487.607 31.599 492.98C31.4065 492.917 31.2035 492.892 31.0014 492.907C29.1446 493.292 27.3546 493.948 25.6886 494.854V494.854Z" fill="#5EAD41"/>
<path fill-rule="evenodd" clip-rule="evenodd" d="M33.0687 523.232C32.4857 523.422 31.7647 523.786 31.8107 524.578C31.8473 524.829 31.9561 525.063 32.123 525.249C32.2898 525.435 32.5071 525.566 32.7465 525.623C33.263 525.683 33.7858 525.629 34.2807 525.465C35.7962 524.999 37.2306 524.288 38.5303 523.358C39.6407 522.548 40.6371 521.584 41.4912 520.491C41.6599 522.392 41.8133 524.293 41.9668 526.193C39.1593 527.239 36.3518 528.474 33.7284 529.535C33.1607 529.773 32.5011 530.217 32.6391 530.993C32.6974 531.237 32.8249 531.458 33.0052 531.627C33.1855 531.796 33.4106 531.906 33.6517 531.943C34.1756 531.963 34.6979 531.872 35.1858 531.674C36.5886 531.113 37.9101 530.357 39.1132 529.425C40.1988 528.589 41.1781 527.615 42.0281 526.526C42.1355 527.983 42.2276 529.44 42.3043 530.913C39.6326 532.559 36.8365 533.978 33.9432 535.158C33.3448 535.396 32.6238 535.839 32.7312 536.615C32.777 536.87 32.9023 537.102 33.0878 537.277C33.2734 537.451 33.5091 537.558 33.7591 537.582C34.3156 537.6 34.8696 537.498 35.3853 537.281C36.9362 536.66 38.3733 535.771 39.6348 534.651C40.6791 533.737 41.5887 532.669 42.335 531.484C42.427 533.163 42.5037 534.857 42.5497 536.568C39.9911 538.287 37.2403 539.681 34.3574 540.718C33.7744 540.924 33.0533 541.32 33.1147 542.096C33.1452 542.353 33.2561 542.592 33.4306 542.778C33.605 542.964 33.8335 543.086 34.0812 543.125C34.6324 543.171 35.1866 543.095 35.7074 542.903C37.2738 542.343 38.7215 541.477 39.9724 540.353C41.0013 539.454 41.8775 538.383 42.5651 537.186C42.5651 538.675 42.5651 540.179 42.6571 541.684V542.017C39.7387 543.831 36.733 545.49 33.6517 546.99C33.0073 547.291 32.2556 547.798 32.409 548.574C32.4773 548.829 32.626 549.053 32.8317 549.211C33.0373 549.369 33.2881 549.451 33.5443 549.445C34.13 549.416 34.704 549.265 35.2318 549.001C36.8254 548.245 38.3036 547.253 39.6195 546.055C40.8022 544.989 41.8349 543.758 42.6878 542.397C42.6878 543.981 42.6878 545.438 42.6878 546.942C41.5065 547.956 40.3099 548.938 39.0519 549.841C37.631 550.873 36.1503 551.815 34.6182 552.66C34.0199 552.993 33.2988 553.531 33.4676 554.244C33.5512 554.494 33.7122 554.709 33.9257 554.855C34.1392 555.001 34.3934 555.07 34.6489 555.052C35.2369 554.986 35.8057 554.797 36.3211 554.498C37.8844 553.635 39.2911 552.499 40.4786 551.14C41.3498 550.125 42.0875 548.996 42.6725 547.782C42.6725 549.762 42.5958 551.742 42.5191 553.721C41.3991 554.846 40.2485 555.939 39.0519 556.889C37.6536 558.067 36.1658 559.126 34.6028 560.057C33.9892 560.437 33.2681 561.007 33.4522 561.783C33.5436 562.035 33.7146 562.247 33.9375 562.385C34.1603 562.523 34.4219 562.579 34.6796 562.544C34.9811 562.511 35.276 562.431 35.554 562.306C35.8449 562.191 36.1269 562.053 36.3978 561.894C37.9883 560.927 39.3968 559.672 40.5553 558.188C41.325 557.188 41.9694 556.092 42.473 554.925C42.381 556.731 42.2889 558.521 42.1815 560.31C40.2602 562.532 38.0136 564.43 35.5233 565.933C35.0017 566.25 34.3881 566.757 34.5875 567.517C34.6612 567.762 34.8107 567.975 35.0129 568.124C35.2152 568.273 35.4592 568.349 35.7074 568.341C35.9802 568.324 36.2491 568.265 36.5052 568.167C36.7666 568.071 37.0184 567.949 37.2569 567.802C38.6645 566.942 39.8821 565.788 40.8315 564.413C41.3409 563.684 41.7584 562.891 42.0742 562.053C41.9514 563.906 41.8133 565.743 41.6599 567.596C39.7062 569.828 37.4353 571.74 34.925 573.267C34.4187 573.568 33.8358 574.074 34.0505 574.851C34.1251 575.093 34.2722 575.305 34.4706 575.456C34.6691 575.607 34.9087 575.689 35.1551 575.69C35.4173 575.679 35.6761 575.625 35.9222 575.532C36.163 575.428 36.3986 575.312 36.6279 575.183C37.9868 574.356 39.1585 573.238 40.0644 571.905C40.6991 570.971 41.1859 569.939 41.5065 568.848C41.3684 570.432 41.2304 572.015 41.0616 573.599C39.0794 575.849 37.4068 578.37 36.091 581.091C35.7995 581.661 35.6154 582.469 36.2444 582.913C36.4448 583.049 36.6795 583.121 36.9194 583.121C37.1594 583.121 37.394 583.049 37.5944 582.913C37.9693 582.595 38.2773 582.201 38.4996 581.756C39.561 579.761 40.3656 577.631 40.8928 575.421C40.7855 576.45 40.6781 577.48 40.5553 578.509C39.1083 581.826 38.1119 585.333 37.5944 588.931C37.4717 589.692 37.5944 590.674 38.4382 590.959C38.7171 591.026 39.0086 591.011 39.2798 590.916C39.5509 590.821 39.7908 590.649 39.9724 590.42C40.2882 589.946 40.4978 589.405 40.586 588.836C41.1844 585.567 41.2827 582.222 40.8775 578.921C40.8775 578.399 41.0156 577.876 41.0923 577.337C41.2237 579.861 41.6198 582.362 42.2736 584.797C42.427 585.399 42.8105 586.128 43.5776 586.033C43.8137 585.988 44.0326 585.874 44.2091 585.706C44.3855 585.538 44.5123 585.322 44.5748 585.083C44.6445 584.59 44.6131 584.088 44.4828 583.61C43.8281 580.838 42.751 578.192 41.2917 575.769C41.5986 573.314 41.8594 570.828 42.0895 568.357C42.2316 569.857 42.5616 571.332 43.0713 572.744C43.6919 574.429 44.5167 576.025 45.526 577.496C45.9249 578.082 46.6306 578.699 47.3056 578.319C47.5111 578.18 47.6718 577.98 47.7674 577.746C47.863 577.512 47.8891 577.254 47.8426 577.005C47.7076 576.49 47.4897 576.003 47.1982 575.563L44.7282 571.635C43.9305 570.416 43.102 569.149 42.1509 567.66C42.2889 566.076 42.4117 564.571 42.5191 563.019C43.1023 565.988 44.2268 568.815 45.8328 571.35C46.201 571.936 46.83 572.554 47.5204 572.221C47.7347 572.098 47.9088 571.912 48.0208 571.686C48.1327 571.461 48.1775 571.206 48.1494 570.954C48.0461 570.45 47.8592 569.968 47.5971 569.529C46.1084 566.935 44.4367 564.457 42.5958 562.116C42.7338 559.962 42.8412 557.824 42.9333 555.67C43.0192 557.335 43.3771 558.974 43.9918 560.516C44.6745 562.242 45.6168 563.846 46.784 565.268C47.2442 565.838 48.0267 566.393 48.6557 565.933C48.8452 565.769 48.9829 565.55 49.0513 565.305C49.1196 565.059 49.1154 564.798 49.0392 564.555C48.8619 564.067 48.6079 563.612 48.2874 563.209C47.3056 561.894 46.4618 560.706 45.6027 559.471C44.7436 558.236 43.8998 556.953 42.9486 555.385C42.9486 554.735 42.9486 554.102 42.9486 553.468C42.9555 553.373 42.9555 553.278 42.9486 553.183V553.183C42.9486 551.995 42.9486 550.791 43.0407 549.588C43.2815 551.367 43.7996 553.095 44.5748 554.703C45.4745 556.563 46.6553 558.264 48.0727 559.74C48.6403 560.342 49.6068 560.912 50.1438 560.421C50.3248 560.234 50.4444 559.992 50.4856 559.731C50.5269 559.47 50.4878 559.201 50.3739 558.964C50.1107 558.437 49.7748 557.951 49.3767 557.523C48.1647 556.129 47.1368 554.83 46.109 553.468C45.0811 552.106 44.1146 550.76 43.0407 549.049C43.0407 548.225 43.0407 547.465 43.0407 546.594C43.0467 546.531 43.0467 546.467 43.0407 546.404V546.404C43.0407 545.533 43.0407 544.662 43.0407 543.775C43.4714 545.242 44.1015 546.639 44.9123 547.924C46.0402 549.755 47.4739 551.363 49.1466 552.676C49.8216 553.23 50.8495 553.674 51.3711 553.104C51.5211 552.886 51.6017 552.626 51.6017 552.359C51.6017 552.092 51.5211 551.832 51.3711 551.615C51.2044 551.355 51.0088 551.115 50.7881 550.902C50.5733 550.68 50.3432 550.459 50.1438 550.284C48.8393 549.1 47.6046 547.836 46.4465 546.499C45.3013 545.253 44.2306 543.935 43.2401 542.555V541.589C43.2401 540.29 43.2401 538.991 43.2401 537.677C43.7535 539.327 44.5258 540.878 45.526 542.27C46.6349 543.848 47.9755 545.237 49.4994 546.388C50.0977 546.863 51.0336 547.243 51.5398 546.657C51.6817 546.446 51.7577 546.194 51.7577 545.937C51.7577 545.679 51.6817 545.428 51.5398 545.216C51.2414 544.752 50.8677 544.345 50.4353 544.012C49.1159 542.904 47.9653 541.874 46.784 540.844C45.6027 539.815 44.4981 538.738 43.1941 537.392L43.102 533.416C44.823 536.014 47.0881 538.18 49.7296 539.752C50.2665 540.068 51.0489 540.306 51.5092 539.752C51.6324 539.541 51.6975 539.3 51.6975 539.055C51.6975 538.809 51.6324 538.568 51.5092 538.358C51.2282 537.972 50.8796 537.644 50.4813 537.392C48.1257 535.831 45.6348 534.5 43.0407 533.416C43.0407 531.716 42.9793 530.021 42.8566 528.332C44.651 530.874 47.0571 532.888 49.8369 534.176C50.4353 534.461 51.279 534.604 51.6626 533.939C51.7764 533.717 51.8253 533.465 51.8035 533.215C51.7818 532.965 51.6902 532.727 51.5398 532.529C51.2153 532.164 50.8243 531.868 50.3892 531.658C49.0545 530.961 47.8579 530.343 46.6152 529.726L42.8412 527.952C42.8412 526.368 42.6725 524.784 42.5651 523.2C43.3327 524.328 44.2702 525.323 45.3419 526.146C46.6646 527.179 48.1484 527.972 49.7296 528.49C50.3586 528.712 51.2637 528.744 51.5245 528.015C51.5991 527.781 51.61 527.53 51.5558 527.289C51.5017 527.049 51.3848 526.829 51.2177 526.653C50.8577 526.335 50.4407 526.092 49.9904 525.94C48.625 525.402 47.4283 524.879 46.1703 524.356C44.9123 523.833 43.8691 523.358 42.5344 522.693C42.4117 520.951 42.2736 519.208 42.1202 517.482C42.9434 518.761 43.9827 519.877 45.1885 520.777C46.4601 521.718 47.8687 522.445 49.3614 522.931C49.9597 523.137 50.7881 523.168 51.0643 522.44C51.1465 522.21 51.1656 521.961 51.1196 521.721C51.0736 521.48 50.9642 521.258 50.8035 521.077C50.4644 520.774 50.0744 520.538 49.6528 520.381L41.9821 517.419C41.8747 516.247 41.752 515.075 41.6292 513.902C42.2886 515.137 43.225 516.191 44.36 516.975C45.7727 517.957 47.4041 518.551 49.1006 518.702C49.4592 518.733 49.8203 518.685 50.1591 518.559C50.3177 518.496 50.4561 518.388 50.559 518.248C50.6619 518.108 50.7253 517.942 50.7421 517.767C50.7485 517.521 50.6924 517.278 50.5794 517.061C50.4663 516.844 50.3003 516.662 50.0977 516.532C49.8998 516.419 49.6883 516.334 49.4687 516.278L48.8397 516.136C47.5674 515.927 46.3185 515.588 45.1118 515.122C44.4872 514.906 43.8773 514.646 43.2861 514.346C42.6999 514.06 42.1312 513.737 41.5832 513.38C41.4145 511.938 41.2457 510.497 41.0616 509.072C42.6114 510.927 44.6629 512.262 46.9527 512.905C47.0852 512.963 47.2279 512.993 47.372 512.992C47.5161 512.992 47.6586 512.961 47.7907 512.902C47.9228 512.843 48.0419 512.756 48.1405 512.648C48.2391 512.539 48.3152 512.411 48.3642 512.271C48.4345 512.049 48.4531 511.812 48.4184 511.581C48.3838 511.35 48.2969 511.131 48.1647 510.941C47.8911 510.678 47.567 510.479 47.2135 510.355C46.1396 509.99 45.1731 509.689 44.1453 509.42C43.1174 509.151 42.1969 508.961 41.077 508.707C40.7394 506.205 40.3712 503.718 39.9263 501.247C39.9263 500.867 39.2206 500.946 39.2667 501.342C39.6502 504.241 40.0184 507.139 40.3406 510.038C38.0585 510.294 35.7611 510.374 33.4676 510.275C33.192 510.227 32.9089 510.289 32.6755 510.447C32.442 510.606 32.2755 510.85 32.2096 511.131C32.1494 511.362 32.1535 511.607 32.2213 511.837C32.2891 512.066 32.4179 512.272 32.5931 512.429C32.9686 512.665 33.3967 512.796 33.8358 512.81C35.1152 512.874 36.394 512.669 37.5944 512.208C38.6216 511.789 39.5674 511.183 40.3866 510.418C40.5809 512.055 40.765 513.686 40.9389 515.312C38.3922 515.55 35.8455 515.977 33.4983 516.342C32.9766 516.437 32.3323 516.706 32.317 517.482C32.3212 517.725 32.389 517.962 32.5133 518.169C32.6375 518.375 32.8135 518.543 33.0227 518.654C33.4538 518.796 33.9115 518.828 34.3574 518.749C36.7943 518.4 39.089 517.358 40.9849 515.74C41.1383 517.324 41.2917 518.797 41.4298 520.333C38.6837 521.236 35.7995 522.408 33.0687 523.232Z" fill="#5EAD41"/>
<path fill-rule="evenodd" clip-rule="evenodd" d="M283.792 604.749C296.158 600.105 301.669 588.271 306.314 576.773C306.314 576.605 306.314 576.465 306.509 576.298C306.534 576.197 306.534 576.091 306.509 575.99C308.011 573.565 309.178 570.949 309.978 568.213C312.189 579.879 314.902 591.405 323.323 600.273C323.444 600.408 323.602 600.506 323.776 600.555C323.951 600.604 324.136 600.601 324.309 600.548C324.483 600.496 324.638 600.394 324.755 600.256C324.873 600.118 324.949 599.949 324.974 599.77C326.96 586.509 319.071 575.822 311.154 566.03C311.095 565.948 311.02 565.878 310.933 565.825C310.847 565.772 310.75 565.738 310.65 565.723C311.47 561.892 311.966 557.999 312.133 554.085C312.133 553.469 312.133 552.854 312.133 552.238H312.552C319.534 565.019 329.665 575.804 341.984 583.571C342.155 583.686 342.359 583.742 342.564 583.731C342.77 583.719 342.967 583.642 343.124 583.509C343.282 583.377 343.392 583.197 343.439 582.996C343.486 582.795 343.466 582.585 343.383 582.397C338.151 569.444 326.904 553.441 312.329 550.252H312.496C312.646 543.409 312.291 536.564 311.433 529.773H311.601H312.021C319 542.547 329.119 553.331 341.424 561.107C341.598 561.212 341.8 561.261 342.002 561.246C342.205 561.231 342.398 561.154 342.554 561.025C342.711 560.896 342.824 560.722 342.877 560.526C342.93 560.33 342.921 560.122 342.851 559.932C337.591 546.979 326.373 530.976 311.797 527.787C311.609 527.711 311.398 527.711 311.209 527.787C310.93 525.922 310.622 523.964 310.286 521.912C310.234 521.674 310.092 521.466 309.891 521.33C309.689 521.193 309.443 521.139 309.203 521.179C308.963 521.218 308.748 521.348 308.6 521.542C308.453 521.735 308.386 521.978 308.412 522.22C309.027 525.605 309.503 529.018 309.867 532.459C298.676 539.761 283.68 552.882 280.939 566.674C280.743 567.569 281.862 567.905 282.477 567.485C294.144 559.82 306.202 551.203 310.454 537.551C310.79 542.112 310.874 546.688 310.706 551.259C310.706 553.637 310.482 556.015 310.258 558.393C298.816 563.541 286.87 569.583 282.729 582.285C282.67 582.46 282.663 582.648 282.709 582.827C282.755 583.006 282.852 583.168 282.989 583.293C283.125 583.417 283.295 583.5 283.478 583.529C283.66 583.559 283.847 583.535 284.016 583.46C295.207 579.403 302.872 570.563 309.978 561.302C309.302 566.546 307.383 571.552 304.383 575.906C295.263 583.488 286.422 591.489 282.813 603.155C282.675 603.312 282.591 603.509 282.573 603.718C282.555 603.926 282.605 604.135 282.714 604.313C282.824 604.492 282.988 604.63 283.182 604.709C283.376 604.787 283.59 604.802 283.792 604.749V604.749Z" fill="#5EAD41"/>
<path fill-rule="evenodd" clip-rule="evenodd" d="M199.443 562.265C198.845 561.533 198.475 560.641 198.381 559.701C198.286 558.761 198.471 557.813 198.911 556.977L199.079 556.809C199.917 556.382 200.862 556.211 201.797 556.315C202.732 556.419 203.615 556.796 204.339 557.397C204.917 557.994 205.39 558.684 205.737 559.439C205.825 558.62 206.062 557.823 206.437 557.089C206.945 556.291 207.679 555.662 208.546 555.283C209.414 554.904 210.374 554.793 211.305 554.963C211.336 554.95 211.369 554.943 211.403 554.943C211.436 554.943 211.47 554.95 211.501 554.963C212.169 555.63 212.626 556.479 212.815 557.405C213.004 558.33 212.917 559.29 212.564 560.166C212.175 560.9 211.664 561.562 211.053 562.125C211.868 561.985 212.7 561.985 213.515 562.125C216.313 562.6 217.012 565.93 217.04 566.069C217.068 566.141 217.068 566.221 217.04 566.293C216.617 567.139 215.952 567.84 215.131 568.308C214.309 568.776 213.367 568.99 212.424 568.923C211.619 568.784 210.843 568.51 210.13 568.112C210.531 568.821 210.796 569.599 210.913 570.406C210.96 571.363 210.718 572.312 210.219 573.13C209.721 573.948 208.988 574.597 208.115 574.994C208.084 575.007 208.051 575.014 208.018 575.014C207.984 575.014 207.951 575.007 207.92 574.994C207.357 574.879 206.811 574.691 206.297 574.434C205.337 573.947 204.583 573.131 204.172 572.135C203.762 571.14 203.721 570.03 204.059 569.007C203.422 569.839 202.516 570.425 201.496 570.665C200.476 570.904 199.404 570.783 198.464 570.322C197.958 570.044 197.488 569.706 197.065 569.315C197.052 569.284 197.045 569.25 197.045 569.217C197.045 569.183 197.052 569.15 197.065 569.119C196.91 568.187 197.034 567.23 197.423 566.368C197.811 565.507 198.446 564.78 199.247 564.279C199.989 563.929 200.782 563.702 201.597 563.608C200.856 563.249 200.177 562.777 199.583 562.209L199.443 562.265ZM211.081 555.746C210.311 555.618 209.52 555.716 208.805 556.029C208.09 556.342 207.481 556.856 207.052 557.509C206.232 559.426 206.074 561.562 206.605 563.58C207.3 562.486 207.899 561.335 208.395 560.138C208.461 560.081 208.546 560.05 208.633 560.05C208.72 560.05 208.805 560.081 208.871 560.138C208.95 560.185 209.008 560.261 209.034 560.349C209.06 560.437 209.052 560.532 209.011 560.614L207.36 563.803C208.024 563.439 208.716 563.13 209.43 562.88C210.495 562.178 211.362 561.215 211.948 560.082C212.233 559.357 212.302 558.565 212.149 557.801C211.995 557.037 211.624 556.333 211.081 555.774V555.746ZM212.508 568.391C213.289 568.433 214.065 568.249 214.744 567.862C215.423 567.475 215.978 566.902 216.341 566.209C216.232 565.455 215.911 564.747 215.416 564.168C214.921 563.588 214.271 563.161 213.543 562.936C211.46 562.758 209.376 563.269 207.612 564.391C208.872 564.699 210.153 564.914 211.445 565.034C211.521 565.056 211.588 565.102 211.635 565.165C211.683 565.228 211.709 565.305 211.709 565.384C211.709 565.463 211.683 565.54 211.635 565.603C211.588 565.666 211.521 565.712 211.445 565.734L207.892 565.146C208.453 565.651 208.959 566.214 209.402 566.825C210.374 567.6 211.515 568.137 212.732 568.391H212.508ZM204.758 571.497C205.094 573.651 207.556 574.294 208.004 574.462C208.699 574.108 209.277 573.56 209.669 572.886C210.061 572.211 210.25 571.437 210.214 570.657C209.77 568.609 208.681 566.756 207.108 565.37C207.108 565.37 207.108 565.118 207.64 569.203C207.648 569.245 207.647 569.289 207.637 569.331C207.627 569.373 207.608 569.413 207.581 569.447C207.555 569.482 207.522 569.51 207.483 569.53C207.445 569.551 207.403 569.563 207.36 569.566C207.276 569.577 207.19 569.557 207.119 569.511C207.047 569.465 206.994 569.396 206.968 569.315L206.437 565.762C206.108 566.43 205.734 567.075 205.318 567.692C204.854 568.864 204.69 570.134 204.842 571.385L204.758 571.497ZM206.325 564.894C206.365 564.919 206.409 564.934 206.456 564.94C206.502 564.946 206.549 564.942 206.594 564.929C206.638 564.916 206.68 564.894 206.716 564.864C206.751 564.834 206.78 564.796 206.801 564.755C206.821 564.714 206.833 564.67 206.836 564.625C206.839 564.58 206.834 564.535 206.819 564.492C206.805 564.449 206.782 564.409 206.753 564.375C206.723 564.341 206.687 564.313 206.647 564.293C206.606 564.273 206.562 564.261 206.517 564.257C206.472 564.254 206.427 564.26 206.384 564.274C206.341 564.289 206.302 564.311 206.267 564.341C206.233 564.37 206.205 564.406 206.185 564.447C206.13 564.508 206.1 564.588 206.1 564.671C206.1 564.753 206.13 564.833 206.185 564.894H206.325ZM199.415 565.062C199.03 565.185 198.677 565.389 198.379 565.661C198.081 565.933 197.845 566.266 197.688 566.637C197.531 567.009 197.456 567.41 197.468 567.813C197.48 568.216 197.58 568.612 197.759 568.973C197.939 569.334 198.194 569.653 198.508 569.906C198.823 570.159 199.188 570.341 199.579 570.44C199.97 570.539 200.378 570.552 200.774 570.479C201.171 570.405 201.547 570.247 201.877 570.014C203.661 568.936 205.046 567.305 205.821 565.37C205.821 565.37 206.073 565.202 202.352 567.077C202.298 567.111 202.235 567.13 202.17 567.13C202.106 567.13 202.043 567.111 201.989 567.077C201.937 567.044 201.894 566.998 201.865 566.944C201.836 566.89 201.821 566.83 201.821 566.769C201.826 566.702 201.85 566.638 201.889 566.583C201.929 566.529 201.982 566.487 202.045 566.461L205.234 564.838C204.487 564.746 203.748 564.596 203.024 564.391C201.784 564.315 200.544 564.545 199.415 565.062ZM205.542 564.195C205.542 564.195 205.765 564.195 202.744 561.397C202.713 561.366 202.688 561.329 202.671 561.288C202.654 561.248 202.645 561.204 202.645 561.16C202.645 561.115 202.654 561.072 202.671 561.031C202.688 560.99 202.713 560.953 202.744 560.922C202.773 560.887 202.809 560.858 202.85 560.839C202.891 560.819 202.936 560.809 202.982 560.809C203.027 560.809 203.072 560.819 203.113 560.839C203.154 560.858 203.191 560.887 203.22 560.922L205.765 563.468C205.622 562.73 205.547 561.981 205.542 561.23C205.211 560.021 204.597 558.908 203.751 557.984C203.146 557.496 202.414 557.19 201.642 557.101C200.869 557.012 200.087 557.143 199.387 557.481C199.022 558.176 198.87 558.963 198.95 559.744C199.029 560.525 199.337 561.266 199.834 561.873C201.427 563.25 203.438 564.048 205.542 564.139V564.195Z" fill="#265113"/>
<path fill-rule="evenodd" clip-rule="evenodd" d="M300.622 158.235C299.693 159.399 299.119 160.817 298.972 162.313C298.825 163.809 299.112 165.316 299.796 166.646C299.796 166.646 299.796 166.646 300.057 166.913C301.359 167.592 302.828 167.865 304.28 167.699C305.733 167.533 307.106 166.935 308.23 165.978C309.129 165.029 309.864 163.93 310.404 162.73C310.54 164.033 310.908 165.3 311.491 166.468C312.286 167.733 313.427 168.732 314.771 169.341C316.116 169.95 317.605 170.143 319.055 169.895H319.359C320.398 168.833 321.108 167.482 321.402 166.01C321.696 164.538 321.56 163.011 321.011 161.617C320.407 160.45 319.613 159.397 318.664 158.502C319.942 158.747 321.254 158.747 322.533 158.502C323.945 158.126 325.216 157.329 326.184 156.212C327.151 155.094 327.772 153.707 327.967 152.227C328.011 152.112 328.011 151.985 327.967 151.871C327.309 150.526 326.277 149.411 325 148.666C323.723 147.922 322.26 147.581 320.794 147.688C319.535 147.904 318.327 148.356 317.229 149.023C317.847 147.875 318.259 146.625 318.446 145.329C318.532 143.832 318.186 142.342 317.452 141.045C316.718 139.747 315.627 138.699 314.316 138.031C314.204 137.99 314.081 137.99 313.969 138.031C313.094 138.213 312.246 138.512 311.447 138.921C309.955 139.696 308.783 140.994 308.145 142.578C307.507 144.161 307.445 145.927 307.969 147.554C306.974 146.238 305.564 145.315 303.979 144.941C302.394 144.568 300.732 144.768 299.274 145.507C298.481 145.918 297.749 146.442 297.101 147.065C297.08 147.114 297.07 147.167 297.07 147.22C297.07 147.274 297.08 147.327 297.101 147.376C296.86 148.859 297.053 150.381 297.657 151.751C298.26 153.122 299.247 154.278 300.492 155.075C301.637 155.651 302.874 156.013 304.143 156.143C302.993 156.713 301.936 157.464 301.013 158.368L300.622 158.235ZM318.707 168.782C317.511 168.986 316.282 168.829 315.17 168.332C314.059 167.834 313.113 167.016 312.447 165.978C311.172 162.928 310.927 159.53 311.751 156.321C312.832 158.06 313.763 159.892 314.534 161.795C314.636 161.886 314.768 161.936 314.903 161.936C315.039 161.936 315.17 161.886 315.273 161.795C315.338 161.763 315.396 161.716 315.442 161.66C315.489 161.603 315.524 161.537 315.544 161.466C315.565 161.395 315.571 161.32 315.561 161.246C315.552 161.173 315.528 161.102 315.49 161.039L312.925 155.965C313.96 156.537 315.035 157.027 316.142 157.434C317.807 158.539 319.156 160.074 320.055 161.884C320.497 163.038 320.605 164.298 320.366 165.514C320.127 166.729 319.551 167.848 318.707 168.738V168.782ZM320.924 148.667C322.138 148.601 323.344 148.893 324.399 149.509C325.455 150.124 326.316 151.037 326.88 152.138C326.711 153.338 326.213 154.464 325.443 155.386C324.674 156.308 323.665 156.987 322.533 157.345C319.31 157.632 316.084 156.818 313.36 155.031C315.298 154.512 317.276 154.17 319.272 154.007C319.402 153.968 319.516 153.885 319.594 153.772C319.673 153.659 319.713 153.523 319.707 153.384C319.67 153.247 319.591 153.125 319.481 153.037C319.372 152.949 319.238 152.899 319.098 152.895L313.577 153.829C314.449 153.025 315.236 152.13 315.925 151.159C317.435 149.925 319.207 149.072 321.098 148.667H320.924ZM308.882 143.727C309.404 140.3 313.229 139.276 313.925 139.009C315.006 139.573 315.904 140.444 316.514 141.518C317.123 142.591 317.417 143.822 317.36 145.062C316.608 148.277 314.872 151.163 312.403 153.295C312.403 153.295 312.403 153.696 313.23 147.198C313.242 147.13 313.24 147.061 313.225 146.994C313.209 146.927 313.18 146.864 313.138 146.809C313.097 146.755 313.046 146.71 312.986 146.677C312.927 146.644 312.862 146.625 312.795 146.62C312.664 146.603 312.531 146.634 312.42 146.707C312.308 146.78 312.226 146.891 312.186 147.02L311.36 152.672C310.849 151.609 310.268 150.583 309.621 149.601C308.9 147.737 308.646 145.718 308.882 143.727V143.727ZM311.36 154.23C311.481 154.166 311.622 154.154 311.752 154.196C311.882 154.237 311.991 154.329 312.056 154.452C312.087 154.516 312.106 154.586 312.111 154.658C312.116 154.73 312.107 154.802 312.085 154.87C312.062 154.938 312.027 155.001 311.981 155.055C311.935 155.11 311.879 155.154 311.817 155.186C311.754 155.219 311.685 155.238 311.615 155.243C311.545 155.248 311.475 155.239 311.408 155.216C311.342 155.193 311.28 155.157 311.227 155.11C311.174 155.063 311.131 155.006 311.099 154.942C311.07 154.877 311.054 154.808 311.051 154.737C311.049 154.667 311.06 154.596 311.084 154.53C311.108 154.463 311.145 154.403 311.193 154.351C311.24 154.3 311.297 154.258 311.36 154.23V154.23ZM300.578 153.963C299.981 153.768 299.432 153.443 298.969 153.01C298.506 152.578 298.14 152.048 297.895 151.457C297.651 150.866 297.534 150.228 297.553 149.587C297.572 148.945 297.727 148.316 298.006 147.741C298.285 147.167 298.682 146.661 299.17 146.258C299.658 145.855 300.226 145.565 300.833 145.408C301.441 145.251 302.075 145.23 302.691 145.347C303.308 145.464 303.892 145.716 304.404 146.086C307.188 147.788 309.343 150.386 310.534 153.473C310.534 153.473 310.925 153.74 305.143 150.758C305.055 150.715 304.959 150.692 304.861 150.692C304.763 150.692 304.666 150.715 304.578 150.758C304.498 150.811 304.432 150.883 304.386 150.969C304.341 151.054 304.317 151.15 304.317 151.248C304.333 151.352 304.373 151.45 304.434 151.535C304.494 151.62 304.574 151.69 304.665 151.737L309.621 154.319C308.46 154.466 307.312 154.704 306.187 155.031C304.26 155.152 302.334 154.785 300.578 153.963V153.963ZM310.099 155.387C310.099 155.387 310.447 155.12 305.752 159.837C305.703 159.887 305.665 159.946 305.638 160.01C305.612 160.075 305.599 160.145 305.599 160.215C305.599 160.286 305.612 160.355 305.638 160.42C305.665 160.485 305.703 160.544 305.752 160.593C305.797 160.649 305.853 160.694 305.917 160.725C305.981 160.756 306.051 160.772 306.121 160.772C306.192 160.772 306.262 160.756 306.326 160.725C306.39 160.694 306.446 160.649 306.491 160.593L310.447 156.544C310.224 157.732 310.107 158.938 310.099 160.148C309.576 162.054 308.623 163.807 307.317 165.266C306.952 165.794 306.479 166.233 305.931 166.554C305.383 166.875 304.773 167.07 304.144 167.126C303.515 167.181 302.882 167.096 302.289 166.876C301.695 166.655 301.156 166.305 300.708 165.85C300.26 165.395 299.914 164.845 299.694 164.239C299.475 163.633 299.387 162.986 299.437 162.341C299.487 161.697 299.673 161.072 299.983 160.508C300.292 159.945 300.718 159.458 301.231 159.08C303.681 156.836 306.815 155.531 310.099 155.387Z" fill="#265113"/>
</g>
<defs>
<clipPath id="clip0_403_5078">
<rect width="375" height="628" fill="white"/>
</clipPath>
</defs>
</svg>
