<svg viewBox="0 0 1440 170" fill="none" xmlns="http://www.w3.org/2000/svg">
<g clip-path="url(#clip0_401_5094)">
<path fill-rule="evenodd" clip-rule="evenodd" d="M447.106 590.75C584.365 596.407 621.033 649.18 756.904 686.469C858.041 712.638 962.772 722.114 1066.96 714.524C1266.52 699.965 1450.37 618.102 1423.01 416.737C1401.48 258.497 1324.93 204.815 1172.21 182.922C1086.24 170.77 986.75 167.469 916.485 102.619C813.049 6.69218 613.243 -15.8843 185.404 73.8577C105.975 90.6855 -15.4785 124.664 -101.233 190.165C-169.805 244.966 -218.175 321.042 -238.708 406.386C-287.513 601.704 -62.0853 763.903 95.4032 721.833C208.035 692.083 336.918 586.403 447.106 590.75Z" fill="#FFD885"/>
<path fill-rule="evenodd" clip-rule="evenodd" d="M430.042 46.9407C429.467 47.0277 430.031 53.2075 427.651 57.0315C423.613 63.5104 407.038 59.4 413.571 48.6454C415.519 45.6021 418.303 43.1102 418.116 42.9436C416.582 43.6448 414.959 44.1335 413.292 44.396C400.071 46.3955 399.709 23.7977 415.959 27.4441C418.599 28.0597 418.008 28.1902 416.467 26.049C415.746 25.0459 414.649 23.8562 413.67 22.6112C412.73 21.3823 412.294 19.8412 412.451 18.3019C412.608 16.7626 413.346 15.3412 414.515 14.3272C418.048 11.2688 424.989 10.7846 427.21 15.3955C428.092 17.3826 428.778 19.4513 429.257 21.572C431.251 29.6551 425.71 10.7017 438.986 9.36419C444.579 8.78414 449.457 12.881 444.05 21.0836C443.233 22.2805 442.339 23.4227 441.373 24.503C440.132 25.8779 440.139 26.1276 441.892 25.3833C444.224 24.19 446.855 23.7061 449.459 23.9914C452.959 24.8215 456.003 33.1391 454.384 37.5857C452.066 43.9505 446.074 42.5088 442.293 41.7737C438.511 41.0386 437.457 41.494 441.721 43.3431C443.172 43.9247 444.563 44.6463 445.874 45.4975C456.443 52.4074 439.788 66.685 433.107 53.4388C431.507 50.2393 430.557 46.8815 430.494 47.0559L430.042 46.9407ZM433.065 41.0797C434.56 39.5504 431.881 38.2292 430.521 39.1164C429.161 40.0037 430.963 43.3262 433.065 41.0797ZM425.007 39.4784C426.845 42.0241 428.668 42.9843 429.011 39.0603C429.361 36.4721 429.077 32.9124 425.763 34.421C425.34 34.6669 424.978 35.0036 424.702 35.4067C424.426 35.8099 424.243 36.2695 424.167 36.7522C424.09 37.2348 424.122 37.7283 424.26 38.1971C424.398 38.6659 424.638 39.0982 424.964 39.4626L425.007 39.4784ZM434.216 37.1045C437.353 35.1359 436.042 32.0912 433.319 32.3832C427.444 33.0583 430.438 39.481 434.216 37.1045ZM430.703 31.9737C434.83 29.1811 429.991 27.9621 426.454 30.081C422.918 32.2 426.872 34.6276 430.79 32.0054L430.703 31.9737Z" fill="#DC0030"/>
<path fill-rule="evenodd" clip-rule="evenodd" d="M831.291 99.4917C829.348 100.647 827.789 102.348 826.807 104.384C825.825 106.42 825.464 108.699 825.77 110.939C825.77 110.939 825.77 110.939 826.01 111.453C827.544 113.098 829.526 114.257 831.712 114.788C833.899 115.318 836.192 115.196 838.309 114.437C840.097 113.569 841.725 112.404 843.124 110.992C842.65 112.906 842.531 114.889 842.773 116.845C843.272 119.052 844.408 121.064 846.039 122.632C847.67 124.201 849.724 125.257 851.949 125.67L852.389 125.83C854.437 124.877 856.159 123.343 857.341 121.419C858.523 119.494 859.112 117.264 859.036 115.007C858.762 113.04 858.156 111.134 857.244 109.37C858.967 110.389 860.864 111.08 862.839 111.407C865.074 111.621 867.322 111.164 869.296 110.095C871.271 109.026 872.882 107.393 873.925 105.405C874.047 105.266 874.113 105.087 874.109 104.902C873.849 102.656 872.929 100.537 871.466 98.8126C870.003 97.0885 868.062 95.8367 865.887 95.2152C863.956 94.8578 861.976 94.8607 860.046 95.2238C861.529 93.9285 862.768 92.3785 863.706 90.647C864.6 88.5775 864.866 86.2911 864.472 84.0715C864.077 81.852 863.04 79.7972 861.488 78.1621C861.346 78.0453 861.169 77.9807 860.985 77.979C859.626 77.7754 858.246 77.7516 856.881 77.9083C854.324 78.2182 851.963 79.4341 850.225 81.3356C848.487 83.2371 847.489 85.6983 847.41 88.2729C846.648 85.889 845.084 83.8426 842.984 82.4808C840.884 81.1191 838.377 80.526 835.89 80.8023C834.531 80.9648 833.203 81.3203 831.945 81.858C831.89 81.9169 831.848 81.986 831.821 82.0616C831.793 82.1372 831.781 82.2175 831.785 82.2979C830.674 84.2656 830.171 86.5183 830.339 88.7716C830.507 91.025 831.338 93.1781 832.728 94.9595C834.088 96.3766 835.69 97.5388 837.459 98.3914C835.502 98.5899 833.589 99.0944 831.788 99.8863L831.291 99.4917ZM852.018 123.915C850.183 123.573 848.487 122.705 847.135 121.416C845.784 120.128 844.837 118.475 844.408 116.658C844.133 111.677 845.527 106.748 848.37 102.649C849.038 105.675 849.442 108.752 849.577 111.847C849.679 112.03 849.843 112.169 850.039 112.241C850.235 112.312 850.451 112.311 850.646 112.236C850.757 112.225 850.864 112.19 850.961 112.134C851.058 112.079 851.142 112.004 851.208 111.914C851.274 111.825 851.321 111.722 851.345 111.613C851.37 111.504 851.371 111.391 851.35 111.282L850.25 102.765C851.453 104.117 852.755 105.376 854.147 106.533C855.986 108.97 857.148 111.85 857.516 114.88C857.561 116.744 857.069 118.581 856.099 120.172C855.128 121.763 853.719 123.041 852.041 123.852L852.018 123.915ZM865.572 96.6669C867.36 97.2132 868.954 98.2612 870.164 99.6864C871.375 101.112 872.15 102.854 872.4 104.707C871.537 106.313 870.237 107.642 868.65 108.538C867.063 109.435 865.255 109.863 863.434 109.773C858.625 108.481 854.38 105.632 851.36 101.673C854.428 101.961 857.466 102.519 860.436 103.341C860.644 103.354 860.851 103.296 861.023 103.178C861.194 103.06 861.322 102.888 861.385 102.69C861.402 102.476 861.351 102.263 861.238 102.08C861.125 101.898 860.956 101.757 860.757 101.678L852.292 100.09C853.966 99.4141 855.564 98.5642 857.061 97.5546C859.879 96.6072 862.881 96.3346 865.824 96.7585L865.572 96.6669ZM850.699 83.3473C853.217 78.7813 859.275 79.3498 860.419 79.3389C861.691 80.7043 862.543 82.4079 862.872 84.2452C863.2 86.0825 862.992 87.9756 862.272 89.6975C859.531 93.8443 855.536 97.0053 850.869 98.7179C850.869 98.7179 850.663 99.2837 855.2 90.5402C855.253 90.4511 855.286 90.3518 855.298 90.2489C855.31 90.146 855.3 90.0418 855.269 89.943C855.238 89.8443 855.186 89.7532 855.117 89.6759C855.048 89.5985 854.964 89.5365 854.869 89.494C854.688 89.4014 854.48 89.3752 854.282 89.42C854.083 89.4648 853.907 89.5778 853.783 89.7392L849.681 97.2882C849.488 95.5179 849.176 93.7627 848.746 92.0347C848.662 89.0212 849.334 86.0348 850.699 83.3473V83.3473ZM848.88 99.4886C849.088 99.4632 849.298 99.5203 849.464 99.6474C849.631 99.7746 849.741 99.9618 849.771 100.169C849.784 100.276 849.775 100.385 849.745 100.489C849.715 100.593 849.665 100.69 849.598 100.775C849.531 100.859 849.448 100.93 849.353 100.982C849.259 101.035 849.155 101.068 849.048 101.081C848.94 101.093 848.832 101.084 848.728 101.054C848.624 101.025 848.527 100.975 848.442 100.908C848.358 100.84 848.287 100.757 848.235 100.663C848.182 100.568 848.149 100.464 848.136 100.357C848.127 100.251 848.14 100.144 848.172 100.043C848.205 99.9419 848.257 99.8481 848.326 99.7673C848.396 99.6865 848.48 99.6202 848.575 99.5723C848.67 99.5245 848.774 99.496 848.88 99.4886V99.4886ZM833.426 93.4337C832.663 92.8439 832.036 92.0958 831.589 91.2411C831.141 90.3863 830.884 89.445 830.835 88.4815C830.785 87.5181 830.945 86.5553 831.303 85.6593C831.66 84.7633 832.207 83.9553 832.906 83.2905C833.605 82.6258 834.44 82.12 835.353 81.808C836.266 81.4961 837.236 81.3854 838.195 81.4832C839.155 81.5811 840.082 81.8853 840.914 82.3751C841.745 82.8649 842.46 83.5289 843.011 84.3211C846.16 88.1922 847.94 92.9962 848.075 97.9848C848.075 97.9848 848.503 98.5681 841.676 91.3112C841.57 91.2034 841.442 91.1208 841.301 91.0693C841.159 91.0178 841.008 90.9987 840.858 91.0135C840.715 91.0454 840.582 91.113 840.473 91.2099C840.363 91.3068 840.279 91.4297 840.229 91.5676C840.199 91.7229 840.206 91.8831 840.25 92.0352C840.294 92.1872 840.373 92.3267 840.48 92.4424L846.319 98.6985C844.565 98.2951 842.782 98.0268 840.987 97.8957C838.138 97.0527 835.541 95.5201 833.426 93.4337V93.4337ZM846.461 100.459C846.461 100.459 847.102 100.265 837.885 104.456C837.79 104.501 837.703 104.564 837.632 104.642C837.56 104.72 837.505 104.811 837.469 104.91C837.433 105.009 837.417 105.115 837.421 105.22C837.426 105.326 837.451 105.429 837.496 105.525C837.532 105.628 837.591 105.721 837.667 105.798C837.744 105.876 837.836 105.935 837.939 105.972C838.041 106.01 838.15 106.024 838.258 106.014C838.367 106.004 838.471 105.97 838.565 105.914L846.369 102.277C845.435 103.838 844.646 105.481 844.012 107.186C842.275 109.602 839.995 111.577 837.356 112.95C836.556 113.503 835.646 113.874 834.689 114.039C833.731 114.205 832.749 114.159 831.811 113.907C830.873 113.654 830.001 113.2 829.256 112.576C828.511 111.952 827.911 111.174 827.498 110.294C827.084 109.415 826.867 108.457 826.861 107.485C826.856 106.513 827.062 105.552 827.465 104.668C827.868 103.785 828.459 102.999 829.197 102.367C829.935 101.734 830.801 101.27 831.736 101.007C836.434 99.127 841.637 98.9336 846.461 100.459Z" fill="#DC0030"/>
<path fill-rule="evenodd" clip-rule="evenodd" d="M249.601 94.525C247.983 95.4869 246.684 96.9039 245.867 98.5994C245.049 100.295 244.748 102.193 245.003 104.059L245.202 104.487C246.48 105.857 248.132 106.823 249.952 107.264C251.773 107.706 253.683 107.605 255.447 106.972C256.936 106.249 258.292 105.279 259.457 104.103C259.062 105.697 258.963 107.349 259.164 108.978C259.57 110.819 260.516 112.496 261.881 113.796C263.246 115.096 264.967 115.959 266.825 116.275C266.875 116.321 266.932 116.356 266.995 116.379C267.058 116.402 267.125 116.412 267.192 116.409C268.898 115.615 270.332 114.338 271.316 112.735C272.301 111.132 272.792 109.275 272.728 107.395C272.5 105.756 271.995 104.169 271.235 102.7C272.665 103.517 274.223 104.084 275.843 104.378C281.403 105.394 284.981 99.6403 285.129 99.3976C285.231 99.2821 285.285 99.1326 285.282 98.9788C285.065 97.1079 284.3 95.343 283.081 93.907C281.862 92.4711 280.245 91.4284 278.434 90.9108C276.833 90.6227 275.194 90.6073 273.588 90.8656C274.822 89.811 275.849 88.5363 276.618 87.1061C277.357 85.347 277.552 83.4061 277.176 81.5351C276.8 79.6642 275.871 77.9492 274.509 76.6124C274.46 76.5668 274.402 76.5315 274.339 76.5086C274.276 76.4856 274.209 76.4756 274.142 76.4789C273.01 76.3094 271.861 76.2897 270.724 76.4202C268.594 76.6783 266.627 77.691 265.18 79.2747C263.733 80.8584 262.901 82.9083 262.836 85.0526C262.211 83.0609 260.916 81.3472 259.17 80.2033C257.424 79.0593 255.336 78.5557 253.26 78.7781C252.125 78.9534 251.015 79.2662 249.956 79.7096C249.91 79.7587 249.875 79.8164 249.852 79.8794C249.829 79.9423 249.819 80.0093 249.822 80.0762C248.897 81.715 248.478 83.5911 248.618 85.4678C248.758 87.3445 249.45 89.1379 250.608 90.6217C251.757 91.782 253.088 92.7474 254.548 93.4799C252.918 93.6453 251.325 94.0654 249.825 94.725L249.601 94.525ZM266.94 114.657C265.412 114.372 263.999 113.649 262.874 112.576C261.748 111.503 260.959 110.126 260.602 108.612C260.373 104.465 261.534 100.359 263.902 96.9454C264.458 99.465 264.795 102.028 264.907 104.606C264.992 104.758 265.129 104.874 265.292 104.934C265.456 104.993 265.635 104.992 265.798 104.93C265.978 104.896 266.138 104.795 266.247 104.648C266.356 104.5 266.404 104.317 266.383 104.135L265.468 97.0413C266.461 98.1752 267.547 99.2251 268.713 100.18C270.227 102.22 271.193 104.613 271.519 107.132C271.557 108.684 271.147 110.214 270.339 111.539C269.53 112.864 268.357 113.928 266.96 114.604L266.94 114.657ZM278.229 91.9629C279.718 92.4178 281.046 93.2905 282.054 94.4775C283.062 95.6645 283.708 97.1159 283.915 98.6592C283.197 99.9968 282.115 101.103 280.793 101.85C279.471 102.597 277.965 102.953 276.448 102.878C272.429 101.792 268.877 99.4151 266.34 96.1134C268.908 96.3963 271.452 96.8669 273.952 97.5213C274.109 97.5325 274.265 97.4923 274.397 97.4067C274.529 97.321 274.63 97.1946 274.684 97.0466C274.737 96.8987 274.742 96.7373 274.696 96.5868C274.649 96.4362 274.556 96.3048 274.428 96.2124L267.378 94.8904C268.772 94.3272 270.103 93.6193 271.349 92.7785C273.697 91.9894 276.197 91.7623 278.648 92.1154L278.229 91.9629ZM265.842 80.8692C267.938 77.0663 272.985 77.54 273.937 77.531C274.997 78.6681 275.706 80.087 275.98 81.6172C276.254 83.1475 276.08 84.7242 275.48 86.1582C273.252 89.69 269.953 92.416 266.064 93.9376C266.064 93.9376 265.893 94.4088 269.672 87.1267C269.715 87.0524 269.743 86.9697 269.753 86.884C269.763 86.7983 269.755 86.7115 269.729 86.6293C269.703 86.547 269.659 86.4712 269.602 86.4068C269.545 86.3423 269.474 86.2907 269.396 86.2553C269.245 86.1781 269.072 86.1563 268.907 86.1936C268.741 86.231 268.594 86.3251 268.491 86.4595L265.075 92.747C264.914 91.2726 264.654 89.8107 264.296 88.3715C264.226 85.8617 264.785 83.3742 265.923 81.1359L265.842 80.8692ZM264.274 94.2938C264.365 94.2758 264.459 94.277 264.55 94.2972C264.641 94.3175 264.726 94.3565 264.801 94.4116C264.876 94.4667 264.938 94.5368 264.984 94.6174C265.03 94.698 265.059 94.7873 265.069 94.8797C265.079 94.9691 265.072 95.0598 265.047 95.1463C265.022 95.2328 264.981 95.3136 264.925 95.3841C264.869 95.4546 264.8 95.5134 264.721 95.5571C264.642 95.6008 264.556 95.6286 264.466 95.6388C264.377 95.6491 264.286 95.6416 264.2 95.6169C264.113 95.5922 264.033 95.5506 263.962 95.4946C263.892 95.4387 263.833 95.3695 263.789 95.2908C263.745 95.2122 263.718 95.1257 263.707 95.0363C263.646 94.8836 263.644 94.7136 263.7 94.559C263.756 94.4045 263.867 94.2762 264.012 94.1985L264.274 94.2938ZM251.456 89.27C250.82 88.7788 250.298 88.1557 249.925 87.4438C249.553 86.7319 249.339 85.9478 249.297 85.1454C249.256 84.3429 249.389 83.5412 249.687 82.795C249.985 82.0487 250.441 81.3756 251.023 80.822C251.605 80.2683 252.3 79.8472 253.061 79.5874C253.821 79.3276 254.628 79.2352 255.428 79.3167C256.227 79.3982 256.999 79.6517 257.692 80.0597C258.384 80.4676 258.98 81.0204 259.438 81.6802C262.043 84.9147 263.524 88.9096 263.656 93.0605C263.656 93.0605 264.013 93.5463 258.326 87.5022C258.249 87.3999 258.143 87.3221 258.022 87.2781C257.902 87.2341 257.771 87.2259 257.646 87.2543C257.526 87.2809 257.416 87.337 257.324 87.4177C257.233 87.4984 257.163 87.601 257.122 87.7158C257.086 87.8447 257.087 87.9811 257.123 88.1097C257.16 88.2383 257.232 88.3541 257.331 88.4444L262.194 93.6549C260.733 93.319 259.248 93.0955 257.753 92.9863C255.38 92.2841 253.217 91.0077 251.456 89.27ZM262.331 95.0689C262.331 95.0689 262.75 95.2215 255.189 98.3981C255.109 98.4351 255.037 98.4875 254.978 98.5523C254.918 98.6172 254.872 98.6931 254.842 98.7758C254.812 98.8585 254.798 98.9463 254.802 99.0343C254.806 99.1222 254.827 99.2084 254.865 99.2881C254.895 99.3736 254.943 99.4513 255.007 99.5157C255.071 99.5801 255.148 99.6296 255.233 99.6606C255.318 99.6916 255.409 99.7033 255.499 99.695C255.589 99.6866 255.677 99.6584 255.755 99.6123L262.255 96.5827C261.483 97.865 260.832 99.2164 260.31 100.619C258.868 102.656 256.961 104.319 254.747 105.472C253.282 105.973 251.704 106.048 250.198 105.688C248.691 105.328 247.318 104.549 246.236 103.44C246.028 101.891 246.28 100.314 246.961 98.9062C247.642 97.4987 248.723 96.3228 250.067 95.5249C253.987 94.0338 258.295 93.9101 262.293 95.1736L262.331 95.0689Z" fill="#DC0030"/>
</g>
<defs>
<clipPath id="clip0_401_5094">
<rect width="1440" height="170" fill="white"/>
</clipPath>
</defs>
</svg>
