<svg viewBox="0 0 43 43" fill="none" xmlns="http://www.w3.org/2000/svg">
<circle cx="21.5" cy="21.5" r="21.5" fill="#92D660"/>
<path d="M32.4681 17.2879C32.3733 16.7069 32.1934 16.1431 31.9343 15.6145C31.1496 13.9437 29.639 12.7507 27.6987 12.2009C25.4541 11.5843 23.2815 11.7071 20.8661 12.5852C16.7773 14.0852 13.6199 16.0095 11.2045 18.513C10.3586 19.4119 9.64748 20.4287 9.09331 21.5316C8.63367 22.3676 8.50234 23.3449 8.72499 24.2726C8.72233 24.2992 8.72233 24.326 8.72499 24.3527C8.85844 25.0599 9.46963 27.3873 10.1529 28.2414C11.3539 29.744 12.579 29.3917 13.764 29.042L14.119 28.9406C14.546 28.8232 15.9579 28.3588 16.425 28.1773C18.2399 27.6222 19.0592 28.0118 20.8634 28.8712C21.9731 29.4107 23.19 29.6935 24.4238 29.6986C25.5142 29.6938 26.5922 29.4668 27.5919 29.0314C28.7867 28.4945 29.8543 27.7109 30.7246 26.732C31.5949 25.7532 32.2482 24.6012 32.6416 23.3518C33.1594 21.7851 32.8044 18.569 32.4681 17.2879ZM9.8166 21.9052C10.336 20.8732 11.0011 19.9213 11.7916 19.0788C14.119 16.6767 17.1803 14.7924 21.133 13.3485C22.3396 12.8882 23.6182 12.6452 24.9096 12.6306C25.7776 12.6318 26.6414 12.7512 27.4771 12.9855C29.1933 13.4579 30.5224 14.5122 31.2137 15.9561C31.5437 16.6571 31.7186 17.421 31.7264 18.1957C31.7342 18.9705 31.5748 19.7378 31.2591 20.4453C29.4762 24.6543 24.5546 26.9229 20.5165 25.3962C18.779 24.7423 17.7381 24.35 15.6163 25.0279C15.1919 25.1961 13.7853 25.6711 13.377 25.7912L13.0194 25.9033C11.7783 26.2823 11.095 26.4371 10.3504 25.6044C9.33618 24.4594 9.14936 23.1783 9.8166 21.9052ZM31.8836 23.0956C31.5259 24.2385 30.9302 25.2927 30.1357 26.1888C29.3413 27.0849 28.3661 27.8026 27.2743 28.2947C26.311 28.7086 25.2695 28.9091 24.2214 28.8823C23.1733 28.8556 22.1434 28.6023 21.2024 28.1399C19.3955 27.2805 18.3039 26.7601 16.1794 27.414H16.1501C15.755 27.5688 14.3538 28.0332 13.9108 28.1559L13.5531 28.2707C12.4135 28.599 11.6609 28.8045 10.7961 27.7369C10.5508 27.3792 10.3559 26.9895 10.2169 26.5786C10.6095 26.8748 11.0891 27.0324 11.5808 27.027C12.1531 26.9947 12.7176 26.8796 13.2569 26.6853L13.6119 26.5786C14.0416 26.4531 15.4801 25.9674 15.8938 25.7992C17.7247 25.2121 18.5094 25.511 20.2282 26.1596C24.6614 27.833 30.0527 25.3589 32.0037 20.7656C32.0331 20.6989 32.0571 20.6321 32.0838 20.5654C32.1238 21.5583 32.0731 22.4977 31.8756 23.0956H31.8836Z" fill="#1E1E1E"/>
<path d="M24.4209 20.347C24.8471 20.5483 25.3134 20.6504 25.7847 20.6459C26.0068 20.6465 26.2285 20.626 26.4467 20.5845C27.976 20.3016 29.0436 19.1032 28.8247 17.9155C28.7593 17.607 28.6213 17.3185 28.4222 17.0739C28.2231 16.8293 27.9685 16.6357 27.6797 16.509C27.0466 16.2174 26.3373 16.1343 25.654 16.2714C24.1246 16.5544 23.0597 17.7527 23.2759 18.9404C23.3411 19.249 23.4791 19.5376 23.6782 19.7822C23.8773 20.0269 24.1319 20.2205 24.4209 20.347ZM25.8008 17.0641C25.9717 17.0343 26.145 17.02 26.3185 17.0214C26.666 17.0162 27.0101 17.0901 27.3247 17.2376C27.4995 17.3095 27.6547 17.4221 27.7772 17.566C27.8998 17.7099 27.9862 17.881 28.0293 18.065C28.1655 18.8016 27.3728 19.5943 26.2999 19.7918C25.7869 19.8995 25.253 19.8406 24.7759 19.6237C24.6011 19.5518 24.4459 19.4392 24.3234 19.2953C24.2008 19.1514 24.1144 18.9803 24.0713 18.7963C23.9352 18.0543 24.7278 17.2616 25.8008 17.0641Z" fill="#1E1E1E"/>
</svg>
