<svg viewBox="0 0 43 43" fill="none" xmlns="http://www.w3.org/2000/svg">
<circle cx="21.5" cy="21.5" r="21.5" fill="#DDA000"/>
<path d="M21.4619 18.7729C21.0375 17.6707 19.7884 16.9607 19.4174 16.7685C19.3274 16.7207 19.2503 16.6517 19.1927 16.5676C19.1351 16.4835 19.0986 16.3867 19.0865 16.2855V12.0605C19.2201 12.0491 19.3444 11.9879 19.4349 11.889C19.5254 11.7901 19.5754 11.6607 19.5749 11.5267V10.2296C19.575 10.0903 19.5206 9.9565 19.4233 9.85677C19.3261 9.75704 19.1937 9.69927 19.0545 9.69579V8.58817C19.0541 8.52122 19.0406 8.455 19.0146 8.39329C18.9887 8.33157 18.9509 8.27557 18.9033 8.22848C18.8557 8.18139 18.7993 8.14414 18.7373 8.11884C18.6753 8.09355 18.609 8.08071 18.542 8.08106H15.7076C15.5728 8.08106 15.4436 8.1344 15.3481 8.22943C15.2525 8.32445 15.1985 8.45343 15.1978 8.58817V9.68778C15.0586 9.69126 14.9262 9.74903 14.829 9.84876C14.7317 9.9485 14.6773 10.0823 14.6774 10.2216V11.5134C14.6768 11.647 14.7264 11.7759 14.8164 11.8748C14.9063 11.9736 15.03 12.0351 15.1631 12.0471V16.2694C15.1528 16.3733 15.1172 16.4731 15.0596 16.5601C15.0019 16.647 14.9238 16.7186 14.8322 16.7685C14.4585 16.9607 13.2094 17.6707 12.7877 18.7729C12.4354 19.6911 12.5022 23.3315 12.5102 23.7345V31.6747C12.482 32.1585 12.6373 32.635 12.9452 33.0092C13.0772 33.1451 13.2367 33.2513 13.4129 33.3208C13.5892 33.3903 13.7782 33.4215 13.9674 33.4122H20.2955C20.4828 33.4192 20.6693 33.3867 20.8432 33.3168C21.017 33.2469 21.1741 33.1412 21.3044 33.0065C21.6073 32.6411 21.7625 32.1755 21.7394 31.7014V23.7426C21.7501 23.3315 21.8168 19.6911 21.4619 18.7729ZM13.3109 21.8636H20.9388C20.9388 22.5308 20.9388 23.1981 20.9388 23.7319V29.0698H13.3135V23.7319C13.3028 23.1954 13.3002 22.5308 13.3109 21.8636ZM15.4807 11.2678V10.4831H18.7716V11.2678H15.4807ZM16.0012 8.87908H18.2378V9.67977H16.0012V8.87908ZM13.5404 19.0585C13.8073 18.3913 14.608 17.7908 15.2031 17.4785C15.4235 17.3633 15.61 17.1927 15.7443 16.9835C15.8787 16.7743 15.9561 16.5337 15.9691 16.2855V12.0658H18.2831V16.2988C18.296 16.544 18.3724 16.7817 18.5049 16.9885C18.6373 17.1953 18.8211 17.3641 19.0385 17.4785C19.647 17.7908 20.445 18.3913 20.7012 19.0585C20.816 19.3521 20.88 20.1501 20.9121 21.0629H13.3295C13.3241 20.389 13.3948 19.7166 13.5404 19.0585ZM20.7172 32.4621C20.6613 32.5152 20.5949 32.5562 20.5223 32.5824C20.4498 32.6085 20.3725 32.6194 20.2955 32.6142H13.9674C13.8904 32.6194 13.8132 32.6085 13.7406 32.5824C13.668 32.5562 13.6017 32.5152 13.5457 32.4621C13.381 32.2439 13.2987 31.9744 13.3135 31.7014V29.8678H20.9361V31.7201C20.9523 31.9854 20.8749 32.248 20.7172 32.4621Z" fill="#1E1E1E"/>
<path d="M31.9826 19.4242C31.99 18.2135 31.7634 17.0127 31.3154 15.8879C31.2847 15.8141 31.2328 15.7512 31.1663 15.707C31.0998 15.6628 31.0216 15.6393 30.9417 15.6397L24.6723 15.661C24.5983 15.6609 24.5257 15.6812 24.4626 15.7199C24.3994 15.7585 24.3483 15.8139 24.3147 15.8799C23.9037 16.6966 23.6475 18.0577 23.6475 19.4296C23.6475 22.6831 24.1172 25.699 27.4107 25.9232V32.6383H25.7933C25.7407 32.6383 25.6887 32.6487 25.6401 32.6688C25.5915 32.6889 25.5474 32.7184 25.5102 32.7556C25.473 32.7927 25.4436 32.8369 25.4234 32.8854C25.4033 32.934 25.393 32.9861 25.393 33.0386C25.393 33.0912 25.4033 33.1433 25.4234 33.1918C25.4436 33.2404 25.473 33.2846 25.5102 33.3217C25.5474 33.3589 25.5915 33.3884 25.6401 33.4085C25.6887 33.4286 25.7407 33.439 25.7933 33.439H29.8448C29.8974 33.439 29.9494 33.4286 29.998 33.4085C30.0466 33.3884 30.0907 33.3589 30.1279 33.3217C30.1651 33.2846 30.1945 33.2404 30.2147 33.1918C30.2348 33.1433 30.2451 33.0912 30.2451 33.0386C30.2451 32.9861 30.2348 32.934 30.2147 32.8854C30.1945 32.8369 30.1651 32.7927 30.1279 32.7556C30.0907 32.7184 30.0466 32.6889 29.998 32.6688C29.9494 32.6487 29.8974 32.6383 29.8448 32.6383H28.2194V25.9258C31.9826 25.6776 31.9826 21.9357 31.9826 19.4242ZM24.9392 16.459L30.6722 16.4377C30.9998 17.3572 31.1703 18.3253 31.1766 19.3015C30.9097 19.5177 30.2638 20.0034 29.5192 19.9767C29.2504 19.9552 28.9894 19.8766 28.7533 19.7464C28.5172 19.6162 28.3116 19.4372 28.15 19.2214C27.9167 18.9194 27.6214 18.6709 27.2839 18.4927C26.9464 18.3145 26.5746 18.2108 26.1937 18.1885C25.588 18.1835 24.9941 18.3561 24.4855 18.6849C24.5257 17.9246 24.6786 17.1744 24.9392 16.459ZM24.4615 19.6911C24.691 19.491 25.3903 18.9545 26.167 18.9865C26.436 19.0086 26.6973 19.0873 26.9337 19.2174C27.1701 19.3476 27.3763 19.5263 27.5388 19.7419C27.7718 20.0435 28.0667 20.2918 28.4037 20.47C28.7407 20.6482 29.112 20.7521 29.4925 20.7747H29.5806C30.1432 20.7592 30.6911 20.5913 31.1659 20.289C31.0805 23.4918 30.4346 25.1358 27.8191 25.1358C25.0914 25.1385 24.4882 23.0594 24.4615 19.6911Z" fill="#1E1E1E"/>
</svg>
