<svg width="19" height="21" viewBox="0 0 19 21" fill="none" xmlns="http://www.w3.org/2000/svg">
<path fill-rule="evenodd" clip-rule="evenodd" d="M11.319 14.8689C11.1216 14.9743 12.1446 17.0982 11.7857 18.7657C11.1755 21.5918 4.60696 22.2764 5.55814 17.6072C5.86323 16.2732 6.54521 15.0269 6.45547 14.9918C5.99047 15.4398 5.46517 15.8236 4.8941 16.1328C0.353572 18.5551 -2.76916 10.5684 3.61988 9.76096C4.66079 9.63808 4.46338 9.76094 3.61988 9.19924C3.22505 8.93595 2.66871 8.65511 2.14825 8.33916C1.64387 8.02401 1.28137 7.5326 1.13464 6.96508C0.987908 6.39756 1.068 5.79668 1.35859 5.28492C2.23798 3.74024 4.69669 2.6695 6.11448 4.02109C6.69811 4.61333 7.22107 5.25999 7.67585 5.9519C9.47053 8.56732 4.94795 2.54663 9.59615 0.352489C11.5524 -0.577829 13.8675 0.24717 12.9881 3.86312C12.8496 4.3944 12.6757 4.91622 12.4676 5.42532C12.1984 6.07479 12.2343 6.16258 12.7727 5.67109C13.4625 4.94493 14.3547 4.43228 15.3391 4.19658C16.721 4.0386 18.9285 6.60139 18.9285 8.39181C18.9285 10.9546 16.5595 11.2179 15.0879 11.446C13.6162 11.6742 13.2932 11.9727 15.0879 12.078C15.6922 12.0969 16.2933 12.1733 16.8825 12.3062C21.6384 13.3945 17.4748 20.6264 13.2932 16.7822C12.2882 15.8519 11.4985 14.7811 11.4985 14.8514L11.319 14.8689ZM11.6421 12.3939C11.9831 11.6567 10.8345 11.5338 10.4576 12.0253C10.0807 12.5168 11.1755 13.4647 11.6421 12.3939ZM8.5014 12.8678C9.50642 13.5349 10.2961 13.6402 9.90125 12.2009C9.68589 11.2354 9.11159 10.0067 8.10657 10.9721C7.98562 11.1142 7.8985 11.2808 7.85152 11.4599C7.80455 11.6389 7.79889 11.826 7.83497 12.0075C7.87105 12.189 7.94795 12.3603 8.06011 12.5091C8.17227 12.6579 8.31688 12.7805 8.48345 12.8678H8.5014ZM11.5344 10.8317C12.4138 9.72582 11.5344 8.81309 10.5832 9.26947C8.53729 10.27 10.4755 12.1657 11.5344 10.8317ZM9.5782 9.46253C10.7088 7.9354 8.78855 8.12853 7.78353 9.3397C6.77851 10.5509 8.5373 10.9019 9.61411 9.46253H9.5782Z" fill="#5EAD41"/>
</svg>
