<svg width="13" height="15" viewBox="0 0 13 15" fill="none" xmlns="http://www.w3.org/2000/svg">
<path fill-rule="evenodd" clip-rule="evenodd" d="M1.13835 8.34077C0.691759 8.7565 0.377476 9.29458 0.23471 9.88779C0.0919438 10.481 0.127007 11.1031 0.335548 11.6765C0.335548 11.6765 0.335571 11.6765 0.428254 11.7986C0.927044 12.145 1.51639 12.3376 2.12348 12.3526C2.73056 12.3676 3.32874 12.2044 3.84405 11.8831C4.26619 11.5519 4.62917 11.1516 4.91758 10.6992C4.90186 11.231 4.98378 11.7613 5.1593 12.2636C5.41721 12.8173 5.83176 13.2832 6.35167 13.6039C6.87158 13.9245 7.47407 14.0857 8.08462 14.0676L8.20988 14.0847C8.69577 13.7163 9.06253 13.2132 9.26444 12.6378C9.46635 12.0625 9.49449 11.4405 9.34535 10.8492C9.16073 10.3459 8.89193 9.87758 8.5504 9.46431C9.06327 9.63479 9.60331 9.70868 10.1431 9.68224C10.745 9.6108 11.312 9.36179 11.7719 8.96692C12.2318 8.57206 12.5637 8.04923 12.7253 7.46505C12.7496 7.42148 12.7566 7.3704 12.7449 7.32191C12.5481 6.74404 12.1844 6.23746 11.6998 5.86615C11.2152 5.49484 10.6315 5.27546 10.0223 5.23571C9.49231 5.25176 8.9699 5.36568 8.48139 5.57177C8.79869 5.14525 9.03721 4.66548 9.18569 4.15503C9.30329 3.55792 9.2429 2.93943 9.01205 2.37633C8.7812 1.81322 8.39007 1.33034 7.88717 0.987596C7.84309 0.964883 7.79255 0.957969 7.744 0.968006C7.37378 0.991957 7.00834 1.06451 6.65708 1.18386C6.00009 1.41173 5.4465 1.86746 5.0967 2.46844C4.7469 3.06943 4.62404 3.77589 4.75039 4.45969C4.41301 3.87427 3.88341 3.42368 3.25153 3.18436C2.61965 2.94504 1.92443 2.93176 1.28388 3.14679C0.93475 3.26728 0.604595 3.43697 0.303392 3.65071C0.292313 3.66939 0.285102 3.69005 0.282158 3.71157C0.279214 3.73308 0.280603 3.75497 0.286258 3.77594C0.105618 4.35859 0.101545 4.98172 0.274574 5.56668C0.447603 6.15163 0.789981 6.67223 1.25852 7.06286C1.69825 7.35907 2.18745 7.57417 2.70299 7.69802C2.19799 7.86223 1.72189 8.10466 1.29206 8.41649L1.13835 8.34077ZM8.00267 13.6006C7.49886 13.6152 7.00167 13.483 6.57156 13.2203C6.14145 12.9575 5.79694 12.5755 5.57993 12.1206C5.22287 10.8223 5.30909 9.44193 5.82494 8.19812C6.17403 8.95816 6.45647 9.74709 6.66909 10.556C6.70635 10.5983 6.75761 10.6257 6.81347 10.6334C6.86933 10.641 6.92608 10.6284 6.97334 10.5976C7.00194 10.5882 7.02827 10.5729 7.05064 10.5527C7.07301 10.5326 7.09091 10.508 7.10324 10.4805C7.11558 10.4531 7.12206 10.4233 7.12226 10.3932C7.12247 10.3631 7.11639 10.3332 7.10442 10.3056L6.32772 8.12109C6.7223 8.40912 7.13797 8.66707 7.57121 8.89282C8.19556 9.43079 8.6667 10.1242 8.93696 10.9027C9.0555 11.3918 9.03065 11.9046 8.8654 12.3798C8.70014 12.8551 8.40148 13.2727 8.00511 13.5827L8.00267 13.6006ZM10.0221 5.63676C10.5251 5.67873 11.0055 5.86419 11.4062 6.17108C11.807 6.47797 12.1112 6.8934 12.2828 7.36806C12.1471 7.84107 11.88 8.2659 11.5125 8.59318C11.145 8.92045 10.6923 9.13676 10.2068 9.21699C8.86411 9.15071 7.58116 8.6418 6.55811 7.76974C7.38423 7.67034 8.2175 7.64408 9.04824 7.69119C9.10387 7.68262 9.15504 7.65573 9.19367 7.61478C9.23229 7.57384 9.25615 7.52115 9.26146 7.46511C9.25376 7.40776 9.2279 7.3544 9.18767 7.31281C9.14743 7.27122 9.09493 7.2436 9.03786 7.23401L6.71367 7.29882C7.11666 7.02476 7.48981 6.70919 7.82697 6.35731C8.51652 5.9463 9.29291 5.70286 10.0937 5.64656L10.0221 5.63676ZM5.33678 2.97213C5.74007 1.62357 7.3712 1.4274 7.67222 1.3592C8.08601 1.64675 8.40806 2.04758 8.59976 2.51358C8.79145 2.97958 8.84467 3.49098 8.75299 3.98645C8.26685 5.23716 7.39321 6.29949 6.25989 7.01798C6.25989 7.01798 6.23786 7.17904 6.93537 4.61283C6.94421 4.58631 6.94733 4.55819 6.94457 4.53036C6.9418 4.50254 6.93318 4.47562 6.9193 4.45135C6.90541 4.42708 6.88656 4.40602 6.86397 4.38954C6.84138 4.37305 6.81558 4.36152 6.78823 4.3557C6.73514 4.34161 6.6788 4.34658 6.629 4.36974C6.5792 4.3929 6.53909 4.43279 6.51566 4.48247L5.86467 6.70864C5.71265 6.25258 5.52995 5.80731 5.3178 5.37591C5.12345 4.58561 5.12997 3.75927 5.33678 2.97213V2.97213ZM5.77897 7.335C5.83241 7.31643 5.89099 7.31949 5.9422 7.34353C5.99341 7.36757 6.03321 7.41066 6.05307 7.46363C6.06245 7.49125 6.06632 7.52047 6.06442 7.54958C6.06253 7.57869 6.0549 7.60714 6.04201 7.63331C6.02911 7.65947 6.01121 7.68285 5.98928 7.70209C5.96736 7.72133 5.94184 7.73606 5.91422 7.74545C5.8866 7.75484 5.85741 7.75868 5.8283 7.75678C5.79919 7.75489 5.77074 7.74731 5.74457 7.73442C5.7184 7.72153 5.69503 7.70359 5.67579 7.68167C5.65654 7.65975 5.64181 7.63426 5.63242 7.60664C5.624 7.57918 5.62112 7.55033 5.62395 7.52175C5.62678 7.49317 5.63525 7.46542 5.64888 7.44015C5.66252 7.41488 5.68105 7.39256 5.70338 7.3745C5.72571 7.35645 5.7514 7.34303 5.77897 7.335V7.335ZM1.35553 6.62037C1.12039 6.50837 0.912262 6.34681 0.745403 6.14684C0.578545 5.94686 0.456892 5.7132 0.388818 5.4618C0.320743 5.21041 0.307862 4.94727 0.351017 4.69043C0.394171 4.43358 0.492352 4.18913 0.638846 3.97379C0.78534 3.75845 0.976677 3.5773 1.19973 3.44283C1.42278 3.30836 1.67227 3.22375 1.9311 3.19474C2.18992 3.16573 2.45196 3.193 2.69924 3.27475C2.94653 3.3565 3.17322 3.49081 3.36375 3.66838C4.41591 4.50984 5.16017 5.67564 5.48057 6.98423C5.48057 6.98423 5.62696 7.11366 3.41088 5.58901C3.37697 5.56659 3.33845 5.55211 3.29818 5.5466C3.25791 5.54109 3.21691 5.54469 3.17823 5.55717C3.14231 5.57376 3.11116 5.59917 3.08768 5.63102C3.06419 5.66286 3.04915 5.70009 3.04393 5.7393C3.04488 5.78199 3.05589 5.82387 3.07609 5.86148C3.09629 5.8991 3.1251 5.9314 3.16016 5.95577L5.05826 7.27282C4.57228 7.26665 4.08653 7.29771 3.6053 7.36572C2.80549 7.30603 2.03276 7.05004 1.35553 6.62037V6.62037ZM5.19634 7.72929C5.19634 7.72929 5.3542 7.6415 3.16191 9.27397C3.13916 9.29118 3.12003 9.31269 3.10562 9.33731C3.09121 9.36193 3.08181 9.38916 3.07794 9.41742C3.07407 9.44569 3.07581 9.47444 3.08308 9.50202C3.09035 9.52961 3.103 9.55547 3.12029 9.57816C3.13568 9.60317 3.1564 9.62446 3.181 9.64049C3.2056 9.65652 3.23345 9.66692 3.26255 9.6709C3.29164 9.67488 3.32126 9.67235 3.34926 9.66351C3.37727 9.65468 3.40297 9.63974 3.42451 9.61979L5.27585 8.21412C5.11857 8.67933 5.00426 9.15798 4.93435 9.64406C4.61414 10.3808 4.12538 11.0321 3.50743 11.5454C3.3281 11.7368 3.10923 11.8868 2.86604 11.9851C2.62284 12.0834 2.36115 12.1275 2.09918 12.1144C1.8372 12.1013 1.58123 12.0313 1.34904 11.9093C1.11684 11.7873 0.914006 11.6162 0.754639 11.4078C0.595272 11.1995 0.483195 10.959 0.426195 10.7029C0.369195 10.4469 0.36865 10.1815 0.424583 9.92528C0.480516 9.66902 0.591578 9.42802 0.750076 9.21902C0.908574 9.01003 1.11069 8.83805 1.34237 8.71506C2.47439 7.95073 3.83634 7.60238 5.19634 7.72929Z" fill="#265113"/>
</svg>
