<svg viewBox="0 0 144 84" fill="none" xmlns="http://www.w3.org/2000/svg">
<g clip-path="url(#clip0_401_4853)">
<g clip-path="url(#clip1_401_4853)">
<path fill-rule="evenodd" clip-rule="evenodd" d="M116.437 -16.1736C115.594 -16.0271 114.54 -15.6367 114.493 -14.5384C114.496 -14.1845 114.607 -13.8406 114.809 -13.5558C115.011 -13.2711 115.293 -13.0598 115.617 -12.952C116.325 -12.7776 117.063 -12.7776 117.771 -12.952C119.912 -13.3421 121.981 -14.0749 123.907 -15.1242C125.55 -16.0494 127.056 -17.2166 128.379 -18.5897C128.379 -15.9295 128.239 -13.2937 128.145 -10.6579C124.164 -9.68172 120.136 -8.4371 116.437 -7.43649C115.64 -7.19243 114.657 -6.70432 114.75 -5.60608C114.781 -5.25983 114.914 -4.93217 115.133 -4.66943C115.351 -4.40669 115.644 -4.22213 115.968 -4.14175C116.656 -4.03507 117.357 -4.07657 118.029 -4.26374C120.031 -4.80152 121.954 -5.62267 123.743 -6.70428C125.345 -7.69167 126.83 -8.87117 128.169 -10.2187C128.169 -8.19301 127.981 -6.16739 127.864 -4.14175C123.97 -2.31333 119.936 -0.827545 115.804 0.300045C114.938 0.544098 113.884 1.03218 113.907 2.10602C113.933 2.46296 114.067 2.80209 114.291 3.07417C114.514 3.34626 114.814 3.53714 115.149 3.61914C115.93 3.73965 116.728 3.6898 117.49 3.47271C119.708 2.87606 121.814 1.89423 123.719 0.568466C125.289 -0.536865 126.693 -1.87724 127.888 -3.40954C127.747 -1.06663 127.583 1.27622 127.396 3.61914C123.675 5.55432 119.744 7.01298 115.687 7.96328C114.844 8.15853 113.79 8.57345 113.744 9.67169C113.751 10.0287 113.87 10.3734 114.081 10.6548C114.292 10.9362 114.584 11.1392 114.914 11.2337C115.685 11.4193 116.486 11.4193 117.256 11.2337C121.356 10.355 125.005 7.94129 127.513 4.44891C127.349 6.49896 127.162 8.57343 126.927 10.6479C126.938 10.8023 126.938 10.9572 126.927 11.1116C122.663 13.1191 118.301 14.895 113.861 16.4319C112.947 16.7492 111.847 17.3349 111.917 18.4088C111.977 18.7714 112.148 19.1038 112.406 19.355C112.664 19.6062 112.994 19.7625 113.345 19.7999C114.14 19.8532 114.937 19.737 115.687 19.4583C120.058 18.0391 123.939 15.3257 126.857 11.6485C126.623 13.723 126.389 15.8218 126.131 17.8963C124.352 19.0921 122.548 20.3368 120.722 21.2642C118.627 22.4506 116.46 23.4941 114.235 24.3881C113.345 24.7542 112.292 25.3887 112.409 26.4626C112.473 26.825 112.654 27.1535 112.923 27.3933C113.191 27.6332 113.531 27.7699 113.884 27.7805C114.687 27.7915 115.483 27.6338 116.226 27.3168C118.496 26.3775 120.594 25.0403 122.431 23.3631C123.781 22.1193 124.962 20.6908 125.944 19.1165C125.593 21.8499 125.195 24.559 124.796 27.2924C123.11 28.6347 121.354 29.9526 119.551 31.124C117.463 32.4829 115.279 33.674 113.018 34.6872C112.128 35.1021 111.027 35.7854 111.168 36.8593C111.252 37.2207 111.45 37.5422 111.73 37.7723C112.01 38.0024 112.356 38.1278 112.713 38.1283C113.131 38.1163 113.547 38.0591 113.954 37.9575C114.368 37.8372 114.775 37.6906 115.172 37.5182C117.492 36.4451 119.609 34.9492 121.424 33.1008C122.629 31.8628 123.676 30.4684 124.539 28.9519C124.141 31.3924 123.743 33.833 123.298 36.2735C120.337 39.0017 116.988 41.233 113.369 42.8873C112.596 43.229 111.683 43.8148 111.823 44.913C111.892 45.2603 112.065 45.5756 112.318 45.8127C112.571 46.0499 112.89 46.1965 113.228 46.2309C113.601 46.2884 113.98 46.2884 114.352 46.2309C114.715 46.1382 115.068 46.0074 115.406 45.8404C118.591 44.4047 121.227 41.9064 122.9 38.7385C122.431 41.179 121.963 43.7904 121.448 46.3041C118.454 49.0353 115.084 51.2813 111.449 52.9668C110.723 53.3084 109.856 53.8698 110.02 54.968C110.083 55.3097 110.248 55.6217 110.492 55.8587C110.737 56.0957 111.047 56.2453 111.378 56.2859C111.734 56.3565 112.1 56.3565 112.456 56.2859C112.81 56.2011 113.155 56.0785 113.486 55.9198C115.464 55.0155 117.236 53.6846 118.685 52.015C119.663 50.8267 120.453 49.4839 121.026 48.0369C120.605 50.209 120.16 52.3567 119.692 54.5287C116.63 57.2864 113.951 60.4732 111.73 63.998C111.261 64.7302 110.887 65.804 111.73 66.4385C111.983 66.6604 112.294 66.7996 112.623 66.8387C112.952 66.8777 113.285 66.8149 113.58 66.6582C114.13 66.2836 114.607 65.8032 114.985 65.2426C116.739 62.6552 118.164 59.8414 119.223 56.8716L118.31 61.0693C115.805 65.3895 113.897 70.0562 112.643 74.9316C112.362 75.9566 112.315 77.3721 113.463 77.8602C113.836 78.007 114.242 78.039 114.632 77.9524C115.022 77.8659 115.38 77.6645 115.664 77.3721C116.172 76.7398 116.54 75.9981 116.741 75.2001C118.063 70.8105 118.711 66.231 118.661 61.6307L119.223 59.483C119.006 62.9713 119.155 66.474 119.668 69.9285C119.785 70.8071 120.207 71.8565 121.237 71.8565C121.569 71.8351 121.888 71.716 122.158 71.5129C122.427 71.3098 122.636 71.0312 122.759 70.7095C122.926 70.0489 122.966 69.3605 122.876 68.6838C122.323 64.7026 121.144 60.8437 119.387 57.2621C120.183 53.9186 120.933 50.5506 121.729 47.1827C121.683 49.2702 121.903 51.3548 122.384 53.3817C122.952 55.8254 123.826 58.1805 124.984 60.386C125.429 61.289 126.295 62.2408 127.326 61.8259C127.625 61.6685 127.874 61.4225 128.041 61.1187C128.207 60.8149 128.284 60.4667 128.262 60.1176C128.165 59.3829 127.943 58.6722 127.607 58.0187L124.773 52.381C123.883 50.5506 122.947 48.6714 121.893 46.4749C122.314 44.3761 122.736 42.2528 123.11 40.1539C123.439 44.3353 124.536 48.4118 126.342 52.1614C126.74 53.04 127.513 53.9918 128.496 53.6501C128.805 53.5131 129.069 53.2857 129.256 52.9954C129.443 52.7052 129.545 52.3646 129.55 52.015C129.501 51.2937 129.318 50.5892 129.012 49.9405C127.394 46.119 125.499 42.4314 123.345 38.9093C123.883 35.9807 124.375 33.0276 124.82 30.099C124.674 32.402 124.911 34.714 125.522 36.9325C126.178 39.4007 127.214 41.7416 128.59 43.8636C129.129 44.7422 130.112 45.6208 130.932 45.0839C131.218 44.8975 131.442 44.625 131.576 44.3024C131.71 43.9799 131.747 43.6225 131.681 43.2778C131.52 42.5667 131.243 41.8898 130.862 41.2766C129.714 39.3242 128.777 37.5426 127.794 35.6878C126.81 33.833 125.85 31.9294 124.796 29.6109C124.937 28.7323 125.077 27.8537 125.195 26.9751C125.259 26.858 125.314 26.7355 125.358 26.609C125.32 26.6193 125.28 26.6193 125.241 26.609L125.944 21.7279C125.985 24.2256 126.42 26.6993 127.232 29.0495C128.168 31.7593 129.512 34.2965 131.213 36.5664C131.892 37.4938 133.039 38.4212 133.929 37.8598C134.208 37.6317 134.412 37.319 134.512 36.9648C134.613 36.6107 134.606 36.2326 134.491 35.883C134.201 35.1226 133.823 34.4015 133.367 33.7353C131.915 31.6121 130.721 29.6597 129.527 27.6096C128.332 25.5596 127.185 23.534 126.038 20.9958L126.459 17.6279L126.6 17.3838H126.483L126.904 13.7718C127.236 15.8423 127.843 17.8547 128.707 19.7511C129.96 22.4808 131.664 24.9591 133.742 27.0727C134.585 27.9269 135.896 28.7322 136.692 28.0245C136.934 27.7522 137.087 27.4074 137.129 27.0391C137.171 26.6709 137.1 26.2982 136.927 25.9744C136.751 25.5901 136.53 25.2295 136.271 24.9006C136.021 24.5692 135.756 24.2516 135.475 23.9488C133.804 22.1031 132.24 20.1553 130.791 18.1159C129.423 16.202 128.164 14.2055 127.021 12.1367C127.021 11.6974 127.021 11.2336 127.185 10.7943C127.372 8.98832 127.56 7.20675 127.724 5.40075C128.162 7.75202 128.952 10.0168 130.065 12.1122C131.31 14.4547 132.889 16.5861 134.749 18.4332C135.522 19.1898 136.692 19.8731 137.489 19.141C137.732 18.8867 137.893 18.5588 137.948 18.2039C138.002 17.849 137.948 17.4851 137.793 17.1642C137.452 16.4788 137.001 15.8597 136.458 15.3337C134.842 13.5766 133.437 11.9658 132.009 10.3063C130.581 8.64669 129.199 6.98709 127.63 4.93705C127.817 3.11478 127.981 1.28438 128.122 -0.554157C130.079 3.28239 132.831 6.61701 136.177 9.20798C136.856 9.7449 137.91 10.1842 138.519 9.40327C138.741 9.15053 138.887 8.83474 138.937 8.49588C138.987 8.15703 138.939 7.81026 138.8 7.49958C138.49 6.9117 138.068 6.39663 137.559 5.98646C134.586 3.46078 131.405 1.21482 128.051 -0.725014C128.239 -3.16555 128.426 -5.41085 128.59 -7.75377C130.633 -3.94945 133.596 -0.768822 137.184 1.47153C137.957 1.95963 139.081 2.30131 139.713 1.47153C139.896 1.1863 139.994 0.850727 139.994 0.507469C139.994 0.164211 139.896 -0.171284 139.713 -0.456516C139.333 -1.01651 138.847 -1.48986 138.285 -1.84764C136.575 -3.0435 135.053 -4.09295 133.437 -5.14238L128.567 -8.24183C128.707 -10.4627 128.848 -12.6836 128.941 -14.9289C129.818 -13.2383 130.939 -11.6989 132.267 -10.3651C133.92 -8.73629 135.819 -7.40074 137.887 -6.41143C138.706 -5.99654 139.901 -5.82568 140.392 -6.77749C140.54 -7.0842 140.601 -7.42847 140.568 -7.76993C140.535 -8.11139 140.409 -8.43593 140.205 -8.70554C139.761 -9.19531 139.238 -9.60005 138.66 -9.90137C136.856 -10.8532 135.311 -11.7806 133.695 -12.7324C132.079 -13.6842 130.698 -14.4896 129.012 -15.6366C129.012 -18.0772 129.199 -20.5177 129.246 -22.9583C130.208 -21.0495 131.484 -19.3315 133.016 -17.882C134.617 -16.3881 136.425 -15.1539 138.378 -14.2212C139.151 -13.8307 140.275 -13.6599 140.72 -14.6117C140.866 -14.9176 140.928 -15.2595 140.899 -15.5997C140.87 -15.9399 140.751 -16.2651 140.556 -16.5396C140.149 -17.0173 139.656 -17.4071 139.104 -17.6867L129.175 -23.0315C129.175 -24.6666 129.175 -26.3018 129.175 -27.9125C129.884 -26.1013 131.001 -24.4942 132.431 -23.2267C134.193 -21.6292 136.323 -20.5359 138.613 -20.054C139.088 -19.9191 139.589 -19.9191 140.064 -20.054C140.294 -20.1082 140.504 -20.2322 140.667 -20.4102C140.829 -20.5883 140.937 -20.8125 140.978 -21.0546C141.028 -21.3878 140.992 -21.729 140.873 -22.0425C140.753 -22.3559 140.555 -22.6301 140.299 -22.8363C140.053 -23.0245 139.785 -23.1802 139.502 -23.3L138.66 -23.5928C136.96 -24.098 135.313 -24.7764 133.742 -25.6184C132.121 -26.4452 130.59 -27.4517 129.175 -28.6203C129.175 -30.6215 129.175 -32.6228 129.175 -34.624C130.993 -31.8132 133.58 -29.6365 136.599 -28.3762C136.771 -28.2709 136.962 -28.2036 137.16 -28.1786C137.358 -28.1537 137.559 -28.1715 137.75 -28.2311C137.941 -28.2906 138.119 -28.3906 138.271 -28.5248C138.423 -28.6589 138.548 -28.8244 138.636 -29.0108C138.771 -29.2998 138.841 -29.6169 138.841 -29.9382C138.841 -30.2595 138.771 -30.5765 138.636 -30.8656C138.314 -31.2852 137.895 -31.6127 137.418 -31.8174C136.013 -32.5252 134.749 -33.1109 133.391 -33.6478C132.032 -34.1847 130.791 -34.5996 129.246 -35.1365C129.246 -38.6265 129.035 -42.1164 128.848 -45.6064C128.848 -46.1433 127.911 -46.1189 127.934 -45.6064C127.934 -41.5551 127.934 -37.5038 127.934 -33.4037C124.796 -33.4335 121.665 -33.7109 118.567 -34.2335C118.201 -34.3459 117.807 -34.3104 117.464 -34.1341C117.121 -33.9577 116.855 -33.6535 116.718 -33.2817C116.597 -32.9721 116.564 -32.6331 116.622 -32.3046C116.681 -31.9761 116.827 -31.6716 117.045 -31.4269C117.515 -31.0386 118.071 -30.7786 118.661 -30.6704C120.398 -30.3729 122.175 -30.4477 123.883 -30.89C125.355 -31.2785 126.745 -31.9488 127.981 -32.8668C127.981 -30.5971 127.981 -28.3275 127.981 -26.0578C124.492 -26.0578 120.956 -26.0577 117.678 -25.8625C117.27 -25.913 116.859 -25.7998 116.528 -25.546C116.198 -25.2921 115.972 -24.9166 115.898 -24.4958C115.863 -24.1618 115.918 -23.8241 116.059 -23.5218C116.2 -23.2195 116.42 -22.9649 116.694 -22.7874C117.248 -22.5103 117.86 -22.3844 118.474 -22.4213C121.852 -22.483 125.146 -23.5316 127.981 -25.4476C127.981 -23.3244 127.981 -21.1766 127.981 -19.0534C124.375 -17.9795 120.277 -16.8569 116.437 -16.1736Z" fill="#5EAD41"/>
<path d="M99.0559 20.0942C99.408 17.9179 97.9292 15.8681 95.7528 15.516C93.5765 15.1639 91.5267 16.6428 91.1746 18.8191C90.8225 20.9955 92.3014 23.0452 94.4777 23.3973C96.6541 23.7494 98.7038 22.2706 99.0559 20.0942Z" fill="#397621"/>
<path fill-rule="evenodd" clip-rule="evenodd" d="M21.6031 -5.15934C20.0272 -4.21446 18.0421 -2.77907 16.4149 -1.72568L13.499 0.238361L14.48 -0.021187C15.0894 -0.180213 15.9452 -0.428856 16.8958 -0.740999C18.9164 -1.3885 20.8674 -2.23593 22.7198 -3.27071C23.3447 -3.63532 23.9464 -4.03835 24.5214 -4.47744C24.2929 -3.12707 24.041 -1.77188 23.7607 -0.43541C23.6153 -0.494127 23.4552 -0.505908 23.3029 -0.469139C22.2644 -0.134104 21.2806 0.351216 20.3827 0.971366C18.8069 1.91624 16.8217 3.35162 15.1918 4.41538L12.2786 6.36906C12.2786 6.36906 12.6577 6.28168 13.27 6.11229C13.8822 5.9429 14.7248 5.70184 15.6858 5.39248C17.7076 4.74811 19.6589 3.90055 21.5098 2.86277C22.1357 2.49546 22.7406 2.09354 23.3218 1.65885C22.9303 3.41014 22.5077 5.15308 22.0361 6.87177C21.6408 6.68802 20.7513 6.772 18.4647 7.54866C15.3538 8.75338 12.3296 10.1713 9.41388 11.7924C12.7013 11.3042 15.9517 10.5932 19.1427 9.66432C19.9555 9.40625 20.7492 9.09152 21.518 8.72246L21.418 9.09581C21.3596 9.16544 21.3171 9.247 21.2936 9.33479C21.2701 9.42257 21.2661 9.51444 21.2818 9.60394C21.1345 10.1536 20.9873 10.7032 20.7881 11.2389C20.589 11.7746 20.5103 12.2759 20.2912 12.7618C20.2258 12.651 20.1271 12.5637 20.0092 12.5121C19.8914 12.4606 19.7602 12.4475 19.6345 12.4748C18.6587 12.695 17.7264 13.0763 16.8759 13.6029C15.3784 14.3798 13.4834 15.5615 11.9207 16.4988L9.14278 18.1552L10.0621 18.0014C10.6341 17.8991 11.4469 17.7278 12.3414 17.5007C14.2534 17.0502 16.1105 16.3925 17.8798 15.5391C18.5238 15.2177 19.1428 14.8486 19.7317 14.4348C19.2883 15.7164 18.8269 16.9821 18.3447 18.2423C17.9729 18.0538 17.1636 18.1704 14.9909 19.1442C12.2076 20.5416 9.52887 22.138 6.97541 23.921C10.0104 23.2123 12.9897 22.2832 15.8896 21.1412C16.5747 20.8246 17.1517 20.5791 17.5179 20.3326L17.4706 20.5089C17.3796 20.5646 17.3044 20.6426 17.2522 20.7357C17.2 20.8288 17.1726 20.9337 17.1726 21.0404C17.1681 21.1072 17.1687 21.1742 17.1745 21.2409C16.8381 22.04 16.5017 22.8391 16.1578 23.625C15.815 23.4109 15.0791 23.5027 13.1393 24.5612C10.729 25.9853 8.43743 27.6014 6.28697 29.394C8.97808 28.6204 11.6029 27.6325 14.1364 26.44C14.4886 26.2454 14.7987 26.0839 15.0644 25.9217C14.5382 27.0145 14.012 28.1072 13.4574 29.1813C13.1425 28.8635 12.493 28.9228 10.1656 30.2665C7.66271 31.9197 5.28665 33.7574 3.05729 35.7643C5.88644 34.7714 8.63603 33.5649 11.2823 32.1552C11.6505 31.9426 11.9613 31.7369 12.2298 31.5643C11.9124 32.1684 11.5921 32.7828 11.2643 33.3841C10.8702 33.2785 10.232 33.7522 8.72533 35.8493C7.0322 38.4751 5.52832 41.2181 4.22513 44.0577C6.4928 41.907 8.59902 39.5923 10.5267 37.1322C10.7747 36.7874 10.9777 36.4862 11.1676 36.1925C11.4133 38.7237 11.8561 41.2318 12.4919 43.6941C13.0137 41.1028 13.3098 38.4711 13.3769 35.8286C13.3095 33.1763 12.9136 32.8701 12.406 32.8564C13.0983 31.6414 13.7596 30.4182 14.3952 29.1658C14.4543 29.5262 14.5437 29.9391 14.6683 30.4282C15.1591 32.0952 15.8725 33.6883 16.7892 35.1646C17.2123 35.867 17.6106 36.4962 17.9165 36.8893C18.2223 37.2825 18.4053 37.5538 18.4053 37.5538C18.4053 37.5538 18.3324 37.2453 18.2313 36.7514L17.8062 34.7702C17.481 33.2048 17.1569 31.2618 16.7845 29.8727C16.635 29.0048 16.3315 28.1706 15.8883 27.4096C15.8297 27.3297 15.7531 27.2647 15.6648 27.2198C15.5764 27.1749 15.4788 27.1513 15.3797 27.151C15.7173 26.4301 16.055 25.7092 16.3823 24.9855C16.4732 24.9068 16.5455 24.809 16.5942 24.6991C16.6429 24.5892 16.6666 24.4698 16.6638 24.3496C16.9454 23.7137 17.2165 23.075 17.4877 22.4363C17.589 22.7636 17.7102 23.1406 17.8667 23.5938C18.3684 25.0398 19.1988 26.9184 19.7509 28.4668C20.0425 29.2452 20.3017 29.937 20.4781 30.44L20.7718 31.2523C20.7718 31.2523 20.7929 30.9245 20.815 30.3858C20.8371 29.8471 20.8497 29.0947 20.8224 28.2426C20.7697 26.4269 20.4706 24.6268 19.9332 22.8916C19.7151 21.9501 19.2804 21.0725 18.6638 20.3285C18.5834 20.2611 18.4929 20.2069 18.3957 20.1677L18.6918 19.4357C18.8141 19.3002 18.8812 19.1239 18.8799 18.9414C19.1935 18.1029 19.5043 17.2748 19.8075 16.4335L19.8778 16.5857C20.0689 16.9926 20.365 17.5054 20.7494 18.1864C21.1338 18.8674 21.5893 19.6563 22.026 20.4736C22.4628 21.2908 22.912 22.1448 23.2687 22.9295C23.6253 23.7141 23.9128 24.4247 24.1044 24.954L24.4132 25.7925C24.4132 25.7925 24.4372 25.4544 24.4441 24.8894C24.4506 24.1361 24.4111 23.3831 24.3257 22.6347C24.2093 21.6669 24.012 20.7106 23.7358 19.7757C23.4739 18.8592 23.1152 17.9732 22.6656 17.1327C22.3453 16.5462 21.9738 15.9892 21.5555 15.4681C21.34 15.1947 21.0798 14.9596 20.786 14.7728C20.6752 14.7102 20.5503 14.6767 20.423 14.6756C20.8116 13.5571 21.1795 12.433 21.5342 11.3166L21.726 10.601C21.9046 10.9712 22.142 11.4127 22.4712 11.9678C23.2304 13.2827 24.4581 14.9232 25.4274 16.2833L27.15 18.6899L26.9636 17.8508C26.8369 17.3278 26.6399 16.6526 26.4017 15.7996C25.9196 14.0708 25.2491 12.4002 24.4021 10.8179C23.9908 9.97358 23.402 9.22812 22.6758 8.63257C22.5816 8.58691 22.4795 8.55956 22.375 8.55199C22.8141 6.91349 23.3077 5.2785 23.6977 3.61574C23.9551 4.10706 24.3374 4.75415 24.8959 5.61514C25.9133 7.21043 27.4006 9.20947 28.5784 10.87L30.6745 13.8324C30.6745 13.8324 30.5664 13.4477 30.3763 12.8299C30.1861 12.2121 29.9092 11.3377 29.5424 10.3835C28.7965 8.31289 27.8395 6.32454 26.6864 4.4499C26.1397 3.43781 25.4085 2.53694 24.5305 1.79376C24.4065 1.72523 24.2677 1.68803 24.126 1.68539C24.5151 0.233556 24.79 -1.24885 25.0725 -2.7181C25.5443 -1.98947 26.0531 -1.28553 26.597 -0.609061C27.775 0.884761 29.4471 2.73327 30.7779 4.27915L33.1329 7.02197C33.1329 7.02197 32.9985 6.6525 32.7509 6.04155C32.5034 5.43059 32.1344 4.60926 31.6943 3.67995C30.7673 1.69035 29.6385 -0.198766 28.3255 -1.95763C27.6814 -2.91063 26.8661 -3.73583 25.921 -4.39137C25.8497 -4.44686 25.768 -4.48749 25.6807 -4.51087C25.5935 -4.53426 25.5024 -4.53992 25.4129 -4.52753C26.106 -8.40987 26.5771 -12.3286 26.8239 -16.2646C26.8604 -16.7327 26.1523 -16.7447 26.1054 -16.2793C25.7903 -13.0293 25.3922 -9.8015 24.8905 -6.60151C24.7689 -6.62205 24.6446 -6.62148 24.5232 -6.59984C23.4832 -6.26848 22.4989 -5.78291 21.6031 -5.15934Z" fill="#5EAD41"/>
<path fill-rule="evenodd" clip-rule="evenodd" d="M55 39C55.3956 39 55.7822 39.1173 56.1111 39.3371C56.44 39.5568 56.6964 39.8692 56.8478 40.2346C56.9991 40.6001 57.0387 41.0022 56.9616 41.3902C56.8844 41.7782 56.6939 42.1345 56.4142 42.4142C56.1345 42.6939 55.7781 42.8844 55.3902 42.9616C55.0022 43.0387 54.6001 42.9991 54.2346 42.8477C53.8692 42.6964 53.5568 42.44 53.3371 42.1111C53.1173 41.7822 53 41.3956 53 41C53 40.7374 53.0517 40.4773 53.1522 40.2346C53.2528 39.992 53.4001 39.7715 53.5858 39.5858C53.7715 39.4001 53.992 39.2528 54.2346 39.1522C54.4773 39.0517 54.7374 39 55 39Z" fill="#A7CD7A"/>
</g>
</g>
<defs>
<clipPath id="clip0_401_4853">
<rect width="144" height="84" fill="white"/>
</clipPath>
<clipPath id="clip1_401_4853">
<rect width="375" height="2010" fill="white" transform="translate(-137 -1)"/>
</clipPath>
</defs>
</svg>
