<svg viewBox="0 0 68 132" fill="none" xmlns="http://www.w3.org/2000/svg">
<g clip-path="url(#clip0_413_4854)">
<path fill-rule="evenodd" clip-rule="evenodd" d="M150.142 -167.434C144.663 -157.23 138.65 -147.324 132.127 -137.757C132.015 -138.208 131.769 -138.613 131.422 -138.918C129.102 -140.966 126.34 -142.443 123.35 -143.234C120.36 -144.024 117.223 -144.106 114.184 -143.474C110.599 -142.638 103.03 -139.509 102.676 -134.884C102.321 -130.26 111.311 -128.292 114.798 -127.527C118.133 -126.737 121.613 -126.744 124.958 -127.547C118.434 -118.377 111.578 -109.29 104.367 -99.9235C104.288 -100.249 104.163 -100.562 103.995 -100.851C102.455 -103.164 100.454 -105.127 98.1168 -106.616C95.7797 -108.105 93.1575 -109.088 90.4154 -109.502C86.4515 -110.046 77.2612 -109.263 75.469 -104.576C73.6768 -99.889 81.6158 -95.8756 84.8165 -94.1984C88.8077 -92.0002 93.3759 -91.0737 97.9217 -91.5401C90.8293 -82.2668 83.6764 -73.0222 77.1271 -63.4897C76.9523 -63.6335 76.7452 -63.7323 76.5235 -63.7777C74.0039 -65.5874 71.0761 -66.7419 67.9974 -67.1401C64.9187 -67.5383 61.7836 -67.1678 58.868 -66.0612C55.1958 -65.0423 48.7752 -63.3873 50.7034 -58.4226C52.0331 -56.2756 53.8263 -54.4602 55.9511 -53.1093C58.0759 -51.7584 60.4786 -50.9065 62.9821 -50.6163C64.5867 -50.3524 66.2231 -50.3286 67.8385 -50.5457C61.1997 -40.981 54.8917 -31.3333 49.2164 -21.4587C43.9932 -22.1742 38.6649 -21.2136 33.9875 -18.7135C29.3101 -16.2133 25.5209 -12.3002 23.1575 -7.52949C23.029 -7.16937 22.9974 -6.78223 23.0659 -6.40748C23.1343 -6.03273 23.3004 -5.68368 23.5472 -5.3961C25.7508 -3.17964 28.7123 -1.89106 31.8377 -1.78871C34.9631 -1.68637 38.0213 -2.77786 40.399 -4.8443C35.774 4.50203 31.9113 14.2064 28.8494 24.1722C28.7234 24.0369 28.5511 23.9547 28.3666 23.9419C23.3355 24.0266 18.4257 25.5868 14.2389 28.4313C10.0521 31.2758 6.77 35.2811 4.79463 39.9565C4.63043 40.3532 4.5832 40.7878 4.65825 41.2089C4.7333 41.63 4.92763 42.0196 5.21792 42.3304C6.99977 43.9811 9.25437 45.0251 11.6661 45.3165C14.0779 45.6078 16.526 45.1318 18.6681 43.9551C20.857 42.9961 22.9402 41.8058 24.8822 40.4044C22.8783 50.7241 22.0409 61.2296 22.3863 71.7193C17.9583 73.7691 14.1866 77.0341 11.5075 81.137C8.8285 85.2399 7.35151 90.013 7.24754 94.9039C7.2239 95.4293 7.36128 95.9479 7.64093 96.3895C7.92058 96.831 8.32918 97.1742 8.8111 97.3725C11.1546 98.1741 13.6971 98.1998 16.0691 97.4458C18.441 96.6918 20.5186 95.1972 21.9995 93.18C22.767 92.3479 23.5033 91.426 24.2396 90.5041C24.5669 92.4578 24.9544 94.4405 25.3711 96.362C20.5167 101.837 17.0499 108.409 15.2707 115.51C14.2837 119.907 14.3133 128.385 21.0648 126.813C23.3157 125.879 25.3452 124.471 27.0161 122.684C28.6869 120.897 29.9602 118.773 30.7496 116.455C32.0846 113.231 32.6798 109.75 32.4907 106.275C32.3015 102.799 31.333 99.4177 29.6576 96.385C28.92 92.9622 28.3029 89.597 27.8358 86.2284C30.1698 88.6914 32.892 90.7494 35.8943 92.3207C38.7307 93.6742 45.1966 97.359 47.5738 93.7748C50.5978 89.3009 45.924 80.9288 42.9435 77.8588C40.7832 75.7598 38.2203 74.1259 35.4085 73.0544C32.5967 71.9829 29.5942 71.4962 26.581 71.6237C26.2921 61.941 27.0193 52.2459 28.7509 42.6998C30.2426 45.5921 32.1927 48.2173 34.5251 50.4733C36.9561 52.8318 40.7276 56.7286 43.5812 52.9224C44.9046 50.5468 45.6579 47.8966 45.7811 45.1845C45.9042 42.4724 45.3937 39.7741 44.2902 37.3074C42.0273 32.1654 37.913 28.0891 32.7699 25.8931C35.5084 16.7436 38.9292 7.81036 43.0031 -0.830443C42.9503 2.29005 43.5287 5.38335 44.7029 8.26133C45.877 11.1393 47.6223 13.7417 49.8329 15.9103C50.1473 16.1233 50.5131 16.2479 50.8926 16.271C51.2722 16.2942 51.652 16.2153 51.9928 16.0422C54.5138 14.5813 56.6279 12.4993 58.1346 9.99387C59.6414 7.48845 60.491 4.64245 60.6027 1.7257C60.7652 -1.73374 60.1832 -5.18128 58.8966 -8.38081C57.6099 -11.5803 55.6489 -14.4562 53.1482 -16.8112C52.8312 -17.1469 52.4016 -17.3519 51.9413 -17.3871C57.9056 -28.0227 64.6835 -38.3449 71.7923 -48.584C70.9976 -45.3719 71.0193 -42.0164 71.8554 -38.8287C72.6914 -35.641 74.3148 -32.7242 76.5751 -30.3484C76.9502 -29.9347 77.4682 -29.6807 78.0248 -29.6374C78.5814 -29.5941 79.1356 -29.7649 79.5757 -30.1151C81.5742 -31.7768 83.1909 -33.8557 84.3124 -36.2059C85.4339 -38.5561 86.033 -41.1205 86.0676 -43.7194C85.1343 -49.1447 82.4404 -54.0911 78.4064 -57.7862C84.8166 -66.5612 91.3786 -75.1887 98.1821 -83.7012C97.6793 -77.7893 99.4818 -71.9323 103.208 -67.372C103.521 -67.013 103.946 -66.7703 104.414 -66.6826C104.882 -66.5949 105.367 -66.667 105.792 -66.8876C107.676 -68.2576 109.265 -69.9976 110.464 -72.0014C111.662 -74.0052 112.444 -76.2307 112.761 -78.5416C113.037 -81.4253 112.676 -84.3294 111.705 -87.0458C110.734 -89.7622 109.177 -92.2236 107.145 -94.254L106.541 -94.542C114.37 -104.737 122.08 -114.839 129.31 -125.021C129.208 -121.331 130.01 -117.681 131.645 -114.392C133.281 -111.104 135.699 -108.278 138.687 -106.166C139.082 -105.914 139.547 -105.795 140.015 -105.828C140.483 -105.86 140.93 -106.042 141.292 -106.346C142.862 -108.302 143.997 -110.572 144.62 -113.003C145.243 -115.433 145.338 -117.966 144.9 -120.428C144.43 -123.246 143.372 -125.927 141.793 -128.294C140.215 -130.661 138.154 -132.66 135.745 -134.159L135.201 -134.418C142.021 -144.307 148.28 -154.573 153.95 -165.167C155.144 -167.668 151.722 -170.125 150.439 -167.592L150.142 -167.434Z" fill="#92D660"/>
</g>
<defs>
<clipPath id="clip0_413_4854">
<rect width="68" height="132" fill="white"/>
</clipPath>
</defs>
</svg>
