<svg viewBox="0 0 187 230" fill="none" xmlns="http://www.w3.org/2000/svg">
<g clip-path="url(#clip0_405_4853)">
<path fill-rule="evenodd" clip-rule="evenodd" d="M188.22 -212.145C174.018 -203.641 156.099 -191.083 141.271 -181.149L114.91 -163.489C114.91 -163.489 118.378 -164.27 124.022 -165.849C129.666 -167.428 137.467 -169.718 146.205 -172.626C164.853 -178.627 182.731 -186.416 199.562 -195.871C205.246 -199.186 210.702 -202.82 215.903 -206.754C214.393 -194.892 212.674 -182.985 210.726 -170.946C209.327 -171.432 207.819 -171.518 206.395 -171.194C196.846 -168.098 187.881 -163.694 179.785 -158.123C165.488 -149.64 147.664 -137.061 132.836 -127.127L106.569 -109.446C106.569 -109.446 110.038 -110.226 115.682 -111.805C121.326 -113.385 129.126 -115.674 137.865 -118.582C156.5 -124.61 174.376 -132.397 191.222 -141.827C196.906 -145.142 202.362 -148.776 207.563 -152.711C204.852 -137.331 201.647 -121.972 198.138 -106.59C194.299 -108.113 185.926 -107.248 164.935 -100.015C136.451 -88.9752 108.868 -76.1119 82.3759 -61.5147C112.941 -66.4305 143.048 -73.2797 172.493 -82.0156C180.017 -84.3922 187.335 -87.2654 194.394 -90.6135C194.154 -89.5587 193.893 -88.416 193.652 -87.3612C193.132 -86.7262 192.77 -85.9885 192.59 -85.1993C192.409 -84.4101 192.416 -83.5881 192.61 -82.7903L188.753 -68.5044C187.71 -63.9336 186.274 -59.8225 184.866 -54.965C184.202 -55.9115 183.248 -56.653 182.134 -57.089C181.021 -57.525 179.802 -57.6342 178.643 -57.4018C169.57 -55.3035 160.986 -51.7923 153.243 -47.0131C139.665 -39.9383 122.567 -29.2281 108.169 -20.3059C93.771 -11.3838 82.9979 -5.24132 82.9979 -5.24132C82.9979 -5.24132 86.1964 -5.7139 91.5308 -6.80886C96.8652 -7.90384 104.275 -9.35755 112.489 -11.2752C130.171 -15.5674 147.238 -21.6583 163.391 -29.4403C169.249 -32.3429 174.842 -35.6736 180.12 -39.4026C176.661 -28.1703 172.917 -17.0025 169.058 -5.76868C165.448 -7.42449 158.003 -6.25625 138.132 2.61955C112.759 15.4208 88.4576 29.9335 65.4161 46.0469C93.4851 39.2527 120.926 30.5541 147.523 20.0194C153.752 17.1866 158.684 14.7979 162.358 12.6769C162.237 13.2043 162.117 13.7315 162.017 14.171C161.203 14.7028 160.55 15.4193 160.115 16.2562C159.681 17.0931 159.479 18.0243 159.527 18.9667C159.484 19.5298 159.522 20.0983 159.64 20.6569C156.909 27.6783 154.107 34.7144 151.236 41.7655C147.97 39.9108 141.458 40.9223 123.423 50.4941C101.616 63.307 81.0101 77.7802 61.8071 93.7722C86.6504 86.5088 110.768 77.3843 133.932 66.4853C137.107 64.8052 139.957 63.2359 142.274 61.8224C137.978 71.4768 133.587 81.1098 128.912 90.6778C125.847 87.9441 119.535 88.0762 98.6876 100.798C76.0245 115.694 54.6592 132.213 34.7754 150.21C60.7804 140.981 85.9369 129.903 110.03 117.072C113.359 115.15 116.155 113.383 118.626 111.727C115.902 117.116 113.272 122.527 110.447 128.356C106.561 127.469 100.904 131.727 87.8526 150.481C73.278 173.771 60.5405 198.06 49.7379 223.163C69.8352 203.851 88.3791 183.173 105.227 161.288C107.316 158.25 109.04 155.5 110.549 153.255C114.025 175.352 119.338 197.217 126.438 218.651C129.987 195.835 131.426 172.713 130.739 149.538C128.753 126.336 124.945 123.803 120.175 123.732C126.024 112.952 131.588 102.108 137.009 90.5828C137.892 94.3253 138.977 98.0296 140.26 101.681C145.699 116.175 153.18 129.981 162.501 142.727C166.799 148.794 170.92 153.895 173.859 157.617C176.799 161.34 178.827 163.374 178.827 163.374L176.744 156.333L171.799 139.115C167.952 125.384 163.969 108.754 159.822 96.3417C157.937 88.815 154.651 81.6162 150.117 75.0782C149.547 74.3703 148.798 73.8034 147.942 73.4301C147.086 73.0569 146.149 72.8896 145.22 72.9441C148.071 66.5664 150.826 60.1668 153.488 53.7458C154.305 53.0541 154.941 52.1964 155.35 51.2341C155.759 50.2718 155.931 49.2294 155.853 48.1825C158.145 42.5095 160.435 36.8363 162.612 31.2295C163.641 34.1461 164.99 37.4129 166.672 41.4031C172.071 54.009 180.071 70.0749 186.921 83.7515C190.166 90.5026 192.869 96.5749 194.849 101.003L197.94 107.996C197.94 107.996 197.993 105.142 197.973 100.421C197.953 95.7002 197.651 89.1581 196.866 81.6736C195.488 65.7663 191.833 50.0346 186.001 34.9005C183.288 26.9138 178.698 19.5445 172.574 13.343C171.827 12.7126 170.953 12.2296 170.007 11.9248L172.383 5.43889C172.945 4.85527 173.369 4.16561 173.626 3.41279C173.884 2.65996 173.97 1.86065 173.88 1.06454C176.425 -6.30744 178.908 -13.694 181.327 -21.0948L182.109 -19.7143C184.121 -16.2962 187.184 -11.8063 191.009 -5.84769C194.834 0.110908 199.676 6.85637 204.228 13.998C208.78 21.1397 213.293 28.4572 216.992 35.4043C220.691 42.3514 223.982 48.4655 225.848 52.96L229.163 60.2819C229.163 60.2819 229.236 57.3397 228.972 52.3784C228.656 45.7695 227.897 39.172 226.698 32.6252C225.17 24.1597 222.872 15.8081 219.831 7.66251C216.891 -0.315858 213.065 -8.00774 208.416 -15.2851C205.151 -20.3707 201.411 -25.1857 197.242 -29.6711C195.073 -32.0442 192.501 -34.0695 189.635 -35.6603C188.59 -36.2171 187.406 -36.4872 186.223 -36.4385C189.287 -46.374 192.142 -56.2646 194.976 -66.0675L196.42 -72.396C198.188 -69.2186 200.803 -65.3858 203.711 -60.6535C211.846 -49.5505 223.799 -35.0799 233.484 -23.3456L250.873 -2.54866C250.873 -2.54866 250.108 -5.31245 248.661 -9.89627C247.214 -14.4801 245.14 -20.6862 242.753 -27.7039C237.256 -42.671 230.008 -57.0726 221.143 -70.6405C216.875 -78.0098 210.965 -84.4707 203.827 -89.5713C202.924 -89.9478 201.961 -90.1676 200.984 -90.2198C204.273 -104.635 208.055 -119.031 210.89 -133.642C213.519 -129.436 217.444 -123.917 223.019 -116.449C233.421 -102.61 248.324 -85.3391 260.202 -70.9779L281.297 -45.4512L278.019 -54.2447C275.955 -59.6167 272.89 -67.1586 269.037 -75.6202C261.115 -93.5975 251.285 -110.836 239.699 -127.07C234.045 -135.807 226.755 -143.551 218.191 -149.916C216.991 -150.524 215.651 -150.83 214.306 -150.803C216.739 -163.656 218.984 -176.553 220.963 -189.602C225.835 -183.204 231.092 -177.064 236.708 -171.214C248.433 -158.368 265.044 -142.465 278.265 -129.184L301.737 -105.335C301.737 -105.335 300.274 -108.536 297.601 -113.862C294.927 -119.188 291.174 -126.332 286.638 -134.857C276.929 -152.077 265.421 -168.396 252.287 -183.566C245.786 -191.822 237.737 -198.926 228.553 -204.516C227.101 -205.455 225.34 -205.857 223.625 -205.64C228.235 -239.77 230.726 -274.184 231.086 -308.711C231.135 -312.861 224.445 -312.815 224.226 -308.796C223.064 -280.394 220.916 -252.186 217.783 -224.173C216.678 -224.325 215.559 -224.299 214.475 -224.095C205.104 -221.35 196.259 -217.324 188.22 -212.145Z" fill="#92D660"/>
</g>
<defs>
<clipPath id="clip0_405_4853">
<rect width="187" height="230" fill="white"/>
</clipPath>
</defs>
</svg>
