<svg viewBox="0 0 42 208" fill="none" xmlns="http://www.w3.org/2000/svg">
<path fill-rule="evenodd" clip-rule="evenodd" d="M28.4216 206.951C28.1408 199.496 27.4369 192.066 26.3136 184.698C26.1303 184.934 25.8728 185.095 25.5867 185.152C23.7357 185.702 21.7875 185.797 19.8954 185.429C18.0033 185.061 16.219 184.241 14.6832 183.033C12.866 181.519 9.44965 177.659 10.4673 174.859C11.485 172.058 17.1547 173.421 19.3354 173.95C21.4204 174.444 23.3788 175.399 25.0778 176.751C23.8421 169.636 22.3883 162.446 20.9345 155.18H20.4984C19.0975 156.136 17.5237 156.783 15.8737 157.082C14.2237 157.382 12.5322 157.327 10.9034 156.92C8.50467 156.164 3.63447 153.136 3.63447 149.881C3.63447 146.627 9.44964 146.551 11.703 146.475C14.5378 146.301 17.3552 147.041 19.7715 148.595C18.2451 141.026 16.7186 133.911 15.4102 126.569H14.974C13.0607 126.909 11.097 126.763 9.24945 126.143C7.40193 125.524 5.72514 124.45 4.36136 123.012C2.61681 121.347 -0.5815 118.773 1.88994 116.276C3.21614 115.399 4.71375 114.842 6.27326 114.646C7.83277 114.449 9.41472 114.618 10.9034 115.14C11.8732 115.445 12.8015 115.877 13.6656 116.427C12.4299 108.858 11.485 101.668 10.9761 94.4017C7.86215 93.38 5.13152 91.3729 3.16425 88.6597C1.19697 85.9466 0.0909076 82.6623 0 79.264C0.0405803 79.0235 0.133798 78.796 0.272464 78.5991C0.411129 78.4022 0.591519 78.2412 0.799589 78.1286C2.66383 77.4714 4.69802 77.5746 6.4921 78.4174C8.28617 79.2601 9.70671 80.7798 10.4673 82.67C10.355 75.9576 10.7928 69.2474 11.7757 62.6124C8.96504 61.1454 6.61999 58.8661 5.02141 56.0471C3.42283 53.2281 2.63844 49.9891 2.76218 46.7179C2.79107 46.4428 2.89559 46.1821 3.0632 45.9673C3.23082 45.7525 3.45445 45.5926 3.70718 45.5069C5.15413 45.0497 6.70195 45.0738 8.13514 45.5758C9.56833 46.0778 10.8155 47.0325 11.703 48.3073C12.6893 49.4341 13.5433 50.6792 14.2471 52.0161C15.9794 45.4685 18.4179 39.146 21.5161 33.1696C19.5825 30.736 18.3402 27.7886 17.9292 24.6592C17.5182 21.5299 17.9549 18.3432 19.19 15.4585C19.3207 15.1543 19.536 14.8979 19.8081 14.7225C20.0803 14.547 20.3967 14.4606 20.7165 14.4745C22.2618 14.6575 23.71 15.3518 24.8483 16.4553C25.9866 17.5588 26.755 19.0135 27.0405 20.6054C27.0405 21.2866 27.4766 22.0434 27.622 22.7246L29.8027 19.6214C28.545 15.0918 28.3703 10.3107 29.2938 5.69471C29.8754 2.89424 32.2014 -1.87421 35.6179 0.774887C36.652 1.96015 37.4227 3.36817 37.875 4.89875C38.3273 6.42932 38.4501 8.04483 38.2347 9.63044C38.1086 11.8639 37.5087 14.0405 36.4781 16.0036C35.4474 17.9667 34.0117 19.6676 32.2741 20.9837C30.9267 22.7065 29.6651 24.5002 28.4943 26.3577C30.4731 25.5825 32.5599 25.1479 34.6729 25.071C36.6355 25.071 41.2876 24.6925 41.9418 27.4929C42.596 30.2934 37.5804 34.4563 34.6729 35.0618C31.0634 36.2486 27.1518 35.9228 23.7694 34.1536C21.0102 39.6759 18.8175 45.4856 17.2274 51.4863C18.8175 50.206 20.6145 49.2319 22.5337 48.6101C24.569 47.8532 27.7674 46.6422 28.3489 49.6698C28.4433 51.4152 28.144 53.1594 27.475 54.7628C26.806 56.3662 25.786 57.7844 24.4964 58.9038C21.8318 61.2785 18.4062 62.5214 14.9014 62.3854C14.0329 68.4755 13.5714 74.6211 13.5202 80.7778C15.2041 77.2349 18.1521 74.5184 21.7341 73.2089C21.9672 73.1646 22.2077 73.191 22.4267 73.2849C22.6458 73.3788 22.8344 73.5363 22.9699 73.7387C24.0021 75.2783 24.6377 77.068 24.8159 78.9365C24.994 80.805 24.7089 82.6898 23.9875 84.4108C23.1473 86.4805 21.8873 88.3365 20.2939 89.8519C18.7005 91.3673 16.8114 92.5063 14.756 93.1907C14.4937 93.2612 14.2186 93.2612 13.9564 93.1907C14.516 101.107 15.4621 108.989 16.7912 116.805C17.1485 114.74 18.0026 112.803 19.2738 111.175C20.5449 109.547 22.1917 108.281 24.0602 107.496C24.222 107.422 24.3964 107.383 24.573 107.382C24.7496 107.38 24.9247 107.416 25.0877 107.486C25.2507 107.557 25.3982 107.662 25.5215 107.793C25.6447 107.925 25.7411 108.081 25.8048 108.253C26.5063 109.763 26.8706 111.419 26.8706 113.097C26.8706 114.775 26.5063 116.431 25.8048 117.941C23.8054 120.805 20.9778 122.927 17.7362 123.996C18.972 130.808 20.3531 137.696 21.8068 144.508C22.4401 142.722 23.4091 141.086 24.6573 139.695C25.9055 138.305 27.4077 137.187 29.0758 136.409C29.3536 136.294 29.6597 136.276 29.9481 136.358C30.2364 136.44 30.4915 136.617 30.675 136.863C31.35 138.162 31.7628 139.59 31.8878 141.061C32.0128 142.532 31.8474 144.014 31.4018 145.416C30.8093 147.162 29.8489 148.748 28.5911 150.058C27.3334 151.368 25.8101 152.368 24.1329 152.985H23.6968C25.3686 161.083 27.0405 169.106 28.3489 176.978C29.2818 174.815 30.7113 172.925 32.5113 171.473C34.3113 170.021 36.4266 169.052 38.6708 168.652C38.9682 168.595 39.2756 168.646 39.5406 168.798C39.8057 168.95 40.012 169.192 40.1246 169.485C40.4883 171.052 40.5208 172.682 40.2196 174.264C39.9183 175.845 39.2907 177.339 38.38 178.643C36.195 181.322 33.0908 183.006 29.73 183.336H29.3666C30.5899 190.975 31.3666 198.684 31.6926 206.421C31.6926 208.237 29.0758 208.616 29.0031 206.875L28.4216 206.951Z" fill="#5EAD41"/>
</svg>
