<svg width="65" height="86" viewBox="0 0 65 86" fill="none" xmlns="http://www.w3.org/2000/svg">
<path fill-rule="evenodd" clip-rule="evenodd" d="M56.4925 0.415927C44.9948 6.62632 41.1797 18.9648 38.1697 30.8579C38.1922 31.0224 38.211 31.1596 38.0416 31.3504C38.0307 31.4528 38.0449 31.5563 38.0828 31.652C36.9365 34.2297 36.1436 36.9505 35.7255 39.7404C31.9946 28.6021 27.7889 17.6683 18.3455 10.1051C18.2087 9.98887 18.0416 9.91416 17.8638 9.88981C17.686 9.86546 17.505 9.89245 17.3421 9.96759C17.1791 10.0427 17.041 10.1629 16.9441 10.3139C16.8472 10.465 16.7955 10.6406 16.7951 10.82C16.6266 24.0842 25.7929 33.5012 34.8665 42.0369C34.9354 42.1098 35.0182 42.1681 35.1101 42.2083C35.202 42.2486 35.3011 42.2699 35.4014 42.271C35.1109 46.1359 35.1468 50.0184 35.5088 53.8772C35.5914 54.4805 35.6739 55.0838 35.7565 55.687L35.3451 55.7433C26.7878 44.1524 15.4115 34.9396 2.29495 28.9784C2.11176 28.8891 1.90452 28.8617 1.70443 28.9003C1.50435 28.939 1.32223 29.0415 1.18541 29.1925C1.04859 29.3435 0.964482 29.5348 0.945731 29.7377C0.92698 29.9406 0.974594 30.1441 1.08143 30.3176C7.94652 42.3122 21.1163 56.4891 35.8309 57.6603L35.6664 57.6828C36.4373 64.4103 37.7036 71.0716 39.4549 77.6128L39.2904 77.6353L38.879 77.6916C30.3253 66.1072 18.96 56.8943 5.85624 50.9229C5.67198 50.843 5.46742 50.8223 5.27091 50.8637C5.0744 50.9052 4.89566 51.0067 4.75937 51.1542C4.62308 51.3017 4.53597 51.4879 4.51016 51.6871C4.48435 51.8862 4.52108 52.0885 4.61527 52.2659C11.5078 64.2567 24.6502 78.4373 39.3648 79.6085C39.5597 79.658 39.7662 79.6297 39.9407 79.5297C40.465 81.3203 41.0293 83.1985 41.6335 85.1644C41.7168 85.3901 41.8835 85.5754 42.0992 85.682C42.3149 85.7886 42.5632 85.8086 42.7932 85.7378C43.0231 85.6669 43.2172 85.5108 43.3356 85.3013C43.4539 85.0918 43.4876 84.8449 43.4295 84.6114C42.3722 81.3759 41.4483 78.0943 40.6303 74.7702C50.6199 66.1123 63.5584 51.2405 64.396 37.3539C64.4679 36.4502 63.326 36.2713 62.779 36.7651C52.372 45.8433 41.7087 55.9062 39.3716 69.8582C38.4306 65.4324 37.7345 60.958 37.2863 56.4555C36.9674 54.1246 36.8679 51.7638 36.7683 49.403C47.2935 42.8228 58.1923 35.2976 60.5474 22.2929C60.5821 22.1133 60.5638 21.9275 60.4946 21.7581C60.4255 21.5888 60.3085 21.4433 60.1579 21.3394C60.0074 21.2356 59.8298 21.1779 59.647 21.1733C59.4641 21.1687 59.2839 21.2175 59.1284 21.3137C48.7036 26.7907 42.3756 36.484 36.6523 46.5136C36.6126 41.2831 37.8214 36.1187 40.1782 31.4491C48.101 22.7947 55.6932 13.7665 57.6661 1.84766C57.7804 1.67503 57.8364 1.47033 57.8258 1.26357C57.8153 1.05681 57.7388 0.858838 57.6076 0.698729C57.4763 0.53862 57.2972 0.42475 57.0965 0.373854C56.8959 0.322957 56.6842 0.337724 56.4925 0.415927V0.415927Z" fill="#5EAD41"/>
</svg>
