<svg viewBox="0 0 61 138" fill="none" xmlns="http://www.w3.org/2000/svg">
<path fill-rule="evenodd" clip-rule="evenodd" d="M40.2135 145.474C43.8088 141.783 48.1595 136.47 51.8152 132.449L58.311 125.035L55.8335 126.446C54.2927 127.316 52.1475 128.607 49.7909 130.138C44.77 133.348 40.084 137.048 35.8024 141.183C34.3693 142.619 33.0272 144.143 31.784 145.745C31.4215 141.933 31.1193 138.091 30.9078 134.28C31.3456 134.333 31.7894 134.249 32.1768 134.039C34.7557 132.383 37.0765 130.361 39.0653 128.037C42.6607 124.345 47.0114 119.033 50.6671 114.981L57.1629 107.598C57.1629 107.598 56.1961 108.108 54.6553 109.008C53.1144 109.909 50.9995 111.169 48.6127 112.7C43.5862 115.903 38.8994 119.603 34.624 123.745C33.1902 125.19 31.8386 126.713 30.5755 128.307C30.364 123.295 30.2432 118.282 30.2734 113.3C31.4819 113.51 33.8385 112.64 39.4883 108.888C47.0672 103.384 54.2549 97.3673 61 90.8803C52.4196 94.5772 44.1019 98.8488 36.1044 103.666C34.083 104.951 32.1547 106.375 30.3338 107.928V106.847C30.4418 106.617 30.4978 106.366 30.4978 106.112C30.4978 105.858 30.4418 105.607 30.3338 105.377C30.3338 103.786 30.3338 102.195 30.4849 100.605C30.6359 99.0139 30.4848 97.6033 30.7265 96.1327C30.985 96.3846 31.3168 96.5491 31.6748 96.603C32.0327 96.6569 32.3987 96.5973 32.7206 96.4327C35.2127 95.132 37.4693 93.4279 39.3976 91.3905C42.9024 88.2091 47.1926 83.6471 50.7578 79.9855L57.1025 73.5026L54.7156 74.583C53.2352 75.2733 51.1505 76.3238 48.8846 77.5844C44.0154 80.1841 39.4463 83.304 35.2585 86.8885C33.742 88.2223 32.3281 89.667 31.0287 91.2104C31.3006 87.4288 31.633 83.6771 32.0258 79.9254C33.1739 80.1655 35.2887 79.2651 40.4854 75.0633C47.0332 69.2761 53.1521 63.0272 58.7944 56.365C51.0606 60.4748 43.6387 65.1392 36.5879 70.3212C34.9564 71.6718 33.5666 72.7523 32.7509 73.6827V73.1724C32.9578 72.9563 33.1054 72.6911 33.1795 72.402C33.2536 72.113 33.2516 71.8098 33.1738 71.5217C33.1375 71.338 33.0871 71.1574 33.0228 70.9815C33.3551 68.5804 33.6874 66.1793 34.05 63.8083C35.1377 64.1384 37.0713 63.3581 41.573 59.0962C47.0877 53.5068 52.1396 47.4846 56.6795 41.0882C49.9278 45.1244 43.5123 49.691 37.4943 54.7443C36.6786 55.5246 35.9534 56.1849 35.3491 56.8152C35.9836 53.4838 36.6181 50.1523 37.3432 46.8508C38.4309 47.4811 40.153 46.8508 45.5007 41.5385C51.1002 35.2634 56.2205 28.5819 60.8187 21.5496C53.8516 26.2779 47.2562 31.5252 41.0897 37.2465C40.2437 38.0869 39.5487 38.8672 38.9445 39.5275C39.3675 37.6667 39.7904 35.7759 40.2436 33.9151C41.3917 33.9151 42.7815 32.1743 45.3496 25.4213C48.0395 17.1058 50.1295 8.61056 51.6037 0C47.0061 7.44825 42.9667 15.2227 39.5185 23.2603C39.0955 24.3708 38.7632 25.3312 38.4611 26.2616C35.9495 19.6044 32.919 13.1521 29.3972 6.96311C29.8662 14.3381 30.9782 21.6587 32.7206 28.8428C34.8355 35.956 36.1347 36.4962 37.5245 36.1661C36.5274 39.9477 35.6211 43.7294 34.8053 47.5711C34.3823 46.6407 33.8385 45.5903 33.1436 44.3597C30.5953 40.2136 27.4957 36.4278 23.9286 33.1047C22.2669 31.514 20.7261 30.1033 19.6082 29.263C18.4903 28.4226 17.7954 27.8224 17.7954 27.8224C17.7954 27.8224 18.2184 28.6027 18.8529 29.8633L21.4512 34.9055C23.4755 38.8972 25.7716 43.9095 27.7959 47.391C28.8343 49.6264 30.2669 51.6593 32.0258 53.3937C32.2434 53.567 32.4988 53.6871 32.7717 53.7445C33.0446 53.8018 33.3272 53.7948 33.5968 53.7239C33.204 55.9148 32.8113 58.1058 32.4487 60.2968C32.259 60.5751 32.1335 60.8915 32.0813 61.2236C32.029 61.5557 32.0513 61.8951 32.1466 62.2176C31.8444 64.1384 31.5725 66.0593 31.3006 67.9802C30.787 67.1698 30.1827 66.2394 29.4274 65.1289C27.0104 61.5873 23.3848 57.1153 20.7563 53.3337C19.3967 51.4428 18.1882 49.7621 17.3422 48.5315L15.9524 46.5506C15.9524 46.5506 16.1337 47.4511 16.466 48.9217C16.7984 50.3924 17.312 52.4333 18.0069 54.7143C19.4726 59.5791 21.5969 64.2237 24.3214 68.5204C25.6001 70.9047 27.4208 72.96 29.6389 74.523C29.9065 74.6467 30.1919 74.7277 30.4849 74.7631L30.213 76.9541C29.9794 77.4084 29.9254 77.933 30.0619 78.4247C29.8201 80.9158 29.5785 83.377 29.367 85.8681L29.0649 85.5079C28.2491 84.5475 27.0708 83.3769 25.5299 81.8163C23.989 80.2556 22.1763 78.4548 20.3938 76.5639C18.6112 74.6731 16.7681 72.6922 15.2273 70.8314C13.6864 68.9706 12.3873 67.2598 11.4809 65.9692L10.0306 63.9284C10.0306 63.9284 10.2119 64.8588 10.6047 66.3895C11.1354 68.4283 11.7914 70.4329 12.5686 72.3921C13.5899 74.9213 14.8229 77.3609 16.2546 79.6853C17.6339 81.9708 19.2543 84.1038 21.0886 86.0481C22.3865 87.3999 23.802 88.6353 25.3185 89.7398C26.1036 90.3222 26.982 90.7687 27.9168 91.0604C28.2636 91.1494 28.6274 91.1494 28.9742 91.0604C28.7325 94.3619 28.5512 97.6633 28.4002 100.935V103.006C27.6449 102.135 26.678 101.115 25.3789 99.8543C22.3576 96.8529 17.8256 93.3113 14.2 90.34L7.76466 85.0877L8.88262 87.2187C9.60773 88.5393 10.635 90.22 11.9039 92.351C14.4734 96.6704 17.513 100.696 20.9678 104.356C22.7007 106.339 24.8443 107.926 27.2521 109.008C27.5415 109.063 27.8388 109.063 28.1283 109.008C28.1283 113.75 27.9772 118.523 28.1283 123.295C27.0708 122.154 25.5602 120.683 23.4151 118.763C19.4874 115.191 13.9886 110.869 9.57746 107.238L1.72207 100.755C1.72207 100.755 2.29615 101.715 3.26296 103.246C4.22978 104.776 5.61956 106.937 7.31149 109.248C10.8471 114.3 14.8969 118.977 19.3967 123.205C21.6199 125.542 24.2637 127.446 27.1917 128.817C27.5786 128.912 27.983 128.912 28.3699 128.817C28.3699 133.019 28.7023 137.221 29.0045 141.393C27.1915 139.766 25.2956 138.234 23.3244 136.801C19.0342 133.619 13.1426 129.837 8.3992 126.626L0 120.924C0 120.924 0.634432 121.824 1.75231 123.295C2.87019 124.765 4.47154 126.716 6.34474 128.907C10.3135 133.609 14.7579 137.893 19.6082 141.693C22.053 143.8 24.8702 145.439 27.9168 146.525C28.151 146.623 28.4027 146.674 28.657 146.674C28.9112 146.674 29.1629 146.623 29.3972 146.525C30.3409 157.51 31.9146 168.432 34.1104 179.239C34.3521 180.53 36.2858 180.05 36.0743 178.759C34.5636 169.755 33.2946 160.751 32.3278 151.747C32.6733 151.715 33.0106 151.623 33.3249 151.477C35.9105 149.83 38.2325 147.806 40.2135 145.474Z" fill="#5EAD41"/>
</svg>
