<svg viewBox="0 0 23 71" fill="none" xmlns="http://www.w3.org/2000/svg">
<path fill-rule="evenodd" clip-rule="evenodd" d="M4.58675 6.39414C3.986 6.49427 3.23507 6.76124 3.20169 7.51217C3.20425 7.75422 3.28302 7.98932 3.42681 8.18404C3.5706 8.37876 3.7721 8.52324 4.00268 8.59689C4.50747 8.71619 5.03313 8.71619 5.53792 8.59689C7.06313 8.33017 8.53792 7.82916 9.91002 7.11169C11.0808 6.47904 12.1542 5.68099 13.0973 4.7421C13.0973 6.56103 12.9972 8.36327 12.9305 10.1655C10.0936 10.833 7.22336 11.684 4.58675 12.3682C4.01938 12.5351 3.3185 12.8688 3.38525 13.6198C3.40678 13.8565 3.50211 14.0806 3.65781 14.2602C3.81351 14.4399 4.02169 14.5661 4.25298 14.621C4.74303 14.694 5.24285 14.6656 5.72148 14.5376C7.14856 14.1699 8.51854 13.6084 9.79322 12.8689C10.9347 12.1937 11.9932 11.3872 12.9471 10.4659C12.9471 11.8509 12.8136 13.236 12.7302 14.621C9.9552 15.8712 7.08052 16.8871 4.13618 17.6581C3.51875 17.825 2.76782 18.1588 2.78451 18.893C2.80283 19.1371 2.89843 19.3689 3.05747 19.555C3.21651 19.741 3.43069 19.8715 3.66894 19.9276C4.22612 20.01 4.79434 19.9759 5.33768 19.8275C6.91831 19.4195 8.41893 18.7482 9.77654 17.8417C10.8949 17.0859 11.8958 16.1694 12.7469 15.1217C12.6468 16.7237 12.5299 18.3256 12.3964 19.9276C9.74527 21.2508 6.94365 22.2482 4.05274 22.898C3.45199 23.0315 2.70106 23.3152 2.66768 24.0661C2.67335 24.3102 2.75761 24.5459 2.90793 24.7383C3.05824 24.9307 3.26659 25.0696 3.50205 25.1341C4.05106 25.261 4.62179 25.261 5.17079 25.1341C8.09239 24.5334 10.6926 22.8829 12.4799 20.495C12.3631 21.8967 12.2296 23.3152 12.0627 24.7336C12.07 24.8392 12.07 24.9451 12.0627 25.0507C9.02378 26.4233 5.91575 27.6376 2.75112 28.6885C2.10032 28.9054 1.316 29.3059 1.36607 30.0402C1.40852 30.2882 1.53103 30.5154 1.71486 30.6872C1.89868 30.859 2.13371 30.9658 2.384 30.9914C2.95035 31.0278 3.51817 30.9483 4.05274 30.7578C7.16777 29.7874 9.93338 27.9321 12.0126 25.4178C11.8458 26.8362 11.6789 28.2713 11.4953 29.6898C10.2271 30.5074 8.94217 31.3585 7.64055 31.9926C6.14756 32.8039 4.60351 33.5173 3.01813 34.1286C2.38401 34.3789 1.63308 34.8128 1.71651 35.5471C1.76222 35.7949 1.89153 36.0195 2.08285 36.1835C2.27417 36.3475 2.51592 36.4409 2.7678 36.4482C3.33971 36.4557 3.90726 36.3479 4.43654 36.1311C6.05403 35.4889 7.5497 34.5745 8.85873 33.4277C9.82035 32.5773 10.6624 31.6006 11.3618 30.5241C11.1115 32.3931 10.8278 34.2454 10.5441 36.1144C9.34265 37.0322 8.09111 37.9334 6.80618 38.7344C5.31836 39.6635 3.76192 40.478 2.15038 41.1707C1.51625 41.4544 0.731957 41.9217 0.832082 42.6559C0.891906 42.903 1.03298 43.1229 1.23269 43.2802C1.43241 43.4376 1.67918 43.5233 1.93343 43.5236C2.23149 43.5154 2.52789 43.4763 2.81786 43.4068C3.11301 43.3246 3.40281 43.2243 3.68562 43.1065C5.33864 42.3727 6.84746 41.3499 8.14115 40.086C8.9996 39.2396 9.74554 38.2861 10.3606 37.2492C10.0769 38.9179 9.79321 40.5866 9.47615 42.2554C7.36662 44.1208 4.97955 45.6465 2.40068 46.7777C1.84999 47.0113 1.1992 47.4118 1.29933 48.1627C1.34809 48.4002 1.47158 48.6158 1.65176 48.7779C1.83194 48.9401 2.0593 49.0403 2.30056 49.0639C2.56611 49.1032 2.83602 49.1032 3.10157 49.0639C3.36027 49.0005 3.61186 48.911 3.8525 48.7969C6.12178 47.8152 8.00028 46.1069 9.19247 43.9408C8.85872 45.6096 8.52498 47.3951 8.15786 49.1139C6.02472 50.9814 3.62263 52.5171 1.03232 53.6696C0.515013 53.9032 -0.102423 54.287 0.0143891 55.0379C0.058909 55.2716 0.17675 55.4849 0.350806 55.647C0.524862 55.809 0.746069 55.9113 0.982262 55.9391C1.23586 55.9874 1.49627 55.9874 1.74987 55.9391C2.00257 55.8811 2.24863 55.7972 2.48412 55.6888C3.8937 55.0704 5.1563 54.1604 6.18873 53.0188C6.88566 52.2063 7.44894 51.2881 7.85747 50.2987C7.5571 51.7839 7.24005 53.2524 6.9063 54.7376C4.72486 56.6232 2.81541 58.8022 1.23256 61.2123C0.898815 61.7129 0.631816 62.4472 1.23256 62.8811C1.41328 63.0328 1.63467 63.1279 1.86911 63.1546C2.10355 63.1813 2.34067 63.1384 2.55088 63.0312C2.94307 62.7751 3.28286 62.4466 3.55211 62.0633C4.80237 60.2942 5.81765 58.3702 6.57253 56.3396L5.92172 59.2098C4.13676 62.1638 2.77726 65.3546 1.88337 68.6882C1.68312 69.3891 1.64976 70.357 2.46744 70.6908C2.73343 70.7911 3.02261 70.813 3.30067 70.7538C3.57872 70.6946 3.83396 70.5569 4.03606 70.357C4.39842 69.9247 4.66055 69.4175 4.80367 68.8718C5.7455 65.8704 6.20732 62.7391 6.17205 59.5936L6.57253 58.1251C6.41746 60.5103 6.52379 62.9053 6.8896 65.2673C6.97303 65.8681 7.2734 66.5857 8.00765 66.5857C8.24415 66.571 8.47164 66.4895 8.66365 66.3507C8.85567 66.2119 9.00434 66.0214 9.09235 65.8014C9.21132 65.3497 9.23968 64.8789 9.17579 64.4163C8.7817 61.6941 7.94162 59.0555 6.68936 56.6066C7.25673 54.3204 7.79073 52.0175 8.3581 49.7147C8.32526 51.142 8.48239 52.5674 8.82534 53.9533C9.22942 55.6242 9.85223 57.2346 10.6776 58.7426C10.9947 59.36 11.6121 60.0108 12.3464 59.7271C12.5601 59.6195 12.7373 59.4513 12.856 59.2436C12.9747 59.0358 13.0296 58.7978 13.0139 58.559C12.9445 58.0567 12.7863 57.5707 12.5466 57.1239L10.5275 53.2691C9.89334 52.0175 9.22586 50.7326 8.47492 49.2307C8.7753 47.7956 9.07565 46.3438 9.34265 44.9087C9.57694 47.7677 10.3588 50.5551 11.6455 53.1189C11.9292 53.7197 12.4799 54.3704 13.1808 54.1368C13.4007 54.0431 13.5888 53.8876 13.7221 53.6892C13.8554 53.4907 13.9282 53.2578 13.9317 53.0188C13.8967 52.5256 13.7664 52.0439 13.5479 51.6003C12.3949 48.9874 11.0449 46.4659 9.50953 44.0577C9.89334 42.0552 10.2438 40.036 10.5608 38.0335C10.4567 39.6082 10.6261 41.1891 11.0615 42.706C11.5287 44.3937 12.267 45.9942 13.2475 47.4452C13.6313 48.0459 14.3322 48.6467 14.9162 48.2796C15.12 48.1522 15.2801 47.9658 15.3755 47.7453C15.4709 47.5247 15.497 47.2804 15.4503 47.0447C15.3355 46.5584 15.1379 46.0956 14.8662 45.6763C14.0485 44.3413 13.381 43.1231 12.6801 41.8549C11.9793 40.5867 11.2951 39.2851 10.5441 37.6998C10.6443 37.099 10.7444 36.4982 10.8278 35.8975C10.8736 35.8174 10.9127 35.7337 10.9447 35.6472C10.9173 35.6542 10.8886 35.6542 10.8612 35.6472L11.3618 32.3097C11.3908 34.0175 11.7009 35.7089 12.2797 37.3159C12.9468 39.1687 13.9044 40.9036 15.1165 42.4556C15.6004 43.0897 16.4181 43.7239 17.0522 43.3401C17.2509 43.1841 17.3961 42.9702 17.4679 42.7281C17.5396 42.4859 17.5344 42.2274 17.4528 41.9884C17.2458 41.4685 16.9768 40.9754 16.6517 40.5199C15.6171 39.0681 14.7661 37.7331 13.915 36.3314C13.064 34.9296 12.2463 33.5446 11.4286 31.8091L11.729 29.5062L11.8291 29.3393H11.7456L12.046 26.8696C12.2828 28.2854 12.7152 29.6614 13.3309 30.958C14.2237 32.8244 15.4382 34.5191 16.9188 35.9642C17.5195 36.5483 18.454 37.099 19.0214 36.615C19.1936 36.4289 19.3024 36.1931 19.3324 35.9413C19.3624 35.6895 19.3119 35.4347 19.1882 35.2133C19.0628 34.9505 18.9059 34.7039 18.721 34.479C18.5432 34.2525 18.3538 34.0353 18.1536 33.8283C16.963 32.5662 15.8485 31.2344 14.8161 29.8399C13.8408 28.5313 12.9436 27.1661 12.1294 25.7516C12.1294 25.4512 12.1295 25.1341 12.2463 24.8337C12.3798 23.5989 12.5133 22.3807 12.6301 21.1458C12.9423 22.7535 13.5054 24.3021 14.2988 25.7349C15.1855 27.3365 16.3109 28.7939 17.6363 30.0569C18.187 30.5742 19.0214 31.0415 19.5887 30.5408C19.7625 30.367 19.877 30.1428 19.9159 29.9001C19.9549 29.6574 19.9163 29.4086 19.8056 29.1892C19.5626 28.7206 19.2409 28.2972 18.8545 27.9376C17.7031 26.7361 16.7018 25.6347 15.6839 24.5C14.6659 23.3653 13.6814 22.2305 12.5633 20.8287C12.6968 19.5828 12.8136 18.3312 12.9138 17.0741C14.3084 19.6974 16.2693 21.9774 18.6543 23.749C19.1382 24.1162 19.8891 24.4166 20.323 23.8826C20.4814 23.7098 20.585 23.4938 20.6206 23.2621C20.6563 23.0304 20.6224 22.7933 20.5232 22.5809C20.3026 22.1789 20.0016 21.8268 19.6388 21.5463C17.5205 19.8193 15.2533 18.2836 12.8637 16.9573C12.9972 15.2885 13.1307 13.7533 13.2475 12.1513C14.7032 14.7525 16.8147 16.9273 19.3718 18.4592C19.9225 18.7929 20.7235 19.0265 21.174 18.4592C21.3046 18.2641 21.3743 18.0347 21.3743 17.8C21.3743 17.5653 21.3046 17.3359 21.174 17.1408C20.9028 16.7579 20.5565 16.4343 20.1561 16.1896C18.9379 15.372 17.8532 14.6544 16.7018 13.9368L13.2308 11.8176C13.3309 10.299 13.4311 8.78046 13.4978 7.24522C14.1224 8.40114 14.9217 9.45371 15.8674 10.3658C17.0459 11.4795 18.3988 12.3927 19.8724 13.0691C20.4565 13.3528 21.3075 13.4696 21.658 12.8188C21.7633 12.6091 21.8066 12.3737 21.783 12.1402C21.7594 11.9067 21.6697 11.6848 21.5245 11.5005C21.208 11.1656 20.8352 10.8889 20.4231 10.6828C19.1382 10.032 18.0368 9.39788 16.8853 8.74707C15.7339 8.09627 14.7494 7.54558 13.5479 6.76127C13.5479 5.09253 13.6814 3.42378 13.7148 1.75504C14.4006 3.06014 15.3099 4.23489 16.4014 5.226C17.5424 6.24748 18.8306 7.09132 20.2228 7.72911C20.7735 7.99611 21.5745 8.11292 21.8916 7.46211C21.9954 7.25292 22.0394 7.01914 22.0188 6.78653C21.9982 6.55391 21.9138 6.33153 21.7748 6.14384C21.4846 5.8172 21.1331 5.55072 20.7402 5.35953L13.6647 1.70498C13.6647 0.586926 13.6647 -0.531133 13.6647 -1.6325C14.1699 -0.394026 14.9654 0.704818 15.9843 1.57145C17.2401 2.66382 18.7582 3.41137 20.3897 3.74085C20.7284 3.83307 21.0856 3.83307 21.4243 3.74085C21.5882 3.7038 21.7375 3.61903 21.8533 3.49727C21.9691 3.37551 22.0463 3.22221 22.0752 3.05666C22.1112 2.82887 22.0853 2.59557 22.0002 2.38123C21.915 2.16689 21.7738 1.97939 21.5912 1.83846C21.4159 1.70978 21.2253 1.60328 21.0238 1.52139L20.4231 1.32115C19.2123 0.975752 18.0385 0.511845 16.9188 -0.06388C15.7635 -0.62921 14.6725 -1.31738 13.6647 -2.11645C13.6647 -3.48482 13.6647 -4.85317 13.6647 -6.22154C14.9601 -4.29963 16.8031 -2.81129 18.9546 -1.94957C19.0772 -1.87753 19.2133 -1.83154 19.3545 -1.81446C19.4956 -1.79738 19.6388 -1.8096 19.775 -1.85031C19.9113 -1.89102 20.0376 -1.95938 20.1462 -2.05111C20.2549 -2.14284 20.3435 -2.25597 20.4064 -2.38346C20.5024 -2.58108 20.5522 -2.7979 20.5522 -3.01759C20.5522 -3.23727 20.5024 -3.45405 20.4064 -3.65167C20.1769 -3.93858 19.8784 -4.16254 19.5387 -4.3025C18.5374 -4.78643 17.6363 -5.18693 16.6684 -5.55406C15.7006 -5.92118 14.8161 -6.20484 13.7148 -6.57196C13.7148 -8.95826 13.5646 -11.3446 13.4311 -13.7309C13.4311 -14.098 12.7636 -14.0813 12.7803 -13.7309C12.7803 -10.9608 12.7803 -8.19066 12.7803 -5.38717C10.5441 -5.40751 8.31276 -5.59717 6.10529 -5.95454C5.84397 -6.0314 5.56331 -6.00713 5.31907 -5.88655C5.07482 -5.76597 4.88488 -5.55795 4.78699 -5.30375C4.70136 -5.09201 4.67786 -4.86023 4.71923 -4.63561C4.76061 -4.41098 4.86516 -4.20282 5.02061 -4.03549C5.35545 -3.77001 5.7512 -3.59221 6.17205 -3.51819C7.4098 -3.31482 8.676 -3.36592 9.89334 -3.66837C10.9421 -3.93402 11.9324 -4.39237 12.8136 -5.02005C12.8136 -3.46812 12.8136 -1.91622 12.8136 -0.364292C10.3272 -0.364292 7.80742 -0.364264 5.47118 -0.230764C5.18062 -0.265305 4.88778 -0.187905 4.65222 -0.014329C4.41665 0.159246 4.25601 0.415973 4.20292 0.703727C4.17769 0.932124 4.21759 1.16299 4.31799 1.36969C4.41838 1.57638 4.5752 1.75049 4.77031 1.87187C5.16506 2.0613 5.60143 2.14742 6.03855 2.12217C8.44605 2.07999 10.7934 1.36303 12.8136 0.0528936C12.8136 1.5047 12.8136 2.97323 12.8136 4.42504C10.2438 5.15929 7.32349 5.9269 4.58675 6.39414Z" fill="#5EAD41"/>
</svg>
