<svg width="95" height="63" viewBox="0 0 95 63" fill="none" xmlns="http://www.w3.org/2000/svg">
<path fill-rule="evenodd" clip-rule="evenodd" d="M30.7941 41.0672L26.9833 34.716L23.765 29.3675L10.0895 37.5813L12.1782 41.0672H30.7941ZM62.4358 41.0672H81.0517L56.6496 0.449219L42.9876 8.66297L62.4358 41.0672ZM55.9302 47.4325C54.6171 46.5862 53.0784 46.0919 51.4129 46.0919H51.3708C46.7704 46.1199 43.0302 49.8741 43.0302 54.4751C43.0302 59.0765 46.7704 62.8302 51.3708 62.8588H51.4129C53.0784 62.8588 54.6171 62.3649 55.9302 61.5181V62.393H59.7826V41.0677H55.9302V47.4325ZM55.9302 55.3504C55.5211 57.4677 53.6435 59.0901 51.4129 59.0901H51.3708C48.8445 59.062 46.7984 57.0014 46.7984 54.4751C46.7984 51.9492 48.8445 49.8886 51.3708 49.8741H51.4129C53.6435 49.8741 55.5206 51.4834 55.9302 53.6002V55.3504ZM74.0232 47.4325C72.6801 46.556 71.1107 46.0901 69.5069 46.0919H69.4638C64.8634 46.1199 61.1237 49.8741 61.1237 54.4751C61.1237 59.0765 64.8634 62.8302 69.4638 62.8588H69.5069C71.1725 62.8588 72.7247 62.3649 74.0232 61.5181V62.393H77.8766V46.515H74.0232V47.4325ZM74.0232 55.3504C73.6141 57.4677 71.7365 59.0901 69.5069 59.0901H69.4638C66.9385 59.062 64.892 57.0014 64.892 54.4751C64.892 51.9492 66.9385 49.8886 69.4638 49.8741H69.5069C71.7365 49.8741 73.6136 51.4834 74.0232 53.6002V55.3504ZM91.5802 53.4307C91.4394 53.3595 91.2413 53.2893 91.0152 53.2046C90.1544 52.9083 88.7571 52.5413 86.8093 52.1182C85.1017 51.7366 84.2409 51.2433 84.2409 50.6221C84.2409 50.1844 84.3958 49.8315 84.6921 49.5778C85.0876 49.2389 85.7926 49.0694 86.8093 49.0694C87.8396 49.0694 88.5876 49.2955 89.0253 49.7327C89.2935 50.0009 89.4906 50.4802 89.6179 51.1581H93.711C93.711 49.1541 92.8923 47.7147 91.2834 46.8399C91.1987 46.7845 91.1089 46.7374 91.0152 46.699C89.8997 46.1766 88.4182 45.9084 86.5697 45.9084C84.3251 45.9084 82.632 46.5015 81.5034 47.7007C80.6005 48.6603 80.1628 49.8315 80.1628 51.2147C80.1628 52.9374 81.0091 54.1787 82.7313 54.9834C83.3805 55.2938 84.9608 55.7315 87.4736 56.2679C89.1532 56.6349 89.999 57.1573 89.999 57.8206C89.999 58.2162 89.8305 58.5546 89.4635 58.865C88.9973 59.26 88.2913 59.458 87.3463 59.458C86.0899 59.458 85.201 59.2465 84.679 58.8374C84.1561 58.4423 83.8879 57.8637 83.8879 57.1297H79.5978C79.5978 59.0775 80.4165 60.531 82.0675 61.4901C83.3805 62.2381 85.1022 62.6196 87.234 62.6196C88.6588 62.6196 89.9288 62.3795 91.0157 61.9142C91.2418 61.8154 91.4398 61.7162 91.6514 61.6034C93.331 60.6723 94.1778 59.1903 94.1778 57.1583C94.1773 55.4913 93.3154 54.2489 91.5802 53.4307ZM13.2791 47.4325C11.9301 46.5578 10.3567 46.0922 8.74886 46.0919H8.70626C4.11984 46.1199 0.3797 49.8741 0.3797 54.4751C0.3797 59.0765 4.11984 62.8302 8.70626 62.8588H8.74886C10.4144 62.8588 11.9666 62.3649 13.2791 61.5181V62.393H17.1321V46.515H13.2791V47.4325ZM13.2791 55.3504C12.87 57.4677 10.9924 59.0901 8.74886 59.0901H8.70626C6.19446 59.062 4.14791 57.0014 4.14791 54.4751C4.14791 51.9492 6.19446 49.8886 8.70626 49.8741H8.74886C10.9929 49.8741 12.87 51.4834 13.2791 53.6002V55.3504ZM37.3283 44.8359H41.5201V41.152H37.3283V44.8359ZM37.3283 62.3925H41.5201V46.0919H37.3283V62.3925ZM31.5562 47.4325C30.2069 46.5577 28.6334 46.0921 27.0254 46.0919H26.9833C22.3823 46.1199 18.6422 49.8741 18.6422 54.4751C18.6422 59.0765 22.3818 62.8302 26.9833 62.8588H27.0254C28.6334 62.8587 30.207 62.3931 31.5562 61.5181V62.393H35.4091V41.0677H31.5562V47.4325ZM31.5562 55.3504C31.1471 57.4677 29.2695 59.0901 27.0254 59.0901H26.9833C24.4569 59.062 22.4104 57.0014 22.4104 54.4751C22.4104 51.9492 24.4569 49.8886 26.9833 49.8741H27.0254C29.2695 49.8741 31.1465 51.4834 31.5562 53.6002V55.3504ZM55.9151 41.0672L51.3708 33.4747L40.2076 14.9014L26.9833 22.8614L26.5315 23.1292L26.9833 23.8772L37.3138 41.0672H55.9151Z" fill="white"/>
</svg>
