<svg viewBox="0 0 224 103" fill="none" xmlns="http://www.w3.org/2000/svg">
<path d="M84.202 82H80.44V75.488H74.368V82H70.606V66.424H74.368V72.32H80.44V66.424H84.202V82ZM97.0648 72.276C98.2381 73.332 98.8248 74.7327 98.8248 76.478C98.8248 78.2233 98.2381 79.6387 97.0648 80.724C95.8914 81.8093 94.4468 82.352 92.7308 82.352C91.0294 82.352 89.5921 81.8093 88.4188 80.724C87.2454 79.6387 86.6588 78.2233 86.6588 76.478C86.6588 74.7327 87.2454 73.332 88.4188 72.276C89.5921 71.22 91.0294 70.692 92.7308 70.692C94.4468 70.692 95.8914 71.22 97.0648 72.276ZM95.3488 76.478C95.3488 75.73 95.1141 75.0773 94.6448 74.52C94.1754 73.9627 93.5374 73.684 92.7308 73.684C91.9241 73.684 91.2934 73.9627 90.8388 74.52C90.3841 75.0627 90.1568 75.7153 90.1568 76.478C90.1568 77.2407 90.3841 77.908 90.8388 78.48C91.3081 79.0373 91.9461 79.316 92.7528 79.316C93.5594 79.316 94.1901 79.0373 94.6448 78.48C95.1141 77.908 95.3488 77.2407 95.3488 76.478ZM114.045 82H109.645L106.279 75.818H105.003V82H101.307V66.424H107.247C108.039 66.424 108.773 66.5047 109.447 66.666C110.122 66.8273 110.753 67.084 111.339 67.436C111.926 67.788 112.381 68.2793 112.703 68.91C113.041 69.5407 113.209 70.2813 113.209 71.132C113.209 72.1587 112.923 73.0387 112.351 73.772C111.779 74.5053 110.987 75.026 109.975 75.334L114.045 82ZM109.491 71.198C109.491 70.0393 108.655 69.46 106.983 69.46H104.981V73.09H106.763C108.582 73.09 109.491 72.4593 109.491 71.198ZM118.343 75.268H122.985C122.985 74.6667 122.795 74.168 122.413 73.772C122.047 73.376 121.519 73.178 120.829 73.178C120.155 73.178 119.583 73.3833 119.113 73.794C118.644 74.2047 118.387 74.696 118.343 75.268ZM126.307 76.654C126.307 77.05 126.3 77.336 126.285 77.512H118.343C118.402 78.0987 118.688 78.59 119.201 78.986C119.715 79.382 120.301 79.58 120.961 79.58C122.017 79.58 122.824 79.1987 123.381 78.436L125.889 80.02C124.819 81.5747 123.161 82.352 120.917 82.352C119.201 82.352 117.764 81.8387 116.605 80.812C115.461 79.7707 114.889 78.3553 114.889 76.566C114.889 74.806 115.447 73.3907 116.561 72.32C117.691 71.2347 119.106 70.692 120.807 70.692C122.45 70.692 123.777 71.2273 124.789 72.298C125.801 73.354 126.307 74.806 126.307 76.654ZM142.449 79.844C140.967 81.56 138.951 82.418 136.399 82.418C133.979 82.418 131.977 81.6553 130.393 80.13C128.809 78.59 128.017 76.61 128.017 74.19C128.017 71.7407 128.816 69.768 130.415 68.272C132.028 66.7613 134.045 66.006 136.465 66.006C137.594 66.006 138.687 66.2113 139.743 66.622C140.813 67.018 141.664 67.5753 142.295 68.294L139.743 70.846C139.405 70.3767 138.951 70.0247 138.379 69.79C137.821 69.5407 137.227 69.416 136.597 69.416C135.291 69.416 134.213 69.8707 133.363 70.78C132.527 71.6747 132.109 72.8113 132.109 74.19C132.109 75.598 132.519 76.7493 133.341 77.644C134.162 78.524 135.225 78.964 136.531 78.964C137.983 78.964 139.083 78.436 139.831 77.38L142.449 79.844ZM149.944 77.6V77.226H149.482C147.238 77.226 146.116 77.7247 146.116 78.722C146.116 79.1033 146.27 79.3893 146.578 79.58C146.886 79.756 147.253 79.844 147.678 79.844C148.397 79.844 148.954 79.646 149.35 79.25C149.746 78.8393 149.944 78.2893 149.944 77.6ZM145.148 74.498L143.322 72.54C144.628 71.308 146.256 70.692 148.206 70.692C150.01 70.692 151.301 71.154 152.078 72.078C152.856 72.9873 153.244 74.454 153.244 76.478V82H149.944V80.834H149.878C149.614 81.274 149.196 81.626 148.624 81.89C148.052 82.1393 147.436 82.264 146.776 82.264C146.131 82.264 145.522 82.1687 144.95 81.978C144.393 81.7727 143.894 81.3987 143.454 80.856C143.014 80.3133 142.794 79.6387 142.794 78.832C142.794 76.368 145.141 75.136 149.834 75.136V74.96C149.834 74.4467 149.651 74.058 149.284 73.794C148.918 73.5153 148.441 73.376 147.854 73.376C146.857 73.376 145.955 73.75 145.148 74.498Z" fill="#DC0030"/>
<path d="M7.97061 65.6363C7.79612 65.2937 8.05754 64.8905 8.44155 64.9101L15.141 65.2506C15.2867 65.2581 15.4284 65.2014 15.5289 65.0956L20.268 60.105C20.5429 59.8155 21.0295 59.949 21.1181 60.3383L22.6066 66.8761C22.6405 67.0247 22.7402 67.1498 22.8776 67.2158L28.8223 70.0725C29.174 70.2415 29.2052 70.7303 28.8778 70.9426L23.1012 74.689C22.982 74.7663 22.9013 74.8908 22.8793 75.0312L21.8155 81.8336C21.7552 82.2191 21.2962 82.39 20.9984 82.1379L15.965 77.8758C15.8487 77.7773 15.6938 77.7373 15.5444 77.767L8.96809 79.0751C8.57655 79.153 8.25613 78.7632 8.40828 78.3942L11.0313 72.0314C11.087 71.8965 11.0809 71.744 11.0146 71.6139L7.97061 65.6363Z" fill="#DC0030"/>
<path d="M34.6779 36.1187C34.6233 35.7381 35.0008 35.4408 35.358 35.5832L41.5892 38.0673C41.7247 38.1213 41.8771 38.1134 42.0064 38.0457L48.1023 34.8511C48.4559 34.6658 48.8734 34.9492 48.8317 35.3463L48.1311 42.0147C48.1151 42.1662 48.1692 42.3168 48.2779 42.4236L52.9829 47.0456C53.2613 47.3191 53.133 47.7918 52.7546 47.8872L46.0783 49.5692C45.9404 49.604 45.8239 49.6957 45.7578 49.8216L42.556 55.9168C42.3745 56.2623 41.8849 56.276 41.6844 55.9412L38.2955 50.283C38.2172 50.1523 38.0835 50.0644 37.9324 50.0443L31.2858 49.1605C30.8901 49.1079 30.7126 48.6356 30.9757 48.3354L35.5115 43.1593C35.6076 43.0495 35.6511 42.9032 35.6304 42.7588L34.6779 36.1187Z" fill="#DC0030"/>
<path d="M69.6595 16.6967C69.7314 16.319 70.1849 16.1604 70.4766 16.411L75.5642 20.7829C75.6749 20.8781 75.8216 20.9201 75.9659 20.8979L82.7686 19.8549C83.1632 19.7943 83.4661 20.1979 83.2978 20.5599L80.4708 26.6399C80.4065 26.7781 80.4088 26.9381 80.477 27.0744L83.4271 32.9732C83.6016 33.3223 83.3269 33.7278 82.9381 33.6951L76.0772 33.1193C75.9355 33.1074 75.7955 33.1563 75.6921 33.2539L70.6854 37.98C70.4016 38.2479 69.9341 38.1019 69.8531 37.7202L68.484 31.2684C68.4524 31.1193 68.3545 30.9928 68.2181 30.9248L62.2182 27.9316C61.8609 27.7534 61.8463 27.2491 62.1926 27.0505L68.1628 23.6267C68.2894 23.5541 68.378 23.4298 68.4053 23.2865L69.6595 16.6967Z" fill="#DC0030"/>
<path d="M108.673 9.72844C108.864 9.39449 109.344 9.39163 109.539 9.72329L112.932 15.5095C113.006 15.6354 113.131 15.7228 113.275 15.7487L120.048 16.9694C120.441 17.0402 120.596 17.5202 120.32 17.808L115.673 22.6417C115.567 22.7516 115.518 22.9036 115.538 23.0547L116.414 29.5916C116.466 29.9784 116.075 30.2728 115.717 30.1158L109.415 27.3448C109.284 27.2876 109.136 27.2885 109.007 27.3472L102.737 30.193C102.382 30.3543 101.987 30.0645 102.034 29.6772L102.833 23.1303C102.851 22.979 102.8 22.8275 102.693 22.7189L97.9888 17.9409C97.7087 17.6564 97.8585 17.1746 98.2505 17.0991L105.009 15.7978C105.152 15.7703 105.276 15.6814 105.348 15.5547L108.673 9.72844Z" fill="#DC0030"/>
<path d="M148.981 16.0028C149.27 15.7499 149.725 15.9048 149.8 16.2819L151.108 22.8612C151.137 23.0043 151.226 23.1279 151.353 23.1994L157.351 26.5743C157.699 26.77 157.689 27.2745 157.333 27.4556L151.358 30.4977C151.222 30.5668 151.125 30.6941 151.095 30.8435L149.778 37.3062C149.7 37.6886 149.234 37.8384 148.948 37.5728L143.903 32.8878C143.799 32.7911 143.658 32.7433 143.517 32.7563L136.661 33.3883C136.272 33.4241 135.994 33.0208 136.166 32.6704L139.068 26.7476C139.135 26.6107 139.136 26.4508 139.07 26.3131L136.194 20.2564C136.023 19.8958 136.322 19.4898 136.717 19.547L143.528 20.5345C143.673 20.5554 143.819 20.5122 143.929 20.4162L148.981 16.0028Z" fill="#DC0030"/>
<path d="M184.252 34.7595C184.609 34.6146 184.988 34.9092 184.936 35.2901L184.031 41.9368C184.011 42.0815 184.056 42.2274 184.153 42.3365L188.725 47.4802C188.991 47.7786 188.816 48.2521 188.421 48.3076L181.781 49.2386C181.63 49.2597 181.497 49.3486 181.42 49.4799L178.071 55.162C177.873 55.4982 177.383 55.488 177.199 55.1438L173.954 49.0715C173.887 48.9461 173.77 48.8552 173.632 48.8214L166.944 47.1869C166.565 47.0942 166.433 46.6224 166.709 46.347L171.381 41.6916C171.489 41.584 171.542 41.4331 171.525 41.2816L170.777 34.6184C170.733 34.2217 171.148 33.9353 171.503 34.1181L177.622 37.2692C177.751 37.336 177.904 37.3428 178.039 37.2878L184.252 34.7595Z" fill="#DC0030"/>
<path d="M211.865 64.4032C212.249 64.382 212.512 64.784 212.339 65.1274L209.321 71.1181C209.255 71.2484 209.25 71.4009 209.306 71.5356L211.956 77.887C212.11 78.2554 211.791 78.6466 211.399 78.5704L204.817 77.2906C204.668 77.2615 204.513 77.3022 204.397 77.4012L199.382 81.6849C199.086 81.9384 198.626 81.7694 198.564 81.3841L197.471 74.5864C197.448 74.4461 197.367 74.322 197.247 74.2451L191.455 70.5237C191.126 70.3128 191.156 69.8239 191.507 69.6533L197.439 66.771C197.576 66.7044 197.675 66.579 197.708 66.4302L199.169 59.8861C199.256 59.4964 199.742 59.3608 200.018 59.6491L204.778 64.6192C204.879 64.7246 205.021 64.7807 205.167 64.7726L211.865 64.4032Z" fill="#DC0030"/>
</svg>
