<svg width="85" height="63" viewBox="0 0 85 63" fill="none" xmlns="http://www.w3.org/2000/svg">
<path fill-rule="evenodd" clip-rule="evenodd" d="M84.6773 26.1007C83.9045 21.5707 78.1793 21.1319 74.4574 21.8331C70.7351 22.5342 66.1557 24.5506 61.4897 26.7723C59.6993 27.6247 57.6268 28.7481 55.6291 29.8686C54.0649 29.5869 52.5434 29.3734 51.2395 29.3734C48.1197 29.3734 45.4864 30.5137 44.0831 31.0979C42.6808 31.6826 42.2506 32.1788 42.3656 32.4721C42.4801 32.7644 43.2814 32.6175 44.598 32.1498C45.9151 31.6826 47.0321 31.1849 50.0085 30.864C51.0227 30.7543 52.2253 30.8452 53.5543 31.0438C51.1761 32.4006 49.1088 33.6028 48.0633 34.1082C45.8882 35.1601 42.8559 37.0311 37.3588 37.2355C31.8617 37.4399 30.2308 35.0142 28.4276 32.676C26.624 30.3373 24.8781 25.7798 23.1317 22.4767C21.3853 19.174 17.5215 17.1286 17.5215 17.1286C21.8444 16.1057 25.6793 13.2708 26.1374 8.9162C26.5956 4.56114 23.8482 1.25945 18.7241 0.674294C13.5999 0.089624 9.19182 1.93158 6.27171 4.00643C3.3516 6.08128 1.57682 9.82268 2.14948 12.1899C2.72167 14.5575 4.41032 14.9668 5.69905 14.5865C6.98778 14.2063 7.5311 12.7451 7.3593 12.1899C7.1875 11.6347 6.52917 10.8746 5.92811 11.1085C5.32658 11.3423 5.04072 11.1964 5.04072 11.1964C3.55227 9.58881 4.69712 6.28616 7.90357 4.4157C10.7915 2.73078 13.3335 2.49837 16.1518 2.91585C15.0715 3.44495 14.0352 4.06308 13.0533 4.76408C10.7915 6.37168 9.33191 9.52793 8.95944 13.5032C8.58698 17.4785 8.7299 19.3195 8.47244 24.639C8.21545 29.9585 7.95752 33.2892 7.01286 34.4295C6.0682 35.5694 4.20776 36.4744 3.2915 37.0596C2.37524 37.6447 2.51864 38.5498 3.86416 38.2874C5.20921 38.025 6.78474 37.0606 8.27272 36.3295C9.76117 35.5989 11.2785 35.1896 13.7693 35.1601C16.2602 35.1302 16.1736 35.2181 16.317 34.7504C16.4604 34.2826 16.1452 34.1947 15.3151 33.4931C14.4849 32.7915 14.1991 32.3822 14.2563 30.6287C14.2966 29.3869 14.2795 22.7173 14.2663 18.0395C16.105 18.5256 16.777 21.0116 17.318 23.0294C17.8901 25.1633 18.7207 28.6123 20.0663 31.1254C22.4928 35.6598 24.9893 38.9001 29.9416 40.4782C34.894 42.0568 39.188 40.4782 43.3959 38.8421C47.2503 37.3432 52.2779 34.0565 56.2202 31.5371C58.164 31.9541 60.2937 32.489 62.5484 32.9959C67.6148 34.1348 72.0238 34.3991 75.1437 34.0768C78.263 33.7569 85.4502 30.6306 84.6773 26.1007ZM14.5279 16.1668C14.5257 15.2431 14.5244 14.5072 14.5244 14.0748C14.5244 11.5643 14.4977 6.98107 16.0569 5.34651C17.1142 4.23751 17.6157 3.8717 18.2143 3.68493C20.2104 4.49714 20.5546 6.15969 20.7368 8.15089C20.9483 10.4572 19.9705 12.53 18.1736 14.3397C16.9189 15.6032 15.3575 16.0259 14.5279 16.1668ZM71.2862 31.677C67.5422 32.0313 64.0341 31.2907 60.6473 30.7127C59.425 30.5034 58.0538 30.1984 56.6508 29.894C60.9636 27.2435 67.7122 24.6031 71.3756 24.0931C75.2979 23.5474 76.9918 24.8321 76.9324 27.0815C76.8734 29.3309 75.0302 31.3231 71.2862 31.677ZM33.7559 16.1958C34.073 16.3299 33.9237 16.7217 33.9237 17.408V26.1224C33.9237 26.6024 34.1167 26.8767 34.5013 26.6482C34.8854 26.4198 35.7032 25.8023 35.9434 25.8934C36.1841 25.9845 36.7374 26.2144 35.992 27.3577C35.2467 28.501 33.876 30.0568 32.818 30.1711C31.76 30.2853 30.2216 30.1711 29.5725 29.4158C28.9229 28.6605 28.6584 28.0426 28.6584 27.2199V19.7182C28.6584 19.1003 28.5145 19.0781 28.1294 19.0781C27.7443 19.0781 27.0957 19.0545 27.0233 18.6891C26.9508 18.3233 27.0947 18.1628 27.7443 17.9343C28.3939 17.7054 32.0488 16.6079 32.6741 16.4247C33.2989 16.2416 33.5396 16.1047 33.7559 16.1958ZM30.5586 12.9003C30.9235 11.9211 31.0094 11.1715 30.9448 10.6927C30.8805 10.2138 30.4731 10.0054 30.4939 9.81797C30.5152 9.63013 31.245 9.40146 32.0821 9.13066C32.9191 8.85987 33.7128 8.50569 34.2495 8.38103C34.7859 8.25595 35.1078 8.88093 34.3997 10.7137C33.6915 12.5461 32.3398 13.7544 31.6104 14.1709C30.881 14.5874 30.3925 14.761 30.1724 14.4417C30.043 14.2543 30.1936 13.8795 30.5586 12.9003ZM44.702 25.0687C43.6693 26.2222 42.5166 27.3985 40.7162 27.0143C38.9153 26.6301 38.0029 25.1648 38.0029 23.5553V16.0861C38.0029 15.3376 38.0664 15.2533 37.7145 15.1309C36.8785 15.1923 36.3314 15.1175 36.3695 14.8374C36.4662 14.1162 37.0896 14.1642 37.8582 13.4921C38.6269 12.8199 39.7796 11.5945 40.6681 10.2254C41.5562 8.85676 41.9165 7.0073 42.1811 6.23846C42.4452 5.47012 42.637 5.13354 43.0454 5.27779C43.4537 5.42254 43.3814 5.68625 43.3814 6.47888V11.7368C43.4646 11.8706 43.5722 11.9499 43.7183 11.9311C44.2699 11.8587 44.7997 11.6188 45.0871 11.6426C45.3745 11.6664 45.4712 12.0749 45.4712 12.4352C45.4712 12.7629 45.4053 13.1307 43.3814 13.842V22.4028C43.3814 23.076 43.1172 23.5801 43.7897 23.2916C44.4622 23.0031 45.0876 22.4033 45.5192 22.5713C45.9509 22.7389 45.7348 23.9152 44.702 25.0687ZM55.6248 23.5079C54.5919 24.6619 53.4391 25.8382 51.6376 25.4541C49.8371 25.0689 48.9242 23.6036 48.9242 21.9946V14.5258C48.9242 13.7768 48.9881 13.6926 48.6357 13.5701C47.8002 13.6316 47.2535 13.5562 47.2912 13.2767C47.3878 12.5564 48.0113 12.6035 48.78 11.9313C49.5486 11.2592 50.7014 10.0338 51.59 8.66515C52.4787 7.29602 52.838 5.44706 53.1031 4.67822C53.3673 3.90989 53.5591 3.57331 53.9675 3.71755C54.3758 3.8623 54.3035 4.12601 54.3035 4.91913V10.1765C54.3867 10.3104 54.4943 10.3902 54.6405 10.3709C55.1921 10.2985 55.7219 10.0591 56.0094 10.0829C56.2968 10.1071 56.3934 10.5146 56.3934 10.875C56.3934 11.2022 56.3265 11.5705 54.3035 12.2823V20.8431C54.3035 21.5162 54.0393 22.0203 54.7119 21.7323C55.3844 21.4433 56.0098 20.844 56.4405 21.0116C56.8727 21.1786 56.6566 22.3549 55.6248 23.5079ZM67.9551 6.55133C66.9215 5.5841 64.9973 4.52235 62.3919 5.91438C59.7856 7.30641 58.1424 9.05283 56.8983 12.8519C55.6546 16.6513 59.4575 19.8134 60.3492 20.2382C61.2413 20.663 62.626 21.4653 64.7383 20.0261C66.8515 18.5863 67.6266 17.0998 67.8607 16.5573C68.0957 16.0144 67.8376 15.2357 67.0391 15.7786C66.2414 16.3215 65.1378 17.6668 63.4476 17.1475C62.1818 16.7586 61.6667 15.9067 61.34 15.1464C62.4544 14.4234 65.9256 12.1705 67.1805 11.3426C68.6823 10.3518 68.8237 10.3754 69.0578 9.71435C69.2928 9.05236 68.9878 7.51857 67.9551 6.55133ZM63.7766 12.1567C62.9114 13.0342 61.8072 13.7975 59.9782 14.6066C59.6926 13.7543 59.5494 12.4881 60.6024 10.7845C61.9761 8.56264 63.3976 7.88702 63.9896 8.69349C64.5816 9.49997 64.7001 11.2198 63.7766 12.1567ZM70.5526 7.41679C70.2382 7.25833 70.0569 7.31649 69.6601 7.39171C69.2622 7.46693 68.9896 7.16606 69.2131 6.86568C69.4371 6.56531 70.1811 6.01421 70.8749 5.38788C71.5692 4.76206 72.264 4.18589 73.0577 4.26111C73.8524 4.33633 74.8447 4.41154 75.762 6.03928C75.762 6.03928 77.1005 4.16082 77.9448 3.68493C77.9448 3.68493 79.1845 4.96215 79.9781 5.36331C80.7728 5.76348 81.2431 6.03928 81.9881 5.43803C82.7321 4.83678 82.8806 4.73699 83.1036 4.93707C83.3266 5.13766 83.0539 6.16414 81.8883 7.29142C80.7221 8.4182 79.4581 9.42011 78.3416 9.09467C77.2252 8.76922 75.9348 7.81745 75.9348 7.81745V15.1046C75.9348 15.7059 76.1097 15.731 76.6798 15.4557C77.25 15.1799 77.845 14.6293 78.1678 14.9296C78.4896 15.2305 78.4405 16.1071 77.1258 17.459C75.8112 18.8109 75.6125 19.2873 73.455 19.2873C71.2966 19.2873 70.6022 16.9079 70.6022 16.257V8.04311C70.6022 7.54165 70.7517 7.51708 70.5526 7.41679ZM11.6794 46.946L13.6432 42.8385C13.6432 42.8385 11.0247 41.1307 7.75199 41.1307C4.47926 41.1307 2.30851 42.7305 1.37805 45.6744C0.448062 48.6184 1.68836 51.7797 3.06605 52.4709C4.44422 53.1617 6.92481 54.0693 8.02725 54.5786C9.12968 55.0879 9.71572 56.8333 8.81984 57.7054C7.92397 58.5771 5.89108 59.3408 2.61835 56.36L0.482178 60.5389C0.482178 60.5389 3.34178 62.974 6.82153 62.974C10.3013 62.974 13.2291 61.3751 14.1937 57.9949C15.1587 54.6146 13.9876 51.3429 10.9901 50.2528C7.99313 49.1627 5.99436 49.0537 6.23597 46.9815C6.47711 44.9103 9.95639 45.1656 11.6794 46.946ZM30.9971 46.1421C29.8693 43.2238 26.1596 42.6909 25.2144 42.6909H16.0846V62.974H21.3952V56.3201H25.1053C26.4507 56.3201 27.8697 56.213 29.9063 54.5766C31.9429 52.9394 32.125 49.0605 30.9971 46.1421ZM24.7755 52.0523H22.3255V47.3716H24.154C25.7994 47.3716 27.0062 47.9367 27.0062 49.7908C27.0062 51.6437 25.7998 52.0523 24.7755 52.0523ZM42.6086 41.1307C36.5769 41.1307 31.687 46.0205 31.687 52.0523C31.687 58.0842 36.5769 62.974 42.6086 62.974C48.6404 62.974 53.5303 58.0842 53.5303 52.0523C53.5303 46.0205 48.6404 41.1307 42.6086 41.1307ZM43.3887 58.2933C40.3723 58.2933 37.9279 55.848 37.9279 52.8325C37.9279 49.8169 40.3723 47.3716 43.3887 47.3716C46.4048 47.3716 48.8496 49.8169 48.8496 52.8325C48.8496 55.848 46.4048 58.2933 43.3887 58.2933ZM61.6294 55.3651L66.1598 62.974H72.2532L66.4272 54.7645C66.4272 54.7645 67.2424 54.7645 68.7812 53.7501C70.3196 52.7357 71.1797 49.3077 70.229 46.4579C69.2783 43.6086 66.2455 42.6909 64.5258 42.6909H56.6508V62.974H61.6289L61.6294 55.3651ZM63.0442 47.5904C64.0255 47.8506 64.6256 49.1928 64.4072 50.3628C64.1898 51.5324 61.8986 52.0523 61.1353 52.0523H59.7713V47.374C61.0059 47.3688 62.1416 47.3519 63.0442 47.5904ZM84.7351 42.6909H70.6929V46.9888H75.0809V62.974H80.3466V46.9888H84.7351V42.6909Z" fill="white"/>
</svg>
