<svg viewBox="0 0 45 45" fill="none" xmlns="http://www.w3.org/2000/svg">
<circle cx="22.5" cy="22.5" r="22.5" fill="#92D660"/>
<g clip-path="url(#clip0_182_7273)">
<path d="M33.719 12.7786H31.5365C31.4527 12.2614 31.1877 11.7909 30.7887 11.4514C30.3898 11.1118 29.883 10.9253 29.3591 10.9253C28.8351 10.9253 28.3283 11.1118 27.9294 11.4514C27.5304 11.7909 27.2654 12.2614 27.1817 12.7786H25.3231C25.2394 12.2614 24.9743 11.7909 24.5753 11.4514C24.1764 11.1118 23.6696 10.9253 23.1457 10.9253C22.6218 10.9253 22.115 11.1118 21.716 11.4514C21.317 11.7909 21.052 12.2614 20.9683 12.7786H19.1099C19.0262 12.2614 18.7611 11.7909 18.3621 11.4514C17.9632 11.1118 17.4564 10.9253 16.9325 10.9253C16.4086 10.9253 15.9018 11.1118 15.5028 11.4514C15.1038 11.7909 14.8388 12.2614 14.7551 12.7786H12.5723C12.478 12.7787 12.3877 12.8161 12.321 12.8828C12.2544 12.9494 12.2169 13.0398 12.2168 13.1341V32.0722H10.2813C10.2346 32.0722 10.1883 32.0814 10.1452 32.0992C10.102 32.1171 10.0628 32.1433 10.0298 32.1763C9.99682 32.2093 9.97064 32.2485 9.95279 32.2916C9.93493 32.3348 9.92575 32.381 9.92578 32.4277C9.92659 33.1294 10.2057 33.802 10.7018 34.2982C11.198 34.7943 11.8706 35.0734 12.5723 35.0742H31.428C32.1296 35.0734 32.8023 34.7943 33.2985 34.2982C33.7946 33.802 34.0737 33.1294 34.0745 32.4277V13.1341C34.0745 13.0398 34.037 12.9494 33.9704 12.8827C33.9037 12.8161 33.8133 12.7786 33.719 12.7786ZM29.3592 11.6364C29.6942 11.637 30.0194 11.7498 30.2828 11.9569C30.5463 12.1639 30.7327 12.4532 30.8125 12.7786H27.9058C27.9855 12.4532 28.172 12.1638 28.4354 11.9568C28.6989 11.7498 29.0241 11.637 29.3592 11.6364ZM23.1458 11.6364C23.481 11.6368 23.8064 11.7495 24.0701 11.9565C24.3337 12.1636 24.5203 12.453 24.6001 12.7786H21.6924C21.7722 12.4532 21.9587 12.1639 22.2221 11.9569C22.4855 11.7498 22.8107 11.637 23.1458 11.6364ZM16.9324 11.6364C17.2674 11.637 17.5926 11.7498 17.8561 11.9569C18.1195 12.1639 18.306 12.4532 18.3857 12.7786H15.4798C15.5596 12.4533 15.7459 12.1641 16.0092 11.9571C16.2725 11.7501 16.5975 11.6372 16.9324 11.6364ZM14.7551 13.4895C14.8398 14.0062 15.1052 14.4759 15.5039 14.8152C15.9026 15.1545 16.4088 15.3412 16.9324 15.342C17.0267 15.342 17.1171 15.3046 17.1837 15.2379C17.2504 15.1713 17.2878 15.0809 17.2878 14.9866C17.2878 14.8923 17.2504 14.8019 17.1837 14.7352C17.1171 14.6686 17.0267 14.6311 16.9324 14.6311C16.5975 14.6304 16.2726 14.5176 16.0093 14.3107C15.7461 14.1038 15.5597 13.8147 15.4798 13.4895H20.9683C21.053 14.0062 21.3184 14.476 21.7172 14.8152C22.116 15.1545 22.6222 15.3412 23.1458 15.342C23.24 15.342 23.3305 15.3046 23.3971 15.2379C23.4638 15.1713 23.5012 15.0809 23.5012 14.9866C23.5012 14.8923 23.4638 14.8019 23.3971 14.7352C23.3305 14.6686 23.24 14.6311 23.1458 14.6311C22.8107 14.6305 22.4855 14.5177 22.222 14.3106C21.9586 14.1035 21.7721 13.8142 21.6924 13.4887H27.1817C27.2663 14.0055 27.5316 14.4755 27.9304 14.8149C28.3292 15.1543 28.8355 15.3411 29.3592 15.342C29.4534 15.342 29.5438 15.3046 29.6105 15.2379C29.6772 15.1713 29.7146 15.0809 29.7146 14.9866C29.7146 14.8923 29.6772 14.8019 29.6105 14.7352C29.5438 14.6686 29.4534 14.6311 29.3592 14.6311C29.0241 14.6306 28.6988 14.5178 28.4354 14.3107C28.1719 14.1036 27.9855 13.8142 27.9058 13.4887H33.3636V17.0946H12.9278V13.4895H14.7551ZM12.5723 34.3633C12.1207 34.3627 11.6836 34.2045 11.3362 33.9161C10.9888 33.6276 10.753 33.2269 10.6694 32.7832H28.8048C28.8871 33.3888 29.1769 33.9472 29.6246 34.3633H12.5723ZM31.428 34.3633C30.9148 34.3627 30.4228 34.1586 30.0598 33.7958C29.6969 33.4329 29.4928 32.9409 29.4922 32.4277C29.4922 32.3334 29.4548 32.243 29.3881 32.1763C29.3214 32.1097 29.231 32.0722 29.1367 32.0722H12.9274V17.8055H33.3636V32.4277C33.363 32.9409 33.1589 33.4328 32.796 33.7957C32.4331 34.1586 31.9412 34.3627 31.428 34.3633Z" fill="#1E1E1E"/>
<path d="M23.1464 20.0093C22.1714 20.0093 21.2183 20.2984 20.4077 20.8401C19.597 21.3818 18.9651 22.1517 18.592 23.0525C18.2189 23.9533 18.1213 24.9445 18.3115 25.9007C18.5018 26.857 18.9713 27.7354 19.6607 28.4248C20.3502 29.1142 21.2286 29.5837 22.1848 29.7739C23.1411 29.964 24.1323 29.8664 25.0331 29.4933C25.9338 29.1201 26.7037 28.4882 27.2454 27.6775C27.787 26.8668 28.0761 25.9137 28.0761 24.9387C28.0744 23.6318 27.5544 22.379 26.6303 21.4549C25.7062 20.5308 24.4533 20.0109 23.1464 20.0093ZM23.1464 29.1574C22.3121 29.1574 21.4964 28.91 20.8027 28.4464C20.1089 27.9829 19.5682 27.324 19.2489 26.5531C18.9296 25.7823 18.846 24.934 19.0088 24.1157C19.1716 23.2973 19.5734 22.5456 20.1634 21.9556C20.7534 21.3656 21.5051 20.9639 22.3234 20.8011C23.1418 20.6383 23.99 20.7218 24.7609 21.0411C25.5317 21.3604 26.1906 21.9012 26.6542 22.5949C27.1177 23.2887 27.3651 24.1043 27.3651 24.9387C27.3639 26.0572 26.919 27.1295 26.1281 27.9204C25.3373 28.7113 24.2649 29.1562 23.1464 29.1574Z" fill="#1E1E1E"/>
<path d="M25.6953 24.5844H23.502V22.3906C23.502 22.2963 23.4645 22.2059 23.3978 22.1393C23.3312 22.0726 23.2408 22.0352 23.1465 22.0352C23.0522 22.0352 22.9618 22.0726 22.8951 22.1393C22.8285 22.2059 22.791 22.2963 22.791 22.3906V24.9388C22.791 25.0331 22.8285 25.1235 22.8951 25.1902C22.9618 25.2568 23.0522 25.2943 23.1465 25.2943H25.6953C25.7896 25.2943 25.88 25.2568 25.9467 25.1902C26.0133 25.1235 26.0508 25.0331 26.0508 24.9388C26.0508 24.8446 26.0133 24.7541 25.9467 24.6875C25.88 24.6208 25.7896 24.5834 25.6953 24.5834V24.5844Z" fill="#1E1E1E"/>
</g>
<defs>
<clipPath id="clip0_182_7273">
<rect width="26" height="26" fill="white" transform="translate(9 10)"/>
</clipPath>
</defs>
</svg>
