<svg viewBox="0 0 45 45" fill="none" xmlns="http://www.w3.org/2000/svg">
<circle cx="22.5" cy="22.5" r="22.5" fill="#397621"/>
<g clip-path="url(#clip0_182_7297)">
<path d="M33.8989 20.5531C33.8684 20.2127 33.7112 19.896 33.4584 19.6658C33.2057 19.4357 32.8758 19.3087 32.5339 19.31H24.4035V17.8924L26.2635 16.5193H32.2697C32.5531 16.5191 32.8295 16.4312 33.061 16.2677C33.2925 16.1042 33.4678 15.8731 33.5628 15.606L35.0551 11.3991C35.0742 11.3455 35.08 11.288 35.0722 11.2317C35.0645 11.1753 35.0433 11.1216 35.0104 11.0751C34.9776 11.0287 34.9341 10.9907 34.8835 10.9646C34.833 10.9384 34.7769 10.9248 34.72 10.9248H11.2814C11.2245 10.9248 11.1684 10.9384 11.1179 10.9646C11.0673 10.9907 11.0238 11.0287 10.9909 11.0751C10.9581 11.1216 10.9369 11.1753 10.9291 11.2317C10.9213 11.288 10.9272 11.3455 10.9462 11.3991L12.4378 15.606C12.5326 15.8732 12.7078 16.1045 12.9393 16.2682C13.1709 16.4318 13.4474 16.5198 13.7309 16.5201H19.7371L21.5971 17.8932V19.3108H13.4666C13.1248 19.3095 12.7949 19.4365 12.5421 19.6667C12.2894 19.8968 12.1322 20.2135 12.1016 20.5539L10.9273 33.0748C10.9227 33.1241 10.9285 33.1737 10.9442 33.2207C10.9599 33.2676 10.9852 33.3108 11.0185 33.3474C11.0518 33.384 11.0924 33.4132 11.1377 33.4332C11.1829 33.4532 11.2319 33.4635 11.2814 33.4636H13.3224V34.7179C13.3224 34.8121 13.3598 34.9025 13.4265 34.9692C13.4932 35.0359 13.5836 35.0733 13.6779 35.0733H15.9199C16.0142 35.0733 16.1046 35.0359 16.1713 34.9692C16.238 34.9025 16.2754 34.8121 16.2754 34.7179V33.4636H29.7251V34.7179C29.7251 34.8121 29.7626 34.9025 29.8293 34.9692C29.8959 35.0359 29.9863 35.0733 30.0806 35.0733H32.3237C32.418 35.0733 32.5084 35.0359 32.5751 34.9692C32.6417 34.9025 32.6792 34.8121 32.6792 34.7179V33.4636H34.7202C34.7697 33.4635 34.8186 33.4532 34.8639 33.4332C34.9092 33.4132 34.9497 33.384 34.9831 33.3474C35.0164 33.3108 35.0417 33.2676 35.0574 33.2207C35.0731 33.1737 35.0788 33.1241 35.0742 33.0748L33.8989 20.5531ZM13.1081 15.369L11.7845 11.6364H34.216L32.8925 15.369C32.8467 15.4974 32.7624 15.6086 32.651 15.6872C32.5396 15.7659 32.4066 15.8082 32.2703 15.8083H13.7309C13.5944 15.8083 13.4613 15.7661 13.3498 15.6874C13.2383 15.6088 13.1539 15.4975 13.1081 15.369ZM22.1636 17.427L20.9341 16.5201H25.0665L23.837 17.4279C23.7922 17.4609 23.7558 17.504 23.7307 17.5537C23.7056 17.6033 23.6925 17.6582 23.6925 17.7139V19.3108H22.308V17.713C22.308 17.6574 22.295 17.6025 22.2699 17.5528C22.2448 17.5032 22.2084 17.4601 22.1636 17.427ZM15.5645 34.3632H14.0333V33.4644H15.5645V34.3632ZM31.9672 34.3632H30.4361V33.4644H31.9672V34.3632ZM11.6718 32.7534L12.8093 20.6196C12.8239 20.4556 12.8996 20.3031 13.0213 20.1923C13.143 20.0814 13.3018 20.0203 13.4664 20.0209H32.5337C32.6983 20.0203 32.8572 20.0814 32.9789 20.1923C33.1006 20.3031 33.1762 20.4556 33.1909 20.6196L34.3284 32.7534H11.6718Z" fill="white"/>
<path d="M22.3801 24.1724H14.7988C14.7046 24.1724 14.6142 24.2099 14.5475 24.2765C14.4809 24.3432 14.4434 24.4336 14.4434 24.5278V28.2468C14.4434 28.3411 14.4809 28.4315 14.5475 28.4981C14.6142 28.5648 14.7046 28.6023 14.7988 28.6023H22.3801C22.4743 28.6023 22.5647 28.5648 22.6314 28.4981C22.698 28.4315 22.7355 28.3411 22.7355 28.2468V24.5278C22.7355 24.4336 22.698 24.3432 22.6314 24.2765C22.5647 24.2099 22.4743 24.1724 22.3801 24.1724ZM22.0252 27.8914H15.1543V24.8833H22.0252V27.8914Z" fill="white"/>
<path d="M27.4829 23.2026H25.5449C25.4507 23.2027 25.3603 23.2402 25.2936 23.3068C25.227 23.3735 25.1895 23.4638 25.1895 23.5581V25.4961C25.1895 25.5904 25.227 25.6808 25.2936 25.7474C25.3603 25.8141 25.4507 25.8515 25.5449 25.8516H27.4829C27.5772 25.8515 27.6676 25.8141 27.7342 25.7474C27.8009 25.6808 27.8384 25.5904 27.8384 25.4961V23.5583C27.8384 23.464 27.801 23.3736 27.7343 23.3069C27.6676 23.2402 27.5772 23.2027 27.4829 23.2026ZM27.1275 25.1407H25.9004V23.9136H27.1275V25.1407Z" fill="white"/>
<path d="M27.4829 26.9224H25.5449C25.4507 26.9224 25.3603 26.9599 25.2936 27.0265C25.227 27.0932 25.1895 27.1836 25.1895 27.2778V29.2154C25.1895 29.3097 25.227 29.4001 25.2936 29.4667C25.3603 29.5334 25.4507 29.5709 25.5449 29.5709H27.4829C27.5772 29.5709 27.6676 29.5334 27.7342 29.4667C27.8009 29.4001 27.8384 29.3097 27.8384 29.2154V27.2776C27.8383 27.1834 27.8008 27.0931 27.7342 27.0265C27.6675 26.9599 27.5772 26.9224 27.4829 26.9224ZM27.1275 28.8602H25.9004V27.6333H27.1275V28.8602Z" fill="white"/>
<path d="M31.2015 23.2026H29.2637C29.1694 23.2027 29.079 23.2402 29.0124 23.3068C28.9457 23.3735 28.9083 23.4638 28.9082 23.5581V25.4961C28.9083 25.5904 28.9457 25.6808 29.0124 25.7474C29.079 25.8141 29.1694 25.8515 29.2637 25.8516H31.2015C31.2957 25.8515 31.3861 25.8141 31.4528 25.7474C31.5194 25.6808 31.5569 25.5904 31.557 25.4961V23.5583C31.557 23.464 31.5195 23.3736 31.4529 23.3069C31.3862 23.2402 31.2958 23.2027 31.2015 23.2026ZM30.846 25.1407H29.6191V23.9136H30.846V25.1407Z" fill="white"/>
<path d="M31.2015 26.9224H29.2637C29.1694 26.9224 29.079 26.9599 29.0124 27.0265C28.9457 27.0932 28.9083 27.1836 28.9082 27.2778V29.2154C28.9083 29.3097 28.9457 29.4001 29.0124 29.4667C29.079 29.5334 29.1694 29.5709 29.2637 29.5709H31.2015C31.2957 29.5709 31.3861 29.5334 31.4528 29.4667C31.5194 29.4001 31.5569 29.3097 31.557 29.2154V27.2776C31.5568 27.1834 31.5194 27.0931 31.4527 27.0265C31.3861 26.9599 31.2957 26.9224 31.2015 26.9224ZM30.846 28.8602H29.6191V27.6333H30.846V28.8602Z" fill="white"/>
</g>
<defs>
<clipPath id="clip0_182_7297">
<rect width="26" height="26" fill="white" transform="translate(10 10)"/>
</clipPath>
</defs>
</svg>
