<svg viewBox="0 0 45 45" fill="none" xmlns="http://www.w3.org/2000/svg">
<circle cx="22.5" cy="22.5" r="22.5" fill="#DDA000"/>
<path d="M25.9393 27.4532C25.8734 27.4532 25.8085 27.4371 25.7502 27.4063L23.0001 25.9603L20.2498 27.4064C20.1827 27.4416 20.1071 27.4574 20.0315 27.452C19.9559 27.4465 19.8834 27.42 19.822 27.3755C19.7607 27.331 19.713 27.2702 19.6845 27.2C19.6559 27.1298 19.6475 27.053 19.6603 26.9783L20.1855 23.9155L17.9605 21.7466C17.9062 21.6937 17.8679 21.6267 17.8497 21.5531C17.8316 21.4795 17.8344 21.4024 17.8578 21.3303C17.8812 21.2582 17.9243 21.1942 17.9823 21.1453C18.0402 21.0965 18.1106 21.0648 18.1856 21.0539L21.2607 20.6068L22.6357 17.8206C22.773 17.5429 23.2273 17.5429 23.3645 17.8206L24.7396 20.6068L27.8144 21.0539C27.8894 21.0648 27.9599 21.0965 28.0178 21.1453C28.0757 21.1942 28.1189 21.2582 28.1423 21.3303C28.1657 21.4024 28.1685 21.4795 28.1503 21.5531C28.1322 21.6267 28.0938 21.6937 28.0396 21.7466L25.8145 23.9155L26.3398 26.9783C26.3497 27.0366 26.3468 27.0964 26.3313 27.1534C26.3157 27.2105 26.2879 27.2635 26.2498 27.3087C26.2117 27.3539 26.1641 27.3903 26.1105 27.4152C26.0569 27.4402 25.9984 27.4531 25.9393 27.4532ZM19.1171 21.7395L20.9058 23.4831C20.9529 23.5291 20.9881 23.5858 21.0085 23.6484C21.0288 23.711 21.0337 23.7776 21.0226 23.8425L20.6003 26.3042L22.8111 25.1418C22.8693 25.111 22.9342 25.0948 23.0001 25.0948C23.066 25.0948 23.1309 25.111 23.1892 25.1418L25.3997 26.3042L24.9776 23.8425C24.9665 23.7776 24.9714 23.711 24.9918 23.6484C25.0121 23.5858 25.0473 23.5291 25.0944 23.4831L26.8829 21.7395L24.4113 21.38C24.3461 21.3706 24.2842 21.3454 24.2309 21.3067C24.1776 21.268 24.1346 21.2169 24.1054 21.1579L23.0001 18.9183L21.8948 21.1579C21.8657 21.217 21.8226 21.268 21.7693 21.3067C21.716 21.3454 21.6541 21.3706 21.589 21.3801L19.1171 21.7395Z" fill="#1E1E1E"/>
<path d="M22.9996 30.3538C18.9451 30.3538 15.6465 27.055 15.6465 23.0004C15.6465 18.9458 18.9451 15.6475 22.9996 15.6475C27.0542 15.6475 30.3528 18.9459 30.3528 23.0004C30.3528 27.055 27.0542 30.3538 22.9996 30.3538ZM22.9996 16.4599C21.706 16.4599 20.4414 16.8435 19.3658 17.5623C18.2902 18.281 17.4519 19.3025 16.9568 20.4976C16.4618 21.6928 16.3323 23.0079 16.5847 24.2767C16.8371 25.5455 17.46 26.7109 18.3748 27.6256C19.2895 28.5403 20.455 29.1633 21.7238 29.4156C22.9925 29.668 24.3076 29.5384 25.5028 29.0433C26.6979 28.5483 27.7194 27.7099 28.4381 26.6343C29.1568 25.5586 29.5404 24.294 29.5403 23.0004C29.5383 21.2664 28.8485 19.6039 27.6223 18.3778C26.3962 17.1516 24.7337 16.4619 22.9996 16.46V16.4599Z" fill="#1E1E1E"/>
<path d="M25.0249 33.3372C24.7723 33.337 24.524 33.2717 24.3041 33.1475L23.3208 32.5949C23.2227 32.5399 23.1121 32.511 22.9996 32.511C22.8871 32.511 22.7766 32.5399 22.6785 32.5949L21.6946 33.1475C21.3772 33.3268 21.0043 33.3813 20.6489 33.3003C20.2934 33.2193 19.981 33.0087 19.7726 32.7096L19.1252 31.7844C19.06 31.6932 18.9729 31.6199 18.8719 31.5713C18.7709 31.5227 18.6593 31.5003 18.5473 31.5063L17.4198 31.5757C17.0562 31.5999 16.6967 31.4872 16.4118 31.2599C16.127 31.0326 15.9374 30.707 15.8803 30.347L15.6984 29.233C15.6807 29.1218 15.6344 29.017 15.5641 28.929C15.4938 28.841 15.4019 28.7727 15.2973 28.7308L14.2531 28.3071C13.9148 28.1708 13.6396 27.9132 13.4813 27.5847C13.323 27.2562 13.293 26.8804 13.3972 26.5309L13.7164 25.4486C13.7477 25.341 13.7511 25.2271 13.7262 25.1177C13.7013 25.0084 13.6489 24.9072 13.5739 24.8238L12.816 23.9851C12.5712 23.7157 12.4356 23.3647 12.4355 23.0007C12.4355 22.6366 12.5711 22.2856 12.8158 22.0161L13.5741 21.1771C13.649 21.0935 13.7014 20.9923 13.7263 20.8829C13.7512 20.7735 13.7479 20.6595 13.7166 20.5518L13.3972 19.4695C13.2931 19.1201 13.3231 18.7443 13.4814 18.4158C13.6397 18.0873 13.9149 17.8297 14.2531 17.6934L15.2983 17.2693C15.4022 17.2267 15.4936 17.1583 15.5637 17.0705C15.6338 16.9828 15.6803 16.8786 15.6988 16.7678L15.8809 15.6534C15.9379 15.2934 16.1275 14.9677 16.4124 14.7404C16.6973 14.513 17.0569 14.4004 17.4206 14.4247L18.5481 14.4946C18.6602 14.5017 18.7722 14.4799 18.8734 14.4311C18.9745 14.3823 19.0614 14.3082 19.1255 14.2161L19.7728 13.2917C19.9811 12.9923 20.2937 12.7815 20.6493 12.7006C21.0048 12.6196 21.3779 12.6744 21.6952 12.8541L22.6783 13.4063C22.7766 13.461 22.8872 13.4897 22.9997 13.4897C23.1122 13.4897 23.2228 13.461 23.3212 13.4063L24.3045 12.8537C24.6218 12.6744 24.9946 12.6198 25.3501 12.7007C25.7055 12.7817 26.018 12.9922 26.2264 13.2913L26.8741 14.2165C26.9386 14.3082 27.0255 14.382 27.1265 14.4307C27.2275 14.4793 27.3394 14.5013 27.4513 14.4946L28.5792 14.4251C28.9425 14.4027 29.3011 14.516 29.5856 14.743C29.87 14.97 30.06 15.2946 30.1187 15.6538L30.3008 16.7682C30.3193 16.8791 30.3658 16.9833 30.4359 17.0711C30.506 17.159 30.5973 17.2274 30.7013 17.2701L31.7459 17.6938C32.0843 17.83 32.3596 18.0877 32.5179 18.4163C32.6763 18.7449 32.7063 19.1208 32.602 19.4703L32.2828 20.5522C32.2514 20.6599 32.248 20.7738 32.2729 20.8831C32.2978 20.9924 32.3502 21.0936 32.4251 21.1771L33.183 22.0158C33.4277 22.2852 33.5633 22.6362 33.5634 23.0002C33.5634 23.3642 33.4279 23.7152 33.1832 23.9847L32.4253 24.8238C32.3503 24.9073 32.2979 25.0085 32.2729 25.1179C32.2479 25.2273 32.2513 25.3413 32.2827 25.449L32.6018 26.5313C32.7061 26.8808 32.6761 27.2566 32.5178 27.5851C32.3595 27.9137 32.0842 28.1713 31.7459 28.3075L30.7009 28.7316C30.5969 28.7742 30.5055 28.8426 30.4354 28.9304C30.3652 29.0183 30.3187 29.1226 30.3002 29.2334L30.1183 30.3474C30.06 30.7069 29.8701 31.0318 29.5854 31.2589C29.3008 31.486 28.9418 31.5991 28.5784 31.5761L27.4513 31.5067C27.3392 31.4996 27.2271 31.5216 27.1259 31.5703C27.0246 31.6191 26.9376 31.6931 26.8733 31.7852L26.2264 32.7092C26.0916 32.9029 25.9119 33.0613 25.7027 33.1706C25.4935 33.28 25.261 33.3371 25.0249 33.3372ZM22.9996 31.6995C23.2515 31.6991 23.4992 31.7635 23.7191 31.8864L24.7022 32.439C24.8439 32.5194 25.0105 32.5439 25.1694 32.5077C25.3282 32.4715 25.4678 32.3772 25.5607 32.2434L26.2078 31.319C26.3529 31.114 26.5477 30.9492 26.7741 30.8402C27.0004 30.7311 27.2507 30.6814 27.5015 30.6958L28.6286 30.7652C28.7911 30.7761 28.9517 30.7259 29.0791 30.6244C29.2064 30.5228 29.2911 30.3774 29.3165 30.2165L29.4984 29.1025C29.5398 28.8543 29.6439 28.6207 29.8009 28.424C29.9579 28.2273 30.1625 28.074 30.3954 27.9786L31.4402 27.5545C31.5913 27.4937 31.7142 27.3787 31.785 27.232C31.8557 27.0853 31.8692 26.9175 31.8227 26.7614L31.5035 25.6791C31.4332 25.4379 31.4256 25.1827 31.4814 24.9378C31.5373 24.6928 31.6546 24.4661 31.8225 24.2791L32.5802 23.4404L32.5804 23.44C32.6897 23.3196 32.7502 23.1628 32.7501 23.0002C32.7501 22.8376 32.6895 22.6808 32.5802 22.5604L31.8225 21.7222C31.6546 21.5352 31.5373 21.3085 31.4815 21.0635C31.4257 20.8185 31.4334 20.5633 31.5037 20.3221L31.8229 19.2402C31.8694 19.0841 31.856 18.9162 31.7852 18.7694C31.7144 18.6226 31.5914 18.5076 31.4402 18.4468L30.3958 18.0231C30.163 17.9277 29.9583 17.7743 29.8014 17.5776C29.6444 17.3809 29.5403 17.1474 29.499 16.8991L29.3169 15.7847C29.29 15.6246 29.205 15.4801 29.0781 15.3789C28.9513 15.2776 28.7915 15.2268 28.6294 15.2361L27.5015 15.3055C27.2507 15.3208 27.0002 15.2715 26.7739 15.1625C26.5475 15.0535 26.3529 14.8883 26.2085 14.6826L25.5609 13.7574C25.4677 13.624 25.3282 13.53 25.1695 13.4939C25.0108 13.4577 24.8443 13.4819 24.7026 13.5619L23.7189 14.1149C23.499 14.2374 23.2514 14.3018 22.9997 14.3018C22.748 14.3018 22.5004 14.2374 22.2805 14.1149L21.297 13.5623C21.1553 13.482 20.9887 13.4576 20.8298 13.4937C20.671 13.5299 20.5314 13.6241 20.4383 13.7578L19.7913 14.6818C19.6472 14.8878 19.4526 15.0533 19.2261 15.1625C18.9997 15.2717 18.749 15.321 18.4981 15.3055L17.3702 15.2357C17.2082 15.2265 17.0485 15.2773 16.9216 15.3786C16.7947 15.4798 16.7097 15.6243 16.6827 15.7843L16.5006 16.8987C16.4592 17.1469 16.3551 17.3804 16.1981 17.577C16.0412 17.7736 15.8366 17.9269 15.6038 18.0223L14.5588 18.4464C14.4077 18.5073 14.2848 18.6224 14.2141 18.7691C14.1434 18.9159 14.1299 19.0837 14.1764 19.2398L14.4957 20.3217C14.566 20.5629 14.5735 20.8181 14.5178 21.063C14.462 21.308 14.3447 21.5347 14.177 21.7217L13.4186 22.5608C13.3094 22.6812 13.2489 22.8379 13.2489 23.0004C13.2489 23.1629 13.3094 23.3196 13.4186 23.44L14.1766 24.2787C14.3444 24.4657 14.4618 24.6924 14.5176 24.9373C14.5734 25.1823 14.5658 25.4375 14.4955 25.6787L14.1764 26.761C14.1299 26.9171 14.1433 27.0849 14.214 27.2316C14.2848 27.3783 14.4077 27.4933 14.5588 27.5541L15.6032 27.9778C15.836 28.0733 16.0406 28.2268 16.1976 28.4235C16.3546 28.6203 16.4587 28.8538 16.5002 29.1021L16.6821 30.2161C16.7085 30.3764 16.7934 30.5213 16.9204 30.6226C17.0474 30.724 17.2074 30.7746 17.3696 30.7648L18.4975 30.6954C18.7484 30.6794 18.9992 30.7283 19.2257 30.8374C19.4522 30.9465 19.6468 31.1121 19.7907 31.3182L20.4381 32.2434C20.531 32.3772 20.6706 32.4715 20.8295 32.5076C20.9883 32.5438 21.1549 32.5193 21.2966 32.439L22.2803 31.8863C22.5001 31.7635 22.7478 31.6991 22.9996 31.6995Z" fill="#1E1E1E"/>
</svg>
