<svg viewBox="0 0 34 44" fill="none" xmlns="http://www.w3.org/2000/svg">
<path d="M8.06508 41.9946L9.60273 34.3064C9.69809 33.8295 10.1168 33.4863 10.603 33.4863H23.2515C23.7196 33.4863 24.1276 33.8049 24.2411 34.259L26.1475 41.8844C26.3427 42.6653 25.5989 43.3541 24.8353 43.0996L17.7315 40.7316C17.5273 40.6636 17.3069 40.6618 17.1017 40.7266L9.37253 43.1674C8.63248 43.4011 7.91288 42.7556 8.06508 41.9946Z" fill="#757B9A"/>
<path d="M16.4176 1.11092C16.7224 0.94442 17.091 0.94442 17.3957 1.11092L20.1728 2.62802C20.3383 2.71845 20.5257 2.76122 20.714 2.75156L23.8743 2.58962C24.2212 2.57184 24.5532 2.73175 24.7556 3.014L26.5994 5.58578C26.7093 5.73907 26.8595 5.85889 27.0334 5.93193L29.951 7.15721C30.2712 7.29169 30.501 7.57983 30.5608 7.92193L31.1062 11.039C31.1387 11.2248 31.2221 11.398 31.3471 11.5392L33.4441 13.909C33.6742 14.1691 33.7562 14.5284 33.6617 14.8626L32.8006 17.9076C32.7493 18.0891 32.7493 18.2813 32.8006 18.4628L33.6617 21.5078C33.7562 21.842 33.6742 22.2013 33.4441 22.4614L31.3471 24.8312C31.2221 24.9725 31.1387 25.1456 31.1062 25.3314L30.5608 28.4485C30.501 28.7906 30.2712 29.0788 29.951 29.2132L27.0334 30.4385C26.8595 30.5116 26.7093 30.6314 26.5994 30.7847L24.7556 33.3564C24.5532 33.6387 24.2212 33.7986 23.8743 33.7808L20.7141 33.6189C20.5257 33.6092 20.3383 33.652 20.1728 33.7424L17.3957 35.2595C17.091 35.426 16.7224 35.426 16.4176 35.2595L13.6406 33.7424C13.4751 33.652 13.2877 33.6092 13.0993 33.6189L9.93905 33.7808C9.59221 33.7986 9.26016 33.6387 9.0578 33.3564L7.21402 30.7847C7.10411 30.6314 6.95386 30.5116 6.77996 30.4385L3.86238 29.2132C3.54218 29.0788 3.31239 28.7906 3.25254 28.4485L2.7072 25.3314C2.67469 25.1456 2.59131 24.9725 2.46631 24.8312L0.369297 22.4614C0.139151 22.2013 0.0571406 21.842 0.151647 21.5078L1.01276 18.4628C1.06409 18.2813 1.06409 18.0891 1.01276 17.9076L0.151647 14.8626C0.0571405 14.5284 0.139151 14.1691 0.369297 13.909L2.46631 11.5392C2.59131 11.398 2.67469 11.2248 2.7072 11.039L3.25254 7.92193C3.31239 7.57983 3.54218 7.29169 3.86238 7.15721L6.77996 5.93193C6.95386 5.85889 7.10411 5.73907 7.21402 5.58578L9.0578 3.014C9.26016 2.73175 9.59221 2.57184 9.93905 2.58962L13.0993 2.75156C13.2877 2.76122 13.4751 2.71845 13.6406 2.62802L16.4176 1.11092Z" fill="#E3E3E3"/>
<circle cx="16.9071" cy="18.1854" r="12.241" fill="#757B9A"/>
<path d="M12.3619 22.9639V20.4851L16.2912 16.3904C16.7686 15.9008 17.1114 15.4723 17.3195 15.1051C17.5276 14.7379 17.6316 14.3645 17.6316 13.9851C17.6316 13.5199 17.4725 13.171 17.1542 12.9385C16.8482 12.7059 16.4014 12.5896 15.8138 12.5896C15.3242 12.5896 14.8223 12.6814 14.3082 12.865C13.8063 13.0364 13.2983 13.3179 12.7842 13.7096L11.7376 11.2492C12.3129 10.8085 13.0045 10.4596 13.8124 10.2026C14.6203 9.94552 15.4527 9.81699 16.3096 9.81699C17.8153 9.81699 18.9598 10.1414 19.7432 10.7902C20.5389 11.4389 20.9367 12.3754 20.9367 13.5995C20.9367 14.3829 20.7531 15.1357 20.3859 15.8579C20.0309 16.5679 19.4372 17.3269 18.6048 18.1348L15.5935 21.0726V20.2096H21.4141V22.9639H12.3619Z" fill="#FFFDFF"/>
</svg>
