<svg viewBox="0 0 34 42" fill="none" xmlns="http://www.w3.org/2000/svg">
<path d="M7.90607 40.3408L9.41344 32.8039C9.50693 32.3365 9.91734 32 10.394 32H22.7934C23.2523 32 23.6523 32.3123 23.7636 32.7575L25.6324 40.2327C25.8238 40.9982 25.0946 41.6735 24.346 41.4239L17.3821 39.1026C17.182 39.0359 16.9659 39.0342 16.7647 39.0977L9.18778 41.4905C8.4623 41.7196 7.75686 41.0868 7.90607 40.3408Z" fill="#D5940C"/>
<path d="M16.0944 0.26191C16.3931 0.0986873 16.7544 0.0986874 17.0532 0.26191L19.7756 1.74914C19.9378 1.83779 20.1215 1.87971 20.3062 1.87025L23.4042 1.71149C23.7442 1.69406 24.0697 1.85082 24.2681 2.12752L26.0756 4.64865C26.1833 4.79893 26.3306 4.91639 26.5011 4.98798L29.3612 6.18914C29.6751 6.32097 29.9004 6.60344 29.9591 6.9388L30.4937 9.9945C30.5255 10.1766 30.6073 10.3464 30.7298 10.4849L32.7855 12.808C33.0111 13.063 33.0915 13.4152 32.9989 13.7428L32.1547 16.7279C32.1044 16.9058 32.1044 17.0942 32.1547 17.2721L32.9989 20.2572C33.0915 20.5848 33.0111 20.937 32.7855 21.192L30.7298 23.5151C30.6073 23.6536 30.5255 23.8234 30.4937 24.0055L29.9591 27.0612C29.9004 27.3966 29.6751 27.679 29.3612 27.8109L26.5011 29.012C26.3306 29.0836 26.1833 29.2011 26.0756 29.3513L24.2681 31.8725C24.0697 32.1492 23.7442 32.3059 23.4042 32.2885L20.3062 32.1298C20.1215 32.1203 19.9378 32.1622 19.7756 32.2509L17.0532 33.7381C16.7544 33.9013 16.3931 33.9013 16.0943 33.7381L13.372 32.2509C13.2097 32.1622 13.026 32.1203 12.8414 32.1298L9.74333 32.2885C9.40333 32.3059 9.07781 32.1492 8.87944 31.8725L7.07196 29.3513C6.96423 29.2011 6.81693 29.0836 6.64645 29.012L3.78632 27.8109C3.47243 27.679 3.24716 27.3966 3.18849 27.0612L2.65389 24.0055C2.62202 23.8234 2.54028 23.6536 2.41775 23.5151L0.362025 21.192C0.13641 20.937 0.0560155 20.5848 0.148661 20.2572L0.992819 17.2721C1.04314 17.0942 1.04314 16.9058 0.992819 16.7279L0.148661 13.7428C0.0560154 13.4152 0.136411 13.063 0.362025 12.808L2.41775 10.4849C2.54028 10.3464 2.62202 10.1766 2.65389 9.9945L3.18849 6.9388C3.24716 6.60344 3.47243 6.32097 3.78632 6.18914L6.64645 4.98798C6.81693 4.91639 6.96423 4.79893 7.07196 4.64865L8.87944 2.12752C9.07781 1.85082 9.40333 1.69406 9.74333 1.71149L12.8414 1.87025C13.026 1.87971 13.2097 1.83779 13.372 1.74914L16.0944 0.26191Z" fill="#FFD885"/>
<circle cx="16.5742" cy="17" r="12" fill="#D5940C"/>
<path d="M12.5325 23V20.3H15.3765V13.064H16.8885L12.8385 15.368V12.308L16.3305 10.31H18.6885V20.3H21.3345V23H12.5325Z" fill="#FFD885"/>
</svg>
