<svg viewBox="0 0 34 43" fill="none" xmlns="http://www.w3.org/2000/svg">
<path d="M8.06508 41.1509L9.60273 33.4626C9.69809 32.9858 10.1168 32.6426 10.603 32.6426H23.2515C23.7196 32.6426 24.1276 32.9612 24.2411 33.4153L26.1475 41.0407C26.3427 41.8216 25.5989 42.5104 24.8353 42.2558L17.7315 39.8879C17.5273 39.8198 17.3069 39.8181 17.1017 39.8829L9.37253 42.3237C8.63248 42.5574 7.91288 41.9119 8.06508 41.1509Z" fill="#D5940C"/>
<path d="M16.4176 0.267171C16.7224 0.10067 17.091 0.10067 17.3957 0.267171L20.1728 1.78427C20.3383 1.8747 20.5257 1.91747 20.714 1.90781L23.8743 1.74587C24.2212 1.72809 24.5532 1.888 24.7556 2.17025L26.5994 4.74203C26.7093 4.89532 26.8595 5.01514 27.0334 5.08818L29.951 6.31346C30.2712 6.44794 30.501 6.73608 30.5608 7.07818L31.1062 10.1953C31.1387 10.3811 31.2221 10.5542 31.3471 10.6955L33.4441 13.0653C33.6742 13.3254 33.7562 13.6847 33.6617 14.0189L32.8006 17.0639C32.7493 17.2454 32.7493 17.4376 32.8006 17.6191L33.6617 20.6641C33.7562 20.9983 33.6742 21.3576 33.4441 21.6177L31.3471 23.9875C31.2221 24.1287 31.1387 24.3019 31.1062 24.4877L30.5608 27.6048C30.501 27.9469 30.2712 28.235 29.951 28.3695L27.0334 29.5948C26.8595 29.6678 26.7093 29.7876 26.5994 29.9409L24.7556 32.5127C24.5532 32.7949 24.2212 32.9549 23.8743 32.9371L20.7141 32.7751C20.5257 32.7655 20.3383 32.8082 20.1728 32.8987L17.3957 34.4158C17.091 34.5823 16.7224 34.5823 16.4176 34.4158L13.6406 32.8987C13.4751 32.8082 13.2877 32.7655 13.0993 32.7751L9.93905 32.9371C9.59221 32.9549 9.26016 32.7949 9.0578 32.5127L7.21402 29.9409C7.10411 29.7876 6.95386 29.6678 6.77996 29.5948L3.86238 28.3695C3.54218 28.235 3.31239 27.9469 3.25254 27.6048L2.7072 24.4877C2.67469 24.3019 2.59131 24.1287 2.46631 23.9875L0.369297 21.6177C0.139151 21.3576 0.0571406 20.9983 0.151647 20.6641L1.01276 17.6191C1.06409 17.4376 1.06409 17.2454 1.01276 17.0639L0.151647 14.0189C0.0571405 13.6847 0.139151 13.3254 0.369297 13.0653L2.46631 10.6955C2.59131 10.5542 2.67469 10.3811 2.7072 10.1953L3.25254 7.07818C3.31239 6.73608 3.54218 6.44794 3.86238 6.31346L6.77996 5.08818C6.95386 5.01514 7.10411 4.89532 7.21402 4.74203L9.0578 2.17025C9.26016 1.888 9.59221 1.72809 9.93905 1.74587L13.0993 1.90781C13.2877 1.91747 13.4751 1.8747 13.6406 1.78427L16.4176 0.267171Z" fill="#FFD885"/>
<circle cx="16.9071" cy="17.3416" r="12.241" fill="#D5940C"/>
<path d="M12.7842 22.1201V19.3659H15.6853V11.9845H17.2277L13.0963 14.3348V11.2133L16.6585 9.17522H19.0638V19.3659H21.763V22.1201H12.7842Z" fill="#FFD885"/>
</svg>
