<svg width="1032" height="611" viewBox="0 0 1032 611" fill="none" xmlns="http://www.w3.org/2000/svg">
<g clip-path="url(#clip0_442_4854)">
<g clip-path="url(#clip1_442_4854)">
<g clip-path="url(#clip2_442_4854)">
<path fill-rule="evenodd" clip-rule="evenodd" d="M897.142 -167.434C891.663 -157.23 885.65 -147.324 879.127 -137.757C879.015 -138.208 878.769 -138.613 878.422 -138.918C876.102 -140.966 873.34 -142.443 870.35 -143.234C867.36 -144.024 864.223 -144.106 861.184 -143.474C857.599 -142.638 850.03 -139.509 849.676 -134.884C849.321 -130.26 858.311 -128.292 861.798 -127.527C865.133 -126.737 868.613 -126.744 871.958 -127.547C865.434 -118.377 858.578 -109.29 851.367 -99.9235C851.288 -100.249 851.163 -100.562 850.995 -100.851C849.455 -103.164 847.454 -105.127 845.117 -106.616C842.78 -108.105 840.158 -109.088 837.415 -109.502C833.452 -110.046 824.261 -109.263 822.469 -104.576C820.677 -99.889 828.616 -95.8756 831.816 -94.1984C835.808 -92.0002 840.376 -91.0737 844.922 -91.5401C837.829 -82.2668 830.676 -73.0222 824.127 -63.4897C823.952 -63.6335 823.745 -63.7323 823.524 -63.7777C821.004 -65.5874 818.076 -66.7419 814.997 -67.1401C811.919 -67.5383 808.784 -67.1678 805.868 -66.0612C802.196 -65.0423 795.775 -63.3873 797.703 -58.4226C799.033 -56.2756 800.826 -54.4602 802.951 -53.1093C805.076 -51.7584 807.479 -50.9065 809.982 -50.6163C811.587 -50.3524 813.223 -50.3286 814.839 -50.5457C808.2 -40.981 801.892 -31.3333 796.216 -21.4587C790.993 -22.1742 785.665 -21.2136 780.987 -18.7135C776.31 -16.2133 772.521 -12.3002 770.157 -7.52949C770.029 -7.16937 769.997 -6.78223 770.066 -6.40748C770.134 -6.03273 770.3 -5.68368 770.547 -5.3961C772.751 -3.17964 775.712 -1.89106 778.838 -1.78871C781.963 -1.68637 785.021 -2.77786 787.399 -4.8443C782.774 4.50203 778.911 14.2064 775.849 24.1722C775.723 24.0369 775.551 23.9547 775.367 23.9419C770.336 24.0266 765.426 25.5868 761.239 28.4313C757.052 31.2758 753.77 35.2811 751.795 39.9565C751.63 40.3532 751.583 40.7878 751.658 41.2089C751.733 41.63 751.928 42.0196 752.218 42.3304C754 43.9811 756.254 45.0251 758.666 45.3165C761.078 45.6078 763.526 45.1318 765.668 43.9551C767.857 42.9961 769.94 41.8058 771.882 40.4044C769.878 50.7241 769.041 61.2296 769.386 71.7193C764.958 73.7691 761.187 77.0341 758.508 81.137C755.829 85.2399 754.352 90.013 754.248 94.9039C754.224 95.4293 754.361 95.9479 754.641 96.3895C754.921 96.831 755.329 97.1742 755.811 97.3725C758.155 98.1741 760.697 98.1998 763.069 97.4458C765.441 96.6918 767.519 95.1972 768.999 93.18C769.767 92.3479 770.503 91.426 771.24 90.5041C771.567 92.4578 771.954 94.4405 772.371 96.362C767.517 101.837 764.05 108.409 762.271 115.51C761.284 119.907 761.313 128.385 768.065 126.813C770.316 125.879 772.345 124.471 774.016 122.684C775.687 120.897 776.96 118.773 777.75 116.455C779.085 113.231 779.68 109.75 779.491 106.275C779.302 102.799 778.333 99.4177 776.658 96.385C775.92 92.9622 775.303 89.597 774.836 86.2284C777.17 88.6914 779.892 90.7494 782.894 92.3207C785.731 93.6742 792.197 97.359 794.574 93.7748C797.598 89.3009 792.924 80.9288 789.944 77.8588C787.783 75.7598 785.22 74.1259 782.408 73.0544C779.597 71.9829 776.594 71.4962 773.581 71.6237C773.292 61.941 774.019 52.2459 775.751 42.6998C777.243 45.5921 779.193 48.2173 781.525 50.4733C783.956 52.8318 787.728 56.7286 790.581 52.9224C791.905 50.5468 792.658 47.8966 792.781 45.1845C792.904 42.4724 792.394 39.7741 791.29 37.3074C789.027 32.1654 784.913 28.0891 779.77 25.8931C782.508 16.7436 785.929 7.81036 790.003 -0.830443C789.95 2.29005 790.529 5.38335 791.703 8.26133C792.877 11.1393 794.622 13.7417 796.833 15.9103C797.147 16.1233 797.513 16.2479 797.893 16.271C798.272 16.2942 798.652 16.2153 798.993 16.0422C801.514 14.5813 803.628 12.4993 805.135 9.99387C806.641 7.48845 807.491 4.64245 807.603 1.7257C807.765 -1.73374 807.183 -5.18128 805.897 -8.38081C804.61 -11.5803 802.649 -14.4562 800.148 -16.8112C799.831 -17.1469 799.402 -17.3519 798.941 -17.3871C804.906 -28.0227 811.683 -38.3449 818.792 -48.584C817.998 -45.3719 818.019 -42.0164 818.855 -38.8287C819.691 -35.641 821.315 -32.7242 823.575 -30.3484C823.95 -29.9347 824.468 -29.6807 825.025 -29.6374C825.581 -29.5941 826.136 -29.7649 826.576 -30.1151C828.574 -31.7768 830.191 -33.8557 831.312 -36.2059C832.434 -38.5561 833.033 -41.1205 833.068 -43.7194C832.134 -49.1447 829.44 -54.0911 825.406 -57.7862C831.817 -66.5612 838.379 -75.1887 845.182 -83.7012C844.679 -77.7893 846.482 -71.9323 850.208 -67.372C850.521 -67.013 850.946 -66.7703 851.414 -66.6826C851.882 -66.5949 852.367 -66.667 852.792 -66.8876C854.676 -68.2576 856.265 -69.9976 857.464 -72.0014C858.662 -74.0052 859.444 -76.2307 859.761 -78.5416C860.037 -81.4253 859.676 -84.3294 858.705 -87.0458C857.734 -89.7622 856.177 -92.2236 854.145 -94.254L853.541 -94.542C861.37 -104.737 869.08 -114.839 876.31 -125.021C876.208 -121.331 877.01 -117.681 878.645 -114.392C880.281 -111.104 882.699 -108.278 885.687 -106.166C886.082 -105.914 886.547 -105.795 887.015 -105.828C887.483 -105.86 887.93 -106.042 888.292 -106.346C889.862 -108.302 890.997 -110.572 891.62 -113.003C892.243 -115.433 892.338 -117.966 891.9 -120.428C891.43 -123.246 890.372 -125.927 888.793 -128.294C887.215 -130.661 885.154 -132.66 882.745 -134.159L882.201 -134.418C889.021 -144.307 895.28 -154.573 900.95 -165.167C902.144 -167.668 898.722 -170.125 897.439 -167.592L897.142 -167.434Z" fill="#92D660"/>
<path fill-rule="evenodd" clip-rule="evenodd" d="M1115.17 -54.1416C1109.28 -44.1731 1103.91 -33.9008 1099.1 -23.3683C1099.55 -23.5059 1100.02 -23.5046 1100.46 -23.3651C1103.41 -22.4409 1106.11 -20.8417 1108.33 -18.6922C1110.56 -16.5426 1112.25 -13.901 1113.28 -10.9735C1114.42 -7.47349 1115.66 0.622151 1111.89 3.31882C1108.11 6.01549 1101.78 -0.657864 1099.32 -3.24577C1096.92 -5.69083 1095.12 -8.67115 1094.08 -11.9495C1089.61 -1.62085 1085.38 8.94791 1081.1 19.9658C1081.42 19.8651 1081.75 19.8108 1082.08 19.8049C1084.86 19.9248 1087.58 20.6212 1090.06 21.8503C1092.54 23.0793 1094.74 24.8144 1096.52 26.946C1099.03 30.0564 1103.12 38.325 1100.04 42.2844C1096.95 46.2438 1089.41 41.5281 1086.32 39.6575C1082.37 37.3801 1079.21 33.9509 1077.26 29.8199C1073 40.6881 1068.79 51.593 1064.02 62.1306C1064.24 62.2058 1064.43 62.3318 1064.58 62.4979C1067.43 63.7172 1069.94 65.6249 1071.87 68.0531C1073.8 70.4812 1075.11 73.3555 1075.67 76.423C1076.7 80.0924 1078.61 86.4428 1073.36 87.3624C1070.84 87.3359 1068.36 86.7411 1066.1 85.6222C1063.84 84.5033 1061.87 82.8884 1060.33 80.8964C1059.27 79.6601 1058.4 78.2723 1057.75 76.7776C1053.01 87.4084 1048.02 97.7992 1042.5 107.766C1045.82 111.865 1047.76 116.921 1048.04 122.217C1048.32 127.514 1046.93 132.781 1044.07 137.272C1043.83 137.569 1043.52 137.796 1043.16 137.931C1042.8 138.067 1042.42 138.105 1042.05 138.043C1039.01 137.305 1036.37 135.438 1034.67 132.816C1032.96 130.195 1032.31 127.013 1032.85 123.909C1027.25 132.704 1020.94 141.032 1014 148.81C1014.18 148.848 1014.34 148.952 1014.45 149.104C1016.98 153.452 1018.19 158.461 1017.92 163.516C1017.65 168.57 1015.92 173.451 1012.95 177.561C1012.69 177.907 1012.34 178.173 1011.94 178.326C1011.55 178.48 1011.11 178.515 1010.7 178.428C1008.36 177.758 1006.3 176.369 1004.8 174.456C1003.31 172.543 1002.45 170.202 1002.34 167.76C1002.03 165.391 1001.97 162.992 1002.17 160.605C994.373 167.661 985.817 173.815 976.663 178.949C977.201 183.798 976.36 188.715 974.235 193.131C972.111 197.547 968.792 201.281 964.661 203.901C964.223 204.194 963.709 204.344 963.186 204.334C962.663 204.323 962.158 204.151 961.739 203.841C959.84 202.251 958.503 200.089 957.92 197.669C957.338 195.249 957.541 192.698 958.501 190.387C958.815 189.299 959.223 188.192 959.631 187.085C957.79 187.816 955.893 188.511 954.033 189.149C951.861 196.136 948.032 202.504 942.877 207.701C939.625 210.822 932.356 215.184 930.207 208.594C929.841 206.184 929.995 203.719 930.659 201.365C931.324 199.01 932.482 196.821 934.057 194.946C936.125 192.135 938.795 189.824 941.867 188.187C944.938 186.55 948.333 185.629 951.795 185.493C955.105 184.353 958.304 183.139 961.428 181.795C958.113 181.073 954.943 179.809 952.045 178.053C949.418 176.327 942.919 172.701 944.755 168.812C947.018 163.909 956.601 163.575 960.77 164.536C963.684 165.299 966.409 166.646 968.781 168.497C971.153 170.348 973.124 172.666 974.574 175.31C983.009 170.546 990.928 164.906 998.2 158.483C994.953 158.704 991.697 158.394 988.56 157.566C985.283 156.706 979.997 155.496 981.777 151.085C983.125 148.723 985.002 146.707 987.259 145.197C989.516 143.688 992.089 142.729 994.771 142.396C1000.34 141.671 1005.96 143.082 1010.5 146.346C1016.91 139.267 1022.78 131.717 1028.07 123.759C1025.43 125.419 1022.48 126.525 1019.41 127.01C1016.34 127.495 1013.21 127.348 1010.21 126.579C1009.87 126.421 1009.57 126.172 1009.35 125.859C1009.14 125.546 1009.01 125.181 1008.98 124.799C1008.93 121.886 1009.61 119 1010.98 116.414C1012.34 113.828 1014.34 111.628 1016.77 110.023C1019.65 108.093 1022.9 106.807 1026.3 106.252C1029.71 105.697 1033.18 105.886 1036.49 106.807C1036.94 106.905 1037.34 107.166 1037.61 107.542C1043.62 96.9338 1048.95 85.792 1054.03 74.4099C1051.69 76.7524 1048.81 78.4705 1045.65 79.405C1042.49 80.3394 1039.15 80.46 1035.95 79.7557C1035.4 79.6488 1034.92 79.3371 1034.59 78.8832C1034.27 78.4294 1034.13 77.8667 1034.2 77.3089C1034.59 74.7389 1035.53 72.2796 1036.96 70.1037C1038.39 67.9277 1040.27 66.0878 1042.48 64.7131C1047.6 62.7037 1053.23 62.4486 1058.48 63.9879C1062.67 53.9614 1066.66 43.8814 1070.42 33.6543C1065.62 37.1443 1059.68 38.6333 1053.85 37.8056C1053.38 37.7231 1052.95 37.4855 1052.63 37.1304C1052.31 36.7753 1052.13 36.3232 1052.09 35.845C1052.29 33.5242 1052.96 31.2635 1054.05 29.2011C1055.15 27.1387 1056.65 25.318 1058.46 23.8503C1060.78 22.1218 1063.45 20.9272 1066.28 20.3521C1069.11 19.7769 1072.02 19.8356 1074.81 20.5238L1075.37 20.8911C1080.04 8.91579 1084.69 -2.91001 1089.66 -14.3655C1086.56 -12.3687 1083.02 -11.1657 1079.36 -10.8631C1075.7 -10.5604 1072.03 -11.1675 1068.68 -12.6303C1068.26 -12.8376 1067.91 -13.1743 1067.7 -13.5918C1067.49 -14.0092 1067.41 -14.4857 1067.48 -14.9524C1068.34 -17.3084 1069.7 -19.4548 1071.46 -21.2454C1073.21 -23.0361 1075.33 -24.4286 1077.66 -25.3278C1080.32 -26.3848 1083.16 -26.8666 1086 -26.7414C1088.84 -26.6161 1091.62 -25.8865 1094.15 -24.601L1094.65 -24.2703C1099.59 -35.2234 1105.13 -45.8928 1111.26 -56.2271C1112.78 -58.5429 1116.66 -56.887 1115.15 -54.478L1115.17 -54.1416Z" fill="#92D660"/>
<path fill-rule="evenodd" clip-rule="evenodd" d="M940.511 619.888C941.437 615.283 942.245 609.15 942.97 604.186L944.293 595.316C944.293 595.316 943.808 596.172 943.069 597.62C942.331 599.068 941.334 601.054 940.29 603.414C938.024 608.346 936.259 613.49 935.02 618.77C934.631 620.573 934.352 622.398 934.185 624.234C932.032 621.461 929.933 618.683 927.862 615.858C928.236 615.7 928.542 615.412 928.722 615.048C929.899 612.536 930.682 609.859 931.046 607.111C932.006 602.513 932.794 596.392 933.526 591.396L934.863 582.546L933.625 584.829C932.887 586.277 931.883 588.297 930.846 590.624C928.575 595.553 926.809 600.698 925.577 605.98C925.185 607.794 924.903 609.63 924.734 611.477C922.097 607.726 919.554 603.943 917.067 600.067C918.108 599.628 919.478 597.775 921.959 592.143C925.051 584.23 927.608 576.119 929.612 567.867C924.863 574.917 920.596 582.278 916.84 589.9C915.933 591.875 915.163 593.91 914.537 595.99L914.016 595.178C913.986 594.946 913.905 594.725 913.779 594.528C913.653 594.332 913.485 594.166 913.287 594.041C912.506 592.824 911.765 591.58 911.065 590.31C910.323 589.154 909.696 587.952 909.015 586.756C909.336 586.814 909.668 586.775 909.968 586.644C910.268 586.513 910.522 586.295 910.698 586.02C911.952 583.783 912.845 581.363 913.343 578.851C914.456 574.67 915.475 569.089 916.414 564.504L918.058 556.402L916.772 558.43C915.97 559.69 914.91 561.487 913.77 563.565C911.341 567.96 909.382 572.597 907.927 577.399C907.419 579.164 907.047 580.964 906.811 582.784C905.166 579.772 903.581 576.721 902.038 573.643C903.031 573.264 904.197 571.542 906.098 565.767C908.262 558.106 909.863 550.299 910.89 542.409C907.012 549.372 903.638 556.601 900.793 564.043C900.195 565.859 899.765 567.338 899.501 568.481C899.423 568.359 899.345 568.238 899.254 568.096C899.303 567.83 899.285 567.557 899.2 567.3C899.116 567.044 898.969 566.813 898.773 566.628C898.694 566.507 898.603 566.365 898.397 566.268C897.47 564.284 896.529 562.281 895.642 560.272C896.647 560 897.661 558.489 899.088 552.961C900.498 545.946 901.345 538.83 901.621 531.683C898.437 538.097 895.778 544.757 893.67 551.597C893.416 552.59 893.205 553.471 893.056 554.225C891.884 551.368 890.752 548.484 889.654 545.608C890.802 545.559 891.813 544.222 893.302 537.537C894.493 529.974 895.117 522.334 895.168 514.682C892.178 521.737 889.719 529.002 887.812 536.419L887.282 539.223C886.683 537.573 886.098 535.943 885.519 534.281C886.35 533.604 886.696 531.634 885.237 525.237C883.209 517.536 880.627 509.992 877.509 502.665C877.68 510.633 878.433 518.575 879.763 526.429C879.971 527.471 880.208 528.378 880.414 529.192C875.242 525.308 869.774 521.834 864.058 518.802C868.057 524.221 872.511 529.289 877.372 533.951C882.504 538.364 883.742 538.142 884.665 537.206C885.754 540.605 886.923 543.951 888.241 547.259C887.46 546.758 886.531 546.208 885.37 545.607C881.379 543.687 877.148 542.308 872.789 541.504C870.712 541.09 868.9 540.82 867.602 540.679C866.304 540.538 865.501 540.451 865.501 540.451L867.318 541.491L871.842 544.06C875.356 546.131 879.529 548.782 882.835 550.528C884.722 551.723 886.812 552.566 889.003 553.016C889.255 553.048 889.511 553.019 889.75 552.931C889.989 552.842 890.203 552.698 890.373 552.509C891.136 554.369 891.931 556.236 892.74 558.123C892.729 558.424 892.786 558.722 892.907 558.997C893.028 559.271 893.211 559.515 893.441 559.708C894.147 561.346 894.894 562.958 895.641 564.57C894.85 564.189 893.926 563.78 892.809 563.293C889.211 561.763 884.361 560.12 880.362 558.503L875.365 556.496C874.114 555.981 873.35 555.64 873.35 555.64C873.35 555.64 873.915 556.252 874.888 557.231C875.862 558.211 877.259 559.492 878.941 560.904C882.458 563.909 886.36 566.434 890.545 568.413C892.687 569.574 895.07 570.221 897.509 570.304C897.772 570.288 898.028 570.212 898.257 570.082C898.622 570.65 898.844 571.31 899.147 571.917C899.156 572.147 899.216 572.372 899.322 572.576C899.429 572.781 899.579 572.959 899.762 573.098C900.782 575.137 901.823 577.162 902.904 579.161L902.478 579.033C901.378 578.708 899.908 578.39 897.966 577.917C896.024 577.445 893.726 577 891.411 576.394C889.096 575.788 886.74 575.209 884.635 574.526C882.529 573.843 880.698 573.185 879.38 572.655L877.245 571.791C877.245 571.791 877.843 572.41 878.904 573.391C882.146 576.347 885.791 578.83 889.732 580.766C891.924 581.841 894.225 582.679 896.597 583.265C898.246 583.668 899.929 583.921 901.624 584.021C902.53 584.093 903.442 583.994 904.312 583.729C904.611 583.62 904.882 583.446 905.106 583.219C906.571 585.861 908.043 588.468 909.536 591.063L910.551 592.646C909.564 592.362 908.283 592.067 906.68 591.721C902.826 590.957 897.667 590.4 893.439 589.904L885.906 589.008L887.803 590.083C889.004 590.744 890.684 591.615 892.709 592.664C896.807 594.673 901.121 596.21 905.568 597.247C907.871 597.934 910.299 598.107 912.68 597.755C912.937 597.671 913.168 597.522 913.352 597.323C915.6 601.037 917.944 604.689 920.383 608.281C919.029 607.918 917.045 607.559 914.572 607.111C909.813 606.326 903.436 605.663 898.284 605.072L889.107 603.943L891.57 605.227C893.079 605.921 895.192 606.885 897.634 607.867C902.8 610.022 908.171 611.653 913.667 612.734C916.527 613.427 919.493 613.583 922.415 613.194C922.769 613.119 923.1 612.956 923.376 612.721C925.535 615.862 927.768 618.984 930.05 622.046C927.856 621.688 925.645 621.443 923.426 621.312C918.605 620.968 912.222 620.967 907.021 620.838L897.521 620.774C897.521 620.774 898.453 621.15 900.024 621.718C901.596 622.285 903.754 623.049 906.321 623.779C911.685 625.423 917.204 626.517 922.793 627.046C925.701 627.467 928.664 627.344 931.53 626.683C931.989 626.592 932.397 626.33 932.67 625.951C938.8 633.915 945.374 641.528 952.362 648.752C953.204 649.616 954.443 648.276 953.655 647.407C948.093 641.293 942.701 635.041 937.541 628.612C937.794 628.433 938.01 628.207 938.177 627.946C939.342 625.386 940.128 622.672 940.511 619.888Z" fill="#92D660"/>
<path fill-rule="evenodd" clip-rule="evenodd" d="M689.415 544.59C689.864 544.59 690.002 540.042 692.143 537.463C695.596 533.152 707.647 537.802 701.742 544.862C700.05 546.898 697.702 548.459 697.84 548.595C699.043 548.249 700.283 548.044 701.535 547.984C711.514 547.781 709.615 564.208 698.082 560.033C696.183 559.354 696.597 559.354 697.495 560.984C697.944 561.798 698.635 562.749 699.222 563.733C699.804 564.71 699.985 565.868 699.729 566.972C699.472 568.075 698.797 569.041 697.84 569.672C694.94 571.539 689.76 571.268 688.552 567.704C688.101 566.186 687.8 564.629 687.654 563.054C686.929 556.979 689.243 571.268 679.298 570.996C675.12 570.996 671.908 567.602 676.708 562.002C677.413 561.214 678.162 560.466 678.953 559.762C680.023 558.879 680.058 558.71 678.676 559.083C676.847 559.728 674.863 559.823 672.979 559.355C670.458 558.438 669.077 552.159 670.7 549.172C673.048 544.76 677.295 546.355 680.023 547.238C682.751 548.12 683.476 547.883 680.645 546.186C679.649 545.63 678.702 544.994 677.813 544.285C670.7 538.277 684.339 529.453 688.172 539.703C689.07 542.18 689.381 544.658 689.657 544.658L689.415 544.59ZM686.618 548.527C685.41 549.512 687.24 550.734 688.31 550.19C689.381 549.647 688.31 547.136 686.618 548.527ZM692.419 550.496C691.314 548.459 690.14 547.645 689.415 550.496C688.966 552.363 688.794 554.976 691.349 554.128C691.668 553.998 691.954 553.801 692.187 553.55C692.419 553.3 692.593 553.002 692.695 552.678C692.798 552.354 692.826 552.011 692.778 551.675C692.73 551.339 692.608 551.018 692.419 550.733V550.496ZM685.513 551.344C682.993 552.464 683.718 554.738 685.72 554.738C690.14 554.738 688.517 549.851 685.513 551.344ZM687.62 555.417C684.167 557.013 687.62 558.37 690.555 557.148C693.49 555.926 690.727 553.856 687.585 555.417H687.62Z" fill="#92D660"/>
<circle cx="617" cy="580" r="3" fill="#92D660"/>
<circle cx="743" cy="567" r="4" fill="#92D660"/>
</g>
</g>
</g>
<defs>
<clipPath id="clip0_442_4854">
<rect width="1032" height="611" fill="white"/>
</clipPath>
<clipPath id="clip1_442_4854">
<rect width="1440" height="7896" fill="white" transform="translate(0 -1928)"/>
</clipPath>
<clipPath id="clip2_442_4854">
<rect width="1440" height="611" fill="white"/>
</clipPath>
</defs>
</svg>
