<svg viewBox="0 0 597 561" fill="none" xmlns="http://www.w3.org/2000/svg">
<g clip-path="url(#clip0_414_4853)">
<rect width="597" height="561" fill="white"/>
<g filter="url(#filter0_ddddd_414_4853)">
<g clip-path="url(#clip1_414_4853)">
<path d="M597 7.99999C597 5.19973 597 3.79961 596.455 2.73005C595.976 1.78924 595.211 1.02433 594.27 0.544967C593.2 0 591.8 0 589 0H0V561H589C591.8 561 593.2 561 594.27 560.455C595.211 559.976 595.976 559.211 596.455 558.27C597 557.2 597 555.8 597 553V7.99999Z" fill="#A3E3FF"/>
<path opacity="0.2" d="M-229 780L764 788.686V127C724.024 127.294 671.8 131.231 615.053 144.729C571.973 154.96 526.265 170.709 481.276 194.543C467.014 202.096 452.86 210.488 438.812 219.72C252.958 342.624 246.659 364.681 246.659 364.681C246.659 364.681 233.684 346.75 209.27 334.609C187.101 323.608 155.501 317.391 115.589 333.742C113.351 334.665 111.086 335.651 108.786 336.721C102.696 339.558 96.7635 342.721 91.0146 346.197C80.4174 352.643 70.3129 359.866 60.7847 367.807C-56.9259 465.087 -229 780 -229 780Z" fill="white"/>
<path d="M172 238.669C172 238.669 476.621 246.953 667.263 180.61C761.829 147.705 841.611 101.526 898 63.3466V-31H650.907C588.688 -1.42867 522.234 33.4025 501.483 54.1108C460.043 95.5824 451.751 122.538 451.751 122.538C451.751 122.538 408.235 114.254 373.004 147.387L337.78 180.562C337.78 180.562 290.118 161.925 238.309 199.199C186.501 236.474 172 238.669 172 238.669Z" fill="url(#paint0_linear_414_4853)"/>
<path d="M152 308.333C154.576 308.928 294.922 341.14 496.358 295.883C638.147 263.989 781.973 193.714 856 154.101V115C787.885 152.925 646.905 225.206 494.286 266.756C282.69 324.374 154.5 308.672 152 308.333Z" fill="white"/>
<path d="M1232.67 309.131L1024.01 388.047L978.279 405.346L896.829 436.177L797.394 473.796L691.127 513.981L435.221 469.082L411.953 384.33C411.953 384.33 437.008 351.292 486.598 313.728C497.989 305.098 510.68 296.225 524.66 287.462C552.656 269.905 582.248 255.031 613.041 243.039C628.166 237.147 644.121 231.742 660.933 226.995C690.395 218.714 720.514 212.976 750.958 209.846C975.292 186.578 1232.67 309.131 1232.67 309.131Z" fill="#FFED8F"/>
<path style="mix-blend-mode:multiply" d="M898.849 437.509L815.762 490.684C815.762 490.684 808.83 483.907 797.395 473.762C771.688 450.941 723.204 411.038 679.494 392.638C621.639 368.297 517.402 320.72 486.594 313.728C497.984 305.097 510.675 296.224 524.655 287.461C577.327 296.246 732.288 325.456 807.453 376.02L896.83 436.176L898.849 437.509Z" fill="#FFED8F"/>
<path d="M794.158 641.907L787.437 645.646H-50.6006H-247C-247 645.646 -182.5 548.821 -134 503.821C-85.5 458.821 -36.1562 434.269 -27.2605 430.446C-8.79416 422.518 14.3302 413.44 41.2386 404.611C76.1168 393.138 111.714 383.981 147.799 377.199C189.174 369.454 234.532 364.397 282.33 364.397H283.895C413.348 364.586 517.169 388.844 574.377 405.96C586.625 409.634 596.727 412.97 604.494 415.669C616.565 419.874 622.988 422.551 622.988 422.551L634.329 437.079L794.158 641.907Z" fill="#81BD55"/>
<path style="mix-blend-mode:multiply" d="M638.067 508.831L606.5 562C606.5 562 385.36 429.201 229.155 394.304C196.858 387.112 170.033 381.503 147.799 377.193C189.174 369.448 234.532 364.392 282.33 364.392H283.895C349.313 373.73 431.864 391.4 485.066 424.205C583.666 485.02 637.801 508.963 638.067 508.831Z" fill="#FFED8F"/>
<path style="mix-blend-mode:multiply" d="M441.861 570.447L385.361 640.241C385.361 640.241 199.464 514.756 68.5 461.32C24 443.163 -5 435.32 -27.2598 430.44C-8.79346 422.512 14.3309 413.434 41.2393 404.604C117.749 428.36 327.362 495.121 378.7 528.906L441.861 570.447Z" fill="#FFED8F"/>
<path style="mix-blend-mode:multiply" d="M293 652.32L228 712.32C228 712.32 99.084 609.895 -37 571.32C-100.5 553.32 -142.74 541.201 -165 536.32C-150 520.32 -149.5 516.82 -128.5 499.32C-43.9991 512.32 24 529.82 94.5 559.82C165 589.82 293 652.32 293 652.32Z" fill="#FFED8F"/>
<path d="M462.219 313.91L484.237 339.043" stroke="#D9FFF5" stroke-width="4.42572" stroke-miterlimit="10"/>
<path d="M588.119 236.693L598.829 264.398" stroke="#D9FFF5" stroke-width="4.42572" stroke-miterlimit="10"/>
<path d="M599.002 231.936L608.988 259.912" stroke="#D9FFF5" stroke-width="4.42572" stroke-miterlimit="10"/>
<path d="M460.975 327C460.975 327 543.653 263.02 590.593 242.662C637.533 222.304 677.42 213.585 677.42 213.585" stroke="#D9FFF5" stroke-width="4.42572" stroke-miterlimit="10"/>
<path d="M465.014 335.907C465.014 335.907 547.686 271.933 594.632 251.575C641.578 231.216 681.459 222.492 681.459 222.492" stroke="#D9FFF5" stroke-width="4.42572" stroke-miterlimit="10"/>
<path d="M190.147 457.199C190.147 457.199 187.265 440.348 191.923 446.777C196.581 453.205 198.13 454.981 198.13 454.981C198.13 454.981 200.57 443.916 201.449 448.995C202.329 454.074 202.783 456.978 202.783 456.978C202.783 456.978 207.435 445.67 207.657 451.213C207.878 456.757 207.657 457.852 207.657 457.852C207.657 457.852 215.402 446.544 215.402 452.973C215.402 459.401 215.18 461.619 215.18 461.619H196.598L204.138 459.406L190.147 457.199Z" fill="#5EAD41"/>
<path d="M584.302 282.292C584.728 281.739 582.642 270.675 585.707 275.001C588.772 279.327 589.209 280.749 589.209 280.749C589.209 280.749 590.868 275.145 592.014 277.806C592.518 278.894 592.94 280.018 593.275 281.169C593.275 281.169 596.5 273.74 596.644 277.667C596.788 281.595 595.101 283.697 595.101 283.697L590.055 283.554L592.014 282.713L584.302 282.292Z" fill="#265113"/>
<path d="M345.821 459.158C346.374 458.461 343.73 444.702 347.564 450.101C351.397 455.501 351.918 457.243 351.918 457.243C351.918 457.243 354.003 450.278 355.397 453.587C356.023 454.938 356.548 456.334 356.968 457.763C356.968 457.763 360.968 448.536 361.145 453.41C361.322 458.283 359.231 460.9 359.231 460.9L352.963 460.723L355.397 459.678L345.821 459.158Z" fill="#5EAD41"/>
<path d="M375.736 411.171C376.262 410.474 373.645 396.721 377.479 402.12C381.313 407.52 381.833 409.257 381.833 409.257C381.833 409.257 383.918 402.292 385.313 405.6C385.94 406.951 386.463 408.347 386.878 409.777C386.878 409.777 390.883 400.549 391.06 405.429C391.237 410.308 389.146 412.914 389.146 412.914L382.878 412.742L385.313 411.697L375.736 411.171Z" fill="#5EAD41"/>
<path d="M152.782 413.943C149.463 408.222 157.208 384.152 166.574 391.322C175.94 398.491 183.541 408.012 178.297 414.905C173.052 421.798 156.157 419.724 152.782 413.943Z" fill="#265113"/>
<path d="M174.586 384.012C172.098 379.709 177.904 361.601 184.926 366.994C191.947 372.388 197.646 379.55 193.714 384.736C189.782 389.922 177.116 388.361 174.586 384.012Z" fill="#265113"/>
<path d="M96.5864 400.012C94.098 395.709 99.9043 377.601 106.926 382.994C113.947 388.388 119.646 395.55 115.714 400.736C111.782 405.922 99.1163 404.361 96.5864 400.012Z" fill="#265113"/>
<path style="mix-blend-mode:multiply" opacity="0.5" d="M178.297 414.905C173.235 421.543 157.303 419.884 153.176 414.523C159.61 417.167 169.982 417.007 173.883 411.873C178.662 405.589 172.776 397.13 164.611 390.248C165.32 390.495 165.984 390.857 166.575 391.321C175.952 398.491 183.542 407.995 178.297 414.905Z" fill="url(#paint1_linear_414_4853)"/>
<path style="mix-blend-mode:multiply" opacity="0.5" d="M193.721 384.707C189.949 389.743 178.075 388.484 175 384.417C179.795 386.423 187.524 386.301 190.431 382.407C193.993 377.639 189.606 371.221 183.521 366C184.05 366.187 184.545 366.462 184.985 366.814C191.973 372.254 197.629 379.464 193.721 384.707Z" fill="url(#paint2_linear_414_4853)"/>
<path style="mix-blend-mode:multiply" opacity="0.5" d="M115.721 400.707C111.949 405.743 100.075 404.484 97 400.417C101.795 402.423 109.524 402.301 112.431 398.407C115.993 393.639 111.606 387.221 105.521 382C106.05 382.187 106.545 382.462 106.985 382.814C113.973 388.254 119.629 395.464 115.721 400.707Z" fill="url(#paint3_linear_414_4853)"/>
<path d="M553.782 379.943C550.463 374.222 558.208 350.152 567.579 357.322C576.951 364.491 584.541 374.012 579.302 380.905C574.063 387.798 557.162 385.729 553.782 379.943Z" fill="#265113"/>
<path style="mix-blend-mode:multiply" opacity="0.5" d="M579.301 380.905C574.239 387.544 558.279 385.884 554.18 380.523C560.614 383.168 570.981 383.007 574.887 377.874C579.661 371.589 573.78 363.13 565.615 356.254C566.325 356.496 566.989 356.857 567.579 357.322C576.956 364.497 584.54 374.012 579.301 380.905Z" fill="url(#paint4_linear_414_4853)"/>
<path fill-rule="evenodd" clip-rule="evenodd" d="M60.7847 474.017C60.254 476.454 59.8413 480.287 59.6447 482.43C59.5071 483.923 59.5268 484.258 58.1706 484.218C56.775 484.199 55.4778 483.707 55.1436 482.783C54.3181 480.484 55.0847 478.302 54.6522 476.277C54.1215 473.801 53.355 470.637 53.5123 468.14C53.6892 465.408 52.2543 464.425 50.8195 462.027C49.306 459.492 47.9498 456.209 48.4608 449.782C46.1612 450.647 44.0383 448.858 43.2521 446.637C43.2325 446.578 43.1932 446.559 43.1342 446.559C42.859 446.559 42.5839 446.539 42.3284 446.5C40.6774 446.343 40.1074 444.691 40.0091 443.63C39.9501 442.942 40.2056 442.647 40.3235 442.667C40.4415 442.706 40.4218 443.099 40.5987 443.65C40.7756 444.22 41.2474 444.829 41.7388 445.183C42.0336 445.399 42.4267 445.478 42.8395 445.478C42.8788 445.478 42.9771 445.478 42.9967 445.478C42.9967 445.478 42.977 445.085 42.9574 445.045C42.8984 443.728 42.9966 442.411 44.1366 441.271C45.0408 440.367 46.9671 440.977 47.3798 442.608C47.6943 443.886 46.8884 444.868 46.3971 445.438C46.0826 445.792 45.4929 446.166 44.7853 446.362C44.6281 446.402 44.6673 446.362 44.746 446.5C45.4535 447.738 46.8098 448.446 48.1267 447.62C48.6967 447.266 49.0308 446.46 49.3257 445.596C51.9398 437.733 59.0747 433.488 67.0941 431.935C83.8797 428.653 90.9752 434.254 102.867 444.927C107.112 448.74 111.397 451.649 114.542 454.106C115.564 454.912 115.092 454.893 116.39 454.794C119.456 454.558 122.994 456.701 125.156 454.716C125.647 454.264 125.588 455.266 125.451 456.288C124.94 459.806 123.721 462.224 119.692 461.123C119.593 461.104 119.829 461.713 119.869 461.831C121.166 465.506 121.873 469.595 122.935 473.565C123.249 474.744 123.662 475.747 124.586 476.454C125.608 477.241 126.512 477.339 125.863 478.97C122.935 486.42 119.633 481.722 113.009 481.604C105.284 481.486 104.164 480.209 102.198 478.636C100.39 477.182 99.5646 477.3 98.8177 479.973C98.2084 482.154 97.9332 484.611 98.1888 487.481C98.3067 488.798 98.5032 489.289 97.8939 489.447C96.7932 489.741 95.1422 489.545 94.356 488.641C93.668 487.855 92.8621 485.968 92.4297 484.238C91.9973 482.567 92.2725 481.722 92.0366 480.268C91.8794 479.265 91.9777 478.813 91.6632 478.754C91.447 478.715 91.0932 479.56 90.7591 480.484C89.9532 482.764 89.6583 485.358 89.5601 487.776C89.5404 488.405 89.4028 488.975 88.4987 488.877C87.398 488.759 86.0811 488.346 85.6093 487.54C85 486.518 84.5086 484.218 84.2728 482.351C84.1155 481.113 84.3907 480.13 84.2925 479.01C84.0566 476.395 82.5235 476.395 80.3417 475.963C76.6662 475.236 73.3248 475.904 69.8065 474.155C68.7255 473.624 68.6468 474.096 68.6272 475.079C68.5879 476.219 68.6272 477.594 68.7058 478.636C68.8631 480.425 69.1972 482.174 69.3741 483.923C69.4331 484.493 69.2758 484.808 68.2537 484.847C66.8779 484.906 66.013 484.631 65.3251 483.943C64.362 483 64.4209 481.113 63.8706 479.58C63.3399 478.027 62.9861 476.828 62.7503 475.845C62.5734 475.059 61.4727 471.148 60.8437 473.998L60.7847 474.017ZM44.3333 445.104C44.9819 444.77 45.5322 444.279 45.7877 443.689C46.4757 442.117 45.1392 442.038 44.5888 442.824C44.235 443.335 44.117 444.2 44.2546 445.065C44.2546 445.124 44.294 445.124 44.3333 445.085V445.104Z" fill="#F5AFB4"/>
<path fill-rule="evenodd" clip-rule="evenodd" d="M112.045 469.339C112.969 469.594 113.716 469.457 113.5 468.553C113.224 467.413 112.36 467.432 111.554 467.825C110.138 468.513 110.807 469.005 112.065 469.339H112.045Z" fill="#845B00"/>
<path fill-rule="evenodd" clip-rule="evenodd" d="M115.111 451.06C110.747 449.389 101.313 460.907 104.89 461.536C107.995 462.067 110.275 461.91 111.985 460.947C113.676 459.983 114.167 458.529 114.246 456.957C114.383 454.637 113.518 453.674 115.012 451.65C115.228 451.355 115.346 451.158 115.111 451.06V451.06Z" fill="#E7868C"/>
<mask id="mask0_414_4853" style="mask-type:alpha" maskUnits="userSpaceOnUse" x="104" y="450" width="12" height="12">
<path fill-rule="evenodd" clip-rule="evenodd" d="M115.111 451.06C110.747 449.389 101.313 460.907 104.89 461.536C107.995 462.067 110.275 461.91 111.985 460.947C113.676 459.983 114.167 458.529 114.246 456.957C114.383 454.637 113.518 453.674 115.012 451.65C115.228 451.355 115.346 451.158 115.111 451.06V451.06Z" fill="#E7868C"/>
</mask>
<g mask="url(#mask0_414_4853)">
<path fill-rule="evenodd" clip-rule="evenodd" d="M109.213 469.831C109.468 468.868 109.645 467.846 109.783 466.824C109.743 466.843 109.704 466.863 109.665 466.863C109.114 466.863 108.584 466.607 108.25 466.136C108.053 465.86 107.739 465.212 107.994 464.897C108.269 464.544 108.957 464.976 109.232 465.133C109.508 465.29 109.743 465.487 109.92 465.743C110.038 464.76 110.117 463.757 110.196 462.735C110.176 462.735 110.156 462.755 110.117 462.775C109.625 462.892 109.114 462.814 108.702 462.539C108.407 462.342 107.837 461.733 107.994 461.32C108.171 460.888 108.918 461.124 109.232 461.202C109.645 461.3 109.999 461.497 110.254 461.811C110.333 460.789 110.412 459.748 110.51 458.726C110.49 458.726 110.471 458.726 110.451 458.726C109.861 458.686 109.449 458.293 109.134 457.821C108.957 457.527 108.623 457.075 109.056 456.839C109.429 456.642 110.019 456.858 110.333 457.055C110.451 457.134 110.569 457.232 110.667 457.33C110.785 456.308 110.942 455.306 111.159 454.323C110.353 453.792 109.999 452.809 110.254 451.866C110.254 451.807 110.353 451.748 110.412 451.748C111.06 451.689 111.414 452.161 111.552 452.731C111.807 451.846 112.122 450.981 112.515 450.136C112.515 450.136 112.495 450.136 112.476 450.097C111.748 449.429 111.611 448.564 111.866 447.64C111.866 447.581 111.964 447.522 112.043 447.502C112.515 447.502 112.849 447.778 113.026 448.19C113.104 448.367 113.183 448.583 113.222 448.78C113.694 447.994 114.264 447.267 114.913 446.579C114.52 445.753 114.756 444.869 115.286 444.161C115.345 444.082 115.443 444.063 115.542 444.102C115.994 444.259 116.171 444.711 116.171 445.163C116.171 445.262 116.171 445.36 116.171 445.478C116.308 445.36 116.446 445.262 116.603 445.163C116.603 444.535 116.76 443.866 117.075 443.316C117.271 442.982 117.782 442.412 118.136 442.923C118.392 443.277 118.293 443.827 118.156 444.2C117.94 444.81 117.488 445.242 116.898 445.439C116.642 445.615 116.407 445.812 116.171 445.989C116.466 445.969 116.78 445.989 117.075 446.068C117.35 446.146 117.999 446.284 117.94 446.677C117.881 447.149 117.075 447.424 116.682 447.443C116.131 447.483 115.62 447.247 115.227 446.873C114.618 447.502 114.107 448.171 113.655 448.898C113.93 448.8 114.205 448.741 114.5 448.741C114.795 448.741 115.286 448.701 115.247 449.114C115.208 449.566 114.756 449.999 114.362 450.176C113.91 450.392 113.399 450.392 112.928 450.234C112.574 450.981 112.259 451.787 112.023 452.593C112.417 452.18 112.928 451.886 113.439 451.886C113.517 451.886 113.557 451.945 113.596 452.003C113.812 452.456 113.596 453.085 113.321 453.458C112.928 453.969 112.338 454.205 111.729 454.244C111.689 454.244 111.65 454.244 111.611 454.225C111.375 455.266 111.218 456.347 111.08 457.448C111.355 456.937 111.866 456.583 112.476 456.544C112.574 456.544 112.692 456.603 112.692 456.701C112.692 457.173 112.692 457.645 112.318 457.979C111.964 458.313 111.453 458.391 110.982 458.45C110.883 459.394 110.805 460.357 110.746 461.32C111.06 460.907 111.512 460.632 112.043 460.553C112.122 460.553 112.22 460.593 112.24 460.671C112.377 461.025 112.2 461.517 112.004 461.831C111.729 462.303 111.198 462.44 110.687 462.519C110.667 462.519 110.648 462.519 110.628 462.519C110.549 463.639 110.451 464.779 110.333 465.86C110.766 465.369 111.395 465.114 112.063 465.173C112.141 465.173 112.22 465.251 112.22 465.33C112.259 465.723 111.925 466.214 111.63 466.47C111.237 466.784 110.746 466.765 110.274 466.725C110.274 466.725 110.235 466.725 110.215 466.725C110.078 467.806 109.881 468.848 109.625 469.851C109.567 470.086 109.193 470.047 109.252 469.791L109.213 469.831Z" fill="#D1636E"/>
<path fill-rule="evenodd" clip-rule="evenodd" d="M107.858 459.551C107.72 459.315 107.426 459.237 107.19 459.374C106.954 459.512 106.875 459.807 107.013 460.043C107.151 460.278 107.445 460.357 107.681 460.22C107.917 460.082 107.996 459.787 107.858 459.551Z" fill="#D1636E"/>
<path fill-rule="evenodd" clip-rule="evenodd" d="M108.329 456.642C108.191 456.406 107.896 456.328 107.661 456.465C107.425 456.603 107.346 456.898 107.484 457.133C107.621 457.369 107.916 457.448 108.152 457.31C108.388 457.173 108.466 456.878 108.329 456.642Z" fill="#D1636E"/>
<path fill-rule="evenodd" clip-rule="evenodd" d="M106.878 458.569C106.74 458.333 106.445 458.254 106.209 458.392C105.973 458.53 105.895 458.824 106.032 459.06C106.17 459.296 106.465 459.375 106.701 459.237C106.937 459.1 107.015 458.805 106.878 458.569Z" fill="#D1636E"/>
</g>
<path fill-rule="evenodd" clip-rule="evenodd" d="M77.5092 448.23C76.094 447.974 74.6788 447.247 73.5192 445.203C71.9664 442.451 69.4113 440.937 66.915 440.544C61.8047 439.738 56.7925 443.571 60.4288 450.863C61.5294 453.065 60.8022 454.735 59.8784 456.19C58.7581 457.959 57.3822 459.413 58.6598 461.084C60.6646 463.679 64.694 460.612 67.5833 460.966C69.313 461.163 73.7943 467.315 78.1185 464.799C79.5533 463.954 80.1627 462.185 80.1234 459.669C80.1037 457.821 79.2782 456.662 80.7327 456.033C82.6196 455.227 84.9782 454.362 85.1748 452.357C85.5875 447.935 80.2217 448.721 77.5289 448.249L77.5092 448.23Z" fill="#E7868C"/>
<mask id="mask1_414_4853" style="mask-type:alpha" maskUnits="userSpaceOnUse" x="58" y="440" width="28" height="26">
<path fill-rule="evenodd" clip-rule="evenodd" d="M77.5092 448.23C76.094 447.974 74.6788 447.247 73.5192 445.203C71.9664 442.451 69.4113 440.937 66.915 440.544C61.8047 439.738 56.7925 443.571 60.4288 450.863C61.5294 453.065 60.8022 454.735 59.8784 456.19C58.7581 457.959 57.3822 459.413 58.6598 461.084C60.6646 463.679 64.694 460.612 67.5833 460.966C69.313 461.163 73.7943 467.315 78.1185 464.799C79.5533 463.954 80.1627 462.185 80.1234 459.669C80.1037 457.821 79.2782 456.662 80.7327 456.033C82.6196 455.227 84.9782 454.362 85.1748 452.357C85.5875 447.935 80.2217 448.721 77.5289 448.249L77.5092 448.23Z" fill="#E7868C"/>
</mask>
<g mask="url(#mask1_414_4853)">
<path fill-rule="evenodd" clip-rule="evenodd" d="M70.0795 456.289C70.0795 456.289 70.0992 456.171 70.1581 456.151C70.2171 456.151 70.2761 456.151 70.2957 456.21C70.335 456.25 70.4333 456.309 70.4922 456.348C70.5512 456.387 70.5906 456.407 70.6102 456.426C70.7281 456.525 70.846 456.623 70.9443 456.741C71.1605 456.957 71.3374 457.193 71.4947 457.449C71.4947 457.468 71.534 457.508 71.5536 457.527C71.6519 457.684 71.7895 457.881 71.7502 458.077C71.7109 458.235 71.6126 458.294 71.534 458.313C71.3571 458.353 71.1605 458.274 71.0426 458.156C70.7871 457.92 70.4726 457.625 70.335 457.272C70.335 457.252 70.3154 457.213 70.2957 457.193C70.2368 457.016 70.1975 456.839 70.1778 456.662C70.1581 456.544 70.1385 456.426 70.0992 456.309L70.0795 456.289ZM70.5709 454.304C70.6102 454.54 70.6298 454.795 70.7478 455.031C70.8067 455.168 70.905 455.286 71.0033 455.404C71.0819 455.11 70.964 454.697 70.905 454.559C70.8264 454.343 70.7478 454.225 70.6298 454.186C70.6102 454.186 70.5709 454.186 70.5709 454.186C70.5709 454.186 70.5709 454.186 70.5709 454.304ZM70.0402 455.385C70.0402 455.385 70.2171 455.345 70.3153 455.365C70.5119 455.404 70.7084 455.483 70.8657 455.601C70.8657 455.601 70.7478 455.66 70.6692 455.68C70.4333 455.719 70.1581 455.601 70.0402 455.404V455.385ZM70.276 458.569C70.1581 458.372 70.0205 458.215 69.8829 458.077C69.7257 457.92 69.5685 457.783 69.3719 457.724C69.2147 457.665 68.9788 457.704 68.8805 457.842C68.8805 457.861 68.8608 457.881 68.8412 457.901C68.9198 458.078 69.0771 458.235 69.2343 458.333C69.5488 458.549 69.9026 458.706 70.2564 458.864L70.4333 458.942C70.4136 458.785 70.3547 458.648 70.2957 458.549L70.276 458.569ZM68.8609 458.274C68.9198 458.412 69.0377 458.53 69.2146 458.648C69.5095 458.844 69.8436 458.962 70.1974 458.982C70.2171 458.982 70.2564 458.982 70.276 458.982C70.276 458.982 70.2761 458.982 70.2957 458.982L70.2171 458.942C69.8633 458.785 69.5095 458.628 69.195 458.392C69.0574 458.294 68.9199 458.156 68.8216 457.979C68.8216 458.058 68.8216 458.176 68.8609 458.254V458.274ZM69.3326 459.532C69.195 459.591 68.9984 459.709 68.9002 459.906C68.8412 460.004 68.8412 460.141 68.8805 460.22C68.9199 460.141 68.9788 460.063 69.0574 459.964C69.3719 459.689 69.765 459.512 70.1384 459.335C70.2367 459.296 70.3154 459.257 70.4137 459.217C70.3154 459.217 70.1778 459.277 70.0992 459.296C70.0402 459.316 69.9812 459.335 69.9419 459.335C69.7453 459.375 69.5291 459.434 69.3326 459.512V459.532ZM69.5684 460.22C69.3719 460.318 69.2146 460.358 69.077 460.338C69.0181 460.338 68.9788 460.318 68.9395 460.279C68.9592 460.181 69.0378 460.082 69.1164 460.004C69.4309 459.729 69.8043 459.552 70.1778 459.394C70.2761 459.355 70.3743 459.296 70.4726 459.257C70.4726 459.316 70.4136 459.414 70.394 459.453C70.1974 459.846 69.8436 460.082 69.5881 460.2L69.5684 460.22ZM76.9982 462.834C77.1161 462.834 77.2733 462.795 77.3126 462.697C77.3126 462.677 77.3126 462.657 77.3126 462.618C76.8016 462.461 76.2316 462.303 75.6813 462.343C75.6616 462.343 75.6419 462.343 75.6026 462.362C75.9761 462.697 76.4871 462.873 76.9785 462.834H76.9982ZM77.2733 462.441C77.2733 462.441 77.3126 462.5 77.3126 462.52C77.3126 462.52 77.3126 462.539 77.3126 462.559C76.8802 462.421 76.3888 462.284 75.9171 462.284C76.2709 462.185 76.6444 462.166 76.9982 462.284C77.1161 462.323 77.2144 462.382 77.2733 462.461V462.441ZM76.1726 461.576C76.2709 461.439 76.3888 461.222 76.3495 461.045C76.1333 461.419 75.8975 461.753 75.6223 462.087C75.8385 461.95 76.0154 461.792 76.1726 461.596V461.576ZM76.1137 460.869C75.9564 460.869 75.8189 460.967 75.7009 461.144C75.6027 461.301 75.5437 461.478 75.4847 461.674C75.4454 461.832 75.4061 462.028 75.4454 462.185C75.4454 462.185 75.465 462.185 75.4847 462.185C75.7992 461.812 76.094 461.419 76.3299 461.006C76.3299 461.006 76.3102 460.967 76.2906 460.947C76.2513 460.908 76.1923 460.888 76.1137 460.908V460.869ZM75.9171 458.923C76.1726 458.923 76.3888 458.923 76.5854 458.844C76.8016 458.765 76.9785 458.647 77.0964 458.49C76.664 458.706 76.1923 458.805 75.7205 458.785C75.583 458.785 75.4847 458.765 75.4061 458.726C75.4454 458.785 75.4847 458.824 75.5437 458.844C75.6616 458.903 75.7992 458.923 75.9171 458.923V458.923ZM76.0744 458.353C76.3496 458.313 76.6443 458.353 77.0178 458.412C77.0375 458.412 77.0571 458.412 77.0768 458.412C76.6443 458.628 76.1923 458.726 75.7009 458.726C75.5437 458.726 75.4257 458.687 75.3471 458.628C75.5436 458.471 75.7992 458.372 76.0744 458.353ZM75.7992 457.37V457.311C75.6419 457.311 75.524 457.429 75.4454 457.547C75.3471 457.665 75.1506 458.156 75.1899 458.215C75.1899 458.215 75.1899 458.215 75.2685 458.215C75.5044 458.136 75.7206 457.684 75.7992 457.39V457.37ZM71.1409 454.481C71.0819 454.304 70.964 454.048 70.7085 453.97C70.6102 453.93 70.5119 453.97 70.4333 454.009C70.3153 454.107 70.335 454.264 70.3547 454.343C70.394 454.579 70.4333 454.874 70.5316 455.129C70.5316 455.149 70.5512 455.169 70.5709 455.208C70.4922 455.188 70.4333 455.168 70.3547 455.149C70.0795 455.11 69.9419 455.188 69.8633 455.247C69.824 455.286 69.8043 455.345 69.8043 455.385C69.8043 455.404 69.8043 455.424 69.8043 455.444C69.8043 455.463 69.824 455.483 69.824 455.503C70.0009 455.797 70.3743 455.955 70.7085 455.915C70.8461 455.915 70.9443 455.856 71.0426 455.778C71.1212 455.856 71.2195 455.915 71.2981 455.994C71.3964 456.073 71.475 456.151 71.5733 456.23C71.534 457.016 71.7305 457.763 71.9271 458.333C71.9664 458.451 72.0057 458.549 72.045 458.648C72.1826 458.962 72.3202 459.257 72.4774 459.552C71.9271 459.217 71.2981 459.021 70.6692 458.962C70.6692 458.962 70.6692 458.962 70.6495 458.962C70.6495 458.805 70.5709 458.628 70.4922 458.471C70.3743 458.254 70.1974 458.078 70.0598 457.92C69.8829 457.743 69.706 457.586 69.4505 457.507C69.195 457.429 68.9395 457.488 68.7822 457.625C68.7822 457.625 68.7626 457.625 68.7626 457.645C68.7626 457.645 68.7233 457.684 68.7233 457.704C68.5857 457.881 68.566 458.136 68.684 458.372C68.7626 458.549 68.9002 458.687 69.1164 458.844C69.3326 458.982 69.5684 459.1 69.824 459.159C69.6274 459.198 69.4505 459.257 69.254 459.335C69.0771 459.414 68.8412 459.571 68.7233 459.807C68.6446 459.945 68.625 460.141 68.684 460.279C68.7036 460.358 68.7626 460.416 68.8216 460.475C68.8805 460.534 68.9788 460.554 69.077 460.574C69.3129 460.613 69.5488 460.515 69.706 460.436C70.0009 460.299 70.394 460.023 70.6298 459.611C70.6888 459.493 70.7675 459.335 70.7281 459.198C71.4357 459.257 72.1433 459.532 72.7133 459.964C73.0671 460.672 73.4602 461.497 73.7354 462.755C73.7157 462.696 73.6764 462.638 73.6568 462.598C73.5388 462.362 73.4013 462.166 73.244 462.009C72.9688 461.714 72.5954 461.517 72.2416 461.34C72.0254 461.222 71.7895 461.104 71.593 460.947C71.5537 460.908 71.4947 460.928 71.4554 460.947C71.4161 460.986 71.3964 461.045 71.416 461.085C71.534 461.34 71.6126 461.635 71.6912 461.91C71.7502 462.107 71.8092 462.303 71.8681 462.48C71.9861 462.814 72.1236 463.129 72.3398 463.404C72.4774 463.581 72.6543 463.738 72.8509 463.876C72.9492 463.935 73.0671 464.013 73.2047 464.053C73.3226 464.092 73.6764 464.171 73.8926 464.053C73.9123 464.308 73.9319 464.583 73.9319 464.859C73.9122 464.957 73.9122 465.035 73.9319 465.134C73.9319 465.134 73.9319 465.153 73.9319 465.173C73.9319 466.176 73.7747 467.237 73.1851 468.121C73.1654 468.161 73.1654 468.2 73.1851 468.22C73.1851 468.239 73.2047 468.259 73.2243 468.279C73.2833 468.318 73.3422 468.298 73.3816 468.239C73.9319 467.394 74.1285 466.392 74.1481 465.448C74.3054 465.546 74.5216 465.605 74.7967 465.605C75.3078 465.605 75.7795 465.488 76.1923 465.252C76.6444 464.996 76.9982 464.603 77.3323 464.21C77.3519 464.19 77.3716 464.151 77.352 464.112C77.352 464.072 77.3126 464.053 77.2733 464.033C76.7033 463.817 75.8581 463.561 75.0523 463.817C74.7968 463.896 74.5412 464.033 74.325 464.23C74.2464 464.289 74.1874 464.367 74.1285 464.446C74.1285 464.269 74.1088 464.092 74.0892 463.935C74.0695 463.679 74.0302 463.404 74.0105 463.129H74.0302C74.4626 462.873 74.9343 462.657 75.4257 462.5C75.8385 462.913 76.4478 463.129 77.0375 463.09C77.293 463.07 77.4699 462.972 77.5485 462.814C77.6272 462.657 77.6075 462.461 77.4896 462.323C77.4109 462.205 77.2734 462.126 77.1161 462.068C76.8016 461.95 76.4675 461.95 76.1333 462.009C76.2316 461.93 76.3102 461.832 76.3888 461.733C76.5854 461.478 76.664 461.222 76.6051 460.987C76.5854 460.888 76.5264 460.81 76.4675 460.751C76.3888 460.672 76.2513 460.633 76.1333 460.652C75.9171 460.652 75.6812 460.81 75.5437 461.026C75.4257 461.203 75.3471 461.419 75.2881 461.635C75.2292 461.851 75.1702 462.107 75.2881 462.323C74.8557 462.48 74.4233 462.677 74.0302 462.913C73.9516 462.284 73.8926 461.655 73.8926 461.026C73.8926 461.026 73.9122 461.026 73.9319 461.045C74.0302 461.104 74.1678 461.104 74.3447 461.085C74.384 461.085 74.4036 461.085 74.4233 461.085C74.6002 461.085 74.7968 461.065 74.954 460.947C75.0916 460.849 75.1702 460.731 75.2488 460.613C75.2488 460.574 75.2685 460.554 75.2488 460.515C75.2488 460.475 75.2095 460.456 75.1899 460.436L74.9343 460.338C74.9343 460.338 74.7575 460.259 74.6395 460.259C74.5412 460.259 74.4233 460.259 74.3054 460.338C74.3054 460.338 74.0105 460.475 73.8729 460.652C73.8729 460.298 73.9123 459.945 73.9713 459.611C73.9713 459.512 74.0106 459.414 74.0302 459.335C74.0302 459.335 74.0302 459.335 74.0499 459.335C74.443 459.198 74.8164 459.041 75.1702 458.844C75.2292 458.962 75.3078 459.06 75.4454 459.119C75.6026 459.198 75.7795 459.217 75.9171 459.217C76.2119 459.217 76.4478 459.198 76.664 459.119C76.9392 459.021 77.1554 458.864 77.293 458.667C77.3323 458.628 77.3716 458.549 77.352 458.451C77.352 458.372 77.2733 458.274 77.0768 458.235C76.6837 458.156 76.3495 458.137 76.0547 458.176C75.9171 458.176 75.7795 458.235 75.6026 458.294C75.8778 457.999 76.0154 457.488 76.0154 457.488C76.0547 457.331 76.0154 457.213 75.9171 457.173C75.8778 457.154 75.8188 457.134 75.7795 457.134C75.583 457.134 75.4061 457.252 75.2488 457.449C75.2095 457.488 74.8754 458.077 74.9736 458.353C74.9736 458.353 74.9737 458.392 74.9933 458.412C75.013 458.451 75.0916 458.51 75.2095 458.51C75.1702 458.549 75.1113 458.589 75.0719 458.628C74.7575 458.824 74.4036 458.962 74.0695 459.1C74.325 458.215 74.7575 457.37 75.1899 456.603C75.1899 456.643 75.2292 456.662 75.2488 456.682C75.4061 456.82 75.7402 456.721 76.0547 456.643H76.1137C76.5068 456.505 76.8213 456.328 77.0375 456.073C77.1161 455.994 77.1751 455.896 77.234 455.797C77.2733 455.739 77.3127 455.68 77.352 455.621C77.3716 455.581 77.3913 455.542 77.352 455.503C77.352 455.463 77.293 455.444 77.2537 455.444C76.8016 455.444 76.2513 455.424 75.7992 455.699C75.7206 455.739 75.6223 455.817 75.524 455.915C75.6027 455.68 75.6223 455.444 75.583 455.208C75.524 454.933 75.4061 454.658 75.1899 454.343C75.0916 454.205 74.9737 454.166 74.8754 454.245C74.8361 454.264 74.8164 454.323 74.7967 454.343C74.6395 454.658 74.6395 455.07 74.7967 455.581C74.7967 455.621 74.8164 455.66 74.8361 455.719C74.8557 455.778 74.895 455.837 74.9147 455.915C75.0129 456.092 75.1113 456.171 75.1506 456.21C74.954 456.564 74.7378 456.918 74.5413 457.311C74.5609 457.173 74.5019 456.997 74.443 456.82V456.78C74.325 456.485 74.1481 456.23 73.9319 456.014C73.696 455.778 73.4602 455.66 73.2243 455.64C73.185 455.64 73.1457 455.64 73.1261 455.699C73.1261 455.739 73.1064 455.758 73.1261 455.797C73.2244 455.994 73.2833 456.171 73.3423 456.367C73.3816 456.485 73.4209 456.603 73.4602 456.721C73.5781 456.996 73.7944 457.37 74.1678 457.488C74.3054 457.527 74.4037 457.508 74.4626 457.449C74.1088 458.137 73.814 458.883 73.6568 459.65C73.5388 460.299 73.5192 460.967 73.5585 461.616C73.303 460.829 72.9885 460.259 72.7133 459.709C72.5364 459.355 72.3595 459.021 72.2023 458.648C72.163 458.549 72.1237 458.451 72.0844 458.353C72.0844 458.353 72.0843 458.372 72.104 458.392C72.3792 458.628 72.9295 458.038 72.9491 458.038C73.0671 457.901 73.1654 457.763 73.2636 457.625C73.3423 457.507 73.4012 457.409 73.4995 457.311C73.5388 457.272 73.5388 457.213 73.4995 457.173C73.4798 457.134 73.4209 457.114 73.3816 457.114C73.0671 457.173 72.6543 457.272 72.3988 457.586C72.3988 457.586 72.045 457.999 72.0647 458.254C71.7895 457.409 71.5537 456.171 72.0647 455.129C72.0843 455.129 72.104 455.129 72.1433 455.129C72.2613 455.11 72.3791 455.11 72.5167 455.129C72.615 455.129 72.7329 455.129 72.8312 455.129C73.3423 455.07 73.7944 454.736 73.9123 454.304C73.9123 454.264 73.9319 454.205 73.9123 454.146C73.9123 454.087 73.8337 453.989 73.6568 453.97C73.3226 453.93 72.9492 454.009 72.6347 454.205C72.4578 454.304 72.3006 454.441 72.1433 454.618C72.045 454.736 71.9664 454.815 71.9271 454.893C71.9271 454.893 71.9271 454.893 71.9074 454.913C71.6912 455.286 71.5733 455.699 71.5143 456.092C71.4554 456.053 71.416 455.994 71.3571 455.955C71.2784 455.876 71.1802 455.797 71.1016 455.738C71.2785 455.385 71.1212 454.854 71.0426 454.638L71.1409 454.481ZM71.7895 453.321C71.8485 453.419 72.2219 454.363 72.0253 454.677C71.9664 454.756 71.8878 454.795 71.7699 454.795C71.5733 454.775 71.416 454.461 71.2981 454.146V454.107C71.2981 454.107 71.2392 453.989 71.1999 453.911C71.1212 453.714 71.0819 453.517 71.023 453.341C70.9443 453.065 71.0819 452.967 71.1409 452.947C71.1999 452.908 71.2784 452.908 71.3571 452.947C71.5143 453.006 71.6519 453.124 71.7699 453.341L71.7895 453.321Z" fill="#D1636E"/>
<path fill-rule="evenodd" clip-rule="evenodd" d="M55.5132 466.194C55.7687 466.391 56.1422 466.312 56.3388 466.057C56.5353 465.762 56.378 465.447 56.2011 465.172C56.1422 465.133 56.0832 465.094 56.0046 465.074C55.7687 465.015 55.5525 465.153 55.4149 465.329C55.1987 465.605 55.238 465.998 55.5132 466.194ZM59.5426 463.659C59.7981 463.855 60.1715 463.796 60.3681 463.521C60.5646 463.226 60.4074 462.912 60.2305 462.637C60.1715 462.597 60.1126 462.558 60.034 462.538C59.7981 462.479 59.5818 462.617 59.4443 462.794C59.2281 463.049 59.2674 463.462 59.5426 463.659ZM65.8716 455.069C66.0681 454.775 65.9109 454.46 65.734 454.185C65.675 454.146 65.616 454.106 65.5374 454.087C65.3015 454.028 65.0854 454.165 64.9478 454.342C64.7316 454.617 64.7709 455.01 65.046 455.207C65.3015 455.404 65.675 455.325 65.8716 455.069ZM63.336 460.494C63.5326 460.199 63.3753 459.885 63.1984 459.61C63.1395 459.57 63.0805 459.531 63.0019 459.512C62.766 459.453 62.5498 459.59 62.4122 459.767C62.196 460.023 62.2353 460.416 62.5105 460.632C62.766 460.828 63.1395 460.75 63.336 460.494ZM65.8519 457.153C66.1074 457.349 66.4809 457.271 66.6578 457.015C66.8543 456.72 66.6971 456.406 66.5202 456.131C66.4612 456.091 66.4022 456.052 66.3236 456.033C66.0877 455.974 65.8716 456.111 65.734 456.288C65.5767 456.485 65.5571 456.74 65.6553 456.956C65.675 456.956 65.6947 456.996 65.6947 457.015C65.734 457.074 65.7733 457.114 65.8322 457.153H65.8519ZM63.0215 456.092C63.2181 455.797 63.0608 455.482 62.8839 455.207C62.825 455.168 62.766 455.128 62.6874 455.109C62.4515 455.05 62.2353 455.187 62.0977 455.364C61.8815 455.639 61.9208 456.032 62.196 456.229C62.4515 456.426 62.825 456.367 63.0215 456.092ZM58.776 458.706C58.9725 458.411 58.8153 458.096 58.6384 457.821C58.5794 457.782 58.5205 457.742 58.4419 457.723C58.206 457.664 57.9898 457.801 57.8522 457.978C57.636 458.254 57.6753 458.647 57.9505 458.843C58.206 459.04 58.5794 458.981 58.7563 458.706H58.776ZM54.8843 461.064C55.0808 460.769 54.9236 460.455 54.7467 460.18C54.6877 460.14 54.6287 460.101 54.5501 460.082C54.3142 460.023 54.0981 460.16 53.9605 460.337C53.7443 460.593 53.7836 461.005 54.0587 461.202C54.3142 461.398 54.6877 461.32 54.8646 461.064H54.8843ZM47.9459 466.253C48.5552 466.096 49.145 465.958 49.7543 465.762C50.3243 465.506 50.8746 465.251 51.4249 464.976C51.9163 463.639 52.6829 462.283 53.7442 461.339C53.4101 460.946 53.4494 460.337 53.9015 460.042C54.1767 459.865 54.5108 459.846 54.7663 459.964C54.7859 459.964 54.8056 459.983 54.8253 460.003C54.8449 460.003 54.8646 460.042 54.9039 460.062C55.2577 460.337 55.3756 460.887 55.1005 461.28C54.8253 461.674 54.275 461.752 53.9015 461.497C53.0956 462.538 52.388 463.541 51.8966 464.74C53.2725 464.052 54.6091 463.305 55.926 462.499C56.2208 461.241 56.7712 459.983 57.6753 459.04C57.6753 459.04 57.6753 459.04 57.6556 459.04C57.3018 458.647 57.3412 458.018 57.7932 457.723C58.0684 457.546 58.4025 457.526 58.6581 457.644C58.6777 457.644 58.6974 457.664 58.717 457.684C58.7367 457.684 58.7563 457.723 58.776 457.723C59.1298 457.998 59.2477 458.548 58.9726 458.941C58.6974 459.315 58.206 459.413 57.8326 459.197C57.1643 460.16 56.6336 461.123 56.3191 462.244C56.7318 461.988 57.1249 461.713 57.5377 461.438C58.2846 460.927 58.9922 460.376 59.6801 459.826C60.0732 458.509 60.8005 457.271 61.9012 456.445C61.9012 456.445 61.8815 456.426 61.8619 456.406C61.5081 456.013 61.5474 455.384 61.9995 455.089C62.2747 454.912 62.6088 454.892 62.8643 455.01C62.884 455.01 62.9036 455.03 62.9233 455.05C62.9233 455.05 62.9626 455.089 63.0019 455.089C63.3557 455.364 63.4736 455.915 63.1984 456.308C62.9233 456.681 62.3926 456.779 61.9995 456.544C61.1543 457.408 60.486 458.332 60.0929 459.453C61.685 458.155 63.1788 456.76 64.6726 455.345C64.3384 454.952 64.3974 454.342 64.8298 454.067C65.105 453.89 65.4392 453.87 65.6947 453.988C65.7143 453.988 65.734 454.008 65.7536 454.028C65.7733 454.028 65.7929 454.067 65.8322 454.067C66.186 454.342 66.304 454.893 66.0288 455.286C65.734 455.679 65.2033 455.757 64.8102 455.502C64.2205 456.209 63.5719 456.897 62.8839 457.566C63.6898 457.428 64.4761 457.271 65.2623 457.035C65.1247 456.681 65.2229 456.249 65.5767 456.013C65.8519 455.836 66.186 455.816 66.4415 455.934C66.4612 455.934 66.4808 455.954 66.5005 455.974C66.5202 455.974 66.5398 456.013 66.5791 456.013C66.9329 456.288 67.0509 456.838 66.7757 457.231C66.4612 457.664 65.7929 457.723 65.4195 457.33C65.3802 457.291 65.3409 457.251 65.3212 457.192C64.4367 457.585 63.4343 457.841 62.4712 457.919C61.2722 459.04 59.9553 460.081 58.6384 461.045C59.798 461.104 60.8595 460.966 61.9798 460.632C61.7636 460.258 61.8422 459.747 62.2353 459.492C62.5105 459.315 62.8447 459.295 63.1002 459.413C63.1198 459.413 63.1395 459.433 63.1591 459.453C63.1788 459.453 63.1985 459.492 63.2378 459.492C63.5916 459.767 63.7095 460.317 63.4343 460.71C63.1198 461.143 62.4515 461.202 62.0781 460.809C62.0781 460.809 62.0584 460.789 62.0388 460.77C60.8988 461.359 59.4443 461.575 58.1864 461.359C57.9898 461.497 57.7932 461.634 57.5967 461.772C56.6729 462.401 55.7294 463.01 54.7663 463.6C56.1618 463.836 57.5181 463.698 58.9136 463.462C58.8153 463.128 58.9332 462.735 59.2477 462.519C59.5229 462.342 59.857 462.322 60.1125 462.44C60.1322 462.44 60.1518 462.46 60.1715 462.48C60.1912 462.48 60.2108 462.519 60.2305 462.519C60.5843 462.794 60.7022 463.344 60.427 463.737C60.1125 464.17 59.4443 464.229 59.0708 463.836C59.0118 463.777 58.9725 463.718 58.9529 463.659C57.4787 464.229 55.7687 464.189 54.2356 463.875C53.2922 464.406 52.3487 464.917 51.366 465.388C51.2677 465.447 51.1694 465.506 51.0515 465.585C52.2898 466.135 53.4691 466.234 54.8056 465.978C54.727 465.644 54.8449 465.29 55.1594 465.094C55.4346 464.917 55.7687 464.897 56.0243 465.015C56.0439 465.015 56.0636 465.035 56.0832 465.054C56.1029 465.054 56.1225 465.094 56.1619 465.113C56.5157 465.388 56.6336 465.939 56.3584 466.332C56.0439 466.764 55.3757 466.823 55.0022 466.43C54.9432 466.371 54.9039 466.312 54.8646 466.253C53.528 466.745 51.8574 466.568 50.6387 465.84C49.7346 466.312 48.7125 466.646 47.7887 466.764C47.5136 466.804 47.4349 466.411 47.7101 466.352L47.9459 466.253Z" fill="#D1636E"/>
<path fill-rule="evenodd" clip-rule="evenodd" d="M71.5946 436.495C71.2801 436.318 70.9263 436.161 70.7297 435.866C70.5135 435.571 70.5135 435.119 70.6904 434.765C70.4349 434.51 70.1794 434.254 69.9042 433.999C70.1204 435.453 70.258 436.928 70.3366 438.382C70.6118 438.657 70.8673 438.972 71.1228 439.286C71.1425 439.247 71.1818 439.208 71.2211 439.188C71.5749 438.854 72.1842 439.109 72.479 439.424C72.7935 439.778 72.9311 440.269 73.049 440.741C73.2456 441.527 73.4421 442.313 73.6387 443.099C73.3045 442.293 72.6756 441.645 71.9287 441.212C71.6142 441.036 71.2604 440.878 71.0442 440.584C70.8476 440.308 70.828 439.876 70.9852 439.542C70.769 439.326 70.5724 439.109 70.3759 438.874C70.4349 440.485 70.4152 442.097 70.3169 443.689C70.6118 444.259 70.9263 444.829 71.2211 445.399C71.6339 445.203 72.1449 445.537 72.3611 445.89C72.6166 446.303 72.6559 446.795 72.6953 447.286C72.7542 448.092 72.8132 448.898 72.8721 449.704C72.6952 448.858 72.1842 448.111 71.5159 447.541C71.2408 447.306 70.9263 447.089 70.769 446.755C70.6118 446.401 70.71 445.89 70.9852 445.596C70.7297 445.144 70.4938 444.672 70.2776 444.22C70.258 444.573 70.2187 444.947 70.1794 445.301C70.1008 446.224 69.9828 447.148 69.8255 448.052C70.3169 448.111 70.5331 448.74 70.4938 449.173C70.4545 449.664 70.1597 450.077 69.9042 450.49C69.4521 451.178 69 451.866 68.548 452.534C68.9214 451.748 68.9804 450.824 68.7838 449.959C68.7052 449.605 68.5873 449.232 68.6659 448.878C68.7642 448.465 69.1769 448.131 69.6094 448.072C69.7076 447.306 69.8059 446.539 69.8649 445.773C69.7666 445.89 69.6487 446.028 69.5504 446.146C69.7076 446.539 69.6683 447.05 69.3931 447.345C69.1376 447.62 68.7642 447.718 68.43 447.856C67.6242 448.19 66.8772 448.74 66.4448 449.507C66.7593 448.74 67.0738 447.994 67.3686 447.227C67.5455 446.775 67.7421 446.303 68.1155 445.989C68.43 445.714 69.0394 445.556 69.3735 445.89C69.5504 445.694 69.7273 445.517 69.9042 445.34C70.0221 443.925 70.0811 442.529 70.0811 441.114C69.9631 441.33 69.8452 441.566 69.7076 441.782C69.9042 442.176 69.8649 442.706 69.5897 443.021C69.3538 443.296 68.9804 443.414 68.6266 443.551C67.8207 443.905 67.0935 444.475 66.6807 445.242C66.9756 444.475 67.2507 443.709 67.5455 442.942C67.7224 442.49 67.8994 442.018 68.2728 441.684C68.5676 441.429 69.1376 441.252 69.4718 441.507C69.688 441.173 69.8648 440.819 70.0614 440.466C70.0614 439.778 70.0221 439.09 70.0024 438.402C70.0024 438.362 70.0024 438.323 70.0024 438.303C69.9631 437.517 69.8845 436.711 69.8059 435.925C69.6683 436.141 69.5307 436.358 69.3931 436.593C69.688 436.947 69.7273 437.557 69.4521 437.93C69.2359 438.225 68.8821 438.382 68.548 438.559C67.7814 438.972 67.1131 439.62 66.7593 440.426C66.9755 439.64 67.1918 438.854 67.408 438.048C67.5456 437.576 67.6831 437.085 68.0173 436.731C68.2728 436.456 68.7838 436.24 69.1573 436.417C69.3538 436.122 69.5504 435.827 69.747 435.532C69.688 434.982 69.6093 434.412 69.511 433.861C69.4128 433.252 69.3145 432.643 69.1769 432.053C69.0394 432.289 68.9214 432.544 68.7838 432.78C69.1376 433.114 69.2162 433.802 68.9214 434.196C68.7052 434.49 68.3514 434.648 68.0173 434.825C67.2507 435.237 66.5824 435.886 66.2286 436.692C66.4449 435.906 66.661 435.119 66.8772 434.313C67.0148 433.842 67.1524 433.35 67.4866 432.997C67.7224 432.741 68.1549 432.544 68.5087 432.643C68.6856 432.309 68.8821 431.994 69.059 431.66C68.8821 430.854 68.7052 430.068 68.5087 429.262C68.4694 429.065 68.7445 428.967 68.8035 429.164C69.2162 430.618 69.5307 432.112 69.7666 433.625C70.1007 433.94 70.4349 434.255 70.7887 434.589C70.7887 434.589 70.8083 434.549 70.828 434.549C71.1818 434.215 71.7911 434.471 72.0859 434.785C72.4004 435.139 72.538 435.63 72.6559 436.102C72.8525 436.888 73.049 437.674 73.2456 438.461C72.9115 437.655 72.2824 437.006 71.5355 436.593L71.5946 436.495Z" fill="#D1636E"/>
<path fill-rule="evenodd" clip-rule="evenodd" d="M78.6511 452.377C77.9631 452.161 77.9435 451.335 77.9435 451.296C77.9435 451.296 77.9435 451.256 77.9435 451.237C77.9631 451.217 78.4545 450.549 79.1425 450.785C79.339 450.844 79.5159 450.942 79.6731 451.06C79.6142 450.863 79.5749 450.667 79.5749 450.47C79.5749 449.743 80.3414 449.487 80.3807 449.468C80.3807 449.468 80.4201 449.468 80.4397 449.468C80.479 449.468 81.2455 449.743 81.2455 450.47C81.2455 450.667 81.2062 450.863 81.1473 451.06C81.3045 450.942 81.4814 450.844 81.6779 450.765C82.3659 450.549 82.8573 451.197 82.877 451.217C82.877 451.217 82.877 451.256 82.877 451.276C82.877 451.315 82.8769 452.121 82.1693 452.357C81.9728 452.416 81.7762 452.436 81.5797 452.436C81.7369 452.554 81.8942 452.691 82.0121 452.848C82.4445 453.438 81.9728 454.106 81.9532 454.126C81.9532 454.126 81.9335 454.146 81.9139 454.165C81.7763 454.205 81.6386 454.224 81.5011 454.224C80.9114 454.224 80.5773 453.87 80.42 453.3C80.2431 453.87 79.9286 454.224 79.339 454.224C79.2014 454.224 79.0638 454.224 78.9262 454.165C78.9262 454.165 78.8869 454.165 78.8869 454.126C78.8673 454.106 78.3956 453.418 78.828 452.848C78.9459 452.691 79.0835 452.554 79.2604 452.436C79.0638 452.436 78.8672 452.436 78.6707 452.357L78.6511 452.377Z" fill="#D1636E"/>
<path fill-rule="evenodd" clip-rule="evenodd" d="M63.6508 427.493C63.6115 428.338 63.5328 429.184 63.3953 430.068C63.3756 430.049 63.3363 430.029 63.297 430.009C62.8449 429.891 62.3535 429.97 61.9801 430.245C61.7639 430.422 61.3511 430.874 61.4887 431.189C61.6263 431.542 62.2946 431.366 62.5501 431.287C62.8056 431.228 63.0415 431.13 63.238 430.972C63.1005 431.798 62.9236 432.623 62.7467 433.449C62.7467 433.449 62.7073 433.41 62.6876 433.41C62.3142 433.193 61.9015 433.134 61.4887 433.252C61.1939 433.351 60.6042 433.685 60.6435 434.058C60.6828 434.451 61.3511 434.451 61.6066 434.451C61.9604 434.451 62.2945 434.392 62.5697 434.216C62.3928 435.061 62.1963 435.906 62.039 436.751C62.039 436.751 61.9997 436.751 61.9801 436.731C61.5084 436.613 61.0759 436.83 60.7025 437.144C60.4863 437.341 60.1128 437.636 60.4077 437.911C60.6632 438.147 61.1742 438.127 61.4887 438.029C61.6066 437.989 61.7246 437.95 61.8229 437.891C61.6853 438.736 61.5673 439.581 61.5084 440.427C60.7222 440.662 60.2111 441.37 60.1914 442.196C60.1914 442.255 60.2308 442.314 60.2898 442.333C60.8008 442.53 61.1939 442.235 61.4494 441.802C61.4494 442.589 61.4887 443.355 61.6066 444.122C61.6066 444.122 61.587 444.122 61.5673 444.122C60.8204 444.476 60.5059 445.163 60.4863 445.95C60.4863 446.009 60.5453 446.068 60.5846 446.087C60.958 446.225 61.2921 446.068 61.5477 445.773C61.6656 445.635 61.7639 445.498 61.8425 445.34C62.039 446.087 62.3142 446.814 62.6876 447.522C62.1766 448.092 62.157 448.859 62.4125 449.547C62.4322 449.625 62.5108 449.665 62.5894 449.665C63.0021 449.645 63.238 449.33 63.356 448.957C63.3756 448.878 63.3953 448.8 63.4149 448.701C63.4936 448.819 63.5918 448.937 63.6704 449.055C63.5328 449.566 63.4935 450.136 63.6114 450.667C63.6901 450.981 63.9653 451.551 64.378 451.237C64.6532 451.021 64.7122 450.549 64.6925 450.215C64.6729 449.684 64.3977 449.212 63.9653 448.918C63.808 448.721 63.6508 448.505 63.5132 448.289C63.7491 448.387 64.0046 448.426 64.2601 448.446C64.496 448.446 65.0463 448.485 65.1053 448.171C65.1642 447.778 64.5746 447.365 64.2798 447.247C63.8474 447.09 63.3756 447.149 62.9628 447.345C62.6287 446.697 62.3732 446.028 62.1766 445.34C62.3732 445.478 62.5894 445.596 62.8252 445.674C63.0611 445.753 63.4542 445.891 63.5132 445.557C63.5918 445.183 63.3166 444.731 63.0611 444.495C62.7466 444.2 62.3339 444.102 61.9211 444.102C61.8032 443.414 61.7639 442.707 61.7639 441.979C61.9801 442.392 62.3142 442.766 62.7467 442.883C62.8056 442.883 62.8646 442.884 62.9039 442.825C63.1987 442.51 63.1594 441.96 63.0218 441.586C62.8253 441.095 62.4125 440.761 61.9211 440.584C61.8818 440.584 61.8425 440.584 61.8229 440.584C61.8818 439.68 61.9997 438.775 62.157 437.852C62.2552 438.323 62.5697 438.736 63.0611 438.913C63.1397 438.952 63.238 438.913 63.2773 438.834C63.3953 438.461 63.4935 438.068 63.2773 437.714C63.0611 437.36 62.6877 437.164 62.3142 437.007C62.4715 436.22 62.6287 435.434 62.8056 434.648C62.9629 435.061 63.2576 435.395 63.6704 435.572C63.7294 435.591 63.8277 435.572 63.867 435.532C64.0635 435.277 64.0439 434.844 63.9653 434.55C63.8473 434.098 63.4739 433.881 63.0808 433.685H63.0415C63.238 432.761 63.4346 431.837 63.5918 430.913C63.808 431.424 64.2798 431.778 64.8301 431.877C64.8891 431.877 64.9677 431.837 65.007 431.778C65.1446 431.464 64.9873 430.992 64.7908 430.717C64.5549 430.363 64.1421 430.265 63.749 430.186H63.7098C63.8473 429.282 63.9456 428.397 63.9849 427.533C63.9849 427.336 63.6704 427.277 63.6704 427.474L63.6508 427.493Z" fill="#D1636E"/>
<path fill-rule="evenodd" clip-rule="evenodd" d="M76.1727 452.042C75.8975 452.042 75.6813 451.826 75.6813 451.551C75.6813 451.276 75.8975 451.06 76.1727 451.06C76.4479 451.06 76.6641 451.276 76.6641 451.551C76.6641 451.826 76.4479 452.042 76.1727 452.042Z" fill="#D1636E"/>
<path fill-rule="evenodd" clip-rule="evenodd" d="M64.6746 443.964C64.3995 443.964 64.1833 443.748 64.1833 443.473C64.1833 443.198 64.3995 442.981 64.6746 442.981C64.9498 442.981 65.166 443.198 65.166 443.473C65.166 443.748 64.9498 443.964 64.6746 443.964Z" fill="#D1636E"/>
<path fill-rule="evenodd" clip-rule="evenodd" d="M74.6199 450.961C74.3448 450.961 74.1286 450.745 74.1286 450.47C74.1286 450.195 74.3448 449.979 74.6199 449.979C74.8951 449.979 75.1113 450.195 75.1113 450.47C75.1113 450.745 74.8951 450.961 74.6199 450.961Z" fill="#D1636E"/>
<path d="M67.702 454.225C67.4306 454.225 67.2106 454.005 67.2106 453.734C67.2106 453.462 67.4306 453.242 67.702 453.242C67.9734 453.242 68.1934 453.462 68.1934 453.734C68.1934 454.005 67.9734 454.225 67.702 454.225Z" fill="#D1636E"/>
<path d="M74.7586 452.455C74.4872 452.455 74.2672 452.235 74.2672 451.964C74.2672 451.693 74.4872 451.473 74.7586 451.473C75.03 451.473 75.25 451.693 75.25 451.964C75.25 452.235 75.03 452.455 74.7586 452.455Z" fill="#D1636E"/>
</g>
<path fill-rule="evenodd" clip-rule="evenodd" d="M82.8373 441.193C85.0387 447.797 70.8869 445.281 77.0783 438.441C79.3583 435.906 82.6211 440.525 82.8373 441.193Z" fill="#E7868C"/>
<path fill-rule="evenodd" clip-rule="evenodd" d="M81.068 442.804C80.3211 442.706 79.299 443.197 78.5914 443.433C78.5325 443.492 78.4145 443.453 78.4145 443.394C78.4145 443.394 78.4145 443.374 78.4145 443.354C78.4145 442.431 78.4735 441.487 78.5521 440.563C78.3359 440.563 78.1197 440.426 78.0214 440.21C77.9035 439.934 78.0214 439.6 78.2573 439.423C78.3359 439.364 78.4145 439.345 78.5718 439.345C78.8469 439.345 79.0828 439.502 79.1614 439.777C79.24 440.072 79.0828 440.426 78.788 440.524C78.788 440.524 78.7683 440.524 78.7487 440.524C78.7094 441.055 78.6701 441.585 78.6504 442.116C78.6504 442.352 78.5914 442.607 78.6307 442.843C78.6307 442.883 78.6307 442.942 78.6307 442.961C79.0435 442.332 79.4956 441.762 80.0066 441.212C79.9673 441.173 79.9476 441.133 79.928 441.074C79.8101 440.839 79.8887 440.563 80.0656 440.386C80.2032 440.229 80.3997 440.19 80.5963 440.229C80.8125 440.269 81.009 440.406 81.068 440.642C81.1466 440.937 80.9893 441.291 80.6945 441.389C80.5176 441.448 80.3211 441.428 80.1638 441.33C79.6528 441.88 79.1811 442.47 78.7683 443.099C78.8273 443.099 78.9059 443.06 79.0435 443.02C79.6528 442.824 80.4587 442.47 81.1269 442.549C81.1466 442.49 81.1859 442.45 81.2056 442.391C81.2449 442.332 81.3038 442.293 81.3628 442.254C81.3628 442.254 81.4218 442.214 81.4808 442.195C81.5201 442.195 81.579 442.195 81.6183 442.175C81.6969 442.175 81.7755 442.175 81.8542 442.195C82.0507 442.254 82.208 442.391 82.267 442.607C82.3456 442.902 82.1883 443.256 81.8935 443.354C81.5987 443.453 81.2449 443.315 81.1073 443.04C81.068 442.942 81.0484 442.843 81.0484 442.745L81.068 442.804Z" fill="#D1636E"/>
<path fill-rule="evenodd" clip-rule="evenodd" d="M368.524 396.966C368.795 397.762 369.087 398.5 369.611 398.81C370.815 399.548 372.039 398.908 372.699 397.781C372.777 397.665 372.796 397.684 372.66 397.645C372.019 397.451 371.475 397.121 371.184 396.791C370.737 396.286 370 395.373 370.291 394.227C370.66 392.751 372.408 392.188 373.243 393.023C374.291 394.072 374.369 395.257 374.33 396.461C374.33 396.499 374.291 396.849 374.311 396.849C374.311 396.849 374.427 396.849 374.447 396.849C374.816 396.849 375.165 396.771 375.437 396.577C375.884 396.266 376.311 395.703 376.466 395.179C376.622 394.674 376.602 394.305 376.719 394.286C376.816 394.266 377.049 394.538 376.991 395.159C376.913 396.13 376.389 397.626 374.874 397.762C374.641 397.781 374.388 397.801 374.155 397.82C374.097 397.82 374.058 397.82 374.039 397.898C373.34 399.917 371.398 401.529 369.3 400.752C369.417 402.287 369.397 403.879 369.242 405.472C368.795 410.424 367.941 412.385 365.475 416.638C363.144 420.678 360.289 425.319 360.736 427.183C361.435 430.077 359.746 430.99 360.969 434.524C361.086 434.854 361.61 435.864 361.455 436.874C361.26 438.156 358.794 439.438 358.134 439.069C357.823 438.913 357.668 436.622 356.425 434.757C355.687 433.631 352.987 430.97 351.162 428.582C350.676 427.941 350.23 428.213 350.055 428.892C349.2 432.097 345.763 432.873 344.986 437.476C344.889 438.059 343.452 438.641 342.17 438.661C340.83 438.7 341.005 437.826 341.258 436.738C341.491 435.748 341.743 434.544 341.879 433.65C342.306 431.184 342.112 428.252 340.83 428.271C337.276 428.349 333.334 428.077 329.741 427.766C329.12 427.708 329.101 428.116 329.372 428.601C329.761 429.3 330.227 429.844 330.499 430.64C331.023 432.116 330.499 436.02 329.761 437.34C329.217 438.292 327.78 438.738 326.751 438.68C326.168 438.641 326.265 438.195 326.129 436.991C325.624 432.213 324.012 430.329 321.799 427.611C320.73 426.29 320.459 426.232 318.924 426.911C316.4 428.018 313.467 428.562 312.186 431.436C311.739 432.446 311.642 433.573 311.389 435.126C311.292 435.67 310.923 436.156 308.981 437.496C308.224 438.02 307.777 437.049 307.583 435.32C307.078 430.737 309.039 424.096 311.506 422.192C309.583 420.561 307.156 417.357 305.291 415.745C299.912 411.065 296.688 414.735 291.056 405.608C290.221 404.248 287.017 400.422 285.483 400.053C282.628 399.354 284.609 394.616 285.541 393.431C286.512 392.188 287.017 392.848 288.105 393.276C290.804 394.324 296.611 393.043 298.572 392.635C294.008 389.042 294.727 386.867 294.455 383.197C294.377 382.031 294.105 380.691 294.474 380.497C294.96 380.264 296.222 381.468 297.407 382.226C300.378 384.109 305.02 386.595 310.632 388.013C318.012 386.751 321.507 388.867 327.78 388.479C341.394 387.624 356.541 380.944 365.397 391.373C367.009 393.256 367.786 394.674 368.543 396.966H368.524ZM373.068 396.499C373.068 396.499 373.126 396.538 373.146 396.48C373.262 395.703 373.146 394.907 372.835 394.441C372.33 393.722 371.126 393.781 371.747 395.218C371.98 395.742 372.485 396.208 373.068 396.499Z" fill="#F5AFB4"/>
<path fill-rule="evenodd" clip-rule="evenodd" d="M303.932 388.944C303.155 387.002 303.136 385.06 303.913 382.069C305.525 375.855 305.835 380.186 308.263 383.448C308.962 384.38 309.778 385.371 310.671 386.361C312.574 388.439 314.206 388.886 315.157 389.838C317.643 392.284 317.585 393.741 313.526 394.965C312.633 395.236 311.642 395.411 310.691 395.411C307.253 395.411 305.097 391.838 303.932 388.925V388.944Z" fill="#E7868C"/>
<mask id="mask2_414_4853" style="mask-type:alpha" maskUnits="userSpaceOnUse" x="303" y="378" width="14" height="18">
<path fill-rule="evenodd" clip-rule="evenodd" d="M303.932 388.944C303.155 387.002 303.136 385.06 303.913 382.069C305.525 375.855 305.835 380.186 308.263 383.448C308.962 384.38 309.778 385.371 310.671 386.361C312.574 388.439 314.206 388.886 315.157 389.838C317.643 392.284 317.585 393.741 313.526 394.965C312.633 395.236 311.642 395.411 310.691 395.411C307.253 395.411 305.097 391.838 303.932 388.925V388.944Z" fill="#E7868C"/>
</mask>
<g mask="url(#mask2_414_4853)">
<path fill-rule="evenodd" clip-rule="evenodd" d="M308.555 398.13C308.516 397.217 308.419 396.304 308.283 395.353C308.263 395.372 308.225 395.411 308.186 395.411C307.7 395.547 307.176 395.469 306.768 395.139C306.535 394.945 306.088 394.46 306.224 394.129C306.38 393.741 307.079 393.955 307.37 394.013C307.661 394.071 307.914 394.188 308.108 394.363C307.953 393.469 307.758 392.576 307.564 391.683C307.564 391.702 307.525 391.721 307.506 391.741C307.118 391.974 306.652 392.032 306.205 391.896C305.894 391.799 305.253 391.43 305.273 391.022C305.312 390.595 306.03 390.614 306.321 390.595C306.71 390.595 307.059 390.653 307.37 390.847C307.176 389.935 306.982 389.022 306.807 388.09C306.807 388.09 306.768 388.09 306.749 388.109C306.224 388.226 305.758 387.993 305.37 387.663C305.137 387.468 304.729 387.138 305.04 386.827C305.312 386.556 305.875 386.594 306.205 386.692C306.341 386.73 306.457 386.789 306.574 386.847C306.419 385.934 306.302 385.002 306.224 384.089C305.37 383.837 304.826 383.06 304.807 382.186C304.807 382.128 304.865 382.069 304.904 382.05C305.447 381.836 305.875 382.147 306.147 382.613C306.147 381.759 306.185 380.924 306.321 380.108H306.283C305.486 379.72 305.137 378.982 305.117 378.127C305.117 378.069 305.176 377.991 305.234 377.972C305.642 377.836 306.011 378.011 306.283 378.321C306.399 378.457 306.516 378.613 306.613 378.787C306.826 377.991 307.118 377.195 307.525 376.438C306.962 375.816 306.943 375.001 307.234 374.243C307.273 374.165 307.351 374.107 307.428 374.127C307.856 374.146 308.127 374.496 308.244 374.884C308.263 374.962 308.302 375.059 308.322 375.156C308.419 375.02 308.516 374.903 308.613 374.767C308.458 374.204 308.419 373.602 308.535 373.02C308.613 372.67 308.904 372.049 309.351 372.398C309.662 372.631 309.72 373.156 309.701 373.505C309.681 374.088 309.37 374.573 308.924 374.923C308.749 375.136 308.594 375.37 308.438 375.603C308.691 375.505 308.963 375.447 309.234 375.447C309.487 375.447 310.089 375.408 310.147 375.738C310.205 376.166 309.584 376.612 309.254 376.729C308.788 376.904 308.283 376.826 307.836 376.612C307.467 377.312 307.195 378.03 306.982 378.768C307.195 378.613 307.428 378.496 307.681 378.399C307.933 378.321 308.361 378.166 308.438 378.535C308.516 378.943 308.225 379.428 307.933 379.7C307.584 380.011 307.137 380.127 306.69 380.127C306.574 380.885 306.516 381.642 306.516 382.419C306.749 381.972 307.118 381.565 307.584 381.448C307.642 381.448 307.7 381.467 307.739 381.506C308.05 381.836 308.03 382.438 307.875 382.846C307.661 383.39 307.215 383.74 306.671 383.934C306.632 383.934 306.593 383.934 306.554 383.934C306.613 384.905 306.749 385.895 306.923 386.886C307.021 386.381 307.39 385.934 307.914 385.72C307.992 385.682 308.108 385.72 308.147 385.818C308.283 386.225 308.38 386.633 308.147 387.022C307.914 387.41 307.506 387.604 307.098 387.779C307.254 388.634 307.448 389.488 307.623 390.343C307.778 389.896 308.127 389.546 308.555 389.333C308.632 389.294 308.71 389.333 308.768 389.391C308.982 389.663 308.943 390.148 308.865 390.459C308.749 390.945 308.322 391.197 307.914 391.411C307.914 391.411 307.875 391.411 307.856 391.411C308.069 392.42 308.283 393.411 308.458 394.401C308.691 393.858 309.196 393.469 309.798 393.353C309.875 393.353 309.953 393.391 309.992 393.45C310.128 393.799 309.953 394.304 309.759 394.596C309.506 394.984 309.06 395.1 308.632 395.178H308.594C308.749 396.149 308.865 397.12 308.885 398.052C308.885 398.266 308.555 398.324 308.535 398.111L308.555 398.13Z" fill="#D1636E"/>
<path fill-rule="evenodd" clip-rule="evenodd" d="M311.292 391.702C311.545 391.702 311.739 391.508 311.739 391.255C311.739 391.003 311.545 390.809 311.292 390.809C311.04 390.809 310.846 391.003 310.846 391.255C310.846 391.508 311.04 391.702 311.292 391.702Z" fill="#D1636E"/>
<path fill-rule="evenodd" clip-rule="evenodd" d="M309.953 388.264C310.205 388.264 310.399 388.07 310.399 387.818C310.399 387.565 310.205 387.371 309.953 387.371C309.7 387.371 309.506 387.565 309.506 387.818C309.506 388.07 309.7 388.264 309.953 388.264Z" fill="#D1636E"/>
<path fill-rule="evenodd" clip-rule="evenodd" d="M312.865 391.256C313.117 391.256 313.311 391.061 313.311 390.809C313.311 390.557 313.117 390.362 312.865 390.362C312.612 390.362 312.418 390.557 312.418 390.809C312.418 391.061 312.612 391.256 312.865 391.256Z" fill="#D1636E"/>
<path fill-rule="evenodd" clip-rule="evenodd" d="M304.826 385.274C305.078 385.274 305.272 385.08 305.272 384.828C305.272 384.575 305.078 384.381 304.826 384.381C304.573 384.381 304.379 384.575 304.379 384.828C304.379 385.08 304.573 385.274 304.826 385.274Z" fill="#D1636E"/>
<path fill-rule="evenodd" clip-rule="evenodd" d="M312.769 392.304C313.021 392.304 313.216 392.11 313.216 391.858C313.216 391.605 313.021 391.411 312.769 391.411C312.516 391.411 312.322 391.605 312.322 391.858C312.322 392.11 312.516 392.304 312.769 392.304Z" fill="#D1636E"/>
</g>
<path fill-rule="evenodd" clip-rule="evenodd" d="M301.369 398.344C300.495 398.383 299.855 398.13 300.243 397.353C300.728 396.382 301.486 396.576 302.127 397.101C303.234 397.994 302.554 398.285 301.369 398.344V398.344Z" fill="#845B00"/>
<path fill-rule="evenodd" clip-rule="evenodd" d="M341.607 419.473C340.578 421.9 338.539 421.648 337.529 420.599C336.558 419.609 336.538 417.88 339.218 417.104C341.122 416.56 342.5 417.356 341.607 419.473ZM336.966 401.432C336.597 403.354 332.674 404.053 331.004 406.151C329.78 407.685 329.916 409.646 332.615 413.045C335.004 416.055 340.248 414.754 342.753 413.491C345.083 412.326 344.695 418.851 351.958 417.647C355.512 417.065 354.288 413.608 354.541 410.967C354.852 407.685 361.435 406.461 359.163 401.995C356.755 397.276 352.385 400.461 349.336 397.742C348.113 396.654 346.948 395.761 345.821 395.101C342.869 393.333 340.325 393.081 338.558 394.557C335.8 396.829 337.335 399.548 336.985 401.412L336.966 401.432ZM356.774 395.062C356.832 397.955 350.521 398.188 349.666 395.256C348.657 391.799 356.677 390.42 356.774 395.062Z" fill="#E7868C"/>
<mask id="mask3_414_4853" style="mask-type:alpha" maskUnits="userSpaceOnUse" x="330" y="392" width="30" height="30">
<path fill-rule="evenodd" clip-rule="evenodd" d="M341.607 419.473C340.578 421.9 338.539 421.648 337.529 420.599C336.558 419.609 336.538 417.88 339.218 417.104C341.122 416.56 342.5 417.356 341.607 419.473ZM336.966 401.432C336.597 403.354 332.674 404.053 331.004 406.151C329.78 407.685 329.916 409.646 332.615 413.045C335.004 416.055 340.248 414.754 342.753 413.491C345.083 412.326 344.695 418.851 351.958 417.647C355.512 417.065 354.288 413.608 354.541 410.967C354.852 407.685 361.435 406.461 359.163 401.995C356.755 397.276 352.385 400.461 349.336 397.742C348.113 396.654 346.948 395.761 345.821 395.101C342.869 393.333 340.325 393.081 338.558 394.557C335.8 396.829 337.335 399.548 336.985 401.412L336.966 401.432ZM356.774 395.062C356.832 397.955 350.521 398.188 349.666 395.256C348.657 391.799 356.677 390.42 356.774 395.062Z" fill="#E7868C"/>
</mask>
<g mask="url(#mask3_414_4853)">
<path fill-rule="evenodd" clip-rule="evenodd" d="M352.871 408.519C352.871 408.519 352.871 408.403 352.794 408.383C352.735 408.383 352.697 408.384 352.677 408.442C352.658 408.461 352.561 408.539 352.502 408.558C352.464 408.578 352.425 408.617 352.405 408.636C352.308 408.714 352.192 408.811 352.095 408.927C351.9 409.122 351.726 409.335 351.59 409.568C351.59 409.588 351.551 409.607 351.551 409.646C351.454 409.782 351.337 409.976 351.376 410.151C351.415 410.306 351.512 410.345 351.57 410.364C351.726 410.403 351.9 410.326 352.017 410.209C352.25 409.995 352.522 409.743 352.677 409.393C352.677 409.374 352.697 409.335 352.716 409.316C352.774 409.16 352.794 408.986 352.832 408.83C352.832 408.714 352.871 408.617 352.891 408.519H352.871ZM352.425 406.713C352.405 406.927 352.366 407.16 352.269 407.374C352.211 407.49 352.133 407.607 352.036 407.723C351.959 407.471 352.075 407.082 352.114 406.946C352.192 406.752 352.269 406.636 352.366 406.616C352.386 406.616 352.405 406.616 352.405 406.616C352.405 406.616 352.405 406.616 352.405 406.713H352.425ZM352.91 407.704C352.91 407.704 352.755 407.665 352.677 407.684C352.502 407.723 352.328 407.781 352.172 407.898C352.172 407.898 352.269 407.956 352.347 407.976C352.561 408.015 352.794 407.898 352.93 407.723L352.91 407.704ZM352.697 410.597C352.794 410.423 352.93 410.267 353.066 410.151C353.202 410.015 353.357 409.879 353.532 409.821C353.687 409.782 353.881 409.801 353.978 409.937C353.978 409.937 353.998 409.976 354.017 409.995C353.939 410.17 353.804 410.306 353.668 410.403C353.376 410.617 353.066 410.753 352.735 410.889L352.58 410.947C352.58 410.811 352.658 410.675 352.697 410.597V410.597ZM353.978 410.326C353.92 410.442 353.823 410.559 353.668 410.656C353.415 410.83 353.104 410.947 352.774 410.966C352.755 410.966 352.716 410.966 352.697 410.966C352.697 410.966 352.697 410.966 352.677 410.966L352.735 410.928C353.046 410.792 353.376 410.636 353.668 410.442C353.784 410.345 353.92 410.228 354.017 410.073C354.017 410.151 354.017 410.248 353.978 410.326V410.326ZM353.551 411.471C353.687 411.53 353.842 411.646 353.939 411.821C353.978 411.918 353.998 412.035 353.959 412.112C353.939 412.035 353.881 411.957 353.784 411.879C353.493 411.627 353.143 411.471 352.794 411.316C352.716 411.277 352.619 411.238 352.541 411.199C352.619 411.199 352.755 411.238 352.832 411.277C352.891 411.277 352.949 411.316 352.968 411.316C353.163 411.355 353.337 411.394 353.512 411.471H353.551ZM353.337 412.093C353.512 412.19 353.668 412.209 353.784 412.209C353.842 412.209 353.881 412.19 353.901 412.17C353.881 412.073 353.803 411.996 353.745 411.918C353.473 411.666 353.124 411.51 352.774 411.355C352.677 411.316 352.599 411.277 352.502 411.238C352.502 411.297 352.561 411.374 352.58 411.413C352.755 411.782 353.085 411.976 353.318 412.093H353.337ZM346.579 414.481C346.463 414.481 346.327 414.443 346.288 414.346C346.288 414.326 346.288 414.307 346.288 414.287C346.754 414.151 347.278 413.996 347.783 414.035C347.803 414.035 347.822 414.035 347.842 414.054C347.511 414.365 347.045 414.52 346.599 414.481H346.579ZM346.327 414.132C346.327 414.132 346.288 414.171 346.288 414.21C346.288 414.21 346.288 414.21 346.288 414.229C346.676 414.112 347.123 413.977 347.57 413.977C347.239 413.899 346.89 413.86 346.579 413.977C346.463 414.015 346.385 414.074 346.327 414.132V414.132ZM347.337 413.336C347.239 413.2 347.123 413.025 347.181 412.85C347.375 413.18 347.589 413.491 347.842 413.782C347.647 413.666 347.473 413.51 347.337 413.336ZM347.395 412.695C347.531 412.695 347.667 412.792 347.764 412.928C347.861 413.064 347.919 413.239 347.958 413.413C347.997 413.569 348.036 413.744 347.997 413.879C347.997 413.879 347.977 413.879 347.958 413.879C347.667 413.549 347.414 413.18 347.181 412.792C347.181 412.792 347.201 412.753 347.22 412.753C347.259 412.714 347.317 412.695 347.375 412.714L347.395 412.695ZM347.57 410.928C347.337 410.928 347.123 410.928 346.968 410.85C346.773 410.792 346.599 410.675 346.502 410.52C346.89 410.714 347.317 410.811 347.764 410.792C347.88 410.792 347.977 410.772 348.055 410.733C348.016 410.772 347.977 410.811 347.919 410.85C347.822 410.908 347.686 410.908 347.57 410.908V410.928ZM347.414 410.403C347.162 410.364 346.89 410.403 346.56 410.461C346.54 410.461 346.521 410.461 346.502 410.461C346.89 410.656 347.317 410.753 347.744 410.733C347.9 410.733 347.997 410.695 348.075 410.656C347.9 410.52 347.667 410.423 347.414 410.403V410.403ZM347.667 409.51V409.452C347.803 409.452 347.919 409.568 347.997 409.665C348.075 409.782 348.269 410.209 348.23 410.287C348.23 410.287 348.23 410.287 348.172 410.287C347.958 410.228 347.764 409.801 347.686 409.529L347.667 409.51ZM351.9 406.888C351.959 406.713 352.075 406.48 352.289 406.422C352.386 406.403 352.464 406.422 352.541 406.461C352.638 406.558 352.619 406.694 352.619 406.752C352.599 406.966 352.561 407.238 352.444 407.471C352.444 407.49 352.425 407.51 352.405 407.529C352.463 407.51 352.541 407.49 352.599 407.471C352.852 407.432 352.988 407.49 353.046 407.568C353.085 407.607 353.104 407.646 353.104 407.704C353.104 407.723 353.104 407.743 353.104 407.762C353.104 407.782 353.104 407.801 353.085 407.82C352.93 408.073 352.599 408.228 352.289 408.189C352.172 408.189 352.075 408.131 351.997 408.053C351.92 408.131 351.842 408.189 351.764 408.248C351.687 408.325 351.59 408.384 351.512 408.461C351.551 409.18 351.376 409.859 351.201 410.364C351.162 410.461 351.124 410.559 351.085 410.656C350.968 410.947 350.832 411.219 350.696 411.491C351.201 411.199 351.764 411.005 352.328 410.947C352.328 410.947 352.328 410.947 352.347 410.947C352.347 410.792 352.405 410.656 352.502 410.5C352.619 410.306 352.774 410.131 352.91 409.995C353.066 409.84 353.24 409.685 353.454 409.626C353.687 409.549 353.92 409.607 354.075 409.743C354.075 409.743 354.095 409.743 354.095 409.762C354.095 409.762 354.114 409.801 354.134 409.801C354.25 409.957 354.27 410.19 354.172 410.403C354.095 410.559 353.978 410.695 353.784 410.83C353.59 410.966 353.357 411.063 353.143 411.122C353.318 411.161 353.493 411.199 353.648 411.277C353.804 411.355 354.017 411.491 354.134 411.704C354.211 411.84 354.231 411.996 354.172 412.132C354.153 412.19 354.114 412.248 354.056 412.306C353.998 412.345 353.92 412.384 353.823 412.403C353.609 412.423 353.396 412.345 353.26 412.268C352.988 412.132 352.638 411.899 352.425 411.51C352.366 411.394 352.308 411.258 352.328 411.141C351.687 411.199 351.026 411.452 350.521 411.84C350.191 412.481 349.842 413.239 349.589 414.384C349.609 414.326 349.648 414.287 349.667 414.229C349.784 414.015 349.9 413.841 350.036 413.685C350.288 413.413 350.619 413.239 350.949 413.064C351.143 412.967 351.357 412.85 351.551 412.714C351.59 412.695 351.648 412.695 351.687 412.714C351.726 412.753 351.726 412.792 351.726 412.831C351.628 413.064 351.551 413.336 351.473 413.588C351.415 413.763 351.376 413.938 351.298 414.112C351.201 414.404 351.065 414.695 350.871 414.948C350.735 415.103 350.58 415.258 350.405 415.375C350.327 415.433 350.211 415.511 350.094 415.53C349.997 415.55 349.667 415.627 349.473 415.53C349.453 415.763 349.434 416.016 349.434 416.268C349.434 416.346 349.453 416.443 349.434 416.521C349.434 416.521 349.434 416.54 349.434 416.559C349.434 417.472 349.57 418.443 350.114 419.239C350.114 419.259 350.133 419.298 350.114 419.337C350.114 419.356 350.094 419.375 350.075 419.395C350.017 419.434 349.958 419.395 349.919 419.356C349.415 418.579 349.24 417.686 349.22 416.812C349.084 416.909 348.871 416.948 348.618 416.948C348.152 416.948 347.725 416.851 347.356 416.637C346.948 416.404 346.637 416.035 346.327 415.705C346.307 415.686 346.288 415.647 346.307 415.608C346.307 415.569 346.346 415.55 346.366 415.53C346.89 415.336 347.647 415.103 348.385 415.336C348.618 415.414 348.851 415.55 349.046 415.705C349.104 415.763 349.182 415.821 349.22 415.899C349.22 415.744 349.24 415.588 349.259 415.433C349.279 415.2 349.317 414.948 349.337 414.715H349.317C348.929 414.481 348.502 414.287 348.055 414.132C347.686 414.501 347.123 414.715 346.599 414.656C346.366 414.656 346.21 414.559 346.133 414.423C346.055 414.287 346.074 414.112 346.191 413.977C346.268 413.879 346.385 413.802 346.54 413.743C346.832 413.646 347.142 413.646 347.434 413.705C347.356 413.627 347.278 413.549 347.201 413.452C347.026 413.219 346.948 412.986 347.006 412.772C347.026 412.675 347.065 412.617 347.123 412.559C347.201 412.481 347.317 412.462 347.434 412.462C347.628 412.462 347.841 412.598 347.977 412.792C348.094 412.967 348.152 413.141 348.211 413.336C348.269 413.53 348.308 413.763 348.211 413.957C348.618 414.093 348.987 414.268 349.356 414.481C349.415 413.918 349.473 413.336 349.492 412.772C349.492 412.772 349.473 412.773 349.453 412.792C349.376 412.85 349.24 412.85 349.065 412.831C349.046 412.831 349.007 412.831 348.987 412.831C348.813 412.831 348.638 412.811 348.502 412.714C348.385 412.637 348.308 412.52 348.23 412.403C348.23 412.384 348.21 412.345 348.23 412.306C348.23 412.268 348.269 412.248 348.288 412.248L348.521 412.151C348.521 412.151 348.677 412.093 348.774 412.073C348.871 412.073 348.968 412.073 349.084 412.132C349.084 412.132 349.356 412.248 349.492 412.423C349.492 412.093 349.453 411.782 349.395 411.471C349.395 411.394 349.356 411.297 349.337 411.219C349.337 411.219 349.337 411.219 349.317 411.219C348.968 411.102 348.618 410.947 348.288 410.772C348.249 410.869 348.152 410.966 348.036 411.025C347.9 411.102 347.744 411.102 347.589 411.122C347.317 411.122 347.104 411.102 346.909 411.044C346.657 410.966 346.463 410.811 346.327 410.636C346.288 410.597 346.269 410.52 346.269 410.442C346.269 410.364 346.327 410.287 346.521 410.248C346.89 410.17 347.181 410.17 347.453 410.19C347.57 410.19 347.706 410.228 347.861 410.287C347.608 410.015 347.492 409.568 347.492 409.549C347.453 409.413 347.492 409.296 347.57 409.257C347.608 409.238 347.667 409.238 347.686 409.238C347.861 409.238 348.036 409.335 348.172 409.529C348.21 409.568 348.521 410.092 348.424 410.345C348.424 410.345 348.424 410.384 348.405 410.403C348.385 410.442 348.327 410.5 348.211 410.481C348.249 410.52 348.288 410.539 348.327 410.578C348.618 410.753 348.929 410.889 349.24 411.005C349.007 410.19 348.618 409.432 348.211 408.733C348.211 408.772 348.172 408.791 348.152 408.811C347.997 408.927 347.706 408.85 347.434 408.772H347.395C347.045 408.655 346.754 408.481 346.56 408.248C346.482 408.17 346.424 408.092 346.366 407.995C346.327 407.937 346.288 407.879 346.249 407.84C346.23 407.801 346.21 407.762 346.249 407.723C346.249 407.684 346.307 407.665 346.346 407.665C346.754 407.665 347.259 407.665 347.667 407.898C347.744 407.937 347.822 408.015 347.919 408.092C347.841 407.879 347.822 407.665 347.861 407.451C347.9 407.199 348.016 406.946 348.211 406.675C348.288 406.558 348.405 406.519 348.502 406.577C348.541 406.597 348.56 406.636 348.579 406.655C348.715 406.946 348.735 407.315 348.579 407.781C348.579 407.82 348.56 407.859 348.541 407.898C348.521 407.956 348.502 408.015 348.463 408.073C348.366 408.228 348.288 408.306 348.249 408.345C348.424 408.655 348.618 409.005 348.793 409.335C348.793 409.219 348.832 409.063 348.89 408.888C348.987 408.597 349.143 408.364 349.337 408.15C349.55 407.937 349.764 407.84 349.978 407.82C350.017 407.82 350.055 407.82 350.075 407.879C350.075 407.898 350.094 407.937 350.075 407.976C349.978 408.15 349.939 408.306 349.881 408.5C349.842 408.597 349.803 408.714 349.764 408.811C349.667 409.063 349.453 409.393 349.123 409.51C349.007 409.549 348.91 409.529 348.851 409.471C349.162 410.112 349.434 410.772 349.57 411.471C349.686 412.073 349.686 412.656 349.667 413.258C349.9 412.539 350.172 412.015 350.424 411.53C350.599 411.199 350.755 410.908 350.89 410.559C350.929 410.481 350.968 410.384 350.988 410.287C350.988 410.287 350.988 410.306 350.968 410.306C350.716 410.52 350.211 409.995 350.211 409.976C350.114 409.859 350.017 409.724 349.939 409.607C349.861 409.51 349.803 409.413 349.725 409.316C349.706 409.277 349.686 409.238 349.725 409.199C349.745 409.16 349.803 409.141 349.842 409.141C350.114 409.199 350.502 409.277 350.735 409.568C350.735 409.568 351.046 409.957 351.046 410.17C351.298 409.393 351.512 408.267 351.046 407.335C351.026 407.335 351.007 407.335 350.968 407.335C350.852 407.315 350.755 407.335 350.619 407.335C350.522 407.335 350.424 407.335 350.327 407.335C349.861 407.296 349.453 406.985 349.337 406.577C349.337 406.539 349.317 406.48 349.337 406.422C349.337 406.364 349.395 406.286 349.57 406.267C349.881 406.228 350.211 406.306 350.502 406.48C350.657 406.577 350.813 406.694 350.949 406.849C351.046 406.946 351.104 407.024 351.143 407.102C351.143 407.102 351.143 407.102 351.162 407.121C351.357 407.471 351.473 407.84 351.512 408.209C351.551 408.17 351.609 408.131 351.648 408.092C351.726 408.034 351.803 407.956 351.881 407.898C351.726 407.568 351.861 407.102 351.92 406.908L351.9 406.888ZM351.318 405.82C351.318 405.82 350.91 406.772 351.104 407.044C351.162 407.121 351.24 407.16 351.337 407.141C351.531 407.121 351.648 406.83 351.764 406.558V406.519C351.764 406.519 351.823 406.403 351.842 406.344C351.9 406.17 351.959 405.975 351.997 405.82C352.075 405.568 351.959 405.49 351.9 405.451C351.842 405.432 351.764 405.432 351.687 405.451C351.551 405.509 351.415 405.626 351.318 405.801V405.82Z" fill="#D1636E"/>
<path fill-rule="evenodd" clip-rule="evenodd" d="M346.659 392.654C346.931 392.751 347.047 393.101 346.931 393.353C346.795 393.644 346.465 393.664 346.173 393.664C346.115 393.644 346.057 393.606 345.998 393.567C345.843 393.411 345.843 393.178 345.921 392.984C346.037 392.693 346.348 392.538 346.639 392.654H346.659ZM346.542 396.985C346.814 397.082 346.931 397.431 346.814 397.684C346.678 397.975 346.348 397.995 346.057 397.995C345.998 397.975 345.94 397.936 345.882 397.897C345.727 397.742 345.727 397.509 345.804 397.315C345.921 397.024 346.232 396.868 346.542 396.985ZM342.755 405.918C342.619 406.209 342.289 406.229 341.998 406.229C341.94 406.209 341.881 406.171 341.823 406.132C341.668 405.976 341.668 405.743 341.745 405.549C341.862 405.258 342.173 405.102 342.464 405.219C342.736 405.316 342.852 405.666 342.736 405.918H342.755ZM345.824 401.413C345.688 401.704 345.358 401.723 345.066 401.723C345.008 401.704 344.95 401.665 344.892 401.626C344.736 401.471 344.736 401.238 344.814 401.044C344.93 400.752 345.241 400.597 345.532 400.713C345.804 400.811 345.921 401.16 345.804 401.413H345.824ZM344.387 404.928C344.659 405.025 344.775 405.374 344.658 405.627C344.523 405.918 344.192 405.937 343.901 405.937C343.843 405.918 343.785 405.879 343.726 405.84C343.571 405.685 343.571 405.452 343.649 405.258C343.726 405.044 343.921 404.908 344.134 404.889C344.154 404.889 344.173 404.889 344.212 404.889C344.27 404.889 344.328 404.889 344.387 404.928ZM342.25 403.199C342.114 403.491 341.784 403.51 341.493 403.51C341.435 403.491 341.376 403.452 341.318 403.413C341.163 403.257 341.163 403.024 341.241 402.83C341.357 402.539 341.668 402.384 341.959 402.5C342.231 402.597 342.347 402.947 342.231 403.199H342.25ZM342.328 398.655C342.192 398.946 341.862 398.966 341.571 398.966C341.512 398.946 341.454 398.907 341.396 398.868C341.241 398.713 341.241 398.48 341.318 398.286C341.435 397.995 341.745 397.839 342.037 397.956C342.309 398.053 342.425 398.402 342.309 398.655H342.328ZM342.367 394.518C342.231 394.81 341.901 394.829 341.609 394.829C341.551 394.81 341.493 394.771 341.435 394.732C341.279 394.577 341.279 394.344 341.357 394.149C341.474 393.858 341.784 393.703 342.076 393.819C342.348 393.916 342.464 394.266 342.347 394.518H342.367ZM343.202 386.673C343.357 387.216 343.532 387.76 343.649 388.304C343.707 388.867 343.765 389.43 343.804 389.974C342.988 390.984 342.289 392.207 342.037 393.489C341.571 393.411 341.124 393.722 341.105 394.208C341.105 394.499 341.221 394.771 341.435 394.926C341.454 394.926 341.474 394.946 341.493 394.965C341.512 394.965 341.532 394.984 341.571 395.004C341.959 395.159 342.445 395.004 342.619 394.596C342.794 394.188 342.619 393.742 342.231 393.547C342.678 392.44 343.144 391.411 343.843 390.46C343.94 391.858 343.979 393.256 343.94 394.654C343.085 395.47 342.367 396.48 342.056 397.626C342.056 397.626 342.056 397.626 342.037 397.626C341.571 397.529 341.085 397.839 341.066 398.344C341.066 398.635 341.182 398.907 341.396 399.063C341.415 399.063 341.435 399.082 341.454 399.102C341.474 399.102 341.493 399.121 341.532 399.14C341.92 399.296 342.406 399.14 342.581 398.733C342.736 398.344 342.581 397.917 342.25 397.723C342.697 396.752 343.202 395.897 343.921 395.14C343.921 395.586 343.882 396.033 343.843 396.46C343.785 397.276 343.687 398.092 343.571 398.888C342.736 399.801 342.095 400.946 341.959 402.189C341.959 402.189 341.94 402.189 341.92 402.189C341.454 402.092 340.969 402.403 340.949 402.908C340.949 403.199 341.066 403.471 341.279 403.626C341.299 403.626 341.318 403.646 341.338 403.665C341.357 403.665 341.377 403.685 341.415 403.704C341.804 403.86 342.289 403.704 342.464 403.296C342.639 402.908 342.464 402.442 342.095 402.267C342.386 401.218 342.794 400.267 343.474 399.432C343.183 401.277 342.794 403.083 342.386 404.928C341.92 404.85 341.474 405.161 341.454 405.646C341.454 405.937 341.571 406.209 341.784 406.365C341.804 406.365 341.823 406.384 341.843 406.404C341.862 406.404 341.881 406.423 341.92 406.442C342.309 406.598 342.794 406.442 342.969 406.035C343.144 405.627 342.969 405.161 342.561 404.986C342.852 404.19 343.085 403.355 343.28 402.519C343.552 403.219 343.785 403.898 343.979 404.636C343.629 404.695 343.357 404.966 343.338 405.355C343.338 405.646 343.454 405.918 343.668 406.073C343.687 406.073 343.707 406.093 343.726 406.112C343.746 406.112 343.765 406.132 343.804 406.151C344.192 406.306 344.678 406.151 344.853 405.743C345.047 405.297 344.775 404.753 344.289 404.636C344.231 404.636 344.192 404.636 344.134 404.636C344.018 403.762 343.765 402.85 343.377 402.073C343.707 400.597 343.901 399.102 344.037 397.626C344.62 398.5 345.008 399.393 345.261 400.422C344.853 400.422 344.503 400.733 344.484 401.16C344.484 401.451 344.6 401.723 344.814 401.879C344.814 401.879 344.853 401.898 344.872 401.917C344.892 401.917 344.911 401.937 344.95 401.956C345.338 402.112 345.824 401.956 345.998 401.548C346.193 401.102 345.921 400.558 345.435 400.442C345.435 400.442 345.396 400.442 345.377 400.442C345.299 399.276 344.814 398.033 344.056 397.14C344.056 396.926 344.095 396.693 344.115 396.48C344.192 395.47 344.231 394.441 344.231 393.411C345.066 394.402 345.571 395.528 346.037 396.732C345.727 396.81 345.474 397.082 345.455 397.431C345.455 397.723 345.571 397.995 345.785 398.15C345.804 398.15 345.824 398.169 345.843 398.189C345.863 398.189 345.882 398.208 345.921 398.228C346.309 398.383 346.795 398.228 346.969 397.82C347.164 397.373 346.911 396.829 346.406 396.713C346.348 396.713 346.27 396.713 346.212 396.713C345.96 395.295 345.144 393.975 344.192 392.926C344.192 391.935 344.134 390.965 344.037 389.993C344.037 389.877 344.037 389.78 344.037 389.663C345.047 390.362 345.668 391.256 346.076 392.421C345.785 392.518 345.552 392.771 345.552 393.12C345.552 393.411 345.668 393.683 345.882 393.839C345.901 393.839 345.921 393.858 345.94 393.878C345.96 393.878 345.979 393.897 346.018 393.916C346.406 394.072 346.892 393.916 347.067 393.509C347.261 393.042 346.989 392.518 346.503 392.402C346.426 392.402 346.367 392.382 346.29 392.402C346.057 391.139 345.144 389.896 343.998 389.294C343.94 388.362 343.726 387.411 343.396 386.634C343.299 386.401 342.95 386.517 343.027 386.77L343.202 386.673Z" fill="#D1636E"/>
<path fill-rule="evenodd" clip-rule="evenodd" d="M333.937 400.558C334.228 400.403 334.539 400.248 334.733 399.976C334.927 399.704 334.927 399.296 334.772 398.966C335.005 398.733 335.238 398.5 335.471 398.267C335.277 399.587 335.141 400.927 335.082 402.267C334.83 402.52 334.597 402.811 334.364 403.083C334.344 403.044 334.306 403.025 334.286 402.986C333.956 402.695 333.393 402.908 333.14 403.199C332.849 403.53 332.733 403.976 332.616 404.384C332.441 405.103 332.247 405.802 332.072 406.52C332.364 405.802 332.946 405.2 333.645 404.811C333.937 404.656 334.247 404.501 334.442 404.229C334.616 403.976 334.636 403.588 334.5 403.277C334.694 403.083 334.888 402.869 335.063 402.675C335.005 404.132 335.024 405.608 335.102 407.064C334.83 407.588 334.558 408.093 334.267 408.618C333.898 408.424 333.412 408.734 333.218 409.064C332.985 409.433 332.946 409.899 332.927 410.327C332.868 411.065 332.83 411.803 332.771 412.521C332.946 411.744 333.412 411.065 334.014 410.56C334.267 410.346 334.558 410.152 334.694 409.861C334.849 409.53 334.752 409.084 334.5 408.792C334.733 408.385 334.946 407.957 335.141 407.53C335.16 407.86 335.199 408.19 335.218 408.521C335.296 409.356 335.393 410.191 335.529 411.026C335.082 411.084 334.888 411.647 334.927 412.036C334.966 412.482 335.218 412.871 335.471 413.24C335.879 413.861 336.286 414.483 336.714 415.104C336.364 414.386 336.325 413.55 336.5 412.774C336.578 412.443 336.675 412.113 336.617 411.783C336.539 411.414 336.151 411.104 335.762 411.045C335.665 410.346 335.587 409.647 335.529 408.948C335.626 409.064 335.723 409.181 335.82 409.297C335.665 409.647 335.723 410.113 335.976 410.385C336.209 410.637 336.539 410.735 336.85 410.851C337.588 411.142 338.248 411.667 338.656 412.346C338.364 411.647 338.093 410.968 337.801 410.268C337.626 409.861 337.452 409.433 337.122 409.142C336.83 408.89 336.267 408.754 335.976 409.045C335.82 408.87 335.646 408.715 335.49 408.54C335.374 407.258 335.335 405.977 335.315 404.695C335.413 404.889 335.529 405.103 335.665 405.297C335.49 405.646 335.51 406.132 335.762 406.423C335.976 406.676 336.325 406.773 336.636 406.909C337.374 407.219 338.015 407.744 338.403 408.443C338.131 407.744 337.879 407.045 337.607 406.346C337.452 405.938 337.277 405.491 336.947 405.2C336.675 404.967 336.17 404.792 335.84 405.044C335.646 404.734 335.471 404.423 335.296 404.093C335.296 403.471 335.315 402.83 335.354 402.209C335.354 402.17 335.354 402.151 335.354 402.112C335.393 401.393 335.451 400.675 335.529 399.956C335.646 400.15 335.782 400.364 335.898 400.558C335.626 400.888 335.587 401.432 335.84 401.762C336.034 402.034 336.364 402.17 336.655 402.326C337.355 402.714 337.957 403.297 338.267 404.035L337.685 401.879C337.568 401.452 337.432 401.005 337.141 400.675C336.908 400.422 336.442 400.228 336.112 400.384C335.937 400.112 335.743 399.84 335.568 399.587C335.626 399.082 335.704 398.577 335.782 398.072C335.859 397.529 335.976 396.966 336.073 396.422C336.189 396.635 336.306 396.868 336.442 397.082C336.112 397.393 336.053 398.014 336.306 398.364C336.5 398.636 336.83 398.772 337.122 398.927C337.821 399.315 338.423 399.898 338.733 400.636C338.539 399.917 338.345 399.199 338.151 398.48C338.034 398.053 337.898 397.606 337.607 397.276C337.393 397.043 336.986 396.868 336.675 396.946C336.5 396.655 336.345 396.344 336.17 396.053C336.325 395.315 336.5 394.596 336.675 393.878C336.714 393.703 336.461 393.606 336.422 393.781C336.053 395.121 335.762 396.461 335.529 397.839C335.218 398.131 334.908 398.422 334.597 398.713C334.597 398.713 334.577 398.694 334.558 398.675C334.228 398.383 333.665 398.597 333.412 398.888C333.121 399.218 333.004 399.665 332.888 400.073C332.713 400.791 332.519 401.49 332.344 402.209C332.635 401.49 333.218 400.888 333.917 400.5L333.937 400.558Z" fill="#D1636E"/>
<path fill-rule="evenodd" clip-rule="evenodd" d="M356.949 403.645C357.57 403.451 357.59 402.694 357.59 402.674V402.635C357.59 402.616 357.124 402.014 356.502 402.208C356.328 402.266 356.172 402.344 356.036 402.461C356.094 402.286 356.133 402.111 356.133 401.936C356.133 401.276 355.434 401.043 355.395 401.023H355.357C355.318 401.023 354.619 401.276 354.619 401.936C354.619 402.111 354.657 402.305 354.716 402.461C354.58 402.344 354.405 402.266 354.23 402.208C353.609 402.014 353.162 402.596 353.143 402.635V402.674C353.143 402.713 353.143 403.451 353.783 403.645C353.958 403.703 354.133 403.723 354.327 403.723C354.172 403.82 354.036 403.956 353.939 404.092C353.55 404.616 353.978 405.238 353.997 405.257C353.997 405.257 354.017 405.276 354.036 405.276C354.152 405.315 354.288 405.335 354.405 405.335C354.949 405.335 355.24 405.005 355.395 404.5C355.551 405.024 355.842 405.335 356.386 405.335C356.502 405.335 356.638 405.335 356.755 405.276C356.755 405.276 356.794 405.276 356.794 405.257C356.794 405.238 357.24 404.616 356.852 404.092C356.735 403.956 356.619 403.82 356.463 403.723C356.638 403.723 356.832 403.723 357.007 403.645H356.949Z" fill="#D1636E"/>
<path fill-rule="evenodd" clip-rule="evenodd" d="M351.315 382.827C351.334 383.584 351.431 384.361 351.548 385.157C351.548 385.138 351.587 385.118 351.626 385.099C352.033 384.983 352.48 385.06 352.81 385.313C353.004 385.468 353.373 385.876 353.257 386.167C353.121 386.497 352.538 386.323 352.305 386.264C352.072 386.206 351.859 386.109 351.684 385.973C351.82 386.711 351.975 387.468 352.131 388.226C352.131 388.226 352.15 388.187 352.189 388.187C352.519 387.993 352.907 387.934 353.276 388.051C353.548 388.129 354.092 388.439 354.053 388.789C354.014 389.138 353.412 389.138 353.179 389.138C352.849 389.138 352.558 389.08 352.305 388.925C352.461 389.702 352.635 390.459 352.791 391.236C352.791 391.236 352.81 391.236 352.83 391.236C353.257 391.139 353.665 391.333 353.975 391.605C354.17 391.78 354.519 392.051 354.247 392.304C354.014 392.537 353.548 392.498 353.257 392.42C353.14 392.382 353.043 392.343 352.946 392.285C353.082 393.061 353.179 393.838 353.238 394.596C353.956 394.809 354.403 395.469 354.422 396.207C354.422 396.266 354.383 396.304 354.344 396.324C353.878 396.499 353.529 396.227 353.296 395.838C353.296 396.557 353.257 397.256 353.16 397.936C353.16 397.936 353.179 397.936 353.199 397.936C353.878 398.266 354.17 398.887 354.17 399.606C354.17 399.664 354.131 399.722 354.073 399.742C353.723 399.858 353.432 399.722 353.199 399.451C353.102 399.334 353.004 399.198 352.927 399.062C352.752 399.742 352.5 400.402 352.15 401.043C352.616 401.567 352.635 402.267 352.402 402.888C352.383 402.966 352.305 403.004 352.228 402.985C351.859 402.966 351.626 402.674 351.529 402.344C351.509 402.267 351.49 402.189 351.47 402.111C351.393 402.228 351.315 402.325 351.237 402.441C351.373 402.907 351.412 403.432 351.296 403.898C351.218 404.189 350.985 404.713 350.616 404.422C350.363 404.228 350.305 403.801 350.324 403.49C350.344 403.004 350.596 402.597 350.985 402.305C351.121 402.111 351.276 401.936 351.393 401.742C351.179 401.82 350.946 401.878 350.713 401.878C350.499 401.878 349.994 401.917 349.956 401.626C349.897 401.257 350.441 400.888 350.713 400.791C351.101 400.655 351.529 400.713 351.898 400.888C352.208 400.305 352.441 399.684 352.616 399.062C352.441 399.198 352.247 399.295 352.033 399.373C351.82 399.451 351.47 399.567 351.412 399.256C351.354 398.907 351.587 398.499 351.82 398.285C352.111 398.033 352.48 397.916 352.869 397.936C352.966 397.295 353.024 396.654 353.024 396.013C352.83 396.402 352.519 396.732 352.131 396.829C352.072 396.829 352.033 396.829 351.995 396.771C351.742 396.479 351.762 395.974 351.878 395.644C352.053 395.198 352.441 394.887 352.888 394.731C352.927 394.731 352.946 394.731 352.985 394.731C352.927 393.916 352.81 393.081 352.674 392.246C352.597 392.673 352.286 393.042 351.839 393.217C351.762 393.236 351.664 393.217 351.645 393.139C351.529 392.809 351.451 392.459 351.645 392.129C351.839 391.799 352.189 391.644 352.519 391.488C352.383 390.77 352.228 390.051 352.072 389.333C351.936 389.702 351.664 390.012 351.276 390.187C351.218 390.207 351.14 390.187 351.101 390.148C350.927 389.915 350.946 389.507 351.024 389.255C351.121 388.847 351.47 388.634 351.839 388.459C351.839 388.459 351.859 388.459 351.878 388.459C351.703 387.604 351.509 386.769 351.373 385.934C351.179 386.4 350.752 386.711 350.247 386.808C350.189 386.808 350.111 386.789 350.091 386.73C349.975 386.439 350.111 386.012 350.286 385.779C350.499 385.468 350.868 385.371 351.237 385.293C351.237 385.293 351.257 385.293 351.276 385.293C351.14 384.478 351.062 383.662 351.024 382.866C351.024 382.672 351.315 382.633 351.315 382.827V382.827Z" fill="#D1636E"/>
<path fill-rule="evenodd" clip-rule="evenodd" d="M341.414 411.064C342.094 410.986 343.026 411.414 343.667 411.647C343.725 411.705 343.822 411.666 343.841 411.608C343.841 411.608 343.841 411.608 343.841 411.569C343.841 410.714 343.783 409.879 343.725 409.025C343.919 409.025 344.133 408.889 344.21 408.714C344.327 408.462 344.21 408.151 343.997 407.996C343.919 407.937 343.861 407.918 343.706 407.918C343.472 407.918 343.239 408.054 343.162 408.306C343.084 408.578 343.22 408.889 343.492 408.986C343.492 408.986 343.511 408.986 343.531 408.986C343.57 409.472 343.608 409.957 343.628 410.443C343.628 410.656 343.686 410.889 343.647 411.103C343.647 411.142 343.647 411.181 343.647 411.219C343.278 410.656 342.87 410.132 342.404 409.627C342.443 409.588 342.463 409.549 342.482 409.51C342.579 409.297 342.521 409.044 342.366 408.87C342.23 408.734 342.055 408.695 341.88 408.734C341.686 408.772 341.511 408.908 341.453 409.122C341.375 409.394 341.511 409.705 341.783 409.802C341.938 409.86 342.132 409.841 342.268 409.743C342.734 410.248 343.162 410.792 343.531 411.355C343.472 411.355 343.395 411.317 343.278 411.278C342.715 411.103 341.997 410.773 341.375 410.85C341.356 410.812 341.336 410.753 341.297 410.714C341.259 410.656 341.22 410.617 341.161 410.579C341.161 410.579 341.103 410.54 341.045 410.54C341.006 410.54 340.948 410.54 340.928 410.54C340.851 410.54 340.792 410.54 340.715 410.559C340.54 410.598 340.385 410.734 340.326 410.928C340.249 411.2 340.385 411.511 340.657 411.608C340.928 411.705 341.239 411.569 341.356 411.317C341.394 411.239 341.414 411.142 341.395 411.045L341.414 411.064Z" fill="#D1636E"/>
<path fill-rule="evenodd" clip-rule="evenodd" d="M338.558 419.784C338.81 419.784 339.005 419.59 339.005 419.337C339.005 419.085 338.81 418.891 338.558 418.891C338.306 418.891 338.111 419.085 338.111 419.337C338.111 419.59 338.306 419.784 338.558 419.784Z" fill="#D1636E"/>
<path fill-rule="evenodd" clip-rule="evenodd" d="M339.861 396.887C340.113 396.887 340.307 396.693 340.307 396.441C340.307 396.188 340.113 395.994 339.861 395.994C339.608 395.994 339.414 396.188 339.414 396.441C339.414 396.693 339.608 396.887 339.861 396.887Z" fill="#D1636E"/>
<path fill-rule="evenodd" clip-rule="evenodd" d="M339.956 418.794C340.209 418.794 340.403 418.599 340.403 418.347C340.403 418.095 340.209 417.9 339.956 417.9C339.704 417.9 339.51 418.095 339.51 418.347C339.51 418.599 339.704 418.794 339.956 418.794Z" fill="#D1636E"/>
<path fill-rule="evenodd" clip-rule="evenodd" d="M347.937 403.354C348.189 403.354 348.384 403.16 348.384 402.908C348.384 402.655 348.189 402.461 347.937 402.461C347.684 402.461 347.49 402.655 347.49 402.908C347.49 403.16 347.684 403.354 347.937 403.354Z" fill="#D1636E"/>
<path fill-rule="evenodd" clip-rule="evenodd" d="M339.861 420.153C340.113 420.153 340.307 419.959 340.307 419.706C340.307 419.454 340.113 419.26 339.861 419.26C339.608 419.26 339.414 419.454 339.414 419.706C339.414 419.959 339.608 420.153 339.861 420.153Z" fill="#D1636E"/>
</g>
<path d="M550.568 556.807C550.568 556.807 557.406 519.008 551.775 527.048C546.145 535.088 544.94 548.764 544.94 548.764C544.94 548.764 539.719 535.166 536.104 542.569C532.49 549.972 531.676 553.187 531.676 553.187C531.676 553.187 525.25 541.942 521.625 547.958C518 553.975 517.199 558.4 517.199 558.4L537.708 557.999L536.102 554.382L550.568 556.807Z" fill="#5EAD41"/>
<path d="M483.568 446.807C483.568 446.807 490.406 409.008 484.775 417.048C479.145 425.088 477.94 438.764 477.94 438.764C477.94 438.764 472.719 425.166 469.104 432.569C465.49 439.972 464.676 443.187 464.676 443.187C464.676 443.187 458.25 431.942 454.625 437.958C451 443.975 450.199 448.4 450.199 448.4L470.708 447.999L469.102 444.382L483.568 446.807Z" fill="#5EAD41"/>
<path d="M2.86623 558.159C2.86623 558.159 -6.82956 504.563 1.15409 515.963C9.13773 527.364 10.8461 546.755 10.8461 546.755C10.8461 546.755 18.2489 527.474 23.3739 537.97C28.4989 548.467 29.653 553.027 29.653 553.027C29.653 553.027 38.7642 537.082 43.9044 545.612C49.0446 554.143 50.1797 560.418 50.1797 560.418L21.0999 559.849L23.3777 554.72L2.86623 558.159Z" fill="#5EAD41"/>
<path d="M497.892 560.338C497.892 560.338 479.797 513.007 490.253 523.525C500.708 534.044 509.555 556.699 509.555 556.699C509.555 556.699 503.932 532.425 511.161 541.324C515.552 546.745 519.203 552.732 522.018 559.126C522.018 559.126 524.029 534.852 527.245 542.539C530.46 550.226 533.67 559.53 533.67 559.53C533.67 559.53 543.309 527.571 545.333 542.135C547.358 556.699 544.126 563.576 544.126 563.576L520.803 566L529.247 562.358L497.892 560.338Z" fill="#174730"/>
<path d="M430.892 450.338C430.892 450.338 412.797 403.007 423.253 413.525C433.708 424.044 442.555 446.699 442.555 446.699C442.555 446.699 436.932 422.425 444.161 431.324C448.552 436.745 452.203 442.732 455.018 449.126C455.018 449.126 457.029 424.852 460.245 432.539C463.46 440.226 466.67 449.53 466.67 449.53C466.67 449.53 476.309 417.571 478.333 432.135C480.358 446.699 477.126 453.576 477.126 453.576L453.803 456L462.247 452.358L430.892 450.338Z" fill="#174730"/>
<path d="M174.493 563.022C174.493 563.022 200.255 496.328 185.369 511.149C170.483 525.97 157.888 557.894 157.888 557.894C157.888 557.894 165.894 523.689 155.601 536.23C149.35 543.868 144.151 552.304 140.144 561.314C140.144 561.314 137.281 527.109 132.703 537.941C128.125 548.774 123.554 561.883 123.554 561.883C123.554 561.883 109.831 516.85 106.949 537.372C104.067 557.894 108.668 567.584 108.668 567.584L141.874 571L129.851 565.869L174.493 563.022Z" fill="#174730"/>
</g>
</g>
</g>
<defs>
<filter id="filter0_ddddd_414_4853" x="-49" y="-9" width="695" height="740" filterUnits="userSpaceOnUse" color-interpolation-filters="sRGB">
<feFlood flood-opacity="0" result="BackgroundImageFix"/>
<feColorMatrix in="SourceAlpha" type="matrix" values="0 0 0 0 0 0 0 0 0 0 0 0 0 0 0 0 0 0 127 0" result="hardAlpha"/>
<feOffset/>
<feColorMatrix type="matrix" values="0 0 0 0 0.713726 0 0 0 0 0.501961 0 0 0 0 0.0470588 0 0 0 0.13 0"/>
<feBlend mode="normal" in2="BackgroundImageFix" result="effect1_dropShadow_414_4853"/>
<feColorMatrix in="SourceAlpha" type="matrix" values="0 0 0 0 0 0 0 0 0 0 0 0 0 0 0 0 0 0 127 0" result="hardAlpha"/>
<feOffset dy="8"/>
<feGaussianBlur stdDeviation="8.5"/>
<feColorMatrix type="matrix" values="0 0 0 0 0.713726 0 0 0 0 0.501961 0 0 0 0 0.0470588 0 0 0 0.13 0"/>
<feBlend mode="normal" in2="effect1_dropShadow_414_4853" result="effect2_dropShadow_414_4853"/>
<feColorMatrix in="SourceAlpha" type="matrix" values="0 0 0 0 0 0 0 0 0 0 0 0 0 0 0 0 0 0 127 0" result="hardAlpha"/>
<feOffset dy="30"/>
<feGaussianBlur stdDeviation="15"/>
<feColorMatrix type="matrix" values="0 0 0 0 0.713726 0 0 0 0 0.501961 0 0 0 0 0.0470588 0 0 0 0.11 0"/>
<feBlend mode="normal" in2="effect2_dropShadow_414_4853" result="effect3_dropShadow_414_4853"/>
<feColorMatrix in="SourceAlpha" type="matrix" values="0 0 0 0 0 0 0 0 0 0 0 0 0 0 0 0 0 0 127 0" result="hardAlpha"/>
<feOffset dy="68"/>
<feGaussianBlur stdDeviation="20.5"/>
<feColorMatrix type="matrix" values="0 0 0 0 0.713726 0 0 0 0 0.501961 0 0 0 0 0.0470588 0 0 0 0.07 0"/>
<feBlend mode="normal" in2="effect3_dropShadow_414_4853" result="effect4_dropShadow_414_4853"/>
<feColorMatrix in="SourceAlpha" type="matrix" values="0 0 0 0 0 0 0 0 0 0 0 0 0 0 0 0 0 0 127 0" result="hardAlpha"/>
<feOffset dy="121"/>
<feGaussianBlur stdDeviation="24.5"/>
<feColorMatrix type="matrix" values="0 0 0 0 0.713726 0 0 0 0 0.501961 0 0 0 0 0.0470588 0 0 0 0.02 0"/>
<feBlend mode="normal" in2="effect4_dropShadow_414_4853" result="effect5_dropShadow_414_4853"/>
<feBlend mode="normal" in="SourceGraphic" in2="effect5_dropShadow_414_4853" result="shape"/>
</filter>
<linearGradient id="paint0_linear_414_4853" x1="813.637" y1="12.4251" x2="-106.592" y2="387.34" gradientUnits="userSpaceOnUse">
<stop stop-color="#FFFDEC"/>
<stop offset="1" stop-color="white"/>
</linearGradient>
<linearGradient id="paint1_linear_414_4853" x1="177.611" y1="425.593" x2="159.405" y2="400.217" gradientUnits="userSpaceOnUse">
<stop offset="0.01" stop-color="#00632C"/>
<stop offset="0.99" stop-color="#84B400"/>
</linearGradient>
<linearGradient id="paint2_linear_414_4853" x1="193.21" y1="392.815" x2="179.319" y2="373.799" gradientUnits="userSpaceOnUse">
<stop offset="0.01" stop-color="#00632C"/>
<stop offset="0.99" stop-color="#84B400"/>
</linearGradient>
<linearGradient id="paint3_linear_414_4853" x1="115.21" y1="408.815" x2="101.319" y2="389.799" gradientUnits="userSpaceOnUse">
<stop offset="0.01" stop-color="#00632C"/>
<stop offset="0.99" stop-color="#84B400"/>
</linearGradient>
<linearGradient id="paint4_linear_414_4853" x1="578.615" y1="391.599" x2="560.409" y2="366.217" gradientUnits="userSpaceOnUse">
<stop offset="0.01" stop-color="#00632C"/>
<stop offset="0.99" stop-color="#84B400"/>
</linearGradient>
<clipPath id="clip0_414_4853">
<rect width="597" height="561" fill="white"/>
</clipPath>
<clipPath id="clip1_414_4853">
<path d="M0 0H589C591.8 0 593.2 0 594.27 0.544967C595.211 1.02433 595.976 1.78924 596.455 2.73005C597 3.79961 597 5.19974 597 8V553C597 555.8 597 557.2 596.455 558.27C595.976 559.211 595.211 559.976 594.27 560.455C593.2 561 591.8 561 589 561H0V0Z" fill="white"/>
</clipPath>
</defs>
</svg>
