<svg width="375" height="1383" viewBox="0 0 375 1383" fill="none" xmlns="http://www.w3.org/2000/svg">
<g clip-path="url(#clip0_410_4853)">
<g clip-path="url(#clip1_410_4853)">
<path fill-rule="evenodd" clip-rule="evenodd" d="M322.53 623.966C321.982 623.903 322.398 618.16 320.027 614.581C315.942 608.626 299.677 612.714 306.421 622.506C308.328 625.28 311.165 627.558 310.982 627.763C309.459 627.116 307.858 626.656 306.216 626.393C293.206 624.91 293.388 645.611 309.227 641.776C311.758 641.162 311.209 641.099 309.797 643.044C308.384 644.988 308.054 645.101 307.126 646.274C306.242 647.42 305.857 648.85 306.049 650.269C306.241 651.689 306.997 652.991 308.161 653.912C311.653 656.716 318.435 657.113 320.519 652.763C321.346 650.949 321.961 649.052 322.354 647.107C324.141 639.791 319.141 657.193 332.115 658.296C337.601 658.921 342.332 655.023 336.849 647.405C336.052 646.288 335.164 645.231 334.192 644.245C332.908 642.97 332.934 642.748 334.294 643.354C336.753 644.422 339.495 644.734 342.131 644.247C345.472 643.5 348.179 635.762 346.503 631.661C344.072 625.819 338.279 627.189 334.626 627.901C330.972 628.612 329.909 628.19 333.994 626.475C335.38 625.916 336.706 625.237 337.957 624.445C348.051 618.076 331.537 604.839 325.285 617.211C323.754 620.195 323.007 623.268 322.615 623.223L322.53 623.966ZM325.647 629.359C327.079 630.726 324.55 632.016 323.137 631.179C321.724 630.341 323.577 627.318 325.647 629.359ZM317.53 630.916C319.316 628.487 320.923 627.618 321.449 631.362C321.805 633.809 321.59 637.093 318.417 635.679C317.997 635.463 317.633 635.161 317.352 634.795C317.071 634.429 316.88 634.008 316.793 633.565C316.706 633.121 316.726 632.666 316.851 632.233C316.975 631.8 317.202 631.4 317.513 631.064L317.53 630.916ZM326.582 633C329.704 634.86 328.434 637.648 326.083 637.38C320.361 636.728 323.171 630.882 326.582 633ZM323.255 637.81C327.329 640.379 322.823 641.596 319.161 639.599C315.498 637.602 319.635 635.442 323.568 637.845L323.255 637.81Z" fill="#5EAD41"/>
<path fill-rule="evenodd" clip-rule="evenodd" d="M317.712 3.71023C318.947 3.54785 320.508 4.12634 320.759 5.60469C320.823 6.07878 320.733 6.56125 320.501 6.9836C320.27 7.40596 319.909 7.74672 319.47 7.95743C318.482 8.31046 317.428 8.44898 316.383 8.3634C313.233 8.24713 310.125 7.63516 307.179 6.55081C304.668 5.62951 302.308 4.35606 300.172 2.76998C300.642 6.34676 301.105 9.86845 301.912 13.4009C307.699 13.9835 313.53 14.8962 319.324 15.5338C320.546 15.7089 321.98 16.1921 322.063 17.6926C322.072 18.1633 321.936 18.6263 321.671 19.0207C321.407 19.4151 321.028 19.7225 320.584 19.9024C319.633 20.2504 318.617 20.3841 317.609 20.2936C314.66 19.9288 311.777 19.1783 309.035 18.0622C306.523 17.0859 304.161 15.7769 302.014 14.1713C302.376 16.9227 302.737 19.6741 303.541 22.3114C309.455 24.0196 315.5 25.265 321.619 26.0359C322.897 26.2037 324.499 26.6647 324.695 28.1505C324.693 28.6271 324.546 29.093 324.272 29.4881C323.998 29.8832 323.611 30.1895 323.159 30.3677C322.115 30.73 321.006 30.8758 319.903 30.7958C316.618 30.4219 313.425 29.4974 310.464 28.0625C308.002 26.8158 305.735 25.2287 303.735 23.3495C304.154 26.5411 305.016 29.6186 305.716 32.7733C311.415 34.6593 317.325 35.874 323.323 36.3918C324.502 36.2368 326.126 36.8629 326.377 38.3413C326.432 38.8235 326.323 39.3108 326.069 39.7284C325.814 40.1461 325.428 40.4711 324.968 40.6538C323.949 41.0397 322.853 41.1839 321.769 41.0745C318.486 40.8274 315.288 39.9551 312.352 38.5063C309.978 37.2832 307.835 35.672 306.015 33.7417C306.606 36.5002 307.256 39.2697 307.964 42.0501L308.036 42.6004C314.503 44.5469 321.079 46.1305 327.733 47.3436C329.081 47.6141 330.754 48.1778 330.838 49.6783C330.828 50.177 330.648 50.659 330.326 51.0466C330.004 51.4341 329.559 51.7048 329.063 51.815C327.91 52.0143 326.732 52.0177 325.581 51.825C322.173 51.2068 318.876 50.1135 315.789 48.5783C313.033 47.1764 310.479 45.423 308.194 43.3634C308.899 46.1255 309.591 48.7775 310.367 51.6423C313.103 52.9059 315.888 54.1072 318.714 55.191C321.94 56.3688 325.235 57.3562 328.582 58.1478C329.882 58.4807 331.506 59.1068 331.533 60.6147C331.507 61.1082 331.31 61.5789 330.974 61.9489C330.639 62.3189 330.185 62.5658 329.688 62.6487C328.52 62.8202 327.33 62.7675 326.184 62.4936C322.753 61.6023 319.508 60.1352 316.592 58.1571C314.444 56.8183 312.5 55.1896 310.816 53.3187C311.806 56.9391 312.852 60.5521 313.891 64.1101C316.544 65.6086 319.301 67.0373 322.093 68.2936C325.333 69.7379 328.68 70.9445 332.104 71.9033C333.467 72.2838 335.155 72.9576 335.126 74.4729C335.075 74.973 334.854 75.4425 334.497 75.8046C334.14 76.1668 333.669 76.4001 333.161 76.4666C332.551 76.5316 331.935 76.5186 331.328 76.4277L329.516 76.1062C326.011 75.1035 322.723 73.4878 319.809 71.3368C317.877 69.9099 316.127 68.2608 314.595 66.4246C315.591 69.6524 316.586 72.8803 317.638 76.1007C322.458 79.1355 327.748 81.3884 333.305 82.7733C334.493 83.1209 335.885 83.7215 335.912 85.2294C335.881 85.7168 335.691 86.1822 335.37 86.5571C335.049 86.9319 334.614 87.1962 334.13 87.311L332.502 87.5251L330.922 87.2291C327.796 86.3228 324.895 84.7995 322.395 82.7524C321.088 81.6503 319.925 80.393 318.934 79.0092C320.056 82.3323 321.178 85.6554 322.357 88.9711C327.124 92.0868 332.347 94.4761 337.85 96.0583C338.974 96.3583 340.311 96.9664 340.281 98.4816C340.236 98.9557 340.048 99.4064 339.741 99.776C339.433 100.146 339.02 100.417 338.556 100.556L336.984 100.763C336.467 100.705 335.957 100.604 335.459 100.459C332.424 99.5559 329.629 98.013 327.27 95.9382C325.593 94.4969 324.173 92.7921 323.066 90.8931C324.067 93.7283 325.068 96.5636 326.125 99.3915C330.946 102.543 335.29 106.343 339.031 110.682C339.526 111.091 339.846 111.668 339.929 112.299C340.012 112.93 339.852 113.57 339.479 114.093C339.153 114.435 338.733 114.675 338.271 114.786C337.809 114.897 337.324 114.872 336.877 114.715C336.033 114.311 335.267 113.768 334.61 113.11C331.664 110.044 329.139 106.613 327.101 102.902C327.74 104.721 328.435 106.533 329.115 108.235C333.474 113.574 337.039 119.494 339.708 125.819C340.281 127.143 340.584 129.006 339.05 129.936C338.54 130.196 337.967 130.311 337.396 130.267C336.825 130.223 336.279 130.023 335.82 129.689C334.97 128.94 334.302 128.015 333.864 126.979C331.191 121.3 329.45 115.238 328.704 109.017C328.301 108.118 327.946 107.157 327.542 106.258C328.463 110.923 328.877 115.672 328.777 120.427C328.929 121.582 328.331 123.116 326.816 123.316C326.343 123.345 325.873 123.243 325.459 123.02C325.046 122.796 324.706 122.462 324.48 122.055C324.165 121.174 324.042 120.237 324.118 119.304C324.067 113.916 324.904 108.55 326.597 103.416C324.832 99.1136 323.165 94.6866 321.562 90.3072C322.017 93.111 322.085 95.964 321.763 98.7894C321.363 102.182 320.515 105.512 319.24 108.694C318.781 109.985 317.72 111.469 316.244 111.103C315.776 110.943 315.368 110.649 315.073 110.259C314.777 109.869 314.608 109.4 314.586 108.914C314.612 107.919 314.79 106.933 315.115 105.989C316.213 103.046 317.086 100.132 318.073 97.6513C319.06 95.1704 320.053 92.2969 321.178 89.1262C320.191 86.4009 319.219 83.7858 318.26 80.8331C318.549 86.5438 317.711 92.2613 315.792 97.6714C315.382 98.9008 314.426 100.314 312.965 100.058C312.497 99.9345 312.077 99.679 311.756 99.3234C311.436 98.9678 311.228 98.5275 311.16 98.0566C311.093 97.0699 311.235 96.0791 311.577 95.1468C313.209 89.6982 315.258 84.3763 317.706 79.2265C316.455 75.3605 315.205 71.4945 314.066 67.6137C314.691 70.7011 314.761 73.8747 314.272 76.9912C313.756 80.423 312.691 83.7559 311.116 86.8666C310.482 88.1255 309.238 89.5206 307.797 88.9824C307.36 88.7811 306.996 88.4567 306.749 88.0505C306.503 87.6443 306.385 87.1747 306.412 86.7015C306.527 85.7143 306.806 84.7512 307.236 83.8501C308.517 80.9947 309.602 78.389 310.623 75.7356C311.645 73.0822 312.764 70.304 313.867 66.9682C313.708 65.7576 313.163 64.6537 312.836 63.4652C312.806 63.3201 312.786 63.173 312.778 63.025L310.892 56.4995C311.258 59.8688 311.07 63.2768 310.335 66.593C309.48 70.4044 308.036 74.0678 306.053 77.4562C305.265 78.8473 303.747 80.3343 302.411 79.7263C301.963 79.4712 301.611 79.0821 301.406 78.6156C301.201 78.1492 301.153 77.6298 301.271 77.1334C301.526 76.0629 301.928 75.0307 302.466 74.0652C304.167 70.9307 305.56 68.0606 306.994 65.073C308.433 61.9474 309.709 58.7529 310.818 55.5017C310.615 53.9609 310.027 52.5268 309.6 51.0156L309.556 50.6854C309.339 49.0346 308.736 47.4905 308.295 45.8692C308.207 48.7339 307.695 51.573 306.776 54.2977C305.353 58.3065 303.214 62.0379 300.459 65.3166C299.376 66.6345 297.661 67.9236 296.359 67.1431C295.954 66.82 295.667 66.3767 295.539 65.8792C295.412 65.3816 295.452 64.8562 295.654 64.381C295.848 63.8517 296.107 63.3475 296.427 62.8799C296.715 62.3586 297.051 61.8645 297.432 61.4042C299.439 58.595 301.286 55.6798 302.965 52.6717C304.675 49.8462 306.197 46.916 307.522 43.8996C307.442 43.2943 307.363 42.6889 307.283 42.0836C306.965 39.6624 306.141 37.3077 305.542 34.9234C305.348 38.1804 304.591 41.3841 303.305 44.3981C301.924 47.8206 299.99 51.0048 297.578 53.8279C296.642 54.9587 295.081 56.1155 293.779 55.335C293.398 55.02 293.123 54.5993 292.989 54.1277C292.856 53.6561 292.871 53.1553 293.031 52.6904C293.378 51.6917 293.915 50.766 294.614 49.9632C296.605 47.2944 298.343 44.8826 300.123 42.3534C301.904 39.8241 303.523 37.3721 305.399 34.2705L303.756 26.9853C301.548 32.5652 298.091 37.5924 293.641 41.6943C292.781 42.5351 291.345 43.3397 290.161 42.1519C289.806 41.8428 289.545 41.4439 289.406 40.9983C289.267 40.5528 289.255 40.0777 289.372 39.6247C289.763 38.7972 290.278 38.0313 290.9 37.3525C294.652 33.496 298.735 29.9625 303.102 26.7914C302.409 23.6917 301.772 20.5848 301.128 17.4227C298.868 22.9421 295.173 27.7903 290.414 31.4827C289.378 32.2907 287.815 33 286.765 31.9625C286.465 31.6083 286.274 31.1773 286.214 30.7195C286.153 30.2618 286.227 29.796 286.425 29.3762C286.892 28.5546 287.513 27.8269 288.256 27.2322C290.46 25.319 292.461 23.6004 294.574 21.8671L301.041 16.7623C300.65 13.7908 299.859 10.816 299.3 7.86671C298.363 10.3086 297.022 12.5842 295.332 14.6022C293.286 17.1714 290.818 19.3882 288.029 21.1604C286.922 21.8657 285.211 22.3145 284.371 21.1375C284.058 20.7901 283.858 20.3583 283.798 19.8974C283.737 19.4366 283.818 18.9677 284.031 18.5512C284.554 17.7981 285.227 17.1571 286.01 16.6676C288.419 15.0074 290.505 13.5015 292.633 11.8783C294.761 10.255 296.588 8.95108 298.855 7.08554C298.426 3.82058 297.887 0.588701 297.237 -2.61005C296.135 0.163213 294.538 2.72386 292.521 4.9515C290.49 7.27162 288.117 9.2818 285.482 10.9152C284.425 11.558 282.826 11.9922 281.93 10.8226C281.641 10.4625 281.457 10.0322 281.397 9.57707C281.338 9.12192 281.404 8.65873 281.59 8.23627C282.114 7.51846 282.769 6.90105 283.52 6.41502L296.774 -2.66099C296.485 -4.86209 296.188 -7.11825 295.898 -9.31934C295.205 -6.74181 293.893 -4.36166 292.072 -2.3785C289.826 0.11109 286.965 1.99152 283.767 3.07985C283.095 3.36437 282.357 3.46144 281.634 3.36034C281.303 3.32529 280.989 3.19837 280.73 2.99456C280.47 2.79075 280.276 2.51845 280.169 2.20942C280.043 1.76296 280.041 1.29097 280.162 0.842043C280.284 0.393112 280.525 -0.0165492 280.861 -0.344658C281.179 -0.633716 281.529 -0.88634 281.904 -1.09759C282.279 -1.3199 282.676 -1.50338 283.088 -1.64512C285.41 -2.67891 287.637 -3.90821 289.743 -5.31914C290.794 -6.01704 291.837 -6.77002 292.921 -7.64039C293.939 -8.43996 294.893 -9.31393 295.775 -10.2548C295.421 -12.9511 295.052 -15.7575 294.712 -18.3438C292.606 -14.2105 289.302 -10.776 285.217 -8.47452C284.988 -8.30033 284.724 -8.17447 284.443 -8.10485C284.163 -8.03523 283.87 -8.02342 283.585 -8.07008C283.3 -8.11674 283.028 -8.22085 282.787 -8.37594C282.545 -8.53103 282.339 -8.73371 282.182 -8.97115C281.921 -9.32319 281.754 -9.73436 281.697 -10.167C281.641 -10.5996 281.695 -11.0398 281.857 -11.4474C282.232 -12.0683 282.749 -12.5962 283.367 -12.9895C285.265 -14.1907 287.016 -15.2047 288.662 -16.1488C290.308 -17.093 292.249 -17.964 294.4 -18.9746C293.778 -23.707 293.163 -28.3843 293.102 -33.1905C293.008 -33.9059 294.306 -34.0206 294.393 -33.3603C295.112 -27.8942 295.835 -22.3915 296.564 -16.852C301.099 -17.4337 305.577 -18.3971 309.947 -19.7315C310.457 -19.9449 311.029 -19.9633 311.549 -19.783C312.07 -19.6027 312.502 -19.2367 312.759 -18.7577C312.977 -18.3657 313.081 -17.9221 313.059 -17.475C313.037 -17.0279 312.891 -16.5946 312.636 -16.2224C312.031 -15.5936 311.259 -15.1431 310.408 -14.922C307.986 -14.1584 305.427 -13.9173 302.906 -14.2153C300.823 -14.5147 298.807 -15.1582 296.946 -16.1186C297.344 -13.0921 297.749 -10.0105 298.154 -6.92901C303.15 -7.58594 308.258 -8.25763 312.917 -8.87027C313.984 -9.01051 315.325 -8.79502 315.689 -7.33143C315.814 -6.8893 315.804 -6.42004 315.658 -5.98259C315.512 -5.54514 315.238 -5.15902 314.87 -4.87266C314.126 -4.41378 313.283 -4.13055 312.41 -4.04528C307.545 -3.49905 302.63 -4.30776 298.227 -6.37871C298.61 -3.46225 298.95 -0.875954 299.37 2.31563C306.028 3.00756 312.095 3.55315 317.712 3.71023Z" fill="#5EAD41"/>
<path fill-rule="evenodd" clip-rule="evenodd" d="M235.892 58.5774C244.76 51.8235 246.413 40.8468 247.366 30.3188C247.371 30.1607 247.35 30.0026 247.304 29.8513C247.304 29.8513 247.304 29.8514 247.266 29.5592C247.913 27.2358 248.246 24.8322 248.254 22.4147C252.038 31.7993 258.463 39.8481 266.72 45.5477C266.845 45.6442 266.997 45.6984 267.154 45.7029C267.311 45.7074 267.465 45.662 267.595 45.5728C267.725 45.4837 267.824 45.3554 267.878 45.2059C267.933 45.0563 267.94 44.893 267.898 44.7388C266.408 33.4026 257.503 26.5486 248.755 20.4467C248.619 20.4193 248.478 20.4379 248.353 20.4996C248.079 17.1645 247.546 13.8555 246.76 10.6035L246.552 9.02585L246.954 8.97298C255.576 17.7897 266.279 24.2038 278.029 27.5944C278.188 27.6385 278.356 27.6325 278.511 27.5771C278.666 27.5218 278.801 27.4198 278.897 27.2846C278.994 27.1494 279.047 26.9875 279.051 26.8202C279.054 26.653 279.008 26.4884 278.917 26.3482C271.837 16.9359 258.784 6.52576 246.28 7.39725C244.813 1.73977 242.913 -3.79423 240.598 -9.15395L241.057 -9.21436C249.642 -0.556863 260.218 5.77883 271.815 9.21115C271.976 9.24796 272.145 9.23365 272.298 9.17007C272.451 9.10649 272.581 8.9967 272.671 8.85549C272.76 8.71429 272.805 8.54838 272.799 8.3801C272.793 8.21182 272.737 8.04924 272.637 7.91411C265.557 -1.49823 252.512 -11.8501 240.065 -10.9861C239.89 -11.0326 239.705 -11.0082 239.548 -10.9182C238.881 -12.4355 238.149 -14.0036 237.425 -15.5134C236.701 -17.0231 235.526 -15.7392 236.001 -14.7911C237.281 -12.1656 238.511 -9.47395 239.627 -6.7673C232.348 1.85811 223.422 16.169 224.53 28.1499C224.63 28.9096 225.564 28.9056 225.97 28.4362C233.482 19.364 241.001 9.45865 241.271 -2.70353C242.567 0.930524 243.755 4.6381 244.722 8.43432C244.983 10.4211 245.654 12.4134 246.007 14.2098C238.046 21.201 229.825 28.8803 229.555 40.1509C229.535 40.3064 229.563 40.4645 229.635 40.6038C229.707 40.7431 229.819 40.8568 229.956 40.9295C230.093 41.0023 230.248 41.0306 230.401 41.0106C230.554 40.9907 230.697 40.9234 230.811 40.8179C238.257 34.4467 243.686 25.9806 246.422 16.4736C247.137 20.9126 246.814 25.456 245.478 29.7348C239.281 37.5897 235.517 47.1438 234.659 57.1941C234.479 57.3596 234.372 57.5912 234.36 57.838C234.349 58.0847 234.434 58.3264 234.598 58.5099C234.761 58.6933 234.99 58.8035 235.232 58.8162C235.475 58.8289 235.712 58.743 235.892 58.5774Z" fill="#5EAD41"/>
<g clip-path="url(#clip2_410_4853)" filter="url(#filter0_d_410_4853)">
<rect y="-650" width="1440" height="741" fill="#FFF9F0"/>
</g>
<path fill-rule="evenodd" clip-rule="evenodd" d="M59.2738 1314.55C58.9087 1313.53 58.9087 1312.43 59.2738 1311.41C59.6261 1310.56 60.5422 1309.96 61.3877 1310.53C61.6343 1309.58 62.7618 1309.48 63.6073 1309.89C64.5473 1310.47 65.2549 1311.34 65.6156 1312.36C66.04 1313.44 66.301 1314.58 66.3907 1315.74C66.6725 1317.56 66.7782 1319.35 66.8839 1321.14C67.406 1319.44 68.1022 1317.78 68.9626 1316.21C70.5481 1313.17 72.9086 1309.79 74.8464 1306.27C73.3666 1304.08 71.8516 1301.95 70.5481 1299.51C70.05 1298.65 69.6485 1297.75 69.3502 1296.81C69.0465 1295.93 69.0465 1294.98 69.3502 1294.1C69.7377 1293.36 70.5833 1292.89 71.2527 1293.43C71.5698 1292.62 72.5211 1292.62 73.2609 1293.06C74.0395 1293.61 74.5885 1294.42 74.8111 1295.32C75.0864 1296.27 75.2402 1297.25 75.2692 1298.23C75.2692 1300.59 75.2692 1302.89 75.2692 1305.22C76.6679 1303.15 77.5315 1300.78 77.7887 1298.31C78.046 1295.85 77.6896 1293.37 76.7489 1291.06C74.3884 1288.7 71.9221 1286.5 69.7025 1283.93C68.9427 1283.1 68.281 1282.2 67.7295 1281.23C67.2091 1280.29 67.0235 1279.21 67.201 1278.15C67.4476 1277.27 68.258 1276.56 69.1388 1277C69.1388 1276.06 70.3719 1275.82 71.2527 1276.12C72.2504 1276.59 73.0567 1277.36 73.5428 1278.32C74.0608 1279.31 74.4626 1280.36 74.7407 1281.43C75.5158 1284.2 75.9738 1286.94 76.5023 1289.68C77.8423 1291.78 78.4929 1294.21 78.3696 1296.67C79.039 1294.27 79.6379 1291.91 80.5187 1289.51C80.8749 1288.51 81.3353 1287.55 81.8928 1286.64C82.4415 1285.77 83.2698 1285.09 84.2533 1284.71C85.1341 1284.47 86.1559 1284.71 86.1911 1285.69C87.0719 1285.35 87.8118 1286.1 87.9879 1286.94C88.0625 1287.95 87.7903 1288.96 87.2128 1289.81C86.618 1290.7 85.9206 1291.51 85.1341 1292.25C82.9497 1294.41 80.5892 1296.23 78.0877 1298.19C77.5997 1301.47 76.4891 1304.63 74.8111 1307.52C73.5076 1309.89 71.9926 1312.19 70.6185 1314.55C72.3801 1312.83 74.1417 1311.17 76.0443 1309.45C76.8529 1308.73 77.7523 1308.1 78.7219 1307.59C79.6321 1307.07 80.703 1306.86 81.7519 1307.02C82.6327 1307.22 83.3725 1307.96 82.9145 1308.77C83.8658 1308.77 84.1476 1309.89 83.8305 1310.7C83.4118 1311.63 82.6624 1312.38 81.7166 1312.83C80.7488 1313.34 79.7195 1313.74 78.6514 1314.01C75.7272 1314.82 72.8029 1315.3 69.8786 1315.9C68.9969 1317.54 68.2774 1319.25 67.7295 1321.01C66.7405 1324.92 67.2402 1329.04 69.1388 1332.63C69.1388 1330.17 69.1388 1327.7 69.1388 1325.2C69.1682 1324.06 69.3457 1322.92 69.6673 1321.82C69.9539 1320.78 70.5997 1319.86 71.4993 1319.22C72.3449 1318.71 73.4723 1318.74 73.7894 1319.69C74.5645 1319.05 75.551 1319.69 75.9738 1320.47C76.3474 1321.47 76.3474 1322.57 75.9738 1323.58C75.6474 1324.66 75.186 1325.71 74.5997 1326.69C73.12 1329.29 71.3936 1331.65 69.7377 1334.09C70.1253 1334.93 70.5481 1335.81 71.0061 1336.69C72.5321 1339.87 73.3367 1343.33 73.3666 1346.83C73.6132 1345.11 73.8599 1343.45 74.2474 1341.66C74.4528 1340.55 74.7958 1339.47 75.2692 1338.45C75.7023 1337.46 76.4721 1336.63 77.4535 1336.12C78.3343 1335.74 79.4618 1335.95 79.6379 1336.89C80.5187 1336.39 81.3995 1337.06 81.6814 1337.97C81.9481 1339.02 81.8104 1340.13 81.2938 1341.08C80.8142 1342.1 80.1983 1343.06 79.4618 1343.92C77.4888 1346.49 75.3044 1348.72 73.1552 1351.05C72.6154 1355.1 71.6836 1359.1 70.3719 1362.98C69.9139 1364.4 69.4911 1365.79 69.0683 1367.21C70.1605 1365.55 71.2879 1363.83 72.5915 1362.31C73.2737 1361.39 74.066 1360.55 74.9521 1359.81C75.7797 1359.09 76.8345 1358.66 77.9468 1358.59C78.9333 1358.59 79.8493 1359.27 79.6027 1360.21C80.5892 1360.21 81.0824 1361.09 80.9767 1362C80.7152 1363.05 80.1098 1363.98 79.2504 1364.67C78.3509 1365.39 77.3698 1366 76.3261 1366.5C73.6837 1367.85 71.0061 1368.86 68.3284 1369.88C66.2336 1376.11 66.37 1382.83 68.716 1388.97C68.8099 1389.01 68.885 1389.09 68.9274 1389.18L69.8786 1391.2C69.9239 1391.34 69.9189 1391.49 69.8644 1391.62C69.8099 1391.75 69.7093 1391.86 69.58 1391.93C69.4507 1391.99 69.3008 1392.02 69.1559 1391.99C69.0111 1391.96 68.8805 1391.89 68.7865 1391.78C64.1711 1385.32 65.2632 1376.87 66.9896 1369.64C67.659 1367.14 68.4694 1364.64 69.2445 1362.11C67.8 1359.67 66.285 1357.31 65.0166 1354.7C64.5043 1353.7 64.1142 1352.65 63.854 1351.56C63.564 1350.52 63.6638 1349.42 64.1358 1348.45C64.2123 1348.25 64.3373 1348.06 64.5008 1347.92C64.6643 1347.77 64.8618 1347.66 65.0774 1347.6C65.2931 1347.53 65.521 1347.52 65.7429 1347.56C65.9648 1347.59 66.1746 1347.68 66.3554 1347.81C66.7078 1346.93 67.8352 1346.96 68.6103 1347.47C69.4666 1348.17 70.0507 1349.12 70.2662 1350.17C70.5169 1351.28 70.6234 1352.42 70.5833 1353.55C70.6012 1355.19 70.5306 1356.83 70.3719 1358.46C72.2998 1353.02 72.7247 1347.2 71.605 1341.56C68.8217 1340.14 66.0384 1338.82 63.3255 1337.13C62.3389 1336.55 61.4282 1335.86 60.6126 1335.07C59.8053 1334.33 59.2834 1333.35 59.1329 1332.3C59.1329 1331.38 59.6614 1330.44 60.6479 1330.64C60.6479 1329.66 61.4582 1329.12 62.4095 1329.19C63.5054 1329.32 64.5162 1329.83 65.2633 1330.61C66.0774 1331.41 66.7872 1332.31 67.3772 1333.28C68.716 1335.3 69.8434 1337.37 70.9004 1339.46C70.7242 1338.99 70.5481 1338.51 70.3367 1338.04C68.267 1334.56 66.7472 1330.8 65.827 1326.89C65.7212 1325.94 65.7212 1324.99 65.827 1324.05C64.0654 1321.79 62.3038 1319.62 60.6126 1317.29C60.0722 1316.42 59.6237 1315.51 59.2738 1314.55Z" fill="#265113"/>
<path fill-rule="evenodd" clip-rule="evenodd" d="M319.29 1381.39C316.328 1379.88 312.557 1377.61 309.449 1375.77L303.948 1372.58L305.758 1372.93C306.875 1373.17 308.468 1373.49 310.217 1373.96C313.97 1374.88 317.616 1376.18 321.094 1377.85C322.267 1378.44 323.408 1379.09 324.513 1379.79C323.935 1377.37 323.325 1374.96 322.654 1372.57C322.397 1372.7 322.108 1372.73 321.828 1372.68C319.906 1372.24 318.067 1371.49 316.383 1370.46C313.421 1368.95 309.639 1366.66 306.542 1364.85L301.041 1361.65L302.851 1362C303.958 1362.21 305.53 1362.58 307.299 1363.01C311.054 1363.94 314.702 1365.25 318.187 1366.93C319.37 1367.51 320.515 1368.17 321.616 1368.9C320.57 1365.81 319.71 1362.66 318.664 1359.57C317.973 1359.98 316.33 1359.91 312.077 1358.77C306.305 1356.99 300.664 1354.8 295.195 1352.24C301.228 1352.73 307.219 1353.63 313.126 1354.94C314.635 1355.3 316.112 1355.78 317.545 1356.37L317.315 1355.69C317.197 1355.58 317.109 1355.44 317.056 1355.28C317.003 1355.12 316.988 1354.96 317.012 1354.8L316.018 1351.86C315.704 1350.94 315.39 1350.01 314.932 1349.17C314.827 1349.37 314.66 1349.54 314.455 1349.65C314.25 1349.75 314.016 1349.79 313.787 1349.76C311.988 1349.47 310.246 1348.9 308.623 1348.07C305.828 1346.85 302.244 1344.93 299.282 1343.42L294.052 1340.72L295.738 1340.9C296.813 1341.02 298.271 1341.25 299.926 1341.55C303.456 1342.12 306.91 1343.08 310.221 1344.43C311.431 1344.93 312.602 1345.52 313.721 1346.2C312.751 1343.95 311.781 1341.7 310.749 1339.47C310.036 1339.71 308.631 1339.74 304.532 1338.13C299.303 1335.91 294.24 1333.32 289.38 1330.39C294.986 1331.36 300.514 1332.73 305.923 1334.49C307.196 1334.99 308.19 1335.38 308.966 1335.73C308.92 1335.65 308.888 1335.55 308.872 1335.45C308.699 1335.36 308.552 1335.23 308.443 1335.07C308.334 1334.91 308.267 1334.72 308.248 1334.53L308.133 1334.19C307.445 1332.77 306.685 1331.24 306.018 1329.98C305.41 1330.43 304.128 1330.32 300.421 1328.64C295.86 1326.33 291.491 1323.65 287.357 1320.64C292.339 1321.72 297.226 1323.19 301.967 1325.06L303.697 1325.88C302.628 1323.95 301.528 1322.03 300.397 1320.12C299.872 1320.71 298.694 1320.69 294.303 1318.53C289.584 1315.81 285.08 1312.73 280.831 1309.33C286.083 1310.79 291.214 1312.66 296.18 1314.9C296.843 1315.23 297.433 1315.54 297.951 1315.85C297.316 1314.79 296.671 1313.7 296.006 1312.65C295.293 1312.9 294.06 1312.11 291.142 1308.49C287.763 1304.01 284.705 1299.31 281.99 1294.41C286.344 1298.05 290.428 1302.01 294.212 1306.24L295.469 1307.81C295.596 1303.21 296.086 1298.62 296.933 1294.1C298.181 1298.73 299.023 1303.47 299.45 1308.25C299.635 1313.08 298.965 1313.65 298.036 1313.76C299.439 1315.86 300.792 1318.02 302.082 1320.2C302.142 1319.56 302.262 1318.8 302.434 1317.88C303.126 1314.8 304.233 1311.83 305.727 1309.05C306.414 1307.72 307.07 1306.6 307.553 1305.78L308.364 1304.51L308.143 1306L307.61 1309.62C307.198 1312.48 306.829 1315.98 306.334 1318.59C306.142 1320.17 305.683 1321.71 304.977 1323.14C304.88 1323.29 304.748 1323.42 304.592 1323.51C304.436 1323.6 304.26 1323.65 304.08 1323.65C304.788 1324.93 305.465 1326.21 306.132 1327.47C306.307 1327.6 306.451 1327.76 306.552 1327.96C306.653 1328.15 306.709 1328.36 306.715 1328.58C307.309 1329.72 307.892 1330.83 308.455 1331.98C308.587 1331.35 308.759 1330.64 308.994 1329.8C309.748 1327.14 310.953 1323.67 311.841 1320.78C312.31 1319.32 312.698 1318.02 312.9 1316.98L313.349 1315.45L313.531 1317.01C313.628 1318.01 313.737 1319.35 313.784 1320.92C313.902 1324.21 313.568 1327.51 312.79 1330.72C312.489 1332.43 311.795 1334.04 310.763 1335.43C310.631 1335.58 310.47 1335.69 310.289 1335.77C310.446 1336.23 310.593 1336.66 310.749 1337.13C310.863 1337.24 310.949 1337.38 311.002 1337.54C311.054 1337.69 311.072 1337.86 311.053 1338.02C311.751 1339.47 312.408 1341 313.034 1342.44L313.147 1342.16C313.474 1341.4 313.946 1340.45 314.54 1339.15C315.134 1337.84 315.914 1336.37 316.59 1335.01C317.267 1333.64 318.014 1331.88 318.494 1330.44C318.974 1329 319.475 1327.63 319.77 1326.57L320.208 1325.01C320.208 1325.01 320.407 1325.59 320.38 1326.63C320.472 1328 320.488 1329.38 320.428 1330.75C320.311 1332.51 320.062 1334.26 319.685 1335.99C319.272 1337.71 318.68 1339.37 317.917 1340.96C317.428 1342.06 316.823 1343.11 316.11 1344.09C315.756 1344.62 315.306 1345.09 314.783 1345.47C314.592 1345.6 314.366 1345.68 314.133 1345.69C314.823 1347.72 315.761 1349.68 316.596 1351.74C316.743 1352.17 316.889 1352.6 317.025 1353C317.312 1352.32 317.722 1351.49 318.234 1350.46C319.526 1347.95 321.508 1344.84 323.09 1342.27L326.007 1337.84C326.007 1337.84 325.926 1338.42 325.734 1339.38C325.541 1340.34 325.33 1341.65 324.953 1343.09C324.256 1346.26 323.208 1349.36 321.828 1352.3C321.175 1353.89 320.186 1355.32 318.93 1356.49C318.773 1356.59 318.592 1356.65 318.404 1356.66C319.398 1359.6 320.392 1362.53 321.385 1365.47C321.795 1364.53 322.42 1363.32 323.323 1361.71C324.996 1358.7 327.461 1354.87 329.401 1351.73L332.851 1346.13L332.445 1347.98C332.181 1349.14 331.754 1350.73 331.223 1352.53C330.124 1356.37 328.643 1360.08 326.804 1363.63C325.929 1365.52 324.705 1367.23 323.197 1368.67C322.98 1368.8 322.737 1368.89 322.484 1368.91C323.353 1371.48 324.015 1374.14 324.697 1376.77C325.468 1375.39 326.318 1374.06 327.244 1372.77C329.186 1369.95 331.982 1366.38 334.441 1363.45L338.398 1358.22C338.398 1358.22 338.205 1358.87 337.796 1360.01C337.387 1361.15 336.876 1362.7 336.16 1364.45C334.708 1368.16 332.88 1371.71 330.705 1375.04C329.673 1376.88 328.306 1378.51 326.673 1379.85C326.414 1380.07 326.082 1380.18 325.744 1380.17C327.466 1387.12 328.781 1394.17 329.685 1401.27C329.946 1402.05 328.521 1402.22 328.373 1401.37C327.44 1395.56 326.338 1389.8 325.068 1384.08C324.859 1384.13 324.641 1384.15 324.427 1384.12C322.589 1383.47 320.858 1382.55 319.29 1381.39Z" fill="#5EAD41"/>
<path fill-rule="evenodd" clip-rule="evenodd" d="M240.707 676.203C240.442 676.203 240.329 673.452 239.003 671.879C236.731 669.271 229.197 672.094 232.945 676.382C234.005 677.597 235.482 678.526 235.406 678.633C234.645 678.408 233.856 678.276 233.059 678.24C226.773 678.24 227.985 688.067 235.331 685.387C236.504 684.958 236.239 684.958 235.671 685.958C235.103 686.959 234.952 687.03 234.573 687.638C234.214 688.231 234.108 688.93 234.277 689.595C234.445 690.259 234.877 690.837 235.482 691.211C237.299 692.355 240.556 692.176 241.313 689.996C241.609 689.089 241.799 688.155 241.881 687.209C242.335 683.636 240.896 692.176 247.144 691.997C249.794 691.997 251.839 689.889 248.81 686.566C248.369 686.078 247.888 685.624 247.371 685.208C246.69 684.672 246.69 684.565 247.371 684.779C248.602 685.153 249.926 685.153 251.157 684.779C252.71 684.243 253.581 680.42 252.558 678.562C251.082 675.917 248.393 676.882 246.69 677.418C244.986 677.954 244.456 677.811 246.311 676.775C246.941 676.434 247.537 676.04 248.09 675.596C252.558 672.022 243.963 666.627 241.654 672.844C241.086 674.345 240.896 675.846 240.707 675.846V676.203ZM242.487 678.597C243.244 679.169 242.108 679.919 241.389 679.598C240.669 679.276 241.389 677.74 242.487 678.597ZM238.7 679.776C239.42 678.526 240.139 678.026 240.594 679.776C240.896 680.92 240.972 682.492 239.382 681.992C239.17 681.912 238.98 681.788 238.826 681.63C238.672 681.471 238.558 681.281 238.493 681.075C238.427 680.869 238.412 680.652 238.448 680.439C238.484 680.227 238.57 680.025 238.7 679.848V679.776ZM243.13 680.277C244.721 680.991 244.266 682.385 243.13 682.385C240.366 682.385 241.389 679.455 243.13 680.277ZM241.805 682.742C243.888 683.743 241.805 684.565 239.95 683.814C238.095 683.064 239.95 681.813 241.957 682.742H241.805Z" fill="#5EAD41"/>
<g filter="url(#filter1_d_410_4853)">
<g filter="url(#filter2_d_410_4853)">
<rect y="1383" width="375" height="702" fill="#D6607A"/>
</g>
</g>
</g>
</g>
<defs>
<filter id="filter0_d_410_4853" x="-134" y="-800" width="643" height="918" filterUnits="userSpaceOnUse" color-interpolation-filters="sRGB">
<feFlood flood-opacity="0" result="BackgroundImageFix"/>
<feColorMatrix in="SourceAlpha" type="matrix" values="0 0 0 0 0 0 0 0 0 0 0 0 0 0 0 0 0 0 127 0" result="hardAlpha"/>
<feOffset dy="-16"/>
<feGaussianBlur stdDeviation="67"/>
<feComposite in2="hardAlpha" operator="out"/>
<feColorMatrix type="matrix" values="0 0 0 0 0.191667 0 0 0 0 0.112764 0 0 0 0 0.0399306 0 0 0 0.16 0"/>
<feBlend mode="normal" in2="BackgroundImageFix" result="effect1_dropShadow_410_4853"/>
<feBlend mode="normal" in="SourceGraphic" in2="effect1_dropShadow_410_4853" result="shape"/>
</filter>
<filter id="filter1_d_410_4853" x="-227.844" y="1233" width="752.156" height="1106.85" filterUnits="userSpaceOnUse" color-interpolation-filters="sRGB">
<feFlood flood-opacity="0" result="BackgroundImageFix"/>
<feColorMatrix in="SourceAlpha" type="matrix" values="0 0 0 0 0 0 0 0 0 0 0 0 0 0 0 0 0 0 127 0" result="hardAlpha"/>
<feOffset dy="-16"/>
<feGaussianBlur stdDeviation="67"/>
<feComposite in2="hardAlpha" operator="out"/>
<feColorMatrix type="matrix" values="0 0 0 0 0.0827737 0 0 0 0 0.191667 0 0 0 0 0.0399306 0 0 0 0.1 0"/>
<feBlend mode="normal" in2="BackgroundImageFix" result="effect1_dropShadow_410_4853"/>
<feBlend mode="normal" in="SourceGraphic" in2="effect1_dropShadow_410_4853" result="shape"/>
</filter>
<filter id="filter2_d_410_4853" x="-134" y="1233" width="643" height="970" filterUnits="userSpaceOnUse" color-interpolation-filters="sRGB">
<feFlood flood-opacity="0" result="BackgroundImageFix"/>
<feColorMatrix in="SourceAlpha" type="matrix" values="0 0 0 0 0 0 0 0 0 0 0 0 0 0 0 0 0 0 127 0" result="hardAlpha"/>
<feOffset dy="-16"/>
<feGaussianBlur stdDeviation="67"/>
<feComposite in2="hardAlpha" operator="out"/>
<feColorMatrix type="matrix" values="0 0 0 0 0.191667 0 0 0 0 0.149181 0 0 0 0 0.0399306 0 0 0 0.26 0"/>
<feBlend mode="normal" in2="BackgroundImageFix" result="effect1_dropShadow_410_4853"/>
<feBlend mode="normal" in="SourceGraphic" in2="effect1_dropShadow_410_4853" result="shape"/>
</filter>
<clipPath id="clip0_410_4853">
<rect width="375" height="1383" fill="white"/>
</clipPath>
<clipPath id="clip1_410_4853">
<rect width="375" height="3577" fill="white" transform="translate(0 -1492)"/>
</clipPath>
<clipPath id="clip2_410_4853">
<rect width="375" height="650" fill="white" transform="translate(0 -650)"/>
</clipPath>
</defs>
</svg>
