<svg viewBox="0 0 1440 369" fill="none" xmlns="http://www.w3.org/2000/svg">
<g clip-path="url(#clip0_405_4853)">
<g clip-path="url(#clip1_405_4853)">
<path fill-rule="evenodd" clip-rule="evenodd" d="M1103.39 31.84C1123.64 38.7984 1150.71 32.565 1173.6 36.7179C1196.49 40.8708 1215.16 55.4446 1242.14 51.8422C1269.13 48.2398 1304.65 26.4513 1335.51 24.7801C1366.37 23.1088 1392.75 41.5797 1408.74 58.5619C1424.72 75.5441 1430.72 90.8867 1444.86 97.2057C1458.99 103.525 1481.24 100.322 1483.02 119.701C1484.8 139.08 1466.05 180.843 1425.26 208.607C1384.47 236.372 1321.72 249.967 1277.6 261.012C1233.47 272.057 1208.59 280.559 1179.63 275.932C1150.67 271.304 1118.26 253.587 1094.38 233.945C1070.5 214.304 1055.23 192.77 1034.69 162.512C1014.16 132.254 987.967 93.2897 990.541 62.154C993.114 31.0182 1024.62 7.77032 1047.07 6.22204C1069.52 4.67376 1083.11 24.8499 1103.39 31.84Z" fill="#FFD885"/>
<path fill-rule="evenodd" clip-rule="evenodd" d="M1263.58 249.752C1259.08 245.487 1253.57 239.468 1248.97 234.607L1240.83 226.006L1243.89 227.573C1245.76 228.558 1248.38 229.977 1251.28 231.716C1257.47 235.314 1263.29 239.525 1268.64 244.284C1270.43 245.934 1272.11 247.696 1273.68 249.558C1273.92 244.925 1274.09 240.296 1274.16 235.67C1273.63 235.754 1273.1 235.672 1272.62 235.436C1269.44 233.6 1266.55 231.302 1264.05 228.616C1259.58 224.348 1254.07 218.33 1249.48 213.469L1241.3 204.87L1244.36 206.436C1246.26 207.42 1248.88 208.839 1251.78 210.578C1257.97 214.184 1263.78 218.394 1269.14 223.146C1270.93 224.824 1272.62 226.595 1274.22 228.451C1274.23 222.398 1274.07 216.353 1273.82 210.278C1272.37 210.572 1269.47 209.631 1262.5 205.403C1253.16 199.178 1244.24 192.322 1235.83 184.882C1246.32 188.903 1256.53 193.65 1266.36 199.087C1268.85 200.531 1271.24 202.141 1273.51 203.906C1273.5 203.474 1273.48 203.043 1273.46 202.611C1273.31 202.337 1273.23 202.034 1273.22 201.724C1273.2 201.413 1273.26 201.104 1273.38 200.819L1272.94 195.084C1272.87 193.292 1272.79 191.499 1272.41 189.686C1272.12 190 1271.73 190.214 1271.3 190.297C1270.88 190.381 1270.43 190.33 1270.04 190.152C1267 188.694 1264.21 186.757 1261.78 184.416C1257.4 180.744 1252.06 175.449 1247.56 171.217L1239.62 163.671L1242.57 164.877C1244.36 165.666 1246.9 166.788 1249.69 168.2C1255.66 171.08 1261.3 174.611 1266.5 178.729C1268.4 180.245 1270.17 181.916 1271.8 183.726C1271.27 179.182 1270.68 174.651 1270.02 170.133C1268.64 170.524 1266.07 169.536 1259.82 164.712C1251.66 158.055 1243.99 150.81 1236.89 143.036C1246.35 147.617 1255.47 152.889 1264.16 158.809C1266.18 160.32 1267.77 161.583 1268.94 162.63C1268.93 162.431 1268.92 162.232 1268.92 162.033C1268.65 161.786 1268.46 161.473 1268.36 161.127C1268.25 160.78 1268.25 160.413 1268.33 160.062C1268.35 159.834 1268.4 159.608 1268.47 159.391C1267.95 156.52 1267.43 153.649 1266.88 150.779C1265.57 151.234 1263.34 150.397 1257.61 145.485C1250.75 138.962 1244.42 131.901 1238.69 124.37C1247.01 128.937 1254.95 134.161 1262.43 139.993C1263.47 140.881 1264.33 141.675 1265.09 142.375C1264.19 138.389 1263.22 134.406 1262.23 130.458C1260.93 131.277 1258.91 130.764 1252.16 124.465C1245.12 117.178 1238.63 109.371 1232.75 101.11C1241.35 106.47 1249.53 112.472 1257.22 119.063C1258.26 120.05 1259.13 120.912 1259.89 121.711C1259.3 119.474 1258.71 117.238 1258.09 115.136C1256.65 115.03 1254.91 113.142 1251.51 105.105C1247.85 95.2116 1244.91 85.0669 1242.71 74.75C1248.57 83.5243 1253.79 92.7051 1258.34 102.222C1258.89 103.529 1259.34 104.674 1259.72 105.722C1262.35 97.5828 1265.62 89.6614 1269.49 82.0306C1269.28 90.9483 1268.32 99.8328 1266.62 108.59C1264.43 117.295 1262.93 117.991 1261.22 117.697C1262.61 122.194 1263.9 126.729 1265.12 131.3C1265.57 130.183 1266.18 128.86 1266.98 127.33C1269.82 122.193 1273.35 117.468 1277.46 113.285C1279.34 111.277 1281.13 109.605 1282.41 108.42L1284.53 106.602L1283.34 109.113L1280.51 115.318C1278.29 120.267 1275.79 126.326 1273.55 130.744C1272.4 133.467 1270.78 135.967 1268.77 138.129C1268.52 138.351 1268.22 138.511 1267.89 138.594C1267.56 138.677 1267.22 138.682 1266.89 138.607C1267.5 141.209 1268.08 143.845 1268.59 146.483C1268.84 146.802 1269.01 147.171 1269.09 147.565C1269.18 147.958 1269.18 148.365 1269.09 148.757L1270.38 155.719C1270.93 154.698 1271.62 153.538 1272.5 152.304C1275.2 147.9 1279.19 142.344 1282.25 137.658L1286.16 131.673L1287.68 129.215C1287.68 129.215 1287.53 130.285 1287.2 132.095C1286.88 133.904 1286.39 136.353 1285.64 139.144C1284.12 145.062 1281.83 150.751 1278.81 156.061C1277.22 158.93 1274.97 161.383 1272.26 163.222C1271.98 163.414 1271.65 163.531 1271.31 163.561L1271.72 166.237C1271.88 166.495 1271.99 166.785 1272.03 167.087C1272.07 167.39 1272.05 167.697 1271.96 167.99C1272.42 170.963 1272.81 173.94 1273.2 176.916L1273.55 176.469C1274.5 175.298 1275.83 173.812 1277.58 171.842C1279.32 169.873 1281.42 167.623 1283.52 165.239C1285.61 162.856 1287.64 160.376 1289.37 158.075C1291.1 155.774 1292.5 153.586 1293.63 152.008L1295.29 149.478C1295.29 149.478 1295.1 150.583 1294.72 152.461C1294.16 154.945 1293.47 157.395 1292.63 159.799C1291.55 162.911 1290.21 165.927 1288.62 168.814C1287.08 171.644 1285.23 174.298 1283.11 176.73C1281.64 178.438 1280.02 179.999 1278.25 181.392C1277.35 182.152 1276.31 182.738 1275.2 183.117C1274.78 183.23 1274.35 183.248 1273.93 183.17C1274.37 187.142 1274.77 191.083 1275.14 195.058L1275.24 197.548C1276.09 196.481 1277.24 195.169 1278.73 193.609C1282.26 189.835 1287.43 185.293 1291.52 181.528L1298.96 174.895C1298.96 174.895 1298.53 175.878 1297.74 177.508C1296.94 179.137 1295.81 181.38 1294.42 183.867C1291.51 189.164 1288.01 194.119 1284 198.64C1282.04 201.14 1279.54 203.175 1276.7 204.602C1276.37 204.695 1276.02 204.71 1275.67 204.646C1275.92 210.389 1276.33 216.124 1276.4 221.874C1277.61 220.46 1279.36 218.623 1281.82 216.191C1286.35 211.677 1292.73 206.186 1297.82 201.547L1306.89 193.349L1305.19 196.447C1304.11 198.355 1302.56 201.014 1300.65 203.955C1296.72 210.231 1292.16 216.085 1287.03 221.425C1284.46 224.311 1281.38 226.697 1277.95 228.46C1277.5 228.655 1277.01 228.733 1276.53 228.686C1276.74 233.732 1276.56 238.828 1276.4 243.889C1278.49 241.824 1280.7 239.877 1283.01 238.056C1287.96 233.989 1294.83 229.109 1300.38 225.017L1310.05 217.724L1308.04 220.636C1306.79 222.451 1304.9 224.925 1302.81 227.508C1298.28 233.364 1293.17 238.75 1287.56 243.583C1284.75 246.264 1281.46 248.39 1277.85 249.847C1277.29 250.107 1276.64 250.135 1276.06 249.923C1275.5 263.235 1274.17 276.504 1272.09 289.664C1271.85 291.204 1269.51 290.738 1269.71 289.2C1271.09 278.3 1272.12 267.415 1272.82 256.545C1272.41 256.542 1272.01 256.457 1271.64 256.295C1268.66 254.505 1265.95 252.302 1263.58 249.752V249.752Z" fill="#5EAD41"/>
<path fill-rule="evenodd" clip-rule="evenodd" d="M1342.8 153.461C1342.81 147.981 1343.12 142.506 1343.74 137.06C1343.89 137.23 1344.1 137.35 1344.32 137.402C1345.76 137.748 1347.25 137.755 1348.69 137.423C1350.13 137.091 1351.48 136.428 1352.62 135.488C1353.97 134.333 1356.43 131.369 1355.52 129.379C1354.6 127.389 1350.39 128.498 1348.85 128.963C1347.26 129.387 1345.78 130.153 1344.52 131.208C1345.23 125.957 1346.1 120.632 1347.01 115.273L1347.35 115.558C1348.52 116.189 1349.8 116.569 1351.13 116.673C1352.45 116.778 1353.78 116.604 1355.03 116.164C1356.83 115.523 1360.55 113.17 1360.25 110.789C1359.95 108.407 1355.7 108.521 1353.97 108.527C1351.8 108.479 1349.67 109.103 1347.86 110.315C1348.8 104.889 1349.7 99.4631 1350.5 94.0087L1350.8 93.9961C1352.27 94.1911 1353.77 94.0228 1355.16 93.506C1356.55 92.9891 1357.8 92.1394 1358.79 91.031C1360.1 89.7783 1362.44 87.7837 1360.5 86.0034C1359.46 85.4029 1358.29 85.0456 1357.09 84.9582C1355.89 84.8709 1354.68 85.0557 1353.56 85.4989C1352.83 85.7303 1352.14 86.0736 1351.51 86.5168C1352.18 81.068 1352.68 75.6262 1352.88 70.2634C1355.24 69.4031 1357.27 67.8226 1358.68 65.7455C1360.09 63.6685 1360.81 61.2005 1360.74 58.691C1360.72 58.511 1360.65 58.34 1360.54 58.1977C1360.43 58.0554 1360.28 57.9475 1360.11 57.8863C1358.67 57.4433 1357.11 57.5736 1355.77 58.2501C1354.42 58.9267 1353.39 60.0974 1352.88 61.5177C1352.73 56.595 1352.19 51.6919 1351.26 46.8541L1351.53 46.8429C1353.63 45.6879 1355.35 43.948 1356.48 41.8342C1357.62 39.7203 1358.11 37.3232 1357.91 34.9337C1357.88 34.7298 1357.8 34.5372 1357.67 34.3781C1357.54 34.2189 1357.37 34.0996 1357.17 34.0338C1356.05 33.7231 1354.86 33.7806 1353.78 34.1977C1352.69 34.6148 1351.77 35.3695 1351.15 36.3503C1350.44 37.2274 1349.82 38.179 1349.31 39.1884C1347.85 34.4321 1345.86 29.854 1343.38 25.5388C1344.77 23.6973 1345.63 21.5021 1345.84 19.2013C1346.05 16.9004 1345.62 14.5856 1344.59 12.5181C1344.47 12.2991 1344.29 12.1187 1344.08 11.9981C1343.86 11.8776 1343.61 11.8221 1343.36 11.8383C1342.15 12.0107 1341.03 12.5761 1340.17 13.4476C1339.31 14.319 1338.77 15.4483 1338.61 16.6618C1338.63 17.1597 1338.36 17.7035 1338.25 18.2735C1337.69 17.5435 1337.09 16.8039 1336.46 16.0546C1337.29 12.691 1337.29 9.17548 1336.46 5.81208C1335.87 3.77502 1333.99 0.262947 1331.46 2.39882C1330.68 3.31802 1330.12 4.39934 1329.82 5.56314C1329.52 6.72694 1329.48 7.94359 1329.71 9.12358C1329.87 10.7636 1330.4 12.347 1331.25 13.7559C1332.11 15.1649 1333.27 16.3632 1334.65 17.2619C1335.73 18.513 1336.75 19.8001 1337.7 21.09C1336.16 20.5785 1334.54 20.3321 1332.92 20.3613C1331.42 20.4245 1327.89 20.3078 1327.68 22.3454C1327.47 24.3829 1331.22 27.3502 1333.2 27.9644C1334.58 28.3539 1336.02 28.4618 1337.45 28.2817C1338.87 28.1016 1340.24 27.6372 1341.47 26.9163C1343.78 30.8795 1345.64 35.0828 1347.03 39.4513C1345.76 38.5627 1344.35 37.9022 1342.85 37.4995C1341.3 37.033 1338.84 36.2392 1338.5 38.4816C1338.5 39.7371 1338.79 40.9763 1339.34 42.1054C1339.89 43.2345 1340.69 44.2239 1341.67 44.9985C1343.8 46.627 1346.45 47.4042 1349.11 47.1778C1349.99 51.6085 1350.54 56.0984 1350.75 60.6102C1350.09 59.3097 1349.17 58.1547 1348.06 57.2136C1346.95 56.2725 1345.66 55.5645 1344.26 55.1315C1344.08 55.1133 1343.9 55.141 1343.74 55.212C1343.57 55.283 1343.43 55.3949 1343.32 55.5373C1342.58 56.7139 1342.15 58.06 1342.07 59.4481C1342 60.8362 1342.28 62.2205 1342.89 63.4702C1343.59 64.9579 1344.61 66.275 1345.87 67.33C1347.13 68.385 1348.61 69.1525 1350.2 69.5791C1350.41 69.6197 1350.62 69.6106 1350.83 69.5524C1350.67 75.2789 1350.12 81.1218 1349.4 86.9718C1349.03 85.4511 1348.27 84.0512 1347.2 82.9038C1346.13 81.7563 1344.79 80.8991 1343.3 80.4125C1343.18 80.3632 1343.05 80.3393 1342.91 80.3423C1342.78 80.3452 1342.65 80.3751 1342.53 80.4299C1342.41 80.4846 1342.3 80.5633 1342.21 80.6612C1342.11 80.7591 1342.04 80.8743 1342 80.9998C1341.52 82.1329 1341.3 83.3572 1341.35 84.5853C1341.41 85.8134 1341.73 87.0148 1342.3 88.1036C1343.91 90.1535 1346.14 91.6233 1348.66 92.2906C1347.94 97.3424 1347.09 102.333 1346.21 107.459C1345.11 104.868 1343.02 102.817 1340.42 101.751C1340.2 101.678 1339.97 101.676 1339.76 101.745C1339.55 101.814 1339.36 101.95 1339.24 102.134C1338.76 103.108 1338.49 104.167 1338.43 105.25C1338.37 106.332 1338.53 107.415 1338.9 108.433C1339.43 109.702 1340.23 110.838 1341.24 111.761C1342.26 112.684 1343.47 113.37 1344.78 113.771L1345.11 113.757C1344.07 119.721 1343.09 125.648 1342.31 131.501C1341.52 129.944 1340.37 128.602 1338.95 127.596C1337.53 126.589 1335.88 125.947 1334.15 125.727C1333.92 125.697 1333.69 125.744 1333.5 125.861C1333.3 125.978 1333.16 126.158 1333.08 126.371C1332.86 127.52 1332.89 128.702 1333.16 129.838C1333.44 130.974 1333.96 132.037 1334.69 132.954C1335.56 133.883 1336.61 134.629 1337.77 135.151C1338.94 135.672 1340.19 135.958 1341.47 135.993L1341.73 135.982C1341.05 141.635 1340.7 147.324 1340.69 153.019C1340.74 154.313 1342.75 154.561 1342.73 153.232L1342.8 153.461Z" fill="#5EAD41"/>
<path fill-rule="evenodd" clip-rule="evenodd" d="M994.447 127.87C1004.87 129.97 1010.76 138.643 1015.91 147.174L1016.04 147.585L1016.11 147.806C1017.63 149.541 1018.9 151.483 1019.87 153.573C1020.25 143.983 1020.69 134.582 1026.36 126.421C1026.43 126.295 1026.55 126.194 1026.68 126.13C1026.81 126.065 1026.96 126.041 1027.11 126.06C1027.26 126.079 1027.39 126.141 1027.51 126.236C1027.62 126.332 1027.7 126.459 1027.74 126.6C1031.08 136.871 1026.13 146.372 1021.08 155.137C1021 155.294 1020.86 155.414 1020.7 155.47C1021.85 158.394 1022.73 161.414 1023.34 164.496C1023.5 164.97 1023.65 165.444 1023.81 165.918L1024.19 165.795C1028.11 154.761 1034.78 144.911 1043.58 137.181C1043.7 137.071 1043.85 137.004 1044.01 136.988C1044.18 136.972 1044.34 137.008 1044.48 137.091C1044.62 137.175 1044.73 137.301 1044.79 137.451C1044.86 137.601 1044.87 137.768 1044.83 137.926C1042.32 148.907 1035.5 162.996 1024.26 167.414C1025.27 172.822 1025.88 178.299 1026.08 183.798L1026.55 183.644C1030.47 172.62 1037.14 162.776 1045.92 155.04C1046.04 154.931 1046.19 154.863 1046.35 154.847C1046.51 154.831 1046.68 154.868 1046.82 154.951C1046.96 155.034 1047.07 155.16 1047.13 155.31C1047.19 155.461 1047.21 155.627 1047.17 155.786C1044.68 166.725 1037.84 180.855 1026.63 185.263C1026.47 185.322 1026.29 185.317 1026.13 185.249C1026.16 186.846 1026.19 188.443 1026.16 190.061C1026.15 191.007 1024.62 191.015 1024.65 190.06C1024.7 187.286 1024.64 184.512 1024.5 181.726C1014.7 177.362 1001.11 168.848 997.179 158.247C996.943 157.52 997.766 157.148 998.331 157.384C1008.56 161.994 1019.22 167.3 1024.28 177.606C1023.93 173.947 1023.41 170.307 1022.73 166.687C1022.37 164.814 1021.93 162.93 1021.44 161.098C1011.71 158.457 1001.44 155.223 996.544 145.633C996.484 145.501 996.461 145.355 996.477 145.211C996.493 145.067 996.549 144.93 996.637 144.815C996.726 144.7 996.844 144.612 996.979 144.559C997.114 144.506 997.261 144.491 997.404 144.516C1006.9 146.325 1013.94 152.422 1020.84 158.813C1019.67 154.729 1017.53 150.988 1014.61 147.91C1006.4 143.064 998.382 137.841 994.018 129.022C993.952 128.922 993.911 128.808 993.898 128.689C993.885 128.57 993.9 128.45 993.942 128.338C993.983 128.226 994.051 128.125 994.139 128.044C994.226 127.963 994.332 127.903 994.447 127.87Z" fill="#5EAD41"/>
<path fill-rule="evenodd" clip-rule="evenodd" d="M1199.2 259.812C1199.6 259.795 1199.58 255.506 1201.44 253.066C1204.59 248.876 1215.8 252.758 1210.6 259.662C1209.12 261.62 1207.02 263.139 1207.12 263.135C1208.19 262.778 1209.3 262.542 1210.42 262.43C1219.61 261.842 1218.5 277.385 1207.58 273.89C1205.83 273.332 1206.19 273.317 1207.09 274.809C1207.55 275.554 1208.22 276.424 1208.82 277.329C1209.39 278.229 1209.59 279.309 1209.39 280.352C1209.2 281.396 1208.62 282.328 1207.76 282.961C1205.15 284.834 1200.32 284.772 1199.09 281.466C1198.6 280.066 1198.26 278.621 1198.07 277.152C1197.17 271.471 1199.86 284.792 1190.65 284.948C1186.8 285.111 1183.68 281.918 1187.91 276.585C1188.52 275.801 1189.19 275.062 1189.91 274.372C1190.83 273.501 1190.86 273.334 1189.61 273.752C1187.95 274.432 1186.12 274.614 1184.35 274.274C1181.99 273.51 1180.48 267.787 1181.85 264.703C1183.83 260.462 1187.85 261.789 1190.37 262.513C1192.89 263.238 1193.71 262.97 1190.93 261.492C1189.98 261.01 1189.08 260.447 1188.23 259.811C1181.35 254.448 1193.68 245.613 1197.51 255.095C1198.43 257.417 1198.8 259.729 1199.06 259.718L1199.2 259.812ZM1196.77 263.639C1195.68 264.583 1197.42 265.674 1198.4 265.134C1199.37 264.593 1198.27 262.212 1196.77 263.639ZM1202.22 265.238C1201.08 263.357 1199.99 262.639 1199.44 265.356C1199.08 267.133 1199.05 269.595 1201.37 268.599C1201.67 268.456 1201.93 268.25 1202.14 267.994C1202.35 267.738 1202.5 267.439 1202.58 267.119C1202.66 266.798 1202.67 266.463 1202.61 266.138C1202.55 265.813 1202.42 265.506 1202.22 265.238V265.238ZM1195.78 266.308C1193.51 267.469 1194.23 269.699 1196.09 269.621C1200.17 269.448 1198.49 264.93 1195.78 266.308ZM1197.87 270.044C1194.88 271.7 1197.99 272.833 1200.66 271.589C1203.34 270.345 1200.63 268.331 1197.86 269.845L1197.87 270.044Z" fill="#5EAD41"/>
<path fill-rule="evenodd" clip-rule="evenodd" d="M1095.62 57.6926C1096.6 57.229 1097.42 56.4851 1097.97 55.5556C1098.52 54.6261 1098.79 53.5532 1098.73 52.4733C1098.75 52.3968 1098.74 52.3152 1098.72 52.2409C1098.06 51.3905 1097.16 50.7544 1096.14 50.4129C1095.12 50.0714 1094.02 50.0398 1092.98 50.3219C1092.1 50.6483 1091.29 51.1335 1090.58 51.7537C1090.87 50.8582 1091 49.9181 1090.96 48.9774C1090.82 47.9042 1090.37 46.8969 1089.65 46.0855C1088.94 45.2741 1087.99 44.6958 1086.95 44.4251L1086.71 44.435C1085.69 44.7931 1084.8 45.449 1084.16 46.318C1083.51 47.187 1083.14 48.2292 1083.1 49.3103C1083.15 50.2495 1083.35 51.1736 1083.71 52.0444C1082.95 51.4985 1082.1 51.0848 1081.2 50.8205C1080.14 50.627 1079.05 50.7514 1078.06 51.1779C1077.07 51.6044 1076.23 52.3139 1075.65 53.2169C1075.62 53.293 1075.62 53.3756 1075.66 53.4493C1075.69 54.5303 1076.04 55.5772 1076.67 56.4566C1077.3 57.3361 1078.18 58.0083 1079.19 58.3878C1080.09 58.6358 1081.03 58.7201 1081.96 58.6364C1081.22 59.205 1080.56 59.883 1080.02 60.6474C1079.51 61.5975 1079.29 62.6774 1079.4 63.7503C1079.5 64.8232 1079.92 65.8411 1080.6 66.675C1080.6 66.675 1080.6 66.675 1080.8 66.6665C1081.45 66.8114 1082.11 66.8728 1082.77 66.8492C1084 66.8122 1085.18 66.3339 1086.08 65.5017C1086.99 64.6695 1087.56 63.5392 1087.7 62.3175C1087.95 63.523 1088.61 64.6007 1089.59 65.3535C1090.56 66.1062 1091.77 66.4836 1093 66.4166C1093.65 66.3823 1094.29 66.2657 1094.91 66.0697C1094.91 66.0697 1095.08 66.0627 1095.11 66.0612C1095.72 65.1726 1096.05 64.1229 1096.07 63.045C1096.08 61.9671 1095.78 60.9093 1095.19 60.0056C1094.58 59.2897 1093.87 58.6696 1093.08 58.166C1094.02 58.1707 1094.94 58.0075 1095.82 57.6842L1095.62 57.6926ZM1086.78 45.2303C1087.63 45.4779 1088.4 45.9667 1088.98 46.6382C1089.56 47.3096 1089.94 48.1351 1090.07 49.0153C1089.99 51.3837 1089.14 53.6619 1087.65 55.5027C1087.65 55.5027 1087.66 55.8678 1087.46 51.0876C1087.46 51.0368 1087.45 50.986 1087.44 50.9384C1087.42 50.8909 1087.39 50.8478 1087.35 50.8117C1087.32 50.7757 1087.28 50.7475 1087.23 50.7291C1087.18 50.7107 1087.13 50.7024 1087.08 50.7047C1086.97 50.7092 1086.87 50.7555 1086.8 50.8334C1086.73 50.9112 1086.69 51.0143 1086.7 51.1199L1086.87 55.203C1086.35 54.5313 1085.79 53.8889 1085.19 53.2787C1084.41 52.082 1083.95 50.704 1083.86 49.278C1083.91 48.3862 1084.22 47.5288 1084.75 46.8099C1085.28 46.0909 1086.01 45.5413 1086.85 45.2275L1086.78 45.2303ZM1079.19 57.6561C1078.37 57.3168 1077.66 56.7525 1077.14 56.0276C1076.62 55.3027 1076.31 54.4465 1076.26 53.5569C1076.75 52.8167 1077.45 52.2349 1078.27 51.8818C1079.08 51.5287 1079.99 51.4191 1080.86 51.5663C1083.1 52.3676 1085.02 53.8888 1086.3 55.8921C1086.3 55.8921 1086.6 55.8795 1082.03 54.7427C1081.93 54.7254 1081.83 54.7451 1081.75 54.7978C1081.66 54.8506 1081.6 54.9326 1081.58 55.028C1081.55 55.1263 1081.56 55.2318 1081.6 55.3227C1081.65 55.4135 1081.73 55.4828 1081.83 55.516L1085.77 56.6132C1084.95 56.877 1084.17 57.2107 1083.41 57.6105C1082.04 58.0006 1080.6 58.0617 1079.2 57.7889L1079.19 57.6561ZM1085.74 64.5955C1085.6 65.104 1085.34 65.5722 1084.99 65.9615C1084.63 66.3509 1084.19 66.6502 1083.69 66.8347C1083.2 67.0191 1082.67 67.0835 1082.15 67.0225C1081.62 66.9615 1081.12 66.777 1080.68 66.4839C1080.25 66.1909 1079.88 65.7978 1079.63 65.3373C1079.37 64.8767 1079.23 64.3618 1079.21 63.8351C1079.19 63.3084 1079.3 62.785 1079.53 62.3081C1079.75 61.8312 1080.08 61.4146 1080.5 61.0925C1081.96 59.2248 1084 57.8886 1086.29 57.2892C1086.29 57.2892 1086.48 57.0484 1083.86 60.9838C1083.8 61.0622 1083.77 61.1571 1083.78 61.2533C1083.78 61.3495 1083.82 61.4416 1083.88 61.5149C1083.91 61.5497 1083.96 61.5768 1084 61.5945C1084.05 61.6123 1084.1 61.6204 1084.15 61.6183C1084.2 61.6162 1084.25 61.6039 1084.29 61.5823C1084.34 61.5607 1084.38 61.5301 1084.41 61.4925L1086.66 58.0718C1086.61 58.9253 1086.65 59.7815 1086.77 60.6279C1086.66 62.0596 1086.22 63.4459 1085.47 64.6731L1085.74 64.5955ZM1087.28 57.0147C1087.17 57.0191 1087.07 56.9814 1086.99 56.9099C1086.91 56.8383 1086.87 56.7388 1086.86 56.6332C1086.86 56.5275 1086.9 56.4245 1086.97 56.3466C1087.04 56.2688 1087.14 56.2225 1087.25 56.218C1087.3 56.2156 1087.35 56.2239 1087.39 56.2424C1087.44 56.2608 1087.49 56.2889 1087.52 56.325C1087.56 56.361 1087.59 56.4042 1087.6 56.4517C1087.62 56.4992 1087.63 56.55 1087.63 56.6009C1087.63 56.701 1087.6 56.7992 1087.53 56.8759C1087.47 56.9526 1087.38 57.0021 1087.28 57.0147ZM1094.38 60.5055C1094.81 60.7962 1095.17 61.1856 1095.43 61.642C1095.68 62.0984 1095.83 62.6089 1095.85 63.1318C1095.87 63.6547 1095.77 64.1753 1095.55 64.6512C1095.33 65.1271 1095.01 65.5448 1094.6 65.8703C1094.19 66.1957 1093.71 66.4197 1093.19 66.524C1092.68 66.6284 1092.15 66.61 1091.65 66.4706C1091.14 66.3311 1090.68 66.0745 1090.29 65.7216C1089.9 65.3687 1089.61 64.9294 1089.42 64.4396C1088.13 62.4965 1087.49 60.1966 1087.58 57.8666C1087.58 57.8666 1087.57 57.5678 1090.35 61.3075C1090.39 61.3684 1090.44 61.418 1090.51 61.4516C1090.57 61.4851 1090.64 61.5013 1090.71 61.4982C1090.78 61.4952 1090.85 61.4732 1090.91 61.4345C1090.97 61.3957 1091.02 61.3418 1091.05 61.2781C1091.09 61.212 1091.11 61.1361 1091.11 61.0596C1091.1 60.9831 1091.08 60.9091 1091.03 60.8465L1088.5 57.6281C1089.32 57.8917 1090.17 58.0896 1091.02 58.2198C1092.33 58.7662 1093.51 59.6034 1094.45 60.6686L1094.38 60.5055ZM1088.43 56.6335C1089.75 55.9892 1091.13 55.4635 1092.55 55.0624C1092.64 55.0211 1092.72 54.9453 1092.76 54.8508C1092.8 54.7563 1092.8 54.6503 1092.76 54.5547C1092.73 54.4619 1092.66 54.3853 1092.57 54.3399C1092.48 54.2944 1092.38 54.2833 1092.29 54.3087L1088.42 55.7359C1088.94 55.041 1089.39 54.2982 1089.76 53.5178C1090.67 52.4162 1091.85 51.5651 1093.18 51.0452C1094.04 50.8293 1094.94 50.8614 1095.78 51.1378C1096.62 51.4141 1097.37 51.9234 1097.93 52.6066C1097.97 53.5007 1097.75 54.3863 1097.29 55.1554C1096.83 55.9245 1096.16 56.5442 1095.36 56.939C1093.08 57.62 1090.64 57.5123 1088.43 56.6335V56.6335Z" fill="#5EAD41"/>
<path fill-rule="evenodd" clip-rule="evenodd" d="M1427.08 267.823C1430.86 263.573 1435.39 257.495 1439.22 252.877L1446.01 244.376L1443.36 246.051C1441.7 247.086 1439.41 248.613 1436.89 250.415C1431.52 254.2 1426.55 258.51 1422.04 263.281C1420.53 264.937 1419.13 266.685 1417.84 268.514C1417.26 264.315 1416.75 260.08 1416.34 255.874C1416.82 255.913 1417.3 255.799 1417.72 255.549C1420.47 253.598 1422.93 251.253 1425.01 248.59C1428.78 244.34 1433.32 238.262 1437.14 233.611L1443.93 225.143C1443.93 225.143 1442.9 225.752 1441.25 226.82C1439.59 227.887 1437.33 229.38 1434.78 231.183C1429.41 234.96 1424.43 239.27 1419.93 244.05C1418.42 245.714 1417 247.461 1415.69 249.283C1415.22 243.75 1414.86 238.212 1414.66 232.7C1415.99 232.876 1418.54 231.804 1424.58 227.392C1432.64 220.952 1440.26 213.963 1447.37 206.475C1438.11 210.962 1429.17 216.073 1420.61 221.773C1418.45 223.288 1416.4 224.953 1414.47 226.755L1414.42 225.56C1414.53 225.3 1414.58 225.02 1414.57 224.739C1414.56 224.458 1414.48 224.183 1414.35 223.933C1414.28 222.174 1414.2 220.415 1414.3 218.648C1414.39 216.882 1414.15 215.329 1414.35 213.691C1414.65 213.958 1415.02 214.124 1415.42 214.167C1415.81 214.21 1416.21 214.127 1416.56 213.93C1419.23 212.376 1421.63 210.386 1423.66 208.043C1427.36 204.361 1431.86 199.116 1435.6 194.901L1442.27 187.436L1439.7 188.741C1438.11 189.574 1435.87 190.833 1433.43 192.332C1428.21 195.434 1423.33 199.097 1418.9 203.256C1417.29 204.802 1415.81 206.465 1414.45 208.233C1414.58 204.038 1414.76 199.873 1415.02 195.705C1416.29 195.917 1418.58 194.823 1424.09 189.934C1431.01 183.229 1437.44 176.033 1443.33 168.402C1435.02 173.307 1427.09 178.811 1419.58 184.87C1417.85 186.44 1416.38 187.7 1415.53 188.767L1415.5 188.202C1415.72 187.954 1415.87 187.653 1415.94 187.33C1416 187.007 1415.99 186.672 1415.89 186.357C1415.84 186.155 1415.78 185.958 1415.7 185.766C1415.95 183.095 1416.2 180.424 1416.49 177.785C1417.7 178.099 1419.79 177.146 1424.54 172.223C1430.33 165.785 1435.6 158.89 1440.29 151.604C1433.06 156.382 1426.23 161.731 1419.85 167.6C1418.99 168.501 1418.23 169.265 1417.59 169.99C1418.13 166.276 1418.67 162.562 1419.32 158.876C1420.54 159.523 1422.4 158.746 1428.03 152.622C1433.89 145.421 1439.2 137.793 1443.92 129.801C1436.49 135.355 1429.49 141.465 1422.98 148.08C1422.09 149.048 1421.37 149.944 1420.73 150.702C1421.11 148.624 1421.49 146.513 1421.9 144.434C1423.16 144.381 1424.6 142.391 1427.11 134.803C1429.68 125.48 1431.57 115.987 1432.79 106.395C1428.09 114.847 1424.01 123.633 1420.6 132.684C1420.19 133.931 1419.87 135.009 1419.58 136.052C1416.51 128.806 1412.88 121.81 1408.72 115.129C1409.58 123.264 1411.14 131.309 1413.39 139.174C1416.05 146.943 1417.5 147.48 1419.01 147.05C1418.1 151.279 1417.28 155.504 1416.56 159.791C1416.05 158.782 1415.41 157.645 1414.58 156.316C1411.59 151.849 1408.01 147.806 1403.93 144.296C1402.03 142.614 1400.27 141.126 1399.01 140.248C1397.74 139.371 1396.95 138.739 1396.95 138.739C1396.95 138.739 1397.45 139.582 1398.21 140.947L1401.3 146.403C1403.71 150.724 1406.46 156.161 1408.85 159.918C1410.1 162.342 1411.77 164.524 1413.78 166.36C1414.03 166.542 1414.31 166.663 1414.62 166.713C1414.92 166.764 1415.23 166.743 1415.52 166.652C1415.19 169.094 1414.86 171.535 1414.57 173.976C1414.37 174.292 1414.25 174.648 1414.21 175.018C1414.16 175.387 1414.21 175.762 1414.32 176.114C1414.08 178.253 1413.87 180.39 1413.67 182.527C1413.06 181.655 1412.36 180.653 1411.47 179.46C1408.65 175.656 1404.46 170.878 1401.39 166.818C1399.81 164.789 1398.41 162.987 1397.42 161.665L1395.8 159.539C1395.8 159.539 1396.04 160.526 1396.47 162.137C1396.91 163.748 1397.57 165.982 1398.44 168.472C1400.28 173.785 1402.83 178.823 1406.02 183.449C1407.54 186.026 1409.64 188.215 1412.15 189.841C1412.45 189.965 1412.76 190.041 1413.09 190.067L1412.89 192.503C1412.65 193.016 1412.62 193.599 1412.79 194.136C1412.64 196.903 1412.49 199.636 1412.38 202.401L1412.03 202.017C1411.09 200.993 1409.74 199.753 1407.97 198.098C1406.21 196.444 1404.13 194.536 1402.08 192.528C1400.04 190.519 1397.92 188.414 1396.14 186.428C1394.36 184.441 1392.85 182.609 1391.79 181.224L1390.11 179.034C1390.11 179.034 1390.35 180.055 1390.85 181.73C1391.53 183.96 1392.34 186.147 1393.29 188.277C1394.53 191.027 1396 193.668 1397.68 196.173C1399.3 198.636 1401.18 200.92 1403.29 202.985C1404.78 204.42 1406.39 205.721 1408.11 206.872C1409 207.479 1409.99 207.932 1411.03 208.212C1411.41 208.294 1411.81 208.277 1412.19 208.162C1412.08 211.825 1412.03 215.485 1412.02 219.11L1412.12 221.401C1411.25 220.473 1410.14 219.39 1408.65 218.056C1405.19 214.877 1400.05 211.17 1395.92 208.052L1388.61 202.542L1389.93 204.847C1390.79 206.274 1392 208.085 1393.49 210.383C1396.52 215.041 1400.05 219.353 1404.01 223.24C1406.01 225.352 1408.44 227.008 1411.14 228.093C1411.46 228.141 1411.78 228.127 1412.1 228.053C1412.32 233.297 1412.38 238.583 1412.77 243.854C1411.55 242.641 1409.82 241.085 1407.38 239.06C1402.89 235.292 1396.65 230.768 1391.63 226.956L1382.7 220.151C1382.7 220.151 1383.38 221.187 1384.51 222.835C1385.64 224.483 1387.27 226.808 1389.24 229.286C1393.36 234.709 1398.03 239.693 1403.17 244.16C1405.72 246.642 1408.72 248.624 1412 250.005C1412.43 250.093 1412.87 250.074 1413.29 249.95C1413.49 254.598 1414.05 259.23 1414.58 263.83C1412.51 262.115 1410.35 260.508 1408.12 259.015C1403.26 255.696 1396.61 251.787 1391.25 248.455L1381.75 242.539C1381.75 242.539 1382.49 243.505 1383.79 245.08C1385.09 246.654 1386.94 248.738 1389.1 251.074C1393.68 256.09 1398.76 260.622 1404.27 264.599C1407.05 266.816 1410.22 268.497 1413.62 269.557C1413.88 269.655 1414.16 269.699 1414.44 269.687C1414.72 269.675 1415 269.607 1415.25 269.488C1416.8 281.594 1419.04 293.601 1421.96 305.452C1422.28 306.868 1424.39 306.247 1424.09 304.83C1422.01 294.941 1420.2 285.042 1418.71 275.128C1419.09 275.076 1419.46 274.959 1419.8 274.783C1422.56 272.841 1425.02 270.495 1427.08 267.823V267.823Z" fill="#5EAD41"/>
<path fill-rule="evenodd" clip-rule="evenodd" d="M1202.55 108.463C1203.08 109.744 1203.62 110.928 1204.52 111.388C1206.56 112.484 1208.51 111.314 1209.49 109.401C1209.6 109.202 1209.64 109.232 1209.41 109.181C1208.34 108.924 1207.42 108.434 1206.9 107.92C1206.12 107.133 1204.82 105.705 1205.19 103.795C1205.66 101.336 1208.47 100.243 1209.92 101.534C1211.75 103.156 1211.99 105.094 1212.04 107.075C1212.04 107.139 1212.01 107.716 1212.05 107.715C1212.05 107.715 1212.24 107.703 1212.27 107.702C1212.87 107.666 1213.44 107.505 1213.87 107.16C1214.57 106.606 1215.22 105.64 1215.43 104.764C1215.63 103.92 1215.56 103.316 1215.75 103.273C1215.91 103.232 1216.32 103.656 1216.28 104.682C1216.25 106.284 1215.53 108.791 1213.06 109.16C1212.68 109.214 1212.26 109.27 1211.88 109.324C1211.79 109.33 1211.72 109.334 1211.7 109.463C1210.75 112.847 1207.71 115.681 1204.19 114.607C1204.53 117.116 1204.65 119.733 1204.55 122.363C1204.29 130.539 1203.08 133.843 1199.44 141.065C1196 147.923 1191.76 155.821 1192.67 158.84C1194.09 163.525 1191.41 165.186 1193.76 170.873C1193.98 171.404 1194.94 173.013 1194.78 174.686C1194.58 176.81 1190.66 179.152 1189.54 178.609C1189.01 178.384 1188.54 174.636 1186.32 171.693C1185 169.914 1180.31 165.804 1177.08 162.057C1176.22 161.051 1175.51 161.541 1175.29 162.674C1174.2 168.018 1168.62 169.625 1167.79 177.259C1167.69 178.225 1165.38 179.32 1163.28 179.475C1161.08 179.668 1161.29 178.215 1161.6 176.405C1161.88 174.756 1162.18 172.754 1162.32 171.274C1162.79 167.182 1162.18 162.385 1160.08 162.54C1154.25 163.009 1147.75 162.942 1141.82 162.777C1140.79 162.741 1140.8 163.413 1141.29 164.184C1142 165.295 1142.82 166.143 1143.34 167.425C1144.34 169.798 1143.86 176.26 1142.77 178.499C1141.97 180.115 1139.65 180.986 1137.96 180.99C1137 180.982 1137.11 180.239 1136.78 178.275C1135.49 170.477 1132.66 167.538 1128.76 163.286C1126.88 161.22 1126.43 161.15 1123.97 162.414C1119.93 164.475 1115.17 165.65 1113.34 170.494C1112.7 172.195 1112.65 174.054 1112.39 176.63C1112.28 177.533 1111.72 178.366 1108.66 180.753C1107.47 181.687 1106.64 180.135 1106.16 177.315C1104.89 169.837 1107.47 158.74 1111.34 155.377C1108.02 152.883 1103.73 147.854 1100.51 145.386C1091.22 138.216 1086.28 144.555 1076.16 130.106C1074.65 127.953 1069.02 121.978 1066.47 121.52C1061.71 120.646 1064.51 112.673 1065.93 110.638C1067.4 108.503 1068.29 109.539 1070.12 110.136C1074.66 111.599 1084.07 108.936 1087.25 108.077C1079.41 102.616 1080.38 98.9744 1079.58 92.9724C1079.34 91.0662 1078.77 88.8915 1079.35 88.5371C1080.13 88.1077 1082.32 89.9638 1084.34 91.0938C1089.4 93.9018 1097.26 97.5379 1106.61 99.3265C1118.61 96.5436 1124.56 99.6839 1134.82 98.4428C1157.1 95.7302 1181.33 83.3017 1196.88 99.5775C1199.71 102.516 1201.12 104.77 1202.58 108.461L1202.55 108.463ZM1209.97 107.26C1209.97 107.26 1210.07 107.318 1210.1 107.221C1210.21 105.934 1209.95 104.637 1209.39 103.902C1208.49 102.77 1206.52 102.981 1207.68 105.282C1208.11 106.121 1208.99 106.838 1209.97 107.26Z" fill="#F5AFB4"/>
<path fill-rule="evenodd" clip-rule="evenodd" d="M1095.7 101.501C1094.24 98.3863 1094.02 95.1986 1095.01 90.2121C1097.06 79.8508 1097.98 86.9334 1102.28 92.0583C1103.52 93.522 1104.96 95.0702 1106.52 96.6109C1109.84 99.8406 1112.57 100.417 1114.22 101.889C1118.54 105.668 1118.58 108.066 1112.03 110.466C1110.59 110.998 1108.98 111.38 1107.42 111.472C1101.78 111.803 1097.89 106.141 1095.7 101.469L1095.7 101.501Z" fill="#E7868C"/>
<mask id="mask0_405_4853" style="mask-type:alpha" maskUnits="userSpaceOnUse" x="1094" y="84" width="24" height="28">
<path fill-rule="evenodd" clip-rule="evenodd" d="M1095.7 101.501C1094.24 98.3863 1094.02 95.1986 1095.01 90.2121C1097.06 79.8508 1097.98 86.9334 1102.28 92.0583C1103.52 93.522 1104.96 95.0702 1106.52 96.6109C1109.84 99.8406 1112.57 100.417 1114.22 101.889C1118.54 105.668 1118.58 108.066 1112.03 110.466C1110.59 110.998 1108.98 111.38 1107.42 111.472C1101.78 111.803 1097.89 106.141 1095.7 101.469L1095.7 101.501Z" fill="#E7868C"/>
</mask>
<g mask="url(#mask0_405_4853)">
<path fill-rule="evenodd" clip-rule="evenodd" d="M1104.17 116.144C1104.02 114.649 1103.77 113.159 1103.46 111.609C1103.43 111.643 1103.37 111.71 1103.31 111.714C1102.52 111.984 1101.65 111.907 1100.95 111.404C1100.55 111.107 1099.77 110.353 1099.96 109.798C1100.18 109.145 1101.35 109.429 1101.83 109.496C1102.32 109.564 1102.74 109.731 1103.08 109.999C1102.74 108.547 1102.33 107.099 1101.93 105.65C1101.93 105.682 1101.87 105.718 1101.84 105.751C1101.22 106.172 1100.46 106.312 1099.71 106.132C1099.2 106.002 1098.11 105.458 1098.1 104.786C1098.12 104.081 1099.3 104.044 1099.78 103.984C1100.42 103.946 1101 104.008 1101.53 104.297C1101.12 102.817 1100.71 101.337 1100.34 99.8225C1100.34 99.8225 1100.27 99.8262 1100.24 99.86C1099.39 100.102 1098.61 99.7639 1097.94 99.259C1097.53 98.9625 1096.83 98.4595 1097.31 97.9193C1097.73 97.4466 1098.66 97.4562 1099.21 97.5839C1099.44 97.6347 1099.64 97.7191 1099.84 97.8036C1099.49 96.3195 1099.21 94.7998 1099 93.3082C1097.57 92.9757 1096.6 91.7522 1096.48 90.3188C1096.48 90.2231 1096.57 90.1218 1096.63 90.0862C1097.5 89.6831 1098.23 90.1523 1098.73 90.8916C1098.64 89.4883 1098.63 88.113 1098.77 86.7604L1098.71 86.7641C1097.36 86.2028 1096.72 85.0244 1096.6 83.6229C1096.6 83.5273 1096.69 83.3941 1096.78 83.3566C1097.44 83.0941 1098.06 83.3457 1098.54 83.8299C1098.74 84.0419 1098.95 84.2858 1099.12 84.5635C1099.4 83.2353 1099.8 81.8996 1100.4 80.6165C1099.41 79.6501 1099.3 78.3123 1099.71 77.0404C1099.76 76.9091 1099.89 76.806 1100.02 76.8304C1100.72 76.8212 1101.2 77.3691 1101.43 77.9958C1101.47 78.1215 1101.54 78.2773 1101.58 78.4349C1101.73 78.2023 1101.88 78.0015 1102.02 77.7689C1101.71 76.8589 1101.59 75.874 1101.73 74.9059C1101.82 74.3243 1102.24 73.2757 1103.01 73.8068C1103.54 74.1597 1103.69 75.0152 1103.69 75.5912C1103.71 76.5499 1103.25 77.3772 1102.55 77.9943C1102.28 78.3619 1102.05 78.7596 1101.82 79.1573C1102.22 78.9736 1102.66 78.8517 1103.11 78.8255C1103.52 78.8012 1104.51 78.6795 1104.64 79.2161C1104.77 79.9122 1103.79 80.7056 1103.26 80.9287C1102.51 81.2606 1101.68 81.1816 1100.92 80.8737C1100.39 82.0574 1100.01 83.2636 1099.73 84.4961C1100.06 84.2204 1100.44 84.0067 1100.84 83.823C1101.25 83.6711 1101.93 83.3748 1102.1 83.9733C1102.26 84.6357 1101.83 85.4611 1101.38 85.9356C1100.84 86.4795 1100.11 86.7139 1099.38 86.7568C1099.26 88.0119 1099.24 89.2614 1099.31 90.5372C1099.65 89.7812 1100.22 89.0759 1100.97 88.8397C1101.07 88.8341 1101.17 88.8604 1101.24 88.9205C1101.78 89.4328 1101.8 90.4234 1101.59 91.1081C1101.29 92.0217 1100.59 92.6388 1099.71 93.01C1099.65 93.0138 1099.59 93.0175 1099.52 93.0212C1099.71 94.6104 1100.03 96.224 1100.41 97.8338C1100.52 96.9952 1101.09 96.2261 1101.93 95.8249C1102.05 95.7536 1102.25 95.8061 1102.32 95.9619C1102.58 96.6186 1102.78 97.279 1102.44 97.9393C1102.09 98.5996 1101.44 98.9579 1100.79 99.2841C1101.12 100.673 1101.52 102.057 1101.89 103.444C1102.11 102.695 1102.65 102.088 1103.33 101.696C1103.45 101.624 1103.58 101.681 1103.68 101.771C1104.06 102.197 1104.04 102.998 1103.95 103.516C1103.8 104.324 1103.12 104.78 1102.47 105.17C1102.47 105.17 1102.41 105.174 1102.38 105.176C1102.83 106.814 1103.27 108.42 1103.66 110.03C1103.99 109.114 1104.78 108.428 1105.76 108.178C1105.88 108.171 1106.01 108.227 1106.08 108.319C1106.34 108.88 1106.1 109.726 1105.81 110.223C1105.43 110.886 1104.71 111.12 1104.02 111.288L1103.95 111.292C1104.3 112.872 1104.59 114.456 1104.71 115.985C1104.73 116.335 1104.19 116.463 1104.14 116.114L1104.17 116.144Z" fill="#D1636E"/>
<path fill-rule="evenodd" clip-rule="evenodd" d="M1108.05 105.323C1108.47 105.298 1108.77 104.961 1108.74 104.546C1108.72 104.132 1108.38 103.831 1107.97 103.855C1107.55 103.88 1107.25 104.217 1107.28 104.632C1107.3 105.047 1107.64 105.347 1108.05 105.323Z" fill="#D1636E"/>
<path fill-rule="evenodd" clip-rule="evenodd" d="M1105.52 99.806C1105.94 99.7817 1106.24 99.4441 1106.21 99.0294C1106.19 98.6148 1105.85 98.3146 1105.43 98.3389C1105.02 98.3632 1104.72 98.7007 1104.74 99.1154C1104.77 99.53 1105.11 99.8303 1105.52 99.806Z" fill="#D1636E"/>
<path fill-rule="evenodd" clip-rule="evenodd" d="M1110.59 104.438C1111.01 104.414 1111.31 104.076 1111.28 103.661C1111.26 103.247 1110.92 102.946 1110.51 102.971C1110.09 102.995 1109.79 103.333 1109.82 103.747C1109.84 104.162 1110.18 104.462 1110.59 104.438Z" fill="#D1636E"/>
<path fill-rule="evenodd" clip-rule="evenodd" d="M1096.81 95.388C1097.23 95.3638 1097.53 95.0262 1097.5 94.6116C1097.48 94.1969 1097.14 93.8966 1096.73 93.9209C1096.31 93.9452 1096.01 94.2828 1096.04 94.6975C1096.06 95.1121 1096.4 95.4123 1096.81 95.388Z" fill="#D1636E"/>
<path fill-rule="evenodd" clip-rule="evenodd" d="M1110.53 106.17C1110.95 106.146 1111.25 105.808 1111.22 105.394C1111.2 104.979 1110.86 104.679 1110.45 104.703C1110.03 104.727 1109.73 105.065 1109.76 105.48C1109.78 105.894 1110.12 106.195 1110.53 106.17Z" fill="#D1636E"/>
</g>
<path fill-rule="evenodd" clip-rule="evenodd" d="M1092.39 117.186C1090.96 117.333 1089.88 116.98 1090.45 115.667C1091.15 114.026 1092.41 114.272 1093.52 115.071C1095.42 116.432 1094.33 116.976 1092.39 117.186V117.186Z" fill="#845B00"/>
<path fill-rule="evenodd" clip-rule="evenodd" d="M1160.51 148.017C1159.05 152.103 1155.68 151.884 1153.92 150.259C1152.23 148.726 1152.03 145.889 1156.36 144.355C1159.43 143.279 1161.77 144.454 1160.51 148.017ZM1151.15 118.833C1150.73 122.026 1144.36 123.551 1141.82 127.157C1139.95 129.794 1140.37 133.002 1145.13 138.324C1149.34 143.038 1157.82 140.397 1161.82 138.083C1165.53 135.945 1165.52 146.699 1177.34 144.023C1183.12 142.725 1180.77 137.165 1180.93 132.803C1181.13 127.383 1191.82 124.74 1187.66 117.623C1183.25 110.104 1176.38 115.755 1171.12 111.583C1169 109.915 1167 108.56 1165.09 107.584C1160.07 104.965 1155.87 104.795 1153.11 107.389C1148.8 111.386 1151.58 115.704 1151.18 118.799L1151.15 118.833ZM1183.07 106.466C1183.45 111.213 1173.1 112.203 1171.42 107.469C1169.43 101.889 1182.47 98.853 1183.07 106.466Z" fill="#E7868C"/>
<mask id="mask1_405_4853" style="mask-type:alpha" maskUnits="userSpaceOnUse" x="1140" y="101" width="49" height="51">
<path fill-rule="evenodd" clip-rule="evenodd" d="M1160.51 148.017C1159.05 152.103 1155.68 151.884 1153.92 150.259C1152.23 148.726 1152.03 145.889 1156.36 144.355C1159.43 143.279 1161.77 144.454 1160.51 148.017ZM1151.15 118.833C1150.73 122.026 1144.36 123.551 1141.82 127.157C1139.95 129.794 1140.37 133.002 1145.13 138.324C1149.34 143.038 1157.82 140.397 1161.82 138.083C1165.53 135.945 1165.52 146.699 1177.34 144.023C1183.12 142.725 1180.77 137.165 1180.93 132.803C1181.13 127.383 1191.82 124.74 1187.66 117.623C1183.25 110.104 1176.38 115.755 1171.12 111.583C1169 109.915 1167 108.56 1165.09 107.584C1160.07 104.965 1155.87 104.795 1153.11 107.389C1148.8 111.386 1151.58 115.704 1151.18 118.799L1151.15 118.833ZM1183.07 106.466C1183.45 111.213 1173.1 112.203 1171.42 107.469C1169.43 101.889 1182.47 98.853 1183.07 106.466Z" fill="#E7868C"/>
</mask>
<g mask="url(#mask1_405_4853)">
<path fill-rule="evenodd" clip-rule="evenodd" d="M1177.96 128.944C1177.96 128.944 1177.95 128.753 1177.82 128.728C1177.72 128.734 1177.66 128.738 1177.63 128.835C1177.6 128.869 1177.45 129.006 1177.36 129.043C1177.29 129.079 1177.23 129.146 1177.2 129.18C1177.05 129.317 1176.87 129.488 1176.72 129.688C1176.42 130.026 1176.15 130.394 1175.95 130.79C1175.96 130.821 1175.89 130.857 1175.9 130.921C1175.75 131.153 1175.58 131.484 1175.66 131.767C1175.74 132.018 1175.9 132.073 1176 132.099C1176.26 132.148 1176.54 132.003 1176.72 131.801C1177.08 131.428 1177.5 130.987 1177.72 130.398C1177.72 130.366 1177.75 130.3 1177.78 130.267C1177.86 130.006 1177.88 129.717 1177.92 129.458C1177.91 129.267 1177.97 129.103 1177.99 128.942L1177.96 128.944ZM1177.05 126.021C1177.04 126.373 1177 126.76 1176.86 127.12C1176.77 127.317 1176.66 127.516 1176.51 127.717C1176.36 127.309 1176.51 126.66 1176.56 126.433C1176.67 126.107 1176.79 125.908 1176.95 125.867C1176.98 125.865 1177.01 125.863 1177.01 125.863C1177.01 125.863 1177.01 125.863 1177.02 126.023L1177.05 126.021ZM1177.94 127.601C1177.94 127.601 1177.68 127.552 1177.56 127.591C1177.28 127.672 1176.99 127.784 1176.75 127.99C1176.75 127.99 1176.92 128.077 1177.04 128.101C1177.4 128.145 1177.77 127.931 1177.98 127.631L1177.94 127.601ZM1177.87 132.373C1178.01 132.077 1178.22 131.809 1178.43 131.604C1178.64 131.368 1178.89 131.13 1179.17 131.017C1179.42 130.939 1179.74 130.952 1179.91 131.166C1179.91 131.166 1179.95 131.228 1179.98 131.258C1179.87 131.552 1179.66 131.789 1179.45 131.961C1178.99 132.34 1178.49 132.593 1177.96 132.848L1177.71 132.959C1177.7 132.735 1177.81 132.505 1177.87 132.373V132.373ZM1179.95 131.804C1179.87 132.001 1179.72 132.201 1179.47 132.376C1179.07 132.687 1178.57 132.908 1178.03 132.972C1178 132.974 1177.94 132.978 1177.91 132.979C1177.91 132.979 1177.91 132.979 1177.87 132.981L1177.97 132.912C1178.46 132.659 1178.99 132.372 1179.45 132.025C1179.63 131.854 1179.84 131.65 1179.99 131.385C1180 131.513 1180.01 131.672 1179.95 131.804V131.804ZM1179.36 133.727C1179.59 133.809 1179.85 133.986 1180.03 134.263C1180.1 134.419 1180.15 134.609 1180.09 134.74C1180.05 134.614 1179.95 134.492 1179.78 134.374C1179.28 133.987 1178.69 133.766 1178.1 133.544C1177.97 133.488 1177.8 133.433 1177.67 133.377C1177.8 133.37 1178.03 133.42 1178.16 133.477C1178.26 133.471 1178.35 133.529 1178.39 133.527C1178.71 133.573 1179 133.62 1179.29 133.73L1179.36 133.727ZM1179.07 134.768C1179.36 134.91 1179.62 134.927 1179.81 134.916C1179.91 134.91 1179.97 134.875 1180 134.841C1179.96 134.684 1179.82 134.563 1179.72 134.441C1179.25 134.053 1178.66 133.831 1178.07 133.61C1177.91 133.555 1177.78 133.499 1177.61 133.445C1177.62 133.54 1177.72 133.662 1177.76 133.724C1178.08 134.313 1178.64 134.601 1179.04 134.77L1179.07 134.768ZM1168.2 139.341C1168.01 139.352 1167.78 139.301 1167.71 139.145C1167.7 139.114 1167.7 139.082 1167.7 139.05C1168.45 138.782 1169.3 138.476 1170.13 138.491C1170.16 138.489 1170.2 138.488 1170.23 138.518C1169.72 139.06 1168.97 139.36 1168.23 139.339L1168.2 139.341ZM1167.75 138.791C1167.75 138.791 1167.69 138.858 1167.69 138.922C1167.69 138.922 1167.69 138.922 1167.69 138.954C1168.32 138.725 1169.04 138.459 1169.78 138.416C1169.23 138.32 1168.65 138.29 1168.15 138.511C1167.96 138.586 1167.84 138.69 1167.75 138.791V138.791ZM1169.33 137.386C1169.16 137.172 1168.95 136.896 1169.03 136.604C1169.38 137.127 1169.76 137.617 1170.2 138.071C1169.87 137.898 1169.57 137.66 1169.33 137.386ZM1169.37 136.328C1169.59 136.315 1169.82 136.461 1169.99 136.675C1170.17 136.889 1170.28 137.171 1170.36 137.454C1170.44 137.705 1170.52 137.989 1170.47 138.216C1170.47 138.216 1170.44 138.218 1170.4 138.219C1169.89 137.705 1169.44 137.123 1169.02 136.508C1169.02 136.508 1169.05 136.442 1169.08 136.44C1169.14 136.373 1169.24 136.335 1169.34 136.362L1169.37 136.328ZM1169.48 133.409C1169.1 133.431 1168.75 133.452 1168.49 133.339C1168.16 133.262 1167.86 133.087 1167.69 132.842C1168.35 133.123 1169.06 133.242 1169.79 133.167C1169.98 133.156 1170.14 133.114 1170.26 133.043C1170.2 133.111 1170.14 133.178 1170.05 133.248C1169.9 133.353 1169.67 133.366 1169.48 133.377L1169.48 133.409ZM1169.18 132.562C1168.76 132.523 1168.32 132.613 1167.78 132.74C1167.75 132.742 1167.72 132.744 1167.68 132.746C1168.34 133.028 1169.05 133.146 1169.75 133.073C1170.01 133.058 1170.16 132.985 1170.29 132.914C1169.99 132.707 1169.59 132.57 1169.18 132.562V132.562ZM1169.51 131.071L1169.5 130.975C1169.72 130.962 1169.93 131.142 1170.06 131.294C1170.2 131.478 1170.56 132.161 1170.51 132.293C1170.51 132.293 1170.51 132.293 1170.41 132.298C1170.05 132.223 1169.69 131.54 1169.54 131.101L1169.51 131.071ZM1176.21 126.358C1176.29 126.065 1176.45 125.672 1176.8 125.555C1176.96 125.514 1177.09 125.538 1177.22 125.595C1177.39 125.745 1177.37 125.97 1177.37 126.066C1177.36 126.418 1177.32 126.869 1177.16 127.263C1177.16 127.295 1177.13 127.328 1177.1 127.362C1177.19 127.325 1177.32 127.285 1177.41 127.248C1177.82 127.16 1178.05 127.242 1178.15 127.364C1178.22 127.424 1178.26 127.486 1178.26 127.582C1178.26 127.614 1178.27 127.646 1178.27 127.678C1178.27 127.71 1178.27 127.741 1178.24 127.775C1178.01 128.205 1177.48 128.492 1176.97 128.458C1176.78 128.469 1176.61 128.383 1176.48 128.262C1176.36 128.398 1176.24 128.501 1176.11 128.604C1175.99 128.739 1175.84 128.844 1175.72 128.979C1175.85 130.155 1175.63 131.288 1175.39 132.135C1175.34 132.298 1175.28 132.461 1175.23 132.624C1175.07 133.114 1174.87 133.573 1174.67 134.033C1175.47 133.506 1176.38 133.133 1177.3 132.983C1177.3 132.983 1177.3 132.983 1177.33 132.981C1177.32 132.726 1177.4 132.497 1177.54 132.233C1177.72 131.903 1177.95 131.601 1178.16 131.364C1178.4 131.094 1178.68 130.822 1179.02 130.706C1179.4 130.556 1179.78 130.629 1180.05 130.837C1180.05 130.837 1180.09 130.836 1180.09 130.868C1180.09 130.868 1180.12 130.929 1180.15 130.928C1180.36 131.172 1180.42 131.552 1180.28 131.913C1180.16 132.175 1179.99 132.41 1179.68 132.652C1179.37 132.894 1179 133.075 1178.65 133.192C1178.95 133.239 1179.24 133.286 1179.5 133.398C1179.76 133.511 1180.13 133.714 1180.34 134.053C1180.48 134.269 1180.52 134.522 1180.44 134.751C1180.42 134.849 1180.36 134.948 1180.27 135.049C1180.18 135.119 1180.05 135.19 1179.89 135.231C1179.55 135.284 1179.19 135.177 1178.96 135.062C1178.5 134.865 1177.9 134.516 1177.51 133.899C1177.41 133.713 1177.3 133.495 1177.32 133.302C1176.27 133.459 1175.21 133.937 1174.42 134.624C1173.94 135.708 1173.44 136.986 1173.13 138.892C1173.16 138.794 1173.22 138.727 1173.24 138.629C1173.42 138.267 1173.59 137.969 1173.8 137.701C1174.19 137.23 1174.71 136.911 1175.24 136.592C1175.55 136.414 1175.89 136.202 1176.19 135.96C1176.25 135.925 1176.35 135.919 1176.42 135.947C1176.48 136.007 1176.49 136.071 1176.49 136.135C1176.35 136.527 1176.25 136.981 1176.15 137.403C1176.07 137.696 1176.02 137.986 1175.91 138.281C1175.78 138.769 1175.59 139.26 1175.29 139.693C1175.08 139.962 1174.84 140.232 1174.57 140.44C1174.44 140.543 1174.26 140.682 1174.07 140.725C1173.91 140.766 1173.38 140.926 1173.05 140.785C1173.04 141.169 1173.03 141.586 1173.06 142.001C1173.07 142.128 1173.11 142.286 1173.08 142.415C1173.08 142.415 1173.08 142.447 1173.09 142.479C1173.17 143.978 1173.49 145.56 1174.46 146.815C1174.46 146.847 1174.5 146.909 1174.47 146.974C1174.47 147.006 1174.44 147.04 1174.41 147.074C1174.32 147.143 1174.22 147.085 1174.15 147.025C1173.25 145.798 1172.88 144.348 1172.76 142.914C1172.55 143.087 1172.2 143.171 1171.78 143.195C1171.02 143.24 1170.31 143.122 1169.68 142.806C1168.99 142.463 1168.44 141.887 1167.9 141.374C1167.87 141.344 1167.83 141.282 1167.86 141.217C1167.86 141.153 1167.92 141.117 1167.95 141.084C1168.79 140.714 1170.01 140.259 1171.25 140.57C1171.64 140.676 1172.03 140.876 1172.37 141.113C1172.47 141.203 1172.6 141.291 1172.67 141.415C1172.66 141.16 1172.67 140.903 1172.69 140.646C1172.7 140.261 1172.74 139.843 1172.75 139.458L1172.72 139.46C1172.06 139.115 1171.34 138.837 1170.59 138.625C1170.02 139.266 1169.11 139.671 1168.25 139.626C1167.86 139.648 1167.6 139.504 1167.46 139.288C1167.32 139.072 1167.33 138.783 1167.51 138.549C1167.63 138.382 1167.81 138.243 1168.06 138.132C1168.53 137.945 1169.04 137.915 1169.53 137.983C1169.39 137.863 1169.26 137.743 1169.12 137.591C1168.81 137.225 1168.66 136.849 1168.73 136.493C1168.76 136.332 1168.82 136.232 1168.91 136.131C1169.03 135.996 1169.22 135.953 1169.41 135.941C1169.73 135.923 1170.09 136.126 1170.33 136.431C1170.54 136.707 1170.65 136.989 1170.77 137.302C1170.88 137.615 1170.97 137.994 1170.83 138.323C1171.51 138.507 1172.13 138.758 1172.76 139.074C1172.8 138.143 1172.84 137.181 1172.82 136.254C1172.82 136.254 1172.79 136.256 1172.76 136.289C1172.63 136.393 1172.41 136.406 1172.12 136.391C1172.09 136.392 1172.03 136.396 1171.99 136.398C1171.71 136.415 1171.42 136.4 1171.19 136.253C1170.99 136.137 1170.85 135.953 1170.71 135.769C1170.71 135.737 1170.67 135.675 1170.7 135.61C1170.7 135.546 1170.76 135.51 1170.79 135.508L1171.16 135.327C1171.16 135.327 1171.41 135.216 1171.57 135.175C1171.73 135.165 1171.89 135.156 1172.09 135.241C1172.09 135.241 1172.54 135.406 1172.78 135.68C1172.75 135.138 1172.66 134.631 1172.53 134.126C1172.53 133.999 1172.45 133.843 1172.41 133.717C1172.41 133.717 1172.41 133.717 1172.38 133.719C1171.8 133.561 1171.21 133.34 1170.65 133.084C1170.59 133.248 1170.44 133.416 1170.26 133.523C1170.04 133.664 1169.79 133.679 1169.53 133.726C1169.09 133.752 1168.73 133.741 1168.41 133.664C1167.99 133.56 1167.65 133.324 1167.41 133.05C1167.35 132.99 1167.31 132.864 1167.3 132.737C1167.29 132.609 1167.38 132.476 1167.69 132.393C1168.29 132.23 1168.77 132.202 1169.22 132.208C1169.41 132.197 1169.64 132.247 1169.9 132.328C1169.46 131.906 1169.22 131.184 1169.22 131.152C1169.15 130.932 1169.2 130.737 1169.32 130.666C1169.38 130.63 1169.48 130.625 1169.51 130.623C1169.8 130.606 1170.09 130.749 1170.34 131.054C1170.4 131.115 1170.96 131.946 1170.83 132.37C1170.83 132.37 1170.83 132.433 1170.8 132.467C1170.78 132.533 1170.69 132.634 1170.49 132.614C1170.56 132.674 1170.63 132.702 1170.69 132.762C1171.19 133.021 1171.71 133.214 1172.23 133.376C1171.77 132.058 1171.06 130.852 1170.32 129.743C1170.33 129.807 1170.27 129.842 1170.24 129.876C1169.99 130.082 1169.51 129.983 1169.05 129.881L1168.99 129.885C1168.4 129.727 1167.91 129.468 1167.57 129.104C1167.43 128.984 1167.33 128.862 1167.22 128.708C1167.15 128.616 1167.08 128.524 1167.02 128.464C1166.98 128.403 1166.95 128.341 1167.01 128.273C1167 128.209 1167.1 128.172 1167.16 128.168C1167.83 128.129 1168.66 128.08 1169.35 128.424C1169.48 128.48 1169.62 128.6 1169.78 128.718C1169.64 128.375 1169.58 128.026 1169.63 127.672C1169.67 127.253 1169.83 126.827 1170.13 126.362C1170.24 126.163 1170.43 126.088 1170.6 126.175C1170.66 126.203 1170.7 126.265 1170.73 126.295C1170.98 126.76 1171.05 127.364 1170.84 128.145C1170.84 128.208 1170.81 128.274 1170.79 128.34C1170.76 128.437 1170.73 128.535 1170.67 128.634C1170.53 128.899 1170.41 129.034 1170.35 129.101C1170.67 129.595 1171.02 130.15 1171.34 130.676C1171.33 130.484 1171.38 130.225 1171.46 129.933C1171.59 129.445 1171.82 129.047 1172.12 128.678C1172.45 128.306 1172.79 128.126 1173.14 128.074C1173.2 128.07 1173.27 128.067 1173.3 128.16C1173.31 128.192 1173.34 128.254 1173.31 128.32C1173.17 128.616 1173.12 128.875 1173.04 129.2C1172.99 129.363 1172.94 129.558 1172.88 129.721C1172.75 130.145 1172.43 130.708 1171.9 130.931C1171.71 131.006 1171.55 130.983 1171.45 130.893C1172.02 131.916 1172.53 132.974 1172.82 134.109C1173.07 135.087 1173.13 136.044 1173.15 137.034C1173.46 135.832 1173.86 134.945 1174.23 134.123C1174.48 133.564 1174.71 133.071 1174.9 132.483C1174.96 132.352 1175.01 132.189 1175.03 132.027C1175.03 132.027 1175.04 132.059 1175 132.061C1174.61 132.436 1173.73 131.624 1173.73 131.592C1173.56 131.41 1173.39 131.196 1173.25 131.012C1173.11 130.86 1173 130.706 1172.87 130.554C1172.83 130.492 1172.8 130.43 1172.86 130.363C1172.88 130.297 1172.98 130.26 1173.04 130.256C1173.49 130.325 1174.14 130.416 1174.55 130.872C1174.55 130.872 1175.1 131.48 1175.12 131.831C1175.46 130.53 1175.7 128.66 1174.85 127.174C1174.81 127.176 1174.78 127.178 1174.72 127.181C1174.53 127.161 1174.37 127.202 1174.14 127.215C1173.98 127.224 1173.83 127.234 1173.67 127.243C1172.9 127.224 1172.2 126.753 1171.97 126.094C1171.96 126.031 1171.93 125.937 1171.95 125.839C1171.95 125.744 1172.03 125.61 1172.32 125.562C1172.83 125.468 1173.38 125.564 1173.87 125.823C1174.14 125.967 1174.4 126.144 1174.64 126.386C1174.81 126.536 1174.91 126.658 1174.98 126.782C1174.98 126.782 1174.98 126.782 1175.02 126.812C1175.37 127.367 1175.6 127.962 1175.7 128.564C1175.76 128.497 1175.85 128.427 1175.91 128.36C1176.03 128.257 1176.15 128.122 1176.27 128.018C1175.98 127.491 1176.16 126.713 1176.24 126.388L1176.21 126.358ZM1175.15 124.66C1175.15 124.66 1174.57 126.262 1174.91 126.69C1175.02 126.812 1175.15 126.868 1175.31 126.827C1175.62 126.776 1175.79 126.287 1175.95 125.829L1175.95 125.765C1175.95 125.765 1176.03 125.568 1176.06 125.471C1176.14 125.178 1176.21 124.854 1176.26 124.595C1176.37 124.173 1176.17 124.056 1176.07 123.998C1175.97 123.972 1175.84 123.979 1175.72 124.018C1175.5 124.127 1175.29 124.332 1175.14 124.628L1175.15 124.66Z" fill="#D1636E"/>
<path fill-rule="evenodd" clip-rule="evenodd" d="M1166.22 103.485C1166.68 103.618 1166.9 104.181 1166.74 104.607C1166.54 105.098 1166 105.162 1165.52 105.19C1165.43 105.164 1165.33 105.105 1165.23 105.047C1164.96 104.807 1164.93 104.424 1165.04 104.098C1165.21 103.608 1165.7 103.323 1166.19 103.486L1166.22 103.485ZM1166.45 110.608C1166.9 110.742 1167.13 111.305 1166.96 111.73C1166.77 112.222 1166.23 112.286 1165.75 112.314C1165.65 112.287 1165.55 112.229 1165.45 112.171C1165.18 111.931 1165.16 111.548 1165.27 111.222C1165.43 110.732 1165.93 110.447 1166.45 110.608ZM1161.09 125.644C1160.89 126.136 1160.35 126.199 1159.87 126.227C1159.78 126.201 1159.68 126.143 1159.58 126.085C1159.31 125.844 1159.29 125.462 1159.39 125.135C1159.56 124.646 1160.05 124.361 1160.54 124.524C1161 124.657 1161.22 125.22 1161.06 125.646L1161.09 125.644ZM1165.69 117.949C1165.5 118.441 1164.96 118.505 1164.48 118.533C1164.38 118.506 1164.28 118.448 1164.18 118.39C1163.91 118.15 1163.89 117.767 1164 117.441C1164.16 116.951 1164.66 116.666 1165.15 116.829C1165.61 116.963 1165.83 117.525 1165.66 117.951L1165.69 117.949ZM1163.67 123.861C1164.13 123.994 1164.35 124.557 1164.19 124.983C1163.99 125.474 1163.45 125.538 1162.97 125.566C1162.87 125.54 1162.78 125.481 1162.68 125.423C1162.41 125.183 1162.38 124.8 1162.49 124.474C1162.6 124.115 1162.91 123.874 1163.25 123.821C1163.29 123.819 1163.32 123.817 1163.38 123.814C1163.48 123.808 1163.57 123.802 1163.67 123.861ZM1160 121.227C1159.8 121.719 1159.26 121.783 1158.78 121.811C1158.69 121.784 1158.59 121.726 1158.49 121.668C1158.22 121.428 1158.2 121.045 1158.3 120.719C1158.47 120.229 1158.96 119.944 1159.45 120.107C1159.91 120.24 1160.13 120.803 1159.97 121.229L1160 121.227ZM1159.69 113.757C1159.49 114.248 1158.95 114.312 1158.47 114.34C1158.38 114.313 1158.28 114.255 1158.18 114.197C1157.91 113.957 1157.89 113.574 1157.99 113.248C1158.16 112.758 1158.65 112.473 1159.14 112.636C1159.6 112.77 1159.82 113.333 1159.66 113.758L1159.69 113.757ZM1159.35 106.959C1159.16 107.451 1158.62 107.514 1158.14 107.542C1158.04 107.516 1157.94 107.458 1157.84 107.4C1157.57 107.159 1157.55 106.777 1157.66 106.45C1157.82 105.961 1158.32 105.676 1158.81 105.839C1159.26 105.972 1159.49 106.535 1159.32 106.961L1159.35 106.959ZM1159.97 93.9934C1160.28 94.8715 1160.62 95.7478 1160.86 96.6296C1161.01 97.549 1161.16 98.4684 1161.28 99.3577C1160.04 101.095 1159 103.171 1158.71 105.301C1157.94 105.218 1157.24 105.771 1157.25 106.57C1157.28 107.049 1157.5 107.484 1157.86 107.719C1157.89 107.717 1157.93 107.747 1157.96 107.777C1157.99 107.775 1158.03 107.805 1158.09 107.833C1158.75 108.051 1159.53 107.749 1159.78 107.063C1160.02 106.376 1159.69 105.659 1159.04 105.378C1159.67 103.517 1160.33 101.781 1161.39 100.151C1161.68 102.438 1161.88 104.731 1161.95 107.031C1160.63 108.453 1159.54 110.181 1159.14 112.092C1159.14 112.092 1159.14 112.092 1159.11 112.094C1158.34 111.98 1157.57 112.537 1157.59 113.368C1157.61 113.846 1157.83 114.281 1158.2 114.516C1158.23 114.514 1158.26 114.544 1158.3 114.574C1158.33 114.572 1158.36 114.602 1158.43 114.631C1159.08 114.848 1159.86 114.547 1160.11 113.86C1160.33 113.207 1160.03 112.52 1159.47 112.233C1160.11 110.595 1160.86 109.143 1161.97 107.83C1162.01 108.564 1161.99 109.301 1161.97 110.007C1161.95 111.352 1161.87 112.701 1161.75 114.02C1160.47 115.599 1159.53 117.543 1159.42 119.597C1159.42 119.597 1159.39 119.599 1159.36 119.601C1158.58 119.486 1157.82 120.043 1157.83 120.874C1157.86 121.353 1158.08 121.788 1158.44 122.022C1158.48 122.021 1158.51 122.051 1158.54 122.081C1158.58 122.079 1158.61 122.109 1158.68 122.137C1159.33 122.355 1160.11 122.053 1160.36 121.366C1160.61 120.712 1160.28 119.963 1159.65 119.711C1160.03 117.961 1160.61 116.359 1161.65 114.922C1161.34 117.98 1160.88 120.984 1160.39 124.053C1159.61 123.97 1158.91 124.524 1158.93 125.323C1158.95 125.801 1159.17 126.236 1159.54 126.471C1159.57 126.469 1159.6 126.499 1159.64 126.529C1159.67 126.527 1159.7 126.557 1159.77 126.586C1160.42 126.803 1161.2 126.502 1161.45 125.815C1161.7 125.128 1161.37 124.38 1160.68 124.132C1161.08 122.796 1161.38 121.402 1161.62 120.012C1162.14 121.134 1162.58 122.228 1162.97 123.421C1162.41 123.551 1161.99 124.023 1161.99 124.663C1162.02 125.142 1162.24 125.577 1162.6 125.812C1162.63 125.81 1162.67 125.84 1162.7 125.87C1162.73 125.868 1162.77 125.898 1162.83 125.926C1163.49 126.144 1164.27 125.842 1164.52 125.155C1164.79 124.403 1164.29 123.536 1163.49 123.391C1163.39 123.397 1163.33 123.401 1163.23 123.406C1162.95 121.982 1162.45 120.508 1161.74 119.269C1162.14 116.813 1162.31 114.339 1162.4 111.902C1163.44 113.281 1164.16 114.711 1164.67 116.377C1164 116.416 1163.46 116.96 1163.47 117.664C1163.5 118.142 1163.72 118.577 1164.08 118.812C1164.08 118.812 1164.15 118.84 1164.18 118.87C1164.21 118.868 1164.25 118.898 1164.31 118.926C1164.96 119.144 1165.75 118.842 1165.99 118.156C1166.27 117.404 1165.77 116.537 1164.96 116.392C1164.96 116.392 1164.9 116.396 1164.87 116.398C1164.63 114.491 1163.71 112.497 1162.38 111.103C1162.36 110.752 1162.4 110.365 1162.41 110.013C1162.44 108.347 1162.41 106.652 1162.31 104.962C1163.78 106.508 1164.71 108.31 1165.6 110.242C1165.09 110.4 1164.7 110.871 1164.71 111.446C1164.73 111.925 1164.95 112.36 1165.32 112.595C1165.35 112.593 1165.38 112.623 1165.42 112.653C1165.45 112.651 1165.48 112.681 1165.55 112.709C1166.2 112.927 1166.98 112.625 1167.23 111.939C1167.51 111.187 1167.04 110.318 1166.2 110.175C1166.1 110.18 1165.98 110.188 1165.88 110.194C1165.33 107.89 1163.86 105.799 1162.2 104.168C1162.1 102.542 1161.92 100.953 1161.66 99.3672C1161.65 99.1758 1161.64 99.0163 1161.63 98.8249C1163.36 99.876 1164.46 101.283 1165.24 103.158C1164.78 103.345 1164.42 103.782 1164.45 104.357C1164.48 104.835 1164.7 105.27 1165.06 105.505C1165.09 105.503 1165.13 105.533 1165.16 105.563C1165.19 105.561 1165.23 105.591 1165.29 105.619C1165.95 105.837 1166.73 105.535 1166.98 104.849C1167.25 104.065 1166.75 103.23 1165.94 103.085C1165.82 103.092 1165.72 103.066 1165.59 103.105C1165.09 101.055 1163.47 99.1012 1161.53 98.2227C1161.35 96.6973 1160.9 95.155 1160.29 93.911C1160.1 93.5376 1159.54 93.7626 1159.69 94.1698L1159.97 93.9934Z" fill="#D1636E"/>
<path fill-rule="evenodd" clip-rule="evenodd" d="M1146.09 117.689C1146.56 117.406 1147.05 117.121 1147.35 116.656C1147.64 116.191 1147.6 115.521 1147.31 114.994C1147.67 114.588 1148.03 114.183 1148.39 113.778C1148.2 115.966 1148.11 118.179 1148.14 120.386C1147.75 120.825 1147.39 121.326 1147.04 121.795C1147 121.733 1146.94 121.704 1146.9 121.642C1146.33 121.196 1145.43 121.601 1145.04 122.104C1144.59 122.674 1144.44 123.419 1144.29 124.1C1144.07 125.296 1143.82 126.463 1143.61 127.66C1144.01 126.452 1144.91 125.407 1146.02 124.702C1146.49 124.419 1146.98 124.134 1147.28 123.669C1147.54 123.237 1147.53 122.598 1147.28 122.1C1147.58 121.763 1147.88 121.393 1148.15 121.058C1148.19 123.455 1148.37 125.877 1148.63 128.262C1148.24 129.149 1147.84 130.005 1147.41 130.894C1146.79 130.61 1146.02 131.167 1145.73 131.728C1145.38 132.357 1145.37 133.126 1145.37 133.829C1145.35 135.047 1145.36 136.263 1145.33 137.448C1145.54 136.156 1146.24 134.995 1147.18 134.108C1147.58 133.733 1148.04 133.386 1148.23 132.894C1148.46 132.337 1148.25 131.613 1147.81 131.159C1148.15 130.466 1148.46 129.744 1148.74 129.024C1148.81 129.564 1148.9 130.103 1148.96 130.643C1149.17 132.007 1149.41 133.369 1149.72 134.727C1148.99 134.866 1148.72 135.81 1148.82 136.444C1148.93 137.174 1149.38 137.787 1149.83 138.369C1150.56 139.35 1151.29 140.332 1152.05 141.311C1151.41 140.165 1151.27 138.797 1151.48 137.505C1151.57 136.955 1151.7 136.403 1151.57 135.867C1151.41 135.268 1150.74 134.795 1150.1 134.737C1149.87 133.598 1149.68 132.457 1149.52 131.315C1149.69 131.497 1149.86 131.679 1150.03 131.861C1149.81 132.45 1149.95 133.21 1150.39 133.632C1150.79 134.024 1151.35 134.152 1151.87 134.313C1153.11 134.721 1154.24 135.518 1154.98 136.596C1154.43 135.475 1153.92 134.385 1153.37 133.265C1153.05 132.612 1152.72 131.927 1152.15 131.48C1151.65 131.094 1150.71 130.925 1150.26 131.431C1149.99 131.159 1149.68 130.921 1149.41 130.649C1149.1 128.555 1148.91 126.453 1148.76 124.35C1148.93 124.66 1149.15 124.999 1149.39 125.305C1149.13 125.896 1149.21 126.692 1149.66 127.146C1150.03 127.54 1150.61 127.666 1151.14 127.859C1152.38 128.299 1153.48 129.098 1154.19 130.209C1153.67 129.087 1153.19 127.963 1152.68 126.841C1152.38 126.186 1152.05 125.469 1151.48 125.023C1151.01 124.666 1150.17 124.428 1149.65 124.874C1149.3 124.382 1148.99 123.889 1148.67 123.363C1148.61 122.343 1148.58 121.288 1148.58 120.264C1148.58 120.2 1148.58 120.168 1148.57 120.105C1148.57 118.921 1148.59 117.735 1148.65 116.547C1148.86 116.855 1149.1 117.193 1149.32 117.501C1148.9 118.069 1148.89 118.966 1149.34 119.484C1149.68 119.912 1150.24 120.103 1150.73 120.33C1151.91 120.901 1152.96 121.8 1153.54 122.982L1152.38 119.498C1152.14 118.807 1151.88 118.087 1151.37 117.573C1150.96 117.18 1150.18 116.906 1149.65 117.193C1149.34 116.763 1148.99 116.335 1148.68 115.938C1148.73 115.103 1148.81 114.266 1148.88 113.429C1148.96 112.529 1149.1 111.593 1149.2 110.69C1149.42 111.03 1149.63 111.401 1149.87 111.739C1149.36 112.281 1149.33 113.308 1149.77 113.857C1150.12 114.285 1150.67 114.477 1151.17 114.704C1152.35 115.274 1153.4 116.173 1153.98 117.356C1153.59 116.194 1153.2 115.033 1152.82 113.871C1152.58 113.181 1152.32 112.46 1151.81 111.946C1151.43 111.584 1150.75 111.336 1150.24 111.494C1149.93 111.032 1149.64 110.537 1149.33 110.075C1149.51 108.848 1149.73 107.651 1149.95 106.454C1150 106.163 1149.57 106.028 1149.52 106.319C1149.05 108.555 1148.7 110.784 1148.45 113.071C1147.97 113.579 1147.48 114.088 1147 114.596C1147 114.596 1146.97 114.566 1146.93 114.536C1146.36 114.089 1145.46 114.494 1145.07 114.997C1144.63 115.567 1144.48 116.312 1144.32 116.993C1144.11 118.19 1143.86 119.357 1143.64 120.553C1144.05 119.345 1144.95 118.301 1146.06 117.595L1146.09 117.689Z" fill="#D1636E"/>
<path fill-rule="evenodd" clip-rule="evenodd" d="M1184.19 120.547C1185.19 120.168 1185.15 118.923 1185.15 118.891L1185.14 118.827C1185.14 118.795 1184.32 117.851 1183.32 118.23C1183.03 118.342 1182.79 118.485 1182.57 118.689C1182.65 118.397 1182.7 118.106 1182.68 117.819C1182.62 116.734 1181.45 116.419 1181.38 116.391L1181.32 116.395C1181.26 116.398 1180.13 116.88 1180.2 117.965C1180.21 118.252 1180.29 118.567 1180.41 118.816C1180.17 118.638 1179.88 118.527 1179.58 118.448C1178.54 118.189 1177.87 119.189 1177.84 119.255L1177.84 119.318C1177.85 119.382 1177.92 120.594 1178.99 120.852C1179.28 120.93 1179.57 120.945 1179.89 120.927C1179.64 121.101 1179.43 121.338 1179.29 121.57C1178.7 122.469 1179.46 123.448 1179.49 123.478C1179.49 123.478 1179.53 123.508 1179.56 123.506C1179.75 123.559 1179.98 123.578 1180.17 123.567C1181.06 123.514 1181.51 122.944 1181.72 122.1C1182.02 122.946 1182.53 123.428 1183.42 123.376C1183.62 123.365 1183.84 123.352 1184.03 123.245C1184.03 123.245 1184.09 123.241 1184.09 123.209C1184.09 123.177 1184.76 122.114 1184.07 121.29C1183.87 121.078 1183.66 120.866 1183.4 120.721C1183.68 120.705 1184 120.686 1184.28 120.542L1184.19 120.547Z" fill="#D1636E"/>
<path fill-rule="evenodd" clip-rule="evenodd" d="M1172.93 86.8979C1173.04 88.1399 1173.27 89.4063 1173.54 90.7028C1173.54 90.6709 1173.6 90.6353 1173.66 90.5996C1174.32 90.3691 1175.06 90.4537 1175.63 90.8366C1175.96 91.0731 1176.61 91.7074 1176.44 92.197C1176.25 92.7523 1175.28 92.5212 1174.89 92.448C1174.5 92.3747 1174.14 92.2358 1173.84 92.0293C1174.14 93.2283 1174.46 94.4572 1174.79 95.6862C1174.79 95.6862 1174.82 95.6205 1174.88 95.6167C1175.41 95.266 1176.04 95.1331 1176.66 95.289C1177.11 95.3904 1178.03 95.8483 1178 96.4262C1177.97 97.004 1176.99 97.062 1176.6 97.0844C1176.06 97.1161 1175.58 97.0484 1175.15 96.8175C1175.48 98.0784 1175.84 99.3055 1176.17 100.566C1176.17 100.566 1176.2 100.564 1176.23 100.563C1176.92 100.362 1177.61 100.642 1178.15 101.058C1178.48 101.327 1179.08 101.74 1178.66 102.18C1178.3 102.586 1177.53 102.567 1177.05 102.467C1176.85 102.415 1176.69 102.36 1176.52 102.274C1176.82 103.536 1177.05 104.803 1177.22 106.041C1178.42 106.323 1179.22 107.364 1179.32 108.574C1179.33 108.67 1179.27 108.738 1179.21 108.773C1178.46 109.105 1177.86 108.692 1177.44 108.077C1177.51 109.257 1177.51 110.409 1177.42 111.535C1177.42 111.535 1177.45 111.533 1177.48 111.531C1178.63 112.008 1179.17 113 1179.24 114.18C1179.24 114.276 1179.18 114.375 1179.09 114.413C1178.53 114.638 1178.03 114.443 1177.63 114.019C1177.46 113.837 1177.28 113.623 1177.14 113.407C1176.92 114.54 1176.57 115.649 1176.06 116.735C1176.87 117.551 1176.97 118.697 1176.65 119.741C1176.62 119.87 1176.5 119.941 1176.37 119.917C1175.76 119.92 1175.35 119.464 1175.16 118.932C1175.12 118.806 1175.08 118.68 1175.04 118.554C1174.93 118.753 1174.81 118.92 1174.69 119.119C1174.96 119.871 1175.07 120.729 1174.93 121.505C1174.83 121.991 1174.5 122.875 1173.86 122.432C1173.43 122.137 1173.29 121.441 1173.29 120.929C1173.28 120.13 1173.65 119.436 1174.26 118.92C1174.47 118.588 1174.71 118.286 1174.88 117.956C1174.54 118.104 1174.16 118.222 1173.78 118.245C1173.43 118.265 1172.6 118.377 1172.51 117.903C1172.38 117.302 1173.24 116.644 1173.67 116.458C1174.3 116.198 1175 116.252 1175.63 116.504C1176.08 115.517 1176.4 114.474 1176.63 113.437C1176.36 113.677 1176.05 113.855 1175.7 114.003C1175.36 114.151 1174.8 114.376 1174.67 113.871C1174.54 113.303 1174.89 112.611 1175.25 112.238C1175.7 111.795 1176.3 111.568 1176.94 111.563C1177.04 110.501 1177.07 109.443 1177.01 108.39C1176.73 109.047 1176.25 109.619 1175.62 109.816C1175.52 109.821 1175.46 109.825 1175.39 109.733C1174.95 109.279 1174.93 108.448 1175.09 107.894C1175.34 107.144 1175.94 106.596 1176.66 106.298C1176.73 106.294 1176.76 106.292 1176.82 106.289C1176.65 104.955 1176.38 103.594 1176.07 102.236C1175.99 102.945 1175.51 103.581 1174.79 103.911C1174.67 103.95 1174.51 103.928 1174.47 103.802C1174.24 103.271 1174.08 102.705 1174.37 102.144C1174.66 101.583 1175.22 101.294 1175.74 101.007C1175.45 99.8401 1175.13 98.6749 1174.8 97.5097C1174.62 98.1288 1174.2 98.6653 1173.58 98.9897C1173.48 99.0272 1173.35 99.0028 1173.29 98.9427C1172.98 98.5768 1172.97 97.9052 1173.07 97.4831C1173.19 96.8039 1173.75 96.4195 1174.34 96.0969C1174.34 96.0969 1174.37 96.0951 1174.4 96.0932C1174.03 94.7066 1173.63 93.3538 1173.33 91.9954C1173.05 92.7795 1172.38 93.331 1171.56 93.539C1171.47 93.5446 1171.34 93.5201 1171.3 93.4263C1171.08 92.9591 1171.26 92.2444 1171.53 91.8448C1171.85 91.314 1172.44 91.119 1173.04 90.956C1173.04 90.956 1173.08 90.9541 1173.11 90.9522C1172.81 89.6257 1172.6 88.2936 1172.46 86.9897C1172.44 86.6707 1172.91 86.5789 1172.93 86.8979V86.8979Z" fill="#D1636E"/>
<path fill-rule="evenodd" clip-rule="evenodd" d="M1159.38 134.225C1160.49 134.032 1162.06 134.644 1163.14 134.966C1163.24 135.056 1163.4 134.982 1163.42 134.885C1163.42 134.885 1163.42 134.885 1163.42 134.821C1163.34 133.418 1163.16 132.052 1162.98 130.654C1163.3 130.635 1163.64 130.392 1163.75 130.097C1163.92 129.671 1163.7 129.172 1163.33 128.938C1163.2 128.849 1163.1 128.823 1162.85 128.838C1162.46 128.86 1162.09 129.106 1161.99 129.528C1161.89 129.982 1162.14 130.479 1162.6 130.613C1162.6 130.613 1162.63 130.611 1162.66 130.609C1162.77 131.403 1162.88 132.196 1162.96 132.992C1162.98 133.343 1163.1 133.72 1163.06 134.074C1163.06 134.138 1163.06 134.202 1163.07 134.266C1162.41 133.376 1161.69 132.554 1160.87 131.77C1160.93 131.702 1160.96 131.637 1160.99 131.571C1161.13 131.211 1161.01 130.802 1160.74 130.53C1160.5 130.319 1160.21 130.273 1159.93 130.353C1159.61 130.436 1159.34 130.676 1159.26 131.032C1159.16 131.486 1159.41 131.983 1159.87 132.117C1160.13 132.197 1160.45 132.147 1160.66 131.974C1161.47 132.759 1162.23 133.611 1162.89 134.5C1162.79 134.506 1162.66 134.449 1162.47 134.397C1161.52 134.164 1160.31 133.691 1159.3 133.878C1159.26 133.816 1159.23 133.722 1159.16 133.662C1159.09 133.57 1159.02 133.51 1158.92 133.452C1158.92 133.452 1158.82 133.394 1158.73 133.4C1158.66 133.403 1158.57 133.409 1158.54 133.411C1158.41 133.418 1158.31 133.424 1158.19 133.463C1157.9 133.544 1157.66 133.782 1157.58 134.107C1157.48 134.561 1157.74 135.058 1158.19 135.191C1158.65 135.325 1159.15 135.071 1159.31 134.646C1159.37 134.514 1159.39 134.353 1159.35 134.195L1159.38 134.225Z" fill="#D1636E"/>
<path fill-rule="evenodd" clip-rule="evenodd" d="M1155.53 148.821C1155.95 148.796 1156.25 148.459 1156.22 148.044C1156.2 147.63 1155.86 147.329 1155.45 147.354C1155.03 147.378 1154.73 147.715 1154.76 148.13C1154.78 148.545 1155.12 148.845 1155.53 148.821Z" fill="#D1636E"/>
<path fill-rule="evenodd" clip-rule="evenodd" d="M1155.47 111.091C1155.88 111.067 1156.18 110.729 1156.16 110.315C1156.13 109.9 1155.8 109.6 1155.38 109.624C1154.97 109.648 1154.67 109.986 1154.69 110.401C1154.72 110.815 1155.05 111.115 1155.47 111.091Z" fill="#D1636E"/>
<path fill-rule="evenodd" clip-rule="evenodd" d="M1157.73 147.06C1158.15 147.036 1158.45 146.698 1158.42 146.283C1158.4 145.869 1158.06 145.569 1157.65 145.593C1157.23 145.617 1156.93 145.955 1156.96 146.369C1156.98 146.784 1157.32 147.084 1157.73 147.06Z" fill="#D1636E"/>
<path fill-rule="evenodd" clip-rule="evenodd" d="M1169.36 120.936C1169.77 120.912 1170.07 120.574 1170.05 120.159C1170.02 119.745 1169.69 119.444 1169.27 119.469C1168.86 119.493 1168.56 119.831 1168.58 120.245C1168.61 120.66 1168.94 120.96 1169.36 120.936Z" fill="#D1636E"/>
<path fill-rule="evenodd" clip-rule="evenodd" d="M1157.71 149.301C1158.12 149.277 1158.42 148.939 1158.4 148.525C1158.37 148.11 1158.03 147.81 1157.62 147.834C1157.21 147.858 1156.91 148.196 1156.93 148.611C1156.95 149.025 1157.29 149.326 1157.71 149.301Z" fill="#D1636E"/>
</g>
<path fill-rule="evenodd" clip-rule="evenodd" d="M1027.23 307.349C1028.86 307.28 1030.47 307.696 1031.86 308.543C1033.26 309.39 1034.37 310.631 1035.05 312.109C1035.74 313.587 1035.97 315.236 1035.72 316.846C1035.47 318.456 1034.75 319.956 1033.65 321.156C1032.55 322.356 1031.11 323.203 1029.53 323.588C1027.94 323.973 1026.28 323.88 1024.75 323.321C1023.22 322.761 1021.89 321.76 1020.93 320.445C1019.97 319.129 1019.42 317.558 1019.35 315.93C1019.3 314.849 1019.47 313.769 1019.84 312.753C1020.21 311.736 1020.78 310.803 1021.51 310.007C1022.25 309.21 1023.13 308.565 1024.11 308.109C1025.09 307.653 1026.15 307.395 1027.23 307.349V307.349Z" fill="#A7CD7A"/>
</g>
</g>
<defs>
<clipPath id="clip0_405_4853">
<rect width="1440" height="369" fill="white"/>
</clipPath>
<clipPath id="clip1_405_4853">
<rect width="1440" height="1154" fill="white" transform="translate(0 -75)"/>
</clipPath>
</defs>
</svg>
