<svg width="1440" height="581" viewBox="0 0 1440 581" fill="none" xmlns="http://www.w3.org/2000/svg">
<g clip-path="url(#clip0_182_4925)">
<path fill-rule="evenodd" clip-rule="evenodd" d="M718.877 312.892C714.798 301.609 712.094 292.199 710.47 284.645C706.7 268.312 708.156 259.157 724.096 252.083C739.738 244.991 842.165 198.79 849.599 189.406C829.835 181.037 820.7 150.062 815.385 129.758C809.324 107.023 813.738 103.119 828.82 124.618C837.58 137.381 857.082 159.748 879.144 164.678C882.969 165.509 884.976 166.825 888.353 165.243C899.375 160.551 886.687 138.9 875.358 119.42C863.767 99.3274 863.253 88.263 887.484 106.447C901.161 116.827 934.273 140.923 961.012 176.555C961.903 176.61 962.832 176.071 963.723 176.125C981.766 173.653 1004.51 172.364 1027.68 173.784C1074.62 176.662 1096.46 175.317 1055.67 213.37C1054.7 214.503 1053.46 215.322 1052.5 216.455C1082.52 222.769 1139.79 217.633 1183.49 229.555C1314.9 265.045 1365.88 294.41 1523.47 272.464C1563.77 266.884 1619.43 258.964 1670.91 260.629C1681.92 261.006 1794.69 279.549 1859.48 292.765C1899.54 300.886 1914.74 300.923 1934 341.763C1951.69 379.226 1952.47 429.667 1952.33 485.42C1952.16 541.766 1946.7 601.665 1949.3 656.393C1949.99 669.555 1953.74 686.185 1956.58 698.286L1956.87 698.305C1960.91 700.639 1964.88 703.865 1967.11 706.387C1975.44 716.44 1981.66 731.73 1986.15 741.249C1994.02 758.728 1994.95 855.398 1977.6 861.192C1975.17 861.938 1966.02 845.871 1957.27 828.04C1953.03 819.43 1952.95 815.847 1952.34 806.268C1951.49 791.009 1952.45 775.264 1955.59 762.933C1956.74 758.828 1947.68 775.27 1946.26 793.67C1945.93 799.017 1945.06 803.437 1944.75 803.715C1944.12 804.273 1942.83 800.914 1941.58 796.961C1939.1 788.758 1939 780.701 1939.83 772.104C1941.64 752.237 1940.96 724.464 1936.27 703.602C1933.65 697.775 1931.15 689.869 1929.11 679.308C1925.42 661.787 1923.05 637.19 1922.45 603.16C1921.38 528.25 1924.84 476.578 1917.73 407.857C1915.27 384.746 1904.08 358.118 1903.85 400.744C1903.07 476.734 1872.62 569.69 1869.1 607.643C1861.94 690.397 1903.95 690.886 1895.05 763.097C1890.35 800.977 1872.37 846.094 1856.61 894.03C1842.48 939.681 1851.68 1037.75 1789.09 1037.19C1771.21 1036.99 1775.01 1028.58 1779.21 1013.63C1805.25 919.507 1806.77 841.178 1777.71 755.904C1761.56 708.098 1761.77 728.984 1750.87 756.047C1745.55 769.736 1737.77 784.765 1727.17 797.235C1704.01 824.74 1662.24 888.376 1661.19 924.988C1660.11 971.738 1635.58 1011.98 1604.69 1010.09C1580.03 1008.57 1606.05 875.985 1623.4 792.364C1563.13 788.073 1504.38 744.514 1502.57 720.548C1478.25 728.004 1454.17 736.665 1427.64 741.301C1375.83 749.754 1334.08 720.656 1331.42 778.639C1330.01 811.353 1316.37 839.441 1313.5 861.927C1309.67 890.318 1308.24 942.712 1302.87 962.36C1294.77 992.279 1276.64 1001.01 1260.82 1001.23C1240.23 1001.46 1246.25 981.253 1247.06 963.114C1248.65 927.429 1243.38 833.475 1235.45 787.665C1224.27 721.975 1223.93 751.773 1212.18 792.798C1206.89 810.961 1200.43 857.977 1192.98 872.43C1181.96 925.726 1163.86 968.151 1148.24 979.717C1140.11 985.779 1119.19 986.584 1103.85 983.854C1086.14 980.979 1091.36 968.776 1096.3 956.257C1102.67 939.949 1112.18 916.08 1118.03 888.708C1132.46 823.693 1135.44 740.98 1116.91 707.64C1094.12 665.988 1041.37 646.055 1013.78 570.712C964.757 436.505 965.946 436.578 908.454 362.682C825.867 372.23 836.842 343.978 800.466 339.065C763.217 333.799 728.472 341.211 718.58 312.874L718.877 312.892Z" fill="white"/>
<path fill-rule="evenodd" clip-rule="evenodd" d="M718.866 312.89C714.787 301.607 712.083 292.197 710.459 284.643L710.495 284.049C707.004 268.031 708.442 259.173 724.084 252.081C727.146 250.778 733.585 247.893 741.88 243.929C754.974 249.204 770.021 256.687 780.963 263.023C811.209 280.383 797.64 297.442 777.791 295.331C768.6 294.469 761.761 289.279 762.093 303.314C762.214 311.074 775.284 326.487 750.936 334.536L750.044 334.481C748.558 334.39 746.777 334.281 745.291 334.19C745.291 334.19 743.508 334.081 742.951 333.45C742.951 333.45 742.357 333.414 742.06 333.396L741.763 333.377L740.871 333.323L740.278 333.286L739.683 333.25L739.089 333.213C739.089 333.213 738.496 333.177 738.514 332.88L737.919 332.843L737.343 332.51L736.75 332.473L736.173 332.14C736.173 332.14 735.876 332.122 735.579 332.103L735.281 332.085C735.281 332.085 734.706 331.752 734.725 331.455L734.427 331.437C734.427 331.437 733.851 331.103 733.572 330.788C733.572 330.788 732.997 330.454 733.015 330.157L732.718 330.139C732.718 330.139 732.141 329.806 731.862 329.49C731.862 329.49 731.287 329.157 731.008 328.841C731.008 328.841 730.45 328.211 730.153 328.193C730.153 328.193 729.596 327.562 729.299 327.544C729.299 327.544 728.74 326.913 728.443 326.895C728.443 326.895 727.887 326.265 727.905 325.968C727.905 325.968 727.347 325.337 727.365 325.04C727.365 325.04 726.807 324.409 726.825 324.112C726.825 324.112 726.268 323.482 726.286 323.185C726.286 323.185 726.025 322.572 725.746 322.257C725.746 322.257 725.188 321.626 725.206 321.329C725.206 321.329 724.947 320.717 724.668 320.402C724.686 320.105 724.407 319.789 724.128 319.474C724.146 319.177 723.867 318.862 723.606 318.249C723.624 317.952 723.363 317.34 723.084 317.025C723.084 317.025 722.843 316.115 722.564 315.8C722.564 315.8 722.321 314.891 722.042 314.575L718.866 312.89ZM724.225 322.76L723.685 321.832C723.685 321.832 724.243 322.463 724.225 322.76Z" fill="#E7868C"/>
<path fill-rule="evenodd" clip-rule="evenodd" d="M1139.77 222.699C1154.9 223.925 1169.68 226.024 1183.16 229.832C1314.58 265.321 1365.56 294.687 1523.15 272.741C1563.45 267.161 1619.1 259.241 1670.58 260.906C1676.23 261.252 1707.85 265.875 1746.21 272.401C1792.63 366.492 1748.71 406.738 1700.5 410.045C1664.86 412.63 1629.76 386.922 1612.01 384.641C1565.31 377.901 1617.65 511.418 1543.34 546.521C1465.65 583.206 1343 453.43 1323.7 505.622C1302.23 563.944 1173.2 596.587 1155.6 499.491C1151.6 477.181 1007.44 464.765 1115.77 370.917C1158.28 334.163 1163.3 325.227 1143.68 265.878C1138.41 249.75 1137.5 235.382 1140.07 222.717L1139.77 222.699Z" fill="#D7B46A"/>
<mask id="mask0_182_4925" style="mask-type:alpha" maskUnits="userSpaceOnUse" x="1075" y="222" width="691" height="340">
<path fill-rule="evenodd" clip-rule="evenodd" d="M1139.77 222.699C1154.9 223.925 1169.68 226.024 1183.16 229.832C1314.58 265.321 1365.56 294.687 1523.15 272.741C1563.45 267.161 1619.1 259.241 1670.58 260.906C1676.23 261.252 1707.85 265.875 1746.21 272.401C1792.63 366.492 1748.71 406.738 1700.5 410.045C1664.86 412.63 1629.76 386.922 1612.01 384.641C1565.31 377.901 1617.65 511.418 1543.34 546.521C1465.65 583.206 1343 453.43 1323.7 505.622C1302.23 563.944 1173.2 596.587 1155.6 499.491C1151.6 477.181 1007.44 464.765 1115.77 370.917C1158.28 334.163 1163.3 325.227 1143.68 265.878C1138.41 249.75 1137.5 235.382 1140.07 222.717L1139.77 222.699Z" fill="#D7B46A"/>
</mask>
<g mask="url(#mask0_182_4925)">
<path fill-rule="evenodd" clip-rule="evenodd" d="M1136.88 459.58C1134.87 458.265 1132.6 456.336 1133.36 453.699C1134.07 451.953 1135.94 450.577 1137.72 450.687C1139.5 450.796 1141.83 451.833 1143.27 452.518C1148.74 455.835 1153.29 459.394 1157.19 463.808C1160.54 467.591 1163.27 471.635 1165.95 476.57C1168.15 469.847 1170.36 463.124 1172.26 456.382C1162.8 450.137 1153.38 443.297 1144.5 437.385C1142.49 436.07 1140.54 433.863 1141.6 431.244C1142.3 429.498 1144.45 428.437 1146.22 428.843C1148 428.953 1150.01 430.269 1151.45 430.954C1156.6 434.549 1160.56 438.072 1164.17 442.468C1167.22 446.233 1170.25 450.295 1172.61 455.509C1174.13 450.235 1175.63 445.258 1177.14 439.983C1168.41 431.695 1159.04 423.964 1149.58 417.719C1147.57 416.403 1145.33 414.178 1146.08 411.54C1146.79 409.794 1148.94 408.734 1150.72 408.843C1152.5 408.952 1155.11 410.304 1156.54 411.287C1161.96 415.198 1166.48 419.351 1170.05 424.341C1173.08 428.403 1175.48 433.023 1177.55 438.219C1179.4 432.368 1180.97 426.203 1182.54 420.037C1174.12 411.47 1165.05 403.758 1155.56 398.107C1153.55 396.791 1151.28 394.862 1152.06 391.928C1152.76 390.182 1154.62 389.103 1156.4 389.213C1158.18 389.322 1160.8 390.377 1162.23 391.359C1167.97 394.991 1172.49 399.144 1176.06 404.134C1179.09 408.197 1181.49 412.817 1182.96 417.976C1184.48 412.702 1185.7 407.409 1186.94 401.819C1186.95 401.522 1186.99 400.928 1187.01 400.631C1177.42 391.694 1167.55 382.441 1157.57 374.971C1155.58 373.358 1153.05 370.818 1154.41 368.217C1155.11 366.471 1157.54 365.726 1159.31 366.132C1161.09 366.241 1163.67 367.891 1165.08 369.17C1170.77 373.693 1175.27 378.144 1178.82 383.431C1182.11 388.105 1184.79 393.04 1187.1 399.146C1188.34 393.556 1189.55 388.263 1190.79 382.674C1187.2 377.981 1183.6 373.585 1179.69 369.171C1175.23 364.127 1170.45 359.361 1165.64 355.19C1163.65 353.577 1161.44 350.757 1162.79 348.157C1163.79 346.429 1165.93 345.665 1167.69 346.071C1169.46 346.478 1172.04 348.127 1173.45 349.406C1178.82 354.208 1182.99 359.235 1186.2 365.097C1188.62 369.42 1190.43 374.004 1191.61 379.145C1193.23 372.089 1194.58 364.716 1195.9 357.641C1192.63 352.67 1189.36 347.698 1185.75 343.302C1181.31 337.961 1176.86 332.619 1171.77 328.132C1169.8 326.222 1167.57 323.7 1168.92 321.099C1169.92 319.372 1172.04 318.905 1174.1 319.33C1174.99 319.384 1176.13 320.348 1177.28 321.015C1178.43 321.682 1179.27 322.628 1180.12 323.277C1185.47 328.376 1189.6 333.996 1192.51 340.138C1194.65 344.146 1195.86 348.693 1197.05 353.537C1198.34 347.056 1199.34 340.557 1200.33 334.058C1194.68 324.169 1187.78 315.099 1180.16 308.072C1178.47 306.477 1176.52 304.27 1177.87 301.669C1178.87 299.941 1181 299.178 1182.77 299.584C1183.66 299.639 1184.51 300.288 1185.66 300.955C1186.52 301.603 1187.37 302.252 1188.23 302.901C1193.01 307.666 1196.58 312.656 1198.62 318.149C1199.93 321.211 1200.64 324.237 1201.33 327.559C1202.34 320.763 1203.36 313.967 1204.37 307.17C1198.71 297.282 1191.81 288.211 1184.19 281.184C1182.5 279.589 1180.85 277.401 1182.2 274.8C1183.2 273.072 1185.33 272.308 1187.1 272.715C1187.99 272.769 1188.84 273.418 1189.7 274.067C1190.55 274.716 1191.41 275.364 1191.97 275.995C1196.46 280.445 1199.74 285.417 1202.1 290.631C1203.66 294.305 1204.6 298.537 1204.94 302.732C1205.6 296.809 1206.56 290.904 1207.2 285.278C1201.53 275.687 1197.43 264.701 1194.8 254.103C1194.33 251.987 1194.23 248.701 1196.98 247.677C1198.82 246.895 1200.84 247.913 1201.98 248.877C1203.09 250.139 1203.86 252.273 1204.36 253.794C1206.82 262.295 1207.85 269.812 1207.9 278.761C1208.14 274.899 1208.67 271.055 1209.18 267.509C1206.4 254.516 1205.77 240.463 1206.87 227.41C1207.04 224.736 1208.14 221.226 1211.75 220.85C1214.14 220.699 1216.13 222.312 1216.91 224.149C1217.69 225.986 1217.83 228.678 1217.72 230.46C1216.93 243.234 1215.11 253.559 1210.74 266.411C1210.61 268.491 1210.5 270.273 1210.38 272.353C1212.72 263.253 1216.54 254.541 1220.91 246.46C1221.93 244.435 1224.16 242.186 1226.77 243.241C1228.52 243.945 1229.6 245.8 1229.79 247.6C1229.68 249.383 1228.96 251.426 1228.27 252.875C1223.2 262.702 1218.28 269.856 1210.01 278.294C1209.15 287.485 1207.99 296.658 1206.85 305.534C1208.65 300.574 1211.06 295.355 1214.04 290.468C1217.67 284.727 1222.16 279.635 1227.18 275.47C1229.07 273.797 1232.17 271.9 1234.42 274.125C1235.84 275.405 1235.99 277.799 1235.3 279.248C1234.62 280.697 1233 282.685 1231.74 283.801C1227.31 288.002 1223.49 291.942 1219.37 295.865C1215.57 299.508 1211.16 303.412 1206.71 307.91C1206.06 313.536 1205.12 319.144 1204.18 324.752C1208.37 314.87 1215.52 305.171 1223.44 297.605C1225.33 295.932 1228.13 294.016 1230.4 295.944C1231.81 297.224 1232.28 299.339 1231.58 301.085C1230.87 302.831 1229.58 304.541 1228.32 305.657C1220.34 314.113 1213.41 320.248 1203.69 328.001C1202.32 335.671 1201.24 343.655 1199.57 351.306C1201.11 345.735 1203.85 339.939 1207.44 334.792C1211.37 329.069 1216.44 324.311 1221.76 320.164C1223.95 318.509 1227.31 317.224 1229.26 319.431C1230.65 321.007 1230.53 323.087 1229.53 324.815C1228.54 326.245 1226.95 327.937 1225.69 329.052C1220.98 332.938 1216.88 336.563 1212.78 340.188C1208.68 343.813 1204.27 347.717 1199.5 352.494C1199.36 354.871 1198.62 357.211 1198.17 359.569C1198.15 359.866 1198.14 360.164 1198.1 360.758C1198.1 360.758 1198.1 360.758 1198.12 360.461C1197.25 364.88 1196.4 369.003 1195.53 373.422C1197.68 367.59 1201.03 361.534 1205.52 356.442C1210.36 350.476 1216.35 345.178 1222.55 341.383C1225.03 339.747 1228.98 338.498 1230.64 340.687C1231.74 342.245 1231.29 344.603 1230.31 346.034C1229.33 347.465 1227.12 349.417 1225.57 350.514C1219.96 354.345 1214.96 358.213 1210.23 362.396C1205.52 366.281 1200.49 370.446 1195.09 375.781C1194.61 378.733 1193.84 381.667 1193.06 384.602L1193.02 385.196C1192.23 388.427 1191.75 391.38 1190.96 394.611C1193.62 390.004 1196.89 385.433 1201.02 381.213C1206.73 375.6 1213.58 370.95 1220.65 367.507C1223.71 366.204 1227.64 365.252 1229.26 368.035C1230.36 369.594 1229.32 371.916 1228.04 373.328C1227.41 373.886 1226.47 374.722 1225.24 375.244C1224.31 375.783 1223.07 376.601 1222.46 376.862C1216 380.044 1210.72 383.597 1205.13 387.131C1200.16 390.404 1195.17 393.975 1190.11 398.734C1190.03 399.922 1189.66 401.092 1189.29 402.262C1188.11 406.961 1186.93 411.659 1186.04 416.376C1189.04 411.192 1193.23 406.082 1198.26 401.917C1203.62 397.177 1210.11 393.4 1216.25 390.496C1219 389.472 1222.62 388.799 1223.98 390.97C1225.08 392.528 1224.34 394.868 1223.06 396.281C1221.78 397.693 1219.61 399.051 1218.09 399.554C1212.24 402.476 1207.3 405.155 1202.05 408.114C1197.12 410.793 1191.87 413.751 1185.97 417.564C1184.79 422.262 1183.6 426.961 1182.42 431.659C1190.36 423.797 1201.44 418.214 1212.09 414.692C1214.22 413.929 1217.51 413.832 1218.53 416.578C1219.31 418.415 1218.59 420.458 1217.63 421.592C1216.37 422.708 1214.51 423.786 1212.99 424.29C1202.62 428.126 1194.15 429.993 1182.09 432.235C1180.52 438.401 1178.96 444.269 1177.1 450.417C1185.31 442.87 1196.67 437.602 1207.84 435.305C1210.26 434.857 1213.52 435.057 1214.55 437.804C1215.03 439.622 1214.31 441.665 1213.05 442.781C1211.79 443.896 1209.65 444.66 1208.15 444.866C1202.69 446.321 1197.55 447.496 1192.41 448.672C1187.59 449.569 1182.74 450.763 1177.01 451.902C1175.47 457.474 1173.62 463.324 1172.09 468.896C1175.58 465.531 1179.92 462.815 1184.81 460.73C1190.64 458.106 1196.99 456.705 1202.98 456.179C1205.38 456.027 1208.93 456.543 1209.34 459.55C1209.53 461.351 1208.51 463.375 1206.97 464.176C1205.72 464.994 1203.31 465.442 1201.81 465.648C1196.39 466.509 1191.28 467.09 1186.46 467.987C1181.93 468.902 1177.12 469.502 1171.66 470.957C1169.8 477.104 1167.93 483.252 1165.76 489.381C1169.86 485.756 1174.83 482.482 1180.05 480.118C1185.56 477.772 1191.61 476.354 1197.31 475.809C1199.7 475.658 1202.66 476.137 1203.36 479.162C1203.55 480.963 1202.53 482.988 1201.29 483.806C1200.05 484.624 1197.93 485.091 1196.43 485.297C1185.9 486.739 1177.48 488.012 1165.76 489.381C1164.32 493.467 1163.17 497.571 1161.73 501.657C1164.94 497.978 1169.3 494.965 1174.49 492.898C1180.6 490.588 1187.21 489.801 1193.41 490.777C1194.6 490.85 1196.05 491.536 1197.2 492.202C1198.33 493.167 1198.87 494.094 1198.78 495.58C1198.67 497.362 1196.78 499.035 1195.26 499.538C1194.66 499.502 1193.74 500.041 1192.84 499.986C1191.95 499.932 1191.06 499.877 1190.47 499.841C1185.42 499.531 1180.63 499.834 1175.82 500.434C1173.43 500.585 1171.01 501.034 1168.29 501.761C1166.17 502.228 1163.74 502.973 1161.31 503.719C1159.51 508.678 1157.72 513.637 1155.92 518.596C1162.8 513.352 1172.23 510.352 1180.9 509.989C1182.98 510.116 1185.34 510.559 1185.75 513.566C1185.94 515.367 1184.92 517.392 1183.97 518.228C1183.03 519.065 1181.21 519.55 1180.02 519.477C1175.83 519.816 1171.93 520.174 1167.75 520.216C1164.17 520.294 1159.99 520.336 1155.53 520.063C1152.31 528.811 1148.8 537.541 1145 545.956C1144.33 547.108 1141.99 546.368 1142.68 544.919C1146.58 534.722 1150.17 524.804 1153.78 514.588C1145.02 511.665 1136.53 509.058 1128.54 507.972C1126.76 507.863 1124.74 506.844 1124.62 503.855C1124.73 502.073 1125.75 500.048 1127.27 499.545C1128.5 499.024 1130.89 498.872 1132.06 499.242C1137.07 500.146 1141.74 501.922 1145.45 504.536C1148.89 506.834 1151.7 509.69 1154.45 513.437C1156.6 507.604 1158.43 502.051 1160.57 496.219C1151.21 493.26 1142.2 489.428 1133.75 486.226C1132.01 485.522 1129.72 483.891 1130.48 481.254C1130.59 479.471 1132.48 477.798 1133.98 477.592C1135.49 477.386 1137.55 477.811 1139 478.496C1148.02 482.031 1154.88 486.925 1161.24 495.067C1163.05 489.811 1164.88 484.258 1166.7 479.001C1157.26 472.459 1147.52 465.899 1138.01 460.544L1136.88 459.58Z" fill="#B28100"/>
<path fill-rule="evenodd" clip-rule="evenodd" d="M1374.49 591.931C1375.92 578.303 1378.28 564.134 1381.24 550.002C1381.52 550.318 1382.07 550.948 1382.67 550.985C1389.97 553.519 1398.06 552.823 1404.61 548.155C1408.34 545.7 1415.63 538.692 1413.87 533.218C1411.86 527.131 1400.97 529.742 1396.46 530.36C1392.24 530.997 1388.27 532.542 1384.84 535.016C1388.04 521.793 1391.84 508.31 1395.37 494.512C1395.37 494.512 1395.93 495.142 1396.21 495.458C1401.93 499.387 1409.01 500.715 1415.67 499.036C1420.52 497.842 1430.66 492.799 1430.45 486.524C1430.26 479.952 1419.25 479.576 1414.81 479.005C1408.87 478.641 1403.47 479.204 1398.53 481.884C1402.36 468.104 1406.19 454.323 1409.72 440.525C1409.72 440.525 1410.31 440.561 1410.59 440.877C1418.5 443.151 1425.85 440.023 1431.8 435.319C1435.55 432.567 1442.1 427.899 1437.64 422.855C1433.73 418.441 1425.08 418.507 1419.94 419.682C1417.82 420.149 1415.99 420.931 1414.45 421.731C1417.68 407.914 1420.32 394.062 1422.36 380.172C1435.37 377.093 1444.72 365.739 1445.83 352.389C1445.89 351.498 1445.05 350.552 1444.47 350.218C1436.36 346.44 1429.53 350.793 1424.94 357.668C1425.72 344.894 1425.91 332.083 1424.59 319.479L1425.19 319.515C1437.73 314.321 1443.75 303.657 1444.85 290.604C1444.9 289.713 1444.09 288.47 1443.21 288.118C1437.1 285.656 1431.29 287.984 1427.14 292.5C1425.23 294.47 1423.3 296.738 1421.65 299.32C1419.13 286.94 1415.41 274.784 1409.9 262.519C1418.8 253.523 1420.15 241.082 1416.41 229.223C1415.89 227.998 1414.75 227.034 1413.55 227.259C1406.99 227.155 1402.51 232.247 1400.36 238.079C1399.99 239.25 1399.3 240.698 1398.92 242.166C1397.56 239.995 1396.18 238.122 1394.83 235.951C1397.73 227.482 1398.89 218.309 1397.63 209.585C1396.77 204.165 1392.88 194.682 1385.74 199.314C1380.77 202.587 1379.4 210.256 1379.37 215.622C1379.12 224.552 1383.12 232.252 1389.94 237.739C1392.42 241.171 1394.58 244.881 1396.73 248.592C1392.96 246.87 1388.86 245.724 1384.7 245.469C1380.84 245.232 1371.66 244.073 1370.76 249.087C1369.47 255.568 1378.56 262.983 1383.5 265.075C1390.46 268.186 1398.26 267.471 1405 264.604C1409.98 275.644 1413.47 286.891 1416.04 298.38C1412.92 295.803 1409.47 293.802 1405.7 292.08C1401.91 290.655 1395.52 287.878 1394.28 293.468C1392.71 299.633 1396.71 307.333 1400.63 311.45C1405.69 316.531 1412.41 318.732 1419.25 319.151C1420.32 330.846 1420.5 342.486 1419.79 354.072C1416.64 347.021 1411.38 340.436 1404.66 338.235C1403.77 338.18 1402.86 338.423 1402.22 338.981C1397.16 343.739 1397.19 352.985 1398.89 359.351C1401.35 367.851 1408.15 373.635 1415.99 377.098C1416.59 377.134 1417.18 377.171 1417.77 377.207C1415.97 392.006 1412.98 406.732 1409.38 421.719C1408.37 413.904 1403.42 407.04 1395.6 403.281C1394.45 402.614 1392.63 403.099 1391.94 404.548C1389.48 410.659 1387.91 416.824 1390.82 422.966C1394.02 429.126 1400.07 432.479 1406.15 435.535C1402.97 448.46 1399.21 461.052 1395.74 473.959C1393.76 467.278 1389.06 461.324 1382.43 457.638C1381.57 456.989 1380.05 457.492 1379.11 458.329C1375.58 462.287 1375.72 469.751 1376.62 474.576C1377.95 482.113 1384.24 486.375 1390.3 489.728C1390.3 489.728 1390.89 489.764 1391.19 489.783C1386.98 505.03 1382.78 519.98 1379.2 534.67C1376.14 526.133 1368.78 519.718 1359.66 517.668C1358.47 517.596 1357.25 518.117 1356.6 518.972C1354.21 523.894 1356.39 532.079 1359.09 536.717C1362.61 542.598 1369.33 544.8 1375.48 546.668L1376.07 546.704C1372.79 561.412 1370.41 575.877 1368.94 590.1C1368.74 593.368 1373.73 594.569 1374.23 591.319L1374.49 591.931Z" fill="#B28100"/>
<path fill-rule="evenodd" clip-rule="evenodd" d="M1371.39 360.348C1371.39 360.348 1370.61 358.511 1370.05 357.88C1369.79 357.268 1369.53 356.655 1368.97 356.025C1366.78 352.908 1364.56 350.089 1361.41 348.106C1359.7 346.809 1357.65 346.087 1355.85 346.275C1358.36 349.113 1360.54 352.526 1362.44 355.624C1364.85 359.947 1367.25 364.567 1368.47 369.114C1368.45 369.411 1368.13 369.69 1367.87 369.078C1365.75 364.773 1364.24 360.208 1361.51 356.164C1359.05 352.435 1356.58 349.003 1354.09 345.869C1353.79 345.85 1353.2 345.814 1352.88 346.093C1351.75 349.9 1350.9 354.023 1350.65 358.182C1350.36 362.935 1350.98 367.445 1351 371.92C1350.98 372.217 1350.39 372.18 1350.41 371.883C1347.58 364.553 1348.46 355.065 1350.73 347.154C1349.78 347.99 1348.82 349.124 1347.84 350.554C1341.17 362.073 1345.44 375.157 1350.41 386.494C1352.04 384.209 1353.39 381.608 1355.02 379.323C1355.06 378.728 1355.95 378.783 1356.23 379.098C1357.95 380.099 1360.52 382.045 1362.6 382.173C1364.97 382.318 1365.86 377.602 1366.88 375.577C1366.91 374.983 1367.53 374.722 1368.1 375.056C1370.41 376.39 1372.71 377.723 1374.74 378.742C1374.24 372.152 1373.44 365.841 1370.83 359.717L1371.39 360.348ZM1292.25 440.181C1292.25 440.181 1289.54 440.611 1288.02 441.114C1275.75 446.624 1271.68 459.495 1268.86 471.547C1271.6 470.523 1274.05 469.48 1276.8 468.456C1277.39 468.492 1277.69 468.51 1277.97 468.826C1279.05 470.681 1279.74 474.003 1281.47 475.004C1283.47 476.32 1286.94 473.252 1288.8 472.173C1289.41 471.913 1289.98 472.246 1290.26 472.561C1291.3 475.011 1292.37 477.163 1293.41 479.612C1296.74 473.853 1300.06 468.391 1301.65 461.928C1301.7 461.037 1301.76 460.146 1301.83 458.958C1301.87 458.363 1301.92 457.472 1301.96 456.878C1302.18 453.313 1301.8 449.712 1300.53 446.056C1299.77 443.922 1298.67 442.364 1297.24 441.381C1297.6 445.28 1297.36 449.142 1296.85 452.688C1296.56 457.442 1295.63 462.752 1293.58 467.099C1293.56 467.396 1292.99 467.063 1292.99 467.063C1293.87 462.346 1295.04 457.944 1295.34 452.894C1295.6 448.735 1295.57 444.261 1295.24 440.066C1294.94 440.047 1294.35 440.011 1294.07 439.696C1290.93 442.187 1288.08 444.994 1285.2 448.098C1282.29 451.796 1280.25 455.846 1277.34 459.544C1277.32 459.841 1276.75 459.507 1276.77 459.21C1279.02 451.596 1285.12 444.515 1291.41 439.235L1292.25 440.181ZM1277.96 357.006C1274.55 359.182 1271.42 361.673 1268.54 364.777C1265.35 368.16 1262.72 372.173 1259.83 375.574C1259.81 375.871 1259.24 375.538 1259.25 375.241C1262.09 367.96 1268.76 361.213 1275.61 356.563C1274.42 356.49 1272.91 356.696 1271.39 357.199C1258.61 361.485 1253.65 374.3 1249.95 386.001C1252.68 385.274 1255.42 384.249 1258.15 383.522C1258.74 383.559 1259.04 383.577 1259.3 384.189C1260.08 386.026 1260.48 389.331 1262.19 390.628C1264.18 392.241 1267.94 389.192 1269.78 388.41C1270.37 388.446 1270.97 388.483 1271.24 388.798C1271.99 391.229 1273.03 393.678 1273.78 396.109C1277.69 390.684 1281.3 385.24 1283.17 379.092C1283.23 378.201 1283.58 377.328 1283.95 376.158C1283.98 375.564 1284.04 374.673 1284.37 374.097C1284.59 370.532 1284.81 366.967 1283.84 363.33C1283.37 361.214 1282.29 359.358 1280.86 358.376C1280.63 362.238 1280.39 366.1 1279.58 369.628C1278.69 374.345 1277.47 379.638 1275.12 383.966C1275.1 384.263 1274.52 383.93 1274.52 383.93C1275.71 379.231 1277.47 374.866 1278.05 370.131C1278.61 365.991 1278.88 361.535 1278.84 357.357C1278.54 357.339 1278.24 357.321 1277.67 356.987L1277.96 357.006ZM1268.56 413.085C1271.42 410.278 1274.55 407.786 1277.99 405.313C1278.28 405.331 1278.88 405.368 1279.15 405.683C1278.9 409.842 1278.63 414.298 1278.37 418.457C1277.78 423.192 1276.03 427.557 1274.84 432.255C1274.82 432.552 1275.4 432.886 1275.44 432.292C1277.79 427.963 1278.69 422.949 1279.89 417.954C1280.72 414.128 1280.96 410.267 1281.18 406.702C1282.59 407.981 1283.39 409.521 1284.16 411.655C1285.13 415.293 1285.21 418.876 1284.69 422.422C1284.65 423.017 1284.6 423.908 1284.26 424.484C1284.21 425.375 1283.86 426.248 1283.49 427.418C1281.32 433.547 1277.71 438.991 1274.1 444.435C1273.35 442.004 1272.31 439.555 1271.56 437.123C1271.6 436.529 1270.71 436.475 1270.09 436.735C1268.26 437.517 1264.49 440.566 1262.5 438.953C1260.79 437.656 1260.4 434.352 1259.62 432.515C1259.64 432.218 1259.06 431.884 1258.47 431.848C1255.74 432.575 1252.99 433.6 1250.56 434.345C1254.26 422.644 1259.22 409.828 1272.01 405.543C1273.53 405.04 1275.03 404.834 1276.22 404.907C1269.38 409.556 1262.7 416.304 1259.87 423.585C1259.85 423.882 1260.13 424.197 1260.44 423.918C1263.36 420.22 1265.97 416.504 1269.16 413.121L1268.56 413.085ZM1324.41 411.737C1314.61 420.679 1314.67 434.399 1316 446.706C1318.21 444.754 1320.4 443.099 1322.31 441.129C1322.62 440.85 1323.2 441.183 1323.49 441.202C1324.91 442.481 1326.8 445.579 1328.87 446.004C1331.21 446.744 1333.56 442.415 1334.84 441.003C1335.17 440.427 1335.76 440.463 1336.32 441.094C1338 442.985 1339.97 444.895 1341.64 446.787C1343.23 440.324 1344.22 433.825 1343.73 427.235C1343.79 426.344 1343.54 425.434 1343.3 424.525C1343.34 423.931 1343.1 423.021 1342.84 422.409C1341.85 419.068 1340.27 415.691 1338.07 412.575C1336.69 410.702 1334.97 409.701 1333.52 409.016C1335.08 412.69 1336.05 416.328 1337.02 419.965C1337.92 424.791 1339.09 429.932 1338.51 434.667C1338.49 434.964 1337.88 435.225 1337.91 434.631C1337.02 429.805 1336.99 425.331 1335.8 420.487C1334.57 416.236 1333.32 412.284 1331.77 408.312C1331.48 408.294 1330.88 408.258 1330.59 408.24C1328.29 411.677 1326.58 415.151 1324.86 418.921C1323.1 423.286 1322.53 427.724 1321.05 432.405C1321.03 432.702 1320.46 432.368 1320.46 432.368C1320.04 424.59 1323.56 415.86 1328.15 408.985C1326.93 409.506 1325.69 410.325 1324.42 411.44L1324.41 411.737ZM1375.44 381.768C1373.14 380.434 1370.54 379.081 1368.24 377.747C1367.2 380.069 1366.39 383.598 1363.95 384.343C1361.52 385.089 1358.38 382.809 1356.08 381.475L1351.13 389.223C1351.13 389.223 1349.91 389.744 1349.65 389.131C1344.97 377.812 1339.31 363.152 1345.68 351.615C1345.81 349.536 1345.94 347.456 1346.09 345.08C1346.25 342.406 1347.6 339.805 1349.79 338.151C1345.98 332.251 1342.46 326.37 1338.65 320.471C1333.72 313.31 1327.29 306.356 1322.67 298.917C1322.64 299.511 1322.62 299.808 1322.58 300.402C1320.88 318.487 1318.86 336.851 1315.95 355.16C1321.21 361.744 1324.56 370.299 1327.35 378.223C1329.93 384.941 1332.16 392.234 1333.19 399.752C1335.55 400.195 1337.8 402.42 1338.86 404.572C1339.9 407.022 1340.33 409.732 1340.47 412.424C1342.4 414.928 1343.7 417.989 1344.43 420.718C1345.23 422.258 1345.72 424.077 1345.61 425.859C1346.62 433.674 1344.68 441.009 1343.33 448.381C1343.29 448.976 1342.09 449.2 1341.83 448.587C1339.86 446.678 1337.9 444.471 1336.23 442.579C1334.62 444.567 1332.64 447.726 1329.96 447.562C1327.29 447.398 1325.08 444.579 1323.4 442.687C1321.2 444.639 1318.69 446.573 1316.47 448.822C1316.15 449.101 1314.98 448.731 1315 448.434C1313.67 436.127 1313.13 420.588 1322.35 411.313C1323.07 409.27 1323.79 407.227 1324.81 405.202C1326.16 402.601 1328.09 400.334 1330.82 399.606C1328.86 392.628 1327.48 385.983 1324.91 379.266C1322.34 372.548 1318.84 366.37 1315.64 360.21C1311.77 384.424 1306.99 408.88 1300.18 432.318C1302.49 433.652 1304.11 436.435 1304.24 439.127C1304.67 441.837 1303.91 444.474 1303.15 447.111C1304.16 450.155 1304.57 453.162 1304.39 456.133C1304.28 457.915 1304.17 459.697 1304.06 461.48C1302.4 469.131 1298.71 475.763 1294.75 482.08C1294.41 482.656 1293.54 482.304 1293.26 481.989C1292.22 479.54 1290.9 476.775 1289.86 474.325C1287.69 475.683 1284.87 477.896 1282.23 477.138C1279.89 476.398 1278.62 472.742 1277.58 470.293C1274.83 471.317 1271.77 472.62 1269.02 473.645C1268.43 473.608 1267.54 473.554 1267.89 472.681C1270.72 460.628 1274.91 445.678 1286.6 439.835C1287.9 438.125 1289.2 436.415 1290.79 434.724C1292.7 432.754 1295.17 431.414 1297.86 431.281C1302.09 410.965 1306.91 390.686 1310.56 370.037C1302.24 379.367 1294.49 389.03 1286.15 398.657C1287.54 400.233 1288.01 402.349 1288.19 404.15C1288.03 406.824 1287.57 409.479 1286.51 412.098C1287.22 415.123 1287.32 418.409 1286.84 421.362C1286.73 423.144 1286.62 424.926 1285.92 426.672C1283.68 433.99 1279.42 440.289 1274.86 446.569C1274.53 447.145 1273.67 446.496 1273.37 446.478C1272.35 443.732 1271.6 441.301 1270.58 438.554C1268.41 439.912 1265.31 441.809 1262.99 440.772C1260.67 439.736 1259.7 436.098 1258.95 433.667C1255.91 434.673 1253.18 435.4 1250.14 436.406C1249.54 436.37 1248.97 436.036 1249 435.442C1252.7 423.741 1258.07 409.161 1270.3 404.245C1271.89 402.554 1273.17 401.142 1274.77 399.45C1277.29 397.219 1280.65 395.934 1283.56 397.008C1283.56 397.008 1284.16 397.044 1284.44 397.359C1291.98 386.193 1300.97 375.711 1310.48 366.454C1310.48 366.454 1311.1 366.193 1311.41 365.914C1314.16 350.279 1316.29 334.904 1318.15 319.214C1307.1 329.271 1296.62 339.662 1286.4 350.665C1287.8 352.241 1288.27 354.357 1288.45 356.158C1288.29 358.831 1287.83 361.487 1286.77 364.106C1287.48 367.131 1287.58 370.417 1287.1 373.369C1286.99 375.152 1286.88 376.934 1286.18 378.68C1283.94 385.998 1279.68 392.297 1275.12 398.577C1274.79 399.153 1273.91 398.801 1273.63 398.486C1272.61 395.74 1271.86 393.308 1270.84 390.562C1268.67 391.92 1265.57 393.817 1263.25 392.78C1260.93 391.743 1259.96 388.106 1259.21 385.675C1256.17 386.681 1253.44 387.408 1250.39 388.414C1249.8 388.378 1249.21 388.341 1249.26 387.45C1252.96 375.749 1258.33 361.169 1270.56 356.253C1272.15 354.562 1273.43 353.149 1275.01 351.755C1277.53 349.524 1280.89 348.239 1283.8 349.313C1284.4 349.349 1284.68 349.664 1284.96 349.98C1295.24 337.788 1306.41 325.949 1318.67 315.668C1318.94 311.211 1319.49 307.071 1320.06 302.633C1321.09 290.769 1322.09 279.201 1322.82 267.318C1312.7 291.447 1288.86 310.561 1263.01 314.044C1261.52 313.953 1261 312.729 1261.67 311.577C1276.18 288.91 1297.23 271.414 1322.04 260.71C1322.33 260.728 1322.63 260.746 1322.93 260.764C1323.31 254.526 1323.67 248.585 1323.76 242.328C1323.8 241.734 1323.26 240.806 1323.31 239.915C1309.8 256.083 1286.1 263.278 1265.65 261.13C1264.76 261.075 1263.96 259.535 1264.89 258.996C1280.19 242.937 1300.31 225.981 1324.17 230.724C1324.63 208.686 1323.3 186.539 1322.87 164.447C1323 162.367 1326 161.955 1326.17 164.053C1327.86 180.259 1328.07 196.373 1327.96 212.767C1327.96 212.767 1328.24 213.082 1328.51 213.397C1350.7 211.477 1371.32 225.265 1378.07 246.552C1378.31 247.461 1377.63 248.91 1376.46 248.54C1357.99 243.234 1340.2 232.004 1328.63 216.386C1328.63 216.386 1328.33 216.368 1328.04 216.35C1327.69 221.994 1327.94 227.675 1327.59 233.319C1327.39 236.587 1327.19 239.855 1327.29 243.141C1351.45 252.673 1369.14 275.525 1371.73 301.328C1371.64 302.813 1370.41 303.334 1369.26 302.667C1351.57 289.655 1335.66 271.981 1327.09 251.18C1326.48 266.051 1325.29 280.59 1324.38 295.443C1324.38 295.443 1324.38 295.443 1324.68 295.461C1331.74 301.858 1337.13 311.134 1342.32 318.907C1346.14 324.806 1350.54 330.742 1353.74 336.902C1356.45 336.472 1359.05 337.824 1361.02 339.734C1362.7 341.625 1364.02 344.39 1364.76 346.821C1367.33 348.768 1369.58 350.993 1371.22 353.479C1372.33 354.74 1373.43 356.298 1373.91 358.117C1377.06 365.168 1377.79 372.668 1378.51 380.464C1378.47 381.058 1377.54 381.598 1376.97 381.264L1375.44 381.768Z" fill="#B28100"/>
<path fill-rule="evenodd" clip-rule="evenodd" d="M1212.78 530.134C1222.06 529.51 1234.17 536.216 1242.31 539.697C1242.85 540.625 1244.37 540.121 1244.72 539.248C1244.72 539.248 1244.72 539.248 1244.74 538.951C1245.43 527.663 1245.53 516.337 1245.03 504.976C1247.7 505.14 1250.49 503.521 1251.82 501.218C1253.51 498.041 1252.28 493.791 1249.73 491.548C1248.87 490.899 1248 490.547 1245.92 490.42C1242.65 490.219 1239.57 491.82 1238.48 495.033C1237.37 498.543 1238.9 502.811 1242.38 504.515C1242.38 504.515 1242.67 504.533 1242.97 504.552C1243.16 511.124 1243.08 517.38 1242.97 523.934C1242.81 526.608 1243.2 529.912 1242.72 532.864C1242.69 533.458 1242.65 534.053 1242.63 534.35C1238.04 526.613 1233.13 519.156 1227.29 512.238C1227.62 511.662 1228.24 511.401 1228.27 510.807C1229.64 507.909 1229.25 504.605 1227.3 502.398C1225.62 500.506 1223.28 499.767 1220.87 500.215C1218.16 500.645 1215.69 501.985 1214.62 504.901C1213.51 508.411 1215.04 512.679 1218.51 514.383C1220.54 515.402 1222.93 515.251 1225.08 514.19C1230.9 521.405 1236.11 528.881 1240.69 536.914C1240.09 536.878 1238.94 536.21 1237.49 535.525C1230.21 532.693 1220.68 527.637 1212.59 528.333C1212.62 527.739 1212.07 527.108 1211.51 526.478C1210.95 525.847 1210.39 525.217 1209.83 524.586C1209.83 524.586 1208.96 524.234 1208.39 523.901C1207.79 523.864 1207.2 523.828 1206.6 523.792C1205.71 523.737 1204.82 523.682 1203.93 523.628C1201.52 524.076 1199.33 525.731 1198.59 528.071C1197.48 531.581 1199.01 535.85 1202.48 537.553C1205.97 538.96 1210.52 537.748 1212.22 534.274C1212.89 533.123 1212.96 531.934 1213.04 530.746L1212.78 530.134Z" fill="#B28100"/>
<path fill-rule="evenodd" clip-rule="evenodd" d="M1280.93 517.613C1277.95 517.431 1275.72 514.908 1275.9 511.938C1276.09 508.967 1278.61 506.736 1281.58 506.918C1284.55 507.1 1286.78 509.623 1286.6 512.593C1286.42 515.564 1283.9 517.795 1280.93 517.613Z" fill="#B28100"/>
<path fill-rule="evenodd" clip-rule="evenodd" d="M1099.76 428.083C1096.79 427.9 1094.55 425.378 1094.74 422.407C1094.92 419.437 1097.44 417.206 1100.41 417.388C1103.38 417.57 1105.61 420.092 1105.43 423.063C1105.25 426.034 1102.73 428.265 1099.76 428.083Z" fill="#B28100"/>
<path fill-rule="evenodd" clip-rule="evenodd" d="M1375.18 327.781C1372.2 327.599 1369.97 325.076 1370.16 322.106C1370.34 319.135 1372.86 316.904 1375.83 317.086C1378.8 317.268 1381.03 319.791 1380.85 322.761C1380.67 325.732 1378.15 327.963 1375.18 327.781Z" fill="#B28100"/>
<path fill-rule="evenodd" clip-rule="evenodd" d="M1158.66 245.325C1155.69 245.143 1153.46 242.62 1153.64 239.65C1153.82 236.679 1156.34 234.448 1159.31 234.63C1162.28 234.812 1164.52 237.335 1164.33 240.305C1164.15 243.276 1161.63 245.507 1158.66 245.325Z" fill="#B28100"/>
</g>
<path fill-rule="evenodd" clip-rule="evenodd" d="M963.706 176.425C981.749 173.953 1004.49 172.663 1027.66 174.084C1074.6 176.961 1096.45 175.617 1055.65 213.669C1043.96 224.284 1029.61 234.735 1015.06 238.614C994.734 244.226 971.412 240.411 950.053 233.734C902.954 218.919 933.635 180.545 963.706 176.425Z" fill="#D7B46A"/>
<mask id="mask1_182_4925" style="mask-type:alpha" maskUnits="userSpaceOnUse" x="925" y="173" width="153" height="69">
<path fill-rule="evenodd" clip-rule="evenodd" d="M963.706 176.425C981.749 173.953 1004.49 172.663 1027.66 174.084C1074.6 176.961 1096.45 175.617 1055.65 213.669C1043.96 224.284 1029.61 234.735 1015.06 238.614C994.734 244.226 971.412 240.411 950.053 233.734C902.954 218.919 933.635 180.545 963.706 176.425Z" fill="#D7B46A"/>
</mask>
<g mask="url(#mask1_182_4925)">
<path fill-rule="evenodd" clip-rule="evenodd" d="M973.55 225.034C973.55 225.034 972.307 225.853 971.992 226.132C969.227 227.453 965.644 227.532 962.431 226.44C960.982 225.755 960.126 225.106 959.866 224.494C959.623 223.584 959.994 222.414 960.643 221.559C961.291 220.705 962.516 220.183 964.056 219.383C968.324 217.856 974.637 217.05 978.686 219.087C979.838 219.754 980.081 220.664 980.323 221.573C980.287 222.167 980.268 222.464 978.134 223.228C977.243 223.174 976.315 223.713 975.684 224.271C975.072 224.531 974.46 224.792 974.126 225.368L973.55 225.034ZM985.328 105.886C985.328 105.886 984.229 104.327 984.284 103.436C984.32 102.842 984.339 102.545 984.339 102.545C984.636 102.563 986.085 103.248 986.625 104.176C986.904 104.491 986.867 105.085 986.795 106.274C986.776 106.571 986.74 107.165 986.704 107.759C986.146 107.129 985.273 106.777 985.012 106.164L985.328 105.886ZM990.735 110.094C990.735 110.094 990.827 108.608 990.845 108.311C990.881 107.717 990.918 107.123 990.954 106.529C991.027 105.34 991.135 103.558 990.02 102.297C988.625 100.72 985.764 98.7559 983.315 99.7985C981.775 100.599 981.09 102.048 981.259 104.145C981.168 105.631 981.969 107.171 983.084 108.432C983.903 109.675 985.054 110.342 986.188 111.306C986.764 111.639 987.321 112.27 988.213 112.324C988.213 112.324 990.942 111.597 991.015 110.409L990.735 110.094ZM998.7 111.476C998.7 111.476 999.089 110.009 999.702 109.749C999.702 109.749 999.702 109.749 999.963 110.361C1000.21 111.27 1000.43 112.477 999.781 113.332C999.762 113.629 999.744 113.926 999.744 113.926C999.447 113.908 999.131 114.186 999.131 114.186C998.834 114.168 998.332 112.647 998.405 111.458L998.7 111.476ZM1003.27 114.739C1003.98 112.993 1004.1 110.913 1003.6 109.391C1003.1 107.87 1001.96 106.906 1000.5 106.517C999.903 106.481 999.011 106.426 998.399 106.687C996.859 107.487 995.561 109.197 995.451 110.979C995.342 112.761 995.755 115.769 997.762 117.084C998.059 117.102 998.634 117.436 998.931 117.454C999.822 117.509 1000.71 117.563 1001.97 116.448C1002.6 115.89 1002.94 115.314 1003.59 114.46L1003.27 114.739ZM1031.3 153.73C1031.3 153.73 1030.76 152.802 1030.5 152.19L1029.19 149.128L1029.23 148.534C1029.23 148.534 1029.53 148.552 1029.82 148.57C1031.01 148.643 1031.53 149.868 1031.79 150.48C1032.33 151.408 1032.24 152.893 1031.59 153.748C1031.59 153.748 1031.59 153.748 1031.3 153.73ZM1034.86 149.177C1034.07 147.34 1032.38 145.745 1030.62 145.339C1030.62 145.339 1028.84 145.23 1027.95 145.175C1026.74 145.399 1025.79 146.236 1025.72 147.424C1025.65 148.613 1025.57 149.801 1026.13 150.431L1027.44 153.493C1027.44 153.493 1028.24 155.033 1028.77 155.961C1029.61 156.907 1030.48 157.258 1031.37 157.313C1031.37 157.313 1031.67 157.331 1031.97 157.349C1032.56 157.386 1033.18 157.125 1033.81 156.567C1034.12 156.288 1034.44 156.01 1034.46 155.713C1035.47 153.688 1035.64 151.014 1034.87 148.88L1034.86 149.177ZM1043.68 155.98L1044.57 156.035C1044.87 156.053 1045.43 156.683 1045.39 157.278C1045.34 158.169 1044.95 159.636 1043.73 160.157C1042.48 160.976 1040.66 161.46 1040.37 161.442C1040.37 161.442 1040.35 161.739 1040.4 160.848C1040.49 159.363 1041.16 158.211 1042.14 156.78C1042.79 155.926 1043.11 155.647 1043.72 155.386L1043.68 155.98ZM1038.68 164.619C1038.68 164.619 1039.55 164.971 1040.15 165.007C1042.23 165.135 1044.68 164.092 1045.92 163.274C1048.09 161.916 1049.14 159.297 1048.99 156.902C1049.08 155.417 1047.97 154.155 1046.84 153.191C1045.68 152.524 1044.51 152.155 1043.31 152.379C1041.8 152.585 1040.56 153.403 1039.56 155.131C1038.26 156.841 1037.56 158.587 1037.43 160.666C1037.29 163.043 1038.12 163.988 1038.98 164.637L1038.68 164.619ZM966.528 174.21C966.528 174.21 966.582 173.319 967.194 173.058C967.734 173.986 967.661 175.174 967.012 176.029C966.994 176.326 965.751 177.145 965.436 177.424C965.472 176.829 965.528 175.938 966.231 174.192L966.528 174.21ZM970.17 178.012C971.486 176.005 971.354 173.314 970.275 171.458C969.717 170.828 969.455 170.215 968.861 170.179C967.709 169.512 966.189 170.015 964.946 170.833C964 171.67 963.647 172.543 963.296 173.416C961.852 177.502 962.005 179.897 963.714 181.194C964.011 181.213 964.586 181.546 964.884 181.564C966.963 181.692 969.467 179.758 970.134 178.606L970.17 178.012ZM956.996 183.764C956.996 183.764 957.888 183.819 958.185 183.837C959.652 184.225 962.513 186.19 963.332 187.433C963.035 187.415 962.439 187.378 962.142 187.36C960.063 187.232 957.796 185.304 957.275 184.08C956.996 183.764 957.014 183.467 957.311 183.486L956.996 183.764ZM956.306 180.442C956.306 180.442 958.384 180.57 959.276 180.624C960.167 180.679 966.539 183.753 966.933 187.057C966.86 188.246 966.806 189.137 965.563 189.955C964.617 190.792 963.409 191.016 961.924 190.925C961.924 190.925 961.925 190.925 961.628 190.907C958.676 190.427 955.535 188.148 954.456 186.292C953.638 185.049 953.413 183.843 953.765 182.97C953.837 181.782 955.396 180.685 956.603 180.46L956.306 180.442ZM957.91 202.904C957.91 202.904 954.975 202.128 953.823 201.461C952.374 200.776 951.818 200.145 951.836 199.848C951.855 199.551 951.89 198.957 952.52 198.399C953.484 197.266 954.709 196.744 956.212 196.538C956.807 196.575 957.401 196.611 957.995 196.647C958.886 196.702 959.778 196.757 960.93 197.424C961.821 197.479 964.7 199.146 965.798 200.704C965.798 200.704 965.797 200.704 965.203 200.668C965.203 200.668 964.907 200.65 964.61 200.631C963.404 200.856 962.754 201.71 962.124 202.268C961.808 202.547 961.492 202.826 961.177 203.105C960.565 203.365 959.359 203.59 957.91 202.904ZM971.248 194.478C971.248 194.478 971.916 193.327 972.231 193.048C972.898 191.896 973.529 191.338 974.159 190.78C974.456 190.799 974.772 190.52 974.772 190.52C974.772 190.52 974.771 190.52 974.995 191.726C975.201 193.23 975.389 195.03 974.703 196.479C974.37 197.055 973.74 197.613 973.109 198.171C971.866 198.989 970.958 199.231 970.382 198.898C970.085 198.88 969.787 198.861 969.545 197.952C969.545 197.952 970.581 195.63 971.23 194.775L971.248 194.478ZM980.305 207.259C980.305 207.259 981.603 205.549 982.791 205.622C982.791 205.622 983.961 205.992 984.519 206.623C985.616 208.181 984.912 209.927 983.633 211.34C981.741 213.013 981.464 212.697 980.888 212.364C979.754 211.4 979.305 208.987 980.305 207.259ZM994.159 195.287C994.159 195.287 993.306 194.638 993.324 194.341C993.324 194.341 993.36 193.747 993.397 193.152C993.488 191.667 994.336 187.544 997.101 186.223C998.029 185.683 998.919 185.738 1000.11 185.811C1000.7 185.847 1001.59 185.902 1002.15 186.532C1004.18 187.551 1005.26 189.407 1006.33 191.262C1006.32 191.559 1006.3 191.856 1006.3 191.856C1006.3 191.856 1005.37 192.395 1004.76 192.656C1004.46 192.638 1004.15 192.917 1003.83 193.196C1002.92 193.438 1002.29 193.996 1001.66 194.553C1001.05 194.814 1000.71 195.39 1000.1 195.651C998.264 196.433 996.166 196.602 994.457 195.305L994.159 195.287ZM988.356 139.17L987.798 138.539C987.834 137.945 987.89 137.054 988.799 136.811C989.43 136.254 990.617 136.327 992.103 136.418C992.103 136.418 993.886 136.527 994.443 137.158C996.171 138.158 996.711 139.086 996.711 139.086C996.081 139.644 993.648 140.389 991.55 140.558C990.362 140.486 988.877 140.395 988.338 139.467L988.356 139.17ZM987.951 126.323C987.951 126.323 986.018 123.819 986.388 122.649C986.442 121.758 987.963 121.255 988.854 121.309C988.854 121.309 991.194 122.049 992.589 123.626C993.425 124.571 993.983 125.202 994.243 125.814C995.025 127.651 995.475 130.064 995.141 130.64C993.341 130.828 989.903 128.53 987.933 126.62L987.951 126.323ZM1002.08 129.277C1002.08 129.277 1003.05 128.143 1003.68 127.585C1003.99 127.307 1004.31 127.028 1004.62 126.749C1005.22 126.785 1006.09 127.137 1006.33 128.046C1006.58 128.956 1006.21 130.126 1005.54 131.278C1004.87 132.43 1003.91 133.563 1002.66 134.381C1001.74 134.921 1000.81 135.461 1000.51 135.442C1000.62 133.66 1001.45 129.835 1002.1 128.98L1000.65 128.294L1002.1 128.98L1002.08 129.277ZM996.883 175.177C996.883 175.177 994.949 172.673 995.337 171.205C995.41 170.017 996.951 169.217 998.157 168.993C998.454 169.011 999.048 169.048 999.345 169.066C1000.24 169.121 1001.41 169.49 1002.26 170.139C1002.84 170.473 1003.95 171.734 1005.07 172.995C1005.63 173.625 1005.89 174.238 1006.44 174.868C1006.44 174.868 1005.24 175.093 1004.33 175.335C1003.73 175.299 1002.84 175.244 1002.21 175.802C1001.91 175.784 1001.62 175.765 1001.3 176.044C1001.01 176.026 1000.71 176.008 1000.1 176.268C999.204 176.214 997.719 176.123 996.883 175.177ZM994.277 154.442C994.277 154.442 993.442 153.496 993.46 153.199L993.515 152.308C993.551 151.714 994.181 151.156 994.496 150.877C994.496 150.877 995.091 150.914 995.685 150.95C995.685 150.95 995.686 150.95 995.983 150.969C998.656 151.133 1001.81 153.115 1002.3 154.934C1002.3 154.934 1002.28 155.231 1002.24 155.825C1001.58 156.977 999.443 157.741 998.552 157.686C997.067 157.595 995.375 156 994.277 154.442ZM1009.88 143.173C1009.88 143.173 1011.36 143.264 1011.9 144.192C1012.74 145.138 1013.28 146.065 1013.5 147.272C1013.45 148.163 1013.38 149.351 1012.75 149.909C1012.41 150.485 1011.8 150.745 1010.89 150.988C1010.3 150.951 1009.68 151.212 1009.11 150.878C1008.22 150.824 1006.75 150.436 1006.51 149.526C1005.97 148.599 1006.69 146.556 1008 144.549C1008.34 143.973 1008.99 143.118 1009.58 143.155L1009.88 143.173ZM1016.13 167.709C1016.13 167.709 1018.5 167.855 1019.06 168.485C1019.9 169.431 1019.81 170.916 1019.45 171.789C1018.79 172.941 1017.84 173.778 1016.92 174.318C1015.99 174.857 1014.74 175.675 1013.52 176.197C1012.91 176.457 1011.74 176.087 1010.92 174.845C1010.94 174.547 1010.96 174.25 1011.27 173.972C1011.94 172.82 1012.59 171.965 1013.25 170.813L1013.92 169.661C1013.92 169.661 1015.22 167.952 1015.83 167.691L1016.13 167.709ZM1031.48 170.142C1031.48 170.142 1030.33 169.474 1029.81 168.25C1029.27 167.322 1028.73 166.394 1028.8 165.206C1028.84 164.612 1029.17 164.036 1029.79 163.775C1030.97 163.848 1033.84 165.813 1034.32 167.632C1034.3 167.929 1034.25 168.82 1033.64 169.081C1033.01 169.639 1032.39 169.899 1031.8 169.863L1031.48 170.142ZM1031.24 213.065C1031.24 213.065 1033.43 216.182 1032.45 217.612C1031.47 219.043 1029.35 219.51 1028.14 219.734C1025.14 220.146 1021.91 219.351 1019.01 217.981C1017.86 217.314 1016.15 216.016 1015.91 215.107C1015.91 215.107 1015.92 214.81 1015.94 214.513C1015.94 214.513 1017.17 213.992 1017.78 213.731C1018.08 213.749 1018.67 213.786 1018.98 213.507L1019.28 213.525C1021.12 212.743 1022.64 212.24 1024.46 211.755C1025.96 211.549 1028.65 211.416 1030.66 212.732L1031.24 213.065ZM1014.78 209.075C1014.78 209.075 1013.02 208.668 1012.78 207.759C1012.8 207.462 1012.85 206.571 1012.59 205.958C1012.72 203.879 1012.84 201.799 1013.25 200.035C1013.27 199.738 1013.3 199.144 1013.9 199.18C1013.9 199.18 1014.51 198.92 1015.11 198.956C1015.4 198.974 1016 199.011 1016.26 199.623C1017.39 200.587 1017.3 202.073 1017.15 204.449L1017.08 205.637C1016.94 208.014 1016.86 209.202 1015.95 209.445C1015.95 209.445 1015.36 209.408 1015.06 209.39L1014.78 209.075ZM1025.68 191.851C1023.95 190.851 1022.24 189.553 1021.74 188.032C1021.5 187.122 1021.87 185.952 1021.94 184.764C1022.03 183.278 1022.12 181.793 1023.07 180.957L1023.38 180.678C1023.38 180.678 1023.68 180.696 1023.98 180.714C1024.27 180.732 1024.53 181.345 1025.09 181.975C1027.01 184.776 1027.35 188.972 1026.27 191.888C1026.27 191.888 1025.98 191.87 1025.68 191.851ZM1041.38 174.028C1041.38 174.028 1042.26 174.38 1042.52 174.993C1042.78 175.605 1043.02 176.514 1042.37 177.369C1042.3 178.557 1041.35 179.394 1040.43 179.934C1039.5 180.473 1038.31 180.4 1037.42 180.345C1036.53 180.291 1035.65 179.939 1035.39 179.327C1035.41 179.03 1035.13 178.714 1035.17 178.12C1035.21 177.526 1036.47 176.411 1039.56 174.513C1039.56 174.513 1040.49 173.974 1041.09 174.01L1041.38 174.028ZM1038.1 193.508C1038.1 193.508 1040.18 193.635 1041.04 194.284C1041.04 194.284 1042.78 194.987 1043.04 195.6C1043.86 196.842 1043.46 198.607 1042.77 200.056C1041.47 201.765 1039.6 203.141 1037.2 203.293C1035.12 203.165 1032.78 202.425 1031.39 200.849C1030.83 200.218 1030.57 199.606 1030.01 198.975C1029.49 197.751 1029.27 196.544 1029.6 195.968C1029.64 195.374 1030.57 194.835 1032.09 194.332C1033.93 193.55 1036.02 193.38 1038.1 193.508ZM1000.47 228.474C1000.47 228.474 1000.47 228.474 1000.49 228.177C1005.17 224.885 1009.56 221.278 1013.38 217.338C1014.46 219.193 1016.47 220.509 1017.62 221.176C1019.94 222.213 1022.28 222.953 1024.36 223.08C1025.85 223.171 1027.33 223.262 1028.52 223.335C1031.83 222.941 1033.99 221.583 1035.31 219.577C1036.98 216.697 1035.73 212.744 1033.18 210.501C1030.9 208.87 1027.96 208.094 1024.34 208.766C1022.84 208.972 1021.32 209.475 1019.8 209.978C1022.39 206.559 1024.69 203.122 1026.71 199.369C1026.69 199.666 1026.67 199.963 1027.23 200.594C1027.77 201.522 1028.29 202.746 1029.15 203.395C1030.82 205.287 1033.42 206.639 1035.8 206.785C1036.39 206.821 1036.98 206.857 1037.58 206.894C1040.86 206.797 1043.96 204.9 1045.63 202.02C1047.26 199.735 1047.78 196.188 1045.84 193.684C1045.01 192.738 1043.87 191.774 1042.41 191.386C1038.91 189.979 1034.74 190.021 1031.06 191.585C1031.06 191.585 1031.06 191.585 1030.77 191.567C1032.16 188.372 1032.93 185.438 1034.02 182.225C1034.86 183.17 1036.31 183.856 1037.79 183.947C1037.79 183.947 1037.79 183.947 1038.09 183.965C1039.28 184.038 1041.06 184.147 1042.6 183.347C1044.44 182.565 1045.74 180.856 1046.48 178.515C1046.88 176.751 1046.68 175.248 1046.17 173.726C1045.39 171.889 1043.66 170.888 1041.88 170.779C1040.69 170.706 1039.47 171.227 1038.84 171.785C1037.91 172.325 1036.98 172.864 1036.35 173.422C1036.39 172.828 1036.42 172.233 1036.44 171.936C1037.72 170.524 1038.13 168.76 1037.92 167.256C1037.19 164.528 1032.98 160.393 1029.67 160.787C1027.57 160.956 1025.96 162.945 1025.82 165.321C1025.71 167.104 1026.49 168.941 1027.31 170.184C1028.12 171.426 1029.2 173.282 1031.27 173.706C1031.27 173.706 1031.56 173.725 1031.86 173.743C1031.86 173.743 1032.45 173.779 1032.75 173.797C1032.25 177.047 1031.44 180.575 1030.37 183.491C1029.85 182.267 1029.31 181.339 1028.78 180.114C1028.23 179.484 1027.69 178.556 1026.54 177.889C1025.38 177.222 1023.9 177.131 1022.97 177.671C1022.38 177.634 1021.75 178.192 1021.1 179.047C1019.5 180.738 1019.36 183.115 1018.97 184.582C1018.88 186.067 1018.79 187.553 1018.97 189.353C1020 192.1 1022.58 193.749 1024.29 195.046C1024.29 195.046 1024.87 195.38 1025.44 195.713C1024.09 198.314 1022.74 200.915 1021.09 203.498C1021.22 201.418 1021.07 199.023 1019.08 197.41C1017.11 195.501 1013.84 195.3 1011.95 196.973C1011.32 197.531 1010.98 198.107 1010.63 198.98C1009.59 201.302 1009.73 203.994 1009.6 206.073C1009.54 206.964 1009.47 208.153 1009.99 209.377C1010.79 210.917 1012.23 211.9 1013.99 212.306C1010.78 215.986 1007 219.332 1002.92 222.66C1005.47 215.064 1008.02 207.468 1009.41 199.501C1010.72 192.723 1011.12 186.188 1010.94 179.319C1012.39 180.004 1013.86 180.392 1015.4 179.592C1016.62 179.071 1017.87 178.252 1018.79 177.713C1020.04 176.894 1021.59 175.797 1022.59 174.069C1023.93 171.766 1023.52 168.759 1021.84 166.867C1020.19 164.678 1017.24 164.199 1014.79 165.241C1013.27 165.745 1012.28 167.175 1011.32 168.309L1010.65 169.461C1010.65 169.461 1010.63 169.758 1010.32 170.037C1009.74 164.932 1008.86 159.809 1007.37 154.946C1007.96 154.983 1008.26 155.001 1008.83 155.335C1008.83 155.335 1008.83 155.335 1009.13 155.353C1010.02 155.407 1010.91 155.462 1012.14 154.941C1013.36 154.42 1014.59 153.898 1015.53 153.062C1016.81 151.649 1017.53 149.606 1017.07 147.49C1016.88 145.69 1015.78 144.131 1014.69 142.573C1012.99 140.978 1010.95 140.257 1009.15 140.445C1007.63 140.948 1006.37 142.063 1005.7 143.215C1005.7 143.215 1004.72 144.646 1004.38 145.222C1003.62 143.088 1002.84 141.251 1002.08 139.116C1002.99 138.874 1003.62 138.316 1004.84 137.795C1006.7 136.716 1007.97 135.304 1008.98 133.576C1010.29 131.569 1010.44 129.192 1009.95 127.374C1009.21 124.942 1006.64 122.996 1003.9 124.02C1002.99 124.263 1002.36 124.821 1001.72 125.378C1000.78 126.215 999.834 127.052 999.167 128.203C999.167 128.203 999.149 128.5 999.113 129.095C998.943 126.997 997.863 125.142 997.881 124.844C997.36 123.62 996.524 122.674 995.39 121.71C993.42 119.8 991.692 118.799 989.613 118.672C986.939 118.508 984.174 119.83 983.137 122.152C982.1 124.473 982.828 127.202 985.374 129.445C985.653 129.76 987.902 131.986 990.503 133.338C989.017 133.247 987.793 133.768 986.865 134.308C984.694 135.665 983.657 137.987 984.421 140.121C984.663 141.031 985.221 141.661 986.076 142.31C987.21 143.274 988.659 143.96 990.442 144.069C991.036 144.105 991.332 144.123 991.927 144.16C991.927 144.16 997.013 143.875 999.22 141.923C1000.24 144.67 1001.57 147.434 1002.29 150.163C1000.57 149.162 998.522 148.44 997.055 148.052C995.57 147.961 994.084 147.87 993.157 148.41C991.914 149.228 991.246 150.38 990.597 151.235C990.246 152.108 989.895 152.981 989.822 154.169C989.731 155.654 990.865 156.618 991.423 157.249C993.096 159.141 995.065 161.051 997.721 161.512C997.721 161.512 998.018 161.53 998.315 161.548C1000.1 161.657 1002.84 160.633 1004.44 158.942C1005.39 162.876 1006.06 166.496 1006.42 170.394C1005.6 169.151 1004.47 168.187 1003.91 167.557C1001.9 166.241 999.563 165.501 997.447 165.968C994.737 166.398 992.549 168.053 991.809 170.393C990.754 173.012 992.038 176.371 994.603 178.317C995.736 179.281 997.186 179.966 998.671 180.057C999.265 180.094 999.859 180.13 1000.45 180.167C1001.05 180.203 1001.66 179.942 1001.97 179.664C1001.97 179.664 1002.57 179.7 1002.87 179.718C1003.46 179.755 1004.05 179.791 1004.37 179.512C1005.26 179.567 1006.17 179.325 1007.08 179.082C1006.92 181.756 1007.05 184.447 1006.88 187.121C1006.07 185.878 1004.93 184.914 1003.21 183.914C1000.61 182.561 997.616 182.676 995.167 183.719C992.087 185.319 990.087 188.775 989.516 193.213C989.462 194.104 989.406 194.995 989.648 195.904C989.89 196.814 990.728 197.76 991.861 198.724C993.013 199.391 994.183 199.761 995.65 200.149C997.433 200.258 999.233 200.07 1001.07 199.288C1001.68 199.028 1002.31 198.47 1002.93 198.209C1003.54 197.949 1004.17 197.391 1004.78 197.13C1005.08 197.149 1005.39 196.87 1005.69 196.888C1005.69 196.888 1005.6 198.373 1005.55 199.265C1003.76 208.995 1000.48 218.634 997.206 228.274C995.744 232.657 994.283 237.04 992.822 241.423C992.785 242.017 992.767 242.314 992.433 242.89C991.142 234.76 988.034 227.115 983.384 220.27C982.566 219.027 981.728 218.081 980.91 216.838C982.989 216.966 984.567 215.571 985.828 214.456C988.666 211.946 989.182 208.4 986.969 205.58C986.151 204.338 984.423 203.337 982.937 203.246C979.966 203.064 978.111 204.143 976.74 207.041C976.055 208.49 975.946 210.272 976.431 212.091C973.921 209.253 971.412 206.416 970.127 203.057C971.612 203.148 973.133 202.645 974.691 201.548C975.619 201.008 976.565 200.172 977.53 199.038C979.161 196.752 978.749 193.745 978.264 191.926C978.319 191.035 977.833 189.216 976.087 188.513C974.935 187.846 973.134 188.034 971.576 189.131C970.333 189.949 969.352 191.38 968.685 192.532C968.666 192.829 968.035 193.387 967.702 193.963C967.035 195.115 966.071 196.248 965.701 197.418C963.991 196.121 961.949 195.399 961.373 195.066C959.033 194.326 956.971 193.901 955.171 194.089C952.776 194.24 950.605 195.598 949.01 197.289C948.028 198.72 947.344 200.169 947.865 201.394C948.313 203.807 950.913 205.159 951.786 205.511C953.235 206.196 954.982 206.899 956.449 207.287C957.043 207.324 957.637 207.36 958.529 207.415C959.717 207.488 961.202 207.579 962.445 206.761C963.058 206.5 963.688 205.942 964.003 205.663C964.318 205.384 964.949 204.827 965.543 204.863C965.84 204.881 966.138 204.9 966.435 204.918C968.278 208.907 971.065 212.06 974.151 215.231C974.151 215.231 974.43 215.546 974.709 215.862C970.271 215.291 965.148 216.17 961.79 217.455C961.79 217.455 958.43 218.74 956.835 220.431C955.222 222.42 954.781 224.778 955.544 226.912C956.326 228.749 957.756 229.732 960.078 230.769C961.545 231.157 963.013 231.545 964.48 231.933C967.451 232.115 970.16 231.685 972.609 230.642C973.221 230.381 973.852 229.824 974.464 229.563C975.077 229.302 975.393 229.024 976.006 228.763C976.618 228.502 977.23 228.242 977.843 227.981C979.049 227.757 980.571 227.254 981.553 225.823C986.13 233.856 988.851 242.969 988.899 251.917C988.899 251.917 988.88 252.215 988.862 252.512C986.461 262.503 985.121 274.646 987.678 286.432C987.642 287.026 988.496 287.675 989.09 287.712C989.09 287.712 989.386 287.73 989.683 287.748C990.574 287.803 991.242 286.651 991 285.741C988.443 273.955 989.559 260.605 995.108 243.054C996.569 238.671 998.03 234.288 999.492 229.905L1000.47 228.474Z" fill="#B28100"/>
</g>
<path fill-rule="evenodd" clip-rule="evenodd" d="M869.861 228.517C861.113 225.297 856.086 229.462 853.606 235.87C849.312 247.534 856.334 249.754 865.167 246.717C879.215 241.316 878.888 232.052 869.861 228.517Z" fill="#845B00"/>
</g>
<defs>
<clipPath id="clip0_182_4925">
<rect width="1440" height="581" fill="white"/>
</clipPath>
</defs>
</svg>
