<svg width="375" height="59" viewBox="0 0 375 59" fill="none" xmlns="http://www.w3.org/2000/svg">
<g clip-path="url(#clip0_421_4854)">
<g clip-path="url(#clip1_421_4854)">
<circle cx="307.5" cy="423.5" r="418.5" fill="#5EAD41"/>
<path fill-rule="evenodd" clip-rule="evenodd" d="M345.404 29.0002C350.06 31.6202 351.529 36.6764 352.663 41.5492V41.7661V41.8829C353.12 42.9473 353.423 44.0709 353.564 45.2204C355.233 40.6981 356.902 36.2759 360.873 33.2555C360.93 33.207 360.999 33.176 361.073 33.166C361.146 33.1561 361.221 33.1677 361.288 33.1995C361.355 33.2313 361.412 33.2819 361.451 33.3452C361.49 33.4084 361.509 33.4816 361.508 33.5559C361.508 38.9793 357.669 42.7507 353.898 46.1549C353.837 46.2178 353.753 46.2538 353.665 46.255C353.761 47.83 353.717 49.4105 353.531 50.9775C353.531 51.2278 353.531 51.4782 353.531 51.7285H353.731C357.315 47.0652 362.031 43.3947 367.432 41.0652C367.506 41.0318 367.59 41.0232 367.67 41.0407C367.75 41.0582 367.822 41.1008 367.876 41.1623C367.931 41.2239 367.963 41.3011 367.971 41.3827C367.978 41.4643 367.958 41.546 367.916 41.6159C365.012 46.472 359.572 52.1457 353.514 52.5128C353.161 55.2539 352.603 57.9648 351.846 60.6229H352.096C355.677 55.9639 360.387 52.2941 365.78 49.9596C365.854 49.9262 365.938 49.9176 366.018 49.9351C366.098 49.9525 366.17 49.9952 366.224 50.0567C366.278 50.1183 366.311 50.1955 366.318 50.2771C366.326 50.3587 366.306 50.4404 366.264 50.5103C363.377 55.3496 357.92 61.04 351.879 61.4072C351.793 61.4104 351.71 61.3805 351.645 61.3237C351.412 62.0914 351.178 62.859 350.911 63.6266C350.761 64.0772 350.027 63.8435 350.194 63.393C350.644 62.0747 351.045 60.7397 351.412 59.388C347.407 55.7835 342.234 49.6092 342 43.9354C342 43.5516 342.451 43.5016 342.684 43.7018C346.856 47.4899 351.128 51.6784 351.946 57.3855C352.346 55.5833 352.663 53.7643 352.897 51.9287C353.014 50.9775 353.097 50.0097 353.147 49.0585C348.909 46.2884 344.503 43.1512 343.652 37.8112C343.644 37.7388 343.655 37.6655 343.685 37.5992C343.716 37.5329 343.763 37.4761 343.823 37.4349C343.884 37.3937 343.954 37.3697 344.026 37.3654C344.099 37.3612 344.172 37.3768 344.236 37.4107C348.491 39.7469 350.911 43.7519 353.214 47.8737C353.29 45.742 352.849 43.6236 351.929 41.6993C348.758 38.1115 345.738 34.3736 345.02 29.4842C345.005 29.4262 345.003 29.3653 345.015 29.3065C345.027 29.2476 345.053 29.1924 345.09 29.1453C345.128 29.0982 345.175 29.0606 345.23 29.0354C345.284 29.0102 345.344 28.9981 345.404 29.0002Z" fill="#5EAD41"/>
<path fill-rule="evenodd" clip-rule="evenodd" d="M220.86 43.5451C220.977 43.5451 221.01 42.3937 221.544 41.7262C222.462 40.6082 225.466 41.8097 223.981 43.6286C223.547 44.1459 222.963 44.5464 222.996 44.5798C223.3 44.4931 223.614 44.4427 223.93 44.4296C226.434 44.4296 225.966 48.6014 223.029 47.5168C222.545 47.3499 222.646 47.3499 222.879 47.7671C223.113 48.1842 223.163 48.2177 223.313 48.4847C223.46 48.7347 223.505 49.0312 223.44 49.3136C223.375 49.5959 223.204 49.8427 222.963 50.0032C222.228 50.4871 220.927 50.4037 220.626 49.4859C220.499 49.1024 220.42 48.7043 220.393 48.3011C220.209 46.7324 220.793 50.4037 218.273 50.3369C217.222 50.3369 216.404 49.4358 217.623 48.0341C217.795 47.8236 217.985 47.6282 218.19 47.45C218.457 47.2331 218.474 47.183 218.19 47.2832C217.716 47.4246 217.212 47.4246 216.738 47.2832C216.121 47.0495 215.77 45.4308 216.171 44.6465C216.772 43.5118 217.84 43.929 218.524 44.1459C219.208 44.3629 219.425 44.3128 218.691 43.8789C218.439 43.7309 218.199 43.5635 217.973 43.3783C216.171 41.843 219.642 39.5736 220.56 42.2102C220.777 42.8443 220.86 43.4951 220.927 43.4784L220.86 43.5451ZM220.159 44.5631C219.842 44.8134 220.309 45.1304 220.576 44.9969C220.843 44.8634 220.576 44.196 220.159 44.5631ZM221.628 45.0637C221.344 44.5464 221.044 44.3295 220.86 45.0637C220.743 45.531 220.71 46.2151 221.344 45.9982C221.429 45.9641 221.506 45.9112 221.569 45.8435C221.631 45.7759 221.678 45.6951 221.705 45.6071C221.732 45.5191 221.739 45.4261 221.726 45.335C221.713 45.2439 221.679 45.1569 221.628 45.0804V45.0637ZM219.842 45.2806C219.208 45.581 219.391 46.1818 219.842 46.1818C220.96 46.1818 220.56 44.9302 219.842 45.2806ZM220.376 46.332C219.542 46.7491 220.376 47.0996 221.127 46.7825C221.878 46.4654 221.26 45.9315 220.376 46.332Z" fill="#265113"/>
<path fill-rule="evenodd" clip-rule="evenodd" d="M150.405 35.8779C150.583 35.8779 150.634 34.1235 151.447 33.1065C152.846 31.403 157.422 33.2337 155.159 36.005C154.498 36.7932 153.608 37.4034 153.659 37.4542C154.123 37.3222 154.601 37.2454 155.083 37.2254C158.897 37.2254 158.185 43.5818 153.71 41.9291C152.973 41.6749 153.125 41.6749 153.481 42.3105C153.837 42.9461 153.914 42.9971 154.142 43.4039C154.366 43.7848 154.435 44.2366 154.335 44.6668C154.236 45.097 153.976 45.4729 153.608 45.7175C152.49 46.4548 150.507 46.3277 150.049 44.9293C149.855 44.345 149.735 43.7385 149.693 43.1241C149.413 40.7341 150.303 46.3278 146.464 46.2261C144.862 46.2261 143.616 44.8531 145.472 42.7173C145.735 42.3966 146.024 42.0989 146.337 41.8274C146.744 41.4969 146.769 41.4207 146.337 41.5732C145.615 41.7887 144.846 41.7887 144.125 41.5732C143.184 41.2173 142.65 38.7509 143.26 37.556C144.176 35.827 145.803 36.4627 146.845 36.7932C147.888 37.1237 148.218 37.0475 147.1 36.3864C146.716 36.1608 146.35 35.9058 146.006 35.6236C143.26 33.2844 148.549 29.8266 149.947 33.8439C150.278 34.81 150.405 35.8016 150.507 35.7762L150.405 35.8779ZM149.337 37.4289C148.854 37.8102 149.566 38.2933 149.973 38.0899C150.379 37.8865 149.973 36.8695 149.337 37.4289ZM151.574 38.1916C151.142 37.4034 150.684 37.0729 150.405 38.1916C150.227 38.9035 150.176 39.9459 151.142 39.6154C151.273 39.5634 151.39 39.4829 151.485 39.3798C151.58 39.2766 151.651 39.1536 151.692 39.0195C151.734 38.8854 151.745 38.7438 151.724 38.6049C151.704 38.4661 151.653 38.3335 151.574 38.217V38.1916ZM148.854 38.5221C147.888 38.9798 148.167 39.8951 148.854 39.8951C150.557 39.8951 149.947 37.9882 148.854 38.5221ZM149.667 40.1239C148.396 40.7596 149.667 41.2935 150.812 40.8104C151.956 40.3273 151.015 39.5137 149.667 40.1239Z" fill="#265113"/>
</g>
</g>
<defs>
<clipPath id="clip0_421_4854">
<rect width="375" height="59" fill="white"/>
</clipPath>
<clipPath id="clip1_421_4854">
<rect width="375" height="2010" fill="white" transform="translate(0 -67)"/>
</clipPath>
</defs>
</svg>
