<svg width="1439" height="224" viewBox="0 0 1439 224" fill="none" xmlns="http://www.w3.org/2000/svg">
<g clip-path="url(#clip0_313_5250)">
<path fill-rule="evenodd" clip-rule="evenodd" d="M31.6827 73.049C31.3956 73.049 31.2725 69.9223 29.8369 68.1357C27.3758 65.1714 19.2131 68.3793 23.2739 73.2521C24.4224 74.6327 26.0222 75.6884 25.9401 75.8103C25.1151 75.5546 24.2605 75.4045 23.397 75.3636C16.5879 75.3636 17.9005 86.5302 25.8581 83.4848C27.1297 82.9975 26.8425 82.9975 26.2273 84.1344C25.612 85.2714 25.4479 85.3526 25.0377 86.0429C24.6483 86.7165 24.5333 87.5119 24.7162 88.2666C24.8992 89.0213 25.3663 89.6783 26.0222 90.1035C27.9911 91.4029 31.5187 91.1999 32.339 88.7229C32.6596 87.6924 32.8659 86.6304 32.9543 85.5557C33.4465 81.4951 31.8878 91.1999 38.6559 90.9969C41.5272 90.9969 43.7422 88.6011 40.4607 84.8247C39.9831 84.2705 39.4619 83.7546 38.902 83.2817C38.1637 82.6727 38.1637 82.5508 38.902 82.7944C40.2355 83.2199 41.6703 83.2199 43.0039 82.7944C44.6856 82.1853 45.6291 77.8405 44.5215 75.729C42.9218 72.7242 40.0095 73.8205 38.1637 74.4296C36.3178 75.0387 35.7436 74.8763 37.7535 73.6987C38.4363 73.3117 39.0817 72.8631 39.6814 72.3587C44.5215 68.2981 35.2103 62.1666 32.7082 69.2321C32.0929 70.9375 31.8878 72.6429 31.6827 72.6429V73.049ZM33.6106 75.7696C34.431 76.4193 33.2004 77.272 32.4211 76.9066C31.6417 76.5411 32.4211 74.7951 33.6106 75.7696ZM29.5088 77.1096C30.2881 75.6884 31.0675 75.1199 31.5597 77.1096C31.8878 78.409 31.9699 80.1957 30.2471 79.6272C30.0177 79.5365 29.8119 79.3958 29.6451 79.2154C29.4783 79.035 29.3548 78.8197 29.2839 78.5854C29.2129 78.3512 29.1962 78.1042 29.2352 77.8627C29.2741 77.6212 29.3676 77.3916 29.5088 77.1908V77.1096ZM34.3079 77.6781C36.0307 78.4902 35.5385 80.0738 34.3079 80.0738C31.3136 80.0738 32.4211 76.7442 34.3079 77.6781ZM32.8723 80.4799C35.1283 81.6169 32.8723 82.5508 30.8624 81.6981C28.8524 80.8454 30.8624 79.4242 33.0364 80.4799H32.8723Z" fill="#5EAD41"/>
<path fill-rule="evenodd" clip-rule="evenodd" d="M951.502 318.525C995.562 315.89 1008.99 331.572 1053.63 339.094C1086.81 344.184 1120.59 343.823 1153.65 338.024C1216.97 326.91 1273.09 294.79 1257.83 231.307C1245.82 181.421 1219.61 166.739 1170.09 164.685C1142.21 163.583 1110.3 165.749 1085.74 147.294C1049.57 119.978 984.972 119.229 851.113 161.766C826.268 169.717 788.544 184.51 763.252 208.224C743.106 227.962 730.107 253.846 726.306 281.792C717.028 345.807 794.339 390.358 843.32 371.812C878.361 358.656 916.139 320.702 951.502 318.525Z" fill="#81BD55"/>
<path fill-rule="evenodd" clip-rule="evenodd" d="M870.718 183.252C866.688 181.73 861.565 179.349 857.326 177.474L849.799 174.167C849.799 174.167 850.7 174.213 852.179 174.34C853.657 174.467 855.713 174.674 858.034 175.015C862.965 175.672 867.818 176.822 872.52 178.447C874.112 179.019 875.665 179.697 877.168 180.475C876.06 177.454 874.932 174.444 873.745 171.469C873.434 171.674 873.066 171.772 872.694 171.75C870.167 171.428 867.704 170.724 865.389 169.661C861.371 168.159 856.236 165.758 851.997 163.884L844.481 160.596L846.85 160.749C848.328 160.876 850.396 161.103 852.705 161.424C857.638 162.074 862.491 163.224 867.191 164.856C868.787 165.447 870.35 166.126 871.87 166.892C870.25 163.01 868.52 159.167 866.732 155.359C865.852 155.882 863.787 156.105 858.185 155.279C850.545 153.806 843.012 151.819 835.639 149.333C843.423 149.1 851.214 149.394 858.958 150.212C860.932 150.463 862.885 150.859 864.8 151.398L864.335 150.615C864.173 150.478 864.041 150.307 863.95 150.115C863.859 149.923 863.809 149.714 863.805 149.501C863.13 148.367 862.592 147.151 861.964 145.962C861.337 144.773 860.802 143.741 860.202 142.642C860.079 142.912 859.876 143.138 859.621 143.29C859.365 143.441 859.07 143.512 858.774 143.491C856.425 143.383 854.111 142.89 851.922 142.032C848.153 140.858 843.317 138.915 839.299 137.413L832.206 134.747C832.206 134.747 833.03 134.707 834.408 134.709C835.785 134.71 837.698 134.764 839.832 134.925C844.427 135.165 848.981 135.911 853.413 137.147C855.029 137.612 856.604 138.207 858.124 138.926C856.507 136.207 854.988 133.43 853.274 130.77C852.522 131.376 850.598 131.435 845.194 130.094C838.192 128.024 831.35 125.448 824.722 122.385C832.007 122.772 839.253 123.692 846.403 125.139C848.127 125.543 849.522 125.931 850.508 126.298L850.287 125.927C850.058 125.831 849.855 125.679 849.699 125.486C849.542 125.292 849.436 125.063 849.39 124.819C849.345 124.671 849.317 124.519 849.306 124.366C848.275 122.631 847.161 120.937 845.965 119.283C845.268 119.936 843.707 119.938 838.612 118.361C832.533 116.039 826.65 113.234 821.02 109.971C827.544 110.638 834.005 111.824 840.341 113.52C841.229 113.812 842.024 114.081 842.675 114.329C841.037 112.02 839.36 109.734 837.644 107.472C837.043 108.332 835.63 108.537 829.612 106.344C823.158 103.567 816.921 100.311 810.952 96.6044C817.888 97.7283 824.729 99.3779 831.415 101.539C832.327 101.87 833.137 102.209 833.831 102.485L830.86 98.6916C829.934 99.0041 828.309 98.2758 823.99 94.0402C818.983 88.7075 814.376 83.0139 810.205 77.0056C816.328 81.0686 822.148 85.5717 827.617 90.4793C828.321 91.1728 828.928 91.7918 829.456 92.3247C828.949 86.4152 828.904 80.4751 829.323 74.5587C831.584 80.324 833.349 86.2716 834.6 92.3368C835.587 98.4485 834.752 99.3156 833.608 99.5726C835.698 102.063 837.733 104.639 839.709 107.25C839.695 106.235 839.737 105.22 839.834 104.21C840.277 100.166 841.258 96.1998 842.749 92.4153C843.435 90.6305 844.128 89.0799 844.62 87.9929C845.112 86.906 845.493 86.2557 845.493 86.2557C845.493 86.2557 845.444 86.9736 845.419 88.1795C845.395 89.3853 845.322 91.0437 845.264 92.9051C845.172 96.667 845.197 101.206 844.926 104.624C844.93 106.657 844.558 108.673 843.829 110.571C843.731 110.785 843.581 110.972 843.394 111.115C843.208 111.258 842.989 111.354 842.757 111.395C843.836 112.897 844.927 114.42 845.978 115.966C846.206 116.121 846.396 116.324 846.537 116.56C846.678 116.797 846.765 117.061 846.793 117.335C847.63 118.743 848.605 120.07 849.489 121.424C849.574 120.632 849.711 119.703 849.852 118.56C850.4 115.03 851.48 110.39 852.201 106.572C852.571 104.657 852.855 102.953 853.071 101.713L853.395 99.7197C853.395 99.7197 853.591 100.45 853.875 101.685C854.159 102.919 854.48 104.661 854.757 106.641C855.395 110.84 855.455 115.106 854.938 119.322C854.807 121.58 854.158 123.779 853.039 125.746C852.887 125.933 852.706 126.094 852.503 126.224C852.817 126.752 853.131 127.28 853.457 127.828C853.629 127.951 853.774 128.108 853.882 128.29C853.99 128.472 854.059 128.674 854.085 128.884C855.143 130.664 856.214 132.463 857.284 134.263L857.379 133.888C857.672 132.867 858.137 131.558 858.726 129.831C859.314 128.104 860.055 126.101 860.731 124.031C861.406 121.962 862.066 119.822 862.566 117.856C863.065 115.891 863.447 114.129 863.67 112.857L864.049 110.779L864.486 112.849C864.806 114.58 865.015 116.331 865.113 118.089C865.259 120.368 865.211 122.655 864.97 124.926C864.743 127.154 864.274 129.351 863.57 131.477C863.09 132.958 862.47 134.391 861.719 135.755C861.338 136.482 860.83 137.135 860.217 137.681C860.01 137.888 859.755 138.04 859.474 138.123C860.893 140.509 862.124 142.981 863.415 145.417C863.705 145.906 863.996 146.395 864.299 146.904C864.548 145.988 864.935 144.857 865.522 143.529C866.764 140.142 868.912 135.873 870.533 132.367L873.516 126.118L873.438 128.124C873.355 129.365 873.227 131.109 872.993 133.075C872.552 137.229 871.646 141.32 870.292 145.272C869.691 147.348 868.648 149.27 867.234 150.904C867.064 151.072 866.856 151.196 866.627 151.264C868.409 154.838 870.12 158.428 871.764 162.083C872.144 160.852 872.72 159.238 873.688 156.994C875.379 152.891 877.987 147.659 880.017 143.327L883.611 135.657C883.611 135.657 883.525 136.581 883.34 138.095C883.154 139.609 882.861 141.742 882.442 144.11C881.613 149.179 880.266 154.15 878.423 158.944C877.602 161.48 876.31 163.839 874.614 165.896C874.378 166.128 874.089 166.3 873.773 166.396C875.161 169.621 876.491 172.881 877.751 176.157C878.537 174.276 879.425 172.44 880.411 170.656C882.514 166.758 885.589 161.778 888.013 157.662L892.327 150.357C892.327 150.357 892.159 151.278 891.83 152.771C891.5 154.265 891.019 156.351 890.382 158.663C889.062 163.626 887.243 168.443 884.952 173.039C883.863 175.507 882.324 177.751 880.414 179.656C880.096 179.944 879.683 180.105 879.254 180.108C882.465 188.76 885.171 197.592 887.358 206.558C887.619 207.62 886.01 207.942 885.71 206.902C883.654 199.573 881.423 192.348 878.941 185.192C878.686 185.298 878.413 185.352 878.136 185.353C875.574 185.02 873.074 184.312 870.718 183.252Z" fill="#5EAD41"/>
<path fill-rule="evenodd" clip-rule="evenodd" d="M923.42 147.449C922.307 146.923 920.966 146.022 921.267 144.505C921.406 144.03 921.685 143.608 922.067 143.294C922.449 142.979 922.917 142.787 923.41 142.741C924.455 142.767 925.484 143.014 926.427 143.466C929.327 144.779 931.999 146.543 934.346 148.694C936.346 150.562 938.078 152.697 939.493 155.04C940.332 151.415 941.14 147.785 941.949 144.156C936.626 141.37 931.353 138.217 926.402 135.452C925.332 134.838 924.134 133.801 924.615 132.34C924.795 131.884 925.108 131.492 925.512 131.214C925.917 130.936 926.395 130.785 926.885 130.78C927.935 130.884 928.953 131.204 929.873 131.719C932.523 133.184 934.958 135.007 937.112 137.135C939.056 139.047 940.751 141.195 942.159 143.53C942.758 140.744 943.327 137.955 943.869 135.13C938.976 131.223 933.775 127.718 928.316 124.649C927.186 124.027 925.865 122.973 926.284 121.503C926.443 121.024 926.754 120.609 927.17 120.323C927.587 120.037 928.085 119.894 928.59 119.918C929.704 120.034 930.782 120.383 931.753 120.943C934.682 122.565 937.313 124.675 939.533 127.181C941.374 129.233 942.906 131.543 944.081 134.037C944.708 130.819 945.309 127.566 945.853 124.274C941.205 120.255 936.087 116.813 930.612 114.023C929.503 113.466 928.17 112.504 928.498 111.022C928.626 110.534 928.911 110.102 929.308 109.79C929.705 109.479 930.193 109.306 930.697 109.297C931.808 109.359 932.894 109.657 933.882 110.169C936.857 111.68 939.516 113.747 941.714 116.259C943.528 118.277 944.992 120.585 946.047 123.085C946.441 120.209 946.838 117.303 947.42 114.421L947.507 113.779C942.167 109.478 936.611 105.452 930.862 101.714C929.657 100.957 928.291 99.773 928.802 98.3157C929.006 97.8418 929.362 97.4494 929.814 97.2007C930.265 96.952 930.787 96.8612 931.297 96.9428C932.457 97.1588 933.562 97.6068 934.545 98.26C937.523 100.156 940.209 102.476 942.517 105.148C944.594 107.53 946.328 110.191 947.669 113.053C948.088 109.993 948.473 107.179 948.871 104.272C946.783 101.991 944.656 99.768 942.385 97.6808C939.824 95.2994 937.12 93.0766 934.288 91.0249C933.183 90.2191 931.887 88.9821 932.412 87.6514C932.645 87.1915 933.023 86.8211 933.487 86.5973C933.952 86.3735 934.477 86.3089 934.982 86.4133C936.137 86.7015 937.221 87.221 938.17 87.9405C941.06 90.0339 943.565 92.6123 945.574 95.5613C947.043 97.7592 948.216 100.141 949.062 102.646C949.585 98.8217 949.955 94.9763 950.326 91.1309C948.389 88.653 946.384 86.228 944.248 84.0657C941.771 81.4097 939.084 78.9574 936.213 76.7325C935.089 75.8308 933.802 74.5326 934.374 73.0836C934.623 72.6233 935.02 72.2607 935.501 72.0549C935.982 71.849 936.518 71.812 937.023 71.9499C937.616 72.095 938.183 72.3303 938.704 72.6475C939.254 72.9495 939.78 73.2923 940.278 73.6732C943.194 75.9754 945.672 78.7851 947.59 81.9671C948.861 84.1087 949.856 86.4022 950.552 88.7931C950.846 85.2801 951.135 81.7976 951.394 78.311C948.15 73.4949 944.171 69.2169 939.602 65.6327C938.645 64.8785 937.555 63.732 938.154 62.3178C938.366 61.8649 938.72 61.494 939.163 61.2618C939.605 61.0296 940.112 60.949 940.605 61.0324C941.145 61.1396 941.665 61.3265 942.15 61.5867C942.646 61.8432 943.116 62.1477 943.553 62.4955C946.133 64.5408 948.256 67.1033 949.786 70.0184C950.609 71.5658 951.232 73.2116 951.64 74.9162C951.886 71.303 952.096 67.7162 952.28 64.0947C948.973 59.251 944.949 54.9381 940.347 51.3037C939.416 50.5842 938.388 49.446 939.021 48.0055C939.234 47.5574 939.583 47.1883 940.019 46.9511C940.455 46.7139 940.954 46.6209 941.446 46.6853C941.966 46.7784 942.468 46.9523 942.934 47.2006C943.387 47.4666 943.826 47.7555 944.249 48.0663C946.741 50.0353 948.782 52.5144 950.236 55.3373C951.255 57.3138 951.953 59.4399 952.304 61.6358C952.448 58.5386 952.591 55.4413 952.673 52.3357C949.314 47.4489 946.645 42.1228 944.74 36.5075C944.309 35.3266 944.156 33.716 945.527 33.0309C945.963 32.8224 946.45 32.7462 946.929 32.8117C947.407 32.8771 947.856 33.0815 948.22 33.3993C948.883 34.1153 949.394 34.9595 949.719 35.8798C951.309 40.0238 952.35 44.3575 952.818 48.7712C952.876 46.7532 952.934 44.7351 952.961 42.7129C950.952 35.9113 949.892 28.8646 949.811 21.7729C949.767 20.2708 950.271 18.4074 952.029 18.0869C952.603 18.0336 953.181 18.142 953.696 18.3999C954.212 18.6577 954.645 19.0547 954.946 19.5459C955.451 20.5485 955.726 21.6508 955.752 22.7729C956.081 29.2509 955.393 35.7404 953.712 42.0053C953.574 43.0149 953.711 44.0623 953.722 45.1235C954.651 40.2848 956.102 35.5611 958.05 31.0353C958.515 29.9145 959.472 28.6118 960.977 29.0047C961.436 29.1564 961.843 29.4348 962.15 29.8078C962.457 30.1807 962.653 30.6331 962.715 31.1125C962.723 32.0824 962.528 33.0433 962.142 33.9328C960.103 39.1077 957.256 43.9258 953.705 48.2069C953.668 53.033 953.531 57.9076 953.337 62.7434C954.017 59.8843 955.065 57.1255 956.455 54.5362C958.138 51.4515 960.205 48.5924 962.606 46.0273C963.557 45.0042 965.127 44.0035 966.373 44.922C966.746 45.2478 967.014 45.6771 967.143 46.1552C967.271 46.6334 967.255 47.139 967.097 47.608C966.691 48.5648 966.128 49.4464 965.431 50.2163L959.466 57.1301C957.553 59.2683 955.566 61.4899 953.275 64.1063C953.132 67.2036 952.979 70.1436 952.783 73.1713C954.731 67.5957 957.721 62.4411 961.594 57.9822C962.483 56.9506 963.901 55.9291 965.19 56.76C965.585 57.057 965.883 57.4642 966.046 57.9303C966.21 58.3965 966.232 58.9006 966.109 59.3792C965.77 60.3254 965.27 61.206 964.631 61.9821C960.976 66.587 956.988 70.9168 952.697 74.9362C952.404 79.1349 952.053 83.2945 951.667 87.4807C952.278 84.2868 953.425 81.2191 955.059 78.4073C956.877 75.26 959.18 72.4194 961.883 69.9905C962.952 69.0146 964.659 68.1573 965.792 69.2163C966.126 69.5851 966.343 70.0454 966.415 70.5383C966.486 71.0312 966.409 71.5341 966.193 71.9827C965.71 72.8776 965.083 73.6869 964.338 74.3782C962.032 76.6498 960.035 78.7141 957.995 80.8662C955.955 83.0182 953.933 85.2662 951.622 88.0357C951.45 89.2901 951.283 90.5139 951.115 91.7377C951.104 91.9229 951.079 92.107 951.04 92.2884C950.726 94.5831 950.408 96.9084 950.273 99.2588C951.224 95.887 952.714 92.6911 954.685 89.795C956.971 86.4478 959.775 83.4858 962.992 81.0201C964.283 80.0123 966.362 79.1746 967.303 80.2696C967.614 80.6814 967.789 81.1804 967.802 81.6966C967.815 82.2127 967.667 82.72 967.377 83.1472C966.712 84.0946 965.914 84.9408 965.007 85.6593C962.221 88.021 959.828 90.2493 957.418 92.6001C955.008 94.9508 952.725 97.2877 950.131 100.299C949.913 101.89 949.712 103.359 949.482 105.041C949.478 105.165 949.461 105.288 949.432 105.408C949.202 107.091 948.971 108.774 948.737 110.487C949.984 107.77 951.61 105.243 953.567 102.982C956.3 99.7546 959.584 97.038 963.267 94.9588C964.76 94.0721 966.927 93.496 967.816 94.7397C968.058 95.2005 968.15 95.7252 968.08 96.2407C968.009 96.7562 967.78 97.2368 967.423 97.6158C967.022 98.0731 966.568 98.4817 966.072 98.8334C965.585 99.2032 965.067 99.5687 964.624 99.8509C961.709 101.783 958.913 103.888 956.249 106.154C953.636 108.249 951.153 110.501 948.812 112.898L948.557 114.764C948.214 117.273 947.871 119.782 947.523 122.321C948.983 119.274 950.933 116.488 953.296 114.072C955.925 111.327 958.965 109.009 962.309 107.202C963.628 106.447 965.594 105.968 966.449 107.238C966.676 107.686 966.761 108.192 966.693 108.69C966.625 109.187 966.407 109.652 966.068 110.022C965.35 110.837 964.498 111.521 963.547 112.046C960.623 113.828 958.056 115.503 955.428 117.169C952.8 118.835 950.312 120.614 947.356 122.859L946.122 130.514C950.241 125.964 955.33 122.4 961.014 120.084C962.168 119.619 963.791 119.373 964.563 120.57C964.753 121.009 964.819 121.493 964.754 121.967C964.689 122.442 964.496 122.89 964.194 123.262C963.532 123.93 962.75 124.468 961.889 124.848C956.779 127.219 951.459 129.11 945.999 130.497C945.55 133.781 944.98 137.038 944.288 140.268C948.539 135.847 953.87 132.612 959.754 130.883C961.023 130.495 962.743 130.45 963.332 131.84C963.501 132.3 963.532 132.799 963.422 133.276C963.313 133.754 963.067 134.189 962.715 134.53C961.971 135.147 961.113 135.612 960.19 135.898C957.344 136.88 954.794 137.747 952.153 138.601L944.157 140.998C943.739 144.058 942.983 147.071 942.351 150.101C944.18 148.131 946.312 146.466 948.667 145.168C951.578 143.533 954.747 142.406 958.037 141.837C959.35 141.581 961.164 141.767 961.491 143.245C961.578 143.718 961.534 144.206 961.362 144.655C961.191 145.104 960.899 145.498 960.519 145.793C959.717 146.309 958.822 146.663 957.883 146.835C955.018 147.502 952.493 148.185 949.846 148.852C947.199 149.518 944.993 150.151 942.155 151.072C941.45 154.404 940.714 157.732 939.952 161.025C941.932 158.779 944.3 156.907 946.942 155.498C949.727 154.026 952.728 153.006 955.833 152.476C957.081 152.242 958.742 152.406 959.1 153.889C959.203 154.356 959.176 154.841 959.02 155.293C958.865 155.745 958.588 156.145 958.22 156.449C957.463 156.942 956.623 157.292 955.741 157.482L939.66 161.11C939.136 163.344 938.581 165.575 938.027 167.806C939.668 165.6 941.814 163.82 944.285 162.615C947.362 161.105 950.772 160.402 954.196 160.574C954.919 160.611 955.627 160.803 956.269 161.138C956.568 161.304 956.816 161.55 956.984 161.848C957.153 162.146 957.235 162.485 957.222 162.827C957.17 163.304 956.994 163.759 956.711 164.147C956.428 164.535 956.049 164.842 955.611 165.038C955.186 165.201 954.742 165.308 954.289 165.356L952.997 165.459C950.405 165.515 947.824 165.83 945.294 166.4C943.992 166.648 942.707 166.982 941.448 167.401C940.204 167.793 938.984 168.261 937.797 168.803C937.079 171.541 936.362 174.279 935.618 176.982C939.199 173.822 943.643 171.803 948.38 171.186C948.66 171.109 948.952 171.09 949.239 171.131C949.527 171.171 949.803 171.269 950.05 171.42C950.298 171.571 950.513 171.77 950.681 172.007C950.849 172.243 950.967 172.511 951.027 172.795C951.109 173.244 951.083 173.705 950.953 174.142C950.823 174.579 950.592 174.979 950.278 175.31C949.663 175.742 948.964 176.04 948.226 176.183C945.988 176.594 943.981 176.911 941.86 177.151C939.739 177.39 937.853 177.506 935.552 177.69C934.218 182.432 932.826 187.135 931.286 191.787C931.185 192.521 929.799 192.176 929.995 191.423C931.526 185.929 933.027 180.43 934.435 174.919C929.952 173.801 925.391 173.021 920.791 172.585C920.229 172.603 919.68 172.407 919.257 172.037C918.833 171.666 918.566 171.149 918.508 170.589C918.45 170.125 918.522 169.654 918.718 169.229C918.914 168.804 919.225 168.442 919.616 168.185C920.427 167.833 921.316 167.697 922.195 167.79C924.764 168.015 927.26 168.759 929.532 169.978C931.47 171.068 933.196 172.497 934.628 174.198C935.448 171.089 936.246 167.988 937.023 164.894C932.006 163.74 927.04 162.219 922.456 160.875C921.44 160.549 920.227 159.853 920.401 158.35C920.474 157.882 920.672 157.442 920.974 157.077C921.276 156.713 921.672 156.437 922.118 156.278C923.015 156.122 923.937 156.184 924.805 156.459C929.573 157.798 933.874 160.437 937.227 164.081C937.952 161.063 938.647 158.26 939.329 155.329C934.091 152.836 928.648 149.785 923.42 147.449Z" fill="#265113"/>
<path fill-rule="evenodd" clip-rule="evenodd" d="M992.153 95.2101C1001.61 100.316 1004.74 110.461 1007.22 120.24C1007.2 120.375 1007.18 120.488 1007.32 120.645C1007.33 120.729 1007.32 120.814 1007.29 120.893C1008.23 123.013 1008.88 125.25 1009.23 127.544C1012.3 118.385 1015.75 109.395 1023.52 103.177C1023.63 103.081 1023.77 103.02 1023.91 103C1024.06 102.98 1024.21 103.002 1024.34 103.064C1024.48 103.126 1024.59 103.224 1024.67 103.348C1024.75 103.473 1024.79 103.617 1024.79 103.765C1024.93 114.671 1017.39 122.414 1009.93 129.432C1009.88 129.492 1009.81 129.54 1009.73 129.573C1009.66 129.606 1009.58 129.623 1009.49 129.624C1009.73 132.802 1009.7 135.994 1009.41 139.167C1009.34 139.663 1009.27 140.159 1009.2 140.655L1009.54 140.701C1016.58 131.171 1025.93 123.596 1036.71 118.695C1036.87 118.621 1037.04 118.599 1037.2 118.631C1037.36 118.662 1037.51 118.747 1037.63 118.871C1037.74 118.995 1037.81 119.152 1037.82 119.319C1037.84 119.486 1037.8 119.653 1037.71 119.796C1032.07 129.658 1021.24 141.315 1009.14 142.278L1009.28 142.296C1008.64 147.828 1007.6 153.305 1006.16 158.683L1006.3 158.701L1006.63 158.748C1013.67 149.223 1023.01 141.648 1033.79 136.738C1033.94 136.672 1034.11 136.655 1034.27 136.689C1034.43 136.723 1034.58 136.807 1034.69 136.928C1034.8 137.049 1034.87 137.203 1034.89 137.366C1034.91 137.53 1034.88 137.696 1034.81 137.842C1029.14 147.701 1018.33 159.361 1006.24 160.324C1006.08 160.365 1005.91 160.341 1005.76 160.259C1005.33 161.731 1004.87 163.276 1004.37 164.892C1004.3 165.078 1004.16 165.23 1003.99 165.318C1003.81 165.405 1003.61 165.422 1003.42 165.364C1003.23 165.305 1003.07 165.177 1002.97 165.005C1002.87 164.832 1002.85 164.629 1002.89 164.437C1003.76 161.777 1004.52 159.079 1005.19 156.346C996.981 149.227 986.343 136.999 985.654 125.581C985.595 124.838 986.534 124.691 986.984 125.097C995.54 132.561 1004.31 140.835 1006.23 152.307C1007 148.668 1007.58 144.989 1007.94 141.287C1008.21 139.371 1008.29 137.429 1008.37 135.488C999.716 130.078 990.755 123.891 988.819 113.198C988.79 113.05 988.805 112.897 988.862 112.758C988.919 112.619 989.015 112.499 989.139 112.414C989.263 112.328 989.409 112.281 989.559 112.277C989.709 112.274 989.857 112.314 989.985 112.393C998.557 116.896 1003.76 124.866 1008.47 133.113C1008.5 128.812 1007.5 124.566 1005.57 120.726C999.052 113.61 992.81 106.187 991.188 96.3873C991.094 96.2454 991.048 96.0771 991.056 95.9071C991.065 95.7371 991.128 95.5743 991.236 95.4427C991.344 95.311 991.491 95.2174 991.656 95.1756C991.821 95.1337 991.995 95.1458 992.153 95.2101Z" fill="#5EAD41"/>
<path fill-rule="evenodd" clip-rule="evenodd" d="M1037.29 198.045C1037.02 198.147 1037.94 201.051 1037.19 203.131C1035.93 206.656 1027.56 206.406 1029.57 200.572C1030.19 198.911 1031.27 197.428 1031.16 197.367C1030.5 197.863 1029.77 198.265 1029 198.564C1022.87 200.895 1020.35 190.1 1028.52 190.161C1029.85 190.182 1029.58 190.306 1028.61 189.439C1028.16 189.033 1027.52 188.577 1026.92 188.082C1026.34 187.59 1025.97 186.897 1025.88 186.142C1025.8 185.388 1026.01 184.63 1026.46 184.023C1027.84 182.19 1031.11 181.237 1032.66 183.217C1033.29 184.078 1033.83 184.999 1034.28 185.966C1036.08 189.633 1031.45 181.123 1037.68 179.103C1040.3 178.245 1043.06 179.702 1041.32 184.196C1041.05 184.854 1040.74 185.495 1040.39 186.113C1039.94 186.901 1039.97 187.02 1040.73 186.481C1041.73 185.667 1042.94 185.162 1044.22 185.028C1045.98 185.063 1048.3 188.734 1047.99 191.034C1047.54 194.326 1044.52 194.257 1042.63 194.297C1040.74 194.337 1040.28 194.665 1042.52 195.108C1043.27 195.237 1044.01 195.438 1044.73 195.71C1050.51 197.925 1044.01 206.499 1039.43 200.842C1038.34 199.475 1037.53 197.964 1037.52 198.054L1037.29 198.045ZM1038.13 194.922C1038.69 194.034 1037.27 193.678 1036.71 194.245C1036.15 194.811 1037.36 196.217 1038.13 194.922ZM1034.1 194.991C1035.25 196.02 1036.22 196.291 1035.98 194.375C1035.88 193.098 1035.37 191.421 1033.94 192.488C1033.76 192.65 1033.62 192.849 1033.53 193.071C1033.44 193.292 1033.4 193.532 1033.42 193.771C1033.43 194.01 1033.5 194.244 1033.61 194.454C1033.73 194.665 1033.89 194.847 1034.08 194.988L1034.1 194.991ZM1038.27 192.897C1039.57 191.627 1038.63 190.304 1037.35 190.727C1034.6 191.66 1036.71 194.428 1038.27 192.897ZM1036.05 190.802C1037.74 189.035 1035.3 188.953 1033.82 190.336C1032.35 191.719 1034.49 192.472 1036.1 190.808L1036.05 190.802Z" fill="#5EAD41"/>
<path fill-rule="evenodd" clip-rule="evenodd" d="M1034.67 98.5701C1034.11 99.0939 1033.71 99.7718 1033.53 100.519C1033.35 101.267 1033.39 102.05 1033.66 102.773C1033.66 102.773 1033.66 102.773 1033.77 102.927C1034.4 103.363 1035.15 103.606 1035.91 103.625C1036.68 103.644 1037.43 103.438 1038.08 103.033C1038.61 102.616 1039.07 102.112 1039.43 101.541C1039.41 102.212 1039.51 102.88 1039.74 103.513C1040.06 104.21 1040.58 104.797 1041.24 105.201C1041.89 105.605 1042.65 105.808 1043.42 105.785L1043.58 105.807C1044.19 105.343 1044.65 104.709 1044.91 103.984C1045.16 103.259 1045.2 102.475 1045.01 101.731C1044.78 101.096 1044.44 100.506 1044.01 99.9857C1044.65 100.2 1045.33 100.294 1046.01 100.26C1046.77 100.17 1047.49 99.8565 1048.07 99.359C1048.65 98.8615 1049.06 98.2028 1049.27 97.4668C1049.3 97.4119 1049.31 97.3475 1049.29 97.2865C1049.04 96.5584 1048.59 95.9201 1047.98 95.4523C1047.37 94.9845 1046.63 94.7081 1045.86 94.658C1045.19 94.6783 1044.54 94.8218 1043.92 95.0814C1044.32 94.5441 1044.62 93.9396 1044.81 93.2965C1044.96 92.5442 1044.88 91.7649 1044.59 91.0555C1044.3 90.346 1043.81 89.7376 1043.17 89.3058C1043.12 89.2772 1043.05 89.2685 1042.99 89.2811C1042.53 89.3113 1042.06 89.4027 1041.62 89.5531C1040.79 89.8402 1040.1 90.4143 1039.66 91.1715C1039.22 91.9287 1039.06 92.8188 1039.22 93.6803C1038.79 92.9427 1038.13 92.375 1037.33 92.0735C1036.54 91.772 1035.66 91.7553 1034.85 92.0262C1034.41 92.178 1034 92.3918 1033.62 92.6611C1033.6 92.6846 1033.59 92.7106 1033.59 92.7378C1033.59 92.7649 1033.59 92.7924 1033.6 92.8189C1033.37 93.5529 1033.36 94.338 1033.58 95.075C1033.8 95.812 1034.23 96.4679 1034.82 96.9601C1035.37 97.3333 1035.99 97.6043 1036.64 97.7603C1036 97.9672 1035.4 98.2727 1034.86 98.6655L1034.67 98.5701ZM1043.32 105.197C1042.68 105.215 1042.06 105.049 1041.51 104.718C1040.97 104.387 1040.54 103.906 1040.27 103.332C1039.82 101.697 1039.92 99.9575 1040.57 98.3904C1041.01 99.348 1041.37 100.342 1041.64 101.361C1041.68 101.414 1041.75 101.449 1041.82 101.459C1041.89 101.468 1041.96 101.452 1042.02 101.414C1042.06 101.402 1042.09 101.382 1042.12 101.357C1042.15 101.332 1042.17 101.301 1042.18 101.266C1042.2 101.231 1042.21 101.194 1042.21 101.156C1042.21 101.118 1042.2 101.08 1042.19 101.046L1041.21 98.2934C1041.7 98.6562 1042.23 98.9812 1042.77 99.2657C1043.56 99.9435 1044.15 100.817 1044.49 101.798C1044.64 102.414 1044.61 103.06 1044.4 103.659C1044.2 104.258 1043.82 104.784 1043.32 105.175L1043.32 105.197ZM1045.86 95.1633C1046.5 95.2162 1047.1 95.4499 1047.61 95.8365C1048.11 96.2232 1048.49 96.7466 1048.71 97.3446C1048.54 97.9405 1048.2 98.4758 1047.74 98.8881C1047.28 99.3005 1046.71 99.573 1046.09 99.6741C1044.4 99.5906 1042.79 98.9494 1041.5 97.8507C1042.54 97.7254 1043.59 97.6924 1044.63 97.7517C1044.7 97.7409 1044.77 97.707 1044.82 97.6554C1044.87 97.6039 1044.9 97.5375 1044.9 97.4669C1044.89 97.3946 1044.86 97.3274 1044.81 97.275C1044.76 97.2226 1044.69 97.1878 1044.62 97.1757L1041.69 97.2574C1042.2 96.9121 1042.67 96.5145 1043.1 96.0711C1043.96 95.5533 1044.94 95.2466 1045.95 95.1757L1045.86 95.1633ZM1039.96 91.8061C1040.47 90.1071 1042.52 89.8599 1042.9 89.774C1043.42 90.1363 1043.83 90.6413 1044.07 91.2284C1044.31 91.8155 1044.38 92.4598 1044.26 93.0841C1043.65 94.6599 1042.55 95.9983 1041.12 96.9035C1041.12 96.9035 1041.09 97.1065 1041.97 93.8733C1041.98 93.8398 1041.99 93.8044 1041.98 93.7694C1041.98 93.7343 1041.97 93.7004 1041.95 93.6698C1041.94 93.6392 1041.91 93.6127 1041.88 93.5919C1041.85 93.5712 1041.82 93.5566 1041.79 93.5493C1041.72 93.5316 1041.65 93.5378 1041.59 93.567C1041.52 93.5962 1041.47 93.6464 1041.44 93.709L1040.62 96.5138C1040.43 95.9392 1040.2 95.3782 1039.93 94.8347C1039.69 93.839 1039.7 92.7979 1039.96 91.8061ZM1040.52 97.3029C1040.58 97.2795 1040.66 97.2834 1040.72 97.3137C1040.79 97.344 1040.84 97.3983 1040.86 97.465C1040.87 97.4998 1040.88 97.5366 1040.88 97.5733C1040.87 97.61 1040.86 97.6458 1040.85 97.6788C1040.83 97.7118 1040.81 97.7412 1040.78 97.7654C1040.75 97.7897 1040.72 97.8082 1040.69 97.8201C1040.65 97.8319 1040.61 97.8367 1040.58 97.8344C1040.54 97.832 1040.51 97.8224 1040.47 97.8062C1040.44 97.7899 1040.41 97.7673 1040.39 97.7397C1040.36 97.7121 1040.34 97.68 1040.33 97.6452C1040.32 97.6106 1040.32 97.5742 1040.32 97.5382C1040.32 97.5022 1040.33 97.4673 1040.35 97.4354C1040.37 97.4036 1040.39 97.3755 1040.42 97.3527C1040.45 97.33 1040.48 97.3131 1040.52 97.3029ZM1034.94 96.4026C1034.65 96.2615 1034.38 96.0579 1034.17 95.806C1033.96 95.554 1033.81 95.2596 1033.72 94.9429C1033.64 94.6262 1033.62 94.2946 1033.68 93.971C1033.73 93.6474 1033.86 93.3394 1034.04 93.0681C1034.22 92.7968 1034.47 92.5686 1034.75 92.3992C1035.03 92.2298 1035.34 92.1231 1035.67 92.0866C1035.99 92.05 1036.32 92.0844 1036.64 92.1874C1036.95 92.2904 1037.23 92.4596 1037.47 92.6833C1038.8 93.7435 1039.74 95.2123 1040.14 96.861C1040.14 96.861 1040.32 97.0241 1037.53 95.1032C1037.49 95.0749 1037.44 95.0567 1037.39 95.0497C1037.34 95.0428 1037.29 95.0473 1037.24 95.063C1037.19 95.0839 1037.15 95.116 1037.13 95.1561C1037.1 95.1962 1037.08 95.2431 1037.07 95.2925C1037.07 95.3463 1037.09 95.3991 1037.11 95.4465C1037.14 95.4938 1037.17 95.5345 1037.22 95.5652L1039.61 97.2246C1039 97.2168 1038.38 97.256 1037.78 97.3416C1036.77 97.2665 1035.8 96.9439 1034.94 96.4026ZM1039.78 97.7997C1039.78 97.7997 1039.98 97.6891 1037.22 99.7459C1037.19 99.7676 1037.17 99.7947 1037.15 99.8257C1037.13 99.8567 1037.12 99.891 1037.11 99.9266C1037.11 99.9622 1037.11 99.9984 1037.12 100.033C1037.13 100.068 1037.14 100.101 1037.17 100.129C1037.19 100.161 1037.21 100.187 1037.24 100.208C1037.27 100.228 1037.31 100.241 1037.35 100.246C1037.38 100.251 1037.42 100.248 1037.45 100.237C1037.49 100.226 1037.52 100.207 1037.55 100.182L1039.88 98.4106C1039.68 98.9967 1039.54 99.5997 1039.45 100.212C1039.05 101.14 1038.43 101.961 1037.65 102.608C1037.43 102.849 1037.15 103.038 1036.85 103.162C1036.54 103.285 1036.21 103.341 1035.88 103.325C1035.55 103.308 1035.23 103.22 1034.93 103.066C1034.64 102.912 1034.39 102.697 1034.19 102.434C1033.98 102.172 1033.84 101.869 1033.77 101.546C1033.7 101.224 1033.7 100.889 1033.77 100.566C1033.84 100.244 1033.98 99.94 1034.18 99.6766C1034.38 99.4133 1034.63 99.1966 1034.93 99.0417C1036.35 98.0787 1038.07 97.6398 1039.78 97.7997Z" fill="#5EAD41"/>
<path fill-rule="evenodd" clip-rule="evenodd" d="M894.91 143.162C894.348 143.686 893.952 144.364 893.772 145.111C893.592 145.859 893.636 146.642 893.899 147.365L894.016 147.519C894.644 147.955 895.387 148.198 896.152 148.217C896.916 148.236 897.67 148.03 898.319 147.625C898.851 147.208 899.309 146.704 899.672 146.134C899.652 146.804 899.755 147.472 899.976 148.105C900.298 148.804 900.82 149.392 901.477 149.793C902.134 150.194 902.896 150.389 903.665 150.355C903.689 150.369 903.715 150.378 903.742 150.382C903.769 150.385 903.797 150.384 903.823 150.376C904.435 149.912 904.897 149.278 905.152 148.554C905.406 147.829 905.441 147.045 905.254 146.3C905.021 145.666 904.682 145.076 904.252 144.555C904.893 144.758 905.564 144.85 906.236 144.827C908.543 144.752 909.474 142.146 909.512 142.036C909.543 141.981 909.551 141.917 909.537 141.856C909.289 141.128 908.83 140.49 908.22 140.022C907.609 139.554 906.874 139.278 906.106 139.228C905.442 139.251 904.787 139.386 904.168 139.628C904.57 139.101 904.869 138.503 905.052 137.866C905.196 137.1 905.105 136.308 904.794 135.594C904.482 134.88 903.963 134.276 903.304 133.86C903.28 133.846 903.254 133.837 903.227 133.833C903.2 133.829 903.172 133.831 903.146 133.838C902.679 133.868 902.219 133.96 901.776 134.11C900.949 134.397 900.251 134.972 899.81 135.729C899.37 136.486 899.215 137.376 899.374 138.238C898.953 137.497 898.287 136.925 897.492 136.619C896.696 136.313 895.819 136.293 895.01 136.561C894.572 136.729 894.156 136.95 893.771 137.218C893.757 137.242 893.748 137.268 893.745 137.295C893.741 137.322 893.743 137.35 893.75 137.376C893.522 138.11 893.517 138.895 893.735 139.632C893.953 140.369 894.384 141.025 894.975 141.517C895.534 141.881 896.149 142.151 896.795 142.318C896.158 142.524 895.559 142.83 895.017 143.223L894.91 143.162ZM903.571 149.699C902.936 149.717 902.31 149.551 901.768 149.22C901.226 148.889 900.792 148.407 900.519 147.834C900.069 146.198 900.178 144.459 900.827 142.892C901.267 143.85 901.623 144.844 901.891 145.863C901.938 145.916 902.003 145.951 902.073 145.961C902.143 145.97 902.215 145.954 902.274 145.915C902.343 145.886 902.399 145.832 902.429 145.764C902.46 145.696 902.464 145.618 902.439 145.548L901.461 142.795C901.955 143.162 902.479 143.487 903.028 143.768C903.808 144.451 904.4 145.323 904.748 146.3C904.898 146.916 904.866 147.562 904.658 148.161C904.45 148.76 904.074 149.286 903.574 149.676L903.571 149.699ZM906.115 139.665C906.749 139.718 907.354 139.952 907.859 140.338C908.364 140.725 908.748 141.248 908.964 141.847C908.793 142.442 908.456 142.978 907.993 143.39C907.53 143.802 906.96 144.075 906.348 144.176C904.65 144.09 903.027 143.448 901.729 142.349C902.778 142.24 903.834 142.208 904.888 142.254C904.952 142.244 905.011 142.215 905.056 142.169C905.102 142.124 905.131 142.064 905.14 142.001C905.148 141.937 905.136 141.872 905.105 141.816C905.073 141.76 905.024 141.716 904.966 141.69L902.037 141.772C902.545 141.426 903.015 141.029 903.44 140.585C904.309 140.068 905.287 139.761 906.296 139.69L906.115 139.665ZM900.212 136.308C900.721 134.609 902.776 134.362 903.155 134.276C903.676 134.638 904.082 135.143 904.323 135.73C904.565 136.317 904.632 136.962 904.517 137.586C903.933 139.188 902.851 140.561 901.431 141.505C901.431 141.505 901.403 141.708 902.282 138.475C902.293 138.441 902.297 138.406 902.293 138.371C902.29 138.336 902.279 138.302 902.262 138.271C902.244 138.241 902.22 138.214 902.192 138.193C902.163 138.172 902.131 138.158 902.096 138.151C902.03 138.133 901.959 138.139 901.896 138.168C901.833 138.197 901.782 138.248 901.753 138.31L900.933 141.115C900.741 140.541 900.511 139.98 900.244 139.436C899.999 138.44 900.007 137.399 900.268 136.407L900.212 136.308ZM900.747 141.802C900.782 141.787 900.819 141.779 900.857 141.779C900.895 141.78 900.933 141.788 900.967 141.803C901.002 141.819 901.033 141.841 901.058 141.87C901.084 141.898 901.103 141.931 901.115 141.967C901.127 142.002 901.132 142.039 901.129 142.075C901.127 142.112 901.117 142.148 901.101 142.181C901.085 142.214 901.062 142.243 901.034 142.267C901.007 142.292 900.975 142.31 900.94 142.322C900.905 142.334 900.868 142.339 900.832 142.336C900.795 142.334 900.759 142.324 900.726 142.308C900.693 142.292 900.664 142.269 900.64 142.242C900.615 142.214 900.597 142.182 900.585 142.147C900.547 142.091 900.532 142.024 900.541 141.957C900.55 141.891 900.583 141.83 900.634 141.786L900.747 141.802ZM895.196 140.904C894.9 140.763 894.638 140.56 894.428 140.308C894.217 140.056 894.064 139.761 893.978 139.445C893.893 139.128 893.876 138.797 893.931 138.473C893.985 138.149 894.109 137.841 894.293 137.57C894.478 137.299 894.719 137.07 895 136.901C895.281 136.732 895.595 136.625 895.922 136.588C896.248 136.552 896.578 136.586 896.889 136.689C897.201 136.792 897.487 136.961 897.727 137.185C899.046 138.251 899.982 139.718 900.394 141.363C900.394 141.363 900.578 141.526 897.786 139.605C897.746 139.571 897.697 139.549 897.645 139.542C897.593 139.535 897.54 139.543 897.493 139.565C897.448 139.586 897.408 139.618 897.379 139.658C897.349 139.698 897.33 139.745 897.324 139.794C897.32 139.849 897.332 139.903 897.358 139.951C897.384 140 897.423 140.04 897.47 140.067L899.861 141.727C899.249 141.719 898.637 141.758 898.031 141.844C897.023 141.768 896.05 141.446 895.196 140.904ZM900.039 142.279C900.039 142.279 900.219 142.304 897.475 144.225C897.447 144.247 897.423 144.274 897.404 144.305C897.386 144.336 897.374 144.37 897.37 144.406C897.365 144.442 897.367 144.478 897.376 144.513C897.385 144.547 897.401 144.58 897.423 144.608C897.442 144.64 897.468 144.667 897.499 144.687C897.53 144.707 897.565 144.72 897.602 144.725C897.639 144.73 897.676 144.727 897.711 144.716C897.747 144.705 897.779 144.686 897.806 144.661L900.139 142.89C899.942 143.468 899.799 144.064 899.712 144.669C899.312 145.607 898.694 146.435 897.911 147.087C897.369 147.413 896.746 147.58 896.113 147.566C895.481 147.553 894.865 147.361 894.338 147.012C894.121 146.411 894.085 145.76 894.235 145.139C894.386 144.518 894.715 143.956 895.183 143.521C896.618 142.587 898.327 142.165 900.032 142.324L900.039 142.279Z" fill="#5EAD41"/>
<path fill-rule="evenodd" clip-rule="evenodd" d="M628.355 123.286C611.384 132.838 605.998 151.232 601.933 169.016C601.887 169.285 601.887 169.56 601.933 169.829C601.933 169.829 601.933 169.829 601.933 170.337C600.276 174.163 599.147 178.197 598.579 182.328C594.144 165.434 584.809 150.23 571.75 138.631C571.554 138.438 571.302 138.311 571.03 138.268C570.758 138.225 570.479 138.268 570.233 138.391C569.987 138.514 569.785 138.711 569.656 138.955C569.527 139.198 569.478 139.476 569.515 139.749C569.515 159.463 583.437 173.182 597.258 185.58C597.489 185.658 597.738 185.658 597.969 185.58C597.683 191.343 597.853 197.12 598.477 202.856V205.6H597.766C584.786 188.589 567.634 175.218 547.97 166.78C547.704 166.669 547.41 166.642 547.128 166.701C546.846 166.761 546.588 166.905 546.39 167.115C546.191 167.324 546.061 167.589 546.017 167.874C545.973 168.159 546.016 168.451 546.141 168.711C556.303 186.393 576.628 207.124 598.579 208.445C599.836 218.447 601.875 228.334 604.676 238.017H603.863C590.911 221.287 573.963 208.079 554.576 199.604C554.303 199.505 554.006 199.491 553.725 199.566C553.445 199.64 553.193 199.798 553.005 200.02C552.817 200.241 552.701 200.514 552.673 200.803C552.645 201.093 552.706 201.383 552.848 201.636C563.011 219.319 583.335 239.948 605.185 241.269C605.478 241.388 605.806 241.388 606.099 241.269C606.912 244.013 607.827 246.858 608.741 249.602C609.656 252.346 611.993 250.415 611.384 248.688C609.758 243.911 608.233 239.033 606.912 234.156C621.546 221.046 640.346 198.588 641.159 177.857C641.159 176.536 639.533 176.333 638.72 177.044C623.579 190.865 608.233 206.108 604.981 226.839C603.559 220.335 602.339 213.73 601.526 207.022C601.526 203.567 600.815 200.011 600.612 196.86C616.058 186.698 632.115 175.418 635.164 156.211C635.233 155.95 635.221 155.673 635.128 155.419C635.035 155.165 634.866 154.945 634.644 154.79C634.423 154.635 634.159 154.551 633.888 154.551C633.617 154.551 633.353 154.634 633.131 154.789C618.722 164.007 607.342 177.259 600.408 192.897C600.178 185.147 601.78 177.453 605.083 170.439C617.659 158.403 626.392 142.916 630.184 125.928C630.534 125.685 630.774 125.314 630.85 124.894C630.927 124.475 630.833 124.043 630.591 123.692C630.348 123.342 629.976 123.102 629.557 123.026C629.138 122.95 628.705 123.043 628.355 123.286Z" fill="#265113"/>
<path fill-rule="evenodd" clip-rule="evenodd" d="M1237.89 272.212C1236.77 265.144 1236.08 258.017 1235.8 250.868C1236.03 251.054 1236.31 251.156 1236.6 251.154C1238.52 251.312 1240.44 251.023 1242.23 250.31C1244.01 249.596 1245.61 248.478 1246.89 247.043C1248.39 245.266 1251.01 240.971 1249.5 238.534C1247.98 236.097 1242.67 238.48 1240.64 239.402C1238.69 240.271 1236.95 241.55 1235.53 243.151C1235.42 236.218 1235.5 229.171 1235.57 222.053L1236 221.969C1237.55 222.596 1239.21 222.9 1240.88 222.861C1242.56 222.822 1244.2 222.442 1245.72 221.743C1247.93 220.566 1252.14 216.772 1251.53 213.71C1250.93 210.648 1245.21 211.706 1242.99 212.072C1240.18 212.459 1237.56 213.702 1235.48 215.633C1235.57 208.216 1235.74 201.226 1235.65 194.065L1236.08 193.98C1238.01 193.928 1239.91 193.409 1241.61 192.468C1243.3 191.527 1244.74 190.191 1245.81 188.573C1247.21 186.668 1249.86 183.626 1246.98 181.756C1245.51 181.189 1243.94 180.955 1242.38 181.073C1240.81 181.191 1239.3 181.658 1237.93 182.438C1237.04 182.912 1236.21 183.499 1235.47 184.185C1235.27 176.824 1234.85 169.876 1234 162.942C1236.86 161.376 1239.16 158.957 1240.58 156.023C1242 153.089 1242.47 149.784 1241.93 146.569C1241.84 146.351 1241.71 146.155 1241.54 145.997C1241.37 145.838 1241.16 145.722 1240.93 145.656C1238.99 145.4 1237.01 145.892 1235.41 147.033C1233.81 148.175 1232.7 149.88 1232.31 151.806C1231.17 145.469 1229.49 139.242 1227.29 133.19C1229.77 131.265 1231.64 128.665 1232.68 125.702C1233.72 122.74 1233.89 119.541 1233.16 116.487C1233.08 116.234 1232.92 116.009 1232.72 115.84C1232.52 115.67 1232.27 115.563 1232 115.531C1230.5 115.382 1228.99 115.705 1227.68 116.456C1226.37 117.206 1225.32 118.347 1224.69 119.718C1223.94 120.97 1223.33 122.307 1222.89 123.702C1219.97 117.878 1216.4 112.404 1212.25 107.383C1213.7 104.718 1214.36 101.704 1214.18 98.6799C1214 95.6561 1212.98 92.743 1211.23 90.2689C1211.05 90.0081 1210.79 89.8087 1210.49 89.6965C1210.19 89.5843 1209.86 89.5644 1209.55 89.6396C1208.07 90.1118 1206.78 91.0462 1205.87 92.3053C1204.96 93.5645 1204.48 95.0822 1204.5 96.6352C1204.63 97.2761 1204.34 98.0728 1204.32 98.7419L1201.61 96.2458C1202 91.7403 1201.28 87.2085 1199.51 83.0452C1198.42 80.5235 1195.25 76.4892 1192.4 79.6447C1191.61 80.9606 1191.11 82.4348 1190.96 83.9626C1190.8 85.4903 1190.98 87.034 1191.49 88.4838C1192.03 90.5605 1193.02 92.4917 1194.39 94.1385C1195.77 95.7852 1197.49 97.1065 1199.44 98.0074C1201.08 99.3665 1202.65 100.809 1204.15 102.329C1202.06 101.984 1199.94 101.98 1197.85 102.318C1195.93 102.699 1191.3 103.247 1191.18 106.008C1191.06 108.77 1196.75 111.712 1199.72 111.717C1203.47 112.133 1207.25 111.067 1210.23 108.746C1213.96 113.405 1217.19 118.445 1219.87 123.782C1218.07 122.886 1216.13 122.319 1214.14 122.106C1212 121.789 1208.64 121.271 1208.64 124.232C1208.87 125.893 1209.49 127.475 1210.44 128.854C1211.4 130.233 1212.66 131.369 1214.13 132.171C1217.19 133.888 1220.77 134.392 1224.18 133.584C1226.17 139.145 1227.77 144.837 1228.96 150.619C1226.65 147.612 1223.26 145.629 1219.51 145.093C1219.27 145.096 1219.04 145.168 1218.84 145.299C1218.64 145.43 1218.49 145.614 1218.39 145.831C1217.67 147.48 1217.38 149.287 1217.55 151.08C1217.73 152.872 1218.36 154.59 1219.39 156.069C1220.6 157.853 1222.18 159.354 1224.02 160.471C1225.86 161.587 1227.93 162.291 1230.07 162.536C1230.34 162.552 1230.61 162.498 1230.85 162.381C1231.78 169.937 1232.32 177.536 1232.48 185.148C1231.74 183.274 1230.54 181.618 1228.99 180.333C1227.45 179.048 1225.6 178.177 1223.62 177.801C1223.45 177.763 1223.27 177.76 1223.09 177.793C1222.92 177.826 1222.76 177.893 1222.61 177.991C1222.46 178.09 1222.34 178.216 1222.24 178.364C1222.15 178.512 1222.08 178.678 1222.05 178.851C1221.64 180.409 1221.6 182.037 1221.91 183.616C1222.22 185.194 1222.89 186.681 1223.86 187.966C1226.35 190.272 1229.52 191.719 1232.89 192.096C1232.95 198.744 1232.88 205.492 1232.73 212.183C1231.77 210.626 1230.52 209.275 1229.04 208.209C1227.55 207.143 1225.87 206.384 1224.09 205.975C1223.8 205.921 1223.5 205.964 1223.23 206.097C1222.96 206.23 1222.75 206.446 1222.61 206.713C1222.19 208.066 1222.05 209.49 1222.21 210.898C1222.36 212.306 1222.8 213.668 1223.49 214.9C1224.4 216.428 1225.64 217.734 1227.11 218.722C1228.59 219.71 1230.27 220.355 1232.03 220.609L1232.45 220.525C1232.33 228.468 1232.18 236.341 1232.37 244C1231.05 242.147 1229.3 240.646 1227.27 239.629C1225.23 238.613 1222.98 238.112 1220.7 238.172C1220.4 238.175 1220.11 238.283 1219.88 238.478C1219.65 238.672 1219.49 238.94 1219.44 239.237C1219.37 240.782 1219.64 242.322 1220.23 243.752C1220.82 245.181 1221.72 246.465 1222.85 247.514C1225.49 249.611 1228.85 250.592 1232.2 250.25L1232.56 250.179C1232.78 257.603 1233.46 265.006 1234.58 272.348C1234.92 274.057 1237.56 273.905 1237.3 272.253L1237.89 272.212Z" fill="#265113"/>
<path fill-rule="evenodd" clip-rule="evenodd" d="M1318.82 235.974C1314.7 228.791 1309.92 218.92 1305.94 210.849L1298.82 196.685L1302.11 199.878C1304.11 201.901 1307 204.737 1310 208.107C1316.58 215.114 1322.41 222.795 1327.39 231.024C1329.04 233.844 1330.54 236.75 1331.88 239.729C1333.96 233.878 1335.96 228.008 1337.81 222.097C1337.11 222.004 1336.45 221.69 1335.94 221.2C1332.54 217.657 1329.72 213.592 1327.6 209.16C1323.48 201.977 1318.72 192.028 1314.72 184.036L1307.6 169.871L1310.89 173.065C1312.91 175.009 1315.7 177.903 1318.8 181.214C1325.36 188.265 1331.18 195.971 1336.17 204.21C1337.84 207.043 1339.33 209.976 1340.64 212.994C1342.65 205.111 1345.14 197.348 1347.15 189.465C1345.16 189.376 1341.82 187.011 1334.51 178.845C1324.91 167.259 1316.11 155.024 1308.19 142.228C1320.11 151.447 1331.37 161.478 1341.9 172.251C1344.55 175.053 1346.98 178.06 1349.17 181.246L1349.61 179.511C1349.52 179.111 1349.53 178.696 1349.63 178.298C1349.73 177.901 1349.92 177.534 1350.19 177.225L1352.11 169.736C1352.71 167.371 1353.32 165.006 1353.51 162.619C1353.01 162.906 1352.43 163.03 1351.86 162.974C1351.29 162.918 1350.75 162.685 1350.31 162.308C1346.96 159.249 1344.1 155.687 1341.85 151.748C1337.68 145.393 1332.82 136.509 1328.69 129.325L1321.46 116.561L1324.72 119.241C1326.81 120.949 1329.53 123.409 1332.58 126.286C1339.16 132.272 1345.05 138.987 1350.12 146.303C1351.96 148.998 1353.59 151.829 1355.01 154.773C1356.04 148.74 1357.08 142.706 1357.96 136.633C1356.15 136.17 1353.18 134.32 1346.82 125.389C1338.93 113.641 1331.9 101.348 1325.75 88.6006C1336.11 98.2543 1345.77 108.636 1354.66 119.666C1356.64 122.438 1358.18 124.597 1359.32 126.398C1359.34 126.153 1359.4 125.914 1359.5 125.688C1359.26 125.265 1359.13 124.789 1359.12 124.303C1359.12 123.817 1359.23 123.337 1359.45 122.906L1359.67 122.039C1360.17 118.134 1360.66 113.894 1360.98 110.363C1359.1 110.472 1356.59 108.486 1351.13 99.9543C1344.77 88.9086 1339.3 77.3736 1334.77 65.4586C1343.7 74.4761 1351.88 84.2045 1359.23 94.5479L1361.71 98.6253C1362.11 93.1282 1362.43 87.6111 1362.67 82.0738C1360.77 82.5972 1358.33 80.9671 1352.12 70.4777C1345.98 58.3697 1340.77 45.8098 1336.54 32.9075C1345.49 43.1101 1353.66 53.9827 1360.96 65.4303C1361.9 67.0136 1362.7 68.4778 1363.36 69.8229C1363.48 66.7451 1363.61 63.5883 1363.65 60.4904C1361.84 60.0276 1360.33 56.705 1359.17 45.1553C1358.21 31.2074 1358.22 17.2083 1359.22 3.26175C1363.34 16.8071 1366.48 30.6321 1368.62 44.6297L1369.11 49.6247C1375.62 40.1669 1382.87 31.236 1390.78 22.9143C1387.09 34.3125 1382.41 45.3685 1376.81 55.9577C1370.64 66.3069 1368.47 66.5921 1366.38 65.5557C1366.45 71.8706 1366.33 78.2242 1366.07 84.5375C1367.06 83.2795 1368.35 81.8454 1369.95 80.1562C1375.57 74.6568 1381.91 69.9481 1388.8 66.1598C1392.05 64.3012 1394.93 62.8553 1397.05 61.8001L1400.47 60.2383L1397.99 63.0479L1391.96 69.905C1387.22 75.328 1381.7 82.1481 1377.12 86.9404C1374.57 89.9937 1371.52 92.5939 1368.1 94.6313C1367.69 94.8155 1367.25 94.8979 1366.8 94.8716C1366.36 94.8454 1365.92 94.7112 1365.54 94.4805C1365.28 98.1102 1364.95 101.72 1364.63 105.25C1364.82 105.758 1364.9 106.302 1364.85 106.842C1364.8 107.382 1364.62 107.903 1364.34 108.367C1364.03 111.562 1363.74 114.679 1363.35 117.854C1364.48 116.715 1365.8 115.458 1367.43 114.026C1372.62 109.473 1379.85 103.846 1385.61 99.0197C1388.58 96.5875 1391.16 94.3901 1392.98 92.5047L1395.99 89.9147L1394.26 93.4187C1393.1 95.6429 1391.51 98.595 1389.48 101.94C1385.25 109 1380.07 115.447 1374.1 121.104C1371.15 124.265 1367.51 126.699 1363.47 128.214C1363 128.336 1362.51 128.354 1362.03 128.266C1361.73 129.449 1361.44 130.552 1361.14 131.735C1361.22 132.136 1361.21 132.548 1361.11 132.943C1361.01 133.339 1360.82 133.707 1360.56 134.021C1360.04 138.005 1359.33 142.106 1358.68 145.97L1359.29 145.539C1361.02 144.383 1363.29 143.033 1366.3 141.114C1369.31 139.195 1372.93 137.18 1376.19 135.243C1379.45 133.305 1383.41 130.622 1386.36 128.268C1389.31 125.915 1392.23 123.719 1394.29 121.894L1397.32 119.225C1397.32 119.225 1396.93 120.723 1395.46 122.867C1393.79 125.857 1391.96 128.753 1389.98 131.542C1387.34 135.073 1384.44 138.403 1381.3 141.504C1378.12 144.531 1374.62 147.212 1370.87 149.503C1368.35 151.148 1365.67 152.517 1362.86 153.588C1361.39 154.23 1359.82 154.597 1358.22 154.67C1357.64 154.692 1357.07 154.546 1356.57 154.248C1355.24 159.451 1354.54 164.815 1353.48 170.256C1353.2 171.36 1352.92 172.463 1352.66 173.488C1354.18 172.45 1356.16 171.276 1358.63 169.808C1364.73 166.325 1373.09 162.499 1379.87 159.276L1391.97 153.969C1391.97 153.969 1391.02 155.069 1389.31 156.817C1387.6 158.565 1385.38 161.021 1382.65 163.513C1376.88 169.216 1370.5 174.26 1363.62 178.555C1360.1 180.985 1356.1 182.628 1351.9 183.371C1351.43 183.372 1350.97 183.254 1350.56 183.029C1348.64 190.518 1346.73 198.007 1344.82 205.496C1346.94 204.106 1349.88 202.423 1353.96 200.273C1361.53 196.245 1371.87 191.58 1380.17 187.655L1394.98 180.604L1391.61 183.942C1389.49 186.003 1386.44 188.751 1382.89 191.792C1375.39 198.329 1367.25 204.099 1358.6 209.018C1354.21 211.788 1349.34 213.705 1344.24 214.669C1343.61 214.652 1342.99 214.494 1342.43 214.207C1340.75 220.75 1338.51 227.231 1336.37 233.653C1339.85 231.814 1343.43 230.178 1347.1 228.753C1354.99 225.477 1365.66 221.82 1374.76 219.023L1390.12 213.456C1390.12 213.456 1388.83 214.554 1386.43 216.378C1384.04 218.201 1380.87 220.751 1376.99 223.455C1368.93 229.236 1360.3 234.179 1351.23 238.206C1346.58 240.654 1341.52 242.208 1336.3 242.79C1335.46 242.894 1334.62 242.679 1333.94 242.186C1328.08 259.077 1321.25 275.614 1313.48 291.714C1312.98 293.685 1309.77 292.11 1310.61 290.141C1316.56 276.712 1322.09 263.15 1327.21 249.454C1326.7 249.283 1326.23 249.02 1325.82 248.677C1322.88 244.809 1320.52 240.529 1318.82 235.974Z" fill="#5EAD41"/>
<path fill-rule="evenodd" clip-rule="evenodd" d="M1144.45 129.855C1144.2 129.245 1143.94 128.533 1143.64 127.821C1143.23 126.651 1142.67 125.329 1141.91 124.159C1140.53 122.074 1138.5 120.446 1135.24 120.701C1132.35 120.955 1130.06 122.176 1128.53 124.362C1128.33 124.617 1127.67 126.142 1128.94 125.38C1129.29 125.176 1129.7 124.922 1130.16 124.718C1132.8 123.345 1134.63 122.888 1136.16 123.447C1138.55 124.312 1140.58 127.821 1140.69 130.313C1140.69 131.533 1140.53 132.703 1140.43 133.669C1140.33 135.297 1140.84 136.365 1139.87 135.399C1139.16 134.687 1139.16 133.212 1138.8 132.449C1137.89 130.465 1135.5 127.922 1133.06 128.38C1131.12 128.736 1129.45 130.465 1130.06 130.415C1130.21 130.415 1130.57 130.313 1131.12 130.008C1132.45 129.397 1133.36 129.499 1134.99 130.923C1136.77 132.449 1138.45 136.975 1137.38 139.315C1137.28 139.569 1137.13 139.722 1137.02 139.823C1136.31 140.332 1136.26 139.62 1136.31 139.111C1136.36 138.247 1136.16 137.331 1135.75 136.416C1135.24 135.297 1134.38 134.28 1133.36 133.669C1131.48 132.551 1128.53 133.568 1126.55 134.229C1125.94 134.432 1125.53 134.636 1125.48 134.738C1125.48 134.839 1126.24 134.738 1127.26 134.687C1131.94 134.178 1133.41 136.467 1133.92 139.722C1134.07 140.586 1134.43 144.757 1133.92 146.791C1133.77 147.452 1133.62 148.012 1133.16 148.012C1132.75 148.012 1132.96 146.689 1132.8 145.774C1132.6 144.502 1132.35 143.282 1131.84 142.265C1131.43 141.502 1130.92 140.841 1130.16 140.383C1129.65 140.078 1129.19 139.976 1128.73 139.976C1125.33 139.976 1128.23 140.891 1128.94 141.807C1131.33 144.655 1128.79 151.673 1128.28 151.775C1127.97 151.826 1127.97 150.148 1127.36 148.215C1126.85 146.588 1125.99 144.807 1124.21 143.638C1121.51 141.909 1122.99 148.266 1123.09 149.436C1123.34 152.385 1123.09 155.233 1122.07 157.776C1121.26 159.709 1119.94 161.387 1117.9 162.811C1115.97 164.134 1112.21 165.863 1112.31 168.66C1112.46 171.559 1111.75 175.322 1114.14 177.153C1115.56 178.221 1117.14 178.12 1118.77 178.272C1119.58 178.323 1119.38 178.679 1118.72 178.832C1116.78 179.239 1114.14 179.137 1112.21 179.544C1110.88 179.798 1109.46 180.459 1108.29 180.815C1107.53 181.019 1104.93 181.222 1104.07 181.273C1100.41 181.527 1101.47 181.019 1103.71 180.561C1106.31 180.052 1108.7 179.289 1108.65 179.086C1108.54 178.628 1105.64 179.951 1103.66 179.798C1102.24 179.696 1101.02 179.544 1101.73 179.34C1103 178.984 1110.83 177.916 1111.04 177.001C1111.14 176.441 1111.14 175.526 1111.04 175.119C1110.78 174.102 1110.02 173.339 1109.2 172.169C1106.97 168.863 1101.42 164.49 1097.41 163.676C1096.9 167.592 1096.03 167.999 1092.83 170.237C1091 171.508 1089.93 172.017 1089.12 173.339C1088.66 174.051 1088.05 174.966 1087.9 176.39C1087.9 176.848 1087.74 176.95 1088.2 177.102C1089.37 177.509 1092.88 177.967 1089.22 178.221C1088.66 178.221 1088.05 178.018 1087.13 178.069C1083.37 178.374 1087.9 182.29 1076.5 179.951C1072.94 179.239 1071.98 179.34 1074.93 178.984C1076.15 178.832 1077.83 178.883 1079.1 178.832C1080.27 178.832 1081.39 178.73 1081.54 178.425C1081.64 178.221 1078.79 178.171 1076.55 177.916C1075.23 177.764 1073.96 177.306 1073.96 177.255C1073.81 176.746 1081.08 177.001 1084.08 175.933C1086.88 174.916 1087.64 172.576 1088.45 167.439C1088.76 165.558 1088.35 164.083 1088.1 163.676C1086.73 161.438 1082.91 159.912 1081.54 158.081C1079.86 155.945 1078.69 154.064 1077.93 152.131C1077.42 150.809 1077.06 149.436 1076.91 147.91C1076.86 147.401 1076.81 144.299 1076.35 144.197C1075.89 144.095 1075.94 145.062 1075.79 145.265C1075.44 145.774 1074.11 142.417 1073.25 138.552C1072.13 133.517 1072.23 131.533 1073.91 126.905C1074.72 124.617 1077.01 119.226 1075.79 116.886C1075.13 115.615 1074.27 115.157 1073.55 116.022C1073.35 116.276 1073.25 116.479 1073.15 116.683C1071.87 119.378 1067.6 117.853 1068.16 114.699C1068.42 113.224 1069.74 112.258 1069.08 111.241C1068.57 110.376 1066.74 110.02 1065.06 110.682C1064.96 110.682 1064.86 109.817 1065.92 108.647C1067.55 106.816 1070.04 106.308 1072.49 105.952C1072.74 105.952 1072.94 105.748 1072.79 105.545C1072.74 105.443 1072.64 105.392 1072.54 105.291C1071.42 103.867 1070.6 101.171 1071.67 99.1876C1072.74 97.2041 1075.54 100.154 1076.05 99.8996C1076.05 99.8996 1075.64 96.9498 1077.93 97.0007C1078.59 97.0007 1079.05 97.1532 1079.35 97.3567C1080.42 98.0687 1079.86 99.9504 1080.27 100.052C1081.13 100.256 1081.54 96.7464 1085.1 97.7127C1086.22 98.0178 1087.08 98.7298 1087.08 99.391C1087.13 100.306 1086.67 100.713 1085.86 101.324C1083.42 103.053 1087.13 100.408 1088.25 103.256C1089.22 105.596 1085.91 105.697 1084.54 106.053C1083.11 106.409 1083.32 106.511 1084.08 106.969C1085 107.477 1086.78 108.342 1088.35 109.868C1091.25 112.665 1092.47 116.123 1093.39 119.429C1094.96 125.227 1095.73 130.465 1103.46 130.262C1110.02 130.059 1117.44 124.566 1117.8 118.514C1118 114.801 1118.56 112.818 1119.89 111.495C1121.16 110.173 1123.14 109.461 1126.29 108.393C1127.87 107.884 1131.68 106.359 1128.07 109.308C1126.75 110.376 1125.12 110.631 1124.36 112.462C1123.6 114.343 1124.26 114.14 1125.68 113.326C1126.4 112.919 1127.21 112.462 1127.87 112.258C1131.38 111.139 1134.18 110.936 1136.52 111.75C1139.72 112.868 1144.09 118.31 1145.26 121.311C1146.23 123.701 1145.72 126.193 1145.72 128.329C1145.72 130.313 1146.43 134.026 1144.6 129.753L1144.45 129.855Z" fill="#D7B46A"/>
<path fill-rule="evenodd" clip-rule="evenodd" d="M1101.78 133.567C1085.96 132.245 1079.05 147.045 1096.44 154.012C1102.08 156.301 1108.75 156.098 1114.9 154.47C1117.8 153.707 1114.7 153.199 1112.41 151.063C1115.51 149.842 1118.61 151.876 1114.44 147.706C1110.78 144.044 1121 147.604 1112.87 141.654C1112.26 141.247 1107.63 138.348 1107.88 137.484C1109.2 137.382 1110.98 137.636 1108.19 135.907C1106.25 134.737 1104.12 133.974 1101.73 133.567H1101.78Z" fill="#B28100"/>
<mask id="mask0_313_5250" style="mask-type:alpha" maskUnits="userSpaceOnUse" x="1086" y="133" width="31" height="23">
<path fill-rule="evenodd" clip-rule="evenodd" d="M1101.78 133.567C1085.96 132.245 1079.05 147.045 1096.44 154.012C1102.08 156.301 1108.75 156.098 1114.9 154.47C1117.8 153.707 1114.7 153.199 1112.41 151.063C1115.51 149.842 1118.61 151.876 1114.44 147.706C1110.78 144.044 1121 147.604 1112.87 141.654C1112.26 141.247 1107.63 138.348 1107.88 137.484C1109.2 137.382 1110.98 137.636 1108.19 135.907C1106.25 134.737 1104.12 133.974 1101.73 133.567H1101.78Z" fill="#B28100"/>
</mask>
<g mask="url(#mask0_313_5250)">
<path fill-rule="evenodd" clip-rule="evenodd" d="M1089.07 142.57C1089.07 142.57 1088.56 142.722 1088.46 143.18C1088.46 143.333 1088.46 143.536 1088.51 143.79C1088.61 144.095 1088.71 144.299 1088.91 144.401C1089.22 144.553 1089.58 144.401 1089.83 144.299C1089.98 144.248 1090.13 144.146 1090.24 143.994C1090.44 143.739 1090.44 143.333 1090.24 143.027C1089.98 142.722 1089.52 142.519 1089.07 142.621V142.57ZM1088.86 146.232C1088.86 146.232 1088.86 146.333 1088.91 146.384C1088.91 146.384 1088.97 146.384 1089.02 146.384C1089.02 146.384 1089.02 146.384 1089.07 146.384C1089.12 146.384 1089.17 146.231 1089.17 146.181C1089.17 146.181 1089.12 146.13 1089.07 146.079C1088.97 146.079 1088.91 146.079 1088.86 146.079C1088.86 146.079 1088.86 146.079 1088.86 146.181V146.232ZM1091.76 144.604C1091.76 144.604 1091.76 144.604 1091.86 144.604C1091.86 144.604 1091.97 144.604 1092.02 144.604C1092.02 144.604 1092.07 144.553 1092.07 144.502C1092.07 144.502 1092.07 144.502 1092.07 144.451C1092.07 144.401 1091.97 144.35 1091.92 144.35C1091.92 144.35 1091.86 144.35 1091.81 144.451C1091.81 144.451 1091.81 144.604 1091.81 144.655L1091.76 144.604ZM1091.81 143.18C1091.81 143.18 1091.81 143.18 1091.86 143.18C1091.86 143.18 1091.92 143.18 1091.97 143.129V143.078C1091.97 143.078 1091.92 143.078 1091.86 143.078C1091.86 143.078 1091.86 143.078 1091.86 143.129C1091.86 143.18 1091.86 143.231 1091.92 143.282L1091.81 143.18ZM1089.88 141.146C1089.88 141.146 1089.88 141.044 1089.88 140.993C1089.88 140.993 1089.83 140.993 1089.83 141.095V141.146C1089.83 141.146 1089.93 141.197 1089.98 141.197H1090.03L1089.88 141.146ZM1087.34 142.112C1087.34 142.112 1087.24 142.112 1087.19 142.112C1087.19 142.112 1087.19 142.112 1087.19 142.163C1087.19 142.163 1087.19 142.214 1087.24 142.265C1087.24 142.265 1087.24 142.265 1087.29 142.265C1087.29 142.265 1087.39 142.214 1087.39 142.163C1087.39 142.163 1087.39 142.112 1087.39 142.061L1087.34 142.112ZM1086.63 143.383C1086.63 143.383 1086.63 143.383 1086.52 143.383C1086.52 143.383 1086.42 143.383 1086.37 143.485V143.587C1086.37 143.587 1086.37 143.587 1086.37 143.638C1086.42 143.689 1086.52 143.739 1086.58 143.689C1086.58 143.689 1086.63 143.638 1086.63 143.587C1086.63 143.485 1086.63 143.434 1086.58 143.383H1086.63ZM1087.39 145.265C1087.39 145.265 1087.34 145.265 1087.29 145.316C1087.29 145.367 1087.29 145.418 1087.29 145.469C1087.29 145.469 1087.29 145.57 1087.34 145.57C1087.34 145.57 1087.34 145.57 1087.39 145.57C1087.49 145.57 1087.54 145.57 1087.59 145.469C1087.59 145.469 1087.59 145.367 1087.59 145.316C1087.59 145.265 1087.49 145.214 1087.39 145.214V145.265ZM1090.29 145.672C1090.29 145.672 1090.34 145.723 1090.39 145.723H1090.44C1090.44 145.672 1090.44 145.621 1090.44 145.57C1090.39 145.57 1090.34 145.621 1090.34 145.672C1090.34 145.672 1090.34 145.672 1090.34 145.723L1090.29 145.672ZM1093.14 143.587C1093.14 143.587 1093.39 143.689 1093.49 143.689C1093.7 143.689 1093.9 143.689 1094.05 143.536C1094.1 143.536 1094.15 143.536 1094.2 143.536C1094.2 143.587 1094.2 143.638 1094.2 143.689C1094 143.79 1093.8 143.892 1093.54 143.892C1093.54 143.892 1093.19 143.841 1093.03 143.739C1092.93 143.638 1092.83 143.536 1092.78 143.434C1092.32 143.739 1091.76 143.943 1091.25 143.943C1091.05 143.943 1090.8 143.943 1090.59 143.841C1090.59 143.841 1090.59 143.943 1090.54 143.994C1090.85 144.146 1091.2 144.299 1091.61 144.35C1091.66 144.248 1091.76 144.146 1091.86 144.146C1092.07 144.146 1092.22 144.248 1092.27 144.401C1092.27 144.451 1092.27 144.502 1092.27 144.553C1092.27 144.655 1092.22 144.757 1092.12 144.807C1092.07 144.858 1091.97 144.909 1091.86 144.909C1091.76 144.909 1091.66 144.858 1091.61 144.757C1091.61 144.757 1091.61 144.655 1091.56 144.604C1091.15 144.553 1090.75 144.401 1090.44 144.197C1090.44 144.197 1090.44 144.197 1090.39 144.248C1090.64 144.757 1091.1 145.163 1091.61 145.367C1091.81 145.113 1092.17 145.011 1092.53 145.062C1092.73 145.062 1092.98 145.163 1093.19 145.265C1093.24 145.265 1093.24 145.367 1093.19 145.418C1093.19 145.469 1093.08 145.469 1093.03 145.418C1092.88 145.316 1092.68 145.265 1092.47 145.214C1092.32 145.214 1092.12 145.214 1091.97 145.214C1092.32 145.214 1092.63 145.418 1092.88 145.672C1092.88 145.672 1092.88 145.774 1092.88 145.825C1092.88 145.825 1092.78 145.825 1092.73 145.825C1092.47 145.57 1092.12 145.418 1091.76 145.418C1092.02 145.774 1092.32 146.079 1092.73 146.282C1092.78 146.282 1092.83 146.384 1092.73 146.435C1092.73 146.435 1092.68 146.486 1092.63 146.486C1092.22 146.282 1091.86 145.977 1091.61 145.621C1091.61 145.774 1091.61 145.977 1091.61 146.079C1091.71 146.333 1091.86 146.537 1092.02 146.689C1092.02 146.689 1092.02 146.791 1092.02 146.842C1092.02 146.842 1092.02 146.842 1091.97 146.842C1091.97 146.842 1091.92 146.842 1091.86 146.842C1091.71 146.638 1091.51 146.435 1091.41 146.13C1091.3 145.876 1091.3 145.621 1091.41 145.418C1090.85 145.214 1090.39 144.757 1090.08 144.248C1090.08 144.248 1090.03 144.248 1089.98 144.299C1090.03 144.655 1090.19 144.96 1090.34 145.214C1090.34 145.214 1090.54 145.214 1090.59 145.265C1090.69 145.367 1090.69 145.57 1090.64 145.672C1090.64 145.723 1090.64 145.774 1090.54 145.774C1090.49 145.774 1090.44 145.825 1090.34 145.825C1090.34 145.825 1090.34 145.825 1090.29 145.825C1090.19 145.825 1090.14 145.774 1090.08 145.672C1090.03 145.57 1089.98 145.52 1090.03 145.418C1090.03 145.418 1090.03 145.316 1090.08 145.316C1089.88 145.011 1089.78 144.706 1089.68 144.401C1089.68 144.401 1089.63 144.401 1089.58 144.401C1089.58 145.214 1089.58 146.13 1089.98 146.893C1090.29 146.791 1090.59 146.893 1091 147.147C1091.05 147.147 1091.05 147.249 1091 147.3C1091 147.35 1090.9 147.35 1090.85 147.3C1090.59 147.147 1090.44 147.096 1090.24 147.045C1090.44 147.249 1090.59 147.503 1090.64 147.808C1090.64 147.859 1090.64 147.91 1090.54 147.961C1090.49 147.961 1090.44 147.961 1090.39 147.859C1090.39 147.554 1090.19 147.3 1089.93 147.147C1089.93 147.3 1089.93 147.452 1089.93 147.605C1089.93 147.808 1090.03 148.012 1090.08 148.215C1090.08 148.266 1090.08 148.317 1090.03 148.368C1090.03 148.368 1089.93 148.368 1089.93 148.266C1089.88 148.062 1089.78 147.859 1089.78 147.605C1089.78 147.503 1089.78 147.35 1089.78 147.198C1089.73 147.249 1089.68 147.35 1089.63 147.452C1089.58 147.656 1089.58 147.859 1089.63 148.062C1089.63 148.113 1089.63 148.164 1089.58 148.215C1089.58 148.215 1089.47 148.215 1089.47 148.164C1089.37 147.91 1089.42 147.656 1089.47 147.401C1089.52 147.198 1089.68 147.045 1089.83 146.944C1089.37 146.181 1089.32 145.265 1089.37 144.401H1089.27C1089.12 144.807 1089.07 145.214 1089.07 145.672C1089.17 145.672 1089.27 145.774 1089.32 145.926C1089.37 146.13 1089.27 146.282 1089.12 146.384C1089.07 146.384 1089.02 146.435 1088.97 146.435C1088.97 146.435 1088.97 146.435 1088.91 146.435C1088.81 146.435 1088.71 146.435 1088.66 146.333C1088.61 146.282 1088.56 146.181 1088.51 146.079C1088.51 145.977 1088.51 145.825 1088.61 145.774C1088.61 145.774 1088.71 145.723 1088.76 145.672C1088.76 145.265 1088.81 144.807 1088.97 144.401C1088.97 144.401 1088.97 144.401 1088.91 144.401C1088.1 145.977 1087.69 147.859 1087.85 149.639C1087.85 149.69 1087.85 149.741 1087.74 149.741C1087.74 149.741 1087.64 149.741 1087.64 149.639C1087.49 147.808 1087.85 145.926 1088.71 144.299C1088.61 144.299 1088.56 144.197 1088.51 144.146C1088.2 144.401 1087.9 144.655 1087.69 145.011C1087.8 145.113 1087.8 145.214 1087.74 145.367C1087.69 145.57 1087.49 145.621 1087.34 145.621C1087.29 145.621 1087.24 145.621 1087.19 145.621C1087.08 145.621 1087.03 145.469 1086.98 145.367C1086.98 145.265 1086.98 145.163 1086.98 145.062C1087.03 144.96 1087.13 144.858 1087.24 144.858C1087.29 144.858 1087.39 144.858 1087.44 144.858C1087.69 144.502 1088 144.197 1088.3 143.943C1088.3 143.841 1088.2 143.739 1088.15 143.638C1087.54 143.841 1086.98 144.045 1086.42 144.35C1086.42 144.35 1086.42 144.401 1086.47 144.451C1086.57 144.604 1086.57 144.807 1086.52 145.011C1086.52 145.113 1086.52 145.164 1086.47 145.214C1086.47 145.265 1086.37 145.316 1086.32 145.367C1086.22 145.469 1086.12 145.57 1086.02 145.621C1086.02 145.621 1086.02 145.621 1085.96 145.621C1085.96 145.621 1085.91 145.621 1085.86 145.621C1085.86 145.621 1085.86 145.519 1085.86 145.469C1085.96 145.418 1086.07 145.316 1086.12 145.214C1086.12 145.214 1086.17 145.163 1086.22 145.113C1086.22 145.113 1086.22 145.011 1086.22 144.96C1086.22 144.858 1086.22 144.757 1086.22 144.655C1086.02 144.96 1085.71 145.214 1085.35 145.316C1085.35 145.316 1085.25 145.316 1085.25 145.214C1085.25 145.164 1085.25 145.113 1085.35 145.062C1085.66 144.96 1085.96 144.757 1086.12 144.451V144.401C1085.81 144.401 1085.56 144.553 1085.3 144.706C1085.3 144.706 1085.3 144.706 1085.25 144.706C1085.25 144.706 1085.2 144.706 1085.15 144.706C1085.15 144.655 1085.15 144.604 1085.15 144.553C1085.35 144.401 1085.56 144.299 1085.81 144.248C1085.66 144.248 1085.56 144.248 1085.41 144.248C1085.25 144.248 1085.15 144.35 1085.1 144.451C1085.1 144.451 1085 144.451 1084.95 144.451C1084.95 144.451 1084.95 144.35 1084.95 144.299C1085.05 144.197 1085.2 144.095 1085.35 144.045C1085.51 144.045 1085.66 144.045 1085.81 144.045C1085.86 144.045 1085.96 144.045 1086.02 144.045C1086.07 144.045 1086.17 144.095 1086.22 144.146C1086.78 143.841 1087.39 143.587 1088.05 143.383C1088.05 143.383 1088.05 143.383 1088.05 143.333C1087.64 143.231 1087.19 143.282 1086.78 143.333C1086.78 143.434 1086.68 143.587 1086.58 143.638C1086.58 143.638 1086.47 143.638 1086.42 143.638C1086.32 143.638 1086.17 143.587 1086.12 143.485C1086.12 143.485 1086.02 143.383 1086.02 143.333C1086.02 143.231 1086.02 143.129 1086.02 143.027C1086.07 142.977 1086.17 142.875 1086.27 142.875C1086.37 142.875 1086.52 142.875 1086.58 142.875C1086.58 142.875 1086.68 142.977 1086.68 143.027C1087.13 142.926 1087.59 142.926 1088 143.027C1088 142.977 1088 142.926 1088 142.875C1087.49 142.875 1086.98 142.722 1086.47 142.519C1086.17 142.417 1085.76 142.214 1085.51 141.858C1085.41 141.959 1085.3 142.01 1085.2 142.01C1085.2 142.01 1085.1 142.01 1085.05 142.01C1084.95 142.01 1084.85 142.01 1084.74 142.01C1084.54 142.01 1084.39 141.909 1084.24 141.807C1084.18 141.807 1084.18 141.705 1084.24 141.654C1084.24 141.603 1084.34 141.603 1084.39 141.654C1084.54 141.756 1084.69 141.807 1084.85 141.858C1085 141.858 1085.1 141.909 1085.2 141.858C1085.3 141.858 1085.41 141.807 1085.46 141.705C1085.46 141.705 1085.46 141.705 1085.41 141.705C1085.1 141.705 1084.85 141.553 1084.74 141.451C1084.69 141.4 1084.59 141.298 1084.54 141.146C1084.54 141.095 1084.54 141.044 1084.64 140.993C1084.69 140.993 1084.74 140.993 1084.8 141.095C1084.8 141.095 1084.79 141.197 1084.9 141.247C1085.1 141.4 1085.3 141.451 1085.46 141.451C1085.46 141.451 1085.46 141.298 1085.3 141.197C1085.2 141.095 1085.05 140.993 1084.9 140.891C1084.85 140.891 1084.85 140.79 1084.9 140.739C1084.9 140.688 1085 140.688 1085.05 140.739C1085.2 140.841 1085.35 140.942 1085.51 141.095C1085.51 141.095 1085.61 141.197 1085.66 141.298C1085.66 141.298 1085.66 141.298 1085.66 141.247C1085.66 141.095 1085.56 140.891 1085.41 140.79C1085.41 140.79 1085.41 140.688 1085.41 140.637C1085.41 140.637 1085.51 140.637 1085.56 140.637C1085.71 140.79 1085.86 140.993 1085.86 141.197C1085.86 141.298 1085.86 141.4 1085.86 141.451C1085.86 141.553 1085.81 141.603 1085.76 141.705C1085.76 141.705 1085.76 141.705 1085.76 141.756C1085.96 142.061 1086.32 142.214 1086.63 142.315C1087.08 142.468 1087.59 142.621 1088.1 142.621C1088.1 142.57 1088.1 142.519 1088.15 142.468C1087.85 142.366 1087.54 142.265 1087.29 142.061L1087.19 142.112C1087.19 142.112 1087.19 142.112 1087.13 142.112C1087.08 142.112 1086.98 142.112 1086.93 142.01C1086.88 141.959 1086.83 141.858 1086.83 141.807C1086.83 141.705 1086.83 141.603 1086.88 141.553C1086.88 141.553 1086.93 141.502 1086.98 141.451C1087.08 141.451 1087.29 141.451 1087.39 141.553C1087.44 141.654 1087.49 141.756 1087.39 141.858C1087.64 142.061 1087.95 142.163 1088.25 142.265C1088.25 142.265 1088.3 142.214 1088.35 142.163C1088.15 141.959 1088 141.705 1087.95 141.451C1087.85 141.451 1087.8 141.451 1087.74 141.502C1087.74 141.502 1087.74 141.502 1087.69 141.502C1087.54 141.502 1087.39 141.451 1087.24 141.349C1087.13 141.247 1086.98 141.146 1086.88 140.993C1086.88 140.942 1086.88 140.891 1086.88 140.841C1086.88 140.841 1086.98 140.841 1087.03 140.841C1087.13 140.993 1087.24 141.095 1087.34 141.146C1087.44 141.247 1087.59 141.247 1087.69 141.247C1087.69 141.247 1087.74 141.247 1087.8 141.247C1087.8 141.247 1087.59 141.146 1087.49 141.044C1087.39 140.942 1087.29 140.841 1087.24 140.688C1087.24 140.637 1087.24 140.586 1087.29 140.535C1087.34 140.535 1087.39 140.535 1087.44 140.637C1087.44 140.739 1087.54 140.79 1087.59 140.891C1087.64 140.942 1087.74 140.993 1087.85 141.044C1087.85 140.891 1087.74 140.688 1087.64 140.586C1087.64 140.586 1087.64 140.485 1087.64 140.434C1087.64 140.434 1087.74 140.434 1087.8 140.434C1087.95 140.637 1088 140.891 1088.05 141.095C1088.1 140.993 1088.1 140.891 1088.1 140.841C1088.1 140.739 1088.1 140.637 1088.05 140.535C1088.05 140.485 1088.05 140.434 1088.15 140.383C1088.2 140.383 1088.25 140.383 1088.3 140.485C1088.3 140.586 1088.35 140.739 1088.35 140.841C1088.35 140.993 1088.36 141.146 1088.25 141.247C1088.25 141.247 1088.15 141.349 1088.1 141.4C1088.2 141.654 1088.3 141.858 1088.51 142.061C1088.51 142.061 1088.66 142.01 1088.76 141.959H1088.86C1088.66 141.247 1088.66 140.485 1088.86 139.823C1088.76 139.823 1088.61 139.722 1088.51 139.62C1088.25 139.416 1088.1 139.111 1088.1 138.755C1088.1 138.704 1088.1 138.654 1088.2 138.654C1088.25 138.654 1088.3 138.654 1088.3 138.755C1088.3 139.01 1088.46 139.264 1088.61 139.467C1088.61 139.467 1088.71 139.518 1088.76 139.569C1088.66 139.213 1088.66 138.908 1088.66 138.552C1088.66 138.501 1088.71 138.45 1088.76 138.45C1088.81 138.45 1088.86 138.501 1088.86 138.552C1088.86 138.908 1088.86 139.264 1089.02 139.62C1089.17 139.366 1089.22 139.06 1089.22 138.755C1089.22 138.704 1089.22 138.654 1089.32 138.654C1089.37 138.654 1089.42 138.654 1089.42 138.755C1089.42 139.111 1089.37 139.417 1089.22 139.722C1089.22 139.722 1089.27 139.722 1089.32 139.722C1089.37 139.722 1089.47 139.671 1089.58 139.569C1089.68 139.518 1089.73 139.417 1089.78 139.366C1089.78 139.315 1089.88 139.213 1089.88 139.111C1089.88 139.06 1089.88 139.01 1089.98 139.01C1090.03 139.01 1090.08 139.06 1090.08 139.111C1090.08 139.264 1090.08 139.366 1089.93 139.518C1089.88 139.62 1089.78 139.722 1089.68 139.773C1089.58 139.874 1089.47 139.925 1089.37 139.925C1089.27 139.925 1089.17 139.925 1089.07 139.925C1089.07 139.925 1089.02 139.925 1088.97 139.925C1088.76 140.586 1088.81 141.349 1088.97 142.01C1088.97 142.01 1088.97 142.01 1089.02 142.01C1089.02 141.705 1089.02 141.349 1089.12 141.044C1089.12 141.044 1089.02 140.993 1089.02 140.942C1088.97 140.841 1088.97 140.739 1089.02 140.637C1089.02 140.535 1089.12 140.485 1089.17 140.434C1089.27 140.434 1089.37 140.383 1089.42 140.434C1089.42 140.434 1089.52 140.434 1089.52 140.535C1089.63 140.637 1089.68 140.79 1089.52 140.942C1089.47 141.044 1089.37 141.095 1089.27 141.095C1089.17 141.4 1089.12 141.756 1089.17 142.061C1089.22 142.061 1089.27 142.061 1089.32 142.112C1089.47 141.451 1089.83 140.891 1090.29 140.383C1090.29 140.281 1090.24 140.23 1090.19 140.129C1090.19 139.976 1090.19 139.823 1090.24 139.62C1090.29 139.416 1090.44 139.162 1090.69 139.01C1090.69 139.01 1090.8 139.01 1090.85 139.01C1090.9 139.01 1090.85 139.111 1090.85 139.162C1090.64 139.315 1090.54 139.518 1090.49 139.671C1090.49 139.823 1090.44 139.976 1090.44 140.078C1090.44 140.078 1090.44 140.179 1090.44 140.23C1090.59 139.874 1090.85 139.62 1091.1 139.417C1091.1 139.417 1091.2 139.417 1091.25 139.417C1091.3 139.417 1091.25 139.518 1091.25 139.569C1091.05 139.722 1090.85 139.925 1090.69 140.23C1091 140.23 1091.25 140.078 1091.46 139.874C1091.46 139.874 1091.56 139.874 1091.61 139.874C1091.61 139.874 1091.61 139.976 1091.61 140.027C1091.36 140.281 1091 140.485 1090.64 140.485C1090.69 140.535 1090.8 140.586 1090.9 140.586C1091.15 140.586 1091.46 140.485 1091.61 140.281C1091.61 140.281 1091.71 140.23 1091.76 140.281C1091.76 140.281 1091.81 140.383 1091.76 140.434C1091.61 140.688 1091.3 140.841 1091 140.841C1091 140.841 1090.9 140.841 1090.85 140.841C1090.64 140.841 1090.49 140.688 1090.34 140.535C1089.88 140.993 1089.58 141.553 1089.42 142.214C1089.52 142.265 1089.63 142.366 1089.73 142.417C1089.93 142.315 1090.13 142.112 1090.29 141.909C1090.29 141.756 1090.29 141.603 1090.29 141.451C1090.34 141.298 1090.49 141.197 1090.54 141.095C1090.54 141.095 1090.64 141.095 1090.69 141.095C1090.69 141.095 1090.69 141.197 1090.69 141.247C1090.59 141.349 1090.49 141.451 1090.44 141.553C1090.44 141.654 1090.39 141.756 1090.44 141.858C1090.44 141.756 1090.49 141.705 1090.54 141.654C1090.59 141.553 1090.69 141.451 1090.8 141.349C1090.8 141.349 1090.9 141.349 1090.95 141.349C1090.95 141.349 1090.95 141.451 1090.95 141.502C1090.85 141.603 1090.8 141.654 1090.75 141.756C1090.75 141.756 1090.75 141.756 1090.75 141.807C1090.9 141.807 1091.1 141.705 1091.2 141.603C1091.2 141.603 1091.3 141.603 1091.36 141.603C1091.36 141.603 1091.36 141.705 1091.36 141.756C1091.2 141.909 1091 142.01 1090.8 142.01C1090.85 142.01 1090.9 142.01 1091 142.01C1091.2 142.01 1091.3 141.959 1091.41 141.858C1091.41 141.858 1091.51 141.858 1091.56 141.858C1091.61 141.858 1091.56 141.959 1091.56 142.01C1091.41 142.112 1091.25 142.214 1091 142.214C1091 142.214 1090.95 142.214 1090.9 142.214C1090.8 142.214 1090.69 142.214 1090.59 142.214C1090.49 142.214 1090.44 142.112 1090.34 142.061C1090.19 142.265 1089.98 142.468 1089.78 142.57C1089.83 142.671 1089.88 142.773 1089.88 142.875C1090.19 142.875 1090.49 142.824 1090.8 142.722C1090.8 142.722 1090.8 142.519 1090.9 142.468C1091.05 142.366 1091.2 142.417 1091.3 142.468C1091.3 142.468 1091.41 142.519 1091.41 142.57C1091.41 142.671 1091.41 142.773 1091.41 142.824C1091.41 142.875 1091.3 142.977 1091.25 142.977C1091.25 142.977 1091.15 142.977 1091.1 142.977C1091.1 142.977 1091 142.977 1090.95 142.977C1090.95 142.977 1090.9 142.926 1090.85 142.875C1090.54 142.977 1090.24 143.027 1089.88 143.027C1089.88 143.078 1089.88 143.18 1089.88 143.231C1090.59 143.434 1091.41 143.231 1091.97 142.824C1091.86 142.417 1091.97 141.959 1092.27 141.654C1092.27 141.654 1092.37 141.654 1092.42 141.654C1092.42 141.654 1092.42 141.756 1092.42 141.807C1092.22 142.01 1092.12 142.366 1092.17 142.671C1092.17 142.671 1092.17 142.671 1092.22 142.671C1092.32 142.57 1092.42 142.519 1092.47 142.417C1092.53 142.366 1092.68 142.214 1092.73 142.214H1092.78C1092.78 142.214 1092.78 142.265 1092.78 142.315C1092.78 142.417 1092.68 142.468 1092.58 142.519C1092.47 142.621 1092.37 142.722 1092.27 142.824C1092.27 142.824 1092.27 142.824 1092.22 142.875C1092.22 142.875 1092.27 142.875 1092.32 142.875C1092.63 142.875 1092.88 142.824 1093.14 142.621C1093.14 142.621 1093.24 142.621 1093.29 142.621C1093.29 142.621 1093.29 142.722 1093.29 142.773C1093.03 142.926 1092.73 143.027 1092.47 143.027C1092.47 143.027 1092.47 143.027 1092.42 143.027C1092.42 143.027 1092.37 143.027 1092.32 143.027C1092.32 143.027 1092.37 143.129 1092.42 143.129L1093.14 143.587Z" fill="#845B00"/>
<path fill-rule="evenodd" clip-rule="evenodd" d="M1096.24 149.638C1096.24 149.638 1095.83 149.536 1095.83 149.282C1095.83 149.13 1095.93 148.977 1096.08 148.926C1096.24 148.926 1096.44 148.926 1096.59 148.926C1097.1 149.028 1097.56 149.18 1097.97 149.384C1098.32 149.587 1098.63 149.791 1098.98 150.147C1098.98 149.587 1098.98 149.028 1098.93 148.468C1098.02 148.265 1097.15 148.011 1096.29 147.756C1096.08 147.756 1095.88 147.604 1095.93 147.35C1095.93 147.197 1096.08 147.044 1096.19 147.044C1096.34 147.044 1096.54 147.044 1096.64 147.044C1097.1 147.146 1097.51 147.35 1097.92 147.553C1098.27 147.756 1098.58 148.011 1098.88 148.316C1098.88 147.858 1098.88 147.451 1098.83 146.994C1097.92 146.587 1097 146.231 1096.14 146.027C1095.93 146.027 1095.73 145.875 1095.73 145.62C1095.73 145.468 1095.88 145.315 1095.98 145.315C1096.14 145.315 1096.34 145.315 1096.49 145.315C1097 145.468 1097.46 145.671 1097.86 145.926C1098.22 146.129 1098.53 146.434 1098.78 146.79C1098.78 146.282 1098.73 145.773 1098.68 145.264C1097.81 144.857 1096.9 144.501 1096.03 144.349C1095.83 144.349 1095.63 144.196 1095.63 143.993C1095.63 143.84 1095.73 143.688 1095.88 143.637C1096.03 143.637 1096.24 143.637 1096.39 143.637C1096.9 143.739 1097.36 143.942 1097.76 144.247C1098.12 144.451 1098.37 144.756 1098.68 145.112C1098.68 144.654 1098.58 144.247 1098.53 143.789C1098.53 143.789 1098.53 143.739 1098.53 143.688C1097.56 143.281 1096.54 142.823 1095.58 142.518C1095.37 142.467 1095.12 142.315 1095.12 142.111C1095.12 141.959 1095.27 141.857 1095.42 141.806C1095.58 141.806 1095.83 141.806 1095.93 141.857C1096.49 142.06 1096.95 142.264 1097.36 142.569C1097.71 142.823 1098.07 143.128 1098.42 143.535C1098.42 143.077 1098.32 142.62 1098.27 142.213C1097.86 141.959 1097.46 141.704 1097.05 141.501C1096.59 141.247 1096.08 140.992 1095.58 140.84C1095.37 140.738 1095.12 140.636 1095.17 140.382C1095.17 140.229 1095.32 140.128 1095.47 140.077C1095.63 140.077 1095.88 140.077 1095.98 140.179C1096.54 140.382 1097 140.687 1097.36 141.043C1097.66 141.297 1097.92 141.603 1098.12 141.959C1098.02 141.399 1097.97 140.789 1097.86 140.229C1097.51 139.924 1097.1 139.67 1096.69 139.416C1096.24 139.111 1095.73 138.856 1095.22 138.653C1095.02 138.551 1094.76 138.398 1094.81 138.195C1094.81 138.042 1095.02 137.941 1095.17 137.941C1095.27 137.941 1095.37 137.941 1095.42 137.941C1095.52 137.941 1095.63 137.992 1095.68 138.042C1096.24 138.297 1096.69 138.602 1097.1 139.009C1097.36 139.263 1097.61 139.568 1097.81 139.924C1097.71 139.416 1097.66 138.856 1097.56 138.348C1096.85 137.737 1096.08 137.229 1095.32 136.924C1095.17 136.873 1094.97 136.72 1094.97 136.466C1094.97 136.313 1095.12 136.212 1095.27 136.161C1095.32 136.161 1095.42 136.161 1095.52 136.161C1095.63 136.161 1095.68 136.212 1095.78 136.262C1096.29 136.466 1096.64 136.771 1097 137.127C1097.15 137.33 1097.31 137.534 1097.46 137.788C1097.36 137.229 1097.25 136.72 1097.15 136.161C1096.44 135.55 1095.68 135.042 1094.91 134.737C1094.76 134.686 1094.56 134.533 1094.61 134.33C1094.61 134.177 1094.76 134.076 1094.91 134.025C1094.97 134.025 1095.07 134.025 1095.17 134.025C1095.27 134.025 1095.32 134.025 1095.42 134.126C1095.88 134.33 1096.29 134.635 1096.59 134.991C1096.8 135.245 1097 135.5 1097.15 135.856C1097.05 135.398 1096.95 134.94 1096.85 134.482C1096.14 133.923 1095.58 133.16 1095.07 132.448C1094.97 132.295 1094.86 132.041 1095.07 131.889C1095.17 131.787 1095.37 131.787 1095.47 131.889C1095.58 131.939 1095.73 132.092 1095.78 132.194C1096.19 132.804 1096.49 133.313 1096.75 133.974C1096.69 133.669 1096.59 133.364 1096.54 133.058C1095.98 132.143 1095.58 131.075 1095.27 130.058C1095.22 129.854 1095.22 129.549 1095.47 129.447C1095.63 129.346 1095.83 129.447 1095.98 129.549C1096.08 129.651 1096.19 129.854 1096.24 130.007C1096.54 130.973 1096.64 131.838 1096.64 132.906C1096.64 133.058 1096.75 133.211 1096.75 133.364C1096.69 132.601 1096.75 131.838 1096.85 131.126C1096.85 130.922 1096.95 130.719 1097.2 130.719C1097.36 130.719 1097.51 130.821 1097.56 130.973C1097.61 131.126 1097.56 131.278 1097.56 131.431C1097.46 132.296 1097.25 133.007 1096.85 133.872C1097.05 134.584 1097.2 135.296 1097.36 136.059C1097.36 135.601 1097.36 135.194 1097.51 134.737C1097.66 134.228 1097.81 133.669 1098.07 133.211C1098.17 133.008 1098.37 132.804 1098.58 132.906C1098.73 132.957 1098.78 133.16 1098.78 133.262C1098.78 133.414 1098.68 133.567 1098.63 133.72C1098.42 134.177 1098.22 134.584 1098.02 134.991C1097.81 135.398 1097.61 135.805 1097.36 136.262C1097.46 136.72 1097.56 137.178 1097.61 137.636C1097.66 136.771 1097.97 135.856 1098.32 135.042C1098.42 134.838 1098.58 134.635 1098.78 134.737C1098.93 134.737 1099.03 134.94 1099.03 135.093C1099.03 135.245 1098.98 135.398 1098.93 135.55C1098.58 136.415 1098.22 137.076 1097.66 137.941C1097.76 138.551 1097.86 139.212 1097.97 139.823C1097.97 139.365 1097.97 138.856 1098.12 138.348C1098.27 137.839 1098.53 137.28 1098.83 136.873C1098.93 136.669 1099.19 136.517 1099.39 136.618C1099.54 136.669 1099.59 136.873 1099.54 137.025C1099.54 137.178 1099.44 137.33 1099.34 137.432C1099.09 137.839 1098.88 138.246 1098.68 138.653C1098.47 139.06 1098.22 139.466 1098.02 139.975C1098.02 140.179 1098.07 140.331 1098.12 140.535C1098.12 140.535 1098.12 140.585 1098.12 140.636C1098.17 140.992 1098.22 141.348 1098.27 141.704C1098.27 141.196 1098.37 140.636 1098.58 140.128C1098.78 139.517 1099.08 139.009 1099.49 138.5C1099.64 138.297 1099.9 138.093 1100.1 138.246C1100.25 138.348 1100.25 138.5 1100.2 138.653C1100.2 138.805 1100.05 139.009 1099.95 139.11C1099.64 139.568 1099.34 139.975 1099.09 140.433C1098.83 140.84 1098.58 141.297 1098.32 141.857C1098.32 142.111 1098.37 142.365 1098.42 142.569C1098.42 142.823 1098.47 143.077 1098.53 143.332C1098.58 142.925 1098.73 142.467 1098.93 142.06C1099.19 141.45 1099.59 140.941 1100.05 140.484C1100.25 140.28 1100.51 140.128 1100.71 140.28C1100.81 140.382 1100.81 140.585 1100.76 140.738C1100.76 140.789 1100.66 140.891 1100.61 140.941C1100.56 141.043 1100.51 141.094 1100.46 141.145C1100.05 141.552 1099.75 141.959 1099.44 142.416C1099.14 142.823 1098.88 143.23 1098.58 143.688C1098.58 143.789 1098.58 143.891 1098.58 143.993C1098.58 144.4 1098.68 144.756 1098.68 145.163C1098.78 144.654 1098.93 144.196 1099.24 143.739C1099.54 143.23 1099.9 142.772 1100.31 142.365C1100.46 142.213 1100.76 142.06 1100.92 142.213C1101.02 142.315 1101.07 142.518 1100.97 142.62C1100.92 142.772 1100.76 142.925 1100.66 143.027C1100.31 143.383 1100 143.739 1099.64 144.095C1099.34 144.451 1099.03 144.807 1098.68 145.264C1098.68 145.671 1098.73 146.027 1098.78 146.434C1099.19 145.62 1099.85 144.857 1100.56 144.349C1100.71 144.247 1100.97 144.145 1101.12 144.349C1101.22 144.451 1101.22 144.654 1101.17 144.756C1101.12 144.857 1100.97 145.01 1100.92 145.061C1100.2 145.62 1099.64 146.027 1098.78 146.485C1098.78 146.994 1098.88 147.502 1098.88 148.011C1099.29 147.197 1100.05 146.485 1100.81 146.027C1100.97 145.926 1101.22 145.824 1101.37 146.027C1101.48 146.129 1101.48 146.332 1101.37 146.434C1101.32 146.536 1101.17 146.688 1101.07 146.739C1100.66 146.994 1100.36 147.197 1100 147.451C1099.64 147.655 1099.34 147.858 1098.93 148.112C1098.93 148.57 1098.98 149.079 1099.03 149.536C1099.24 149.18 1099.49 148.875 1099.8 148.57C1100.15 148.214 1100.61 147.909 1101.07 147.706C1101.27 147.604 1101.53 147.604 1101.63 147.807C1101.68 147.96 1101.63 148.112 1101.63 148.214C1101.53 148.316 1101.37 148.418 1101.27 148.468C1100.87 148.672 1100.51 148.875 1100.15 149.079C1099.85 149.282 1099.49 149.435 1099.09 149.689C1099.09 150.198 1099.08 150.706 1099.14 151.266C1099.34 150.859 1099.64 150.503 1100 150.198C1100.36 149.892 1100.76 149.587 1101.22 149.384C1101.37 149.282 1101.63 149.282 1101.78 149.486C1101.83 149.638 1101.78 149.791 1101.78 149.892C1101.73 149.994 1101.58 150.096 1101.48 150.147C1100.71 150.554 1100.1 150.859 1099.24 151.316C1099.24 151.673 1099.24 152.029 1099.24 152.385C1099.39 152.029 1099.64 151.673 1099.95 151.367C1100.36 151.011 1100.81 150.808 1101.32 150.706C1101.42 150.706 1101.53 150.706 1101.63 150.706C1101.73 150.706 1101.83 150.808 1101.83 150.91C1101.83 151.062 1101.78 151.215 1101.68 151.316C1101.68 151.316 1101.58 151.367 1101.48 151.418C1101.42 151.418 1101.32 151.418 1101.27 151.469C1100.87 151.571 1100.51 151.723 1100.15 151.927C1100 152.029 1099.8 152.13 1099.64 152.232C1099.49 152.334 1099.34 152.435 1099.14 152.588C1099.14 152.995 1099.14 153.453 1099.14 153.859C1099.49 153.249 1100.15 152.791 1100.81 152.537C1100.97 152.486 1101.17 152.486 1101.27 152.69C1101.32 152.842 1101.27 152.995 1101.27 153.097C1101.22 153.198 1101.07 153.249 1101.02 153.3C1100.71 153.453 1100.41 153.554 1100.1 153.707C1099.8 153.809 1099.54 153.91 1099.19 154.012C1099.19 154.775 1099.19 155.538 1099.09 156.25C1099.09 156.351 1098.88 156.351 1098.88 156.25C1098.88 155.385 1098.88 154.521 1098.88 153.656C1098.12 153.656 1097.41 153.707 1096.8 153.809C1096.64 153.809 1096.44 153.809 1096.39 153.605C1096.34 153.453 1096.39 153.3 1096.44 153.198C1096.54 153.097 1096.69 153.046 1096.8 153.046C1097.2 152.995 1097.61 152.995 1097.97 153.046C1098.27 153.147 1098.58 153.249 1098.88 153.453C1098.88 152.944 1098.88 152.486 1098.88 151.978C1098.12 151.978 1097.3 151.978 1096.59 151.978C1096.44 151.978 1096.24 151.927 1096.19 151.672C1096.19 151.52 1096.24 151.367 1096.34 151.316C1096.44 151.266 1096.64 151.215 1096.75 151.215C1097.56 151.215 1098.17 151.418 1098.88 151.876C1098.88 151.418 1098.88 150.961 1098.88 150.503C1097.97 150.248 1097.05 149.994 1096.19 149.892L1096.24 149.638Z" fill="#845B00"/>
<path fill-rule="evenodd" clip-rule="evenodd" d="M1109.82 139.365C1109.66 139.925 1109.51 140.484 1109.36 141.044C1109.21 140.382 1108.9 139.823 1108.44 139.314C1108.04 138.857 1106.92 137.992 1106.31 138.551C1105.7 139.06 1106.31 140.281 1106.66 140.789C1107.22 141.603 1108.14 142.112 1109.1 142.264C1108.85 143.485 1108.6 144.756 1108.44 145.977C1108.24 145.265 1107.83 144.654 1107.27 144.146C1106.82 143.739 1105.65 142.976 1105.14 143.637C1104.68 144.248 1105.29 145.265 1105.65 145.722C1106.31 146.536 1107.27 146.994 1108.34 147.045C1108.19 148.571 1108.14 150.147 1108.19 151.673C1107.88 151.063 1107.43 150.503 1106.82 150.147C1106.31 149.842 1104.98 149.232 1104.58 149.995C1104.17 150.707 1105.14 151.724 1105.65 152.131C1106.41 152.741 1107.32 152.944 1108.29 152.843C1108.39 154.267 1108.54 155.691 1108.75 157.115C1108.44 156.555 1107.99 156.098 1107.48 155.742C1106.87 155.386 1105.8 155.08 1105.29 155.742C1104.73 156.454 1105.49 157.267 1106.05 157.725C1106.92 158.386 1107.93 158.59 1109 158.386C1109.21 159.505 1109.51 160.675 1109.82 161.794C1109.87 162.048 1110.27 161.946 1110.17 161.692C1109.82 160.573 1109.56 159.403 1109.31 158.234C1110.27 158.132 1111.14 157.725 1111.75 156.962C1112.21 156.403 1112.77 155.487 1112.16 154.826C1111.6 154.216 1110.68 154.826 1110.17 155.233C1109.66 155.691 1109.26 156.25 1109.05 156.911C1108.85 155.538 1108.7 154.114 1108.6 152.69C1109.61 152.69 1110.53 152.283 1111.24 151.571C1111.75 151.063 1112.31 150.198 1111.75 149.486C1111.24 148.825 1110.27 149.486 1109.77 149.842C1109.26 150.249 1108.85 150.757 1108.6 151.317C1108.6 149.842 1108.6 148.418 1108.75 146.943C1109.71 147.096 1110.68 146.841 1111.44 146.282C1111.95 145.926 1112.97 144.858 1112.41 144.146C1111.9 143.586 1110.73 144.044 1110.22 144.349C1109.71 144.654 1109.26 145.061 1108.95 145.57C1109.1 144.451 1109.31 143.281 1109.56 142.162C1110.58 142.417 1111.7 142.264 1112.56 141.603C1113.07 141.247 1114.04 140.281 1113.53 139.619C1113.07 139.06 1111.85 139.416 1111.29 139.67C1110.73 139.925 1110.22 140.332 1109.87 140.84C1109.97 140.382 1110.12 139.925 1110.27 139.416C1110.32 139.162 1109.97 139.06 1109.92 139.314L1109.82 139.365ZM1111.9 140.433C1111.24 140.688 1110.53 141.043 1109.87 141.45C1110.07 141.094 1110.32 140.789 1110.68 140.484C1111.14 140.128 1112.05 139.619 1112.61 139.772C1113.94 140.128 1112.16 141.4 1111.75 141.603C1111.14 141.908 1110.48 141.959 1109.87 141.857C1110.53 141.4 1111.34 140.993 1112.05 140.738C1112.26 140.637 1112.05 140.331 1111.85 140.433H1111.9ZM1109.46 142.162C1109.46 142.162 1109.51 142.162 1109.56 142.162C1109.56 142.162 1109.51 142.162 1109.46 142.162ZM1107.22 139.975C1107.78 140.535 1108.39 141.145 1108.85 141.857C1108.24 141.705 1107.63 141.399 1107.17 140.891C1106.92 140.586 1105.7 138.755 1106.97 138.806C1107.53 138.806 1108.19 139.619 1108.49 140.026C1108.75 140.433 1108.95 140.891 1109 141.349C1108.54 140.738 1108.04 140.179 1107.48 139.67C1107.32 139.518 1107.02 139.772 1107.22 139.925V139.975ZM1110.88 145.061C1110.22 145.366 1109.56 145.773 1108.95 146.231C1109.16 145.773 1109.46 145.417 1109.82 145.112C1110.22 144.756 1111.04 144.248 1111.65 144.4C1112.92 144.654 1111.24 146.078 1110.83 146.333C1110.27 146.689 1109.61 146.79 1108.95 146.74C1109.56 146.231 1110.33 145.773 1111.04 145.417C1111.24 145.316 1111.04 144.96 1110.83 145.112L1110.88 145.061ZM1106.21 144.96C1106.82 145.468 1107.48 146.028 1107.99 146.689C1107.38 146.587 1106.82 146.384 1106.36 145.977C1105.95 145.621 1105.19 144.756 1105.34 144.146C1105.6 143.18 1107.17 144.553 1107.38 144.807C1107.73 145.214 1107.99 145.722 1108.09 146.231C1107.63 145.672 1107.02 145.112 1106.46 144.654C1106.26 144.502 1106 144.756 1106.21 144.909V144.96ZM1110.48 150.452C1109.87 150.91 1109.26 151.368 1108.7 151.927C1108.85 151.419 1109.1 150.961 1109.51 150.554C1109.87 150.198 1111.24 149.181 1111.55 150.045C1111.75 150.605 1110.94 151.368 1110.58 151.673C1110.07 152.08 1109.46 152.283 1108.85 152.334C1109.36 151.724 1110.07 151.164 1110.68 150.707C1110.88 150.554 1110.68 150.249 1110.48 150.351V150.452ZM1105.8 151.164C1106.51 151.571 1107.22 152.029 1107.83 152.588C1107.22 152.588 1106.61 152.436 1106.1 152.131C1105.8 151.978 1105.54 151.724 1105.34 151.469C1105.19 151.317 1104.73 150.757 1104.83 150.503C1104.93 150.198 1105.39 150.045 1105.65 150.147C1105.75 150.147 1105.9 150.198 1106 150.249C1106.36 150.401 1106.66 150.554 1106.97 150.808C1107.38 151.164 1107.73 151.622 1107.88 152.08C1107.32 151.571 1106.61 151.164 1106 150.808C1105.8 150.707 1105.6 151.012 1105.8 151.113V151.164ZM1108.09 152.843C1108.09 152.843 1108.09 152.893 1108.14 152.944C1108.14 152.944 1108.04 152.944 1108.04 152.843H1108.09ZM1110.88 155.843C1110.32 156.301 1109.77 156.86 1109.26 157.42C1109.36 156.962 1109.51 156.555 1109.77 156.199C1110.07 155.792 1111.14 154.623 1111.75 155.131C1112.31 155.64 1111.39 156.708 1111.04 157.064C1110.58 157.522 1109.97 157.776 1109.36 157.878C1109.87 157.216 1110.48 156.606 1111.09 156.098C1111.29 155.945 1111.04 155.691 1110.83 155.843H1110.88ZM1106.31 156.86C1107.02 157.216 1107.83 157.623 1108.44 158.132C1107.83 158.183 1107.17 158.132 1106.61 157.776C1106.15 157.522 1104.58 156.301 1105.75 155.843C1106.36 155.589 1107.17 156.098 1107.58 156.454C1107.93 156.81 1108.24 157.216 1108.44 157.674C1107.83 157.216 1107.12 156.86 1106.46 156.504C1106.26 156.403 1106.05 156.708 1106.26 156.81L1106.31 156.86ZM1108.75 158.386C1108.75 158.386 1108.8 158.386 1108.85 158.437C1108.85 158.437 1108.8 158.437 1108.75 158.386Z" fill="#845B00"/>
<path fill-rule="evenodd" clip-rule="evenodd" d="M1112.56 148.419C1112.87 148.419 1113.07 148.164 1113.07 147.91C1113.07 147.656 1112.82 147.401 1112.56 147.401C1112.31 147.401 1112.05 147.656 1112.05 147.91C1112.05 148.164 1112.31 148.419 1112.56 148.419Z" fill="#845B00"/>
<path fill-rule="evenodd" clip-rule="evenodd" d="M1092.88 149.435C1093.18 149.435 1093.39 149.181 1093.39 148.927C1093.39 148.672 1093.13 148.418 1092.88 148.418C1092.63 148.418 1092.37 148.672 1092.37 148.927C1092.37 149.181 1092.63 149.435 1092.88 149.435Z" fill="#845B00"/>
<path fill-rule="evenodd" clip-rule="evenodd" d="M1093.8 139.365C1093.39 138.755 1092.98 138.145 1092.47 137.636C1092.47 137.534 1092.52 137.433 1092.58 137.331C1092.58 137.28 1092.58 137.178 1092.58 137.077C1092.58 136.873 1092.47 136.67 1092.42 136.517C1092.32 136.314 1092.17 136.161 1091.96 136.06C1091.91 136.06 1091.81 136.06 1091.76 136.11C1091.76 136.161 1091.76 136.263 1091.81 136.314C1091.96 136.365 1092.07 136.517 1092.12 136.67C1092.17 136.822 1092.22 136.975 1092.27 137.128C1092.12 136.873 1091.91 136.619 1091.71 136.416C1091.66 136.365 1091.56 136.416 1091.51 136.416C1091.51 136.416 1091.51 136.517 1091.51 136.568V136.619C1091.76 136.873 1092.02 137.178 1092.12 137.534C1092.12 137.534 1092.12 137.534 1092.07 137.534C1091.66 137.433 1091.3 137.178 1091.1 136.772C1091.1 136.721 1091 136.67 1090.9 136.721C1090.85 136.721 1090.8 136.822 1090.85 136.873C1091.05 137.28 1091.46 137.636 1091.91 137.738C1091.81 137.789 1091.66 137.84 1091.56 137.84C1091.51 137.84 1091.41 137.84 1091.35 137.84C1091.3 137.84 1091.25 137.84 1091.2 137.738C1091.05 137.636 1090.95 137.585 1090.85 137.484C1090.8 137.433 1090.69 137.484 1090.64 137.484V137.585C1090.64 137.585 1090.64 137.636 1090.64 137.687C1090.8 137.789 1090.9 137.89 1091.05 137.992C1091.1 137.992 1091.2 138.094 1091.3 138.094C1091.41 138.094 1091.46 138.094 1091.56 138.094C1091.81 138.094 1092.07 137.992 1092.22 137.84C1092.22 137.84 1092.32 137.789 1092.32 137.738C1092.78 138.246 1093.19 138.755 1093.54 139.365C1093.74 139.671 1093.95 139.416 1093.8 139.264V139.365Z" fill="#845B00"/>
<path fill-rule="evenodd" clip-rule="evenodd" d="M1103.1 135.703C1103.1 135.703 1103.05 135.144 1102.8 134.839C1102.39 134.33 1100.92 134.839 1101.63 135.754C1101.83 136.009 1102.14 136.212 1102.09 136.212C1102.09 136.212 1101.88 136.161 1101.63 136.161C1100.41 136.161 1100.66 138.145 1102.04 137.636C1102.24 137.534 1102.24 137.534 1102.09 137.738C1102.04 137.839 1101.93 137.941 1101.88 138.094C1101.73 138.348 1101.83 138.653 1102.04 138.806C1102.39 139.06 1103 139.009 1103.15 138.551C1103.21 138.348 1103.26 138.145 1103.26 137.992C1103.36 137.229 1103.05 139.009 1104.27 138.958C1104.78 138.958 1105.19 138.551 1104.58 137.839C1104.48 137.738 1104.37 137.636 1104.32 137.585C1104.22 137.483 1104.17 137.433 1104.32 137.483C1104.53 137.534 1104.83 137.585 1105.04 137.483C1105.34 137.382 1105.49 136.619 1105.29 136.212C1104.99 135.653 1104.48 135.856 1104.17 135.958C1103.87 136.059 1103.76 136.059 1104.12 135.805C1104.22 135.754 1104.38 135.653 1104.48 135.551C1105.34 134.839 1103.71 133.72 1103.26 134.991C1103.15 135.297 1103.1 135.602 1103.05 135.602L1103.1 135.703ZM1103.46 136.212C1103.46 136.212 1103.41 136.466 1103.26 136.415C1103.1 136.314 1103.26 136.059 1103.46 136.212ZM1102.75 136.466C1102.75 136.466 1103 136.11 1103.1 136.466C1103.15 136.67 1103.15 137.026 1102.85 136.924C1102.7 136.873 1102.65 136.67 1102.7 136.466H1102.75ZM1103.61 136.568C1103.92 136.721 1103.82 136.975 1103.61 136.975C1103.1 136.975 1103.26 136.365 1103.61 136.568ZM1103.36 137.077C1103.76 137.28 1103.36 137.433 1103 137.28C1102.65 137.127 1103 136.873 1103.36 137.077Z" fill="#845B00"/>
</g>
<path fill-rule="evenodd" clip-rule="evenodd" d="M1077.67 109.665C1079.15 110.021 1079.25 108.647 1078.54 108.139C1077.67 107.478 1075.38 109.105 1077.67 109.665Z" fill="#845B00"/>
<circle cx="811" cy="194" r="5" fill="#FFD885"/>
<circle cx="754" cy="194" r="4" fill="#D6607A"/>
<circle cx="803" cy="162" r="3" fill="#D6607A"/>
</g>
<defs>
<clipPath id="clip0_313_5250">
<rect width="1440" height="224" fill="white" transform="translate(-1)"/>
</clipPath>
</defs>
</svg>
