<svg viewBox="0 0 254 231" fill="none" xmlns="http://www.w3.org/2000/svg">
<g clip-path="url(#clip0_405_4853)">
<rect width="254" height="231" fill="white"/>
<g clip-path="url(#clip1_405_4853)">
<rect x="240" y="-259" width="400" height="490" fill="#FFD885"/>
<g clip-path="url(#clip2_405_4853)" filter="url(#filter0_d_405_4853)">
<rect width="254" height="980" transform="translate(0 -749)" fill="#FFF9F0"/>
<path d="M0 -749H240V231H0V-749Z" fill="#FFF9F0"/>
<circle cx="55.5" cy="260.5" r="237.5" fill="#397621"/>
<path fill-rule="evenodd" clip-rule="evenodd" d="M125.796 112.254C139.808 106.543 155.166 95.0276 183.67 102.378C202.537 107.248 202.562 113.165 203.547 132.69C203.932 139.972 213.545 150.44 216.502 154.923C224.385 166.802 217.102 180.684 201.889 187.215C174.105 199.117 162.448 181.093 144.759 183.938C136.563 185.258 125.531 189.172 115.124 193.041C80.8031 205.602 24.3942 188.102 45.9771 162.387C52.1299 155.06 62.9695 148.073 66.2862 137.355C76.8854 103.22 103.588 121.357 125.796 112.254Z" fill="#5EAD41"/>
<mask id="mask0_405_4853" style="mask-type:alpha" maskUnits="userSpaceOnUse" x="41" y="100" width="179" height="98">
<path fill-rule="evenodd" clip-rule="evenodd" d="M125.796 112.254C139.808 106.543 155.166 95.0276 183.67 102.378C202.537 107.248 202.562 113.165 203.547 132.69C203.932 139.972 213.545 150.44 216.502 154.923C224.385 166.802 217.102 180.684 201.889 187.215C174.105 199.117 162.448 181.093 144.759 183.938C136.563 185.258 125.531 189.172 115.124 193.041C80.8031 205.602 24.3942 188.102 45.9771 162.387C52.1299 155.06 62.9695 148.073 66.2862 137.355C76.8854 103.22 103.588 121.357 125.796 112.254Z" fill="#5EAD41"/>
</mask>
<g mask="url(#mask0_405_4853)">
<path d="M72.1737 155.832C72.0538 155.628 71.9339 155.423 71.79 155.219V155.242C71.0934 153.721 70.6398 152.11 70.4441 150.463L72.2947 151.328C72.463 151.396 72.463 151.646 72.6553 151.168C72.8475 150.69 73.0879 149.507 73.6647 149.462C74.2415 149.416 74.9385 149.917 75.4432 150.122C75.4906 150.159 75.5501 150.179 75.6115 150.179C75.6729 150.179 75.7323 150.159 75.7797 150.122L76.8372 148.255C78.3274 151.146 79.7214 154.332 78.111 157.358C77.9387 157.692 77.7024 157.993 77.4141 158.246C77.9579 156.182 77.8408 154.011 77.0776 152.01H76.9093C77.0055 153.239 77.2458 154.332 77.2458 155.515C77.247 156.541 77.1261 157.564 76.8853 158.564H76.5969C75.8163 157.772 75.086 156.936 74.4098 156.061C73.6647 155.083 73.184 153.99 72.5351 152.943C72.3668 152.784 72.3668 152.943 72.3668 152.943C72.8055 154.135 73.4205 155.261 74.1935 156.289C74.7413 157.101 75.369 157.863 76.0681 158.564C75.5485 158.561 75.0404 158.419 74.602 158.155C73.7794 157.656 73.0554 157.024 72.463 156.289L72.1745 155.833L72.1737 155.832Z" fill="#397621"/>
<path d="M92.6519 133.486C92.3106 133.668 91.935 133.784 91.5463 133.828L91.6425 133.623C93.3558 132.247 94.6086 130.428 95.2476 128.389H95.0794C94.4305 129.39 93.9257 130.46 93.2047 131.416C92.5588 132.242 91.826 133.005 91.0176 133.691H90.7051C90.5605 132.62 90.4882 131.54 90.4888 130.46C90.5539 129.263 90.6903 128.07 90.8974 126.887H90.7291C90.3384 128.097 90.136 129.354 90.1283 130.619C90.0601 131.584 90.1004 132.553 90.2485 133.509C89.819 133.216 89.4857 132.813 89.2871 132.349C88.9264 131.494 88.7389 130.583 88.7343 129.663C88.7224 129.481 88.7224 129.299 88.7343 129.117V128.412C89.1313 126.819 89.7624 125.287 90.609 123.86L91.5944 125.59C91.6169 125.614 91.6447 125.633 91.6758 125.647C91.7068 125.66 91.7406 125.667 91.7747 125.667C91.8088 125.667 91.8425 125.66 91.8735 125.647C91.9046 125.633 91.9324 125.614 91.9549 125.59C92.4116 125.317 93.3729 124.498 93.8536 124.771C94.3343 125.044 94.5987 125.863 94.8871 126.295C94.9134 126.349 94.9606 126.391 95.019 126.412C95.0773 126.433 95.1421 126.432 95.1995 126.409L97.2425 125.499C96.6897 128.571 95.8244 131.939 92.6519 133.486Z" fill="#397621"/>
<path d="M92.7721 170.375C95.0779 168.303 97.909 166.83 100.992 166.097C97.5955 171.46 92.6842 175.819 86.8115 178.681C88.2734 175.605 90.2904 172.795 92.7721 170.375Z" fill="#397621"/>
<path d="M78.0994 178.204C76.0859 176.047 74.6694 173.451 73.9771 170.648C78.9015 173.737 82.8803 177.999 85.5137 183.005C82.6606 182.011 80.113 180.361 78.0994 178.204Z" fill="#397621"/>
<path d="M78.1945 189.373C76.0428 188.203 74.3262 186.432 73.2801 184.302C77.8351 185.412 81.9877 187.669 85.2974 190.833C82.8273 191.052 80.3461 190.542 78.1945 189.373Z" fill="#397621"/>
<path d="M101.04 179.159C100.991 179.16 100.941 179.161 100.892 179.163C97.1916 183.167 92.626 187.033 86.6193 186.35C86.6073 186.168 86.6073 185.986 86.6193 185.804C88.3762 183.779 90.5741 182.137 93.0629 180.99C95.5075 179.864 98.176 179.241 100.892 179.163C100.893 179.162 100.895 179.16 100.896 179.159H101.04Z" fill="#397621"/>
<path d="M99.0931 152.465C98.3698 153.239 97.5645 153.941 96.6897 154.559H96.4253C96.353 153.483 96.353 152.404 96.4253 151.328C96.5215 150.053 96.906 148.984 97.1223 147.778H96.9541C96.4835 148.956 96.1765 150.188 96.0408 151.441C95.9448 152.403 95.9448 153.37 96.0408 154.332C95.6405 154.008 95.3482 153.581 95.1995 153.103C94.9075 152.22 94.7934 151.294 94.8631 150.372C94.8631 150.213 94.7429 150.076 94.8631 149.848C94.9832 149.621 94.9832 149.393 94.9832 149.143C95.4887 147.562 96.2509 146.065 97.2425 144.705L98.0837 146.48C98.1318 146.48 97.9876 146.731 98.4442 146.48C98.9009 146.23 99.9343 145.479 100.391 145.798C100.848 146.116 101.04 146.936 101.28 147.414C101.31 147.464 101.358 147.502 101.415 147.523C101.472 147.544 101.535 147.545 101.593 147.527L103.684 146.776C102.891 149.848 101.737 153.103 98.4442 154.4C98.0897 154.555 97.7052 154.641 97.3146 154.65C99.168 153.385 100.582 151.626 101.376 149.598H101.208C100.487 150.531 99.8863 151.578 99.0931 152.465Z" fill="#397621"/>
<path d="M95.8485 142.384C96.7238 141.758 97.5291 141.049 98.2519 140.268L98.1077 140.2C98.9249 139.312 99.5017 138.288 100.247 137.332C100.391 137.173 100.391 137.332 100.391 137.332C99.5916 139.327 98.1867 141.053 96.3532 142.293C96.7497 142.271 97.1395 142.186 97.5069 142.043C100.8 140.723 101.929 137.446 102.746 134.419L100.631 135.17C100.603 135.181 100.573 135.186 100.542 135.185C100.512 135.183 100.482 135.176 100.455 135.163C100.428 135.15 100.404 135.132 100.384 135.11C100.365 135.088 100.351 135.062 100.343 135.034C100.079 134.579 99.9584 133.805 99.4296 133.441C98.9009 133.077 97.9635 133.873 97.4828 134.101C97.4603 134.125 97.4325 134.145 97.4015 134.158C97.3704 134.171 97.3367 134.178 97.3026 134.178C97.2685 134.178 97.2348 134.171 97.2037 134.158C97.1726 134.145 97.1449 134.125 97.1223 134.101L96.3051 132.303C95.3128 133.703 94.551 135.238 94.0459 136.854L93.9017 137.583V138.106C93.8146 139.027 93.9208 139.955 94.2142 140.837C94.3694 141.306 94.6609 141.724 95.0553 142.043C95.0068 141.085 95.055 140.125 95.1995 139.176C95.3068 137.918 95.6147 136.682 96.1129 135.512C96.2811 135.375 96.2811 135.512 96.2811 135.512C95.9692 136.673 95.7285 137.851 95.5601 139.039C95.4881 140.115 95.4881 141.194 95.5601 142.27L95.8485 142.384Z" fill="#397621"/>
<path fill-rule="evenodd" clip-rule="evenodd" d="M194.726 167.599C195.299 167.351 195.747 166.899 195.971 166.341C196.196 165.784 196.181 165.165 195.928 164.618C195.303 163.389 193.861 163.298 192.563 163.344C192.281 163.44 192.027 163.595 191.818 163.799C191.527 164.129 191.34 164.532 191.281 164.959C191.221 165.386 191.291 165.82 191.482 166.211C191.719 166.801 192.193 167.279 192.801 167.539C193.409 167.799 194.101 167.821 194.726 167.599ZM194.173 149.394C194.741 149.145 195.183 148.698 195.408 148.145C195.632 147.593 195.62 146.98 195.375 146.435C194.75 145.207 193.284 145.093 192.01 145.138C191.729 145.234 191.474 145.39 191.265 145.593C190.974 145.924 190.787 146.326 190.728 146.753C190.668 147.18 190.738 147.615 190.929 148.006C191.032 148.308 191.2 148.586 191.424 148.823C191.647 149.06 191.921 149.25 192.226 149.38C192.532 149.511 192.863 149.58 193.198 149.582C193.534 149.584 193.866 149.52 194.173 149.394ZM177.349 111.595C176.724 110.366 175.258 110.252 173.984 110.321C173.7 110.399 173.442 110.548 173.239 110.753C172.943 111.086 172.754 111.492 172.694 111.924C172.635 112.355 172.707 112.794 172.903 113.188C173.145 113.775 173.62 114.248 174.227 114.508C174.833 114.767 175.522 114.792 176.148 114.576C176.721 114.328 177.168 113.876 177.393 113.318C177.618 112.761 177.602 112.142 177.349 111.595ZM191.049 130.642C190.424 129.413 188.982 129.322 187.708 129.368C187.419 129.463 187.156 129.619 186.939 129.823C186.648 130.154 186.461 130.556 186.402 130.983C186.342 131.41 186.412 131.844 186.603 132.235C186.84 132.826 187.314 133.303 187.922 133.563C188.53 133.824 189.222 133.845 189.847 133.623C190.42 133.375 190.868 132.923 191.092 132.366C191.317 131.808 191.302 131.189 191.049 130.642ZM184.608 115.805C185.175 115.557 185.618 115.109 185.842 114.556C186.066 114.004 186.055 113.391 185.809 112.847C185.185 111.595 183.718 111.504 182.445 111.549C182.163 111.646 181.908 111.801 181.7 112.005C181.404 112.333 181.213 112.734 181.15 113.161C181.086 113.588 181.151 114.024 181.339 114.417C181.51 114.839 181.805 115.206 182.187 115.476C182.57 115.746 183.026 115.907 183.502 115.942C183.551 115.919 183.604 115.908 183.658 115.908C183.712 115.908 183.766 115.919 183.815 115.942C184.085 115.939 184.353 115.892 184.608 115.805ZM174.994 123.087C174.369 121.858 172.927 121.767 171.653 121.813C171.374 121.904 171.12 122.051 170.908 122.245C170.608 122.576 170.414 122.981 170.351 123.413C170.287 123.844 170.355 124.284 170.548 124.68C170.785 125.271 171.259 125.748 171.867 126.008C172.475 126.268 173.167 126.29 173.792 126.068C174.365 125.82 174.813 125.368 175.037 124.81C175.262 124.253 175.247 123.634 174.994 123.087ZM175.354 142.316C174.73 141.088 173.263 140.974 171.99 141.042C171.709 141.129 171.454 141.277 171.245 141.474C170.948 141.807 170.759 142.214 170.7 142.645C170.64 143.077 170.712 143.516 170.908 143.909C171.15 144.496 171.625 144.97 172.232 145.229C172.838 145.489 173.528 145.513 174.153 145.298C174.726 145.049 175.173 144.598 175.398 144.04C175.623 143.482 175.607 142.863 175.354 142.316ZM175.523 159.816C174.898 158.587 173.432 158.474 172.158 158.542C171.882 158.638 171.629 158.785 171.413 158.974C171.113 159.305 170.919 159.71 170.855 160.142C170.791 160.573 170.86 161.013 171.052 161.409C171.299 161.998 171.779 162.472 172.389 162.731C173 162.99 173.692 163.014 174.321 162.797C174.894 162.549 175.341 162.097 175.566 161.54C175.791 160.982 175.775 160.363 175.523 159.816ZM179.272 192.95C179.969 190.674 180.738 188.399 181.267 186.123C181.796 183.847 181.796 181.412 182.012 179.046C178.144 174.781 175.43 169.688 174.105 164.208C173.615 164.296 173.111 164.285 172.626 164.175C172.141 164.066 171.686 163.86 171.291 163.572C170.896 163.284 170.57 162.92 170.334 162.504C170.098 162.088 169.958 161.63 169.923 161.159C169.892 160.578 170.012 159.998 170.271 159.471C170.531 158.943 170.923 158.484 171.413 158.132L171.677 157.996H171.99C172.835 157.694 173.77 157.708 174.604 158.035C175.439 158.362 176.111 158.977 176.484 159.756C176.858 160.535 176.904 161.419 176.613 162.229C176.323 163.039 175.718 163.714 174.922 164.117C176.708 168.739 179.133 173.115 182.132 177.134C182.565 171.24 182.757 165.346 182.613 159.43C178.652 156.029 175.729 151.682 174.153 146.845C173.654 146.959 173.135 146.968 172.633 146.872C172.13 146.776 171.656 146.576 171.244 146.288C170.831 145.999 170.491 145.628 170.246 145.202C170.001 144.775 169.858 144.303 169.827 143.818C169.783 143.236 169.896 142.652 170.157 142.122C170.418 141.593 170.817 141.135 171.317 140.792L171.581 140.655L171.893 140.541C172.72 140.24 173.636 140.242 174.462 140.546C175.288 140.851 175.964 141.436 176.358 142.188C176.751 142.939 176.835 143.803 176.592 144.61C176.348 145.416 175.796 146.108 175.042 146.549C176.864 150.576 179.4 154.278 182.541 157.495C182.541 155.629 182.372 153.74 182.228 151.874C181.964 148.415 181.555 145.047 181.051 141.634C177.121 137.823 174.593 132.916 173.84 127.638H173.648C173.15 127.748 172.632 127.754 172.132 127.656C171.631 127.558 171.158 127.359 170.747 127.071C170.335 126.783 169.995 126.414 169.749 125.99C169.503 125.565 169.357 125.095 169.322 124.612C169.28 124.029 169.395 123.446 169.656 122.917C169.916 122.388 170.314 121.93 170.812 121.585L171.1 121.449L171.413 121.312C172.273 120.985 173.233 120.982 174.095 121.303C174.958 121.625 175.658 122.247 176.051 123.042C176.412 123.836 176.439 124.73 176.126 125.542C175.813 126.354 175.185 127.023 174.369 127.411C175.494 131.8 177.609 135.907 180.57 139.449C179.296 131.644 177.518 123.975 175.763 116.215C175.274 116.303 174.772 116.291 174.288 116.182C173.805 116.072 173.351 115.866 172.958 115.577C172.565 115.289 172.241 114.925 172.008 114.509C171.774 114.093 171.637 113.635 171.605 113.165C171.559 112.582 171.672 111.998 171.933 111.468C172.193 110.938 172.594 110.48 173.095 110.139L173.36 109.979L173.672 109.843C174.533 109.527 175.489 109.529 176.348 109.85C177.208 110.17 177.908 110.785 178.311 111.572C178.674 112.386 178.692 113.302 178.361 114.128C178.029 114.955 177.374 115.629 176.532 116.01C177.793 119.42 178.861 122.891 179.729 126.41C180.953 123.496 181.996 120.518 182.853 117.489C182.074 117.371 181.361 117.004 180.832 116.449C180.303 115.895 179.99 115.186 179.945 114.44C179.905 113.86 180.021 113.281 180.282 112.756C180.542 112.231 180.939 111.776 181.435 111.436L181.724 111.276L182.036 111.14C182.896 110.807 183.858 110.801 184.722 111.123C185.586 111.445 186.286 112.071 186.675 112.869C186.87 113.315 186.961 113.795 186.943 114.278C186.925 114.76 186.798 115.233 186.57 115.664C186.342 116.096 186.019 116.476 185.622 116.779C185.226 117.082 184.765 117.301 184.271 117.421H183.622C183.145 121.189 181.99 124.853 180.209 128.253C181.619 134.468 182.614 140.762 183.19 147.095C185.749 143.485 187.605 139.469 188.67 135.239C187.782 135.235 186.929 134.91 186.286 134.33C185.643 133.751 185.258 132.961 185.209 132.121C185.164 131.542 185.278 130.961 185.539 130.435C185.8 129.909 186.199 129.455 186.699 129.118L186.987 128.958L187.3 128.822C188.16 128.495 189.12 128.491 189.982 128.813C190.845 129.135 191.545 129.757 191.938 130.551C192.129 130.997 192.218 131.477 192.198 131.958C192.178 132.439 192.05 132.91 191.822 133.341C191.595 133.772 191.273 134.151 190.879 134.455C190.484 134.759 190.026 134.98 189.535 135.103H189.318C188.912 140.215 186.837 145.082 183.382 149.03L183.598 151.829C183.935 156.13 184.079 160.454 184.079 164.8C187.591 160.591 190.329 155.852 192.179 150.782C191.477 150.609 190.852 150.229 190.394 149.697C189.936 149.165 189.669 148.509 189.631 147.824C189.585 147.24 189.697 146.656 189.958 146.126C190.219 145.596 190.62 145.138 191.121 144.797L191.385 144.638L191.698 144.501C192.558 144.174 193.518 144.171 194.38 144.492C195.243 144.814 195.943 145.436 196.336 146.231C196.527 146.677 196.616 147.156 196.596 147.637C196.576 148.118 196.448 148.59 196.221 149.02C195.993 149.451 195.672 149.831 195.277 150.134C194.883 150.438 194.425 150.659 193.933 150.782C193.638 150.814 193.339 150.814 193.044 150.782C191.649 156.773 188.539 162.284 184.055 166.712C184.055 170.853 183.766 174.995 183.382 179.137C183.382 179.592 183.382 180.047 183.382 180.502C187.692 177.66 190.9 173.56 192.515 168.828C191.846 168.629 191.257 168.241 190.827 167.717C190.398 167.192 190.148 166.555 190.112 165.892C190.067 165.313 190.181 164.732 190.442 164.206C190.703 163.68 191.102 163.226 191.602 162.888L191.866 162.729L192.179 162.593C193.039 162.265 193.999 162.262 194.861 162.584C195.724 162.906 196.424 163.527 196.817 164.322C197.008 164.768 197.096 165.248 197.076 165.729C197.056 166.21 196.929 166.681 196.701 167.112C196.474 167.542 196.152 167.922 195.758 168.226C195.363 168.53 194.905 168.75 194.414 168.873C194.11 168.906 193.804 168.906 193.5 168.873C192.891 171.63 191.663 174.231 189.901 176.5C188.139 178.769 185.883 180.654 183.286 182.027C183.07 185.936 182.16 189.783 180.594 193.405C180.473 193.489 180.332 193.542 180.183 193.559C180.034 193.576 179.883 193.556 179.745 193.5C179.607 193.445 179.486 193.357 179.395 193.245C179.304 193.132 179.245 193 179.224 192.859L179.272 192.95Z" fill="#397621"/>
<path fill-rule="evenodd" clip-rule="evenodd" d="M154.444 131.644C154.481 131.493 154.453 131.335 154.368 131.203C154.283 131.071 154.146 130.976 153.988 130.938C153.851 130.905 153.705 130.919 153.578 130.977C153.45 131.035 153.349 131.134 153.291 131.257C152.973 131.495 152.636 131.708 152.281 131.894C152.071 132.008 151.87 132.138 151.68 132.281C151.054 132.761 150.46 133.278 149.902 133.828C148.79 134.901 147.814 136.092 146.994 137.378L146.705 137.788C146.177 138.539 145.432 139.586 145.696 140.519C145.749 140.805 145.886 141.071 146.089 141.288C146.293 141.505 146.556 141.664 146.85 141.748C147.324 141.817 147.808 141.779 148.264 141.637C148.719 141.495 149.132 141.252 149.469 140.928C151.065 139.686 152.36 138.134 153.267 136.377L153.435 135.967C153.719 135.104 153.936 134.222 154.084 133.328C154.165 132.729 154.285 132.137 154.444 131.553V131.644ZM151.873 121.722C151.75 122.953 151.451 124.163 150.983 125.317C150.64 126.021 150.177 126.667 149.614 127.229C149.356 125.803 149.523 124.338 150.094 122.996C150.503 121.904 150.983 121.335 151.584 121.176C151.729 121.176 151.825 121.176 151.849 121.176C151.873 121.176 151.849 121.176 151.849 121.745L151.873 121.722ZM154.685 127.161C154.253 126.955 153.757 126.906 153.291 127.024C152.234 127.2 151.233 127.596 150.359 128.185C150.662 128.377 151.007 128.502 151.368 128.549C152.012 128.632 152.667 128.544 153.261 128.295C153.856 128.045 154.365 127.645 154.733 127.138L154.685 127.161ZM153.435 143.09C154.01 142.178 154.723 141.35 155.55 140.633C156.282 139.843 157.206 139.234 158.242 138.858C158.685 138.707 159.164 138.683 159.622 138.788C160.079 138.893 160.493 139.123 160.814 139.449C160.906 139.547 160.971 139.664 161.006 139.791C160.554 140.703 159.858 141.487 158.987 142.066C157.311 143.14 155.513 144.033 153.627 144.729L152.714 145.116C152.828 144.435 153.072 143.779 153.435 143.181V143.09ZM160.934 141.588C160.507 142.339 159.877 142.967 159.107 143.409C157.567 144.383 155.787 144.963 153.94 145.093H153.363L153.747 144.934C155.655 144.232 157.469 143.323 159.155 142.226C159.972 141.709 160.654 141.025 161.15 140.223C161.219 140.696 161.144 141.177 160.934 141.611V141.588ZM158.53 147.892C159.474 148.27 160.266 148.924 160.79 149.758C160.932 149.995 161.017 150.258 161.038 150.53C161.059 150.802 161.015 151.075 160.91 151.328C160.699 150.844 160.37 150.415 159.948 150.077C158.23 148.772 156.309 147.728 154.252 146.982L152.81 146.367C153.388 146.466 153.958 146.603 154.517 146.777L155.334 147.004C156.429 147.196 157.5 147.493 158.53 147.892ZM157.305 151.305C158.105 151.725 159.01 151.929 159.924 151.897C160.188 151.863 160.442 151.778 160.669 151.647C160.5 151.124 160.164 150.663 159.708 150.327C158.022 149.038 156.132 148.009 154.108 147.278L152.522 146.595C152.617 146.931 152.763 147.253 152.954 147.551V147.664C153.951 149.272 155.444 150.55 157.232 151.328L157.305 151.305ZM118.08 164.368C117.756 164.377 117.434 164.316 117.139 164.19C116.843 164.064 116.581 163.876 116.374 163.64C116.335 163.521 116.335 163.394 116.374 163.276C119.144 162.317 122.078 161.854 125.026 161.91H125.387C124.411 162.733 123.269 163.36 122.029 163.751C120.79 164.143 119.479 164.29 118.176 164.186L118.08 164.368ZM116.566 162.433C116.471 162.55 116.398 162.681 116.35 162.82V162.957C118.739 162.177 121.23 161.71 123.752 161.569C121.892 161.057 119.917 161.057 118.056 161.569C117.495 161.725 116.993 162.034 116.614 162.456L116.566 162.433ZM122.407 158.087C122.063 157.725 121.802 157.299 121.641 156.837C121.48 156.375 121.421 155.886 121.469 155.402C122.593 157.224 123.88 158.952 125.315 160.568C124.189 159.921 123.202 159.08 122.407 158.087ZM122.743 154.537C123.188 154.591 123.614 154.738 123.992 154.966C124.37 155.194 124.69 155.498 124.93 155.857C125.453 156.682 125.834 157.581 126.06 158.519C126.375 159.327 126.442 160.203 126.252 161.045H126.06C124.377 159.215 122.888 157.233 121.613 155.129C121.664 155.03 121.738 154.945 121.83 154.878C121.956 154.78 122.102 154.707 122.259 154.664C122.416 154.621 122.581 154.609 122.743 154.628V154.537ZM123.776 144.843C122.582 144.911 121.385 144.772 120.243 144.433C119.176 144.116 118.242 143.487 117.576 142.635C119.817 143.677 122.29 144.193 124.786 144.137C125.37 144.149 125.951 144.048 126.492 143.841C126.304 144.103 126.047 144.315 125.747 144.456C125.11 144.717 124.423 144.848 123.728 144.843H123.776ZM122.911 141.998C121.242 141.82 119.553 141.905 117.912 142.248H117.624C119.863 143.296 122.336 143.819 124.834 143.773C125.5 143.794 126.158 143.636 126.733 143.318C125.61 142.541 124.293 142.055 122.911 141.907V141.998ZM124.425 137.06C124.4 136.963 124.4 136.861 124.425 136.764C124.805 136.819 125.167 136.948 125.49 137.144C125.813 137.34 126.089 137.598 126.3 137.902C127.023 138.91 127.492 140.063 127.67 141.27C127.543 141.294 127.412 141.294 127.286 141.27C126.084 140.906 124.882 138.585 124.474 137.105L124.425 137.06ZM148.989 122.655C149.139 122.074 149.436 121.536 149.855 121.088C150.274 120.64 150.801 120.295 151.392 120.083C151.629 120.01 151.881 119.99 152.127 120.025C152.373 120.061 152.607 120.151 152.81 120.288C153.026 120.502 153.182 120.765 153.262 121.052C153.341 121.338 153.343 121.639 153.267 121.927C153.129 123.268 152.797 124.585 152.281 125.841C152.227 125.959 152.162 126.073 152.089 126.182L153.243 125.909C153.689 125.788 154.16 125.775 154.614 125.87C155.067 125.966 155.488 126.167 155.838 126.455C156.036 126.645 156.155 126.895 156.175 127.161C156.2 127.266 156.2 127.374 156.175 127.479C156.137 127.575 156.089 127.666 156.031 127.752C155.537 128.469 154.839 129.038 154.019 129.397C153.199 129.755 152.288 129.887 151.392 129.778C150.759 129.694 150.161 129.45 149.662 129.072L148.316 130.165C147.811 130.551 147.33 130.938 146.898 131.325C146.984 134.877 146.365 138.413 145.071 141.748C144.855 142.317 144.638 142.863 144.422 143.341C143.749 144.911 142.98 146.367 142.187 147.892C145.074 146.239 148.32 145.227 151.68 144.934H151.825C151.937 144.075 152.232 143.247 152.69 142.499C153.347 141.483 154.157 140.563 155.093 139.768C155.956 138.848 157.046 138.144 158.266 137.72C158.869 137.53 159.514 137.487 160.139 137.594C160.765 137.702 161.352 137.956 161.847 138.334C161.847 138.334 161.991 138.334 161.991 138.471L162.232 138.698C162.58 139.182 162.784 139.747 162.822 140.331C162.86 140.916 162.731 141.5 162.448 142.021C161.935 142.965 161.152 143.753 160.189 144.296C159.046 145.025 157.777 145.557 156.439 145.867C157.454 146.057 158.444 146.347 159.396 146.731C160.592 147.213 161.588 148.052 162.232 149.121C162.445 149.485 162.578 149.887 162.624 150.301C162.669 150.716 162.626 151.135 162.496 151.533C162.36 151.906 162.109 152.231 161.775 152.466C161.394 152.75 160.935 152.923 160.453 152.967C159.3 153.027 158.151 152.783 157.136 152.261C155.123 151.37 153.445 149.917 152.329 148.097V147.983C151.918 147.409 151.731 146.717 151.801 146.026C147.991 146.378 144.357 147.716 141.298 149.895C138.855 154.27 137.052 158.94 135.938 163.776C136.106 163.503 136.25 163.207 136.395 162.957C136.965 161.892 137.684 160.904 138.534 160.021C140.097 158.624 141.891 157.479 143.845 156.631C145.041 156.065 146.197 155.426 147.306 154.719C147.414 154.643 147.545 154.602 147.679 154.602C147.813 154.602 147.944 154.643 148.051 154.719C148.157 154.798 148.232 154.907 148.267 155.03C148.301 155.153 148.293 155.283 148.244 155.402C147.669 156.746 147.179 158.121 146.777 159.521C146.465 160.476 146.177 161.432 145.816 162.388C145.245 164.026 144.393 165.564 143.292 166.939C142.502 167.804 141.597 168.568 140.601 169.215C140.051 169.609 139.433 169.909 138.774 170.103C137.596 170.472 136.323 170.472 135.145 170.103C135.025 171.377 134.928 172.719 134.88 174.108C134.988 174.565 134.988 175.039 134.88 175.496C134.867 175.556 134.867 175.618 134.88 175.678C134.635 180.84 135.988 185.958 138.774 190.401C138.815 190.483 138.836 190.573 138.836 190.663C138.836 190.754 138.815 190.843 138.774 190.925C138.73 191.045 138.645 191.149 138.534 191.221C138.466 191.262 138.391 191.29 138.311 191.304C138.232 191.317 138.151 191.315 138.072 191.298C137.994 191.281 137.92 191.25 137.855 191.205C137.789 191.16 137.734 191.104 137.692 191.039C135.007 186.83 133.594 182.005 133.607 177.089C132.546 177.632 131.35 177.892 130.146 177.84C127.625 177.884 125.137 177.295 122.935 176.133C120.657 174.731 118.635 172.986 116.951 170.967C116.881 170.895 116.831 170.807 116.806 170.711C116.78 170.616 116.781 170.516 116.807 170.421C116.836 170.333 116.886 170.253 116.952 170.186C117.019 170.119 117.1 170.067 117.191 170.034C120.862 168.468 124.976 168.092 128.896 168.965C130.302 169.402 131.607 170.089 132.741 170.99C133.124 171.311 133.478 171.661 133.799 172.037L134.015 169.443C134.159 168.123 134.304 166.803 134.472 165.46H134.352C132.07 164.174 129.653 163.114 127.141 162.297C126.034 163.33 124.706 164.126 123.247 164.632C121.788 165.139 120.231 165.343 118.681 165.233C118.147 165.254 117.617 165.14 117.144 164.905C116.671 164.669 116.273 164.319 115.989 163.89C115.78 163.493 115.698 163.046 115.754 162.606C115.809 162.165 116 161.749 116.302 161.409C116.816 160.809 117.512 160.372 118.297 160.158C119.965 159.646 121.746 159.552 123.464 159.885C122.973 159.461 122.522 158.996 122.118 158.497C121.641 158.002 121.29 157.411 121.095 156.767C120.899 156.124 120.862 155.446 120.989 154.787C121.086 154.329 121.339 153.913 121.71 153.604C121.957 153.406 122.245 153.258 122.554 153.168C122.864 153.078 123.19 153.048 123.512 153.08C124.146 153.136 124.757 153.329 125.299 153.645C125.841 153.96 126.299 154.39 126.637 154.901C127.248 155.827 127.694 156.842 127.958 157.905C128.367 159.025 128.367 160.243 127.958 161.364C130.279 162.121 132.516 163.089 134.64 164.254C135.001 161.159 135.361 157.996 135.409 154.856L135.217 155.015C134.524 155.311 133.747 155.383 133.006 155.22H132.573C131.586 155.256 130.608 155.019 129.761 154.537C129.122 154.085 128.59 153.511 128.199 152.853C128.129 152.693 128.129 152.513 128.199 152.352C128.264 152.191 128.393 152.06 128.559 151.988L129.857 151.51C130.345 151.304 130.864 151.173 131.395 151.123C132.001 151.093 132.606 151.21 133.15 151.465C134.058 151.844 134.876 152.393 135.553 153.08C135.518 151.316 135.326 149.557 134.977 147.824C134.898 147.349 134.794 146.878 134.664 146.413H134.52C132.457 145.752 130.461 144.914 128.559 143.91C128.263 144.498 127.762 144.972 127.141 145.252C126.119 145.823 124.936 146.085 123.752 146.003C122.421 146.067 121.087 145.913 119.811 145.548C118.472 145.154 117.306 144.355 116.494 143.272C116.364 143.125 116.27 142.954 116.216 142.77C116.162 142.585 116.15 142.392 116.182 142.203C116.182 141.816 116.566 141.315 117.624 141.111C119.398 140.737 121.225 140.645 123.031 140.837C123.854 140.935 124.661 141.126 125.435 141.406C124.434 140.209 123.684 138.842 123.224 137.378C123.096 137.094 123.074 136.777 123.162 136.48C123.249 136.182 123.44 135.921 123.704 135.74C123.92 135.638 124.161 135.591 124.401 135.603C124.972 135.645 125.524 135.81 126.016 136.087C126.508 136.363 126.926 136.743 127.237 137.196C127.43 137.424 129.256 140.291 128.728 141.748L128.583 142.021C128.446 142.188 128.266 142.318 128.059 142.397C127.852 142.477 127.627 142.504 127.406 142.476L128.127 143.045C129.834 143.945 131.619 144.707 133.462 145.321C132.004 140.947 130.004 136.754 127.502 132.827C127.434 132.998 127.318 133.148 127.165 133.259C126.3 133.919 124.546 133.487 122.959 133.032H122.695C120.858 132.544 119.197 131.592 117.888 130.278C117.499 129.844 117.138 129.388 116.807 128.913L116.134 128.025C116.059 127.941 116.012 127.838 115.998 127.73C115.985 127.621 116.004 127.51 116.055 127.412C116.106 127.313 116.186 127.23 116.285 127.174C116.384 127.117 116.498 127.089 116.614 127.092C119.238 126.812 121.892 127.255 124.257 128.367C124.776 128.668 125.266 129.011 125.723 129.391C125.294 128.277 125.194 127.073 125.435 125.909C125.786 124.355 126.483 122.888 127.478 121.608C127.958 120.948 128.631 120.743 129.16 121.085C129.327 121.203 129.46 121.36 129.545 121.54C130.366 123.522 130.366 125.725 129.545 127.707C129.495 127.923 129.431 128.136 129.352 128.344C129.23 128.675 129.078 128.995 128.896 129.3C128.577 129.867 128.134 130.363 127.598 130.756C128.656 132.508 129.761 134.329 130.771 136.218C130.767 135.383 130.964 134.558 131.347 133.806V133.646C131.929 132.206 132.821 130.896 133.967 129.8C134.938 128.778 136.273 128.13 137.716 127.98C137.826 127.973 137.936 127.995 138.033 128.043C138.131 128.091 138.212 128.164 138.269 128.253C138.339 128.413 138.339 128.593 138.269 128.754C137.77 129.627 137.375 130.551 137.092 131.507C136.875 132.076 136.683 132.645 136.419 133.214C136.122 134.067 135.633 134.849 134.986 135.505C134.338 136.161 133.548 136.676 132.669 137.014C132.408 137.124 132.121 137.165 131.838 137.133C131.554 137.101 131.285 136.997 131.059 136.832C132.998 140.307 134.414 144.022 135.265 147.869C135.853 151.115 136.022 154.416 135.77 157.7C136.974 154.43 138.453 151.257 140.192 148.211C141.153 146.436 142.067 144.752 142.86 142.931L143.461 141.406L143.317 141.566C141.826 142.726 138.894 139.813 138.87 139.768C138.271 139.126 137.724 138.441 137.236 137.72C136.851 137.174 136.467 136.673 136.058 136.172C135.987 136.071 135.949 135.952 135.949 135.831C135.949 135.709 135.987 135.591 136.058 135.49C136.129 135.387 136.232 135.308 136.352 135.263C136.473 135.218 136.605 135.21 136.731 135.239C138.682 135.449 140.511 136.247 141.947 137.515C141.947 137.515 143.797 139.631 143.749 140.815C145.239 136.605 146.465 130.415 143.749 125.226H143.341C142.678 125.157 142.009 125.157 141.346 125.226C140.817 125.226 140.264 125.226 139.687 125.226C138.411 125.129 137.192 124.688 136.173 123.953C135.155 123.219 134.381 122.223 133.943 121.085C133.867 120.889 133.843 120.679 133.874 120.473C133.905 120.266 133.99 120.071 134.122 119.903C134.253 119.736 134.426 119.602 134.626 119.515C134.826 119.427 135.045 119.388 135.265 119.401C137.149 119.204 139.048 119.622 140.649 120.584C141.61 121.158 142.477 121.864 143.22 122.678C143.643 123.083 144.014 123.533 144.326 124.02L144.446 124.134C145.54 125.956 146.235 127.969 146.489 130.051L147.33 129.391C147.787 129.027 148.268 128.64 148.7 128.253C148.113 126.457 148.215 124.523 148.989 122.791V122.655ZM145.552 116.852C145.239 117.375 143.148 122.04 144.302 123.679C144.441 123.89 144.644 124.056 144.883 124.157C145.123 124.259 145.389 124.29 145.648 124.248C146.729 124.111 147.499 122.541 148.051 121.039V120.834L148.436 119.879C148.796 118.9 149.085 117.921 149.349 117.011C149.734 115.646 149.061 115.168 148.748 115.031C148.563 114.952 148.363 114.91 148.159 114.91C147.956 114.91 147.755 114.952 147.571 115.031C146.697 115.396 145.972 116.019 145.504 116.806L145.552 116.852Z" fill="#397621"/>
</g>
<path fill-rule="evenodd" clip-rule="evenodd" d="M61.6713 95.9338C61.9732 95.2092 62.2753 94.3639 62.6376 93.5185C63.1207 92.1297 63.7847 90.5598 64.6904 89.171C66.3208 86.6953 68.7361 84.763 72.6006 85.065C76.0424 85.3669 78.7597 86.816 80.5711 89.4125C80.8127 89.7144 81.5975 91.5259 80.088 90.6202C79.6653 90.3786 79.1823 90.0767 78.6388 89.8352C75.4989 88.2048 73.3252 87.6614 71.5137 88.3256C68.6757 89.3521 66.2603 93.5185 66.1396 96.4773C66.1396 97.9265 66.3206 99.3153 66.4414 100.463C66.5622 102.395 65.9586 103.663 67.1059 102.516C67.9513 101.67 67.951 99.9191 68.3737 99.0134C69.4606 96.6584 72.2986 93.6393 75.197 94.1827C77.4915 94.6054 79.4843 96.6584 78.7597 96.598C78.5786 96.598 78.1558 96.4773 77.4916 96.115C75.9216 95.3904 74.8347 95.5111 72.9024 97.2019C70.789 99.0134 68.7966 104.387 70.0646 107.165C70.1854 107.467 70.3666 107.648 70.4873 107.769C71.3327 108.373 71.3932 107.527 71.3328 106.924C71.2724 105.897 71.5138 104.81 71.9969 103.723C72.6007 102.395 73.6271 101.187 74.8347 100.463C77.0689 99.1341 80.5712 100.342 82.9262 101.127C83.6508 101.368 84.1336 101.61 84.194 101.731C84.194 101.851 83.2884 101.731 82.0807 101.67C76.5255 101.066 74.7744 103.784 74.1706 107.648C73.9894 108.675 73.5668 113.626 74.1706 116.041C74.3517 116.826 74.533 117.49 75.0765 117.49C75.5595 117.49 75.3177 115.921 75.4988 114.834C75.7404 113.324 76.0423 111.875 76.6461 110.667C77.1292 109.762 77.7331 108.977 78.6388 108.433C79.2427 108.071 79.7863 107.95 80.3297 107.95C84.3754 107.95 80.9333 109.037 80.088 110.124C77.25 113.505 80.2692 121.838 80.873 121.959C81.2353 122.019 81.2352 120.027 81.9598 117.732C82.5637 115.8 83.5901 113.686 85.7035 112.298C88.9038 110.245 87.1529 117.792 87.0322 119.181C86.7302 122.683 87.0322 126.065 88.2399 129.084C89.206 131.379 90.776 133.371 93.1913 135.062C95.4859 136.632 99.954 138.685 99.8333 142.006C99.6521 145.448 100.498 149.916 97.6596 152.09C95.9689 153.358 94.0968 153.237 92.1645 153.418C91.1984 153.479 91.44 153.901 92.225 154.082C94.5195 154.566 97.6596 154.445 99.9542 154.928C101.524 155.23 103.215 156.015 104.603 156.437C105.509 156.679 108.589 156.92 109.615 156.981C113.963 157.283 112.695 156.679 110.038 156.135C106.958 155.532 104.12 154.626 104.181 154.384C104.301 153.841 107.743 155.411 110.098 155.23C111.789 155.109 113.238 154.928 112.393 154.686C110.883 154.264 101.584 152.996 101.343 151.909C101.222 151.244 101.222 150.158 101.343 149.675C101.645 148.467 102.55 147.561 103.517 146.172C106.173 142.247 112.755 137.055 117.525 136.088C118.129 140.738 119.156 141.221 122.96 143.878C125.134 145.387 126.402 145.991 127.368 147.561C127.911 148.407 128.636 149.493 128.817 151.184C128.817 151.728 128.998 151.848 128.455 152.029C127.066 152.513 122.899 153.056 127.247 153.358C127.911 153.358 128.636 153.116 129.723 153.177C134.191 153.539 128.817 158.188 142.343 155.411C146.569 154.566 147.717 154.686 144.214 154.264C142.765 154.082 140.773 154.143 139.263 154.082C137.875 154.082 136.546 153.962 136.365 153.599C136.244 153.358 139.626 153.298 142.283 152.996C143.853 152.814 145.362 152.271 145.362 152.211C145.543 151.607 136.908 151.909 133.346 150.641C130.025 149.433 129.119 146.655 128.153 140.557C127.791 138.323 128.274 136.571 128.576 136.088C130.206 133.432 134.734 131.62 136.365 129.446C138.357 126.91 139.746 124.676 140.652 122.382C141.256 120.812 141.679 119.181 141.86 117.37C141.92 116.766 141.981 113.083 142.524 112.962C143.067 112.841 143.007 113.988 143.188 114.23C143.611 114.834 145.181 110.848 146.207 106.259C147.536 100.281 147.415 97.9265 145.422 92.4316C144.456 89.7144 141.739 83.3139 143.188 80.5362C143.973 79.0267 145 78.4832 145.845 79.5097C146.086 79.8116 146.207 80.0532 146.328 80.2947C147.838 83.495 152.91 81.6835 152.245 77.9398C151.944 76.1887 150.374 75.0414 151.159 73.8338C151.762 72.8072 153.936 72.3846 155.929 73.1695C156.05 73.1695 156.17 72.143 154.902 70.7542C152.97 68.5804 150.011 67.9766 147.113 67.5539C146.811 67.5539 146.57 67.3124 146.751 67.0709C146.811 66.9501 146.932 66.8897 147.053 66.7689C148.381 65.0782 149.347 61.8779 148.079 59.523C146.811 57.1681 143.49 60.6703 142.886 60.3684C142.886 60.3684 143.369 56.8662 140.652 56.9266C139.867 56.9266 139.324 57.1077 138.961 57.3492C137.693 58.1946 138.357 60.4287 137.874 60.5495C136.848 60.791 136.365 56.6246 132.138 57.7719C130.809 58.1342 129.783 58.9796 129.783 59.7646C129.723 60.8514 130.266 61.3345 131.232 62.0591C134.131 64.1121 129.723 60.9722 128.394 64.3537C127.247 67.1313 131.172 67.252 132.802 67.6747C134.493 68.0974 134.251 68.2181 133.346 68.7616C132.259 69.3654 130.146 70.3919 128.274 72.2034C124.832 75.5244 123.382 79.6305 122.295 83.5554C120.424 90.439 119.518 96.6584 110.34 96.4169C102.55 96.1754 93.7345 89.654 93.3118 82.4685C93.0703 78.0606 92.4062 75.7056 90.8363 74.1356C89.3267 72.5657 86.9717 71.7203 83.228 70.4523C81.3561 69.8485 76.8276 68.037 81.1148 71.5392C82.6847 72.8072 84.6168 73.1091 85.5226 75.2829C86.4283 77.5171 85.6433 77.2755 83.9526 76.3094C83.1072 75.8264 82.1411 75.2829 81.3561 75.0414C77.1897 73.713 73.8686 73.4714 71.091 74.4376C67.2869 75.766 62.0941 82.2269 60.7053 85.7895C59.5581 88.6275 60.1617 91.5863 60.1617 94.1224C60.1617 96.4773 59.3166 100.885 61.4903 95.8131L61.6713 95.9338Z" fill="#D7B46A"/>
<path fill-rule="evenodd" clip-rule="evenodd" d="M112.334 100.342C131.114 98.7718 139.326 116.343 118.675 124.616C111.972 127.333 104.062 127.091 96.7556 125.159C93.3138 124.253 96.9971 123.65 99.7143 121.113C96.031 119.664 92.3478 122.08 97.2992 117.128C101.647 112.781 89.5098 117.007 99.1711 109.943C99.8957 109.46 105.39 106.018 105.088 104.991C103.519 104.87 101.405 105.172 104.726 103.119C107.021 101.731 109.557 100.825 112.395 100.342H112.334Z" fill="#B28100"/>
<mask id="mask1_405_4853" style="mask-type:alpha" maskUnits="userSpaceOnUse" x="94" y="100" width="37" height="27">
<path fill-rule="evenodd" clip-rule="evenodd" d="M112.334 100.342C131.114 98.7718 139.326 116.343 118.675 124.616C111.972 127.333 104.062 127.091 96.7556 125.159C93.3138 124.253 96.9971 123.65 99.7143 121.113C96.031 119.664 92.3478 122.08 97.2992 117.128C101.647 112.781 89.5098 117.007 99.1711 109.943C99.8957 109.46 105.39 106.018 105.088 104.991C103.519 104.87 101.405 105.172 104.726 103.119C107.021 101.731 109.557 100.825 112.395 100.342H112.334Z" fill="#B28100"/>
</mask>
<g mask="url(#mask1_405_4853)">
<path fill-rule="evenodd" clip-rule="evenodd" d="M127.429 111.03C127.429 111.03 128.033 111.211 128.153 111.754C128.153 111.935 128.153 112.177 128.093 112.479C127.972 112.841 127.851 113.083 127.61 113.203C127.247 113.385 126.825 113.203 126.523 113.083C126.342 113.022 126.161 112.902 126.04 112.72C125.799 112.418 125.799 111.935 126.04 111.573C126.342 111.211 126.885 110.969 127.429 111.09V111.03ZM127.67 115.377C127.67 115.377 127.67 115.498 127.61 115.558C127.61 115.558 127.55 115.558 127.489 115.558C127.489 115.558 127.489 115.558 127.429 115.558C127.368 115.558 127.308 115.377 127.308 115.317C127.308 115.317 127.368 115.256 127.429 115.196C127.549 115.196 127.61 115.196 127.67 115.196C127.67 115.196 127.67 115.196 127.67 115.317V115.377ZM124.228 113.445C124.228 113.445 124.229 113.445 124.108 113.445C124.108 113.445 123.987 113.445 123.926 113.445C123.926 113.445 123.866 113.385 123.866 113.324C123.866 113.324 123.866 113.324 123.866 113.264C123.866 113.203 123.987 113.143 124.047 113.143C124.047 113.143 124.108 113.143 124.168 113.264C124.168 113.264 124.168 113.445 124.168 113.505L124.228 113.445ZM124.168 111.754C124.168 111.754 124.168 111.754 124.108 111.754C124.108 111.754 124.047 111.754 123.987 111.694V111.633C123.987 111.633 124.047 111.633 124.108 111.633C124.108 111.633 124.108 111.633 124.108 111.694C124.108 111.754 124.108 111.815 124.047 111.875L124.168 111.754ZM126.462 109.339C126.462 109.339 126.462 109.218 126.462 109.158C126.462 109.158 126.523 109.158 126.523 109.279V109.339C126.523 109.339 126.402 109.399 126.342 109.399H126.281L126.462 109.339ZM129.482 110.486C129.482 110.486 129.602 110.486 129.663 110.486C129.663 110.486 129.663 110.486 129.663 110.547C129.663 110.547 129.663 110.607 129.602 110.667C129.602 110.667 129.602 110.667 129.542 110.667C129.542 110.667 129.421 110.607 129.421 110.547C129.421 110.547 129.421 110.486 129.421 110.426L129.482 110.486ZM130.327 111.996C130.327 111.996 130.327 111.996 130.448 111.996C130.448 111.996 130.568 111.996 130.629 112.117V112.237C130.629 112.237 130.629 112.237 130.629 112.298C130.568 112.358 130.448 112.418 130.387 112.358C130.387 112.358 130.327 112.298 130.327 112.237C130.327 112.117 130.327 112.056 130.387 111.996H130.327ZM129.421 114.23C129.421 114.23 129.482 114.23 129.542 114.29C129.542 114.351 129.542 114.411 129.542 114.471C129.542 114.471 129.542 114.592 129.482 114.592C129.482 114.592 129.482 114.592 129.421 114.592C129.301 114.592 129.24 114.592 129.18 114.471C129.18 114.471 129.18 114.351 129.18 114.29C129.18 114.23 129.301 114.17 129.421 114.17V114.23ZM125.98 114.713C125.98 114.713 125.919 114.773 125.859 114.773H125.798C125.798 114.713 125.798 114.653 125.798 114.592C125.859 114.592 125.919 114.653 125.919 114.713C125.919 114.713 125.919 114.713 125.919 114.773L125.98 114.713ZM122.598 112.237C122.598 112.237 122.296 112.358 122.175 112.358C121.934 112.358 121.692 112.358 121.511 112.177C121.451 112.177 121.39 112.177 121.33 112.177C121.33 112.237 121.33 112.298 121.33 112.358C121.572 112.479 121.813 112.6 122.115 112.6C122.115 112.6 122.538 112.539 122.719 112.418C122.839 112.298 122.961 112.177 123.021 112.056C123.564 112.418 124.228 112.66 124.832 112.66C125.074 112.66 125.376 112.66 125.617 112.539C125.617 112.539 125.617 112.66 125.678 112.72C125.315 112.902 124.893 113.083 124.41 113.143C124.349 113.022 124.229 112.902 124.108 112.902C123.866 112.902 123.685 113.022 123.625 113.203C123.625 113.264 123.625 113.324 123.625 113.385C123.625 113.505 123.685 113.626 123.806 113.687C123.866 113.747 123.987 113.807 124.108 113.807C124.229 113.807 124.349 113.747 124.41 113.626C124.41 113.626 124.41 113.505 124.47 113.445C124.953 113.385 125.436 113.203 125.798 112.962C125.798 112.962 125.798 112.962 125.859 113.022C125.557 113.626 125.013 114.109 124.41 114.351C124.168 114.049 123.745 113.928 123.323 113.988C123.081 113.988 122.779 114.109 122.538 114.23C122.477 114.23 122.477 114.351 122.538 114.411C122.538 114.472 122.658 114.472 122.719 114.411C122.9 114.29 123.142 114.23 123.383 114.17C123.564 114.17 123.806 114.17 123.987 114.17C123.564 114.17 123.202 114.411 122.9 114.713C122.9 114.713 122.9 114.834 122.9 114.894C122.9 114.894 123.021 114.894 123.081 114.894C123.383 114.592 123.806 114.411 124.228 114.411C123.926 114.834 123.564 115.196 123.081 115.438C123.021 115.438 122.96 115.558 123.081 115.619C123.081 115.619 123.141 115.679 123.202 115.679C123.685 115.438 124.108 115.075 124.41 114.653C124.41 114.834 124.41 115.075 124.41 115.196C124.289 115.498 124.108 115.74 123.926 115.921C123.926 115.921 123.926 116.041 123.926 116.102C123.926 116.102 123.926 116.102 123.987 116.102C123.987 116.102 124.047 116.102 124.108 116.102C124.289 115.86 124.53 115.619 124.651 115.256C124.772 114.955 124.772 114.653 124.651 114.411C125.315 114.17 125.859 113.626 126.221 113.022C126.221 113.022 126.281 113.022 126.342 113.083C126.281 113.505 126.1 113.868 125.919 114.17C125.919 114.17 125.678 114.17 125.617 114.23C125.497 114.351 125.496 114.592 125.557 114.713C125.557 114.773 125.557 114.834 125.678 114.834C125.738 114.834 125.798 114.894 125.919 114.894C125.919 114.894 125.919 114.894 125.98 114.894C126.1 114.894 126.161 114.834 126.221 114.713C126.281 114.592 126.342 114.532 126.281 114.411C126.281 114.411 126.281 114.29 126.221 114.29C126.463 113.928 126.583 113.566 126.704 113.203C126.704 113.203 126.764 113.203 126.825 113.203C126.825 114.17 126.825 115.256 126.342 116.162C125.98 116.041 125.617 116.162 125.134 116.464C125.074 116.464 125.074 116.585 125.134 116.645C125.134 116.706 125.255 116.706 125.315 116.645C125.617 116.464 125.799 116.404 126.04 116.343C125.799 116.585 125.617 116.887 125.557 117.249C125.557 117.309 125.557 117.37 125.678 117.43C125.738 117.43 125.798 117.43 125.859 117.309C125.859 116.947 126.1 116.645 126.402 116.464C126.402 116.645 126.402 116.826 126.402 117.008C126.402 117.249 126.281 117.491 126.221 117.732C126.221 117.793 126.221 117.853 126.281 117.913C126.281 117.913 126.402 117.913 126.402 117.793C126.463 117.551 126.583 117.309 126.583 117.008C126.583 116.887 126.583 116.706 126.583 116.525C126.644 116.585 126.704 116.706 126.765 116.826C126.825 117.068 126.825 117.309 126.765 117.551C126.765 117.611 126.764 117.672 126.825 117.732C126.825 117.732 126.946 117.732 126.946 117.672C127.066 117.37 127.006 117.068 126.946 116.766C126.885 116.525 126.704 116.343 126.523 116.223C127.066 115.317 127.127 114.23 127.066 113.203H127.187C127.368 113.687 127.429 114.17 127.429 114.713C127.308 114.713 127.187 114.834 127.127 115.015C127.067 115.256 127.187 115.438 127.368 115.558C127.429 115.558 127.489 115.619 127.55 115.619C127.55 115.619 127.549 115.619 127.61 115.619C127.73 115.619 127.852 115.619 127.912 115.498C127.972 115.438 128.032 115.317 128.093 115.196C128.093 115.075 128.093 114.894 127.972 114.834C127.972 114.834 127.851 114.773 127.791 114.713C127.791 114.23 127.731 113.687 127.55 113.203C127.55 113.203 127.549 113.203 127.61 113.203C128.576 115.075 129.059 117.309 128.878 119.423C128.878 119.483 128.878 119.544 128.999 119.544C128.999 119.544 129.119 119.544 129.119 119.423C129.3 117.249 128.878 115.015 127.851 113.083C127.972 113.083 128.032 112.962 128.093 112.902C128.455 113.203 128.818 113.505 129.059 113.928C128.938 114.049 128.938 114.17 128.999 114.351C129.059 114.592 129.3 114.653 129.482 114.653C129.542 114.653 129.602 114.653 129.663 114.653C129.784 114.653 129.844 114.472 129.904 114.351C129.904 114.23 129.904 114.109 129.904 113.988C129.844 113.868 129.723 113.747 129.602 113.747C129.542 113.747 129.421 113.747 129.361 113.747C129.059 113.324 128.697 112.962 128.334 112.66C128.334 112.539 128.455 112.418 128.516 112.298C129.24 112.539 129.905 112.781 130.569 113.143C130.569 113.143 130.569 113.203 130.508 113.264C130.388 113.445 130.387 113.687 130.448 113.928C130.448 114.049 130.448 114.109 130.508 114.17C130.508 114.23 130.629 114.29 130.689 114.351C130.81 114.472 130.931 114.592 131.052 114.653C131.052 114.653 131.052 114.653 131.112 114.653C131.112 114.653 131.172 114.653 131.233 114.653C131.233 114.653 131.233 114.532 131.233 114.471C131.112 114.411 130.991 114.29 130.931 114.17C130.931 114.17 130.871 114.109 130.81 114.049C130.81 114.049 130.81 113.928 130.81 113.868C130.81 113.747 130.81 113.626 130.81 113.505C131.052 113.868 131.414 114.17 131.837 114.29C131.837 114.29 131.957 114.29 131.957 114.17C131.957 114.109 131.957 114.049 131.837 113.988C131.474 113.868 131.112 113.626 130.931 113.264V113.203C131.293 113.203 131.595 113.385 131.897 113.566C131.897 113.566 131.897 113.566 131.957 113.566C131.957 113.566 132.018 113.566 132.078 113.566C132.078 113.505 132.078 113.445 132.078 113.385C131.837 113.203 131.595 113.083 131.293 113.022C131.474 113.022 131.595 113.022 131.776 113.022C131.957 113.022 132.078 113.143 132.138 113.264C132.138 113.264 132.259 113.264 132.32 113.264C132.32 113.264 132.32 113.143 132.32 113.083C132.199 112.962 132.018 112.841 131.837 112.781C131.655 112.781 131.474 112.781 131.293 112.781C131.233 112.781 131.112 112.781 131.052 112.781C130.991 112.781 130.871 112.841 130.81 112.902C130.146 112.539 129.421 112.237 128.636 111.996C128.636 111.996 128.636 111.996 128.636 111.935C129.12 111.815 129.663 111.875 130.146 111.935C130.146 112.056 130.267 112.237 130.387 112.298C130.387 112.298 130.508 112.298 130.569 112.298C130.69 112.298 130.871 112.237 130.931 112.117C130.931 112.117 131.052 111.996 131.052 111.935C131.052 111.815 131.052 111.694 131.052 111.573C130.991 111.513 130.87 111.392 130.75 111.392C130.629 111.392 130.448 111.392 130.387 111.392C130.387 111.392 130.267 111.513 130.267 111.573C129.723 111.452 129.18 111.452 128.697 111.573C128.697 111.513 128.697 111.452 128.697 111.392C129.301 111.392 129.904 111.211 130.508 110.969C130.871 110.849 131.354 110.607 131.656 110.184C131.776 110.305 131.897 110.365 132.018 110.365C132.018 110.365 132.138 110.365 132.199 110.365C132.32 110.365 132.44 110.365 132.561 110.365C132.803 110.365 132.984 110.245 133.165 110.124C133.226 110.124 133.226 110.003 133.165 109.943C133.165 109.882 133.044 109.882 132.984 109.943C132.803 110.064 132.622 110.124 132.441 110.184C132.259 110.184 132.139 110.245 132.018 110.184C131.897 110.184 131.776 110.124 131.716 110.003C131.716 110.003 131.716 110.003 131.776 110.003C132.138 110.003 132.44 109.822 132.561 109.701C132.621 109.641 132.742 109.52 132.803 109.339C132.803 109.279 132.803 109.218 132.682 109.158C132.622 109.158 132.561 109.158 132.501 109.279C132.501 109.279 132.501 109.399 132.38 109.46C132.139 109.641 131.897 109.701 131.716 109.701C131.716 109.701 131.716 109.52 131.897 109.399C132.018 109.279 132.199 109.158 132.38 109.037C132.441 109.037 132.441 108.916 132.38 108.856C132.38 108.795 132.259 108.795 132.199 108.856C132.018 108.977 131.837 109.097 131.656 109.279C131.656 109.279 131.535 109.399 131.474 109.52C131.474 109.52 131.474 109.52 131.474 109.46C131.474 109.279 131.595 109.037 131.776 108.916C131.776 108.916 131.776 108.796 131.776 108.735C131.776 108.735 131.656 108.735 131.595 108.735C131.414 108.916 131.233 109.158 131.233 109.399C131.233 109.52 131.233 109.641 131.233 109.701C131.233 109.822 131.293 109.882 131.353 110.003C131.353 110.003 131.353 110.003 131.353 110.064C131.112 110.426 130.689 110.607 130.327 110.728C129.784 110.909 129.18 111.09 128.576 111.09C128.576 111.03 128.576 110.969 128.516 110.909C128.878 110.788 129.24 110.667 129.542 110.426L129.663 110.486C129.663 110.486 129.663 110.486 129.723 110.486C129.784 110.486 129.904 110.486 129.965 110.365C130.025 110.305 130.086 110.184 130.086 110.124C130.086 110.003 130.086 109.882 130.025 109.822C130.025 109.822 129.965 109.762 129.904 109.701C129.783 109.701 129.542 109.701 129.421 109.822C129.361 109.943 129.301 110.064 129.421 110.184C129.12 110.426 128.757 110.547 128.395 110.667C128.395 110.667 128.335 110.607 128.274 110.547C128.516 110.305 128.697 110.003 128.757 109.701C128.878 109.701 128.938 109.701 128.999 109.762C128.999 109.762 128.999 109.762 129.059 109.762C129.24 109.762 129.421 109.701 129.602 109.58C129.723 109.46 129.904 109.339 130.025 109.158C130.025 109.097 130.025 109.037 130.025 108.977C130.025 108.977 129.904 108.977 129.844 108.977C129.723 109.158 129.602 109.279 129.482 109.339C129.361 109.46 129.18 109.46 129.059 109.46C129.059 109.46 128.999 109.46 128.938 109.46C128.938 109.46 129.18 109.339 129.301 109.218C129.421 109.097 129.542 108.977 129.602 108.796C129.602 108.735 129.602 108.675 129.542 108.614C129.482 108.614 129.421 108.614 129.361 108.735C129.361 108.856 129.24 108.916 129.18 109.037C129.119 109.097 128.999 109.158 128.878 109.218C128.878 109.037 128.998 108.796 129.119 108.675C129.119 108.675 129.119 108.554 129.119 108.494C129.119 108.494 128.999 108.494 128.938 108.494C128.757 108.735 128.697 109.037 128.636 109.279C128.576 109.158 128.576 109.037 128.576 108.977C128.576 108.856 128.576 108.735 128.636 108.614C128.636 108.554 128.636 108.494 128.516 108.433C128.455 108.433 128.395 108.433 128.334 108.554C128.334 108.675 128.274 108.856 128.274 108.977C128.274 109.158 128.274 109.339 128.395 109.46C128.395 109.46 128.516 109.581 128.576 109.641C128.455 109.943 128.334 110.184 128.093 110.426C128.093 110.426 127.912 110.365 127.791 110.305H127.67C127.912 109.46 127.912 108.554 127.67 107.769C127.791 107.769 127.972 107.648 128.093 107.527C128.395 107.286 128.576 106.924 128.576 106.501C128.576 106.441 128.576 106.38 128.455 106.38C128.395 106.38 128.334 106.38 128.334 106.501C128.334 106.803 128.153 107.105 127.972 107.346C127.972 107.346 127.851 107.407 127.791 107.467C127.912 107.044 127.912 106.682 127.912 106.259C127.912 106.199 127.851 106.139 127.791 106.139C127.731 106.139 127.67 106.199 127.67 106.259C127.67 106.682 127.67 107.105 127.489 107.527C127.308 107.226 127.247 106.863 127.247 106.501C127.247 106.441 127.248 106.38 127.127 106.38C127.067 106.38 127.006 106.38 127.006 106.501C127.006 106.924 127.066 107.286 127.247 107.648C127.247 107.648 127.187 107.648 127.127 107.648C127.067 107.648 126.945 107.588 126.825 107.467C126.704 107.407 126.644 107.286 126.583 107.226C126.583 107.165 126.462 107.044 126.462 106.924C126.462 106.863 126.463 106.803 126.342 106.803C126.281 106.803 126.221 106.863 126.221 106.924C126.221 107.105 126.221 107.226 126.402 107.407C126.463 107.527 126.583 107.648 126.704 107.709C126.825 107.829 126.946 107.89 127.066 107.89C127.187 107.89 127.308 107.89 127.429 107.89C127.429 107.89 127.489 107.89 127.55 107.89C127.791 108.675 127.731 109.58 127.55 110.365C127.55 110.365 127.55 110.365 127.489 110.365C127.489 110.003 127.489 109.581 127.368 109.218C127.368 109.218 127.489 109.158 127.489 109.097C127.55 108.977 127.55 108.856 127.489 108.735C127.489 108.614 127.368 108.554 127.308 108.494C127.187 108.494 127.066 108.433 127.006 108.494C127.006 108.494 126.885 108.494 126.885 108.614C126.764 108.735 126.704 108.916 126.885 109.097C126.945 109.218 127.067 109.279 127.187 109.279C127.308 109.641 127.368 110.064 127.308 110.426C127.247 110.426 127.187 110.426 127.127 110.486C126.946 109.701 126.523 109.037 125.98 108.433C125.98 108.312 126.04 108.252 126.1 108.131C126.1 107.95 126.1 107.769 126.04 107.527C125.98 107.286 125.798 106.984 125.496 106.803C125.496 106.803 125.375 106.803 125.315 106.803C125.255 106.803 125.315 106.924 125.315 106.984C125.557 107.165 125.677 107.407 125.738 107.588C125.738 107.769 125.798 107.95 125.798 108.071C125.798 108.071 125.798 108.192 125.798 108.252C125.617 107.829 125.315 107.527 125.013 107.286C125.013 107.286 124.893 107.286 124.832 107.286C124.772 107.286 124.832 107.407 124.832 107.467C125.074 107.648 125.315 107.89 125.496 108.252C125.134 108.252 124.832 108.071 124.591 107.829C124.591 107.829 124.47 107.829 124.41 107.829C124.41 107.829 124.41 107.95 124.41 108.011C124.711 108.312 125.134 108.554 125.557 108.554C125.496 108.614 125.376 108.675 125.255 108.675C124.953 108.675 124.591 108.554 124.41 108.312C124.41 108.312 124.289 108.252 124.228 108.312C124.228 108.312 124.168 108.433 124.228 108.494C124.409 108.796 124.772 108.977 125.134 108.977C125.134 108.977 125.255 108.977 125.315 108.977C125.557 108.977 125.738 108.795 125.919 108.614C126.463 109.158 126.825 109.822 127.006 110.607C126.885 110.667 126.764 110.788 126.644 110.849C126.402 110.728 126.161 110.486 125.98 110.245C125.98 110.064 125.98 109.882 125.98 109.701C125.919 109.52 125.738 109.399 125.678 109.279C125.678 109.279 125.557 109.279 125.496 109.279C125.496 109.279 125.496 109.399 125.496 109.46C125.617 109.58 125.738 109.701 125.798 109.822C125.798 109.943 125.859 110.064 125.798 110.184C125.798 110.064 125.738 110.003 125.678 109.943C125.617 109.822 125.496 109.701 125.376 109.58C125.376 109.58 125.255 109.58 125.195 109.58C125.195 109.58 125.195 109.701 125.195 109.762C125.315 109.882 125.376 109.943 125.436 110.064C125.436 110.064 125.436 110.064 125.436 110.124C125.255 110.124 125.014 110.003 124.893 109.882C124.893 109.882 124.772 109.882 124.711 109.882C124.711 109.882 124.711 110.003 124.711 110.064C124.893 110.245 125.134 110.365 125.376 110.365C125.315 110.365 125.255 110.365 125.134 110.365C124.893 110.365 124.772 110.305 124.651 110.184C124.651 110.184 124.53 110.184 124.47 110.184C124.41 110.184 124.47 110.305 124.47 110.365C124.651 110.486 124.832 110.607 125.134 110.607C125.134 110.607 125.195 110.607 125.255 110.607C125.376 110.607 125.497 110.607 125.617 110.607C125.738 110.607 125.798 110.486 125.919 110.426C126.1 110.667 126.342 110.909 126.583 111.03C126.523 111.15 126.462 111.271 126.462 111.392C126.1 111.392 125.738 111.332 125.376 111.211C125.376 111.211 125.376 110.969 125.255 110.909C125.074 110.788 124.893 110.849 124.772 110.909C124.772 110.909 124.651 110.969 124.651 111.03C124.651 111.15 124.651 111.271 124.651 111.332C124.651 111.392 124.772 111.513 124.832 111.513C124.832 111.513 124.953 111.513 125.013 111.513C125.013 111.513 125.134 111.513 125.195 111.513C125.195 111.513 125.255 111.452 125.315 111.392C125.677 111.513 126.04 111.573 126.462 111.573C126.462 111.634 126.462 111.754 126.462 111.815C125.617 112.056 124.651 111.815 123.987 111.332C124.108 110.849 123.987 110.305 123.625 109.943C123.625 109.943 123.504 109.943 123.443 109.943C123.443 109.943 123.443 110.064 123.443 110.124C123.685 110.365 123.806 110.788 123.745 111.15C123.745 111.15 123.745 111.15 123.685 111.15C123.564 111.03 123.444 110.969 123.383 110.849C123.323 110.788 123.141 110.607 123.081 110.607H123.021C123.021 110.607 123.021 110.667 123.021 110.728C123.021 110.849 123.142 110.909 123.262 110.969C123.383 111.09 123.504 111.211 123.625 111.332C123.625 111.332 123.625 111.332 123.685 111.392C123.685 111.392 123.625 111.392 123.564 111.392C123.202 111.392 122.9 111.332 122.598 111.09C122.598 111.09 122.477 111.09 122.417 111.09C122.417 111.09 122.417 111.211 122.417 111.271C122.719 111.452 123.081 111.573 123.383 111.573C123.383 111.573 123.383 111.573 123.443 111.573C123.443 111.573 123.504 111.573 123.564 111.573C123.564 111.573 123.504 111.694 123.443 111.694L122.598 112.237Z" fill="#845B00"/>
<path fill-rule="evenodd" clip-rule="evenodd" d="M118.915 119.422C118.915 119.422 119.398 119.302 119.398 119C119.398 118.819 119.278 118.637 119.097 118.577C118.915 118.577 118.674 118.577 118.493 118.577C117.889 118.698 117.345 118.879 116.862 119.12C116.44 119.362 116.077 119.604 115.655 120.026C115.655 119.362 115.655 118.698 115.715 118.034C116.802 117.792 117.829 117.49 118.855 117.188C119.097 117.188 119.338 117.007 119.277 116.705C119.277 116.524 119.096 116.343 118.976 116.343C118.794 116.343 118.553 116.343 118.432 116.343C117.889 116.464 117.406 116.705 116.923 116.947C116.5 117.188 116.138 117.49 115.776 117.852C115.776 117.309 115.776 116.826 115.836 116.282C116.923 115.799 118.01 115.377 119.036 115.135C119.278 115.135 119.519 114.954 119.519 114.652C119.519 114.471 119.338 114.29 119.217 114.29C119.036 114.29 118.794 114.29 118.613 114.29C118.01 114.471 117.466 114.713 116.983 115.014C116.561 115.256 116.198 115.618 115.896 116.041C115.896 115.437 115.957 114.833 116.017 114.229C117.043 113.746 118.13 113.324 119.157 113.143C119.398 113.143 119.64 112.961 119.64 112.72C119.64 112.539 119.519 112.358 119.338 112.297C119.157 112.297 118.915 112.297 118.734 112.297C118.13 112.418 117.587 112.66 117.104 113.022C116.681 113.263 116.379 113.626 116.017 114.048C116.017 113.505 116.138 113.022 116.198 112.478C116.198 112.478 116.198 112.418 116.198 112.358C117.346 111.875 118.553 111.331 119.7 110.969C119.942 110.908 120.244 110.727 120.244 110.486C120.244 110.305 120.063 110.184 119.882 110.123C119.7 110.123 119.398 110.123 119.277 110.184C118.613 110.425 118.07 110.667 117.587 111.029C117.164 111.331 116.741 111.693 116.319 112.176C116.319 111.633 116.44 111.09 116.5 110.607C116.983 110.305 117.466 110.003 117.949 109.761C118.493 109.459 119.096 109.157 119.7 108.976C119.942 108.855 120.244 108.735 120.183 108.433C120.183 108.252 120.002 108.131 119.821 108.07C119.64 108.07 119.338 108.07 119.217 108.191C118.553 108.433 118.01 108.795 117.587 109.218C117.225 109.52 116.923 109.882 116.681 110.305C116.802 109.64 116.862 108.916 116.983 108.252C117.406 107.889 117.889 107.587 118.372 107.285C118.915 106.923 119.519 106.621 120.123 106.38C120.364 106.259 120.666 106.078 120.606 105.836C120.606 105.655 120.365 105.534 120.183 105.534C120.063 105.534 119.942 105.534 119.882 105.534C119.761 105.534 119.64 105.595 119.58 105.655C118.915 105.957 118.372 106.319 117.889 106.802C117.587 107.104 117.285 107.467 117.043 107.889C117.164 107.285 117.225 106.621 117.346 106.017C118.191 105.293 119.097 104.689 120.002 104.327C120.184 104.266 120.425 104.085 120.425 103.783C120.425 103.602 120.244 103.481 120.062 103.421C120.002 103.421 119.881 103.421 119.761 103.421C119.64 103.421 119.58 103.481 119.459 103.542C118.855 103.783 118.432 104.146 118.01 104.568C117.829 104.81 117.647 105.051 117.466 105.353C117.587 104.689 117.708 104.085 117.828 103.421C118.674 102.696 119.579 102.093 120.485 101.73C120.666 101.67 120.908 101.489 120.847 101.247C120.847 101.066 120.666 100.945 120.485 100.885C120.425 100.885 120.304 100.885 120.183 100.885C120.063 100.885 120.002 100.885 119.882 101.006C119.338 101.247 118.855 101.609 118.493 102.032C118.251 102.334 118.009 102.636 117.828 103.059C117.949 102.515 118.07 101.972 118.191 101.428C119.036 100.764 119.7 99.8584 120.304 99.013C120.425 98.8319 120.546 98.53 120.304 98.3488C120.183 98.228 119.942 98.228 119.821 98.3488C119.7 98.4092 119.519 98.5903 119.459 98.7111C118.976 99.4357 118.613 100.04 118.312 100.825C118.372 100.462 118.493 100.1 118.553 99.7376C119.217 98.6507 119.7 97.3827 120.062 96.175C120.123 95.9335 120.123 95.5712 119.821 95.4504C119.64 95.3296 119.399 95.4504 119.217 95.5712C119.097 95.692 118.976 95.9335 118.915 96.1146C118.553 97.2619 118.432 98.2884 118.432 99.5564C118.432 99.7376 118.312 99.9188 118.312 100.1C118.372 99.1942 118.311 98.2884 118.191 97.4431C118.191 97.2015 118.07 96.96 117.768 96.96C117.587 96.96 117.406 97.0808 117.346 97.2619C117.285 97.4431 117.346 97.6242 117.346 97.8054C117.466 98.8319 117.708 99.6772 118.191 100.704C117.949 101.549 117.768 102.394 117.587 103.3C117.587 102.757 117.587 102.274 117.406 101.73C117.224 101.126 117.043 100.462 116.741 99.9188C116.621 99.6772 116.379 99.4357 116.138 99.5564C115.957 99.6168 115.896 99.8584 115.896 99.9791C115.896 100.16 116.017 100.341 116.077 100.523C116.319 101.066 116.56 101.549 116.802 102.032C117.043 102.515 117.285 102.998 117.587 103.542C117.466 104.085 117.345 104.629 117.285 105.172C117.225 104.146 116.862 103.059 116.44 102.093C116.319 101.851 116.138 101.609 115.896 101.73C115.715 101.73 115.594 101.972 115.594 102.153C115.594 102.334 115.655 102.515 115.715 102.696C116.138 103.723 116.56 104.508 117.225 105.534C117.104 106.259 116.983 107.044 116.862 107.769C116.862 107.225 116.862 106.621 116.681 106.017C116.5 105.414 116.198 104.749 115.836 104.266C115.715 104.025 115.413 103.844 115.171 103.964C114.99 104.025 114.93 104.266 114.991 104.447C114.991 104.629 115.111 104.81 115.232 104.931C115.534 105.414 115.775 105.897 116.017 106.38C116.258 106.863 116.56 107.346 116.802 107.95C116.802 108.191 116.741 108.372 116.681 108.614C116.681 108.614 116.681 108.674 116.681 108.735C116.621 109.157 116.56 109.58 116.5 110.003C116.5 109.399 116.379 108.735 116.138 108.131C115.896 107.406 115.534 106.802 115.051 106.199C114.87 105.957 114.568 105.716 114.326 105.897C114.145 106.017 114.145 106.199 114.206 106.38C114.206 106.561 114.387 106.802 114.507 106.923C114.87 107.467 115.232 107.95 115.534 108.493C115.836 108.976 116.138 109.52 116.44 110.184C116.44 110.486 116.379 110.788 116.319 111.029C116.319 111.331 116.259 111.633 116.198 111.935C116.138 111.452 115.957 110.908 115.715 110.425C115.413 109.701 114.93 109.097 114.386 108.554C114.145 108.312 113.843 108.131 113.602 108.312C113.481 108.433 113.481 108.674 113.541 108.855C113.541 108.916 113.662 109.037 113.722 109.097C113.783 109.218 113.843 109.278 113.904 109.338C114.387 109.822 114.749 110.305 115.111 110.848C115.474 111.331 115.776 111.814 116.138 112.358C116.138 112.478 116.138 112.599 116.138 112.72C116.138 113.203 116.017 113.626 116.017 114.109C115.896 113.505 115.715 112.961 115.353 112.418C114.991 111.814 114.568 111.271 114.085 110.788C113.903 110.606 113.541 110.425 113.36 110.607C113.239 110.727 113.179 110.969 113.3 111.09C113.36 111.271 113.541 111.452 113.662 111.573C114.085 111.995 114.447 112.418 114.87 112.841C115.232 113.263 115.594 113.686 116.017 114.229C116.017 114.713 115.956 115.135 115.896 115.618C115.413 114.652 114.628 113.746 113.783 113.143C113.602 113.022 113.3 112.901 113.119 113.143C112.998 113.263 112.998 113.505 113.058 113.626C113.119 113.746 113.3 113.928 113.36 113.988C114.205 114.652 114.87 115.135 115.896 115.679C115.896 116.283 115.776 116.886 115.776 117.49C115.292 116.524 114.387 115.679 113.481 115.135C113.3 115.014 112.998 114.894 112.817 115.135C112.696 115.256 112.696 115.498 112.817 115.618C112.877 115.739 113.058 115.92 113.179 115.981C113.662 116.282 114.024 116.524 114.447 116.826C114.87 117.067 115.232 117.309 115.715 117.611C115.715 118.154 115.655 118.758 115.594 119.302C115.353 118.879 115.051 118.517 114.689 118.154C114.266 117.732 113.723 117.369 113.179 117.128C112.938 117.007 112.635 117.007 112.515 117.249C112.454 117.43 112.515 117.611 112.515 117.732C112.635 117.852 112.817 117.973 112.937 118.034C113.42 118.275 113.843 118.517 114.266 118.758C114.628 119 115.051 119.181 115.534 119.483C115.534 120.087 115.534 120.69 115.474 121.355C115.232 120.872 114.87 120.449 114.447 120.087C114.024 119.724 113.541 119.362 112.998 119.12C112.817 119 112.515 119 112.334 119.241C112.273 119.422 112.334 119.604 112.334 119.724C112.394 119.845 112.575 119.966 112.696 120.026C113.602 120.509 114.326 120.872 115.353 121.415C115.353 121.838 115.353 122.26 115.353 122.683C115.172 122.26 114.87 121.838 114.507 121.475C114.024 121.053 113.481 120.811 112.877 120.69C112.756 120.69 112.635 120.69 112.515 120.69C112.394 120.69 112.273 120.811 112.273 120.932C112.273 121.113 112.334 121.294 112.455 121.415C112.455 121.415 112.575 121.475 112.696 121.536C112.756 121.536 112.877 121.536 112.937 121.596C113.42 121.717 113.843 121.898 114.266 122.14C114.447 122.26 114.688 122.381 114.87 122.502C115.051 122.623 115.232 122.743 115.474 122.925C115.474 123.408 115.474 123.951 115.474 124.434C115.051 123.71 114.266 123.166 113.481 122.864C113.3 122.804 113.058 122.804 112.937 123.045C112.877 123.226 112.937 123.408 112.937 123.528C112.998 123.649 113.179 123.71 113.239 123.77C113.601 123.951 113.964 124.072 114.326 124.253C114.689 124.374 114.991 124.495 115.413 124.615C115.413 125.521 115.413 126.427 115.534 127.272C115.534 127.393 115.776 127.393 115.776 127.272C115.776 126.246 115.776 125.219 115.776 124.193C116.681 124.193 117.526 124.253 118.251 124.374C118.432 124.374 118.674 124.374 118.734 124.132C118.795 123.951 118.734 123.77 118.674 123.649C118.553 123.528 118.372 123.468 118.251 123.468C117.768 123.408 117.285 123.408 116.862 123.468C116.5 123.589 116.138 123.71 115.776 123.951C115.776 123.347 115.776 122.804 115.776 122.2C116.681 122.2 117.647 122.2 118.493 122.2C118.674 122.2 118.915 122.14 118.976 121.838C118.976 121.657 118.915 121.475 118.795 121.415C118.674 121.355 118.432 121.294 118.312 121.294C117.345 121.294 116.621 121.536 115.776 122.079C115.776 121.536 115.776 120.992 115.776 120.449C116.862 120.147 117.949 119.845 118.976 119.724L118.915 119.422Z" fill="#845B00"/>
<path fill-rule="evenodd" clip-rule="evenodd" d="M102.793 107.226C102.974 107.89 103.155 108.554 103.336 109.218C103.518 108.433 103.88 107.769 104.423 107.165C104.906 106.622 106.235 105.595 106.959 106.259C107.684 106.863 106.959 108.312 106.537 108.916C105.872 109.882 104.786 110.486 103.638 110.667C103.94 112.117 104.242 113.626 104.423 115.075C104.665 114.23 105.148 113.505 105.812 112.902C106.355 112.418 107.744 111.513 108.348 112.298C108.891 113.022 108.167 114.23 107.744 114.773C106.959 115.74 105.812 116.283 104.544 116.343C104.725 118.155 104.786 120.027 104.725 121.838C105.087 121.114 105.631 120.449 106.356 120.027C106.959 119.664 108.529 118.94 109.012 119.846C109.496 120.691 108.348 121.899 107.744 122.382C106.839 123.106 105.752 123.348 104.604 123.227C104.483 124.918 104.303 126.608 104.061 128.299C104.423 127.635 104.967 127.091 105.571 126.669C106.295 126.246 107.563 125.884 108.167 126.669C108.831 127.514 107.925 128.48 107.261 129.024C106.235 129.809 105.027 130.05 103.759 129.809C103.518 131.137 103.155 132.526 102.793 133.854C102.732 134.156 102.249 134.036 102.37 133.734C102.793 132.405 103.095 131.016 103.397 129.628C102.25 129.507 101.223 129.024 100.498 128.118C99.9548 127.454 99.2909 126.367 100.015 125.582C100.68 124.857 101.766 125.582 102.37 126.065C102.974 126.608 103.457 127.273 103.699 128.058C103.94 126.427 104.121 124.737 104.242 123.046C103.034 123.046 101.948 122.563 101.102 121.717C100.498 121.114 99.8341 120.087 100.498 119.242C101.102 118.457 102.249 119.242 102.853 119.664C103.457 120.147 103.94 120.751 104.242 121.415C104.242 119.664 104.242 117.974 104.061 116.223C102.914 116.404 101.766 116.102 100.861 115.438C100.257 115.015 99.0491 113.747 99.7133 112.902C100.317 112.237 101.706 112.781 102.31 113.143C102.914 113.505 103.457 113.988 103.819 114.592C103.638 113.264 103.397 111.875 103.095 110.547C101.887 110.848 100.559 110.667 99.5323 109.882C98.9285 109.46 97.7812 108.312 98.385 107.527C98.9285 106.863 100.378 107.286 101.042 107.588C101.706 107.89 102.31 108.373 102.732 108.977C102.612 108.433 102.431 107.89 102.25 107.286C102.189 106.984 102.612 106.863 102.672 107.165L102.793 107.226ZM100.317 108.494C101.102 108.795 101.947 109.218 102.732 109.701C102.491 109.279 102.189 108.916 101.766 108.554C101.223 108.131 100.136 107.527 99.4719 107.709C97.9019 108.131 100.015 109.641 100.498 109.882C101.223 110.245 102.008 110.305 102.732 110.184C101.947 109.641 100.981 109.158 100.136 108.856C99.8945 108.735 100.136 108.373 100.378 108.494H100.317ZM103.216 110.547C103.216 110.547 103.155 110.547 103.095 110.547C103.095 110.547 103.155 110.547 103.216 110.547ZM105.872 107.95C105.208 108.614 104.484 109.339 103.94 110.184C104.665 110.003 105.389 109.641 105.933 109.037C106.235 108.675 107.684 106.501 106.174 106.561C105.51 106.561 104.725 107.527 104.363 108.011C104.061 108.494 103.82 109.037 103.759 109.58C104.303 108.856 104.906 108.192 105.571 107.588C105.752 107.407 106.114 107.709 105.872 107.89V107.95ZM101.525 113.988C102.31 114.351 103.095 114.834 103.819 115.377C103.578 114.834 103.216 114.411 102.793 114.049C102.31 113.626 101.344 113.022 100.619 113.203C99.1096 113.505 101.102 115.196 101.585 115.498C102.249 115.921 103.034 116.041 103.819 115.981C103.095 115.377 102.189 114.834 101.344 114.411C101.102 114.29 101.344 113.868 101.585 114.049L101.525 113.988ZM107.08 113.868C106.356 114.471 105.57 115.136 104.967 115.921C105.691 115.8 106.355 115.558 106.899 115.075C107.382 114.653 108.288 113.626 108.107 112.902C107.805 111.754 105.933 113.385 105.691 113.687C105.268 114.17 104.967 114.773 104.846 115.377C105.389 114.713 106.114 114.049 106.778 113.505C107.02 113.324 107.322 113.626 107.08 113.807V113.868ZM102.008 120.389C102.732 120.932 103.457 121.476 104.121 122.14C103.94 121.536 103.638 120.993 103.155 120.51C102.732 120.087 101.102 118.879 100.74 119.906C100.499 120.57 101.465 121.476 101.887 121.838C102.491 122.321 103.216 122.563 103.94 122.623C103.336 121.899 102.491 121.234 101.766 120.691C101.525 120.51 101.766 120.147 102.008 120.268V120.389ZM107.563 121.234C106.718 121.717 105.872 122.261 105.148 122.925C105.872 122.925 106.597 122.744 107.201 122.382C107.563 122.2 107.865 121.899 108.107 121.597C108.288 121.415 108.831 120.751 108.71 120.449C108.589 120.087 108.046 119.906 107.744 120.027C107.624 120.027 107.442 120.087 107.322 120.147C106.899 120.329 106.537 120.51 106.174 120.812C105.691 121.234 105.269 121.778 105.087 122.321C105.752 121.717 106.597 121.234 107.322 120.812C107.563 120.691 107.805 121.053 107.563 121.174V121.234ZM104.846 123.227C104.846 123.227 104.846 123.287 104.786 123.348C104.786 123.348 104.906 123.348 104.906 123.227H104.846ZM101.525 126.79C102.189 127.333 102.853 127.997 103.457 128.661C103.336 128.118 103.155 127.635 102.853 127.212C102.491 126.729 101.223 125.34 100.498 125.944C99.8341 126.548 100.921 127.816 101.344 128.239C101.887 128.782 102.612 129.084 103.336 129.205C102.733 128.42 102.008 127.695 101.283 127.091C101.042 126.91 101.344 126.608 101.585 126.79H101.525ZM106.959 127.997C106.114 128.42 105.148 128.903 104.423 129.507C105.148 129.567 105.933 129.507 106.597 129.084C107.14 128.782 109.012 127.333 107.623 126.79C106.899 126.488 105.933 127.091 105.45 127.514C105.027 127.937 104.665 128.42 104.423 128.963C105.148 128.42 105.993 127.997 106.778 127.575C107.02 127.454 107.261 127.816 107.02 127.937L106.959 127.997ZM104.061 129.809C104.061 129.809 104.001 129.809 103.94 129.869C103.94 129.869 104.001 129.869 104.061 129.809Z" fill="#845B00"/>
<path fill-rule="evenodd" clip-rule="evenodd" d="M99.5318 117.973C99.1695 117.973 98.9278 117.671 98.9278 117.369C98.9278 117.068 99.2299 116.766 99.5318 116.766C99.8337 116.766 100.135 117.068 100.135 117.369C100.135 117.671 99.8337 117.973 99.5318 117.973Z" fill="#845B00"/>
<path fill-rule="evenodd" clip-rule="evenodd" d="M122.901 119.181C122.538 119.181 122.297 118.879 122.297 118.577C122.297 118.276 122.599 117.974 122.901 117.974C123.203 117.974 123.504 118.276 123.504 118.577C123.504 118.879 123.203 119.181 122.901 119.181Z" fill="#845B00"/>
<path fill-rule="evenodd" clip-rule="evenodd" d="M121.813 107.226C122.296 106.501 122.779 105.776 123.383 105.173C123.383 105.052 123.322 104.931 123.262 104.81C123.262 104.75 123.262 104.629 123.262 104.508C123.262 104.267 123.382 104.025 123.443 103.844C123.564 103.603 123.745 103.422 123.986 103.301C124.047 103.301 124.167 103.301 124.228 103.361C124.228 103.422 124.228 103.542 124.168 103.603C123.987 103.663 123.865 103.844 123.805 104.025C123.745 104.207 123.684 104.388 123.624 104.569C123.805 104.267 124.047 103.965 124.288 103.723C124.349 103.663 124.47 103.723 124.53 103.723C124.53 103.723 124.53 103.844 124.53 103.905V103.965C124.228 104.267 123.926 104.629 123.805 105.052C123.805 105.052 123.805 105.052 123.866 105.052C124.349 104.931 124.771 104.629 125.013 104.146C125.013 104.086 125.134 104.025 125.255 104.086C125.315 104.086 125.375 104.207 125.315 104.267C125.073 104.75 124.59 105.173 124.047 105.293C124.168 105.354 124.349 105.414 124.47 105.414C124.53 105.414 124.651 105.414 124.711 105.414C124.771 105.414 124.832 105.414 124.892 105.293C125.073 105.173 125.194 105.112 125.315 104.991C125.375 104.931 125.496 104.991 125.556 104.991V105.112C125.556 105.112 125.556 105.173 125.556 105.233C125.375 105.354 125.254 105.475 125.073 105.595C125.013 105.595 124.892 105.716 124.771 105.716C124.651 105.716 124.59 105.716 124.47 105.716C124.168 105.716 123.866 105.595 123.685 105.414C123.685 105.414 123.564 105.354 123.564 105.293C123.02 105.897 122.537 106.501 122.115 107.226C121.873 107.588 121.632 107.286 121.813 107.105V107.226Z" fill="#845B00"/>
<path fill-rule="evenodd" clip-rule="evenodd" d="M110.762 102.878C110.762 102.878 110.822 102.214 111.124 101.851C111.607 101.247 113.358 101.851 112.513 102.938C112.271 103.24 111.909 103.482 111.969 103.482C111.969 103.482 112.211 103.421 112.513 103.421C113.962 103.421 113.66 105.776 112.03 105.172C111.788 105.051 111.788 105.052 111.969 105.293C112.03 105.414 112.15 105.535 112.211 105.716C112.392 106.018 112.271 106.38 112.03 106.561C111.607 106.863 110.882 106.803 110.701 106.259C110.641 106.018 110.581 105.776 110.581 105.595C110.46 104.689 110.822 106.803 109.373 106.742C108.769 106.742 108.286 106.259 109.011 105.414C109.131 105.293 109.252 105.172 109.312 105.112C109.433 104.991 109.494 104.931 109.312 104.991C109.071 105.051 108.709 105.112 108.467 104.991C108.105 104.87 107.924 103.965 108.165 103.482C108.527 102.817 109.131 103.059 109.493 103.18C109.856 103.3 109.977 103.3 109.554 102.998C109.433 102.938 109.252 102.817 109.131 102.697C108.105 101.851 110.037 100.523 110.581 102.032C110.701 102.395 110.762 102.757 110.822 102.757L110.762 102.878ZM110.339 103.482C110.339 103.482 110.399 103.783 110.581 103.723C110.762 103.602 110.58 103.3 110.339 103.482ZM111.184 103.783C111.184 103.783 110.882 103.361 110.762 103.783C110.701 104.025 110.701 104.448 111.063 104.327C111.245 104.267 111.305 104.025 111.245 103.783H111.184ZM110.158 103.904C109.796 104.085 109.916 104.387 110.158 104.387C110.762 104.387 110.581 103.663 110.158 103.904ZM110.46 104.508C109.977 104.75 110.46 104.931 110.882 104.75C111.305 104.568 110.882 104.266 110.46 104.508Z" fill="#845B00"/>
</g>
<path fill-rule="evenodd" clip-rule="evenodd" d="M140.952 71.9618C139.201 72.3845 139.08 70.7542 139.926 70.1504C140.952 69.3654 143.669 71.2976 140.952 71.9618Z" fill="#845B00"/>
<path fill-rule="evenodd" clip-rule="evenodd" d="M147.846 7.00002C148.473 6.99772 149.087 7.1717 149.61 7.49995C150.133 7.82819 150.541 8.29589 150.782 8.84387C151.024 9.39184 151.088 9.99542 150.968 10.5781C150.847 11.1608 150.546 11.6965 150.103 12.1172C149.661 12.5379 149.096 12.8248 148.481 12.9415C147.866 13.0582 147.229 12.9995 146.649 12.7728C146.069 12.5461 145.574 12.1616 145.225 11.668C144.876 11.1744 144.69 10.5938 144.69 9.99999C144.69 9.20635 145.022 8.44505 145.614 7.88277C146.205 7.32049 147.008 7.0031 147.846 7.00002Z" fill="#A9FF44"/>
<path fill-rule="evenodd" clip-rule="evenodd" d="M212.784 68C214.143 67.9951 215.473 68.372 216.605 69.0832C217.738 69.7944 218.622 70.8078 219.146 71.995C219.669 73.1823 219.809 74.4901 219.547 75.7526C219.285 77.0152 218.634 78.1757 217.675 79.0873C216.716 79.9989 215.492 80.6204 214.16 80.8732C212.828 81.1261 211.446 80.9989 210.19 80.5077C208.934 80.0165 207.86 79.1834 207.105 78.1139C206.349 77.0445 205.946 75.7866 205.946 74.5C205.946 72.7804 206.666 71.1309 207.947 69.9127C209.229 68.6944 210.968 68.0067 212.784 68Z" fill="#A9FF44"/>
<path fill-rule="evenodd" clip-rule="evenodd" d="M36.8737 135.656C37.0179 135.656 37.09 133.994 37.8831 133.061C39.2531 131.491 43.7716 133.061 41.5123 135.746C40.8874 136.497 39.9981 137.066 40.0462 137.112C40.5024 136.995 40.9691 136.919 41.4402 136.884C45.2136 136.884 44.4926 142.801 40.0943 141.276C39.3973 141.049 39.5415 141.049 39.878 141.618C40.2144 142.187 40.3106 142.278 40.5269 142.642C40.753 142.997 40.8242 143.421 40.7255 143.824C40.6268 144.228 40.3659 144.579 39.9981 144.804C38.9166 145.486 36.9458 145.373 36.4891 144.075C36.3213 143.525 36.2086 142.962 36.1526 142.392C35.8883 140.116 36.7535 145.373 32.9801 145.282C31.4178 145.282 30.1921 144.007 31.9947 142.005C32.2647 141.715 32.5537 141.441 32.8599 141.185C33.2685 140.867 33.2685 140.799 32.8599 140.935C32.155 141.139 31.4018 141.139 30.6968 140.935C29.7354 140.594 29.2307 138.295 29.8316 137.18C30.7209 135.587 32.235 136.156 33.3646 136.497C34.4943 136.839 34.7106 136.725 33.605 136.111C33.2264 135.901 32.8648 135.666 32.5234 135.405C29.8316 133.13 34.9269 129.989 36.393 133.744C36.549 134.353 36.7416 134.953 36.9698 135.542L36.8737 135.656ZM35.8162 137.089C35.3355 137.453 36.0325 137.886 36.4411 137.704C36.8496 137.522 36.4411 136.589 35.8162 137.089ZM38.0033 137.795C37.5707 137.066 37.138 136.771 36.8737 137.795C36.6093 138.819 36.6333 139.433 37.5947 139.115C37.7222 139.066 37.8365 138.991 37.9291 138.895C38.0217 138.799 38.0902 138.684 38.1294 138.559C38.1687 138.435 38.1777 138.303 38.1559 138.175C38.1341 138.046 38.0819 137.924 38.0033 137.817V137.795ZM35.3355 138.113C34.3981 138.523 34.6625 139.388 35.3355 139.388C37.0179 139.388 36.417 137.613 35.3355 138.113ZM36.1286 139.592C34.8788 140.184 36.1286 140.685 37.2582 140.23C38.3878 139.774 37.3303 139.023 36.1286 139.592Z" fill="#A9FF44"/>
</g>
</g>
</g>
<defs>
<filter id="filter0_d_405_4853" x="-44" y="-789" width="362" height="1088" filterUnits="userSpaceOnUse" color-interpolation-filters="sRGB">
<feFlood flood-opacity="0" result="BackgroundImageFix"/>
<feColorMatrix in="SourceAlpha" type="matrix" values="0 0 0 0 0 0 0 0 0 0 0 0 0 0 0 0 0 0 127 0" result="hardAlpha"/>
<feOffset dx="10" dy="14"/>
<feGaussianBlur stdDeviation="27"/>
<feComposite in2="hardAlpha" operator="out"/>
<feColorMatrix type="matrix" values="0 0 0 0 0.275 0 0 0 0 0.207625 0 0 0 0 0.106562 0 0 0 0.07 0"/>
<feBlend mode="normal" in2="BackgroundImageFix" result="effect1_dropShadow_405_4853"/>
<feBlend mode="normal" in="SourceGraphic" in2="effect1_dropShadow_405_4853" result="shape"/>
</filter>
<clipPath id="clip0_405_4853">
<rect width="254" height="231" fill="white"/>
</clipPath>
<clipPath id="clip1_405_4853">
<rect width="1440" height="2465" fill="white" transform="translate(0 -994)"/>
</clipPath>
<clipPath id="clip2_405_4853">
<rect width="254" height="980" fill="white" transform="translate(0 -749)"/>
</clipPath>
</defs>
</svg>
