<svg width="375" height="702" viewBox="0 0 375 702" fill="none" xmlns="http://www.w3.org/2000/svg">
<g filter="url(#filter0_d_182_12085)">
<path fill-rule="evenodd" clip-rule="evenodd" d="M20.6407 588.129C40.1966 596.472 67.4379 592.183 89.8065 597.925C112.175 603.666 129.637 619.469 156.606 617.789C183.575 616.109 220.281 596.953 250.948 597.466C281.615 597.979 306.44 618.2 321.067 636.207C335.695 654.215 340.558 669.889 354.107 677.167C367.656 684.444 389.905 682.828 390.308 702.217C390.71 721.606 369.204 761.8 326.862 786.525C284.52 811.25 221.445 820.344 176.979 828.214C132.513 836.084 107.281 842.782 78.9339 836.141C50.5866 829.5 19.7483 809.605 -2.50783 788.398C-24.7639 767.191 -38.3728 744.708 -56.5728 713.183C-74.7727 681.658 -97.9593 641.08 -93.2191 610.311C-88.4789 579.541 -55.6491 558.652 -33.3154 558.694C-10.9816 558.737 1.05275 579.751 20.6407 588.129Z" fill="#397621"/>
<path fill-rule="evenodd" clip-rule="evenodd" d="M128.014 699.305C126.455 697.701 124.562 695.451 122.979 693.632L120.175 690.412L121.253 691.023C121.913 691.406 122.836 691.956 123.854 692.626C126.031 694.016 128.063 695.62 129.92 697.414C130.54 698.035 131.12 698.695 131.658 699.389C131.813 697.725 131.945 696.062 132.041 694.398C131.851 694.42 131.658 694.382 131.49 694.29C130.372 693.581 129.366 692.71 128.505 691.705C126.959 690.101 125.065 687.851 123.483 686.031L120.666 682.812L121.745 683.422C122.416 683.805 123.339 684.356 124.358 685.026C126.533 686.418 128.564 688.022 130.423 689.814C131.041 690.445 131.625 691.108 132.173 691.801C132.269 689.622 132.305 687.444 132.305 685.253C131.777 685.337 130.747 684.954 128.301 683.326C125.027 680.944 121.919 678.34 119 675.534C122.721 677.141 126.326 679.005 129.788 681.112C130.663 681.67 131.5 682.285 132.293 682.955C132.293 682.8 132.293 682.644 132.293 682.488C132.244 682.388 132.219 682.277 132.219 682.165C132.219 682.053 132.244 681.943 132.293 681.842L132.221 679.771C132.221 679.125 132.221 678.479 132.113 677.82C132.001 677.929 131.857 678 131.702 678.023C131.548 678.047 131.39 678.022 131.25 677.952C130.176 677.381 129.201 676.641 128.361 675.762C126.839 674.373 124.993 672.386 123.435 670.795L120.69 667.958L121.733 668.437C122.368 668.748 123.267 669.191 124.25 669.741C126.359 670.869 128.337 672.225 130.147 673.787C130.81 674.361 131.423 674.99 131.981 675.666C131.861 674.022 131.717 672.382 131.55 670.747C131.046 670.866 130.135 670.471 127.954 668.64C125.114 666.12 122.462 663.395 120.019 660.489C123.361 662.282 126.566 664.318 129.608 666.581C130.315 667.156 130.866 667.635 131.274 668.03C131.274 667.958 131.274 667.886 131.274 667.814C131.183 667.721 131.118 667.606 131.086 667.48C131.055 667.353 131.057 667.221 131.094 667.096C131.104 667.014 131.124 666.934 131.154 666.857C131.01 665.815 130.866 664.774 130.711 663.733C130.231 663.876 129.44 663.541 127.45 661.686C125.078 659.234 122.905 656.596 120.954 653.798C123.882 655.569 126.664 657.57 129.272 659.783C129.632 660.118 129.931 660.417 130.195 660.681C129.931 659.232 129.644 657.784 129.344 656.348C128.865 656.623 128.146 656.408 125.808 654.038C123.38 651.307 121.16 648.399 119.168 645.336C122.185 647.396 125.042 649.681 127.714 652.17C128.074 652.541 128.373 652.865 128.637 653.164C128.457 652.35 128.277 651.536 128.086 650.77C127.57 650.71 126.971 650.004 125.868 647.06C124.7 643.443 123.795 639.747 123.159 636C125.136 639.247 126.879 642.631 128.373 646.126C128.553 646.605 128.697 647.024 128.817 647.407C129.891 644.517 131.189 641.716 132.7 639.028C132.489 642.235 132.008 645.418 131.262 648.544C130.339 651.644 129.788 651.871 129.176 651.74C129.608 653.379 130.003 655.031 130.375 656.695C130.555 656.3 130.795 655.833 131.106 655.294C132.207 653.489 133.55 651.842 135.098 650.399C135.805 649.705 136.476 649.13 136.955 648.723L137.747 648.101L137.279 648.987L136.164 651.177C135.289 652.924 134.295 655.067 133.42 656.623C132.965 657.586 132.344 658.461 131.586 659.208C131.491 659.285 131.38 659.337 131.261 659.362C131.143 659.387 131.02 659.384 130.902 659.352C131.082 660.298 131.25 661.255 131.394 662.213C131.477 662.331 131.534 662.467 131.558 662.609C131.583 662.752 131.576 662.899 131.538 663.038L131.897 665.564C132.113 665.205 132.377 664.798 132.712 664.367C133.755 662.823 135.277 660.884 136.452 659.244L137.95 657.15L138.538 656.288C138.538 656.288 138.466 656.671 138.322 657.317C138.178 657.964 137.962 658.837 137.651 659.831C137.014 661.938 136.099 663.95 134.93 665.815C134.313 666.824 133.467 667.673 132.461 668.293C132.356 668.358 132.236 668.395 132.113 668.401L132.221 669.37C132.276 669.465 132.31 669.571 132.32 669.681C132.33 669.79 132.317 669.901 132.281 670.005C132.401 671.082 132.497 672.159 132.592 673.236L132.724 673.081C133.084 672.674 133.587 672.159 134.247 671.477C134.906 670.795 135.697 670.017 136.488 669.191C137.279 668.365 138.046 667.503 138.705 666.701C139.365 665.899 139.904 665.133 140.336 664.583L140.971 663.697C140.971 663.697 140.887 664.092 140.719 664.762C140.482 665.648 140.193 666.519 139.856 667.371C139.419 668.475 138.89 669.54 138.274 670.555C137.673 671.55 136.965 672.477 136.164 673.32C135.611 673.913 135.001 674.45 134.342 674.924C134.006 675.184 133.624 675.379 133.216 675.498C133.066 675.533 132.91 675.533 132.76 675.498C132.856 676.935 132.94 678.359 133.012 679.795V680.693C133.336 680.322 133.767 679.867 134.33 679.329C135.661 678.024 137.591 676.468 139.125 675.175L141.906 672.901C141.906 672.901 141.738 673.248 141.426 673.823C141.115 674.397 140.671 675.187 140.132 676.061C139.002 677.923 137.667 679.654 136.152 681.22C135.406 682.089 134.477 682.784 133.432 683.255C133.309 683.283 133.182 683.283 133.06 683.255C133.06 685.325 133.12 687.396 133.06 689.467C133.515 688.976 134.175 688.341 135.098 687.504C136.8 685.948 139.185 684.068 141.091 682.477L144.483 679.664L143.824 680.753C143.404 681.423 142.805 682.357 142.074 683.386C140.561 685.585 138.826 687.623 136.896 689.467C135.927 690.466 134.781 691.278 133.515 691.86C133.352 691.924 133.174 691.945 133 691.92C133 693.74 132.856 695.571 132.724 697.39C133.51 696.679 134.334 696.011 135.193 695.391C137.039 694.003 139.592 692.351 141.654 690.963L145.25 688.485L144.483 689.502C144.003 690.137 143.284 690.999 142.493 691.896C140.771 693.935 138.847 695.796 136.752 697.45C135.697 698.372 134.477 699.087 133.156 699.557C132.948 699.642 132.716 699.642 132.509 699.557C132.103 704.339 131.422 709.095 130.471 713.8C130.363 714.351 129.524 714.147 129.62 713.597C130.283 709.695 130.823 705.793 131.238 701.891C131.092 701.883 130.95 701.847 130.818 701.783C129.771 701.093 128.827 700.259 128.014 699.305Z" fill="#5EAD41"/>
<path fill-rule="evenodd" clip-rule="evenodd" d="M154.922 707.65C155.008 705.655 155.202 703.666 155.503 701.693C155.556 701.757 155.626 701.803 155.705 701.826C156.212 701.974 156.746 702 157.265 701.901C157.784 701.802 158.273 701.582 158.694 701.257C159.192 700.857 160.117 699.816 159.82 699.077C159.524 698.338 158.006 698.677 157.448 698.823C156.875 698.953 156.337 699.209 155.871 699.574C156.203 697.672 156.594 695.747 156.998 693.81L157.116 693.919C157.523 694.166 157.975 694.324 158.445 694.383C158.915 694.441 159.391 694.399 159.844 694.258C160.497 694.052 161.86 693.253 161.789 692.381C161.718 691.509 160.2 691.485 159.583 691.46C158.809 691.409 158.039 691.604 157.377 692.017C157.792 690.056 158.196 688.094 158.563 686.12H158.67C159.192 686.214 159.729 686.176 160.233 686.009C160.738 685.842 161.195 685.552 161.564 685.164C162.05 684.728 162.916 684.037 162.252 683.359C161.889 683.125 161.478 682.977 161.051 682.926C160.624 682.876 160.191 682.925 159.785 683.069C159.52 683.142 159.268 683.256 159.038 683.408C159.358 681.434 159.619 679.46 159.773 677.511C160.627 677.234 161.374 676.689 161.909 675.955C162.443 675.22 162.737 674.333 162.75 673.418C162.746 673.352 162.724 673.289 162.686 673.235C162.648 673.181 162.596 673.14 162.537 673.115C162.029 672.931 161.472 672.955 160.982 673.181C160.491 673.406 160.105 673.816 159.903 674.326C159.923 672.531 159.804 670.737 159.548 668.961H159.643C160.41 668.573 161.05 667.966 161.486 667.214C161.921 666.462 162.134 665.596 162.098 664.723C162.091 664.649 162.065 664.577 162.021 664.517C161.977 664.457 161.917 664.411 161.849 664.384C161.454 664.254 161.029 664.256 160.636 664.392C160.243 664.527 159.903 664.787 159.666 665.135C159.398 665.443 159.164 665.78 158.966 666.14C158.516 664.386 157.876 662.688 157.057 661.078C157.583 660.429 157.92 659.643 158.031 658.809C158.142 657.974 158.022 657.125 157.686 656.356C157.647 656.274 157.586 656.206 157.51 656.159C157.435 656.111 157.347 656.087 157.259 656.089C156.824 656.133 156.416 656.322 156.096 656.626C155.777 656.93 155.565 657.333 155.491 657.773C155.491 657.954 155.385 658.148 155.337 658.354C155.147 658.079 154.946 657.801 154.732 657.518C155.08 656.306 155.133 655.026 154.886 653.789C154.709 653.038 154.092 651.73 153.155 652.469C152.865 652.792 152.649 653.177 152.524 653.596C152.398 654.015 152.367 654.457 152.431 654.891C152.463 655.49 152.627 656.075 152.91 656.601C153.193 657.127 153.589 657.581 154.068 657.93C154.436 658.402 154.78 658.887 155.1 659.371C154.557 659.161 153.984 659.046 153.404 659.032C152.87 659.032 151.613 658.935 151.506 659.674C151.399 660.412 152.692 661.551 153.392 661.805C153.878 661.968 154.391 662.029 154.9 661.986C155.409 661.942 155.905 661.794 156.357 661.551C157.119 663.029 157.719 664.589 158.148 666.201C157.71 665.858 157.216 665.595 156.689 665.426C156.144 665.232 155.278 664.905 155.124 665.716C155.104 666.173 155.187 666.629 155.366 667.049C155.545 667.468 155.815 667.841 156.156 668.138C156.888 668.764 157.823 669.088 158.777 669.046C159.023 670.673 159.15 672.316 159.156 673.963C158.941 673.479 158.632 673.044 158.249 672.684C157.866 672.325 157.416 672.047 156.926 671.868C156.863 671.858 156.798 671.866 156.738 671.889C156.677 671.912 156.624 671.951 156.583 672.001C156.301 672.418 156.128 672.901 156.08 673.406C156.032 673.91 156.111 674.418 156.31 674.883C156.538 675.435 156.88 675.931 157.315 676.334C157.749 676.738 158.264 677.04 158.824 677.22C158.898 677.238 158.975 677.238 159.05 677.22C158.907 679.303 158.623 681.422 158.279 683.541C158.167 682.981 157.918 682.46 157.555 682.026C157.192 681.592 156.727 681.259 156.203 681.059C156.159 681.039 156.113 681.028 156.065 681.027C156.017 681.026 155.97 681.035 155.926 681.053C155.881 681.071 155.841 681.098 155.807 681.132C155.773 681.166 155.747 681.207 155.729 681.252C155.542 681.658 155.445 682.1 155.445 682.548C155.445 682.996 155.542 683.438 155.729 683.844C156.272 684.615 157.046 685.185 157.935 685.466C157.603 687.295 157.223 689.099 156.832 690.952C156.477 689.991 155.765 689.212 154.851 688.784C154.776 688.754 154.695 688.75 154.618 688.772C154.54 688.794 154.472 688.84 154.424 688.905C154.24 689.253 154.126 689.634 154.089 690.027C154.052 690.421 154.094 690.817 154.21 691.194C154.379 691.664 154.647 692.09 154.995 692.442C155.344 692.794 155.764 693.062 156.227 693.228H156.345C155.883 695.384 155.444 697.527 155.076 699.646C154.821 699.067 154.429 698.561 153.937 698.172C153.445 697.784 152.867 697.525 152.253 697.418C152.174 697.403 152.091 697.417 152.02 697.457C151.949 697.496 151.893 697.56 151.862 697.636C151.766 698.051 151.759 698.482 151.841 698.9C151.923 699.318 152.092 699.713 152.336 700.058C152.634 700.41 152.997 700.697 153.404 700.905C153.811 701.113 154.254 701.237 154.709 701.269H154.803C154.475 703.317 154.265 705.383 154.175 707.457C154.175 707.929 154.886 708.05 154.898 707.566L154.922 707.65Z" fill="#5EAD41"/>
<path fill-rule="evenodd" clip-rule="evenodd" d="M73.7757 672.387C73.9242 672.387 73.9861 670.81 74.7163 669.941C75.954 668.449 80.063 670.051 78.0208 672.51C77.4392 673.207 76.6347 673.733 76.6718 673.733C77.0753 673.618 77.4904 673.548 77.9095 673.525C81.3378 673.451 80.6818 679.151 76.6718 677.695C76.0282 677.463 76.1644 677.463 76.4738 678.025C76.6347 678.307 76.8699 678.637 77.0803 678.979C77.2763 679.319 77.3355 679.719 77.246 680.1C77.1565 680.481 76.925 680.815 76.5976 681.034C75.5951 681.682 73.8005 681.585 73.3921 680.349C73.2336 679.827 73.1299 679.29 73.0826 678.747C72.8351 676.643 73.6272 681.585 70.1989 681.499C68.7633 681.499 67.6494 680.276 69.3078 678.38C69.5489 678.102 69.8094 677.84 70.0876 677.597C70.4465 677.292 70.4588 677.231 69.9885 677.365C69.3572 677.589 68.6736 677.627 68.0207 677.475C67.1543 677.157 66.684 675.029 67.2409 673.916C68.0454 672.387 69.5182 672.938 70.4464 673.243C71.3747 673.549 71.6841 673.464 70.6692 672.877C70.3248 672.685 69.9976 672.464 69.6915 672.216C67.2162 670.137 71.944 667.079 73.2188 670.626C73.5282 671.495 73.6272 672.351 73.7262 672.351L73.7757 672.387ZM72.8104 673.757C72.3896 674.087 73.0208 674.515 73.3921 674.332C73.7633 674.149 73.3921 673.256 72.8104 673.757ZM74.8153 674.43C74.4193 673.72 74.0233 673.439 73.7757 674.43C73.6148 675.078 73.5653 675.983 74.4441 675.653C74.5574 675.605 74.6587 675.533 74.7408 675.442C74.8229 675.351 74.8838 675.244 74.9192 675.127C74.9546 675.01 74.9637 674.888 74.9458 674.767C74.9278 674.647 74.8833 674.531 74.8153 674.43ZM72.402 674.723C71.5356 675.115 71.7707 675.946 72.4638 675.946C73.9861 675.946 73.4292 674.259 72.402 674.723ZM73.1198 676.13C71.9811 676.692 73.1198 677.157 74.1347 676.741C75.1495 676.325 74.1718 675.543 73.1198 676.056V676.13Z" fill="#5EAD41"/>
<path fill-rule="evenodd" clip-rule="evenodd" d="M95.5936 593.417C95.6914 593.992 95.9802 594.517 96.4121 594.902C96.61 595.022 96.831 595.098 97.0602 595.124C97.2894 595.15 97.5215 595.125 97.7405 595.052C97.9596 594.979 98.1605 594.859 98.3298 594.699C98.499 594.54 98.6326 594.346 98.7215 594.13C98.7215 594.04 98.8092 594.055 98.7215 594.026C98.3018 593.909 97.9191 593.684 97.6107 593.372C97.3462 593.128 97.1461 592.821 97.0286 592.479C96.9112 592.136 96.8801 591.769 96.9383 591.411C96.9899 591.177 97.0964 590.96 97.2486 590.777C97.4008 590.594 97.5942 590.451 97.8125 590.361C98.0307 590.27 98.2672 590.235 98.5018 590.257C98.7365 590.28 98.9622 590.36 99.16 590.49C99.482 590.837 99.7219 591.254 99.8612 591.71C100 592.166 100.036 592.648 99.9639 593.119C99.9573 593.218 99.9573 593.318 99.9639 593.417H100.066C100.331 593.435 100.593 593.362 100.812 593.209C101.173 592.939 101.448 592.567 101.601 592.139C101.718 591.753 101.703 591.485 101.776 591.456C101.849 591.426 102.039 591.649 101.995 592.124C101.922 592.867 101.528 594.011 100.402 594.115C100.217 594.13 100.032 594.13 99.8469 594.115C99.8469 594.115 99.8469 594.115 99.7738 594.115C99.6833 594.498 99.5187 594.858 99.2898 595.176C99.0608 595.494 98.772 595.762 98.4402 595.965C98.1083 596.168 97.7401 596.302 97.3568 596.36C96.9735 596.417 96.5829 596.396 96.2075 596.299C96.3096 597.5 96.3096 598.707 96.2075 599.908C96.0419 602.964 95.0618 605.917 93.372 608.45C91.6181 611.526 89.4696 615.091 89.8057 616.502C90.3319 618.716 89.0603 619.473 89.9811 622.132C90.254 622.684 90.3799 623.299 90.3465 623.915C90.215 624.896 88.3587 625.876 87.8472 625.609C87.511 624.474 87.0808 623.371 86.561 622.311C86.0056 621.449 83.9739 619.414 82.6 617.572C82.2493 617.096 81.9131 617.29 81.7669 617.824C81.1238 620.261 78.5368 620.795 77.9522 624.39C77.8791 624.836 76.7975 625.267 75.8328 625.297C74.8682 625.326 74.9412 624.658 75.1312 623.811C75.3213 622.964 75.4967 622.147 75.6136 621.449C75.9205 619.562 75.789 617.319 74.8243 617.349C72.0324 617.37 69.2415 617.236 66.464 616.948C65.9963 616.948 65.9816 617.23 66.1863 617.601C66.5172 618.093 66.8011 618.615 67.034 619.161C67.3365 620.884 67.1436 622.658 66.4786 624.272C66.2132 624.624 65.8658 624.903 65.4678 625.084C65.0698 625.266 64.6336 625.344 64.1985 625.312C63.76 625.312 63.8331 624.925 63.7454 624.004C63.5165 621.303 62.3631 618.77 60.486 616.844C59.6675 615.834 59.4775 615.789 58.3228 616.294C56.4228 617.156 54.2157 617.572 53.2511 619.77C52.9388 620.678 52.7375 621.621 52.6518 622.578C52.6518 623.009 52.3011 623.365 50.8395 624.39C50.2841 624.792 49.9333 624.049 49.7871 622.727C49.4071 619.221 50.8979 614.14 52.7103 612.684C51.2487 611.436 49.4363 608.985 48.0186 607.737C43.9699 604.172 41.5583 606.965 37.3197 599.983C36.6912 598.958 34.2795 596.031 33.1249 595.749C30.9617 595.214 32.4672 591.589 33.1249 590.683C33.7826 589.777 34.2357 590.223 35.0542 590.549C37.0858 591.366 41.456 590.371 42.9176 590.059C39.4975 587.311 39.9944 585.602 39.8336 582.839C39.8336 581.948 39.5705 580.908 39.8336 580.774C40.0967 580.641 41.1491 581.517 42.0406 582.097C45.1077 584.104 48.4667 585.608 51.9941 586.553C57.5482 585.588 60.1791 587.207 64.8855 586.91C75.1167 586.256 86.5317 581.146 93.2112 589.123C94.2954 590.359 95.1033 591.818 95.5791 593.402L95.5936 593.417ZM99.0138 593.075C99.0961 592.567 99.0141 592.046 98.78 591.589C98.4 591.04 97.4937 591.099 97.9614 592.198C98.221 592.574 98.5885 592.86 99.0138 593.015V593.075Z" fill="#F5AFB4"/>
<path fill-rule="evenodd" clip-rule="evenodd" d="M46.923 587.406C46.3017 585.767 46.3017 583.977 46.923 582.338C48.2068 577.756 48.4514 580.906 50.3465 583.354C50.9446 584.1 51.5822 584.816 52.257 585.502C53.3479 586.455 54.5296 587.313 55.7875 588.065C57.7437 589.883 57.6979 590.929 54.5036 591.859C53.7729 592.057 53.0174 592.163 52.257 592.174C49.5212 592.174 47.84 589.54 46.923 587.406Z" fill="#E7868C"/>
<path fill-rule="evenodd" clip-rule="evenodd" d="M45.2745 594.457C44.5002 594.457 43.9325 594.347 44.2766 593.988C44.6207 593.629 45.3777 593.62 45.9972 593.859C46.9263 594.273 46.324 594.457 45.2745 594.457Z" fill="#845B00"/>
<path fill-rule="evenodd" clip-rule="evenodd" d="M75.5216 610.534C74.7485 612.364 73.2167 612.174 72.4581 611.383C71.6996 610.592 71.6996 609.347 73.7273 608.747C75.1861 608.337 76.1927 608.952 75.5216 610.534ZM72.0351 596.927C71.7579 598.392 68.8112 598.919 67.5566 600.501C66.6376 601.643 66.7397 603.137 68.7528 605.686C70.5471 607.956 74.5005 606.974 76.3823 606.022C78.2641 605.07 77.8411 610.065 83.2969 609.157C85.9665 608.717 85.0475 606.11 85.2372 604.133C85.456 601.658 90.4159 600.72 88.7091 597.366C87.0023 594.012 83.6179 596.224 81.3276 594.159C80.5099 593.415 79.626 592.748 78.6872 592.167C76.4698 590.848 74.5588 590.702 73.2313 591.757C71.1598 593.485 72.3123 595.535 72.0351 596.927ZM86.9294 592.137C86.9294 594.305 82.232 594.481 81.5902 592.269C80.8316 589.677 86.8564 588.622 86.9294 592.137Z" fill="#E7868C"/>
<path fill-rule="evenodd" clip-rule="evenodd" d="M29.4469 654.497C29.5612 654.557 28.9689 655.77 29.1767 656.723C29.53 658.338 33.3328 658.729 32.7821 656.061C32.6055 655.299 32.2107 654.587 32.2626 654.567C32.5318 654.823 32.836 655.042 33.1666 655.219C35.7953 656.603 37.6032 652.039 33.9043 651.578C33.3016 651.507 33.4159 651.578 33.9043 651.257C34.1329 651.106 34.455 650.946 34.7563 650.765C35.0483 650.585 35.2582 650.304 35.3431 649.98C35.4281 649.656 35.3817 649.312 35.2134 649.02C34.7043 648.137 33.2809 647.525 32.46 648.298C32.1221 648.636 31.8194 649.006 31.5561 649.401C30.5171 650.896 33.1354 647.455 30.4443 646.201C29.3118 645.67 27.9715 646.141 28.4806 648.207C28.5608 648.511 28.6614 648.809 28.7819 649.1C28.9378 649.471 28.917 649.521 28.6053 649.241C28.2059 648.826 27.6894 648.533 27.1195 648.398C26.3194 648.308 25.0414 649.772 25.0414 650.795C25.0414 652.26 26.4129 652.41 27.2649 652.541C28.1169 652.671 28.3039 652.842 27.2649 652.902C26.915 652.913 26.567 652.956 26.2259 653.032C23.4725 653.654 25.883 657.786 28.3039 655.59C28.8858 655.058 29.343 654.446 29.343 654.486L29.4469 654.497ZM29.2598 653.082C29.0624 652.661 29.7274 652.591 29.9456 652.872C30.1638 653.152 29.53 653.694 29.2598 653.082ZM31.0781 653.353C30.4963 653.734 30.0391 653.794 30.2677 652.972C30.3924 652.42 30.7249 651.718 31.3067 652.27C31.3767 652.351 31.4272 652.446 31.4544 652.548C31.4816 652.651 31.4849 652.758 31.464 652.861C31.4431 652.965 31.3986 653.063 31.3336 653.148C31.2687 653.233 31.185 653.303 31.0885 653.353H31.0781ZM29.3222 652.19C28.8131 651.558 29.3222 651.036 29.8729 651.297C31.0574 651.869 29.9352 652.952 29.3222 652.19ZM30.4547 651.407C29.8001 650.535 30.9119 650.645 31.4937 651.337C32.0756 652.029 31.0574 652.23 30.4339 651.407H30.4547Z" fill="#FFD885"/>
<path fill-rule="evenodd" clip-rule="evenodd" d="M323.085 308.577C323.293 308.687 322.216 310.912 322.594 312.659C323.236 315.62 330.151 316.337 329.149 311.446C328.828 310.048 328.11 308.742 328.205 308.706C328.694 309.175 329.247 309.577 329.848 309.901C334.628 312.439 337.915 304.072 331.19 303.226C330.094 303.097 330.302 303.226 331.19 302.637C331.605 302.361 332.191 302.067 332.739 301.736C333.27 301.406 333.651 300.891 333.806 300.297C333.96 299.702 333.876 299.073 333.57 298.537C332.644 296.918 330.056 295.797 328.564 297.213C327.949 297.833 327.399 298.51 326.92 299.235C325.031 301.975 329.792 295.668 324.899 293.369C322.84 292.395 320.403 293.259 321.328 297.047C321.474 297.604 321.657 298.15 321.876 298.684C322.16 299.364 322.122 299.456 321.555 298.941C320.829 298.18 319.89 297.643 318.854 297.396C317.399 297.231 315.075 299.916 315.075 301.791C315.075 304.476 317.569 304.752 319.118 304.991C320.667 305.23 321.007 305.543 319.118 305.653C318.482 305.673 317.849 305.753 317.229 305.892C312.223 307.032 316.605 314.609 321.007 310.581C322.065 309.607 322.896 308.485 322.896 308.559L323.085 308.577ZM322.745 305.984C322.386 305.212 323.595 305.083 323.992 305.598C324.389 306.113 323.236 307.106 322.745 305.984ZM326.051 306.481C324.993 307.179 324.162 307.29 324.578 305.782C324.804 304.77 325.409 303.483 326.467 304.495C326.594 304.643 326.686 304.818 326.735 305.006C326.785 305.193 326.791 305.389 326.753 305.579C326.715 305.769 326.634 305.949 326.516 306.105C326.398 306.261 326.245 306.389 326.07 306.481H326.051ZM322.859 304.347C321.933 303.189 322.859 302.233 323.86 302.711C326.013 303.759 323.973 305.745 322.859 304.347ZM324.918 302.913C323.728 301.313 325.749 301.516 326.807 302.784C327.865 304.053 326.013 304.421 324.88 302.913H324.918Z" fill="#FFD885"/>
<path fill-rule="evenodd" clip-rule="evenodd" d="M287.853 205.848C287.97 205.957 286.87 207.231 286.81 208.447C286.711 210.508 291.133 212.199 291.337 208.804C291.372 207.828 291.13 206.842 291.198 206.835C291.438 207.23 291.731 207.592 292.069 207.911C294.766 210.423 298.403 205.498 294.128 203.756C293.43 203.478 293.544 203.599 294.232 203.369C294.554 203.261 294.991 203.17 295.41 203.049C295.817 202.925 296.159 202.654 296.365 202.29C296.572 201.926 296.627 201.497 296.521 201.091C296.197 199.863 294.692 198.669 293.461 199.337C292.947 199.637 292.465 199.986 292.023 200.378C290.297 201.848 294.541 198.537 291.727 196.162C290.544 195.158 288.788 195.297 288.73 197.953C288.727 198.345 288.751 198.736 288.802 199.126C288.868 199.624 288.827 199.677 288.545 199.239C288.201 198.61 287.678 198.091 287.04 197.746C286.112 197.381 284.11 198.738 283.78 199.972C283.306 201.738 284.898 202.359 285.875 202.789C286.852 203.22 287.021 203.485 285.758 203.225C285.336 203.126 284.906 203.067 284.473 203.049C280.979 202.917 282.527 208.674 286.133 206.8C287 206.345 287.745 205.754 287.732 205.802L287.853 205.848ZM288.086 204.082C287.986 203.511 288.804 203.639 288.975 204.048C289.145 204.456 288.212 204.907 288.086 204.082ZM290.174 204.991C289.355 205.265 288.788 205.191 289.328 204.272C289.655 203.647 290.28 202.906 290.797 203.758C290.855 203.878 290.884 204.009 290.884 204.142C290.883 204.274 290.853 204.404 290.794 204.522C290.736 204.64 290.651 204.744 290.546 204.826C290.44 204.908 290.318 204.965 290.186 204.995L290.174 204.991ZM288.449 203.025C288.045 202.1 288.822 201.634 289.397 202.125C290.629 203.194 288.936 204.141 288.449 203.025ZM290.057 202.445C289.556 201.182 290.85 201.672 291.322 202.693C291.795 203.714 290.512 203.63 290.032 202.438L290.057 202.445Z" fill="#92D660"/>
</g>
<defs>
<filter id="filter0_d_182_12085" x="-227.844" y="-150" width="752.156" height="1106.85" filterUnits="userSpaceOnUse" color-interpolation-filters="sRGB">
<feFlood flood-opacity="0" result="BackgroundImageFix"/>
<feColorMatrix in="SourceAlpha" type="matrix" values="0 0 0 0 0 0 0 0 0 0 0 0 0 0 0 0 0 0 127 0" result="hardAlpha"/>
<feOffset dy="-16"/>
<feGaussianBlur stdDeviation="67"/>
<feComposite in2="hardAlpha" operator="out"/>
<feColorMatrix type="matrix" values="0 0 0 0 0.0827737 0 0 0 0 0.191667 0 0 0 0 0.0399306 0 0 0 0.1 0"/>
<feBlend mode="normal" in2="BackgroundImageFix" result="effect1_dropShadow_182_12085"/>
<feBlend mode="normal" in="SourceGraphic" in2="effect1_dropShadow_182_12085" result="shape"/>
</filter>
</defs>
</svg>
