<svg viewBox="0 0 1440 606" fill="none" xmlns="http://www.w3.org/2000/svg">
<g clip-path="url(#clip0_317_4853)">
<path fill-rule="evenodd" clip-rule="evenodd" d="M1414.36 583.566C1415.65 582.809 1416.59 581.583 1416.97 580.151C1417.36 578.72 1417.16 577.198 1416.42 575.913C1414.62 573.041 1411.18 573.181 1408.13 573.621C1407.49 573.929 1406.93 574.378 1406.49 574.932C1405.89 575.821 1405.55 576.859 1405.52 577.927C1405.49 578.995 1405.77 580.048 1406.33 580.964C1407.04 582.36 1408.29 583.417 1409.8 583.905C1411.3 584.393 1412.94 584.271 1414.36 583.566ZM1408.26 538.823C1409.53 538.067 1410.46 536.851 1410.85 535.433C1411.23 534.015 1411.04 532.506 1410.32 531.226C1408.52 528.354 1405.02 528.444 1402.02 528.878C1401.38 529.186 1400.82 529.634 1400.38 530.188C1399.78 531.077 1399.45 532.116 1399.42 533.184C1399.39 534.251 1399.67 535.304 1400.22 536.22C1400.55 536.939 1401.02 537.583 1401.61 538.11C1402.2 538.637 1402.9 539.036 1403.65 539.281C1404.41 539.527 1405.21 539.612 1406 539.533C1406.8 539.455 1407.56 539.212 1408.26 538.823ZM1358.54 449.884C1356.74 447.012 1353.24 447.102 1350.25 447.592C1349.6 447.857 1349.03 448.291 1348.6 448.846C1347.99 449.742 1347.65 450.791 1347.62 451.87C1347.6 452.95 1347.88 454.013 1348.45 454.934C1349.18 456.32 1350.42 457.368 1351.93 457.854C1353.43 458.34 1355.06 458.227 1356.48 457.537C1357.77 456.78 1358.71 455.553 1359.09 454.122C1359.48 452.69 1359.28 451.168 1358.54 449.884ZM1395.93 493.383C1394.13 490.511 1390.7 490.651 1387.7 491.085C1387.04 491.392 1386.46 491.842 1386 492.401C1385.4 493.29 1385.07 494.329 1385.04 495.396C1385.01 496.464 1385.29 497.517 1385.84 498.433C1386.56 499.829 1387.81 500.886 1389.31 501.374C1390.82 501.862 1392.46 501.74 1393.88 501.036C1395.17 500.278 1396.11 499.052 1396.49 497.62C1396.87 496.189 1396.67 494.667 1395.93 493.383ZM1376.8 458.43C1378.08 457.674 1379 456.458 1379.39 455.04C1379.77 453.622 1379.58 452.113 1378.86 450.833C1377.05 447.905 1373.57 448.051 1370.57 448.485C1369.93 448.793 1369.37 449.241 1368.93 449.795C1368.32 450.679 1367.97 451.716 1367.93 452.785C1367.89 453.854 1368.16 454.911 1368.71 455.833C1369.23 456.83 1370.02 457.661 1370.99 458.229C1371.97 458.798 1373.09 459.081 1374.22 459.046C1374.33 458.979 1374.46 458.937 1374.58 458.923C1374.71 458.909 1374.84 458.924 1374.96 458.967C1375.6 458.891 1376.22 458.71 1376.8 458.43ZM1356 478.811C1354.2 475.94 1350.77 476.079 1347.77 476.513C1347.13 476.808 1346.57 477.236 1346.12 477.768C1345.5 478.658 1345.15 479.706 1345.11 480.786C1345.07 481.867 1345.35 482.934 1345.91 483.862C1346.63 485.258 1347.87 486.315 1349.38 486.803C1350.89 487.291 1352.53 487.169 1353.95 486.464C1355.23 485.707 1356.17 484.481 1356.56 483.049C1356.94 481.618 1356.74 480.096 1356 478.811ZM1361.92 526.128C1360.12 523.256 1356.62 523.346 1353.63 523.836C1352.99 524.122 1352.43 524.552 1351.98 525.09C1351.37 525.986 1351.03 527.035 1351 528.115C1350.98 529.194 1351.26 530.257 1351.83 531.178C1352.56 532.564 1353.81 533.612 1355.31 534.098C1356.81 534.584 1358.44 534.471 1359.86 533.781C1361.15 533.024 1362.09 531.798 1362.48 530.366C1362.86 528.934 1362.66 527.412 1361.92 526.128ZM1366.93 569.229C1365.13 566.358 1361.63 566.447 1358.64 566.938C1358.01 567.245 1357.45 567.671 1356.99 568.192C1356.37 569.082 1356.02 570.13 1355.98 571.211C1355.95 572.291 1356.22 573.358 1356.78 574.286C1357.52 575.674 1358.78 576.722 1360.29 577.206C1361.8 577.691 1363.44 577.575 1364.87 576.883C1366.16 576.125 1367.1 574.899 1367.48 573.467C1367.87 572.036 1367.67 570.514 1366.93 569.229ZM1384.52 649.97C1385.57 644.183 1386.78 638.378 1387.43 632.635C1388.08 626.891 1387.44 620.888 1387.33 614.998C1377.06 605.461 1369.31 593.591 1364.73 580.416C1363.6 580.756 1362.41 580.856 1361.23 580.708C1360.06 580.56 1358.93 580.168 1357.92 579.557C1356.91 578.947 1356.04 578.132 1355.37 577.166C1354.71 576.201 1354.25 575.106 1354.05 573.954C1353.82 572.529 1353.95 571.07 1354.43 569.704C1354.9 568.338 1355.71 567.106 1356.77 566.116L1357.36 565.713L1358.1 565.634C1360.02 564.676 1362.23 564.474 1364.29 565.069C1366.35 565.664 1368.1 567.011 1369.18 568.838C1370.27 570.664 1370.61 572.832 1370.14 574.902C1369.67 576.972 1368.42 578.79 1366.64 579.985C1372.08 590.927 1378.96 601.105 1387.11 610.255C1386.58 595.615 1385.48 581.035 1383.58 566.485C1373.32 559.102 1365.27 549.124 1360.27 537.596C1359.12 538.003 1357.9 538.157 1356.69 538.046C1355.47 537.936 1354.3 537.564 1353.25 536.957C1352.2 536.349 1351.3 535.522 1350.61 534.532C1349.91 533.542 1349.45 532.414 1349.25 531.227C1348.99 529.801 1349.11 528.333 1349.58 526.962C1350.06 525.59 1350.88 524.361 1351.97 523.389L1352.56 522.986L1353.27 522.626C1355.15 521.674 1357.31 521.447 1359.34 521.989C1361.37 522.531 1363.13 523.804 1364.26 525.557C1365.38 527.31 1365.81 529.418 1365.45 531.469C1365.08 533.519 1363.96 535.364 1362.3 536.642C1367.66 546.11 1374.63 554.597 1382.9 561.734C1382.41 557.134 1381.51 552.519 1380.68 547.955C1379.15 539.494 1377.29 531.294 1375.2 523.006C1364.91 514.604 1357.64 503.144 1354.47 490.323L1354.02 490.372C1352.87 490.769 1351.65 490.915 1350.44 490.8C1349.23 490.685 1348.06 490.311 1347.01 489.706C1345.96 489.1 1345.06 488.277 1344.37 487.292C1343.68 486.307 1343.21 485.185 1343 484.003C1342.74 482.577 1342.86 481.111 1343.34 479.74C1343.82 478.37 1344.63 477.14 1345.72 476.165L1346.37 475.755L1347.07 475.34C1349.02 474.316 1351.28 474.066 1353.41 474.641C1355.53 475.216 1357.35 476.572 1358.49 478.432C1359.55 480.299 1359.85 482.497 1359.32 484.579C1358.8 486.66 1357.49 488.466 1355.66 489.629C1359.48 500.166 1365.56 509.757 1373.49 517.742C1368.42 498.82 1362.2 480.362 1356.01 461.674C1354.88 462.014 1353.68 462.113 1352.51 461.965C1351.34 461.816 1350.21 461.423 1349.21 460.811C1348.2 460.2 1347.34 459.384 1346.68 458.417C1346.02 457.451 1345.58 456.356 1345.38 455.206C1345.11 453.78 1345.23 452.311 1345.7 450.938C1346.18 449.566 1347.01 448.336 1348.1 447.368L1348.68 446.908L1349.39 446.493C1351.34 445.496 1353.6 445.261 1355.71 445.834C1357.83 446.407 1359.65 447.746 1360.8 449.585C1361.88 451.501 1362.16 453.753 1361.6 455.875C1361.03 457.996 1359.66 459.822 1357.77 460.975C1361.65 469.063 1365.09 477.352 1368.06 485.807C1370.19 478.315 1371.87 470.708 1373.1 463.025C1371.23 462.93 1369.44 462.206 1368.05 460.972C1366.65 459.739 1365.72 458.069 1365.42 456.241C1365.18 454.824 1365.3 453.367 1365.77 452.006C1366.25 450.645 1367.07 449.425 1368.15 448.459L1368.79 447.994L1369.49 447.578C1371.44 446.54 1373.71 446.282 1375.84 446.858C1377.96 447.434 1379.78 448.8 1380.91 450.67C1381.49 451.72 1381.83 452.881 1381.92 454.074C1382 455.268 1381.83 456.466 1381.4 457.587C1380.98 458.709 1380.31 459.728 1379.46 460.575C1378.6 461.422 1377.57 462.078 1376.43 462.498L1374.9 462.662C1374.76 472.073 1373 481.397 1369.69 490.23C1374.65 505.197 1378.67 520.461 1381.69 535.931C1386.79 526.383 1390.12 516.014 1391.52 505.316C1389.42 505.53 1387.32 504.943 1385.65 503.677C1383.98 502.412 1382.86 500.561 1382.52 498.504C1382.26 497.087 1382.38 495.626 1382.86 494.264C1383.33 492.901 1384.16 491.681 1385.25 490.722L1385.89 490.257L1386.59 489.841C1388.54 488.817 1390.81 488.567 1392.93 489.142C1395.05 489.717 1396.87 491.074 1398.01 492.933C1398.58 493.985 1398.91 495.145 1398.99 496.336C1399.07 497.527 1398.9 498.722 1398.47 499.84C1398.05 500.959 1397.39 501.977 1396.54 502.825C1395.68 503.674 1394.66 504.334 1393.53 504.761L1393.02 504.816C1393.4 517.523 1389.78 530.046 1382.66 540.651L1383.91 547.497C1385.84 558.016 1387.32 568.639 1388.46 579.355C1395.65 568.091 1400.87 555.716 1403.91 542.749C1402.21 542.5 1400.63 541.721 1399.41 540.525C1398.18 539.329 1397.38 537.779 1397.11 536.099C1396.85 534.673 1396.96 533.204 1397.44 531.831C1397.91 530.459 1398.74 529.229 1399.83 528.261L1400.42 527.801L1401.12 527.386C1403.07 526.362 1405.33 526.112 1407.46 526.687C1409.58 527.262 1411.4 528.618 1412.54 530.478C1413.11 531.53 1413.44 532.69 1413.52 533.881C1413.6 535.072 1413.42 536.266 1413 537.385C1412.57 538.504 1411.91 539.521 1411.06 540.37C1410.21 541.218 1409.18 541.878 1408.06 542.306C1407.37 542.46 1406.66 542.536 1405.95 542.531C1404.24 557.652 1398.34 572.025 1388.91 584.074C1390 594.284 1390.41 604.568 1390.59 614.876C1390.71 615.998 1390.83 617.12 1390.95 618.242C1400.39 610.147 1406.89 599.228 1409.46 587.155C1407.83 586.834 1406.33 586.026 1405.18 584.841C1404.03 583.656 1403.27 582.15 1403.01 580.524C1402.75 579.106 1402.86 577.646 1403.34 576.283C1403.82 574.92 1404.64 573.701 1405.74 572.742L1406.32 572.282L1407.02 571.867C1408.97 570.843 1411.24 570.593 1413.36 571.168C1415.48 571.743 1417.3 573.099 1418.44 574.959C1419.01 576.011 1419.34 577.171 1419.42 578.362C1419.5 579.553 1419.32 580.747 1418.9 581.866C1418.48 582.985 1417.82 584.003 1416.96 584.851C1416.11 585.7 1415.09 586.359 1413.96 586.787C1413.25 586.944 1412.53 587.021 1411.8 587.018C1411.09 593.968 1408.87 600.69 1405.3 606.729C1401.74 612.769 1396.9 617.985 1391.13 622.026C1391.65 631.718 1390.51 641.431 1387.76 650.758C1387.5 650.996 1387.18 651.162 1386.83 651.241C1386.48 651.32 1386.12 651.308 1385.78 651.207C1385.44 651.106 1385.13 650.92 1384.89 650.665C1384.64 650.411 1384.47 650.099 1384.38 649.757L1384.52 649.97Z" fill="#397621"/>
<path fill-rule="evenodd" clip-rule="evenodd" d="M90.6808 599.746C85.3261 596.535 78.6363 591.816 73.0756 588.049L63.1956 581.388C63.1956 581.388 64.4711 581.687 66.5501 582.251C68.6292 582.814 71.5119 583.642 74.7376 584.728C81.6086 586.942 88.2377 589.837 94.5258 593.369C96.6497 594.597 98.6891 595.964 100.631 597.461C99.8457 592.871 99.0298 588.292 98.1208 583.748C97.6225 583.958 97.0699 584.003 96.5451 583.875C93.0199 582.762 89.6867 581.121 86.6596 579.008C81.3164 575.827 74.6152 571.077 69.0544 567.31L59.1858 560.68L62.529 561.512C64.6081 562.076 67.5021 562.934 70.7164 563.989C77.5915 566.193 84.2217 569.088 90.5047 572.63C92.6297 573.885 94.6819 575.257 96.6519 576.742C95.3632 570.793 93.9081 564.871 92.3598 558.983C90.9639 559.501 87.9543 559.283 80.1701 556.656C69.6433 552.579 59.4065 547.798 49.5292 542.347C60.7119 544.032 71.7653 546.468 82.6137 549.639C85.3676 550.507 88.0525 551.577 90.6465 552.841L90.1885 551.606C89.993 551.368 89.8506 551.091 89.7708 550.794C89.6909 550.497 89.6755 550.186 89.7254 549.881C89.0613 548.091 88.6144 546.22 88.032 544.364C87.4496 542.508 86.9587 540.899 86.3911 539.178C86.1438 539.531 85.7944 539.8 85.3897 539.95C84.985 540.1 84.5443 540.124 84.1267 540.017C80.8002 539.255 77.6236 537.954 74.7235 536.165C69.6484 533.516 63.253 529.497 57.9098 526.316L48.4811 520.682C48.4811 520.682 49.6683 520.838 51.6362 521.197C53.6041 521.556 56.3217 522.129 59.3284 522.91C65.8294 524.443 72.1393 526.684 78.1439 529.593C80.3296 530.674 82.4235 531.929 84.4052 533.347C82.8138 529.056 81.3775 524.707 79.631 520.473C78.3969 521.141 75.6321 520.727 68.2656 517.418C58.8093 512.656 49.7154 507.214 41.0559 501.135C51.3612 503.573 61.4709 506.76 71.3037 510.673C73.659 511.696 75.5506 512.61 76.8623 513.388L76.6447 512.801C76.342 512.605 76.0931 512.337 75.9205 512.021C75.7479 511.705 75.6569 511.351 75.6557 510.99C75.6301 510.769 75.63 510.545 75.6553 510.323C74.6402 507.586 73.4972 504.884 72.2262 502.218C71.0575 502.968 68.8266 502.566 61.9645 499C53.8929 494.119 46.2294 488.6 39.0478 482.494C48.1932 485.133 57.1101 488.497 65.7132 492.553C66.9057 493.199 67.9707 493.788 68.8348 494.31C67.105 490.597 65.3131 486.907 63.4592 483.24C62.3739 484.309 60.3 484.236 52.2827 479.553C43.7961 473.925 35.7451 467.673 28.1971 460.847C37.8096 464.244 47.1467 468.365 56.1278 473.175C57.3431 473.884 58.4115 474.576 59.3295 475.149L56.0877 468.976C54.6819 469.181 52.5533 467.723 47.5016 460.571C41.759 451.679 36.6815 442.375 32.3102 432.737C39.9846 440.11 47.1087 448.032 53.626 456.439C54.4481 457.609 55.1509 458.647 55.7654 459.543C56.6023 450.995 58.1085 442.522 60.2703 434.203C61.9769 443.001 62.9272 451.93 63.1111 460.893C62.9058 469.854 61.4841 470.873 59.781 470.943C62.1087 475.031 64.3353 479.227 66.4688 483.458C66.7165 482.009 67.0444 480.574 67.4509 479.161C69.1527 473.516 71.6014 468.12 74.7325 463.115C76.1845 460.751 77.5843 458.721 78.5747 457.301C79.565 455.88 80.2814 455.052 80.2814 455.052C80.2814 455.052 80.0207 456.062 79.6674 457.773C79.3141 459.485 78.7717 461.828 78.1968 464.464C77.07 469.799 75.9063 476.271 74.6158 481.069C74.0835 483.966 73.0195 486.741 71.4772 489.256C71.2794 489.535 71.0169 489.762 70.7121 489.918C70.4073 490.074 70.0693 490.154 69.7272 490.151C70.8717 492.571 72.0277 495.022 73.1216 497.496C73.4053 497.776 73.6239 498.115 73.7624 498.488C73.9008 498.861 73.9556 499.26 73.923 499.658C74.7473 501.88 75.7888 504.023 76.6947 506.18C77.0255 505.074 77.4657 503.787 77.9693 502.196C79.6859 497.31 82.4549 490.98 84.4946 485.728C85.53 483.097 86.3859 480.743 87.0217 479.032L88.0113 476.277C88.0113 476.277 88.0985 477.368 88.1779 479.2C88.2574 481.032 88.2557 483.596 88.1284 486.488C87.9293 492.634 86.8885 498.727 85.0348 504.597C84.251 507.781 82.7418 510.744 80.6245 513.257C80.3574 513.483 80.056 513.666 79.7316 513.798C80.0407 514.632 80.3498 515.466 80.6704 516.33C80.884 516.55 81.0493 516.811 81.1557 517.098C81.2622 517.385 81.3074 517.691 81.2886 517.997C82.3305 520.807 83.3838 523.647 84.4371 526.487L84.6719 525.978C85.3602 524.599 86.3716 522.855 87.6684 520.548C88.9653 518.241 90.5542 515.579 92.0663 512.806C93.5784 510.033 95.0872 507.156 96.3201 504.486C97.553 501.816 98.564 499.404 99.2194 497.651L100.31 494.789L100.387 497.851C100.386 500.4 100.223 502.947 99.8985 505.477C99.5037 508.761 98.8304 512.006 97.8859 515.178C96.9729 518.293 95.7219 521.301 94.155 524.147C93.077 526.133 91.813 528.013 90.3797 529.762C89.6433 530.699 88.7438 531.496 87.7243 532.116C87.3739 532.357 86.9686 532.508 86.5455 532.553C87.9423 536.32 89.0485 540.159 90.2477 543.963C90.5339 544.735 90.8201 545.507 91.1178 546.31C91.7163 545.069 92.5678 543.559 93.7572 541.819C96.4277 537.317 100.624 531.792 103.868 527.218L109.781 519.09L109.139 521.927C108.693 523.673 108.049 526.124 107.195 528.864C105.466 534.666 103.09 540.259 100.112 545.538C98.705 548.34 96.7064 550.806 94.2536 552.767C93.967 552.963 93.6368 553.085 93.292 553.124C94.8923 558.676 96.3881 564.232 97.7713 569.865C98.639 568.209 99.8886 566.06 101.866 563.114C105.365 557.707 110.474 550.931 114.521 545.287L121.682 535.291C121.682 535.291 121.315 536.586 120.65 538.694C119.985 540.802 119.002 543.765 117.778 547.029C115.254 554.035 112.015 560.766 108.114 567.118C106.272 570.518 103.802 573.543 100.835 576.033C100.437 576.303 99.9791 576.473 99.5013 576.528C100.633 581.482 101.671 586.47 102.605 591.461C104.224 588.986 105.978 586.601 107.858 584.316C111.894 579.307 117.604 573.011 122.155 567.776L130.249 558.488C130.249 558.488 129.766 559.756 128.9 561.798C128.034 563.84 126.797 566.687 125.275 569.815C122.078 576.542 118.205 582.932 113.717 588.886C111.508 592.119 108.717 594.917 105.485 597.136C104.954 597.463 104.321 597.586 103.707 597.479C106.008 610.635 107.539 623.915 108.295 637.253C108.387 638.834 106.003 638.875 105.849 637.317C104.849 626.344 103.571 615.475 101.917 604.64C101.524 604.724 101.119 604.731 100.725 604.661C97.1516 603.522 93.7675 601.867 90.6808 599.746Z" fill="#5EAD41"/>
<path fill-rule="evenodd" clip-rule="evenodd" d="M1261.23 544.828C1274.8 546.736 1283.03 557.431 1290.3 567.981C1290.34 568.151 1290.37 568.292 1290.61 568.417C1290.66 568.513 1290.68 568.62 1290.68 568.727C1292.74 570.835 1294.51 573.211 1295.93 575.79C1295.57 563.533 1295.75 551.303 1302.3 540.473C1302.4 540.31 1302.53 540.176 1302.7 540.088C1302.87 540 1303.05 539.96 1303.24 539.975C1303.43 539.989 1303.61 540.057 1303.76 540.169C1303.91 540.282 1304.02 540.435 1304.09 540.611C1309.06 553.534 1303.45 566.079 1297.61 577.726C1297.57 577.823 1297.51 577.91 1297.43 577.983C1297.35 578.055 1297.26 578.112 1297.17 578.15C1298.85 581.828 1300.22 585.642 1301.26 589.55C1301.4 590.171 1301.54 590.791 1301.68 591.412L1302.1 591.318C1306.33 576.866 1314.19 563.72 1324.95 553.126C1325.09 552.972 1325.29 552.87 1325.5 552.835C1325.71 552.801 1325.93 552.835 1326.12 552.933C1326.31 553.031 1326.46 553.188 1326.55 553.38C1326.64 553.572 1326.67 553.788 1326.63 553.997C1324.21 568.229 1316.38 586.886 1302.32 593.371L1302.49 593.333C1304.17 600.199 1305.33 607.179 1305.98 614.218L1306.15 614.18L1306.58 614.086C1310.8 599.642 1318.65 586.5 1329.39 575.9C1329.54 575.755 1329.74 575.661 1329.95 575.63C1330.15 575.599 1330.37 575.634 1330.55 575.729C1330.74 575.824 1330.9 575.974 1330.99 576.16C1331.09 576.346 1331.13 576.557 1331.1 576.765C1328.66 591.004 1320.86 609.654 1306.79 616.139C1306.62 616.258 1306.4 616.305 1306.2 616.271C1306.33 618.214 1306.45 620.257 1306.57 622.401C1306.57 622.652 1306.47 622.894 1306.3 623.076C1306.13 623.259 1305.89 623.369 1305.64 623.383C1305.38 623.397 1305.14 623.314 1304.94 623.152C1304.75 622.99 1304.63 622.761 1304.6 622.511C1304.47 618.96 1304.19 615.412 1303.79 611.861C1290.82 607.01 1272.69 597.146 1266.84 583.856C1266.44 582.997 1267.5 582.408 1268.21 582.693C1281.75 587.804 1295.9 593.786 1303.25 606.596C1302.58 601.922 1301.64 597.29 1300.45 592.719C1299.92 590.322 1299.16 587.975 1298.4 585.627C1285.66 583.004 1272.2 579.592 1265.17 567.715C1265.07 567.552 1265.02 567.364 1265.03 567.173C1265.03 566.982 1265.09 566.797 1265.21 566.641C1265.32 566.485 1265.47 566.364 1265.65 566.293C1265.83 566.222 1266.02 566.204 1266.21 566.242C1278.46 567.822 1288.2 575.015 1297.47 582.757C1295.61 577.622 1292.55 573.005 1288.54 569.289C1277.6 563.691 1266.86 557.608 1260.6 546.656C1260.42 546.528 1260.29 546.348 1260.23 546.142C1260.16 545.936 1260.17 545.714 1260.24 545.51C1260.31 545.305 1260.44 545.129 1260.62 545.006C1260.8 544.884 1261.02 544.821 1261.23 544.828Z" fill="#5EAD41"/>
<path fill-rule="evenodd" clip-rule="evenodd" d="M493.636 455.853C493.216 456.362 492.957 456.983 492.891 457.637C492.824 458.291 492.954 458.951 493.263 459.533C493.263 459.533 493.263 459.533 493.381 459.649C493.969 459.946 494.632 460.066 495.288 459.993C495.944 459.921 496.564 459.659 497.072 459.241C497.477 458.825 497.809 458.345 498.053 457.819C498.115 458.39 498.281 458.944 498.544 459.455C498.903 460.008 499.419 460.445 500.026 460.712C500.633 460.978 501.305 461.062 501.96 460.954H502.098C502.567 460.489 502.888 459.898 503.02 459.255C503.153 458.611 503.092 457.942 502.844 457.332C502.571 456.822 502.212 456.361 501.784 455.97C502.361 456.077 502.954 456.077 503.531 455.97C504.169 455.805 504.743 455.456 505.18 454.968C505.617 454.479 505.897 453.872 505.985 453.224C506.005 453.174 506.005 453.119 505.985 453.069C505.688 452.48 505.222 451.992 504.645 451.667C504.069 451.341 503.408 451.192 502.746 451.238C502.177 451.333 501.631 451.531 501.136 451.822C501.415 451.321 501.601 450.773 501.685 450.206C501.724 449.552 501.568 448.9 501.236 448.332C500.905 447.764 500.412 447.306 499.82 447.013C499.769 446.996 499.714 446.996 499.663 447.013C499.268 447.093 498.885 447.224 498.524 447.403C497.851 447.742 497.321 448.31 497.033 449.003C496.745 449.696 496.717 450.468 496.954 451.18C496.504 450.604 495.867 450.2 495.152 450.037C494.436 449.874 493.685 449.961 493.027 450.284C492.669 450.464 492.338 450.693 492.045 450.966C492.036 450.987 492.032 451.01 492.032 451.034C492.032 451.057 492.036 451.08 492.045 451.102C491.937 451.751 492.024 452.417 492.297 453.016C492.569 453.616 493.015 454.122 493.577 454.47C494.094 454.722 494.653 454.881 495.226 454.938C494.706 455.187 494.229 455.515 493.812 455.911L493.636 455.853ZM501.803 460.467C501.263 460.556 500.708 460.488 500.206 460.27C499.704 460.052 499.277 459.695 498.976 459.241C498.4 457.906 498.29 456.419 498.662 455.016C499.15 455.776 499.57 456.578 499.918 457.41C499.965 457.45 500.024 457.472 500.085 457.472C500.147 457.472 500.206 457.45 500.252 457.41C500.282 457.396 500.308 457.376 500.329 457.351C500.35 457.326 500.366 457.297 500.375 457.266C500.384 457.235 500.387 457.202 500.382 457.17C500.378 457.138 500.367 457.107 500.35 457.079L499.192 454.86C499.659 455.11 500.145 455.325 500.645 455.502C501.397 455.986 502.006 456.657 502.412 457.449C502.612 457.954 502.66 458.506 502.552 459.037C502.445 459.569 502.184 460.059 501.803 460.448V460.467ZM502.805 451.667C503.352 451.638 503.897 451.766 504.374 452.035C504.851 452.304 505.24 452.703 505.494 453.185C505.418 453.71 505.193 454.203 504.845 454.606C504.498 455.01 504.042 455.307 503.531 455.463C502.075 455.589 500.619 455.233 499.388 454.451C500.263 454.224 501.157 454.074 502.059 454.003C502.117 453.986 502.168 453.95 502.204 453.9C502.239 453.851 502.257 453.791 502.255 453.731C502.238 453.67 502.202 453.617 502.153 453.579C502.103 453.54 502.043 453.518 501.98 453.516L499.486 453.925C499.88 453.574 500.235 453.182 500.547 452.757C501.229 452.217 502.029 451.844 502.883 451.667H502.805ZM497.366 449.506C497.602 448.006 499.329 447.558 499.644 447.442C500.132 447.688 500.537 448.069 500.813 448.539C501.088 449.009 501.22 449.547 501.195 450.09C500.855 451.496 500.071 452.759 498.956 453.692C498.956 453.692 498.956 453.867 499.329 451.024C499.335 450.995 499.334 450.964 499.327 450.935C499.32 450.905 499.307 450.878 499.288 450.854C499.27 450.83 499.246 450.81 499.22 450.796C499.193 450.782 499.163 450.773 499.133 450.771C499.074 450.764 499.014 450.777 498.964 450.809C498.913 450.841 498.876 450.89 498.858 450.946L498.485 453.419C498.254 452.954 497.992 452.505 497.7 452.076C497.374 451.26 497.259 450.376 497.366 449.506ZM498.485 454.1C498.54 454.073 498.604 454.068 498.662 454.086C498.721 454.104 498.77 454.144 498.799 454.198C498.814 454.226 498.822 454.257 498.824 454.288C498.826 454.319 498.822 454.351 498.812 454.381C498.802 454.41 498.787 454.438 498.766 454.462C498.745 454.486 498.72 454.505 498.691 454.519C498.663 454.533 498.632 454.541 498.6 454.544C498.569 454.546 498.537 454.542 498.507 454.532C498.477 454.522 498.449 454.506 498.425 454.486C498.401 454.465 498.382 454.44 498.367 454.412C498.354 454.384 498.347 454.353 498.346 454.323C498.345 454.292 498.35 454.261 498.361 454.232C498.372 454.203 498.388 454.176 498.41 454.154C498.431 454.131 498.457 454.113 498.485 454.1ZM493.616 453.984C493.346 453.898 493.098 453.756 492.889 453.567C492.68 453.378 492.515 453.146 492.404 452.888C492.294 452.629 492.241 452.35 492.25 452.069C492.259 451.789 492.328 451.513 492.454 451.262C492.58 451.01 492.76 450.789 492.98 450.613C493.2 450.437 493.457 450.31 493.731 450.241C494.006 450.172 494.292 450.163 494.57 450.214C494.849 450.265 495.112 450.376 495.344 450.537C496.601 451.282 497.574 452.419 498.112 453.769C498.112 453.769 498.289 453.886 495.678 452.582C495.638 452.563 495.594 452.553 495.55 452.553C495.506 452.553 495.462 452.563 495.422 452.582C495.386 452.605 495.356 452.636 495.336 452.674C495.315 452.711 495.304 452.753 495.305 452.796C495.312 452.841 495.33 452.884 495.357 452.922C495.385 452.959 495.42 452.989 495.462 453.01L497.7 454.139C497.176 454.204 496.657 454.308 496.149 454.451C495.279 454.504 494.409 454.344 493.616 453.984ZM497.916 454.607C497.916 454.607 498.073 454.49 495.952 456.554C495.931 456.575 495.913 456.601 495.901 456.63C495.889 456.658 495.883 456.688 495.883 456.719C495.883 456.75 495.889 456.78 495.901 456.809C495.913 456.837 495.931 456.863 495.952 456.885C495.973 456.909 495.998 456.929 496.027 456.942C496.056 456.956 496.087 456.963 496.119 456.963C496.151 456.963 496.183 456.956 496.212 456.942C496.241 456.929 496.266 456.909 496.286 456.885L498.073 455.113C497.972 455.633 497.92 456.161 497.916 456.69C497.68 457.524 497.249 458.291 496.659 458.929C496.494 459.16 496.281 459.352 496.033 459.492C495.786 459.633 495.511 459.718 495.227 459.743C494.942 459.767 494.656 459.73 494.388 459.633C494.12 459.537 493.877 459.384 493.674 459.184C493.472 458.985 493.316 458.745 493.217 458.48C493.118 458.214 493.078 457.931 493.101 457.649C493.123 457.367 493.207 457.094 493.347 456.847C493.487 456.601 493.679 456.388 493.911 456.223C495.017 455.241 496.432 454.67 497.916 454.607Z" fill="#5EAD41"/>
<path fill-rule="evenodd" clip-rule="evenodd" d="M361.056 520.735C360.233 521.739 359.724 522.961 359.594 524.25C359.463 525.54 359.717 526.838 360.324 527.985L360.555 528.215C361.71 528.8 363.012 529.036 364.299 528.893C365.587 528.749 366.804 528.234 367.801 527.409C368.597 526.591 369.249 525.644 369.728 524.609C369.848 525.733 370.175 526.825 370.691 527.831C371.391 528.926 372.402 529.788 373.597 530.308C374.792 530.827 376.115 530.98 377.397 530.747C377.44 530.764 377.485 530.774 377.532 530.774C377.578 530.774 377.624 530.764 377.667 530.747C378.587 529.832 379.217 528.667 379.477 527.399C379.738 526.13 379.617 524.813 379.131 523.612C378.595 522.606 377.892 521.698 377.05 520.927C378.172 521.119 379.319 521.119 380.441 520.927C384.295 520.275 385.259 515.711 385.297 515.519C385.336 515.42 385.336 515.311 385.297 515.212C384.714 514.053 383.799 513.092 382.667 512.45C381.535 511.808 380.238 511.515 378.938 511.607C377.83 511.797 376.761 512.173 375.778 512.719C376.331 511.746 376.697 510.68 376.857 509.574C376.922 508.262 376.589 506.96 375.902 505.839C375.215 504.717 374.205 503.827 373.003 503.283C372.961 503.265 372.915 503.256 372.869 503.256C372.822 503.256 372.776 503.265 372.734 503.283C371.958 503.44 371.206 503.698 370.498 504.05C369.175 504.719 368.137 505.837 367.571 507.202C367.006 508.567 366.95 510.089 367.415 511.491C366.538 510.35 365.291 509.547 363.885 509.218C362.48 508.89 361.004 509.056 359.707 509.689C359.011 510.069 358.364 510.533 357.781 511.069C357.763 511.112 357.753 511.158 357.753 511.204C357.753 511.25 357.763 511.295 357.781 511.338C357.567 512.616 357.739 513.928 358.274 515.109C358.809 516.29 359.683 517.287 360.787 517.974C361.808 518.453 362.902 518.764 364.024 518.894C363.004 519.385 362.067 520.032 361.249 520.812L361.056 520.735ZM377.089 529.673C376.028 529.848 374.938 529.713 373.953 529.284C372.968 528.855 372.129 528.151 371.539 527.256C370.409 524.627 370.192 521.698 370.922 518.933C371.88 520.431 372.705 522.01 373.389 523.65C373.48 523.729 373.596 523.772 373.716 523.772C373.837 523.772 373.953 523.729 374.044 523.65C374.153 523.586 374.233 523.483 374.269 523.362C374.305 523.241 374.293 523.111 374.237 522.998L371.963 518.626C372.877 519.125 373.831 519.549 374.815 519.892C376.281 520.855 377.475 522.175 378.283 523.727C378.675 524.722 378.771 525.808 378.559 526.856C378.347 527.903 377.837 528.868 377.089 529.634V529.673ZM379.054 512.335C380.129 512.279 381.199 512.531 382.135 513.061C383.07 513.591 383.834 514.378 384.334 515.327C384.184 516.361 383.742 517.332 383.06 518.126C382.378 518.921 381.483 519.506 380.48 519.815C377.611 520.059 374.74 519.358 372.31 517.82C374.046 517.398 375.81 517.103 377.59 516.938C377.694 516.908 377.786 516.845 377.852 516.759C377.917 516.672 377.953 516.567 377.953 516.459C377.953 516.35 377.917 516.245 377.852 516.158C377.786 516.072 377.694 516.009 377.59 515.979L372.695 516.785C373.468 516.092 374.165 515.321 374.776 514.483C376.115 513.42 377.686 512.684 379.362 512.335H379.054ZM368.379 508.078C368.841 505.124 372.233 504.242 372.849 504.012C373.807 504.498 374.604 505.248 375.144 506.174C375.684 507.099 375.944 508.16 375.894 509.228C375.282 512.037 373.783 514.578 371.616 516.478C371.616 516.478 371.616 516.823 372.348 511.223C372.359 511.165 372.358 511.104 372.344 511.047C372.33 510.989 372.304 510.935 372.268 510.888C372.231 510.841 372.185 510.802 372.133 510.774C372.08 510.745 372.022 510.729 371.963 510.724C371.847 510.71 371.729 510.737 371.63 510.8C371.532 510.863 371.458 510.958 371.423 511.069L370.691 515.941C370.238 515.025 369.723 514.141 369.15 513.294C368.51 511.687 368.285 509.947 368.494 508.231L368.379 508.078ZM370.537 517.13C370.592 517.097 370.653 517.075 370.717 517.067C370.781 517.059 370.845 517.064 370.907 517.082C370.969 517.1 371.026 517.131 371.075 517.172C371.124 517.213 371.164 517.264 371.192 517.322C371.22 517.377 371.237 517.437 371.241 517.499C371.245 517.561 371.237 517.623 371.218 517.682C371.198 517.741 371.167 517.795 371.126 517.842C371.085 517.889 371.036 517.927 370.98 517.955C370.924 517.982 370.864 517.999 370.802 518.003C370.74 518.008 370.677 518 370.618 517.98C370.559 517.96 370.505 517.93 370.458 517.889C370.411 517.848 370.372 517.799 370.344 517.744C370.268 517.659 370.226 517.55 370.226 517.437C370.226 517.323 370.268 517.214 370.344 517.13H370.537ZM361.018 516.9C360.488 516.732 360.002 516.452 359.591 516.079C359.18 515.706 358.856 515.25 358.639 514.74C358.423 514.231 358.319 513.681 358.336 513.128C358.353 512.576 358.49 512.033 358.737 511.538C358.985 511.042 359.337 510.606 359.769 510.259C360.202 509.912 360.705 509.662 361.244 509.526C361.782 509.391 362.344 509.373 362.891 509.474C363.437 509.575 363.955 509.792 364.409 510.111C366.867 511.589 368.775 513.824 369.843 516.478C369.843 516.478 370.19 516.708 365.064 514.138C364.99 514.09 364.903 514.065 364.814 514.065C364.725 514.065 364.638 514.09 364.563 514.138C364.492 514.183 364.434 514.246 364.393 514.319C364.353 514.393 364.332 514.476 364.332 514.56C364.339 514.652 364.372 514.74 364.426 514.814C364.481 514.889 364.555 514.947 364.64 514.982L369.034 517.207C368.005 517.333 366.987 517.539 365.989 517.82C364.281 517.925 362.574 517.609 361.018 516.9ZM369.458 518.089C369.458 518.089 369.766 518.089 365.604 521.924C365.561 521.967 365.527 522.018 365.503 522.074C365.48 522.13 365.468 522.19 365.468 522.25C365.468 522.311 365.48 522.371 365.503 522.427C365.527 522.483 365.561 522.534 365.604 522.576C365.644 522.625 365.694 522.664 365.75 522.69C365.807 522.717 365.869 522.731 365.932 522.731C365.994 522.731 366.056 522.717 366.113 522.69C366.169 522.664 366.219 522.625 366.259 522.576L369.766 519.086C369.568 520.097 369.465 521.124 369.458 522.155C369.002 523.812 368.157 525.337 366.991 526.604C366.157 527.273 365.15 527.693 364.086 527.815C363.022 527.937 361.944 527.757 360.979 527.294C360.477 526.341 360.268 525.262 360.377 524.191C360.487 523.12 360.911 522.105 361.596 521.272C363.79 519.385 366.56 518.29 369.458 518.165V518.089Z" fill="#5EAD41"/>
<path fill-rule="evenodd" clip-rule="evenodd" d="M61.6131 81.8461C61.7967 81.8461 61.8492 80.1 62.7148 79.1022C64.1314 77.4559 68.8533 79.1023 66.5186 81.946C65.8365 82.7442 64.9184 83.318 64.9709 83.3679C65.4527 83.2525 65.9443 83.1773 66.4399 83.1433C70.4011 83.1433 69.6403 89.3794 65.0233 87.783C64.2626 87.5086 64.42 87.5086 64.7872 88.1322C65.1545 88.7559 65.2332 88.8307 65.4693 89.2048C65.7062 89.577 65.7812 90.0223 65.6783 90.4462C65.5754 90.87 65.3028 91.2391 64.9184 91.4749C63.7641 92.1983 61.718 92.0984 61.2458 90.7264C61.0599 90.1411 60.9369 89.5394 60.8785 88.9305C60.59 86.6106 61.5081 92.0984 57.547 91.9987C55.8943 91.9987 54.6089 90.6268 56.5239 88.5314C56.8097 88.2296 57.1164 87.9462 57.442 87.6833C57.8355 87.334 57.8618 87.2592 57.442 87.4089C56.7045 87.6073 55.9235 87.6073 55.186 87.4089C54.1892 87.0347 53.6383 84.615 54.2679 83.4426C55.2122 81.7713 56.8911 82.37 57.9667 82.7193C59.0422 83.0685 59.3833 82.9437 58.229 82.3201C57.8332 82.0988 57.4561 81.8486 57.101 81.5717C54.2679 79.2519 59.7243 75.8594 61.1671 79.8256C61.5344 80.7735 61.6393 81.7214 61.7442 81.7214L61.6131 81.8461ZM60.5113 83.3679C60.0129 83.742 60.7474 84.191 61.1933 83.9915C61.6393 83.7919 61.1933 82.8191 60.5113 83.3679ZM62.8198 84.1162C62.3738 83.3179 61.9016 83.0186 61.6131 84.1162C61.3245 85.2137 61.377 85.8374 62.4 85.5131C62.5316 85.4624 62.6496 85.3842 62.745 85.2842C62.8404 85.1843 62.9109 85.0652 62.9513 84.9357C62.9916 84.8063 63.0007 84.6698 62.978 84.5365C62.9552 84.4033 62.9011 84.2767 62.8198 84.1661V84.1162ZM60.0391 84.4405C59.0422 84.8645 59.3046 85.7625 60.0391 85.7874C61.7705 85.7874 61.1409 83.8917 60.0391 84.4405ZM60.8523 85.987C59.5407 86.6106 60.8523 87.1345 62.0328 86.6606C63.2133 86.1866 62.1115 85.3883 60.8523 85.9621V85.987Z" fill="#92D660"/>
</g>
<defs>
<clipPath id="clip0_317_4853">
<rect width="1440" height="606" fill="white"/>
</clipPath>
</defs>
</svg>
