<svg viewBox="0 0 1440 460" fill="none" xmlns="http://www.w3.org/2000/svg">
<g clip-path="url(#clip0_401_4853)">
<path fill-rule="evenodd" clip-rule="evenodd" d="M1048.23 110.348C1049.86 110.28 1051.47 110.695 1052.86 111.542C1054.26 112.39 1055.37 113.631 1056.05 115.109C1056.74 116.587 1056.97 118.235 1056.72 119.846C1056.47 121.456 1055.75 122.956 1054.65 124.156C1053.55 125.356 1052.11 126.202 1050.53 126.587C1048.94 126.973 1047.28 126.88 1045.75 126.32C1044.22 125.761 1042.89 124.76 1041.93 123.444C1040.97 122.129 1040.42 120.558 1040.35 118.929C1040.3 117.848 1040.47 116.769 1040.84 115.752C1041.21 114.736 1041.78 113.803 1042.51 113.006C1043.25 112.209 1044.13 111.564 1045.11 111.108C1046.09 110.652 1047.15 110.394 1048.23 110.348Z" fill="#A7CD7A"/>
<path fill-rule="evenodd" clip-rule="evenodd" d="M1202.39 14.1574C1197.89 18.423 1192.38 24.442 1187.78 29.3023L1179.64 37.9033L1182.7 36.3367C1184.57 35.3516 1187.19 33.9328 1190.09 32.1932C1196.28 28.5952 1202.1 24.3849 1207.45 19.6256C1209.24 17.9754 1210.92 16.214 1212.49 14.352C1212.73 18.9845 1212.9 23.614 1212.97 28.2394C1212.44 28.1556 1211.91 28.2374 1211.43 28.4736C1208.25 30.3092 1205.36 32.6079 1202.86 35.2941C1198.39 39.5612 1192.88 45.58 1188.29 50.4403L1180.11 59.0399L1183.17 57.4734C1185.07 56.4898 1187.69 55.0709 1190.59 53.3314C1196.78 49.7256 1202.59 45.5158 1207.95 40.7638C1209.73 39.0857 1211.43 37.3148 1213.03 35.4584C1213.04 41.5112 1212.88 47.557 1212.63 53.6317C1211.18 53.3376 1208.28 54.279 1201.31 58.5071C1191.96 64.7313 1183.05 71.5875 1174.64 79.0276C1185.13 75.0065 1195.33 70.2599 1205.17 64.8224C1207.66 63.3785 1210.05 61.7687 1212.32 60.0038C1212.3 60.4354 1212.29 60.867 1212.27 61.2985C1212.12 61.5722 1212.04 61.8756 1212.03 62.1861C1212.01 62.4965 1212.07 62.8058 1212.19 63.091L1211.75 68.8254C1211.67 70.618 1211.6 72.4105 1211.22 74.2237C1210.92 73.9096 1210.53 73.6961 1210.11 73.6126C1209.68 73.5291 1209.24 73.5796 1208.85 73.7573C1205.81 75.216 1203.02 77.1527 1200.59 79.4937C1196.21 83.166 1190.87 88.4602 1186.36 92.6926L1178.43 100.238L1181.37 99.0327C1183.17 98.2441 1185.71 97.1212 1188.5 95.7094C1194.47 92.8297 1200.11 89.2985 1205.31 85.1802C1207.21 83.6648 1208.98 81.9933 1210.6 80.1834C1210.08 84.7282 1209.49 89.2591 1208.83 93.7762C1207.45 93.3853 1204.88 94.3739 1198.63 99.1972C1190.47 105.855 1182.8 113.1 1175.69 120.874C1185.16 116.293 1194.28 111.021 1202.97 105.101C1204.99 103.59 1206.58 102.327 1207.75 101.279C1207.74 101.478 1207.73 101.678 1207.73 101.877C1207.46 102.124 1207.27 102.436 1207.17 102.783C1207.06 103.129 1207.06 103.497 1207.14 103.847C1207.16 104.076 1207.21 104.301 1207.28 104.518C1206.76 107.39 1206.24 110.261 1205.69 113.13C1204.38 112.676 1202.14 113.513 1196.42 118.425C1189.56 124.948 1183.23 132.008 1177.5 139.54C1185.82 134.973 1193.75 129.749 1201.24 123.916C1202.27 123.029 1203.14 122.234 1203.9 121.535C1203 125.521 1202.03 129.504 1201.04 133.452C1199.74 132.632 1197.72 133.146 1190.97 139.444C1183.92 146.732 1177.44 154.539 1171.56 162.799C1180.16 157.439 1188.34 151.438 1196.03 144.846C1197.07 143.859 1197.94 142.998 1198.7 142.199C1198.11 144.435 1197.52 146.672 1196.9 148.774C1195.46 148.879 1193.72 150.768 1190.32 158.804C1186.66 168.698 1183.72 178.843 1181.52 189.16C1187.37 180.385 1192.6 171.205 1197.15 161.687C1197.7 160.38 1198.15 159.235 1198.53 158.187C1201.16 166.327 1204.43 174.248 1208.3 181.879C1208.09 172.961 1207.13 164.077 1205.43 155.32C1203.24 146.614 1201.74 145.919 1200.03 146.213C1201.42 141.715 1202.71 137.181 1203.93 132.61C1204.38 133.727 1204.99 135.049 1205.79 136.58C1208.63 141.716 1212.15 146.442 1216.27 150.624C1218.15 152.632 1219.94 154.304 1221.22 155.489L1223.34 157.308L1222.15 154.797L1219.32 148.592C1217.1 143.642 1214.59 137.584 1212.35 133.166C1211.21 130.443 1209.59 127.943 1207.58 125.781C1207.33 125.558 1207.02 125.399 1206.7 125.316C1206.37 125.233 1206.03 125.228 1205.7 125.302C1206.31 122.701 1206.89 120.065 1207.4 117.426C1207.65 117.107 1207.82 116.738 1207.9 116.345C1207.99 115.952 1207.99 115.545 1207.9 115.153L1209.19 108.191C1209.74 109.212 1210.43 110.371 1211.3 111.606C1214.01 116.01 1218 121.566 1221.06 126.251L1224.96 132.236L1226.49 134.695C1226.49 134.695 1226.33 133.624 1226.01 131.815C1225.69 130.006 1225.19 127.557 1224.45 124.765C1222.93 118.848 1220.63 113.159 1217.62 107.849C1216.03 104.98 1213.78 102.526 1211.07 100.688C1210.79 100.495 1210.46 100.378 1210.12 100.348L1210.53 97.6723C1210.69 97.4146 1210.8 97.1247 1210.84 96.8223C1210.88 96.52 1210.86 96.2122 1210.77 95.92C1211.23 92.9464 1211.62 89.97 1212.01 86.9937L1212.36 87.4407C1213.31 88.6115 1214.64 90.0978 1216.39 92.0672C1218.13 94.0366 1220.23 96.287 1222.33 98.6702C1224.42 101.053 1226.44 103.533 1228.18 105.835C1229.91 108.136 1231.31 110.324 1232.44 111.901L1234.1 114.432C1234.1 114.432 1233.91 113.327 1233.53 111.448C1232.97 108.965 1232.27 106.515 1231.44 104.111C1230.36 100.999 1229.02 97.983 1227.43 95.0952C1225.88 92.2656 1224.03 89.6118 1221.91 87.1799C1220.45 85.4717 1218.82 83.9104 1217.06 82.5181C1216.16 81.7573 1215.12 81.1721 1214 80.7928C1213.59 80.68 1213.16 80.6618 1212.74 80.7394C1213.18 76.7672 1213.58 72.8268 1213.94 68.8517L1214.05 66.3621C1214.9 67.4291 1216.04 68.741 1217.54 70.3008C1221.07 74.075 1226.23 78.6165 1230.33 82.3814L1237.77 89.0143C1237.77 89.0143 1237.34 88.032 1236.55 86.4021C1235.75 84.7722 1234.62 82.5294 1233.22 80.0429C1230.31 74.7455 1226.82 69.7903 1222.81 65.2694C1220.84 62.77 1218.35 60.7343 1215.51 59.3073C1215.18 59.215 1214.82 59.2001 1214.48 59.2638C1214.73 53.521 1215.13 47.7852 1215.21 42.0353C1216.42 43.4497 1218.17 45.2864 1220.62 47.7182C1225.16 52.233 1231.54 57.7241 1236.63 62.3624L1245.7 70.5608L1244 67.4628C1242.92 65.5547 1241.37 62.8953 1239.46 59.9548C1235.53 53.6785 1230.97 47.8242 1225.83 42.4847C1223.27 39.5985 1220.19 37.2131 1216.75 35.4496C1216.31 35.2543 1215.82 35.1764 1215.33 35.2233C1215.55 30.1776 1215.36 25.0818 1215.21 20.0206C1217.3 22.0858 1219.51 24.0331 1221.82 25.8536C1226.76 29.9206 1233.64 34.8006 1239.19 38.8928L1248.86 46.1856L1246.85 43.2741C1245.6 41.4586 1243.71 38.9842 1241.62 36.4019C1237.09 30.5452 1231.98 25.1596 1226.37 20.3265C1223.56 17.6452 1220.26 15.52 1216.66 14.0628C1216.1 13.8024 1215.45 13.7752 1214.87 13.987C1214.31 0.67478 1212.98 -12.5941 1210.9 -25.7544C1210.66 -27.294 1208.31 -26.8281 1208.52 -25.2899C1209.89 -14.3904 1210.93 -3.50549 1211.62 7.36494C1211.22 7.36787 1210.82 7.45288 1210.45 7.61462C1207.47 9.40512 1204.76 11.6078 1202.39 14.1574Z" fill="#5EAD41"/>
<path fill-rule="evenodd" clip-rule="evenodd" d="M1146.11 290.523C1146.39 290.512 1146.37 287.533 1147.67 285.839C1149.85 282.929 1157.63 285.625 1154.03 290.419C1153 291.779 1151.54 292.834 1151.61 292.831C1152.35 292.583 1153.12 292.419 1153.9 292.342C1160.28 291.933 1159.51 302.727 1151.93 300.3C1150.71 299.912 1150.96 299.902 1151.58 300.938C1151.91 301.455 1152.37 302.059 1152.79 302.688C1153.18 303.313 1153.32 304.062 1153.19 304.787C1153.05 305.512 1152.65 306.159 1152.05 306.599C1150.24 307.899 1146.89 307.856 1146.03 305.56C1145.69 304.589 1145.46 303.585 1145.33 302.565C1144.7 298.62 1146.57 307.87 1140.17 307.979C1137.5 308.092 1135.33 305.874 1138.27 302.171C1138.69 301.627 1139.16 301.113 1139.65 300.634C1140.3 300.029 1140.32 299.913 1139.45 300.204C1138.29 300.676 1137.02 300.802 1135.8 300.566C1134.16 300.035 1133.11 296.061 1134.06 293.92C1135.44 290.975 1138.22 291.896 1139.98 292.399C1141.73 292.903 1142.3 292.717 1140.36 291.69C1139.71 291.356 1139.08 290.965 1138.49 290.523C1133.71 286.799 1142.27 280.663 1144.93 287.248C1145.58 288.86 1145.83 290.466 1146.01 290.458L1146.11 290.523ZM1144.42 293.181C1143.66 293.837 1144.87 294.594 1145.55 294.219C1146.23 293.844 1145.46 292.19 1144.42 293.181ZM1148.21 294.291C1147.41 292.985 1146.65 292.486 1146.27 294.373C1146.02 295.608 1146 297.317 1147.61 296.626C1147.82 296.526 1148 296.383 1148.15 296.205C1148.3 296.027 1148.4 295.82 1148.46 295.597C1148.51 295.375 1148.52 295.142 1148.48 294.917C1148.43 294.691 1148.34 294.477 1148.21 294.291ZM1143.74 295.035C1142.15 295.84 1142.66 297.389 1143.95 297.335C1146.78 297.215 1145.61 294.078 1143.74 295.035ZM1145.19 297.629C1143.11 298.779 1145.27 299.565 1147.12 298.702C1148.98 297.838 1147.1 296.44 1145.18 297.491L1145.19 297.629Z" fill="#FFD885"/>
<path fill-rule="evenodd" clip-rule="evenodd" d="M1265.69 29.0904C1274.36 32.3002 1285.51 37.5555 1294.53 41.2542L1310.77 48.2598L1305.68 47.8866C1302.52 47.6658 1298.05 47.2304 1293.06 46.5691C1282.47 45.2424 1272.04 42.8625 1261.92 39.4648C1258.49 38.2418 1255.14 36.8073 1251.89 35.1698C1254.28 41.6347 1256.78 48.1015 1259.4 54.4496C1260.07 54.0244 1260.85 53.8176 1261.64 53.858C1267.08 54.5511 1272.4 56.0379 1277.41 58.2711C1286.08 61.4808 1297.23 66.7361 1306.27 70.4835L1322.49 77.4404C1322.49 77.4404 1320.53 77.3601 1317.35 77.0906C1314.17 76.8211 1309.78 76.4111 1304.74 75.773C1294.14 74.4629 1283.71 72.0827 1273.59 68.6688C1270.16 67.4334 1266.79 66.0074 1263.52 64.3973C1267.08 72.6932 1270.78 80.9191 1274.71 88.9794C1276.5 87.7041 1280.97 87.294 1293 89.0126C1309.5 92.0828 1325.77 96.2877 1341.69 101.598C1324.98 102.234 1308.25 101.734 1291.61 100.102C1287.35 99.5806 1283.13 98.7608 1278.99 97.6494L1279.83 99.4025C1280.18 99.6926 1280.47 100.057 1280.67 100.469C1280.87 100.881 1280.97 101.331 1280.98 101.789C1282.21 104.37 1283.45 106.95 1284.93 109.415C1286.42 111.879 1287.27 114.284 1288.8 116.484C1289.02 115.875 1289.43 115.351 1289.97 114.987C1290.5 114.623 1291.14 114.437 1291.78 114.455C1296.81 114.638 1301.78 115.658 1306.47 117.473C1314.6 119.925 1325.06 124.01 1333.66 127.194L1348.93 132.807L1344.24 132.899C1341.32 132.924 1337.14 132.831 1332.51 132.538C1322.64 132.085 1312.84 130.556 1303.3 127.978C1299.82 126.987 1296.42 125.736 1293.12 124.236C1296.5 130.162 1299.96 135.992 1303.51 141.775C1305.18 140.498 1309.29 140.324 1320.93 143.123C1335.99 147.45 1350.72 152.858 1365 159.304C1349.33 158.616 1333.74 156.787 1318.34 153.831C1314.66 152.901 1311.58 152.223 1309.54 151.344L1309.94 152.172C1310.44 152.362 1310.88 152.678 1311.23 153.09C1311.57 153.502 1311.81 153.995 1311.91 154.523C1311.99 154.849 1312.05 155.181 1312.08 155.516C1314.49 159.155 1316.89 162.794 1319.32 166.361C1320.82 164.984 1324.54 164.755 1335.11 168.189C1348.35 172.994 1361.18 178.859 1373.48 185.727C1359.46 184.398 1345.56 181.95 1331.93 178.404C1330.01 177.768 1328.32 177.258 1326.86 176.702C1330.47 181.617 1334.09 186.532 1337.83 191.328C1339.09 189.464 1342.36 189.155 1355.11 193.64C1369.02 199.491 1382.47 206.373 1395.36 214.228C1380.45 211.943 1365.73 208.529 1351.34 204.014C1349.32 203.305 1347.6 202.576 1346.11 201.972C1348.24 204.664 1350.39 207.405 1352.57 210.074C1354.42 209.186 1358.02 210.936 1367.41 219.907C1378.22 231.319 1388.2 243.487 1397.28 256.317C1384.07 247.788 1371.51 238.297 1359.7 227.922C1358.15 226.447 1356.87 225.146 1355.66 223.87C1356.79 236.613 1356.93 249.425 1356.07 262.19C1351.08 249.862 1347.18 237.124 1344.39 224.12C1342.27 210.944 1343.94 209.063 1346.44 208.524C1341.89 203.159 1337.48 197.724 1333.18 192.122C1333.22 193.958 1333.16 196.083 1333 198.617C1332.12 207.314 1330.07 215.854 1326.91 224.003C1325.47 227.869 1324.08 231.35 1322.93 233.577C1321.78 235.805 1321.13 237.316 1321.13 237.316C1321.13 237.316 1321.21 235.723 1321.25 233.187L1321.51 222.997C1321.67 214.955 1321.47 205.048 1322.02 197.834C1321.95 193.404 1322.68 188.998 1324.16 184.824C1324.38 184.374 1324.7 183.982 1325.09 183.678C1325.49 183.374 1325.95 183.166 1326.44 183.073C1324.1 179.822 1321.76 176.571 1319.47 173.296C1318.95 172.991 1318.5 172.575 1318.16 172.076C1317.82 171.578 1317.59 171.01 1317.49 170.413C1315.51 167.53 1313.58 164.624 1311.64 161.717C1311.45 163.429 1311.2 165.406 1310.84 167.792C1309.7 175.407 1307.34 185.466 1306.05 193.635C1305.33 197.754 1304.69 201.415 1304.28 204.066L1303.58 208.355C1303.58 208.355 1303.18 206.753 1302.57 204.11C1301.96 201.467 1301.2 197.759 1300.54 193.52C1299.12 184.494 1298.93 175.315 1299.97 166.237C1300.18 161.38 1301.51 156.638 1303.87 152.386C1304.21 151.979 1304.6 151.627 1305.05 151.343L1302.9 147.998C1302.17 147.442 1301.68 146.632 1301.52 145.729C1299.19 141.874 1296.88 138.067 1294.6 134.189L1294.4 135.007C1293.83 137.196 1292.84 140.007 1291.57 143.73C1290.3 147.454 1288.78 151.777 1287.38 156.224C1285.98 160.67 1284.55 165.309 1283.52 169.519C1282.48 173.73 1281.72 177.51 1281.26 180.305L1280.51 184.738C1280.51 184.738 1280.08 183.088 1279.52 180.301C1278.79 176.582 1278.29 172.823 1278.02 169.043C1277.69 164.15 1277.78 159.238 1278.28 154.359C1278.72 149.585 1279.68 144.871 1281.12 140.298C1282.16 137.101 1283.48 134.002 1285.06 131.038C1285.88 129.486 1286.94 128.082 1288.22 126.886C1288.71 126.473 1289.3 126.192 1289.93 126.068C1286.97 120.898 1284.11 115.682 1281.32 110.491L1279.71 107.131C1279.17 109.127 1278.4 111.53 1277.29 114.58C1274.75 121.786 1270.21 131.036 1266.68 138.661L1260.39 152.159L1260.53 147.837C1260.68 145.133 1261.02 141.612 1261.41 137.173C1262.19 128.178 1263.95 119.296 1266.67 110.686C1267.92 106.13 1270.14 101.898 1273.18 98.2792C1273.61 97.9659 1274.09 97.736 1274.59 97.6017C1270.9 89.9075 1266.95 82.2815 1263.47 74.4219C1262.66 77.09 1261.37 80.6442 1259.41 85.4195C1255.85 94.2514 1250.36 105.515 1246.07 114.819L1238.46 131.411C1238.46 131.411 1238.64 129.409 1239 126.178C1239.37 122.947 1239.93 118.366 1240.86 113.308C1242.62 102.378 1245.51 91.6583 1249.47 81.3193C1251.24 75.8079 1254.02 70.6751 1257.67 66.1858C1258.22 65.732 1258.87 65.4193 1259.57 65.2748C1256.3 58.4572 1253.56 51.3826 1250.8 44.3801C1249.14 48.4205 1247.28 52.3732 1245.22 56.2226C1240.78 64.7018 1234.23 75.3931 1229.08 84.2714L1219.98 100.018C1219.98 100.018 1220.31 98.0667 1220.96 94.8162C1221.62 91.5656 1222.68 87.1622 1224 82.1589C1226.73 71.4614 1230.56 61.0734 1235.42 51.1585C1237.72 45.8488 1240.99 41.0122 1245.05 36.894C1245.35 36.5535 1245.72 36.2768 1246.13 36.0802C1246.54 35.8836 1246.98 35.7711 1247.44 35.7493C1240.41 17.1963 1234.44 -1.74237 1229.57 -20.9747C1228.96 -23.2555 1232.45 -23.9716 1233.11 -21.7142C1237.68 -5.93701 1242.65 9.65329 1248.1 25.0099C1248.68 24.7955 1249.29 24.6831 1249.91 24.6774C1255.36 25.3508 1260.68 26.8384 1265.69 29.0904Z" fill="#265113"/>
</g>
<defs>
<clipPath id="clip0_401_4853">
<rect width="1440" height="460" fill="white"/>
</clipPath>
</defs>
</svg>
