<svg viewBox="0 0 375 500" fill="none" xmlns="http://www.w3.org/2000/svg">
<g clip-path="url(#clip0_401_4853)">
<g clip-path="url(#clip1_401_4853)">
<path fill-rule="evenodd" clip-rule="evenodd" d="M41.8368 0.402611C42.7431 0.411457 43.9051 0.619063 44.1714 1.69618C44.2292 2.05546 44.174 2.42391 44.0135 2.7505C43.853 3.0771 43.5951 3.34571 43.2753 3.5194C42.5281 3.83918 41.7178 3.98431 40.906 3.94373C38.586 3.94707 36.2793 3.5932 34.067 2.89453C32.1665 2.26837 30.3619 1.38197 28.7047 0.260491C29.18 2.91403 29.8016 5.5658 30.3995 8.22182C34.7434 8.44638 39.2093 8.94252 43.3247 9.25691C44.2201 9.34107 45.328 9.65607 45.4563 10.7823C45.4831 11.1393 45.3971 11.4957 45.2105 11.8011C45.0239 12.1065 44.7461 12.3455 44.4163 12.4846C43.7208 12.7402 42.9757 12.8319 42.2391 12.7523C40.0425 12.6202 37.8746 12.1856 35.7968 11.4609C33.8974 10.7914 32.0912 9.88229 30.4218 8.75571C30.7867 10.7932 31.3454 12.8206 31.8288 14.8369C36.2637 15.9396 40.7801 16.6842 45.3342 17.064C46.277 17.1396 47.4754 17.4141 47.6512 18.5319C47.6882 18.899 47.6054 19.2681 47.4152 19.5842C47.225 19.9004 46.9376 20.1466 46.5959 20.2858C45.8231 20.5385 45.0059 20.6265 44.197 20.5443C41.7611 20.37 39.373 19.7804 37.1359 18.8012C35.2782 17.9766 33.5507 16.8858 32.0077 15.5629C32.5742 17.9066 33.1644 20.2462 33.8019 22.5772C38.1073 23.8238 42.5471 24.5474 47.0255 24.7325C47.9361 24.765 49.1024 24.9964 49.3449 26.0777C49.4116 26.4382 49.3571 26.8106 49.19 27.1369C49.0228 27.4632 48.7524 27.725 48.4209 27.8815C47.6718 28.195 46.863 28.3399 46.0516 28.3058C43.6235 28.2133 41.2349 27.6621 39.0118 26.6813C37.1875 25.8628 35.5097 24.7507 34.0452 23.3894C34.6081 25.4404 35.1711 27.4914 35.7814 29.5339C35.7954 29.686 35.8224 29.8366 35.862 29.984C40.7109 31.2184 45.6205 32.1999 50.5712 32.9247C51.5978 33.0587 52.8648 33.4432 52.9889 34.5458C52.9936 34.9212 52.8744 35.2878 52.6499 35.5888C52.4253 35.8898 52.1079 36.1083 51.7466 36.2108C50.9074 36.43 50.0315 36.4703 49.1758 36.329C46.6256 35.9906 44.1401 35.2736 41.8014 34.2019C39.7112 33.2445 37.7617 32.0059 36.007 30.5204C36.6201 32.5787 37.2584 34.6406 37.9218 36.7062C39.9862 37.5835 42.0896 38.405 44.2191 39.0995C46.6391 39.8956 49.1065 40.5399 51.6069 41.0286C52.5945 41.2185 53.8227 41.6587 53.8994 42.7698C53.8963 43.1471 53.7667 43.5124 53.5314 43.8073C53.296 44.1021 52.9685 44.3095 52.6012 44.3961C51.7404 44.5596 50.855 44.5433 50.0007 44.3483C47.4509 43.8381 45.0075 42.8946 42.7766 41.5586C41.1368 40.5497 39.636 39.3306 38.3125 37.9323C39.1838 40.6127 40.0746 43.2651 40.9932 45.937C43.0025 47.0072 45.0684 47.9677 47.1816 48.8144C49.6331 49.7982 52.1547 50.5972 54.7254 51.2046C55.7452 51.4376 57.0055 51.921 57.0585 53.0363C57.0339 53.4178 56.882 53.7801 56.6272 54.0651C56.3723 54.3502 56.0293 54.5414 55.6529 54.6084C55.2129 54.6846 54.7654 54.7074 54.3201 54.6761C53.869 54.6396 53.4219 54.5642 52.9837 54.4508C50.3402 53.8276 47.836 52.7171 45.5995 51.1763C44.1096 50.1516 42.7582 48.9389 41.5788 47.5683C42.4271 49.9838 43.2992 52.3952 44.1906 54.7785C47.8801 56.9735 51.8964 58.5655 56.0878 59.4944C56.957 59.7055 58.0108 60.1281 58.0638 61.2434C58.0582 61.608 57.9361 61.9614 57.7153 62.2517C57.4945 62.542 57.1867 62.7541 56.8367 62.8569C56.4536 62.9824 56.0549 63.0538 55.6521 63.0691C55.2534 63.0473 54.8578 62.9872 54.4706 62.8895C52.1275 62.3363 49.9302 61.2873 48.0266 59.8133C47.0134 59.0275 46.0966 58.1247 45.2953 57.1237C46.2511 59.5933 47.2027 62.0393 48.1822 64.5047C51.8348 66.6867 55.7933 68.3102 59.9262 69.3214C60.748 69.541 61.7739 69.9442 61.7796 71.068C61.7823 71.4308 61.6662 71.7846 61.4488 72.0752C61.2315 72.3658 60.925 72.5772 60.5761 72.6771C60.2173 72.7998 59.8417 72.8671 59.4626 72.8766C59.0749 72.8494 58.6895 72.796 58.3091 72.7165C56.0639 72.1668 53.9627 71.1424 52.1469 69.7121C50.8596 68.7213 49.7447 67.5247 48.8473 66.1707C49.6878 68.2697 50.5563 70.3881 51.4442 72.4787C55.1548 74.6544 58.5414 77.3403 61.505 80.4578C62.1341 81.1031 62.7321 82.1208 61.959 82.9928C61.7324 83.2632 61.4324 83.4623 61.0952 83.566C60.7581 83.6698 60.3981 83.6739 60.0587 83.5778C59.403 83.3153 58.8131 82.9117 58.3309 82.3957C56.0133 80.121 54.0003 77.5553 52.3424 74.7631C52.905 76.1295 53.4871 77.468 54.0734 78.8301C57.4834 82.7287 60.3366 87.081 62.5516 91.7629C63.0184 92.7307 63.3076 94.0727 62.2011 94.8577C61.8351 95.0987 61.4046 95.223 60.9664 95.2142C60.5283 95.2054 60.1031 95.0638 59.747 94.8083C59.098 94.256 58.5687 93.577 58.1915 92.8129C56.011 88.6221 54.5023 84.1146 53.7208 79.4556C53.4039 78.7788 53.0592 78.0826 52.766 77.4015C53.6212 80.8824 54.0954 84.4461 54.1804 88.0295C54.1952 88.9315 53.9597 90.074 52.8462 90.2734C52.4997 90.3228 52.1464 90.2676 51.8315 90.1148C51.5166 89.9621 51.2545 89.7189 51.0788 89.4163C50.7704 88.78 50.5964 88.087 50.5675 87.3805C50.3479 83.3262 50.7758 79.2627 51.835 75.343C50.3795 72.1315 48.9672 68.8878 47.6454 65.6034C48.0802 67.6982 48.2339 69.8417 48.1022 71.977C47.9342 74.5626 47.4384 77.1163 46.6268 79.5769C46.3142 80.5621 45.5641 81.699 44.5163 81.4465C44.1739 81.3411 43.87 81.1375 43.6423 80.861C43.4145 80.5844 43.273 80.2472 43.2352 79.8909C43.2096 79.1348 43.3143 78.3799 43.5447 77.6592L45.4412 71.1821C46.0579 69.1643 46.7135 67.0907 47.4045 64.6684C46.5767 62.6404 45.7684 60.5845 44.9837 58.5243C45.3817 62.8087 44.9693 67.1297 43.7682 71.2615C43.4987 72.2145 42.8671 73.3302 41.6662 73.1785C41.3173 73.1026 40.9983 72.9263 40.7484 72.6713C40.4985 72.4162 40.3286 72.0936 40.2599 71.7432C40.1815 71.0085 40.2479 70.2656 40.4551 69.5564C41.4594 65.3833 42.7875 61.2948 44.4272 57.3281C43.3296 54.4763 42.2779 51.6081 41.2722 48.7236C41.8518 51.0178 42.0212 53.3963 41.7725 55.7495C41.5417 58.3995 40.8835 60.9946 39.8233 63.4343C39.4074 64.389 38.5262 65.4761 37.4851 65.1246C37.1454 64.9891 36.8548 64.7538 36.6519 64.4495C36.4489 64.1453 36.3432 63.7865 36.3486 63.4208C36.4043 62.6744 36.5785 61.9416 36.8646 61.25C37.697 59.0714 38.3933 57.0883 39.0769 55.0341C39.7605 52.98 40.4356 50.8785 41.129 48.3336L40.2273 45.7563C40.2273 45.7563 40.1849 45.5194 39.9936 45.407C39.4596 43.7909 38.902 42.1792 38.3875 40.5352C38.7753 43.0622 38.7489 45.6354 38.3093 48.1538C37.8302 51.0711 36.8819 53.8917 35.5014 56.5059C34.9561 57.5572 33.9175 58.7213 32.8637 58.2987C32.5343 58.1235 32.2682 57.8493 32.1029 57.5147C31.9377 57.1802 31.8817 56.8021 31.9429 56.434C32.0932 55.6032 32.3607 54.798 32.7372 54.0422C33.8716 51.6384 34.7709 49.4234 35.6574 47.1372C36.544 44.8511 37.2884 42.5904 38.1332 39.7983C37.7874 38.6865 37.4009 37.4842 37.072 36.4672L36.8875 36.2558L37.0059 36.2346C36.6474 35.0517 36.2736 33.9205 35.9065 32.6902C35.9307 34.837 35.6555 36.9766 35.0889 39.0475C34.2707 42.0319 32.9286 44.8473 31.1251 47.3621C30.4055 48.3957 29.0529 49.4448 28.1674 48.8698C27.8676 48.6392 27.6478 48.3203 27.5391 47.9581C27.4303 47.5959 27.4381 47.2086 27.5613 46.8511C27.6881 46.4346 27.8625 46.0341 28.0811 45.6576C28.2734 45.2696 28.4923 44.8954 28.7364 44.5377C30.1304 42.3551 31.3993 40.0951 32.5368 37.7685C33.6296 35.5857 34.5909 33.3395 35.4157 31.042C35.3351 30.5918 35.2503 30.1181 35.0038 29.6976L33.4635 24.3738C33.408 26.8278 32.9686 29.258 32.1614 31.576C31.241 34.1883 29.9341 36.6478 28.2842 38.8725C27.6144 39.7749 26.4818 40.6869 25.521 40.1009C25.2717 39.8485 25.1011 39.5289 25.0302 39.1813C24.9592 38.8337 24.9909 38.4729 25.1214 38.1429C25.3684 37.3868 25.7265 36.6716 26.1841 36.0209C27.5996 33.958 28.78 32.0838 30.0145 30.1021C31.2491 28.1204 32.3584 26.259 33.6435 23.877C33.1229 22.063 32.6261 20.2447 32.1293 18.4264C30.7644 22.6706 28.4697 26.5566 25.4125 29.8015C24.7993 30.4737 23.7901 31.1191 22.8877 30.4493C22.6144 30.2316 22.4082 29.9412 22.2929 29.6114C22.1776 29.2816 22.1579 28.9259 22.236 28.5854C22.4579 27.9319 22.8178 27.3337 23.2912 26.8314C25.9512 23.7074 28.8902 20.8321 32.0717 18.2411C31.4578 15.9058 30.844 13.5705 30.2538 11.231C28.7786 15.4588 26.2256 19.2284 22.8471 22.1672C22.1307 22.809 21.0054 23.3529 20.1935 22.6425C19.9505 22.3841 19.7878 22.0608 19.7253 21.7116C19.6627 21.3625 19.703 21.0026 19.8413 20.676C20.1565 20.0536 20.5768 19.4904 21.0836 19.0109C22.6721 17.5038 24.071 16.0306 25.6072 14.7774L29.9904 10.7158C29.4493 8.51423 28.9041 6.28886 28.3825 4.05931C27.774 5.921 26.8749 7.67476 25.7186 9.25566C24.2719 11.2172 22.5132 12.9282 20.5126 14.3205C19.7081 14.8803 18.51 15.2905 17.7911 14.4167C17.5886 14.1294 17.4708 13.791 17.4512 13.44C17.4316 13.0891 17.5109 12.7396 17.6801 12.4315C18.0532 11.8597 18.5273 11.3605 19.079 10.9583C20.7962 9.6238 22.2697 8.43066 23.8016 7.15376C25.3335 5.87686 26.6303 4.78881 28.2273 3.3291C27.6845 0.981085 27.14 -1.51324 26.6555 -3.94506C25.9999 -1.83037 24.9614 0.145842 23.5917 1.88528C22.1914 3.70243 20.5226 5.29581 18.6427 6.61064C17.8814 7.13823 16.7264 7.51628 16.0118 6.66619C15.8103 6.38262 15.6873 6.0508 15.6553 5.70441C15.6234 5.35802 15.6835 5.00936 15.8297 4.6937C16.1795 4.1354 16.6315 3.64802 17.1618 3.25699L26.6191 -4.01196C26.322 -5.67042 26.0293 -7.3051 25.7323 -8.96356C25.3153 -7.002 24.4367 -5.16811 23.1692 -3.61408C21.586 -1.68327 19.5424 -0.182089 17.2265 0.751223C16.7448 0.972082 16.2149 1.06698 15.6865 1.02703C15.4391 1.00479 15.2022 0.917001 15.0001 0.772665C14.7981 0.628332 14.6381 0.432716 14.5369 0.205973C14.4221 -0.126495 14.3994 -0.483842 14.4712 -0.828165C14.543 -1.17249 14.7065 -1.49101 14.9446 -1.74992C15.1627 -1.99678 15.4245 -2.20119 15.7169 -2.35283C15.9774 -2.53036 16.2522 -2.68591 16.5384 -2.81785C18.2307 -3.64734 19.8383 -4.6395 21.3385 -5.78038C22.8742 -6.91735 24.2811 -8.21891 25.5339 -9.66172C25.1689 -11.6993 24.8083 -13.7131 24.4476 -15.7269C23.05 -12.5407 20.7169 -9.85441 17.7577 -8.02443C17.5968 -7.88869 17.4101 -7.78683 17.2089 -7.72495C17.0077 -7.66307 16.796 -7.64253 16.5866 -7.66438C16.3772 -7.68624 16.1743 -7.75009 15.9902 -7.85219C15.8061 -7.9543 15.6445 -8.09251 15.5151 -8.25856C15.3128 -8.5252 15.1765 -8.83604 15.1175 -9.1655C15.0585 -9.49496 15.0784 -9.83363 15.1756 -10.1539C15.4324 -10.6355 15.804 -11.0464 16.2574 -11.3503C17.6269 -12.3047 18.8714 -13.1387 20.1953 -13.9383C21.5193 -14.7378 22.746 -15.3977 24.2832 -16.2354C23.651 -19.7655 23.2235 -23.3813 22.8172 -26.8786C22.7196 -27.4235 23.6952 -27.5738 23.7649 -27.0483C24.499 -22.9495 25.2288 -18.8745 25.9586 -14.7994C29.2754 -15.397 32.5389 -16.2594 35.7179 -17.3786C36.0827 -17.5691 36.5073 -17.6107 36.9022 -17.4944C37.297 -17.3781 37.6313 -17.1131 37.8347 -16.7552C38.0101 -16.4638 38.1031 -16.1301 38.1037 -15.79C38.1044 -15.4499 38.0126 -15.116 37.8382 -14.824C37.4046 -14.3559 36.8646 -13.9992 36.2639 -13.784C34.4849 -13.1426 32.5919 -12.8785 30.7053 -13.0086C29.089 -13.1156 27.5094 -13.5388 26.0562 -14.2544C26.4806 -11.8852 26.8794 -9.65816 27.291 -7.36001C30.9634 -8.01772 34.6831 -8.68386 38.1525 -9.1096C38.5742 -9.23696 39.0283 -9.20124 39.4249 -9.00961C39.8216 -8.81798 40.1317 -8.48438 40.294 -8.07487C40.39 -7.74106 40.3927 -7.38743 40.3019 -7.05217C40.2111 -6.71691 40.0302 -6.41285 39.7788 -6.17316C39.2321 -5.79916 38.6041 -5.56104 37.947 -5.47839C34.379 -4.90993 30.7231 -5.3567 27.3971 -6.7677C27.7874 -4.58801 28.1736 -2.43204 28.5597 -0.276041C33.138 0.0287986 37.6623 0.441135 41.8368 0.402611Z" fill="#92D660"/>
<path fill-rule="evenodd" clip-rule="evenodd" d="M48.8356 501.174C48.4315 499.165 48.079 496.489 47.7626 494.324L47.1854 490.454C47.1854 490.454 47.3973 490.828 47.7194 491.459C48.0416 492.091 48.4765 492.957 48.932 493.987C49.9205 496.138 50.6906 498.383 51.2307 500.686C51.4007 501.473 51.5224 502.269 51.5952 503.07C52.5343 501.86 53.4501 500.648 54.3538 499.416C54.1904 499.347 54.0571 499.221 53.9784 499.062C53.4652 497.966 53.1232 496.798 52.9644 495.6C52.5457 493.594 52.2021 490.924 51.8825 488.744L51.2996 484.883L51.8393 485.879C52.1615 486.511 52.5995 487.392 53.0519 488.407C54.0426 490.558 54.8128 492.802 55.3506 495.106C55.5216 495.898 55.6443 496.698 55.7182 497.504C56.8686 495.868 57.9778 494.218 59.0628 492.527C58.6087 492.335 58.0111 491.527 56.9286 489.07C55.5797 485.618 54.4643 482.08 53.5901 478.479C55.6618 481.555 57.5234 484.766 59.1621 488.091C59.5578 488.953 59.8934 489.841 60.1666 490.748L60.3938 490.394C60.4071 490.293 60.4425 490.196 60.4975 490.11C60.5525 490.025 60.6257 489.952 60.7119 489.898C61.0528 489.367 61.3758 488.824 61.6811 488.27C62.0049 487.766 62.2786 487.242 62.5758 486.72C62.4355 486.745 62.2906 486.728 62.1598 486.671C62.0289 486.614 61.918 486.519 61.8413 486.399C61.2942 485.423 60.9047 484.367 60.6874 483.271C60.202 481.447 59.7576 479.013 59.3478 477.012L58.6308 473.478L59.1918 474.363C59.5416 474.912 60.0041 475.696 60.5012 476.603C61.561 478.52 62.4155 480.543 63.0505 482.638C63.2717 483.408 63.4344 484.193 63.5371 484.987C64.2549 483.673 64.9461 482.342 65.6195 480.999C65.1863 480.834 64.6775 480.083 63.8483 477.563C62.9042 474.221 62.2054 470.815 61.7577 467.373C63.4495 470.411 64.9214 473.565 66.1623 476.811C66.4231 477.603 66.611 478.249 66.7259 478.747C66.76 478.694 66.7941 478.641 66.8338 478.579C66.8125 478.463 66.8205 478.344 66.8572 478.232C66.8939 478.12 66.9581 478.02 67.0439 477.939C67.078 477.886 67.1177 477.824 67.2075 477.782C67.6122 476.917 68.0225 476.043 68.4094 475.166C67.9713 475.047 67.5287 474.388 66.9063 471.977C66.2913 468.916 65.9218 465.812 65.8013 462.694C67.1904 465.493 68.3504 468.398 69.27 471.382C69.3807 471.815 69.4729 472.199 69.5377 472.528C70.0491 471.282 70.5428 470.024 71.0218 468.769C70.5212 468.748 70.0801 468.165 69.4305 465.248C68.9107 461.949 68.6386 458.616 68.6165 455.278C69.9208 458.355 70.9935 461.525 71.8255 464.76L72.0566 465.984C72.3178 465.264 72.5733 464.553 72.8256 463.827C72.4631 463.532 72.3121 462.673 72.9489 459.882C73.8334 456.522 74.9601 453.231 76.3202 450.035C76.2456 453.511 75.917 456.976 75.337 460.402C75.2462 460.857 75.1427 461.252 75.0529 461.607C77.3089 459.913 79.6945 458.398 82.1881 457.075C80.4437 459.439 78.5005 461.65 76.3797 463.684C74.1409 465.609 73.6008 465.512 73.1981 465.104C72.7234 466.586 72.2131 468.046 71.6382 469.489C71.9792 469.271 72.3841 469.031 72.8909 468.769C74.6319 467.931 76.4775 467.329 78.3792 466.979C79.2854 466.798 80.0759 466.68 80.6421 466.619C81.2084 466.557 81.5587 466.519 81.5587 466.519L80.766 466.973L78.7925 468.094C77.2595 468.997 75.4389 470.154 73.9968 470.915C73.1735 471.437 72.2618 471.804 71.306 472.001C71.196 472.015 71.0841 472.002 70.9799 471.964C70.8758 471.925 70.7825 471.862 70.708 471.779C70.3755 472.591 70.0284 473.405 69.6756 474.229C69.6806 474.36 69.6557 474.49 69.6027 474.61C69.5498 474.73 69.4702 474.836 69.37 474.92C69.0619 475.635 68.736 476.338 68.4102 477.041C68.7551 476.875 69.1583 476.696 69.6456 476.484C71.2153 475.817 73.331 475.1 75.0755 474.395L77.2554 473.519C77.801 473.294 78.1346 473.146 78.1346 473.146C78.1346 473.146 77.8882 473.412 77.4634 473.84C77.0387 474.267 76.4293 474.826 75.6952 475.442C74.161 476.753 72.4588 477.854 70.6332 478.718C69.6989 479.224 68.659 479.506 67.5952 479.543C67.4804 479.536 67.3687 479.503 67.2687 479.446C67.1096 479.694 67.0128 479.981 66.8804 480.246C66.8764 480.347 66.8503 480.445 66.804 480.534C66.7576 480.623 66.6922 480.701 66.6123 480.762C66.1672 481.651 65.7132 482.534 65.2414 483.406L65.4275 483.351C65.9074 483.209 66.5483 483.07 67.3956 482.864C68.2428 482.658 69.2453 482.464 70.2553 482.199C71.2652 481.935 72.2929 481.682 73.2115 481.384C74.1301 481.087 74.929 480.799 75.5038 480.568L76.4355 480.191C76.4355 480.191 76.1745 480.461 75.7117 480.889C74.2973 482.179 72.7071 483.262 70.9879 484.107C70.0317 484.576 69.0277 484.941 67.9931 485.197C67.2736 485.373 66.5395 485.483 65.7997 485.527C65.4046 485.558 65.0069 485.515 64.6273 485.399C64.4968 485.352 64.3785 485.276 64.2808 485.177C63.6418 486.329 62.9996 487.467 62.3485 488.599L61.9054 489.289C62.3359 489.166 62.8951 489.037 63.5942 488.886C65.2756 488.552 67.5262 488.309 69.3707 488.093L72.6568 487.702L71.8292 488.171C71.3053 488.46 70.5725 488.839 69.6891 489.297C67.9016 490.174 66.0195 490.844 64.0791 491.296C63.0745 491.596 62.0155 491.672 60.9769 491.518C60.8647 491.481 60.7637 491.417 60.6838 491.33C59.7027 492.95 58.6802 494.543 57.6163 496.11C58.207 495.952 59.0727 495.795 60.1513 495.6C62.2273 495.257 65.0094 494.968 67.2568 494.71L71.2605 494.218L70.1861 494.778C69.5279 495.08 68.6057 495.501 67.5405 495.93C65.2869 496.87 62.9438 497.581 60.5463 498.053C59.2984 498.355 58.0044 498.423 56.73 498.254C56.5753 498.221 56.4312 498.15 56.3107 498.047C55.3688 499.417 54.3945 500.779 53.3992 502.115C54.3561 501.959 55.3206 501.852 56.2889 501.795C58.392 501.645 61.1767 501.644 63.4455 501.588L67.5898 501.56C67.5898 501.56 67.1834 501.724 66.4978 501.972C65.8123 502.219 64.8709 502.553 63.7509 502.871C61.4109 503.588 59.0032 504.066 56.5649 504.297C55.2964 504.48 54.0038 504.426 52.7535 504.138C52.5532 504.098 52.3752 503.984 52.2559 503.819C49.5818 507.293 46.7138 510.614 43.6654 513.766C43.2982 514.143 42.7576 513.558 43.1013 513.179C45.5278 510.512 47.8799 507.784 50.1312 504.98C50.0209 504.901 49.9267 504.803 49.8536 504.689C49.3455 503.572 49.0027 502.388 48.8356 501.174Z" fill="#92D660"/>
<path fill-rule="evenodd" clip-rule="evenodd" d="M29.3448 513.63C29.4368 511.562 29.631 509.502 29.9267 507.456C29.9762 507.52 30.0426 507.567 30.117 507.589C30.615 507.741 31.1387 507.767 31.6474 507.664C32.156 507.561 32.6358 507.333 33.0493 506.997C33.5305 506.586 34.4483 505.499 34.1685 504.726C33.8887 503.953 32.389 504.327 31.807 504.472C31.2462 504.601 30.7212 504.87 30.2737 505.257C30.5982 503.276 30.9788 501.282 31.3929 499.216C31.4283 499.263 31.4698 499.304 31.516 499.337C31.9153 499.592 32.3591 499.755 32.8194 499.815C33.2798 499.875 33.7467 499.832 34.1908 499.688C34.8288 499.47 36.1606 498.637 36.0935 497.743C36.0263 496.848 34.5378 496.812 33.9334 496.788C33.1721 496.741 32.4153 496.943 31.7622 497.368C32.1651 495.326 32.5792 493.284 32.8814 491.243C32.9182 491.252 32.9566 491.252 32.9933 491.243C33.5044 491.34 34.0299 491.301 34.5236 491.129C35.0174 490.956 35.4642 490.655 35.8249 490.252C36.3061 489.805 37.1567 489.044 36.5076 488.391C36.1519 488.147 35.7502 487.992 35.3319 487.938C34.9135 487.884 34.4892 487.931 34.0901 488.077C33.8287 488.158 33.5798 488.28 33.3514 488.44C33.6648 486.386 33.9222 484.344 34.0677 482.314C34.9083 482.027 35.6439 481.462 36.1702 480.699C36.6966 479.936 36.9869 479.013 37 478.061C36.9934 477.993 36.9703 477.928 36.933 477.873C36.8956 477.818 36.8454 477.774 36.7874 477.747C36.2947 477.559 35.7545 477.579 35.275 477.803C34.7955 478.027 34.4122 478.439 34.202 478.955C34.227 477.092 34.1109 475.229 33.8551 473.386C33.8839 473.398 33.9158 473.398 33.9446 473.386C34.6985 472.985 35.3277 472.355 35.7551 471.574C36.1825 470.793 36.3895 469.894 36.3509 468.988C36.3471 468.911 36.3229 468.837 36.2812 468.775C36.2395 468.713 36.1821 468.665 36.1158 468.637C35.7277 468.508 35.3119 468.513 34.9266 468.652C34.5413 468.791 34.2058 469.056 33.967 469.411C33.7055 469.734 33.4766 470.086 33.2843 470.462C32.8431 468.643 32.2124 466.884 31.4041 465.218C31.9252 464.547 32.2596 463.73 32.3685 462.862C32.4774 461.994 32.3565 461.11 32.0196 460.313C31.9853 460.226 31.9272 460.153 31.8531 460.104C31.7791 460.054 31.6926 460.03 31.6055 460.035C31.1937 460.086 30.8078 460.278 30.5039 460.582C30.1999 460.886 29.9939 461.287 29.9156 461.727C29.8596 461.92 29.8148 462.125 29.7701 462.331C29.5798 462.041 29.3784 461.751 29.1769 461.473C29.5155 460.216 29.5655 458.889 29.3224 457.607C29.1545 456.821 28.539 455.456 27.6324 456.229C27.3597 456.553 27.1547 456.937 27.0311 457.354C26.9075 457.77 26.8683 458.211 26.9161 458.646C26.9469 459.269 27.1078 459.876 27.387 460.422C27.6661 460.968 28.0561 461.439 28.5278 461.799C28.8859 462.295 29.2217 462.79 29.5351 463.297C29.005 463.08 28.4454 462.957 27.8786 462.935C27.3526 462.935 26.1103 462.838 26.0096 463.599C25.8753 464.554 27.1848 465.545 27.8563 465.81C28.3339 465.983 28.8388 466.049 29.3408 466.005C29.8427 465.962 30.3314 465.809 30.7773 465.557C31.5189 467.096 32.1079 468.716 32.5345 470.389C32.1007 470.038 31.6168 469.764 31.1019 469.58C30.5647 469.387 29.7141 469.048 29.5574 469.882C29.5288 470.367 29.606 470.852 29.7829 471.299C29.9598 471.746 30.2314 472.142 30.5759 472.455C31.2883 473.111 32.2037 473.451 33.1388 473.41C33.3847 475.096 33.5119 476.801 33.5194 478.508C33.3024 478.001 32.9921 477.546 32.6072 477.172C32.2224 476.799 31.7712 476.513 31.281 476.334C31.2181 476.323 31.1539 476.331 31.0949 476.357C31.0359 476.382 30.9842 476.424 30.9452 476.479C30.6697 476.908 30.5004 477.407 30.4534 477.927C30.4064 478.447 30.4832 478.972 30.6766 479.451C30.9014 480.021 31.2378 480.533 31.6628 480.95C32.0878 481.367 32.5913 481.68 33.1388 481.867C33.2109 481.897 33.2906 481.897 33.3626 481.867C33.2283 484.042 32.9486 486.229 32.6128 488.427C32.5013 487.848 32.2562 487.309 31.9001 486.859C31.544 486.409 31.0886 486.063 30.5759 485.854C30.4894 485.816 30.3929 485.815 30.3057 485.851C30.2185 485.887 30.1471 485.957 30.1058 486.047C29.9237 486.469 29.8294 486.929 29.8294 487.394C29.8294 487.86 29.9237 488.32 30.1058 488.742C30.6379 489.545 31.4013 490.135 32.277 490.421C31.9413 492.33 31.5719 494.227 31.1579 496.124C30.8077 495.131 30.1132 494.325 29.2217 493.876C29.1484 493.843 29.0668 493.836 28.9898 493.858C28.9128 493.88 28.8447 493.929 28.7964 493.997C28.6106 494.363 28.4959 494.766 28.4593 495.182C28.4228 495.597 28.4651 496.016 28.5837 496.413C28.7499 496.9 29.0137 497.341 29.3562 497.704C29.6987 498.067 30.1113 498.345 30.5647 498.516H30.6766C30.2289 500.763 29.7924 502.986 29.4343 505.185C29.1837 504.582 28.7994 504.055 28.3153 503.65C27.8313 503.246 27.2623 502.976 26.6587 502.865C26.581 502.855 26.5022 502.872 26.4338 502.913C26.3654 502.954 26.3109 503.018 26.2782 503.095C26.182 503.531 26.1742 503.985 26.2553 504.425C26.3365 504.865 26.5046 505.281 26.7483 505.644C27.0223 506.063 27.3756 506.414 27.7845 506.674C28.1935 506.934 28.649 507.098 29.1209 507.154H29.2217C28.9045 509.274 28.699 511.412 28.6061 513.558C28.6061 514.053 29.3 514.186 29.3112 513.678L29.3448 513.63Z" fill="#92D660"/>
<g filter="url(#filter0_d_401_4853)">
<rect y="500" width="375" height="248" fill="#FFF9F0"/>
</g>
</g>
</g>
<defs>
<filter id="filter0_d_401_4853" x="-54" y="370" width="483" height="378" filterUnits="userSpaceOnUse" color-interpolation-filters="sRGB">
<feFlood flood-opacity="0" result="BackgroundImageFix"/>
<feColorMatrix in="SourceAlpha" type="matrix" values="0 0 0 0 0 0 0 0 0 0 0 0 0 0 0 0 0 0 127 0" result="hardAlpha"/>
<feOffset dy="-76"/>
<feGaussianBlur stdDeviation="27"/>
<feComposite in2="hardAlpha" operator="out"/>
<feColorMatrix type="matrix" values="0 0 0 0 0.320833 0 0 0 0 0.219889 0 0 0 0 0.0655035 0 0 0 0.03 0"/>
<feBlend mode="normal" in2="BackgroundImageFix" result="effect1_dropShadow_401_4853"/>
<feBlend mode="normal" in="SourceGraphic" in2="effect1_dropShadow_401_4853" result="shape"/>
</filter>
<clipPath id="clip0_401_4853">
<rect width="375" height="500" fill="white"/>
</clipPath>
<clipPath id="clip1_401_4853">
<rect width="375" height="787" fill="white" transform="translate(0 1)"/>
</clipPath>
</defs>
</svg>
