<svg width="375" height="133" viewBox="0 0 375 133" fill="none" xmlns="http://www.w3.org/2000/svg">
<g clip-path="url(#clip0_416_4855)">
<g clip-path="url(#clip1_416_4855)">
<path fill-rule="evenodd" clip-rule="evenodd" d="M240.077 10.2217C238.969 11.0309 238.174 12.6932 239.115 14.0913C239.43 14.5268 239.875 14.8516 240.385 15.0197C240.895 15.1878 241.446 15.1906 241.958 15.0277C243.017 14.5623 243.962 13.872 244.728 13.0047C247.144 10.508 249.144 7.6389 250.651 4.50706C251.938 1.84042 252.832 -0.998465 253.307 -3.92145C255.695 -0.644182 258.046 2.58259 260.131 6.08056C255.976 10.969 252.042 16.1599 247.924 21.0987C247.087 22.1737 246.319 23.6615 247.411 24.9493C247.768 25.3401 248.234 25.6137 248.749 25.7341C249.264 25.8546 249.803 25.8162 250.295 25.6241C251.32 25.1834 252.232 24.517 252.964 23.6746C255.029 21.1284 256.743 18.3172 258.063 15.3158C259.308 12.6037 260.177 9.73399 260.645 6.78643C262.482 9.3074 264.319 11.8284 265.716 14.5932C262.329 20.4969 258.481 26.1228 254.208 31.4182C253.32 32.5299 252.401 34.1281 253.393 35.4894C253.763 35.8769 254.24 36.1447 254.762 36.2584C255.285 36.3721 255.83 36.3265 256.327 36.1275C257.438 35.6267 258.433 34.9001 259.248 33.994C261.574 31.1836 263.4 27.9946 264.648 24.5658C265.645 21.6704 266.222 18.6472 266.363 15.588C268.494 18.5123 270.185 21.6805 272.063 24.7887C268.985 30.6735 265.221 36.1718 260.848 41.1682C259.791 41.9406 258.982 43.6901 259.923 45.0882C260.253 45.5231 260.715 45.8381 261.24 45.9848C261.765 46.1315 262.323 46.1019 262.83 45.9006C263.939 45.4385 264.923 44.72 265.701 43.804C268.122 41.0992 269.993 37.9482 271.211 34.5269C272.155 31.7184 272.616 28.7697 272.574 25.8067C274.233 28.5084 275.855 31.2637 277.438 34.0726L277.806 34.5768C274.164 41.0964 270.154 47.4034 265.797 53.4673C264.932 54.7167 264.036 56.4525 265.129 57.7403C265.521 58.1401 266.037 58.396 266.592 58.4667C267.148 58.5375 267.711 58.419 268.191 58.1303C269.262 57.4141 270.201 56.5186 270.969 55.4832C273.203 52.3803 274.982 48.9737 276.253 45.3668C277.364 42.1209 278.042 38.7427 278.27 35.3194C279.841 38.1115 281.339 40.8027 282.933 43.7325C281.732 46.8499 280.444 49.9537 279.032 52.9934C277.375 56.4141 275.515 59.7327 273.463 62.9314C272.686 64.1944 271.877 65.9438 273.02 67.1947C273.422 67.5776 273.942 67.8114 274.495 67.8573C275.048 67.9032 275.6 67.7586 276.059 67.4472C277.121 66.6962 278.027 65.7458 278.727 64.6488C280.769 61.305 282.218 57.633 283.011 53.7951C283.686 51.0648 283.975 48.2533 283.87 45.4427C285.878 49.1518 287.836 52.8978 289.756 56.5933C288.803 59.8388 287.712 63.1074 286.461 66.2616C284.998 69.9112 283.267 73.4475 281.283 76.8414C280.492 78.1916 279.669 80.0282 280.862 81.2424C281.289 81.612 281.828 81.826 282.391 81.8493C282.955 81.8727 283.51 81.704 283.965 81.3708C284.501 80.9585 284.981 80.4781 285.393 79.9417L286.587 78.2972C288.601 74.8065 289.97 70.9806 290.628 67.0034C291.063 64.3655 291.183 61.685 290.983 59.0188C292.684 62.4118 294.384 65.8048 296.034 69.2346C294.542 75.3866 292.073 81.2589 288.721 86.6269C288.044 87.8163 287.4 89.3682 288.543 90.6192C288.944 90.9931 289.455 91.228 289.999 91.2892C290.544 91.3503 291.094 91.2345 291.568 90.9588L293.029 89.8921L294.058 88.4452C295.845 85.322 296.977 81.8666 297.385 78.2904C297.574 76.3939 297.529 74.4813 297.249 72.5962C298.922 76.1636 300.595 79.731 302.218 83.3352C300.83 89.5131 298.519 95.446 295.363 100.933C294.7 102.036 294.106 103.551 295.299 104.765C295.701 105.117 296.199 105.341 296.729 105.409C297.259 105.476 297.797 105.383 298.274 105.141L299.684 104.111C300.051 103.671 300.378 103.199 300.663 102.701C302.381 99.6493 303.413 96.2592 303.688 92.7671C303.909 90.3125 303.723 87.8383 303.137 85.4446C304.53 88.5214 305.923 91.5983 307.266 94.7119C305.864 100.96 305.342 107.373 305.715 113.766C305.637 114.477 305.827 115.193 306.249 115.771C306.67 116.349 307.292 116.749 307.993 116.892C308.515 116.922 309.035 116.798 309.489 116.536C309.942 116.273 310.309 115.884 310.543 115.415C310.903 114.442 311.094 113.414 311.107 112.377C311.085 107.628 310.444 102.903 309.2 98.3202C310.096 100.292 310.942 102.3 311.715 104.208C312.37 111.889 314.104 119.438 316.865 126.634C317.431 128.152 318.629 129.903 320.567 129.492C321.174 129.316 321.718 128.972 322.139 128.501C322.56 128.03 322.84 127.45 322.947 126.827C323.045 125.568 322.862 124.303 322.41 123.125C320.152 116.452 316.856 110.177 312.646 104.533C312.273 103.492 311.813 102.437 311.441 101.396C314.309 105.904 317.647 110.095 321.398 113.899C322.17 114.957 323.83 115.753 325.19 114.76C325.589 114.424 325.884 113.982 326.041 113.484C326.197 112.987 326.209 112.455 326.075 111.951C325.645 110.991 325.019 110.133 324.238 109.43C320.119 104.994 315.31 101.254 309.997 98.3557C308.08 93.4993 305.988 88.6156 303.882 83.8191C305.685 86.4541 307.834 88.8338 310.271 90.8943C313.209 93.3578 316.455 95.4276 319.927 97.0516C321.289 97.7562 323.279 98.157 324.171 96.7333C324.42 96.2457 324.517 95.6946 324.451 95.151C324.385 94.6073 324.158 94.0959 323.8 93.6824C323.011 92.8902 322.108 92.2217 321.121 91.6995C317.974 90.1349 315.03 88.4232 312.329 87.1516C309.627 85.88 306.619 84.2923 303.275 82.5628C301.956 79.5868 300.71 76.7116 299.193 73.5707C303.373 78.4511 308.455 82.4773 314.159 85.4282C315.434 86.1191 317.287 86.5431 318.252 85.2202C318.528 84.7623 318.665 84.2335 318.646 83.6988C318.627 83.164 318.451 82.6467 318.142 82.2103C317.434 81.3539 316.556 80.6536 315.564 80.1538C310.058 76.9524 304.318 74.1724 298.393 71.8374C296.403 67.729 294.413 63.6206 292.322 59.5857C294.209 62.5816 296.605 65.2242 299.4 67.3942C302.46 69.8015 305.881 71.709 309.537 73.046C311.013 73.5898 313.08 73.7794 313.811 72.2411C314.003 71.7442 314.043 71.2015 313.925 70.6819C313.808 70.1624 313.539 69.6897 313.152 69.3239C312.298 68.6065 311.333 68.0329 310.294 67.6257C307.071 66.2723 304.195 64.9735 301.334 63.5874C298.472 62.2013 295.436 60.7879 291.982 58.9072C291.174 57.7979 290.755 56.4817 290.098 55.2621C290.01 55.1208 289.912 54.986 289.804 54.8587L286.266 48.0958C288.576 51.1246 291.358 53.762 294.504 55.9071C298.127 58.3651 302.105 60.2533 306.299 61.506C308 62.0403 310.356 62.0964 310.949 60.5813C311.109 60.0318 311.088 59.4457 310.891 58.9087C310.694 58.3716 310.331 57.9116 309.854 57.5958C308.825 56.9169 307.708 56.3813 306.534 56.0039C302.761 54.7431 299.436 53.4632 295.988 52.1193C292.429 50.6662 288.947 49.0327 285.555 47.2251C284.526 45.8134 283.887 44.1945 283.06 42.6357L282.839 42.3332C281.737 40.8206 281.025 39.1009 280.124 37.4412C282.406 39.7118 285.005 41.6384 287.841 43.1608C292.068 45.3466 296.652 46.7601 301.375 47.3346C303.255 47.5842 305.615 47.3283 306.048 45.6987C306.121 45.126 306.007 44.545 305.724 44.042C305.441 43.539 305.004 43.1409 304.477 42.9067C303.914 42.6227 303.318 42.4094 302.702 42.2715C302.071 42.0655 301.422 41.9189 300.763 41.8338C296.997 41.072 293.276 40.1018 289.618 38.9275C286.075 37.9257 282.602 36.6955 279.218 35.2446C278.814 34.69 278.41 34.1353 278.006 33.5807C276.39 31.3623 275.227 28.8128 273.862 26.4104C276.532 28.9198 279.608 30.9571 282.959 32.4354C286.7 34.1751 290.698 35.2987 294.797 35.7629C296.415 35.9716 298.55 35.7252 298.983 34.0956C299.043 33.548 298.937 32.995 298.679 32.5084C298.421 32.0219 298.023 31.6245 297.536 31.3676C296.489 30.8168 295.347 30.4711 294.171 30.3493C290.526 29.6894 287.28 29.0472 283.911 28.341C280.541 27.6348 277.36 26.8687 273.472 25.7686L269.154 18.571C275.219 21.4407 281.851 22.9066 288.56 22.86C289.893 22.8901 291.657 22.4516 291.682 20.5794C291.726 20.0566 291.626 19.532 291.392 19.0623C291.159 18.5927 290.801 18.196 290.359 17.9154C289.408 17.5385 288.407 17.3065 287.388 17.227C281.425 16.9413 275.448 17.1712 269.524 17.9142C267.682 14.8564 265.79 11.8354 263.861 8.76397C269.921 11.5441 276.604 12.6828 283.242 12.0664C284.69 11.9358 286.482 11.3229 286.516 9.67552C286.481 9.15749 286.301 8.65991 285.995 8.24048C285.69 7.82106 285.272 7.49696 284.79 7.3058C283.784 6.9911 282.728 6.87122 281.677 6.95252C278.446 7.07205 275.527 7.19569 272.507 7.3929L263.42 8.15888C261.436 5.43623 259.769 2.40573 257.936 -0.427269C260.568 0.85024 263.392 1.68475 266.294 2.04271C269.906 2.5791 273.582 2.5054 277.17 1.82466C278.595 1.55641 280.303 0.617734 280.062 -0.983315C280.043 -1.50566 279.869 -2.01037 279.561 -2.43263C279.253 -2.85489 278.827 -3.17543 278.336 -3.35304C277.338 -3.56902 276.307 -3.57838 275.306 -3.38061C272.108 -2.89865 269.285 -2.53654 266.339 -2.23849C263.392 -1.94044 260.932 -1.61103 257.687 -1.40431C255.508 -4.39587 253.441 -7.4442 251.487 -10.5493C254.506 -9.12712 257.754 -8.25554 261.079 -7.97556C264.487 -7.63141 267.927 -7.80051 271.285 -8.47716C272.622 -8.75904 274.23 -9.62403 274.04 -11.2619C273.991 -11.7758 273.805 -12.2671 273.502 -12.6842C273.198 -13.1012 272.787 -13.4285 272.313 -13.6316C271.342 -13.8174 270.344 -13.8221 269.371 -13.6456L251.817 -10.9443C250.348 -12.9611 248.842 -15.0283 247.372 -17.0451C249.914 -15.4707 252.796 -14.5292 255.777 -14.2998C259.486 -13.9806 263.214 -14.628 266.599 -16.1789C267.354 -16.4592 268.016 -16.943 268.513 -17.5767C268.749 -17.8577 268.901 -18.2004 268.95 -18.5645C268.999 -18.9286 268.943 -19.2991 268.79 -19.6328C268.545 -20.0933 268.183 -20.4803 267.739 -20.7538C267.296 -21.0274 266.788 -21.1777 266.267 -21.1891C265.791 -21.1829 265.318 -21.1222 264.856 -21.0081C264.386 -20.9039 263.929 -20.7509 263.491 -20.5517C260.845 -19.6249 258.124 -18.93 255.358 -18.4748C253.984 -18.2433 252.573 -18.0624 251.037 -17.9454C249.611 -17.8221 248.177 -17.8077 246.748 -17.9022C244.948 -20.3728 243.074 -22.9442 241.348 -25.3139C246.215 -23.5468 251.496 -23.2639 256.523 -24.5013C256.84 -24.5341 257.147 -24.6322 257.424 -24.7896C257.702 -24.9469 257.943 -25.1601 258.134 -25.4156C258.325 -25.6711 258.461 -25.9634 258.533 -26.2741C258.606 -26.5848 258.613 -26.9071 258.555 -27.2208C258.491 -27.7072 258.306 -28.1698 258.017 -28.5662C257.728 -28.9626 257.345 -29.2801 256.902 -29.4896C256.123 -29.7097 255.304 -29.7462 254.509 -29.5962C252.072 -29.1292 249.895 -28.6212 247.857 -28.1364C245.818 -27.6516 243.601 -26.8819 241.109 -26.0661C237.949 -30.4021 234.827 -34.6878 231.164 -38.6561C230.687 -39.3115 229.565 -38.4151 230.006 -37.8101C233.655 -32.8017 237.328 -27.7598 241.026 -22.6842C236.968 -19.7004 232.662 -17.0719 228.154 -14.8278C227.584 -14.6133 227.114 -14.1923 226.839 -13.6481C226.564 -13.1038 226.503 -12.476 226.668 -11.8889C226.798 -11.4028 227.058 -10.9616 227.42 -10.6134C227.783 -10.2652 228.234 -10.0233 228.724 -9.91431C229.691 -9.86249 230.653 -10.0833 231.501 -10.5517C234.018 -11.7757 236.24 -13.5306 238.015 -15.6959C239.442 -17.5293 240.549 -19.5913 241.289 -21.7944C243.309 -19.0214 245.366 -16.1979 247.423 -13.3744C242.941 -10.1007 238.358 -6.75338 234.178 -3.70037C233.221 -3.00149 232.319 -1.80247 233.16 -0.330795C233.402 0.125495 233.773 0.500086 234.227 0.745953C234.68 0.991822 235.196 1.09799 235.71 1.05115C236.657 0.857612 237.546 0.446271 238.307 -0.15035C242.599 -3.41394 245.886 -7.82236 247.79 -12.8702C249.737 -10.1979 251.464 -7.82819 253.594 -4.90386C248.831 0.737962 244.425 5.81024 240.077 10.2217Z" fill="#5EAD41"/>
<path fill-rule="evenodd" clip-rule="evenodd" d="M219.162 -5.31852C219.724 -5.33063 220.398 -4.98675 220.439 -4.29654C220.444 -4.07605 220.38 -3.85949 220.256 -3.67761C220.131 -3.49573 219.953 -3.35777 219.745 -3.28336C219.284 -3.17143 218.804 -3.1611 218.339 -3.25309C216.929 -3.46531 215.563 -3.90258 214.291 -4.54821C213.208 -5.09715 212.209 -5.79986 211.327 -6.63452C211.365 -4.97157 211.402 -3.33423 211.593 -1.67458C214.165 -1.11559 216.74 -0.40308 219.312 0.181491C219.853 0.323439 220.474 0.61723 220.438 1.3091C220.419 1.52525 220.335 1.73054 220.198 1.89798C220.06 2.06542 219.874 2.18715 219.666 2.24718C219.222 2.35871 218.759 2.36868 218.31 2.27634C217.003 1.96036 215.744 1.47092 214.567 0.82108C213.486 0.246902 212.488 -0.472246 211.601 -1.31641C211.63 -0.0372121 211.659 1.242 211.892 2.49121C214.466 3.57249 217.122 4.44827 219.833 5.11036C220.4 5.25176 221.097 5.5439 221.113 6.23467C221.089 6.45299 221 6.65908 220.858 6.82636C220.716 6.99364 220.527 7.11446 220.315 7.1733C219.828 7.28665 219.323 7.29752 218.832 7.20521C217.374 6.86811 215.984 6.28332 214.724 5.47627C213.678 4.78066 212.736 3.93895 211.929 2.97676C211.962 4.46063 212.2 5.91449 212.362 7.39561C214.831 8.54754 217.427 9.40245 220.097 9.94242C220.634 9.93086 221.333 10.2998 221.374 10.99C221.375 11.2137 221.303 11.4316 221.168 11.6101C221.034 11.7887 220.844 11.9181 220.629 11.9787C220.152 12.1041 219.653 12.1149 219.171 12.01C217.708 11.7312 216.314 11.17 215.065 10.3579C214.057 9.6775 213.173 8.83099 212.449 7.85449C212.581 9.14854 212.738 10.4506 212.921 11.7606L212.927 12.0164C215.738 13.2348 218.616 14.2924 221.546 15.1841C222.139 15.3761 222.863 15.7189 222.828 16.4107C222.8 16.6388 222.695 16.8506 222.532 17.012C222.368 17.1734 222.155 17.275 221.927 17.3004C221.399 17.3336 220.87 17.2757 220.362 17.1293C218.861 16.674 217.433 16.0066 216.12 15.1472C214.95 14.3657 213.888 13.4332 212.961 12.374C213.144 13.6755 213.326 14.9258 213.536 16.2779C214.704 16.9951 215.896 17.6861 217.114 18.3254C218.506 19.028 219.938 19.6468 221.404 20.1785C221.972 20.3966 222.671 20.7655 222.61 21.4579C222.574 21.6828 222.463 21.8886 222.294 22.0412C222.125 22.1938 221.909 22.2841 221.682 22.297C221.149 22.3166 220.617 22.2325 220.115 22.0491C218.617 21.4675 217.23 20.6314 216.016 19.5777C215.116 18.8557 214.322 18.0112 213.656 17.0688C213.925 18.778 214.22 20.4866 214.514 22.1696C215.633 22.9903 216.802 23.7841 217.996 24.5008C219.382 25.3262 220.826 26.048 222.318 26.6603C222.913 26.9035 223.638 27.2974 223.551 27.9904C223.504 28.217 223.382 28.421 223.204 28.569C223.026 28.7169 222.803 28.8001 222.572 28.8049C222.294 28.8039 222.018 28.7669 221.75 28.6946L220.952 28.4558C219.426 27.8195 218.027 26.9131 216.822 25.7803C216.023 25.0288 215.317 24.1847 214.718 23.2659C215.008 24.7954 215.299 26.325 215.615 27.8539C217.634 29.488 219.901 30.7874 222.331 31.7025C222.847 31.9218 223.444 32.2673 223.383 32.9597C223.345 33.1815 223.237 33.3852 223.075 33.5408C222.912 33.6964 222.704 33.7956 222.481 33.8238L221.739 33.8397L221.043 33.6243C219.683 33.0512 218.454 32.2067 217.43 31.1424C216.896 30.5714 216.435 29.9365 216.056 29.2523C216.399 30.8319 216.742 32.4115 217.111 33.9905C219.102 35.659 221.332 37.0175 223.728 38.0203C224.218 38.2146 224.789 38.5606 224.703 39.2536C224.659 39.4686 224.553 39.6657 224.397 39.8195C224.241 39.9734 224.042 40.077 223.827 40.1171L223.11 40.1325C222.881 40.0802 222.657 40.0079 222.44 39.9166C221.12 39.3494 219.939 38.5013 218.98 37.4314C218.297 36.6863 217.741 35.8333 217.336 34.9071C217.648 36.257 217.961 37.6069 218.298 38.9563C220.311 40.644 222.078 42.6048 223.549 44.7816C223.751 44.9942 223.867 45.2747 223.874 45.5682C223.881 45.8616 223.777 46.1468 223.585 46.3679C223.422 46.5079 223.221 46.5971 223.008 46.6244C222.795 46.6517 222.579 46.616 222.385 46.5216C222.026 46.2938 221.708 46.0064 221.445 45.6716C220.27 44.1179 219.302 42.4178 218.566 40.6142C218.765 41.4802 218.989 42.3457 219.213 43.16C220.912 45.827 222.226 48.7199 223.118 51.7531C223.312 52.3889 223.357 53.2582 222.623 53.6067C222.381 53.7003 222.118 53.724 221.864 53.6752C221.609 53.6263 221.374 53.5069 221.184 53.3305C220.838 52.9447 220.583 52.4867 220.437 51.99C219.511 49.2523 219.023 46.3863 218.99 43.4975C218.852 43.0654 218.739 42.607 218.602 42.1749C218.789 44.3589 218.745 46.5563 218.469 48.7304C218.481 49.2676 218.138 49.9405 217.448 49.9554C217.234 49.9453 217.027 49.8745 216.852 49.7513C216.677 49.6282 216.541 49.4577 216.459 49.26C216.361 48.8401 216.351 48.4044 216.43 47.9808C216.669 45.5088 217.305 43.0922 218.315 40.8244C217.731 38.7637 217.197 36.6507 216.689 34.5627C216.757 35.8706 216.649 37.1816 216.368 38.4602C216.023 39.9949 215.481 41.478 214.753 42.872C214.485 43.4409 213.936 44.067 213.291 43.8249C213.088 43.728 212.919 43.5727 212.805 43.379C212.691 43.1853 212.638 42.9621 212.652 42.738C212.712 42.2834 212.84 41.8406 213.032 41.4244C213.668 40.1309 214.201 38.8396 214.765 37.7524C215.329 36.6653 215.914 35.3985 216.574 34.0021C216.263 32.7033 215.953 31.4558 215.665 30.0542C215.518 32.686 214.864 35.264 213.739 37.6465C213.495 38.1893 212.997 38.7887 212.353 38.5978C212.149 38.5174 211.973 38.3792 211.846 38.2C211.719 38.0208 211.647 37.8086 211.639 37.5893C211.657 37.1337 211.769 36.6868 211.968 36.2768C212.966 33.8621 214.144 31.5265 215.494 29.2899C215.12 27.455 214.746 25.6202 214.423 23.7842C214.553 25.2306 214.431 26.6886 214.06 28.0922C213.662 29.6389 213.021 31.1127 212.163 32.4588C211.817 33.0038 211.19 33.5803 210.569 33.2609C210.382 33.1467 210.234 32.9796 210.143 32.781C210.052 32.5824 210.022 32.3613 210.057 32.1457C210.157 31.6991 210.329 31.2718 210.566 30.8806C211.28 29.6366 211.894 28.4971 212.481 27.3327C213.069 26.1682 213.707 24.9514 214.364 23.4783C214.352 22.9154 214.16 22.382 214.071 21.8208C214.064 21.7528 214.063 21.6844 214.066 21.6162L213.536 18.5304C213.537 20.093 213.287 21.6454 212.795 23.1281C212.226 24.8317 211.4 26.4377 210.344 27.8905C209.923 28.4883 209.169 29.0933 208.598 28.7472C208.409 28.6077 208.27 28.4116 208.201 28.1875C208.131 27.9633 208.135 27.7229 208.212 27.5013C208.378 27.0236 208.609 26.5708 208.898 26.1555C209.814 24.8048 210.579 23.5597 211.368 22.2629C212.167 20.9031 212.895 19.5034 213.551 18.0693C213.534 17.353 213.34 16.6661 213.221 15.9519L213.218 15.7984C213.2 15.0309 213.004 14.2928 212.885 13.5275C212.706 14.836 212.339 16.1113 211.793 17.3136C210.96 19.079 209.817 20.6812 208.421 22.0448C207.87 22.5941 207.037 23.0984 206.49 22.675C206.324 22.5065 206.216 22.2888 206.183 22.0543C206.15 21.8199 206.193 21.5811 206.307 21.3735C206.42 21.1407 206.561 20.9228 206.727 20.7246C206.882 20.5002 207.057 20.2907 207.25 20.099C208.288 18.9128 209.26 17.67 210.16 16.3761C211.065 15.1675 211.891 13.9014 212.633 12.5858C212.627 12.3044 212.62 12.023 212.614 11.7416C212.588 10.6159 212.333 9.49516 212.179 8.37221C211.934 9.85505 211.438 11.2851 210.714 12.6015C209.928 14.1003 208.904 15.4621 207.684 16.6342C207.208 17.1052 206.451 17.5566 205.904 17.1332C205.748 16.9696 205.645 16.7629 205.608 16.54C205.57 16.3172 205.601 16.0884 205.696 15.8835C205.9 15.4432 206.186 15.0461 206.54 14.7134C207.563 13.5908 208.461 12.5732 209.384 11.5039C210.307 10.4346 211.153 9.39256 212.147 8.06577L211.762 4.6441C210.499 7.08992 208.702 9.21944 206.504 10.8748C206.076 11.2167 205.392 11.513 204.918 10.9089C204.773 10.7493 204.676 10.5533 204.635 10.3421C204.594 10.1309 204.611 9.91253 204.686 9.71083C204.902 9.35132 205.171 9.02632 205.483 8.74663C207.356 7.16853 209.361 5.75514 211.478 4.52222C211.317 3.06669 211.181 1.61065 211.045 0.128981C209.762 2.54444 207.867 4.57992 205.549 6.03199C205.045 6.35 204.308 6.59622 203.887 6.06776C203.769 5.89027 203.704 5.6831 203.699 5.47028C203.694 5.25745 203.75 5.04768 203.859 4.86531C204.109 4.51231 204.423 4.21019 204.786 3.97511C205.869 3.20951 206.852 2.52288 207.885 1.83513L211.038 -0.178053C211.007 -1.55958 210.796 -2.96282 210.688 -4.3427C210.148 -3.27092 209.435 -2.29566 208.578 -1.45611C207.534 -0.381861 206.318 0.509522 204.979 1.18097C204.447 1.44836 203.657 1.56773 203.336 0.9859C203.212 0.810893 203.144 0.602896 203.139 0.388632C203.134 0.174368 203.193 -0.0363832 203.309 -0.216547C203.58 -0.535315 203.914 -0.79509 204.29 -0.979924C205.452 -1.61925 206.463 -2.2041 207.498 -2.84067C208.532 -3.47725 209.417 -3.98262 210.526 -4.72318C210.491 -6.24116 210.406 -7.74952 210.269 -9.24824C209.64 -8.0329 208.798 -6.93996 207.784 -6.0208C206.758 -5.06 205.595 -4.25846 204.332 -3.64287C203.825 -3.40161 203.086 -3.2833 202.74 -3.86457C202.628 -4.04416 202.566 -4.25063 202.561 -4.46224C202.557 -4.67385 202.609 -4.88278 202.713 -5.06702C202.983 -5.36953 203.307 -5.61946 203.669 -5.80428L210.064 -9.29498C210.04 -10.3183 210.017 -11.3673 209.993 -12.3906C209.557 -11.2444 208.852 -10.2198 207.937 -9.4028C206.808 -8.37513 205.431 -7.65771 203.941 -7.32032C203.625 -7.22384 203.289 -7.2166 202.969 -7.29941C202.822 -7.33218 202.687 -7.40617 202.581 -7.51266C202.474 -7.61916 202.4 -7.75376 202.367 -7.90078C202.332 -8.11176 202.354 -8.32819 202.43 -8.5278C202.507 -8.7274 202.635 -8.90297 202.802 -9.03638C202.959 -9.15284 203.128 -9.25096 203.307 -9.32881C203.486 -9.4118 203.673 -9.47586 203.866 -9.51999C204.959 -9.87662 206.019 -10.3276 207.034 -10.868C207.54 -11.1348 208.045 -11.4273 208.574 -11.7714C209.07 -12.0865 209.541 -12.4389 209.984 -12.8256C209.955 -14.0792 209.926 -15.384 209.898 -16.5864C208.752 -14.7984 207.101 -13.3911 205.153 -12.5425C205.042 -12.4742 204.917 -12.4298 204.788 -12.4121C204.658 -12.3943 204.527 -12.4037 204.401 -12.4394C204.275 -12.4752 204.158 -12.5366 204.057 -12.6199C203.956 -12.7032 203.873 -12.8064 203.814 -12.9232C203.714 -13.0977 203.659 -13.2946 203.654 -13.4957C203.65 -13.6968 203.696 -13.8958 203.788 -14.0745C203.987 -14.3401 204.245 -14.5559 204.541 -14.705C205.452 -15.1597 206.288 -15.5361 207.074 -15.8857C207.859 -16.2354 208.773 -16.5366 209.789 -16.8912C209.739 -19.0914 209.69 -21.2661 209.896 -23.4718C209.888 -23.8044 210.477 -23.7915 210.484 -23.4844C210.541 -20.9431 210.6 -18.3847 210.658 -15.8093C212.724 -15.847 214.782 -16.0626 216.811 -16.4536C217.05 -16.5257 217.308 -16.5053 217.533 -16.3963C217.758 -16.2874 217.934 -16.0979 218.027 -15.8654C218.106 -15.6748 218.131 -15.4662 218.099 -15.2624C218.068 -15.0586 217.981 -14.8674 217.848 -14.7097C217.546 -14.4521 217.177 -14.2845 216.784 -14.2261C215.659 -13.9984 214.498 -14.0171 213.38 -14.2808C212.458 -14.5232 211.584 -14.9198 210.794 -15.4539C210.826 -14.0467 210.858 -12.614 210.891 -11.1813C213.167 -11.2303 215.495 -11.2804 217.618 -11.3261C218.104 -11.3365 218.696 -11.1701 218.789 -10.4809C218.823 -10.272 218.796 -10.0575 218.709 -9.86436C218.622 -9.67123 218.481 -9.50809 218.301 -9.39542C217.945 -9.2227 217.552 -9.1354 217.156 -9.14041C214.944 -9.13552 212.775 -9.75419 210.897 -10.9255C210.928 -9.56954 210.955 -8.36709 210.988 -6.88322C213.946 -6.23015 216.646 -5.67394 219.162 -5.31852Z" fill="#5EAD41"/>
<path fill-rule="evenodd" clip-rule="evenodd" d="M170.477 11.0011C170.021 10.998 169.57 11.0864 169.148 11.2611C168.726 11.4358 168.343 11.6934 168.02 12.0191C167.697 12.3448 167.44 12.7321 167.265 13.1588C167.09 13.5855 167 14.043 167 14.5052C167 15.4345 167.364 16.3257 168.011 16.9827C168.659 17.6398 169.537 18.0089 170.453 18.0089C170.914 18.0183 171.371 17.9347 171.8 17.7632C172.228 17.5916 172.619 17.3353 172.949 17.0093C173.279 16.6833 173.542 16.294 173.722 15.8641C173.903 15.4341 173.997 14.9721 174 14.5048C173.997 14.0396 173.903 13.5795 173.724 13.1512C173.545 12.7228 173.285 12.3346 172.957 12.009C172.63 11.6833 172.242 11.4266 171.816 11.2536C171.391 11.0807 170.935 10.9949 170.477 11.0011Z" fill="#A7CD7A"/>
<path fill-rule="evenodd" clip-rule="evenodd" d="M121.976 28.0001C121.586 27.9975 121.2 28.0731 120.839 28.2227C120.478 28.3722 120.15 28.5927 119.873 28.8715C119.596 29.1503 119.377 29.4819 119.227 29.8471C119.077 30.2124 119 30.6041 119 30.9997C119 31.7951 119.311 32.558 119.866 33.1205C120.42 33.683 121.172 33.9989 121.956 33.9989C122.35 34.0069 122.742 33.9354 123.109 33.7886C123.475 33.6417 123.81 33.4223 124.092 33.1433C124.375 32.8642 124.6 32.531 124.754 32.1629C124.909 31.7949 124.99 31.3994 124.992 30.9994C124.99 30.6011 124.909 30.2073 124.756 29.8406C124.603 29.4739 124.38 29.1416 124.099 28.8629C123.819 28.5841 123.487 28.3644 123.123 28.2163C122.758 28.0682 122.369 27.9948 121.976 28.0001Z" fill="#A7CD7A"/>
<path fill-rule="evenodd" clip-rule="evenodd" d="M168.987 45.0001C168.726 44.9983 168.468 45.0488 168.227 45.1486C167.986 45.2485 167.767 45.3957 167.583 45.5818C167.398 45.7679 167.251 45.9892 167.151 46.2331C167.051 46.4769 167 46.7384 167 47.0024C167 47.5335 167.208 48.0427 167.578 48.4182C167.948 48.7937 168.45 49.0046 168.973 49.0046C169.236 49.01 169.498 48.9622 169.743 48.8642C169.988 48.7661 170.211 48.6197 170.399 48.4334C170.588 48.2471 170.738 48.0247 170.841 47.779C170.944 47.5333 170.998 47.2693 171 47.0022C170.998 46.7364 170.945 46.4735 170.843 46.2287C170.74 45.9839 170.591 45.7621 170.404 45.576C170.217 45.3899 169.995 45.2432 169.752 45.1444C169.509 45.0455 169.249 44.9965 168.987 45.0001Z" fill="#A7CD7A"/>
</g>
</g>
<defs>
<clipPath id="clip0_416_4855">
<rect width="375" height="133" fill="white"/>
</clipPath>
<clipPath id="clip1_416_4855">
<rect width="375" height="2487" fill="white"/>
</clipPath>
</defs>
</svg>
