<svg viewBox="0 0 1440 692" fill="none" xmlns="http://www.w3.org/2000/svg">
<g clip-path="url(#clip0_403_4853)">
<path fill-rule="evenodd" clip-rule="evenodd" d="M783.489 343.466C776.518 340.214 767.715 335.285 760.418 331.378L747.457 324.477C747.457 324.477 749.056 324.68 751.673 325.105C754.289 325.529 757.922 326.174 762.01 327.093C770.702 328.927 779.19 331.626 787.344 335.151C790.103 336.385 792.778 337.8 795.349 339.387C793.782 333.858 792.178 328.347 790.464 322.891C789.883 323.212 789.213 323.338 788.555 323.249C784.098 322.336 779.806 320.751 775.825 318.548C768.872 315.332 760.051 310.367 752.754 306.46L739.812 299.594L744.009 300.186C746.625 300.611 750.276 301.292 754.346 302.174C763.042 303.994 771.531 306.694 779.681 310.233C782.445 311.499 785.135 312.919 787.74 314.487C785.376 307.357 782.813 300.28 780.14 293.258C778.502 294.072 774.794 294.19 764.93 291.967C751.522 288.317 738.374 283.768 725.578 278.35C739.471 278.981 753.306 280.551 766.988 283.048C770.469 283.76 773.893 284.728 777.232 285.945L776.508 284.489C776.238 284.222 776.027 283.901 775.89 283.546C775.753 283.192 775.693 282.813 775.713 282.433C774.664 280.322 773.87 278.085 772.912 275.883C771.954 273.682 771.141 271.771 770.219 269.734C769.964 270.198 769.572 270.574 769.097 270.81C768.622 271.046 768.087 271.131 767.562 271.054C763.395 270.546 759.339 269.357 755.557 267.535C749.002 264.938 740.651 260.829 733.698 257.613L721.425 251.913C721.425 251.913 722.897 251.953 725.351 252.14C727.804 252.328 731.202 252.682 734.981 253.254C743.131 254.3 751.141 256.239 758.867 259.037C761.682 260.082 764.408 261.353 767.019 262.837C764.505 257.779 762.173 252.629 759.477 247.661C758.057 248.639 754.622 248.485 745.178 245.373C732.987 240.746 721.15 235.238 709.758 228.893C722.679 230.561 735.46 233.173 747.998 236.71C751.013 237.662 753.446 238.541 755.153 239.326L754.809 238.635C754.413 238.433 754.074 238.136 753.821 237.771C753.568 237.406 753.41 236.983 753.36 236.541C753.3 236.273 753.27 235.998 753.272 235.723C751.668 232.496 749.913 229.329 748.006 226.223C746.676 227.292 743.896 227.085 735.035 223.592C724.521 218.642 714.421 212.856 704.833 206.289C716.363 208.352 727.709 211.334 738.763 215.205C740.306 215.844 741.686 216.429 742.812 216.959C740.205 212.627 737.526 208.331 734.773 204.072C733.588 205.523 731.043 205.698 720.622 200.984C709.502 195.171 698.832 188.535 688.7 181.132C700.901 184.066 712.861 187.922 724.478 192.669C726.057 193.382 727.455 194.094 728.653 194.678L723.872 187.524C722.181 187.956 719.385 186.441 712.262 178.317C704.064 168.148 696.624 157.39 690.003 146.13C700.362 154.188 710.12 162.989 719.201 172.464C720.361 173.793 721.358 174.977 722.228 175.997C722.118 165.405 722.837 154.821 724.377 144.341C727.629 154.912 729.974 165.741 731.387 176.71C732.323 187.726 730.72 189.158 728.648 189.462C732.035 194.178 735.313 199.038 738.481 203.953C738.592 202.144 738.803 200.343 739.113 198.557C740.445 191.416 742.723 184.484 745.888 177.945C747.349 174.858 748.792 172.19 749.814 170.321C750.836 168.451 751.602 167.344 751.602 167.344C751.602 167.344 751.417 168.616 751.212 170.76C751.007 172.904 750.655 175.848 750.301 179.155C749.631 185.842 749.066 193.928 748.124 199.978C747.857 203.599 746.924 207.14 745.372 210.422C745.167 210.79 744.877 211.102 744.525 211.332C744.173 211.562 743.77 211.704 743.352 211.744C745.071 214.566 746.809 217.423 748.474 220.317C748.858 220.624 749.17 221.011 749.389 221.451C749.608 221.891 749.728 222.374 749.74 222.865C751.043 225.485 752.6 227.979 753.993 230.509C754.251 229.11 754.618 227.475 755.023 225.458C756.474 219.246 759.02 211.128 760.818 204.426C761.735 201.065 762.469 198.068 763.02 195.889L763.864 192.383C763.864 192.383 764.115 193.71 764.455 195.947C764.795 198.183 765.133 201.328 765.361 204.891C765.932 212.454 765.467 220.06 763.979 227.498C763.442 231.503 761.99 235.33 759.735 238.683C759.438 238.995 759.094 239.258 758.715 239.462C759.203 240.445 759.692 241.428 760.198 242.447C760.488 242.688 760.725 242.988 760.893 243.326C761.061 243.665 761.157 244.034 761.175 244.412C762.821 247.724 764.485 251.072 766.149 254.42L766.368 253.766C767.027 251.987 768.032 249.717 769.312 246.722C770.591 243.726 772.181 240.258 773.662 236.663C775.143 233.068 776.606 229.346 777.759 225.913C778.913 222.481 779.829 219.393 780.398 217.159L781.352 213.508L781.852 217.254C782.188 220.38 782.326 223.525 782.265 226.669C782.218 230.747 781.825 234.814 781.09 238.826C780.387 242.763 779.256 246.612 777.718 250.304C776.664 252.878 775.367 255.345 773.847 257.674C773.071 258.918 772.077 260.011 770.913 260.902C770.517 261.243 770.041 261.479 769.53 261.589C771.737 266.03 773.598 270.596 775.568 275.108C776.02 276.018 776.472 276.928 776.942 277.874C777.51 276.276 778.35 274.315 779.574 272.028C782.242 266.164 786.64 258.85 789.999 252.824L796.15 242.097L795.741 245.659C795.427 247.857 794.965 250.946 794.284 254.416C792.939 261.754 790.776 268.918 787.834 275.774C786.486 279.391 784.37 282.672 781.631 285.392C781.307 285.668 780.919 285.861 780.503 285.953C783.195 292.557 785.76 299.179 788.197 305.909C789.038 303.767 790.281 300.971 792.308 297.104C795.87 290.025 801.217 281.059 805.415 273.618L812.845 260.44C812.845 260.44 812.568 262.075 812.034 264.746C811.501 267.416 810.692 271.177 809.628 275.336C807.47 284.252 804.404 292.923 800.477 301.214C798.675 305.62 796.057 309.647 792.76 313.081C792.309 313.463 791.772 313.73 791.195 313.859C793.234 319.789 795.165 325.774 796.967 331.776C798.62 328.532 800.448 325.382 802.443 322.338C806.712 315.678 812.858 307.223 817.728 300.219L826.391 287.79C826.391 287.79 825.969 289.407 825.182 292.022C824.394 294.638 823.258 298.288 821.812 302.319C818.795 310.981 814.908 319.314 810.21 327.191C807.939 331.44 804.898 335.229 801.241 338.366C800.635 338.835 799.878 339.066 799.113 339.015C803.668 354.854 807.301 370.945 809.991 387.205C810.314 389.133 807.405 389.489 807.01 387.598C804.334 374.269 801.331 361.103 797.873 348.026C797.404 348.18 796.91 348.241 796.419 348.205C791.9 347.267 787.544 345.67 783.489 343.466V343.466Z" fill="#5EAD41"/>
<path fill-rule="evenodd" clip-rule="evenodd" d="M894.664 288.885C893.12 288.398 891.21 287.463 891.332 285.431C891.429 284.787 891.717 284.187 892.159 283.709C892.601 283.23 893.177 282.896 893.811 282.748C895.179 282.596 896.564 282.734 897.875 283.155C901.89 284.35 905.69 286.174 909.133 288.56C912.074 290.638 914.714 293.114 916.976 295.916C917.423 291.039 917.83 286.162 918.236 281.285C910.799 278.603 903.362 275.433 896.412 272.71C894.908 272.101 893.161 270.963 893.526 268.971C893.681 268.345 894.018 267.778 894.496 267.344C894.974 266.909 895.57 266.627 896.209 266.533C897.597 266.481 898.98 266.716 900.273 267.224C903.989 268.662 907.49 270.604 910.677 272.995C913.553 275.14 916.147 277.639 918.399 280.432C918.683 276.693 918.927 272.954 919.13 269.175C912.053 264.953 904.646 261.31 896.981 258.283C895.396 257.673 893.486 256.535 893.77 254.544C893.892 253.89 894.223 253.294 894.715 252.847C895.207 252.399 895.831 252.125 896.493 252.065C897.967 252.018 899.435 252.281 900.801 252.837C904.91 254.43 908.717 256.711 912.059 259.583C914.825 261.931 917.235 264.669 919.212 267.712C919.456 263.404 919.659 259.055 919.781 254.666C913.003 250.254 905.715 246.679 898.078 244.018C896.534 243.49 894.624 242.474 894.786 240.482C894.867 239.823 895.161 239.208 895.623 238.732C896.085 238.255 896.69 237.942 897.347 237.841C898.807 237.724 900.275 237.918 901.655 238.41C905.804 239.849 909.639 242.07 912.953 244.953C915.679 247.261 918 250.008 919.821 253.081C919.821 249.261 919.821 245.4 920.065 241.539V240.685C912.334 236.031 904.372 231.772 896.209 227.924C894.502 227.152 892.51 225.852 892.917 223.86C893.098 223.206 893.492 222.631 894.036 222.226C894.581 221.821 895.246 221.61 895.924 221.625C897.476 221.7 898.996 222.087 900.395 222.763C904.616 224.704 908.532 227.25 912.018 230.322C915.151 233.058 917.887 236.218 920.146 239.71C920.146 235.646 920.146 231.907 920.146 228.046C917.017 225.445 913.847 222.926 910.514 220.609C906.75 217.961 902.828 215.545 898.769 213.375C897.184 212.522 895.274 211.14 895.721 209.311C895.943 208.67 896.369 208.119 896.935 207.745C897.5 207.37 898.174 207.192 898.85 207.238C900.408 207.408 901.915 207.892 903.28 208.661C907.422 210.875 911.148 213.79 914.294 217.276C916.602 219.88 918.556 222.777 920.106 225.892C920.106 220.812 919.903 215.732 919.699 210.652C916.733 207.766 913.684 204.962 910.514 202.524C906.81 199.503 902.869 196.785 898.728 194.396C897.103 193.42 895.193 191.957 895.68 189.966C895.922 189.321 896.375 188.778 896.966 188.424C897.556 188.069 898.249 187.925 898.932 188.015C899.731 188.099 900.512 188.304 901.248 188.625C902.019 188.92 902.766 189.274 903.483 189.681C907.697 192.163 911.428 195.385 914.497 199.191C916.536 201.757 918.243 204.57 919.577 207.563C919.334 202.93 919.09 198.338 918.805 193.745C913.716 188.045 907.764 183.176 901.167 179.318C899.785 178.505 898.159 177.205 898.688 175.254C898.883 174.626 899.279 174.079 899.815 173.697C900.351 173.315 900.997 173.12 901.655 173.141C902.377 173.184 903.09 173.335 903.768 173.588C904.461 173.834 905.128 174.147 905.759 174.522C909.488 176.729 912.714 179.692 915.229 183.22C916.578 185.09 917.684 187.125 918.521 189.275C918.196 184.52 917.83 179.806 917.423 175.051C912.248 169.325 906.232 164.419 899.582 160.501C898.241 159.729 896.696 158.429 897.265 156.437C897.463 155.815 897.853 155.272 898.378 154.885C898.904 154.498 899.539 154.287 900.192 154.283C900.886 154.312 901.572 154.449 902.224 154.69C902.862 154.956 903.486 155.254 904.093 155.584C907.693 157.707 910.797 160.575 913.197 163.996C914.878 166.392 916.168 169.04 917.017 171.84C916.651 167.776 916.285 163.712 915.838 159.648C910.587 153.875 906.156 147.407 902.671 140.425C901.898 138.962 901.411 136.889 903.077 135.751C903.608 135.402 904.23 135.215 904.865 135.215C905.501 135.215 906.123 135.402 906.654 135.751C907.647 136.566 908.463 137.576 909.051 138.718C911.863 143.838 913.995 149.303 915.391 154.974C915.107 152.333 914.822 149.691 914.497 147.049C910.664 138.539 908.024 129.54 906.654 120.308C906.328 118.357 906.654 115.837 908.889 115.106C909.628 114.934 910.4 114.972 911.118 115.216C911.836 115.461 912.472 115.901 912.953 116.488C913.79 117.705 914.345 119.093 914.579 120.552C916.164 128.94 916.424 137.524 915.351 145.993C915.351 147.334 915.717 148.675 915.92 150.057C916.268 143.582 917.317 137.164 919.049 130.915C919.456 129.371 920.472 127.501 922.504 127.745C923.129 127.861 923.709 128.152 924.176 128.583C924.644 129.014 924.98 129.569 925.145 130.184C925.33 131.447 925.247 132.734 924.901 133.963C923.167 141.074 920.314 147.865 916.448 154.08C917.261 160.38 917.952 166.76 918.561 173.1C918.938 169.251 919.812 165.467 921.162 161.843C922.806 157.52 924.991 153.423 927.665 149.65C928.722 148.147 930.591 146.562 932.379 147.537C932.924 147.895 933.35 148.407 933.603 149.008C933.856 149.608 933.925 150.27 933.802 150.91C933.444 152.23 932.867 153.48 932.095 154.608L925.552 164.687C923.438 167.817 921.244 171.068 918.724 174.888C919.09 178.952 919.415 182.813 919.699 186.796C921.244 179.178 924.223 171.924 928.478 165.419C929.453 163.915 931.12 162.33 932.948 163.184C933.516 163.501 933.977 163.978 934.274 164.557C934.571 165.136 934.689 165.789 934.615 166.435C934.341 167.729 933.846 168.967 933.152 170.093C929.208 176.749 924.78 183.106 919.903 189.112C920.268 194.64 920.553 200.126 920.797 205.653C921.024 201.379 921.973 197.175 923.601 193.217C925.409 188.789 927.906 184.674 930.998 181.025C932.217 179.562 934.29 178.139 935.956 179.318C936.458 179.739 936.823 180.301 937.004 180.931C937.185 181.561 937.174 182.23 936.972 182.854C936.502 184.107 935.829 185.274 934.98 186.308C932.379 189.681 930.144 192.729 927.868 195.899C925.592 199.069 923.357 202.361 920.837 206.385C920.837 208.051 920.837 209.677 920.837 211.302C920.855 211.546 920.855 211.79 920.837 212.034V212.034C920.837 215.082 920.837 218.171 921.081 221.259C921.719 216.693 923.092 212.26 925.145 208.132C927.529 203.36 930.657 198.998 934.412 195.209C935.915 193.664 938.476 192.201 939.898 193.461C940.378 193.942 940.694 194.562 940.804 195.233C940.913 195.903 940.81 196.591 940.508 197.2C939.81 198.554 938.921 199.8 937.866 200.898C934.655 204.475 931.932 207.807 929.209 211.302C926.486 214.797 923.926 218.252 921.081 222.641C921.081 224.754 921.081 226.705 921.081 228.94C921.097 229.102 921.097 229.266 921.081 229.428V229.428C921.081 231.663 921.081 233.898 921.081 236.174C922.222 232.408 923.892 228.824 926.039 225.526C929.027 220.831 932.825 216.702 937.256 213.334C939.045 211.912 941.768 210.774 943.149 212.237C943.547 212.795 943.76 213.462 943.76 214.147C943.76 214.832 943.547 215.5 943.149 216.057C942.708 216.725 942.19 217.339 941.605 217.886C941.036 218.455 940.426 219.024 939.898 219.471C936.442 222.51 933.172 225.754 930.104 229.184C927.07 232.382 924.233 235.762 921.61 239.304V241.783C921.61 245.115 921.61 248.448 921.61 251.821C922.97 247.588 925.015 243.606 927.665 240.035C930.603 235.987 934.154 232.422 938.191 229.469C939.776 228.249 942.255 227.274 943.596 228.778C943.972 229.321 944.174 229.966 944.174 230.627C944.174 231.288 943.972 231.933 943.596 232.476C942.806 233.666 941.816 234.711 940.67 235.565C937.175 238.41 934.127 241.051 930.998 243.693C927.868 246.335 924.942 249.098 921.488 252.553L921.244 262.753C925.803 256.087 931.803 250.531 938.801 246.497C940.223 245.684 942.296 245.075 943.515 246.497C943.842 247.036 944.014 247.655 944.014 248.285C944.014 248.916 943.842 249.534 943.515 250.073C942.771 251.063 941.847 251.904 940.792 252.553C934.552 256.556 927.953 259.971 921.081 262.753C921.081 267.115 920.919 271.464 920.593 275.799C925.347 269.276 931.721 264.107 939.085 260.803C940.67 260.071 942.906 259.705 943.922 261.412C944.223 261.982 944.353 262.627 944.295 263.269C944.237 263.911 943.995 264.522 943.596 265.029C942.737 265.967 941.701 266.726 940.548 267.264C937.013 269.053 933.843 270.638 930.551 272.223L920.553 276.774C920.553 280.838 920.106 284.902 919.821 288.967C921.855 286.071 924.338 283.519 927.177 281.407C930.681 278.756 934.612 276.721 938.801 275.393C940.467 274.824 942.865 274.742 943.556 276.612C943.753 277.213 943.782 277.857 943.639 278.473C943.496 279.09 943.186 279.655 942.743 280.107C941.789 280.923 940.685 281.545 939.492 281.936C935.875 283.318 932.705 284.659 929.372 286C926.039 287.341 923.276 288.56 919.74 290.267C919.415 294.738 919.049 299.208 918.643 303.638C920.824 300.356 923.577 297.493 926.771 295.185C930.14 292.768 933.871 290.903 937.825 289.657C939.41 289.129 941.605 289.048 942.337 290.917C942.554 291.507 942.605 292.145 942.483 292.762C942.361 293.379 942.071 293.95 941.646 294.412C940.748 295.19 939.714 295.796 938.598 296.201L918.277 303.8C917.992 306.808 917.667 309.815 917.342 312.823C919.089 309.654 921.57 306.951 924.576 304.938C928.319 302.42 932.64 300.896 937.135 300.509C938.085 300.427 939.041 300.552 939.939 300.874C940.359 301.037 940.725 301.313 940.998 301.672C941.271 302.031 941.439 302.458 941.483 302.906C941.5 303.538 941.352 304.163 941.052 304.719C940.753 305.275 940.313 305.743 939.776 306.076C939.252 306.366 938.692 306.584 938.11 306.727L936.444 307.092C933.073 307.627 929.764 308.498 926.568 309.693C924.913 310.249 923.298 310.914 921.731 311.685C920.178 312.418 918.672 313.246 917.22 314.164C916.773 317.862 916.326 321.56 915.838 325.218C919.944 320.458 925.379 317.033 931.445 315.383C931.796 315.233 932.174 315.156 932.555 315.158C932.937 315.159 933.314 315.238 933.665 315.39C934.015 315.542 934.33 315.764 934.591 316.043C934.852 316.321 935.054 316.65 935.184 317.009C935.37 317.579 935.419 318.186 935.327 318.779C935.236 319.372 935.005 319.935 934.655 320.422C933.931 321.095 933.072 321.608 932.136 321.926C929.291 322.861 926.73 323.633 924.007 324.324C921.284 325.015 918.846 325.503 915.879 326.153C914.985 332.574 914.01 338.955 912.831 345.295C912.831 346.27 910.961 346.067 911.083 345.051C912.099 337.613 913.075 330.176 913.928 322.739C907.883 322.081 901.797 321.877 895.721 322.129C894.991 322.253 894.241 322.095 893.623 321.688C893.004 321.281 892.563 320.654 892.388 319.935C892.229 319.34 892.24 318.712 892.419 318.123C892.599 317.534 892.94 317.007 893.404 316.602C894.399 315.999 895.533 315.663 896.696 315.627C900.086 315.462 903.473 315.987 906.654 317.171C909.375 318.246 911.88 319.801 914.05 321.764C914.565 317.564 915.053 313.378 915.513 309.206C908.767 308.596 902.02 307.499 895.802 306.564C894.42 306.32 892.714 305.629 892.673 303.638C892.684 303.015 892.864 302.406 893.193 301.876C893.522 301.347 893.988 300.916 894.542 300.63C895.684 300.267 896.897 300.183 898.078 300.387C904.534 301.281 910.613 303.955 915.635 308.108C916.042 304.044 916.448 300.265 916.814 296.323C909.539 294.006 901.898 290.999 894.664 288.885Z" fill="#5EAD41"/>
<path fill-rule="evenodd" clip-rule="evenodd" d="M1030.78 199.045C1048.74 205.791 1056.75 222.982 1063.49 239.685C1063.49 239.929 1063.49 240.132 1063.78 240.376C1063.81 240.523 1063.81 240.677 1063.78 240.823C1065.96 244.345 1067.65 248.146 1068.82 252.121C1072.03 235.174 1075.97 218.43 1088.2 205.547C1088.38 205.351 1088.61 205.209 1088.86 205.138C1089.11 205.067 1089.38 205.071 1089.63 205.148C1089.89 205.224 1090.11 205.372 1090.28 205.572C1090.45 205.773 1090.56 206.018 1090.6 206.279C1093.49 225.542 1082.02 241.067 1070.52 255.291C1070.44 255.411 1070.33 255.512 1070.2 255.589C1070.08 255.666 1069.94 255.717 1069.79 255.739C1070.98 261.303 1071.7 266.959 1071.95 272.645C1071.95 273.539 1071.95 274.433 1071.95 275.327H1072.56C1082.7 256.761 1097.41 241.093 1115.31 229.81C1115.56 229.643 1115.85 229.562 1116.15 229.579C1116.45 229.595 1116.74 229.708 1116.97 229.9C1117.2 230.093 1117.36 230.354 1117.42 230.646C1117.49 230.937 1117.46 231.243 1117.34 231.517C1109.74 250.333 1093.4 273.58 1072.23 278.213H1072.47C1072.69 288.154 1072.18 298.097 1070.93 307.962H1071.17H1071.78C1081.92 289.406 1096.62 273.74 1114.5 262.444C1114.75 262.291 1115.04 262.22 1115.34 262.242C1115.63 262.263 1115.91 262.375 1116.14 262.562C1116.37 262.75 1116.53 263.003 1116.61 263.288C1116.68 263.573 1116.67 263.874 1116.57 264.151C1108.93 282.968 1092.63 306.214 1071.46 310.847C1071.18 310.958 1070.88 310.958 1070.6 310.847C1070.2 313.557 1069.75 316.401 1069.26 319.382C1069.19 319.727 1068.98 320.029 1068.69 320.227C1068.4 320.425 1068.04 320.504 1067.69 320.447C1067.34 320.389 1067.03 320.201 1066.81 319.92C1066.6 319.638 1066.5 319.286 1066.54 318.935C1067.43 314.017 1068.13 309.059 1068.65 304.06C1052.4 293.453 1030.61 274.392 1026.63 254.357C1026.35 253.056 1027.97 252.569 1028.87 253.178C1045.81 264.314 1063.33 276.831 1069.51 296.664C1070 290.037 1070.12 283.389 1069.87 276.75C1069.87 273.295 1069.55 269.841 1069.22 266.386C1052.6 258.908 1035.25 250.13 1029.23 231.679C1029.15 231.425 1029.13 231.151 1029.2 230.891C1029.27 230.631 1029.41 230.396 1029.61 230.215C1029.81 230.033 1030.05 229.914 1030.32 229.871C1030.58 229.828 1030.86 229.863 1031.1 229.972C1047.36 235.865 1058.49 248.708 1068.82 262.16C1067.83 254.542 1065.05 247.27 1060.69 240.945C1047.44 229.932 1034.6 218.308 1029.35 201.361C1029.15 201.133 1029.03 200.846 1029 200.543C1028.98 200.24 1029.05 199.937 1029.21 199.678C1029.37 199.419 1029.61 199.218 1029.89 199.104C1030.17 198.99 1030.48 198.969 1030.78 199.045V199.045Z" fill="#5EAD41"/>
<path fill-rule="evenodd" clip-rule="evenodd" d="M1152.39 78.4787C1151.52 79.5417 1150.98 80.8371 1150.84 82.203C1150.71 83.569 1150.97 84.9452 1151.61 86.1598C1151.61 86.1598 1151.61 86.1598 1151.86 86.4036C1153.08 87.0237 1154.45 87.2733 1155.81 87.1216C1157.16 86.97 1158.45 86.4237 1159.5 85.5502C1160.34 84.6832 1161.03 83.68 1161.53 82.5834C1161.66 83.7739 1162 84.9309 1162.55 85.9972C1163.29 87.1529 1164.36 88.0652 1165.61 88.6213C1166.87 89.1775 1168.26 89.3531 1169.62 89.1265H1169.9C1170.87 88.1571 1171.54 86.9236 1171.81 85.5794C1172.09 84.2352 1171.96 82.8399 1171.45 81.5674C1170.88 80.5016 1170.14 79.5396 1169.25 78.7225C1170.45 78.9461 1171.67 78.9461 1172.87 78.7225C1174.19 78.3796 1175.38 77.6516 1176.28 76.6311C1177.19 75.6105 1177.77 74.3437 1177.95 72.9922C1177.99 72.8876 1177.99 72.7716 1177.95 72.6671C1177.33 71.4389 1176.37 70.4205 1175.18 69.7406C1173.98 69.0606 1172.61 68.7496 1171.24 68.8468C1170.07 69.0443 1168.94 69.4576 1167.91 70.066C1168.49 69.0184 1168.87 67.8761 1169.05 66.6929C1169.13 65.3259 1168.81 63.9655 1168.12 62.7806C1167.43 61.5957 1166.41 60.6386 1165.19 60.0279C1165.08 59.9907 1164.97 59.9907 1164.86 60.0279C1164.04 60.1942 1163.25 60.4674 1162.51 60.8406C1161.11 61.549 1160.02 62.7338 1159.42 64.1803C1158.82 65.6267 1158.76 67.2391 1159.25 68.7249C1158.32 67.5228 1157.01 66.6798 1155.52 66.3391C1154.04 65.9983 1152.49 66.1807 1151.13 66.8555C1150.38 67.2306 1149.7 67.7096 1149.09 68.2779C1149.07 68.323 1149.07 68.3712 1149.07 68.4201C1149.07 68.4689 1149.07 68.5173 1149.09 68.5623C1148.87 69.9163 1149.05 71.3067 1149.61 72.5579C1150.18 73.8092 1151.1 74.8653 1152.26 75.5932C1153.33 76.1194 1154.49 76.4497 1155.68 76.5686C1154.6 77.0887 1153.61 77.7743 1152.75 78.6006L1152.39 78.4787ZM1169.29 88.1105C1168.17 88.2966 1167.03 88.1538 1165.99 87.6992C1164.95 87.2447 1164.06 86.4981 1163.44 85.5502C1162.25 82.7648 1162.02 79.6613 1162.79 76.7311C1163.8 78.319 1164.67 79.9916 1165.39 81.73C1165.49 81.8129 1165.61 81.8585 1165.74 81.8585C1165.86 81.8585 1165.99 81.8129 1166.08 81.73C1166.14 81.7003 1166.2 81.6581 1166.24 81.6063C1166.28 81.5546 1166.32 81.4944 1166.34 81.4294C1166.36 81.3644 1166.36 81.296 1166.35 81.2288C1166.34 81.1616 1166.32 81.097 1166.29 81.0391L1163.89 76.4061C1164.85 76.9278 1165.86 77.3761 1166.89 77.7472C1168.45 78.756 1169.71 80.158 1170.55 81.8112C1170.97 82.8652 1171.07 84.016 1170.84 85.1259C1170.62 86.2359 1170.08 87.258 1169.29 88.0699V88.1105ZM1171.37 69.7409C1172.5 69.6811 1173.63 69.948 1174.61 70.5099C1175.6 71.0718 1176.41 71.9051 1176.93 72.9109C1176.78 74.0068 1176.31 75.0353 1175.59 75.877C1174.87 76.7187 1173.93 77.339 1172.87 77.6659C1169.86 77.9277 1166.84 77.1845 1164.29 75.5525C1166.11 75.079 1167.95 74.7663 1169.82 74.6179C1169.94 74.5818 1170.05 74.5063 1170.12 74.4032C1170.2 74.3001 1170.23 74.1754 1170.23 74.0488C1170.19 73.9233 1170.12 73.8123 1170.02 73.7318C1169.91 73.6514 1169.79 73.6058 1169.66 73.6019L1164.5 74.4553C1165.31 73.7214 1166.05 72.9041 1166.69 72.0168C1168.1 70.8902 1169.76 70.1107 1171.53 69.7409H1171.37ZM1160.11 65.2299C1160.6 62.1006 1164.17 61.1657 1164.82 60.9219C1165.83 61.4367 1166.67 62.232 1167.24 63.2124C1167.81 64.1927 1168.09 65.3166 1168.03 66.4491C1167.33 69.3855 1165.71 72.0202 1163.4 73.9676C1163.4 73.9676 1163.4 74.3334 1164.17 68.3999C1164.18 68.338 1164.18 68.2744 1164.17 68.2132C1164.15 68.152 1164.13 68.0946 1164.09 68.0448C1164.05 67.9949 1164 67.9537 1163.94 67.9239C1163.89 67.894 1163.83 67.8762 1163.77 67.8715C1163.64 67.8563 1163.52 67.8846 1163.41 67.9514C1163.31 68.0182 1163.23 68.1194 1163.2 68.2373L1162.42 73.3986C1161.95 72.4283 1161.4 71.4914 1160.8 70.5944C1160.12 68.8918 1159.89 67.0477 1160.11 65.2299V65.2299ZM1162.42 74.821C1162.54 74.7633 1162.67 74.7523 1162.79 74.7903C1162.91 74.8282 1163.01 74.9122 1163.07 75.0242C1163.1 75.0829 1163.12 75.1469 1163.13 75.2123C1163.13 75.2778 1163.12 75.3435 1163.1 75.4058C1163.08 75.4681 1163.05 75.5256 1163.01 75.5752C1162.96 75.6248 1162.91 75.6654 1162.85 75.6948C1162.79 75.7241 1162.73 75.7416 1162.66 75.7463C1162.6 75.7509 1162.53 75.7427 1162.47 75.722C1162.41 75.7012 1162.35 75.6683 1162.3 75.6253C1162.25 75.5823 1162.21 75.53 1162.18 75.4713C1162.15 75.4127 1162.14 75.3492 1162.14 75.2846C1162.13 75.2201 1162.14 75.1556 1162.17 75.0951C1162.19 75.0346 1162.22 74.9792 1162.27 74.9322C1162.31 74.8851 1162.37 74.8474 1162.42 74.821V74.821ZM1152.35 74.5772C1151.79 74.3992 1151.27 74.1026 1150.84 73.7077C1150.41 73.3127 1150.07 72.829 1149.84 72.2893C1149.61 71.7496 1149.5 71.167 1149.52 70.5812C1149.54 69.9955 1149.68 69.4206 1149.94 68.8958C1150.2 68.3711 1150.57 67.9089 1151.03 67.5411C1151.48 67.1733 1152.02 66.9086 1152.58 66.765C1153.15 66.6213 1153.74 66.6022 1154.32 66.709C1154.9 66.8158 1155.44 67.0461 1155.92 67.3838C1158.52 68.9387 1160.54 71.3106 1161.65 74.1301C1161.65 74.1301 1162.02 74.374 1156.61 71.6511C1156.53 71.6114 1156.44 71.5909 1156.35 71.5909C1156.26 71.5909 1156.17 71.6114 1156.08 71.6511C1156.01 71.699 1155.95 71.7651 1155.9 71.8433C1155.86 71.9215 1155.84 72.009 1155.84 72.0981C1155.86 72.1929 1155.89 72.2829 1155.95 72.3606C1156.01 72.4383 1156.08 72.5015 1156.17 72.5452L1160.8 74.9023C1159.71 75.0367 1158.64 75.2541 1157.59 75.5525C1155.79 75.6634 1153.99 75.3285 1152.35 74.5772V74.5772ZM1161.25 75.8777C1161.25 75.8777 1161.57 75.6339 1157.18 79.9418C1157.14 79.9871 1157.1 80.0409 1157.08 80.1002C1157.05 80.1595 1157.04 80.223 1157.04 80.2872C1157.04 80.3514 1157.05 80.415 1157.08 80.4742C1157.1 80.5335 1157.14 80.5873 1157.18 80.6326C1157.22 80.6837 1157.28 80.7248 1157.34 80.753C1157.4 80.7813 1157.46 80.796 1157.53 80.796C1157.59 80.796 1157.66 80.7813 1157.72 80.753C1157.78 80.7248 1157.83 80.6837 1157.87 80.6326L1161.57 76.9343C1161.36 78.0194 1161.25 79.1213 1161.25 80.2262C1160.76 81.9663 1159.87 83.5672 1158.64 84.9C1158.3 85.3814 1157.86 85.7826 1157.35 86.0759C1156.84 86.3691 1156.27 86.5474 1155.68 86.5981C1155.09 86.6489 1154.5 86.5709 1153.94 86.3697C1153.39 86.1685 1152.88 85.8488 1152.47 85.433C1152.05 85.0172 1151.72 84.5152 1151.52 83.9618C1151.31 83.4085 1151.23 82.817 1151.28 82.2287C1151.32 81.6404 1151.5 81.0692 1151.79 80.555C1152.08 80.0407 1152.48 79.5957 1152.95 79.2509C1155.25 77.2016 1158.18 76.0097 1161.25 75.8777Z" fill="#5EAD41"/>
<path fill-rule="evenodd" clip-rule="evenodd" d="M403.386 66.4787C402.517 67.5417 401.981 68.8371 401.843 70.203C401.706 71.569 401.974 72.9452 402.614 74.1598C402.614 74.1598 402.614 74.1598 402.858 74.4036C404.075 75.0237 405.448 75.2733 406.806 75.1216C408.164 74.97 409.447 74.4237 410.498 73.5502C411.338 72.6832 412.025 71.68 412.53 70.5834C412.657 71.7739 413.002 72.9309 413.546 73.9972C414.29 75.1529 415.356 76.0652 416.613 76.6213C417.87 77.1775 419.262 77.3531 420.618 77.1265H420.902C421.873 76.1571 422.537 74.9236 422.812 73.5794C423.087 72.2352 422.96 70.8399 422.447 69.5674C421.882 68.5016 421.14 67.5396 420.252 66.7225C421.447 66.9461 422.674 66.9461 423.869 66.7225C425.189 66.3796 426.377 65.6516 427.282 64.6311C428.187 63.6105 428.767 62.3437 428.949 60.9922C428.99 60.8876 428.99 60.7716 428.949 60.6671C428.334 59.4389 427.369 58.4205 426.175 57.7406C424.982 57.0606 423.614 56.7496 422.244 56.8468C421.067 57.0443 419.937 57.4576 418.911 58.066C419.488 57.0184 419.874 55.8761 420.049 54.6929C420.129 53.3259 419.806 51.9655 419.119 50.7806C418.433 49.5957 417.414 48.6386 416.188 48.0279C416.083 47.9907 415.968 47.9907 415.863 48.0279C415.045 48.1942 414.252 48.4674 413.506 48.8406C412.111 49.549 411.015 50.7338 410.419 52.1803C409.822 53.6267 409.764 55.2391 410.254 56.7249C409.324 55.5228 408.006 54.6798 406.524 54.3391C405.042 53.9983 403.488 54.1807 402.126 54.8555C401.385 55.2306 400.7 55.7096 400.094 56.2779C400.075 56.323 400.065 56.3712 400.065 56.4201C400.065 56.4689 400.075 56.5173 400.094 56.5623C399.869 57.9163 400.05 59.3067 400.614 60.5579C401.178 61.8092 402.1 62.8653 403.264 63.5932C404.335 64.1194 405.491 64.4497 406.678 64.5686C405.602 65.0887 404.615 65.7743 403.752 66.6006L403.386 66.4787ZM420.293 76.1105C419.174 76.2966 418.025 76.1538 416.986 75.6992C415.947 75.2447 415.063 74.4981 414.44 73.5502C413.248 70.7648 413.02 67.6613 413.79 64.7311C414.8 66.319 415.67 67.9916 416.391 69.73C416.487 69.8129 416.61 69.8585 416.737 69.8585C416.863 69.8585 416.986 69.8129 417.082 69.73C417.143 69.7003 417.197 69.6581 417.241 69.6063C417.284 69.5546 417.317 69.4944 417.336 69.4294C417.355 69.3644 417.36 69.296 417.352 69.2288C417.343 69.1616 417.32 69.097 417.285 69.0391L414.887 64.4061C415.855 64.9278 416.86 65.3761 417.895 65.7472C419.451 66.756 420.713 68.158 421.553 69.8112C421.966 70.8652 422.067 72.016 421.844 73.1259C421.62 74.2359 421.082 75.258 420.293 76.0699V76.1105ZM422.365 57.7409C423.5 57.6811 424.627 57.948 425.614 58.5099C426.601 59.0718 427.406 59.9051 427.933 60.9109C427.775 62.0068 427.309 63.0353 426.59 63.877C425.87 64.7187 424.927 65.339 423.869 65.6659C420.856 65.9277 417.841 65.1845 415.294 63.5525C417.105 63.079 418.955 62.7663 420.821 62.6179C420.943 62.5818 421.048 62.5063 421.122 62.4032C421.196 62.3001 421.233 62.1754 421.227 62.0488C421.193 61.9233 421.119 61.8123 421.017 61.7318C420.914 61.6514 420.789 61.6058 420.658 61.6019L415.497 62.4553C416.312 61.7214 417.047 60.9041 417.692 60.0168C419.104 58.8902 420.76 58.1107 422.528 57.7409H422.365ZM411.108 53.2299C411.596 50.1006 415.172 49.1657 415.822 48.9219C416.832 49.4367 417.673 50.232 418.242 51.2124C418.811 52.1927 419.086 53.3166 419.033 54.4491C418.331 57.3855 416.707 60.0202 414.4 61.9676C414.4 61.9676 414.4 62.3334 415.172 56.3999C415.184 56.338 415.182 56.2744 415.167 56.2132C415.153 56.152 415.125 56.0946 415.087 56.0448C415.049 55.9949 415 55.9537 414.945 55.9239C414.889 55.894 414.828 55.8762 414.766 55.8715C414.643 55.8563 414.519 55.8846 414.415 55.9514C414.311 56.0182 414.234 56.1194 414.197 56.2373L413.424 61.3986C412.946 60.4283 412.403 59.4914 411.799 58.5944C411.124 56.8918 410.887 55.0477 411.108 53.2299V53.2299ZM413.424 62.821C413.538 62.7633 413.669 62.7523 413.791 62.7903C413.912 62.8282 414.014 62.9122 414.075 63.0242C414.104 63.0829 414.122 63.1469 414.126 63.2123C414.131 63.2778 414.122 63.3435 414.102 63.4058C414.081 63.4681 414.048 63.5256 414.005 63.5752C413.962 63.6248 413.91 63.6654 413.851 63.6948C413.792 63.7241 413.728 63.7416 413.663 63.7463C413.598 63.7509 413.532 63.7427 413.469 63.722C413.407 63.7012 413.35 63.6683 413.3 63.6253C413.25 63.5823 413.21 63.53 413.181 63.4713C413.153 63.4127 413.138 63.3492 413.136 63.2846C413.133 63.2201 413.144 63.1556 413.166 63.0951C413.189 63.0346 413.224 62.9792 413.268 62.9322C413.312 62.8851 413.365 62.8474 413.424 62.821V62.821ZM403.345 62.5772C402.787 62.3992 402.274 62.1026 401.841 61.7077C401.408 61.3127 401.065 60.829 400.837 60.2893C400.608 59.7496 400.499 59.167 400.517 58.5812C400.535 57.9955 400.679 57.4206 400.94 56.8958C401.201 56.3711 401.573 55.9089 402.029 55.5411C402.485 55.1733 403.015 54.9086 403.584 54.765C404.152 54.6213 404.744 54.6022 405.32 54.709C405.897 54.8158 406.443 55.0461 406.922 55.3838C409.524 56.9387 411.539 59.3106 412.652 62.1301C412.652 62.1301 413.018 62.374 407.613 59.6511C407.53 59.6114 407.44 59.5909 407.348 59.5909C407.257 59.5909 407.167 59.6114 407.084 59.6511C407.009 59.699 406.948 59.7651 406.905 59.8433C406.862 59.9215 406.84 60.009 406.84 60.0981C406.856 60.1929 406.893 60.2829 406.949 60.3606C407.006 60.4383 407.08 60.5015 407.166 60.5452L411.799 62.9023C410.713 63.0367 409.64 63.2541 408.588 63.5525C406.787 63.6634 404.986 63.3285 403.345 62.5772V62.5772ZM412.246 63.8777C412.246 63.8777 412.571 63.6339 408.182 67.9418C408.136 67.9871 408.1 68.0409 408.075 68.1002C408.051 68.1595 408.038 68.223 408.038 68.2872C408.038 68.3514 408.051 68.415 408.075 68.4742C408.1 68.5335 408.136 68.5873 408.182 68.6326C408.224 68.6837 408.276 68.7248 408.336 68.753C408.396 68.7813 408.461 68.796 408.527 68.796C408.593 68.796 408.658 68.7813 408.718 68.753C408.778 68.7248 408.831 68.6837 408.873 68.6326L412.571 64.9343C412.362 66.0194 412.253 67.1213 412.246 68.2262C411.757 69.9663 410.866 71.5672 409.645 72.9C409.303 73.3814 408.861 73.7826 408.349 74.0759C407.837 74.3691 407.267 74.5474 406.679 74.5981C406.091 74.6489 405.499 74.5709 404.944 74.3697C404.389 74.1685 403.885 73.8488 403.466 73.433C403.047 73.0172 402.724 72.5152 402.519 71.9618C402.314 71.4085 402.232 70.817 402.278 70.2287C402.325 69.6404 402.499 69.0692 402.788 68.555C403.078 68.0407 403.476 67.5957 403.955 67.2509C406.245 65.2016 409.175 64.0097 412.246 63.8777Z" fill="#5EAD41"/>
<path fill-rule="evenodd" clip-rule="evenodd" d="M573.386 658.479C572.517 659.542 571.981 660.837 571.843 662.203C571.706 663.569 571.974 664.945 572.614 666.16C572.614 666.16 572.614 666.16 572.858 666.404C574.075 667.024 575.448 667.273 576.806 667.122C578.164 666.97 579.447 666.424 580.498 665.55C581.338 664.683 582.025 663.68 582.53 662.583C582.657 663.774 583.002 664.931 583.546 665.997C584.29 667.153 585.356 668.065 586.613 668.621C587.87 669.178 589.262 669.353 590.618 669.127H590.902C591.873 668.157 592.537 666.924 592.812 665.579C593.087 664.235 592.96 662.84 592.447 661.567C591.882 660.502 591.14 659.54 590.252 658.723C591.447 658.946 592.674 658.946 593.869 658.723C595.189 658.38 596.377 657.652 597.282 656.631C598.187 655.611 598.767 654.344 598.949 652.992C598.99 652.888 598.99 652.772 598.949 652.667C598.334 651.439 597.369 650.421 596.175 649.741C594.982 649.061 593.614 648.75 592.244 648.847C591.067 649.044 589.937 649.458 588.911 650.066C589.488 649.018 589.874 647.876 590.049 646.693C590.129 645.326 589.806 643.966 589.119 642.781C588.433 641.596 587.414 640.639 586.188 640.028C586.083 639.991 585.968 639.991 585.863 640.028C585.045 640.194 584.252 640.467 583.506 640.841C582.111 641.549 581.015 642.734 580.419 644.18C579.822 645.627 579.764 647.239 580.254 648.725C579.324 647.523 578.006 646.68 576.524 646.339C575.042 645.998 573.488 646.181 572.126 646.855C571.385 647.231 570.7 647.71 570.094 648.278C570.075 648.323 570.065 648.371 570.065 648.42C570.065 648.469 570.075 648.517 570.094 648.562C569.869 649.916 570.05 651.307 570.614 652.558C571.178 653.809 572.1 654.865 573.264 655.593C574.335 656.119 575.491 656.45 576.678 656.569C575.602 657.089 574.615 657.774 573.752 658.601L573.386 658.479ZM590.293 668.11C589.174 668.297 588.025 668.154 586.986 667.699C585.947 667.245 585.063 666.498 584.44 665.55C583.248 662.765 583.02 659.661 583.79 656.731C584.8 658.319 585.67 659.992 586.391 661.73C586.487 661.813 586.61 661.858 586.737 661.858C586.863 661.858 586.986 661.813 587.082 661.73C587.143 661.7 587.197 661.658 587.241 661.606C587.284 661.555 587.317 661.494 587.336 661.429C587.355 661.364 587.36 661.296 587.352 661.229C587.343 661.162 587.32 661.097 587.285 661.039L584.887 656.406C585.855 656.928 586.86 657.376 587.895 657.747C589.451 658.756 590.713 660.158 591.553 661.811C591.966 662.865 592.067 664.016 591.844 665.126C591.62 666.236 591.082 667.258 590.293 668.07V668.11ZM592.365 649.741C593.5 649.681 594.627 649.948 595.614 650.51C596.601 651.072 597.406 651.905 597.933 652.911C597.775 654.007 597.309 655.035 596.59 655.877C595.87 656.719 594.927 657.339 593.869 657.666C590.856 657.928 587.841 657.185 585.294 655.553C587.105 655.079 588.955 654.766 590.821 654.618C590.943 654.582 591.048 654.506 591.122 654.403C591.196 654.3 591.233 654.175 591.227 654.049C591.193 653.923 591.119 653.812 591.017 653.732C590.914 653.651 590.789 653.606 590.658 653.602L585.497 654.455C586.312 653.721 587.047 652.904 587.692 652.017C589.104 650.89 590.76 650.111 592.528 649.741H592.365ZM581.108 645.23C581.596 642.101 585.172 641.166 585.822 640.922C586.832 641.437 587.673 642.232 588.242 643.212C588.811 644.193 589.086 645.317 589.033 646.449C588.331 649.386 586.707 652.02 584.4 653.968C584.4 653.968 584.4 654.333 585.172 648.4C585.184 648.338 585.182 648.274 585.167 648.213C585.153 648.152 585.125 648.095 585.087 648.045C585.049 647.995 585 647.954 584.945 647.924C584.889 647.894 584.828 647.876 584.766 647.872C584.643 647.856 584.519 647.885 584.415 647.951C584.311 648.018 584.234 648.119 584.197 648.237L583.424 653.399C582.946 652.428 582.403 651.491 581.799 650.594C581.124 648.892 580.887 647.048 581.108 645.23V645.23ZM583.424 654.821C583.538 654.763 583.669 654.752 583.791 654.79C583.912 654.828 584.014 654.912 584.075 655.024C584.104 655.083 584.122 655.147 584.126 655.212C584.131 655.278 584.122 655.344 584.102 655.406C584.081 655.468 584.048 655.526 584.005 655.575C583.962 655.625 583.91 655.665 583.851 655.695C583.792 655.724 583.728 655.742 583.663 655.746C583.598 655.751 583.532 655.743 583.469 655.722C583.407 655.701 583.35 655.668 583.3 655.625C583.25 655.582 583.21 655.53 583.181 655.471C583.153 655.413 583.138 655.349 583.136 655.285C583.133 655.22 583.144 655.156 583.166 655.095C583.189 655.035 583.224 654.979 583.268 654.932C583.312 654.885 583.365 654.847 583.424 654.821V654.821ZM573.345 654.577C572.787 654.399 572.274 654.103 571.841 653.708C571.408 653.313 571.065 652.829 570.837 652.289C570.608 651.75 570.499 651.167 570.517 650.581C570.535 649.995 570.679 649.421 570.94 648.896C571.201 648.371 571.573 647.909 572.029 647.541C572.485 647.173 573.015 646.909 573.584 646.765C574.152 646.621 574.744 646.602 575.32 646.709C575.897 646.816 576.443 647.046 576.922 647.384C579.524 648.939 581.539 651.311 582.652 654.13C582.652 654.13 583.018 654.374 577.613 651.651C577.53 651.611 577.44 651.591 577.348 651.591C577.257 651.591 577.167 651.611 577.084 651.651C577.009 651.699 576.948 651.765 576.905 651.843C576.862 651.921 576.84 652.009 576.84 652.098C576.856 652.193 576.893 652.283 576.949 652.361C577.006 652.438 577.08 652.502 577.166 652.545L581.799 654.902C580.713 655.037 579.64 655.254 578.588 655.553C576.787 655.663 574.986 655.328 573.345 654.577V654.577ZM582.246 655.878C582.246 655.878 582.571 655.634 578.182 659.942C578.136 659.987 578.1 660.041 578.075 660.1C578.051 660.159 578.038 660.223 578.038 660.287C578.038 660.351 578.051 660.415 578.075 660.474C578.1 660.534 578.136 660.587 578.182 660.633C578.224 660.684 578.276 660.725 578.336 660.753C578.396 660.781 578.461 660.796 578.527 660.796C578.593 660.796 578.658 660.781 578.718 660.753C578.778 660.725 578.831 660.684 578.873 660.633L582.571 656.934C582.362 658.019 582.253 659.121 582.246 660.226C581.757 661.966 580.866 663.567 579.645 664.9C579.303 665.381 578.861 665.783 578.349 666.076C577.837 666.369 577.267 666.547 576.679 666.598C576.091 666.649 575.499 666.571 574.944 666.37C574.389 666.168 573.885 665.849 573.466 665.433C573.047 665.017 572.724 664.515 572.519 663.962C572.314 663.408 572.232 662.817 572.278 662.229C572.325 661.64 572.499 661.069 572.788 660.555C573.078 660.041 573.476 659.596 573.955 659.251C576.245 657.202 579.175 656.01 582.246 655.878Z" fill="#265113"/>
<path fill-rule="evenodd" clip-rule="evenodd" d="M-4.57396 183.411C-6.22278 185.448 -7.24097 187.93 -7.50159 190.548C-7.76221 193.166 -7.25373 195.803 -6.03948 198.13C-6.03948 198.13 -6.03938 198.13 -5.57659 198.598C-3.26577 199.786 -0.660813 200.264 1.91637 199.974C4.49355 199.683 6.92986 198.636 8.92408 196.962C10.5184 195.301 11.8223 193.378 12.7807 191.277C13.022 193.558 13.6756 195.776 14.709 197.819C16.1207 200.033 18.1443 201.782 20.5296 202.848C22.9149 203.913 25.5572 204.25 28.1299 203.816H28.6698C30.5123 201.958 31.7727 199.594 32.2939 197.018C32.8151 194.442 32.574 191.768 31.6008 189.33C30.5283 187.288 29.1199 185.444 27.4357 183.878C29.7043 184.307 32.0319 184.307 34.3005 183.878C36.8057 183.221 39.0604 181.826 40.7775 179.87C42.4946 177.915 43.5962 175.487 43.9419 172.897C44.0194 172.697 44.0194 172.474 43.9419 172.274C42.7746 169.921 40.9426 167.969 38.6775 166.666C36.4123 165.363 33.8155 164.767 31.2151 164.953C28.9822 165.332 26.8379 166.124 24.8904 167.29C25.986 165.282 26.7173 163.093 27.0501 160.826C27.2019 158.206 26.5884 155.599 25.2857 153.329C23.9831 151.058 22.0487 149.224 19.7226 148.053C19.523 147.982 19.3051 147.982 19.1055 148.053C17.5531 148.372 16.0489 148.896 14.6319 149.611C11.9842 150.968 9.90584 153.239 8.77378 156.011C7.64173 158.783 7.53088 161.872 8.46131 164.72C6.69501 162.416 4.1935 160.801 1.38157 160.148C-1.43037 159.495 -4.37943 159.844 -6.96502 161.137C-8.37239 161.856 -9.67099 162.774 -10.8216 163.863C-10.8577 163.949 -10.8762 164.042 -10.8762 164.136C-10.8762 164.229 -10.8577 164.322 -10.8216 164.408C-11.2486 167.003 -10.9051 169.667 -9.83439 172.065C-8.76371 174.463 -7.01379 176.487 -4.80535 177.882C-2.7734 178.89 -0.57915 179.523 1.67368 179.751C-0.367825 180.747 -2.24179 182.061 -3.87981 183.645L-4.57396 183.411ZM27.5128 201.869C25.3897 202.225 23.2097 201.951 21.2379 201.08C19.2661 200.209 17.5873 198.779 16.4059 196.962C14.1436 191.625 13.7093 185.677 15.1717 180.062C17.0887 183.105 18.7403 186.31 20.1081 189.642C20.2903 189.8 20.5231 189.888 20.7638 189.888C21.0046 189.888 21.2373 189.8 21.4195 189.642C21.535 189.585 21.6376 189.504 21.7205 189.405C21.8035 189.305 21.865 189.19 21.9013 189.065C21.9376 188.941 21.9478 188.81 21.9312 188.681C21.9146 188.552 21.8717 188.428 21.8051 188.317L17.2543 179.439C19.0905 180.439 20.9985 181.298 22.9621 182.009C25.9151 183.942 28.3098 186.629 29.9039 189.797C30.6885 191.817 30.8803 194.022 30.4562 196.149C30.0322 198.276 29.0103 200.235 27.5128 201.791V201.869ZM31.4465 166.667C33.5989 166.552 35.7388 167.063 37.6119 168.14C39.485 169.217 41.0127 170.814 42.0136 172.741C41.7133 174.841 40.8291 176.812 39.4638 178.425C38.0985 180.038 36.3081 181.227 34.3005 181.853C28.5815 182.355 22.8589 180.931 18.0257 177.804C21.4633 176.896 24.9736 176.297 28.5156 176.012C28.746 175.943 28.9469 175.799 29.0866 175.601C29.2263 175.404 29.2968 175.165 29.2868 174.922C29.221 174.681 29.0808 174.469 28.8864 174.315C28.6921 174.16 28.454 174.073 28.207 174.065L18.4112 175.701C19.9575 174.295 21.3536 172.728 22.5764 171.028C25.2559 168.869 28.3997 167.375 31.7551 166.667H31.4465ZM10.0811 158.022C11.0067 152.025 17.7942 150.234 19.0283 149.767C20.9454 150.753 22.54 152.277 23.6208 154.156C24.7016 156.035 25.2228 158.188 25.1218 160.358C23.789 165.986 20.7078 171.035 16.3288 174.766C16.3288 174.766 16.3288 175.467 17.7943 164.097C17.8163 163.978 17.8133 163.856 17.7855 163.739C17.7577 163.622 17.7056 163.512 17.6328 163.416C17.56 163.321 17.468 163.242 17.3629 163.185C17.2578 163.127 17.142 163.093 17.0229 163.084C16.7902 163.055 16.5547 163.109 16.3574 163.237C16.1601 163.365 16.0135 163.559 15.9431 163.785L14.4776 173.676C13.5704 171.816 12.5396 170.021 11.3923 168.302C10.1126 165.04 9.66181 161.506 10.0811 158.022V158.022ZM14.4776 176.402C14.6929 176.291 14.9425 176.27 15.1731 176.343C15.4037 176.416 15.597 176.576 15.7117 176.791C15.7674 176.904 15.8007 177.026 15.8095 177.152C15.8183 177.277 15.8025 177.403 15.7631 177.522C15.7237 177.642 15.6615 177.752 15.5799 177.847C15.4983 177.942 15.3988 178.02 15.2874 178.076C15.176 178.132 15.0547 178.166 14.9305 178.175C14.8062 178.184 14.6814 178.168 14.5632 178.128C14.4451 178.088 14.3358 178.025 14.2417 177.943C14.1476 177.861 14.0705 177.76 14.0148 177.648C13.9633 177.536 13.9344 177.414 13.9298 177.29C13.9252 177.166 13.945 177.043 13.9881 176.927C14.0311 176.811 14.0966 176.705 14.1806 176.615C14.2647 176.525 14.3656 176.452 14.4776 176.402V176.402ZM-4.65105 175.934C-5.71071 175.593 -6.68481 175.025 -7.50653 174.268C-8.32825 173.511 -8.97821 172.584 -9.41176 171.55C-9.8453 170.516 -10.0521 169.399 -10.0182 168.277C-9.98434 167.154 -9.71046 166.053 -9.21533 165.047C-8.72019 164.042 -8.01554 163.156 -7.14969 162.451C-6.28383 161.746 -5.27726 161.239 -4.19899 160.964C-3.12072 160.689 -1.9963 160.652 -0.902747 160.857C0.190809 161.061 1.22766 161.503 2.13657 162.15C7.07521 165.129 10.8989 169.675 13.012 175.078C13.012 175.078 13.7063 175.545 3.4478 170.327C3.29136 170.251 3.12 170.212 2.94642 170.212C2.77285 170.212 2.60148 170.251 2.44505 170.327C2.30267 170.419 2.18558 170.546 2.10468 170.695C2.02377 170.845 1.98168 171.013 1.98228 171.184C2.011 171.365 2.08183 171.538 2.18906 171.687C2.2963 171.836 2.43692 171.957 2.59934 172.04L11.3923 176.557C9.33269 176.815 7.29553 177.232 5.29888 177.804C1.88046 178.016 -1.53707 177.374 -4.65105 175.934V175.934ZM12.2408 178.427C12.2408 178.427 12.8579 177.959 4.52763 186.215C4.44135 186.302 4.37286 186.405 4.32614 186.518C4.27943 186.632 4.25541 186.754 4.25541 186.877C4.25541 187 4.27943 187.121 4.32614 187.235C4.37286 187.349 4.44135 187.452 4.52763 187.539C4.60722 187.636 4.70721 187.715 4.82057 187.769C4.93394 187.823 5.0578 187.852 5.18319 187.852C5.30858 187.852 5.43244 187.823 5.5458 187.769C5.65917 187.715 5.75927 187.636 5.83886 187.539L12.8579 180.451C12.4618 182.531 12.2552 184.642 12.2408 186.76C11.3126 190.094 9.6217 193.162 7.30438 195.716C6.65646 196.639 5.81732 197.408 4.84529 197.97C3.87326 198.532 2.79163 198.873 1.67568 198.97C0.559734 199.068 -0.563788 198.918 -1.61679 198.533C-2.6698 198.147 -3.62704 197.535 -4.4219 196.738C-5.21676 195.941 -5.83018 194.979 -6.21955 193.918C-6.60893 192.858 -6.76485 191.725 -6.67656 190.597C-6.58826 189.47 -6.25789 188.375 -5.70829 187.39C-5.1587 186.404 -4.40314 185.551 -3.49412 184.891C0.8528 180.964 6.41338 178.68 12.2408 178.427Z" fill="#265113"/>
<path fill-rule="evenodd" clip-rule="evenodd" d="M833.621 260.762C832.752 261.825 832.215 263.12 832.078 264.486C831.941 265.852 832.209 267.228 832.849 268.443L833.092 268.686C834.31 269.306 835.683 269.556 837.041 269.404C838.399 269.253 839.682 268.706 840.733 267.833C841.573 266.966 842.26 265.963 842.765 264.866C842.892 266.057 843.237 267.214 843.781 268.28C844.519 269.44 845.586 270.353 846.845 270.904C848.105 271.454 849.5 271.616 850.853 271.369C850.898 271.388 850.946 271.397 850.995 271.397C851.044 271.397 851.092 271.388 851.137 271.369C852.108 270.399 852.772 269.166 853.047 267.821C853.321 266.477 853.194 265.082 852.682 263.81C852.116 262.744 851.374 261.782 850.487 260.965C851.67 261.168 852.88 261.168 854.063 260.965C858.127 260.274 859.144 255.438 859.184 255.234C859.225 255.13 859.225 255.014 859.184 254.909C858.569 253.681 857.604 252.663 856.41 251.983C855.217 251.303 853.849 250.992 852.478 251.089C851.309 251.291 850.182 251.69 849.146 252.268C849.728 251.237 850.114 250.107 850.284 248.935C850.352 247.545 850.001 246.166 849.276 244.978C848.551 243.79 847.487 242.846 846.22 242.27C846.175 242.251 846.126 242.241 846.077 242.241C846.028 242.241 845.98 242.251 845.935 242.27C845.117 242.436 844.325 242.71 843.578 243.083C842.183 243.791 841.088 244.976 840.491 246.422C839.895 247.869 839.836 249.481 840.327 250.967C839.401 249.758 838.086 248.907 836.604 248.559C835.122 248.211 833.565 248.387 832.198 249.057C831.464 249.46 830.782 249.952 830.166 250.52C830.147 250.565 830.137 250.613 830.137 250.662C830.137 250.711 830.147 250.76 830.166 250.805C829.941 252.159 830.122 253.549 830.686 254.8C831.251 256.051 832.173 257.108 833.336 257.835C834.414 258.344 835.567 258.673 836.75 258.811C835.674 259.331 834.687 260.017 833.824 260.843L833.621 260.762ZM850.528 270.231C849.409 270.417 848.26 270.274 847.221 269.82C846.182 269.365 845.298 268.618 844.675 267.67C843.483 264.885 843.254 261.782 844.025 258.851C845.035 260.439 845.905 262.112 846.626 263.85C846.722 263.933 846.845 263.979 846.971 263.979C847.098 263.979 847.221 263.933 847.317 263.85C847.432 263.782 847.517 263.673 847.554 263.545C847.592 263.417 847.58 263.279 847.52 263.159L845.122 258.526C846.086 259.055 847.092 259.504 848.13 259.867C849.676 260.888 850.935 262.287 851.787 263.932C852.201 264.986 852.302 266.136 852.078 267.246C851.855 268.356 851.317 269.378 850.528 270.19V270.231ZM852.6 251.861C853.734 251.801 854.862 252.068 855.849 252.63C856.836 253.192 857.641 254.025 858.168 255.031C858.01 256.127 857.544 257.155 856.825 257.997C856.105 258.839 855.162 259.459 854.104 259.786C851.078 260.045 848.051 259.302 845.488 257.673C847.319 257.226 849.18 256.913 851.056 256.738C851.166 256.707 851.263 256.64 851.333 256.548C851.402 256.457 851.439 256.345 851.439 256.23C851.439 256.115 851.402 256.004 851.333 255.912C851.263 255.82 851.166 255.754 851.056 255.722L845.894 256.576C846.709 255.842 847.445 255.024 848.089 254.137C849.501 253.011 851.157 252.231 852.925 251.861H852.6ZM841.343 247.35C841.83 244.221 845.407 243.286 846.057 243.042C847.067 243.557 847.907 244.352 848.477 245.333C849.046 246.313 849.321 247.437 849.268 248.569C848.622 251.546 847.042 254.237 844.756 256.25C844.756 256.25 844.756 256.616 845.529 250.683C845.54 250.621 845.539 250.557 845.524 250.496C845.509 250.435 845.482 250.377 845.444 250.328C845.405 250.278 845.357 250.236 845.301 250.207C845.246 250.177 845.185 250.159 845.122 250.154C845 250.139 844.876 250.167 844.772 250.234C844.668 250.301 844.59 250.402 844.553 250.52L843.781 255.681C843.303 254.711 842.76 253.774 842.155 252.877C841.481 251.175 841.244 249.33 841.465 247.513L841.343 247.35ZM843.619 256.941C843.676 256.906 843.741 256.884 843.808 256.875C843.876 256.866 843.944 256.871 844.009 256.891C844.074 256.91 844.134 256.942 844.186 256.986C844.238 257.03 844.28 257.084 844.309 257.144C844.339 257.203 844.356 257.267 844.361 257.333C844.366 257.398 844.357 257.464 844.337 257.526C844.316 257.588 844.283 257.646 844.24 257.696C844.197 257.745 844.145 257.786 844.086 257.815C844.027 257.844 843.963 257.862 843.898 257.867C843.832 257.871 843.767 257.863 843.704 257.842C843.642 257.821 843.584 257.789 843.535 257.746C843.485 257.703 843.445 257.65 843.415 257.592C843.335 257.502 843.291 257.386 843.291 257.266C843.291 257.146 843.335 257.031 843.415 256.941H843.619ZM833.58 256.697C833.022 256.52 832.509 256.223 832.076 255.828C831.643 255.433 831.3 254.949 831.072 254.409C830.843 253.87 830.734 253.287 830.752 252.702C830.77 252.116 830.914 251.541 831.175 251.016C831.436 250.491 831.807 250.029 832.264 249.661C832.72 249.294 833.25 249.029 833.818 248.885C834.386 248.742 834.979 248.723 835.555 248.829C836.131 248.936 836.678 249.166 837.157 249.504C839.749 251.071 841.761 253.439 842.887 256.25C842.887 256.25 843.253 256.494 837.847 253.771C837.769 253.721 837.677 253.694 837.583 253.694C837.49 253.694 837.398 253.721 837.319 253.771C837.244 253.819 837.182 253.885 837.14 253.963C837.097 254.042 837.075 254.129 837.075 254.218C837.083 254.316 837.117 254.409 837.175 254.488C837.232 254.567 837.31 254.628 837.4 254.665L842.034 257.023C840.948 257.157 839.875 257.374 838.823 257.673C837.022 257.784 835.221 257.449 833.58 256.697ZM842.481 257.957C842.481 257.957 842.806 257.957 838.416 262.021C838.371 262.067 838.335 262.121 838.31 262.18C838.286 262.239 838.273 262.303 838.273 262.367C838.273 262.431 838.286 262.495 838.31 262.554C838.335 262.613 838.371 262.667 838.416 262.712C838.458 262.763 838.511 262.804 838.571 262.833C838.631 262.861 838.696 262.876 838.762 262.876C838.828 262.876 838.893 262.861 838.953 262.833C839.013 262.804 839.065 262.763 839.107 262.712L842.806 259.014C842.597 260.085 842.488 261.174 842.481 262.265C842 264.021 841.109 265.637 839.88 266.98C839 267.688 837.938 268.133 836.815 268.263C835.693 268.392 834.557 268.201 833.539 267.711C833.01 266.701 832.789 265.557 832.905 264.423C833.02 263.288 833.467 262.213 834.19 261.33C836.504 259.331 839.425 258.171 842.481 258.039V257.957Z" fill="#265113"/>
</g>
<defs>
<clipPath id="clip0_403_4853">
<rect width="1440" height="692" fill="white"/>
</clipPath>
</defs>
</svg>
