<svg viewBox="0 0 375 97" fill="none" xmlns="http://www.w3.org/2000/svg">
<g clip-path="url(#clip0_411_4853)">
<g clip-path="url(#clip1_411_4853)">
<path fill-rule="evenodd" clip-rule="evenodd" d="M330.651 47.8025C331.068 46.7779 331.113 45.6413 330.778 44.5877C330.42 43.7109 329.495 43.0847 328.675 43.6483C328.423 42.6881 327.309 42.5837 326.468 43.0221C325.532 43.623 324.828 44.5205 324.471 45.5688C324.086 46.6495 323.825 47.77 323.693 48.9088C323.441 50.7876 323.315 52.6454 323.209 54.5033C322.687 52.7316 321.982 51.0178 321.107 49.3889C319.53 46.2577 317.155 42.7716 315.242 39.1393C316.692 36.8639 318.227 34.672 319.446 32.2505C319.961 31.3784 320.364 30.4457 320.645 29.4742C320.931 28.55 320.894 27.5566 320.54 26.656C320.161 25.9045 319.32 25.4244 318.626 25.988C318.353 25.153 317.365 25.1322 316.65 25.5705C315.872 26.1539 315.322 26.9878 315.095 27.9294C314.833 28.9045 314.685 29.906 314.653 30.9145C314.506 33.3778 314.653 35.7576 314.653 38.1791C312.257 33.3361 310.827 28.3052 313.182 23.5666C315.536 21.1242 317.996 18.8488 320.224 16.1977C320.982 15.3355 321.638 14.3899 322.179 13.3795C322.716 12.4206 322.908 11.3093 322.726 10.2274C322.474 9.32978 321.654 8.57827 320.771 9.03752C320.645 8.05639 319.551 7.80591 318.669 8.13991C317.674 8.61829 316.868 9.41135 316.377 10.3944C315.855 11.4148 315.46 12.4942 315.2 13.6092C314.422 16.469 313.981 19.308 313.455 22.147C312.087 24.2952 311.419 26.81 311.542 29.3489C310.89 26.8857 310.281 24.4224 309.44 21.9592C309.11 20.9185 308.651 19.9227 308.073 18.9949C307.555 18.0576 306.732 17.3219 305.74 16.9074C304.857 16.6569 303.848 16.9074 303.805 17.9303C302.923 17.5545 302.187 18.306 302.019 19.2036C301.924 20.2484 302.191 21.294 302.775 22.1679C303.375 23.0878 304.081 23.9354 304.878 24.6938C306.98 26.9274 309.419 28.8688 311.731 30.831C312.223 34.2108 313.335 37.4725 315.011 40.4544C316.314 42.9177 317.828 45.2766 319.215 47.7398C317.47 45.9446 315.746 44.1284 313.812 42.4376C312.999 41.6982 312.103 41.0538 311.142 40.5171C310.234 39.995 309.176 39.7893 308.136 39.9326C307.253 40.1413 306.517 40.9137 306.938 41.7696C305.992 41.7696 305.74 42.8968 306.034 43.8571C306.48 44.7665 307.22 45.5014 308.136 45.9446C309.101 46.4655 310.124 46.8718 311.184 47.1553C314.107 48.0112 317.008 48.4913 319.93 49.0967C320.799 50.7865 321.503 52.555 322.032 54.3781C323.039 58.4574 322.516 62.7614 320.561 66.4856C320.561 63.9388 320.687 61.413 320.561 58.8245C320.516 57.6658 320.332 56.5166 320.014 55.401C319.743 54.3226 319.104 53.3709 318.206 52.7081C317.386 52.2071 316.251 52.2279 315.936 53.1882C315.137 52.5619 314.17 53.1882 313.833 53.9814C313.471 55.0372 313.471 56.1822 313.833 57.2379C314.165 58.3474 314.631 59.4128 315.221 60.411C316.713 63.1038 318.416 65.5462 320.077 68.0721C319.678 68.9697 319.236 69.8465 318.816 70.765C317.297 74.0409 316.488 77.5966 316.44 81.2025C316.209 79.4281 315.957 77.6537 315.578 75.8585C315.363 74.7168 315.017 73.6032 314.548 72.5393C314.141 71.5209 313.4 70.668 312.446 70.1178C311.563 69.7421 310.449 69.93 310.344 70.932C309.461 70.4101 308.578 71.1198 308.241 72.0175C307.999 73.1077 308.133 74.247 308.62 75.2531C309.11 76.3027 309.724 77.2907 310.449 78.1965C312.425 80.8267 314.653 83.1439 316.755 85.5654C317.297 89.7486 318.234 93.8721 319.552 97.8816C319.972 99.322 320.413 100.783 320.834 102.244C319.741 100.533 318.626 98.821 317.365 97.1719C316.694 96.2198 315.902 95.3569 315.011 94.6042C314.182 93.8581 313.121 93.4162 312.004 93.3518C311.037 93.3518 310.112 94.0197 310.365 95.0008C309.356 94.8965 308.872 95.8985 308.998 96.8588C309.245 97.9435 309.852 98.9143 310.722 99.6143C311.621 100.355 312.601 100.992 313.644 101.514C316.272 102.892 318.942 103.956 321.612 105.104C323.272 111.722 324.008 118.443 321.233 124.81C321.139 124.851 321.063 124.925 321.023 125.019C320.687 125.729 320.371 126.439 320.056 127.107C319.981 127.251 319.966 127.418 320.015 127.573C320.065 127.728 320.174 127.856 320.319 127.931C320.464 128.006 320.633 128.02 320.788 127.972C320.944 127.923 321.074 127.814 321.149 127.67C325.774 120.99 324.849 112.265 322.957 104.812C322.284 102.245 321.486 99.6351 320.687 97.0466C322.137 94.5207 323.63 92.0575 324.891 89.3646C325.414 88.3373 325.809 87.2508 326.069 86.129C326.339 85.0639 326.242 83.9397 325.795 82.9351C325.312 82.1001 324.324 81.5991 323.567 82.2671C323.209 81.3486 322.074 81.3695 321.296 81.9331C320.442 82.6414 319.862 83.623 319.657 84.7095C319.409 85.8335 319.296 86.9827 319.32 88.133C319.32 89.8448 319.32 91.5147 319.53 93.1847C317.643 87.6287 317.223 81.6844 318.311 75.9211C321.086 74.4181 323.882 73.0612 326.573 71.3286C327.566 70.7462 328.484 70.0451 329.306 69.2411C330.108 68.4807 330.627 67.4725 330.778 66.3812C330.778 65.421 330.252 64.4607 329.264 64.6486C329.432 63.6675 328.465 63.1038 327.498 63.1665C326.405 63.329 325.398 63.8508 324.639 64.6486C323.832 65.4747 323.127 66.3926 322.537 67.3832C321.191 69.4707 320.077 71.5582 318.963 73.7919C319.131 73.2908 319.32 72.8107 319.53 72.3306C321.17 68.5313 323.525 64.9826 324.029 60.8076C324.124 59.8217 324.124 58.8292 324.029 57.8433C325.795 55.5262 327.603 53.2926 329.222 50.7876C329.81 49.849 330.289 48.8476 330.651 47.8025Z" fill="#265113"/>
<path fill-rule="evenodd" clip-rule="evenodd" d="M252.836 71.3099C252.955 70.6802 252.852 70.0288 252.545 69.4664C252.241 68.9956 251.648 68.7428 251.251 69.1673C250.998 68.6372 250.356 68.7026 249.99 69.0345C249.505 69.4755 249.186 70.0706 249.089 70.7192C248.996 71.3815 248.975 72.0521 249.029 72.7188C249.098 73.8162 249.234 74.8757 249.384 75.9447C248.887 74.9962 248.296 74.1 247.619 73.2698C246.363 71.6669 244.64 69.9468 243.152 68.106C243.715 66.6487 244.334 65.2295 244.748 63.7031C244.943 63.1498 245.065 62.5737 245.112 61.989C245.17 61.431 245.037 60.8699 244.735 60.3971C244.438 60.0237 243.907 59.8328 243.578 60.2312C243.33 59.7867 242.769 59.8855 242.417 60.2269C242.045 60.6426 241.827 61.1741 241.802 61.7316C241.765 62.3157 241.794 62.9021 241.889 63.4797C242.084 64.8979 242.437 66.2475 242.708 67.6136C240.81 65.138 239.433 62.4234 240.228 59.4631C241.283 57.8095 242.419 56.2511 243.367 54.4952C243.704 53.92 243.972 53.3075 244.166 52.6702C244.36 52.0643 244.344 51.4107 244.119 50.8153C243.873 50.3209 243.325 49.985 242.88 50.3571C242.696 49.8011 242.052 49.7929 241.589 50.0699C241.084 50.4582 240.723 51.0032 240.563 51.6191C240.382 52.2552 240.275 52.9101 240.246 53.5708C240.129 55.2853 240.2 56.9503 240.223 58.6247C239.702 60.0022 239.613 61.5053 239.966 62.9349C239.32 61.6062 238.698 60.2727 237.945 58.9652C237.639 58.4112 237.267 57.8963 236.838 57.4314C236.434 56.9803 235.891 56.6754 235.296 56.5643C234.771 56.5325 234.227 56.7762 234.306 57.3653C233.777 57.248 233.448 57.7699 233.452 58.2877C233.516 58.8931 233.785 59.4585 234.214 59.8898C234.658 60.3497 235.153 60.757 235.689 61.1035C237.127 62.1273 238.726 62.9708 240.252 63.8165C240.914 65.6854 241.906 67.4206 243.181 68.9397C244.205 70.1812 245.329 71.3659 246.376 72.6027C245.188 71.7765 244.009 70.9361 242.728 70.2024C242.187 69.8684 241.608 69.6018 241.002 69.4086C240.431 69.2041 239.808 69.2013 239.235 69.4008C238.762 69.6303 238.431 70.1404 238.765 70.5803C238.231 70.6863 238.215 71.356 238.478 71.8101C238.829 72.3027 239.335 72.6632 239.916 72.8338C240.52 73.015 241.143 73.1276 241.772 73.1695C243.52 73.3293 245.214 73.2775 246.935 73.3066C247.619 74.1696 248.216 75.0973 248.719 76.0766C249.747 78.2814 249.936 80.7852 249.251 83.1194C248.966 81.682 248.752 80.2305 248.387 78.7597C248.23 78.1057 247.996 77.4724 247.692 76.8728C247.41 76.2945 246.944 75.8266 246.366 75.5429C245.847 75.3496 245.21 75.5005 245.14 76.0823C244.616 75.8035 244.142 76.2801 244.041 76.7691C243.949 77.4066 244.078 78.0563 244.406 78.6104C244.719 79.2046 245.102 79.7587 245.548 80.2606C246.686 81.6401 247.936 82.8368 249.157 84.0763C249.032 84.6318 248.884 85.1921 248.748 85.75C248.253 87.7834 248.197 89.8988 248.583 91.9556C248.252 90.9718 247.909 89.9903 247.493 89.0111C247.239 88.3871 246.918 87.7924 246.536 87.2377C246.192 86.7067 245.678 86.3081 245.078 86.1071C244.536 85.9921 243.926 86.2119 243.979 86.7939C243.433 86.5935 243.014 87.0963 242.916 87.659C242.901 88.3025 243.105 88.9322 243.492 89.446C243.888 89.9883 244.346 90.4818 244.858 90.9161C246.274 92.2034 247.792 93.2605 249.253 94.403C250.03 96.7232 251.024 98.965 252.222 101.098C252.622 101.871 253.036 102.653 253.439 103.438C252.628 102.586 251.805 101.737 250.906 100.939C250.357 100.475 249.752 100.081 249.106 99.7655C248.551 99.4391 247.904 99.3068 247.266 99.3894C246.719 99.4978 246.274 99.9934 246.525 100.512C245.943 100.565 245.786 101.201 245.963 101.722C246.222 102.313 246.675 102.798 247.248 103.097C247.837 103.422 248.463 103.675 249.113 103.85C250.753 104.34 252.382 104.647 254.02 105.001C255.693 108.583 256.881 112.335 256.032 116.269C255.983 116.303 255.949 116.354 255.936 116.412C255.824 116.841 255.726 117.281 255.625 117.708C255.615 117.793 255.635 117.878 255.681 117.95C255.728 118.021 255.798 118.074 255.879 118.099C255.961 118.124 256.048 118.12 256.127 118.087C256.205 118.054 256.27 117.994 256.309 117.918C258.169 113.599 256.662 108.737 254.752 104.708C254.08 103.31 253.337 101.927 252.591 100.531C253.126 98.9316 253.694 97.3746 254.103 95.7009C254.278 95.0569 254.379 94.3949 254.403 93.7278C254.437 93.0862 254.251 92.4521 253.874 91.9314C253.519 91.508 252.904 91.3336 252.551 91.7985C252.234 91.3182 251.609 91.4668 251.231 91.8628C250.828 92.3616 250.611 92.9851 250.617 93.6263C250.604 94.2937 250.67 94.9602 250.813 95.6121C251.007 96.5862 251.195 97.5366 251.502 98.4633C249.809 95.5131 248.901 92.1775 248.866 88.7759C250.267 87.6217 251.679 86.5269 253.016 85.2372C253.512 84.7949 253.952 84.2931 254.325 83.7432C254.69 83.215 254.869 82.5801 254.832 81.9391C254.726 81.4045 254.32 80.9169 253.783 81.1345C253.765 80.5455 253.158 80.3449 252.616 80.477C252.014 80.6921 251.503 81.1069 251.17 81.6525C250.809 82.2138 250.514 82.815 250.291 83.4441C249.778 84.7804 249.383 86.0931 249.003 87.477C249.044 87.185 249.095 86.8787 249.159 86.5819C249.648 84.2505 250.59 81.965 250.404 79.5327C250.346 78.9611 250.234 78.3964 250.07 77.8459C250.806 76.3295 251.574 74.8441 252.206 73.2373C252.49 72.6214 252.701 71.9746 252.836 71.3099Z" fill="#265113"/>
<path fill-rule="evenodd" clip-rule="evenodd" d="M339.606 54.8753C339.342 54.1047 339.347 53.2679 339.618 52.5C339.927 51.8676 340.613 51.424 341.192 51.8852C341.412 51.1866 342.232 51.1355 342.831 51.4898C343.494 51.9673 343.976 52.655 344.199 53.4411C344.441 54.2562 344.585 55.0974 344.627 55.9466C344.758 57.3418 344.781 58.716 344.789 60.0741C345.24 58.7884 345.82 57.5514 346.519 56.3816C347.789 54.147 349.657 51.6649 351.193 49.0579C350.216 47.3269 349.174 45.6543 348.372 43.8241C348.039 43.159 347.784 42.4576 347.613 41.7339C347.406 41.0501 347.444 40.3158 347.718 39.6564C348.023 39.1164 348.657 38.7781 349.129 39.2185C349.375 38.6292 350.099 38.6504 350.606 39C351.154 39.4588 351.525 40.0938 351.657 40.7964C351.813 41.5247 351.884 42.2687 351.869 43.0134C351.885 44.8193 351.688 46.5836 351.599 48.3533C353.548 44.8879 354.783 41.2166 353.236 37.6363C351.604 35.7333 349.887 33.9804 348.355 31.9436C347.83 31.2814 347.385 30.5599 347.029 29.7938C346.673 29.0667 346.573 28.2407 346.746 27.4499C346.965 26.7821 347.592 26.2738 348.221 26.645C348.35 25.9264 349.16 25.7821 349.794 26.061C350.511 26.4406 351.075 27.0582 351.387 27.8077C351.734 28.5783 351.983 29.389 352.129 30.2212C352.592 32.3582 352.81 34.452 353.088 36.5797C354.007 38.2143 354.398 40.0935 354.205 41.9589C354.775 40.1517 355.312 38.3737 356.019 36.5889C356.314 35.833 356.692 35.1121 357.146 34.4396C357.565 33.7939 358.194 33.3132 358.927 33.0794C359.583 32.9274 360.312 33.1493 360.306 33.8896C360.966 33.6452 361.476 34.2418 361.566 34.9097C361.595 35.6833 361.36 36.4438 360.901 37.067C360.428 37.7229 359.88 38.3216 359.268 38.8513C357.646 40.4202 355.789 41.7612 354.023 43.1222C353.535 45.5949 352.6 47.9578 351.264 50.0952C350.218 51.8629 349.022 53.5459 347.916 55.2951C349.275 54.0369 350.589 52.7611 352.083 51.6022C352.702 51.0822 353.382 50.6399 354.109 50.2852C354.793 49.9328 355.575 49.8202 356.331 49.9655C356.97 50.152 357.479 50.7486 357.141 51.3486C357.833 51.3836 357.976 52.2239 357.728 52.844C357.381 53.5317 356.809 54.0799 356.107 54.3975C355.384 54.7476 354.619 55.0044 353.831 55.1619C351.66 55.6848 349.518 55.9469 347.357 56.2851C346.649 57.4941 346.067 58.7727 345.621 60.1007C344.733 63.0709 344.956 66.2626 346.247 69.0807C346.342 67.2033 346.344 65.3365 346.533 63.4176C346.607 62.5658 346.778 61.7254 347.046 60.9132C347.299 60.132 347.805 59.4573 348.485 58.9957C349.103 58.6721 349.933 58.7294 350.128 59.449C350.737 59.0015 351.421 59.5143 351.637 60.1115C351.863 60.8979 351.821 61.7372 351.517 62.4968C351.229 63.3058 350.848 64.0787 350.382 64.8C349.189 66.73 347.852 68.4675 346.542 70.2681C346.802 70.9292 347.092 71.6073 347.365 72.2999C348.357 74.7704 348.817 77.4221 348.715 80.0822C348.951 78.7827 349.202 77.484 349.545 76.1745C349.733 75.3423 350.028 74.5378 350.422 73.7812C350.754 73.0427 351.329 72.4401 352.051 72.0738C352.712 71.8295 353.52 72.0092 353.561 72.7363C354.226 72.3843 354.831 72.9393 355.058 73.6297C355.197 74.4372 355.057 75.2678 354.662 75.9856C354.261 76.7444 353.775 77.4549 353.212 78.1032C351.668 79.9691 349.951 81.5795 348.321 83.3022C347.769 86.366 346.93 89.3712 345.816 92.2783C345.439 93.3238 345.078 94.3701 344.715 95.4471C345.58 94.2103 346.458 93.005 347.444 91.8205C347.974 91.1518 348.585 90.5505 349.262 90.0301C349.893 89.5052 350.688 89.2178 351.509 89.218C352.217 89.2537 352.869 89.7804 352.633 90.4936C353.391 90.4547 353.707 91.2112 353.579 91.9145C353.358 92.7003 352.877 93.3883 352.216 93.8666C351.534 94.3845 350.792 94.8184 350.006 95.159C348.03 96.0929 346.036 96.779 344.04 97.5112C342.577 102.344 341.772 107.271 343.582 112.068C343.65 112.101 343.702 112.159 343.728 112.229C343.948 112.765 344.153 113.285 344.358 113.804C344.387 113.909 344.378 114.02 344.332 114.119C344.287 114.217 344.209 114.297 344.111 114.343C344.013 114.39 343.902 114.4 343.797 114.373C343.692 114.346 343.599 114.283 343.536 114.195C340.4 109.099 341.402 102.701 343.064 97.2768C343.638 95.3927 344.334 93.5148 345.016 91.6207C344.048 89.7204 343.031 87.8486 342.224 85.8176C341.879 85.0409 341.63 84.2253 341.482 83.3887C341.325 82.5884 341.437 81.7584 341.802 81.029C342.186 80.4467 342.929 80.0985 343.442 80.6335C343.754 79.955 344.583 80.0278 345.133 80.4566C345.732 81.0104 346.12 81.7555 346.23 82.564C346.361 83.4026 346.401 84.253 346.348 85.1002C346.285 86.3621 346.222 87.6086 346.006 88.832C347.586 84.8038 348.115 80.4394 347.541 76.1504C345.566 74.9398 343.569 73.8362 341.665 72.444C340.959 71.9785 340.313 71.4277 339.742 70.804C339.188 70.2105 338.847 69.4498 338.771 68.6413C338.807 67.9334 339.228 67.245 339.944 67.42C339.857 66.6905 340.586 66.3108 341.293 66.3773C342.088 66.5441 342.804 66.9712 343.33 67.591C343.889 68.2299 344.372 68.9327 344.767 69.6847C345.674 71.2734 346.412 72.8535 347.145 74.5259C347.04 74.1657 346.919 73.8048 346.784 73.4277C345.724 70.5816 344.133 67.8785 343.919 64.782C343.879 64.0518 343.916 63.3193 344.029 62.5968C342.823 60.8234 341.583 59.0945 340.492 57.188C340.109 56.4537 339.811 55.6776 339.606 54.8753Z" fill="#265113"/>
<path fill-rule="evenodd" clip-rule="evenodd" d="M56.4819 107.412C56.5747 105.294 56.7854 103.183 57.1129 101.089C57.1698 101.157 57.2461 101.206 57.3318 101.23C57.8826 101.387 58.4624 101.415 59.0256 101.31C59.5888 101.205 60.1198 100.971 60.5768 100.626C61.1176 100.202 62.122 99.0967 61.8001 98.3127C61.4782 97.5288 59.8299 97.8886 59.2247 98.0429C58.6025 98.1809 58.018 98.4528 57.5121 98.8396C57.8726 96.822 58.2975 94.7786 58.7354 92.7224L58.8641 92.838C59.3053 93.1009 59.7968 93.2687 60.3069 93.3307C60.8169 93.3926 61.3343 93.3474 61.8259 93.1979C62.5341 92.9794 64.0149 92.1312 63.9377 91.2059C63.8604 90.2805 62.2122 90.2549 61.5426 90.2292C60.7022 90.1749 59.8656 90.3814 59.1474 90.8203C59.5981 88.7384 60.0359 86.6564 60.4351 84.5617H60.551C61.118 84.6611 61.7007 84.6205 62.2484 84.4436C62.796 84.2666 63.292 83.9586 63.693 83.5464C64.2209 83.0837 65.161 82.3512 64.4399 81.6315C64.0454 81.3824 63.5997 81.2252 63.136 81.1718C62.6722 81.1184 62.2024 81.1702 61.7614 81.3231C61.474 81.4005 61.2004 81.5219 60.9502 81.6829C61.2979 79.5881 61.5812 77.4933 61.7486 75.4242C62.6759 75.1303 63.4871 74.5527 64.0672 73.7731C64.6473 72.9934 64.9669 72.0514 64.9807 71.0805C64.9762 71.0106 64.9521 70.9434 64.9111 70.8866C64.8701 70.8297 64.8139 70.7856 64.7489 70.7592C64.1983 70.5644 63.5936 70.5893 63.061 70.8288C62.5283 71.0682 62.1089 71.5037 61.8902 72.0443C61.9113 70.1394 61.7821 68.2358 61.5039 66.3511H61.6069C62.4396 65.9391 63.1347 65.2949 63.6078 64.4965C64.081 63.6981 64.3119 62.7798 64.2725 61.8531C64.2657 61.7738 64.2368 61.6981 64.189 61.6344C64.1412 61.5708 64.0764 61.5219 64.002 61.4932C63.5737 61.3549 63.1122 61.3576 62.6855 61.5011C62.2589 61.6446 61.8898 61.9212 61.6327 62.29C61.3418 62.6173 61.0871 62.975 60.8729 63.3567C60.3842 61.4947 59.6888 59.6929 58.7998 57.9848C59.3704 57.2959 59.7367 56.4616 59.8573 55.5759C59.9779 54.6902 59.848 53.7886 59.4822 52.9727C59.4403 52.8862 59.3743 52.8135 59.2921 52.7634C59.2099 52.7133 59.1149 52.6878 59.0186 52.69C58.5469 52.7368 58.1036 52.937 57.757 53.2597C57.4103 53.5825 57.1795 54.0099 57.1 54.4763C57.1 54.6691 56.9841 54.8747 56.9326 55.0932C56.7266 54.8019 56.5076 54.5063 56.2758 54.2065C56.6529 52.9202 56.7104 51.5616 56.4433 50.2482C56.2501 49.4514 55.5805 48.0634 54.5632 48.8474C54.2481 49.1899 54.0139 49.5987 53.878 50.0435C53.742 50.4883 53.7078 50.9579 53.7778 51.4177C53.8121 52.0541 53.9897 52.6745 54.2973 53.233C54.605 53.7915 55.0347 54.2735 55.5547 54.6434C55.9539 55.1446 56.3274 55.6587 56.6751 56.1727C56.086 55.9498 55.4634 55.8282 54.8336 55.8129C54.2542 55.8129 52.8892 55.7101 52.7734 56.494C52.6575 57.278 54.061 58.486 54.8208 58.7559C55.3481 58.9289 55.9048 58.9942 56.4579 58.9478C57.011 58.9014 57.5491 58.7444 58.04 58.486C58.8667 60.0552 59.5187 61.7101 59.9844 63.421C59.5085 63.0569 58.9725 62.7785 58.4006 62.5985C57.8082 62.3929 56.8682 62.0459 56.7008 62.9069C56.6799 63.3921 56.7699 63.8756 56.964 64.321C57.1581 64.7663 57.4512 65.1617 57.8211 65.4772C58.6162 66.1412 59.6311 66.485 60.6669 66.4411C60.934 68.1677 61.0718 69.9117 61.079 71.6588C60.845 71.1454 60.5102 70.6841 60.0944 70.3022C59.6785 69.9203 59.1901 69.6256 58.6581 69.4355C58.5889 69.4255 58.5184 69.4333 58.4531 69.458C58.3878 69.4827 58.3298 69.5236 58.2847 69.5768C57.9788 70.0194 57.791 70.5326 57.7392 71.0678C57.6874 71.603 57.7732 72.1426 57.9885 72.6355C58.2358 73.2219 58.6082 73.7475 59.0796 74.1759C59.551 74.6042 60.1102 74.9249 60.7184 75.1158C60.7988 75.1349 60.8827 75.1349 60.9631 75.1158C60.8086 77.3263 60.4995 79.5753 60.1261 81.8243C60.0052 81.2305 59.7349 80.6771 59.3407 80.2162C58.9464 79.7553 58.4413 79.4021 57.8726 79.1897C57.8254 79.1687 57.7744 79.1572 57.7227 79.1562C57.6709 79.1552 57.6195 79.1646 57.5714 79.1837C57.5234 79.2029 57.4797 79.2315 57.443 79.2679C57.4062 79.3042 57.3772 79.3476 57.3575 79.3954C57.1545 79.8255 57.0491 80.295 57.0491 80.7705C57.0491 81.2459 57.1545 81.7155 57.3575 82.1456C57.9472 82.9641 58.788 83.5686 59.7526 83.8677C59.3921 85.8082 58.98 87.7231 58.5551 89.6894C58.1697 88.6699 57.3969 87.8433 56.4046 87.389C56.3239 87.3572 56.2349 87.3525 56.1513 87.3757C56.0676 87.3989 55.9938 87.4487 55.9411 87.5175C55.7411 87.8861 55.6175 88.2911 55.5777 88.7084C55.5378 89.1257 55.5826 89.5468 55.7093 89.9464C55.8919 90.4452 56.1829 90.8975 56.5614 91.2708C56.9399 91.644 57.3964 91.9291 57.8984 92.1055H58.0271C57.5249 94.393 57.0485 96.6677 56.6493 98.9167C56.3718 98.3021 55.9471 97.7649 55.4127 97.3526C54.8783 96.9402 54.2505 96.6653 53.5846 96.5521C53.4979 96.5365 53.4086 96.551 53.3313 96.5931C53.254 96.6352 53.1935 96.7023 53.1596 96.7834C53.0555 97.2236 53.0476 97.681 53.1365 98.1246C53.2253 98.5681 53.4089 98.9874 53.6747 99.3537C53.9979 99.7268 54.3918 100.032 54.8338 100.253C55.2758 100.474 55.7571 100.605 56.2501 100.639H56.3531C55.9967 102.813 55.7688 105.005 55.6707 107.206C55.6707 107.707 56.4433 107.836 56.4561 107.322L56.4819 107.412Z" fill="#5EAD41"/>
<path fill-rule="evenodd" clip-rule="evenodd" d="M43.191 55.4092C36.6718 60.3655 35.4786 68.4156 34.7536 76.117L34.7979 76.4496L34.8217 76.6288C34.3474 78.3531 34.1171 80.1374 34.1375 81.9287C30.6866 75.3299 27.256 68.8846 20.6225 65.0532C20.5273 64.9902 20.4162 64.9565 20.3026 64.9561C20.1891 64.9557 20.0779 64.9886 19.9827 65.0509C19.8875 65.1132 19.8123 65.2022 19.7662 65.3071C19.7201 65.4119 19.7051 65.5281 19.723 65.6416C20.8296 73.9587 27.4141 78.9687 33.8225 83.429C33.9287 83.513 34.0632 83.5513 34.1969 83.5355C34.3715 85.9704 34.7618 88.3851 35.3627 90.7508C35.4138 91.1347 35.4649 91.5186 35.516 91.9024L35.2126 91.9428C28.8311 85.5138 20.9373 80.8356 12.2799 78.3518C12.1598 78.3156 12.0315 78.3193 11.9138 78.3623C11.7962 78.4052 11.6952 78.4851 11.6259 78.5904C11.5565 78.6956 11.5223 78.8207 11.5283 78.9473C11.5343 79.0738 11.5802 79.1953 11.6592 79.2939C17.0491 86.1556 26.4489 93.7599 35.7013 93.1018C36.7966 97.2342 38.1948 101.279 39.8843 105.203L39.5051 105.253C33.1283 98.8303 25.2446 94.1518 16.5978 91.6588C16.4776 91.6227 16.3493 91.6263 16.2316 91.6692C16.1139 91.7122 16.0131 91.7922 15.9437 91.8974C15.8743 92.0027 15.8401 92.1277 15.8461 92.2543C15.8521 92.3809 15.8979 92.5023 15.9769 92.6009C21.3382 99.4403 30.7666 107.067 39.9937 106.412C40.1242 106.4 40.2449 106.337 40.3307 106.237C40.8413 107.367 41.3518 108.497 41.913 109.621C42.2324 110.281 43.2972 109.775 42.9525 109.118C42.0009 107.187 41.1217 105.22 40.2897 103.222C45.622 96.8865 52.1998 86.375 51.396 77.627C51.3177 77.0384 50.6249 77.0525 50.3118 77.4067C44.7641 84.0568 39.1464 91.3413 39.0721 100.258C38.0975 97.5752 37.2461 94.8496 36.5176 92.0817C36.1465 90.6465 35.8226 89.1791 35.5527 87.7305C41.4092 82.6279 47.4436 76.9288 47.6435 68.5681C47.6414 68.4555 47.6089 68.3454 47.5497 68.2498C47.4904 68.1542 47.4065 68.0767 47.3071 68.0257C47.2077 67.9746 47.0964 67.9519 46.9854 67.96C46.8744 67.9681 46.7677 68.0067 46.6769 68.0717C40.7065 72.5122 37.8578 79.1418 35.2098 85.927C34.6594 82.6734 34.8951 79.3357 35.8967 76.1993C39.9683 70.058 43.7818 63.7169 43.8713 56.074C43.8832 55.9819 43.8737 55.8882 43.8433 55.8004C43.8129 55.7126 43.7626 55.6331 43.6965 55.5684C43.6303 55.5038 43.5501 55.4556 43.4623 55.428C43.3745 55.4003 43.2816 55.3939 43.191 55.4092Z" fill="#5EAD41"/>
</g>
</g>
<defs>
<clipPath id="clip0_411_4853">
<rect width="375" height="97" fill="transparent"/>
</clipPath>
<clipPath id="clip1_411_4853">
<rect width="375" height="3881" fill="transparent" transform="translate(1 -1478)"/>
</clipPath>
</defs>
</svg>
