<svg viewBox="0 0 793 850" fill="none" xmlns="http://www.w3.org/2000/svg">
<g clip-path="url(#clip0_410_4853)">
<g clip-path="url(#clip1_410_4853)">
<g clip-path="url(#clip2_410_4853)" filter="url(#filter0_d_410_4853)">
<path fill-rule="evenodd" clip-rule="evenodd" d="M668.909 853.388C663.565 847.88 657.071 840.153 651.646 833.906L642.028 822.849L645.727 824.946C647.988 826.261 651.153 828.151 654.646 830.453C662.111 835.224 669.079 840.732 675.444 846.894C677.571 849.027 679.561 851.292 681.404 853.676C681.938 847.963 682.39 842.249 682.719 836.536C682.066 836.612 681.405 836.483 680.828 836.166C676.995 833.731 673.546 830.739 670.594 827.288C665.292 821.781 658.798 814.054 653.372 807.806L643.713 796.75L647.412 798.846C649.714 800.161 652.879 802.052 656.373 804.353C663.831 809.134 670.797 814.641 677.17 820.794C679.289 822.962 681.292 825.239 683.171 827.617C683.5 820.137 683.623 812.656 683.623 805.134C681.815 805.422 678.28 804.107 669.895 798.517C658.666 790.335 648.009 781.395 638 771.76C650.76 777.278 663.12 783.678 674.992 790.913C677.994 792.828 680.864 794.943 683.582 797.243C683.582 796.709 683.582 796.174 683.582 795.64C683.415 795.294 683.328 794.914 683.328 794.53C683.328 794.146 683.415 793.766 683.582 793.42L683.335 786.31C683.335 784.09 683.335 781.871 682.966 779.61C682.58 779.983 682.088 780.226 681.558 780.307C681.028 780.388 680.486 780.303 680.006 780.062C676.324 778.1 672.979 775.561 670.101 772.541C664.881 767.773 658.551 760.95 653.208 755.483L643.795 745.742L647.371 747.386C649.55 748.455 652.632 749.976 656.003 751.866C663.235 755.738 670.017 760.397 676.225 765.759C678.497 767.731 680.6 769.89 682.513 772.212C682.102 766.567 681.609 760.936 681.034 755.319C679.307 755.73 676.184 754.374 668.703 748.085C658.964 739.43 649.87 730.074 641.494 720.094C652.953 726.251 663.943 733.244 674.375 741.015C676.8 742.988 678.691 744.632 680.088 745.989C680.088 745.742 680.088 745.496 680.088 745.249C679.775 744.93 679.553 744.533 679.444 744.1C679.336 743.666 679.345 743.212 679.472 742.783C679.506 742.501 679.575 742.225 679.677 741.961C679.184 738.385 678.691 734.809 678.157 731.233C676.513 731.726 673.8 730.575 666.977 724.205C658.841 715.784 651.391 706.727 644.7 697.119C654.74 703.198 664.279 710.07 673.224 717.669C674.457 718.82 675.485 719.848 676.389 720.752C675.485 715.779 674.499 710.805 673.471 705.873C671.827 706.819 669.361 706.079 661.346 697.941C653.018 688.565 645.406 678.576 638.575 668.06C648.921 675.134 658.717 682.98 667.881 691.529C669.114 692.803 670.142 693.913 671.046 694.94C670.429 692.145 669.813 689.35 669.155 686.72C667.388 686.514 665.333 684.089 661.551 673.978C657.546 661.559 654.441 648.866 652.262 636C659.041 647.151 665.016 658.771 670.142 670.772C670.758 672.416 671.251 673.855 671.662 675.17C675.346 665.248 679.798 655.628 684.98 646.399C684.256 657.41 682.606 668.341 680.047 679.075C676.882 689.72 674.992 690.501 672.896 690.049C674.375 695.68 675.732 701.352 677.006 707.065C677.622 705.709 678.444 704.106 679.513 702.256C683.289 696.056 687.894 690.4 693.2 685.446C695.625 683.062 697.927 681.089 699.571 679.691L702.283 677.554L700.68 680.596L696.858 688.117C693.858 694.118 690.446 701.475 687.446 706.819C685.888 710.125 683.759 713.13 681.157 715.697C680.833 715.958 680.452 716.14 680.045 716.225C679.638 716.311 679.216 716.299 678.814 716.19C679.431 719.437 680.006 722.725 680.499 726.013C680.786 726.42 680.979 726.886 681.064 727.376C681.149 727.866 681.125 728.369 680.993 728.849L682.226 737.522C682.966 736.289 683.87 734.891 685.021 733.412C688.596 728.109 693.816 721.451 697.844 715.82L702.982 708.627L704.996 705.668C704.996 705.668 704.75 706.983 704.256 709.203C703.763 711.422 703.023 714.422 701.955 717.834C699.772 725.069 696.634 731.98 692.624 738.385C690.511 741.848 687.61 744.763 684.158 746.893C683.798 747.116 683.388 747.244 682.966 747.263L683.335 750.592C683.524 750.919 683.64 751.283 683.675 751.659C683.711 752.035 683.665 752.414 683.541 752.771C683.952 756.47 684.281 760.169 684.61 763.868L685.062 763.334C686.295 761.936 688.021 760.169 690.282 757.826C692.542 755.483 695.255 752.812 697.968 749.976C700.68 747.14 703.311 744.18 705.572 741.426C707.832 738.673 709.682 736.042 711.161 734.151L713.34 731.11C713.34 731.11 713.052 732.466 712.477 734.768C711.662 737.809 710.674 740.8 709.517 743.728C708.018 747.518 706.203 751.175 704.092 754.661C702.03 758.078 699.604 761.261 696.858 764.156C694.96 766.19 692.867 768.035 690.611 769.664C689.457 770.557 688.147 771.226 686.747 771.636C686.233 771.754 685.699 771.754 685.185 771.636C685.514 776.569 685.802 781.46 686.048 786.392V789.475C687.158 788.2 688.638 786.639 690.569 784.789C695.132 780.309 701.749 774.966 707.01 770.527L716.546 762.717C716.546 762.717 715.97 763.909 714.902 765.882C713.833 767.855 712.312 770.568 710.463 773.568C706.589 779.963 702.012 785.905 696.817 791.283C694.258 794.27 691.072 796.655 687.487 798.27C687.068 798.367 686.632 798.367 686.213 798.27C686.213 805.381 686.418 812.492 686.213 819.602C687.774 817.917 690.035 815.739 693.2 812.862C699.036 807.518 707.216 801.065 713.751 795.599L725.383 785.94L723.122 789.68C721.684 791.982 719.628 795.188 717.121 798.722C711.936 806.274 705.986 813.271 699.365 819.602C696.043 823.035 692.113 825.823 687.774 827.823C687.213 828.041 686.604 828.111 686.007 828.028C686.007 834.276 685.514 840.564 685.062 846.812C687.755 844.369 690.581 842.077 693.529 839.948C699.858 835.18 708.613 829.508 715.683 824.74L728.013 816.232L725.383 819.726C723.739 821.904 721.273 824.863 718.56 827.946C712.654 834.948 706.058 841.337 698.872 847.017C695.254 850.184 691.071 852.639 686.541 854.251C685.83 854.544 685.033 854.544 684.322 854.251C682.93 870.675 680.597 887.006 677.335 903.162C676.965 905.053 674.088 904.354 674.416 902.464C676.691 889.065 678.54 875.665 679.965 862.266C679.466 862.241 678.976 862.115 678.527 861.896C674.936 859.527 671.698 856.663 668.909 853.388Z" fill="#5EAD41"/>
<path fill-rule="evenodd" clip-rule="evenodd" d="M746.859 880.044C747.155 873.271 747.828 866.52 748.873 859.822C749.054 860.04 749.298 860.198 749.572 860.274C751.33 860.777 753.181 860.864 754.978 860.529C756.776 860.193 758.471 859.445 759.929 858.342C761.656 856.986 764.861 853.451 763.834 850.944C762.806 848.436 757.545 849.587 755.614 850.081C753.628 850.522 751.762 851.392 750.147 852.629C751.298 846.176 752.654 839.641 754.052 833.064L754.463 833.434C755.871 834.275 757.44 834.812 759.068 835.01C760.696 835.208 762.347 835.063 763.916 834.585C766.177 833.886 770.903 831.174 770.657 828.214C770.41 825.255 765.149 825.173 763.012 825.091C760.33 824.917 757.659 825.578 755.367 826.981C756.806 820.323 758.203 813.664 759.477 806.965H759.847C761.657 807.283 763.517 807.153 765.265 806.587C767.013 806.021 768.596 805.036 769.876 803.718C771.561 802.238 774.562 799.895 772.26 797.593C771.001 796.797 769.578 796.294 768.098 796.123C766.618 795.952 765.118 796.118 763.711 796.607C762.793 796.855 761.92 797.243 761.121 797.758C762.231 791.058 763.135 784.359 763.669 777.741C766.629 776.801 769.219 774.954 771.07 772.46C772.922 769.967 773.942 766.954 773.986 763.849C773.972 763.625 773.895 763.41 773.764 763.229C773.633 763.047 773.454 762.906 773.246 762.821C771.489 762.198 769.559 762.278 767.859 763.044C766.158 763.81 764.82 765.202 764.122 766.931C764.189 760.839 763.777 754.751 762.889 748.723H763.217C765.875 747.406 768.094 745.345 769.604 742.792C771.114 740.238 771.851 737.302 771.726 734.338C771.704 734.084 771.612 733.842 771.459 733.638C771.306 733.435 771.1 733.278 770.862 733.187C769.495 732.744 768.022 732.753 766.66 733.212C765.298 733.671 764.12 734.555 763.3 735.735C762.371 736.782 761.558 737.926 760.875 739.147C759.314 733.191 757.095 727.429 754.257 721.966C756.079 719.763 757.248 717.094 757.633 714.262C758.018 711.429 757.603 708.545 756.436 705.936C756.302 705.659 756.091 705.427 755.829 705.267C755.566 705.106 755.263 705.025 754.956 705.032C753.45 705.182 752.035 705.822 750.929 706.854C749.822 707.886 749.086 709.253 748.832 710.745C748.832 711.362 748.462 712.019 748.297 712.718C747.64 711.786 746.941 710.841 746.201 709.882C747.405 705.768 747.588 701.423 746.736 697.223C746.119 694.674 743.982 690.235 740.735 692.742C739.729 693.838 738.981 695.145 738.547 696.568C738.113 697.991 738.004 699.492 738.228 700.963C738.337 702.998 738.904 704.983 739.886 706.769C740.868 708.555 742.24 710.097 743.899 711.279C745.174 712.882 746.366 714.527 747.475 716.171C745.595 715.458 743.608 715.069 741.598 715.02C739.748 715.02 735.391 714.691 735.022 717.198C734.652 719.705 739.132 723.569 741.557 724.432C743.24 724.985 745.017 725.194 746.782 725.046C748.548 724.898 750.265 724.395 751.832 723.569C754.471 728.588 756.552 733.88 758.039 739.352C756.519 738.188 754.809 737.297 752.983 736.722C751.092 736.064 748.092 734.954 747.558 737.708C747.491 739.26 747.778 740.806 748.398 742.23C749.017 743.655 749.953 744.919 751.133 745.928C753.671 748.052 756.911 749.151 760.217 749.011C761.07 754.533 761.509 760.111 761.532 765.698C760.785 764.056 759.717 762.581 758.389 761.36C757.062 760.138 755.503 759.196 753.805 758.588C753.584 758.556 753.359 758.581 753.151 758.66C752.942 758.739 752.757 758.87 752.613 759.04C751.637 760.455 751.037 762.097 750.872 763.808C750.707 765.52 750.98 767.246 751.668 768.822C752.457 770.698 753.646 772.379 755.15 773.749C756.655 775.119 758.44 776.144 760.381 776.755C760.638 776.816 760.906 776.816 761.162 776.755C760.669 783.824 759.683 791.017 758.491 798.21C758.105 796.311 757.242 794.541 755.984 793.067C754.725 791.593 753.113 790.463 751.298 789.784C751.147 789.717 750.984 789.68 750.819 789.677C750.654 789.674 750.49 789.704 750.337 789.765C750.183 789.826 750.044 789.918 749.927 790.034C749.809 790.15 749.717 790.289 749.654 790.442C749.006 791.817 748.669 793.319 748.669 794.84C748.669 796.36 749.006 797.862 749.654 799.238C751.536 801.855 754.22 803.789 757.299 804.745C756.148 810.952 754.833 817.076 753.476 823.364C752.246 820.104 749.78 817.46 746.612 816.007C746.354 815.905 746.071 815.89 745.804 815.965C745.537 816.039 745.301 816.198 745.133 816.418C744.494 817.597 744.1 818.892 743.973 820.227C743.845 821.562 743.988 822.908 744.393 824.186C744.976 825.782 745.905 827.228 747.113 828.422C748.321 829.616 749.778 830.527 751.38 831.092H751.791C750.188 838.408 748.667 845.683 747.393 852.875C746.507 850.91 745.152 849.192 743.446 847.873C741.74 846.554 739.736 845.675 737.611 845.313C737.334 845.263 737.049 845.309 736.802 845.444C736.556 845.578 736.363 845.793 736.255 846.053C735.922 847.461 735.897 848.923 736.181 850.342C736.464 851.761 737.05 853.101 737.899 854.273C738.93 855.466 740.187 856.444 741.598 857.149C743.009 857.855 744.545 858.274 746.119 858.383H746.448C745.31 865.335 744.583 872.349 744.269 879.386C744.269 880.989 746.736 881.4 746.777 879.756L746.859 880.044Z" fill="#5EAD41"/>
<path fill-rule="evenodd" clip-rule="evenodd" d="M713.754 335.847C714.247 335.847 714.453 330.545 716.878 327.626C720.988 322.612 734.634 327.996 727.852 336.258C725.92 338.601 723.248 340.368 723.372 340.368C724.712 339.983 726.09 339.749 727.482 339.669C738.867 339.423 736.689 358.576 723.372 353.685C721.234 352.904 721.687 352.904 722.714 354.795C723.248 355.74 724.029 356.85 724.728 358.001C725.379 359.142 725.576 360.487 725.279 361.767C724.981 363.047 724.212 364.168 723.125 364.906C719.796 367.084 713.836 366.755 712.48 362.604C711.954 360.849 711.609 359.045 711.452 357.22C710.63 350.15 713.261 366.755 701.876 366.468C697.108 366.468 693.409 362.357 698.916 355.987C699.717 355.05 700.582 354.171 701.506 353.356C702.698 352.329 702.739 352.123 701.177 352.575C699.08 353.329 696.81 353.457 694.642 352.945C691.764 351.876 690.203 344.725 692.052 340.984C694.724 335.847 699.615 337.696 702.697 338.724C705.78 339.751 706.808 339.464 703.437 337.491C702.293 336.845 701.207 336.103 700.19 335.271C691.97 328.284 707.671 318.008 711.904 329.928C712.932 332.846 713.261 335.723 713.59 335.723L713.754 335.847ZM710.548 340.45C709.15 341.56 711.247 342.998 712.48 342.382C713.713 341.765 712.48 338.765 710.548 340.45ZM717.206 342.711C715.891 340.327 714.576 339.382 713.754 342.711C713.22 344.889 713.055 347.931 715.973 346.821C716.35 346.66 716.686 346.418 716.959 346.113C717.232 345.808 717.434 345.446 717.551 345.054C717.669 344.662 717.699 344.249 717.64 343.844C717.58 343.439 717.432 343.052 717.206 342.711ZM709.192 343.697C706.315 345.012 707.095 347.807 709.397 347.807C714.453 347.807 712.603 342.135 709.192 343.697ZM711.576 348.424C707.794 350.315 711.576 351.876 714.946 350.479C718.316 349.082 715.069 346.451 711.576 348.177V348.424Z" fill="#5EAD41"/>
<path fill-rule="evenodd" clip-rule="evenodd" d="M632.482 201.852C633.714 201.33 634.762 200.453 635.494 199.333C636.226 198.213 636.608 196.901 636.592 195.563C636.623 195.47 636.623 195.369 636.592 195.275C635.821 194.19 634.746 193.357 633.503 192.881C632.259 192.406 630.903 192.309 629.605 192.604C628.499 192.961 627.468 193.518 626.563 194.248C626.969 193.156 627.178 192.001 627.18 190.837C627.065 189.503 626.553 188.234 625.711 187.194C624.868 186.153 623.734 185.389 622.453 185H622.165C620.884 185.389 619.749 186.153 618.907 187.194C618.064 188.234 617.553 189.503 617.438 190.837C617.452 192 617.661 193.153 618.055 194.248C617.14 193.533 616.112 192.978 615.013 192.604C613.715 192.309 612.359 192.406 611.115 192.881C609.872 193.357 608.797 194.19 608.026 195.275C607.991 195.368 607.991 195.47 608.026 195.563C608.01 196.901 608.392 198.213 609.124 199.333C609.856 200.453 610.904 201.33 612.136 201.852C613.237 202.206 614.393 202.359 615.548 202.304C614.597 202.968 613.751 203.771 613.04 204.688C612.361 205.836 612.038 207.159 612.111 208.49C612.184 209.822 612.651 211.102 613.451 212.168C613.451 212.168 613.451 212.168 613.698 212.168C614.489 212.381 615.304 212.492 616.123 212.497C617.644 212.516 619.121 211.986 620.283 211.005C621.446 210.024 622.216 208.657 622.453 207.154C622.69 208.657 623.46 210.024 624.622 211.005C625.785 211.986 627.262 212.516 628.783 212.497C629.588 212.489 630.389 212.378 631.166 212.168C631.166 212.168 631.372 212.168 631.413 212.168C632.214 211.102 632.68 209.822 632.754 208.49C632.827 207.159 632.503 205.836 631.824 204.688C631.113 203.771 630.268 202.968 629.317 202.304C630.472 202.359 631.627 202.206 632.728 201.852H632.482ZM622.206 185.987C623.249 186.337 624.168 186.981 624.853 187.842C625.539 188.702 625.961 189.742 626.07 190.837C625.85 193.76 624.681 196.531 622.741 198.728C622.741 198.728 622.741 199.18 622.741 193.262C622.746 193.199 622.739 193.136 622.719 193.076C622.698 193.016 622.666 192.961 622.624 192.915C622.581 192.869 622.529 192.831 622.472 192.806C622.414 192.781 622.351 192.768 622.288 192.768C622.158 192.768 622.032 192.82 621.94 192.913C621.847 193.005 621.795 193.131 621.795 193.262V198.317C621.183 197.46 620.525 196.636 619.822 195.851C618.919 194.331 618.424 192.604 618.384 190.837C618.496 189.737 618.924 188.694 619.617 187.833C620.31 186.972 621.238 186.331 622.288 185.987H622.206ZM612.177 200.948C611.176 200.485 610.325 199.75 609.722 198.827C609.119 197.904 608.788 196.83 608.766 195.728C609.415 194.839 610.308 194.156 611.336 193.762C612.364 193.369 613.484 193.28 614.561 193.508C617.289 194.616 619.573 196.596 621.055 199.139C621.055 199.139 621.425 199.139 615.835 197.495C615.716 197.469 615.591 197.488 615.484 197.548C615.378 197.609 615.298 197.707 615.26 197.824C615.22 197.944 615.227 198.075 615.281 198.19C615.334 198.304 615.43 198.394 615.548 198.44L620.357 200.002C619.34 200.286 618.35 200.657 617.397 201.112C615.681 201.522 613.893 201.522 612.177 201.112V200.948ZM619.905 209.867C619.707 210.488 619.364 211.053 618.905 211.516C618.445 211.978 617.883 212.325 617.263 212.527C616.643 212.73 615.984 212.781 615.34 212.679C614.696 212.576 614.086 212.322 613.56 211.937C613.034 211.551 612.607 211.047 612.315 210.464C612.022 209.881 611.872 209.237 611.878 208.586C611.883 207.934 612.044 207.292 612.346 206.715C612.648 206.137 613.084 205.64 613.616 205.263C615.521 203.031 618.105 201.486 620.973 200.865C620.973 200.865 621.22 200.578 617.767 205.304C617.694 205.398 617.654 205.514 617.654 205.633C617.654 205.752 617.694 205.868 617.767 205.962C617.809 206.007 617.86 206.042 617.917 206.067C617.973 206.091 618.034 206.104 618.096 206.104C618.158 206.104 618.218 206.091 618.275 206.067C618.332 206.042 618.383 206.007 618.425 205.962L621.384 201.852C621.281 202.904 621.281 203.964 621.384 205.017C621.18 206.781 620.56 208.471 619.576 209.949L619.905 209.867ZM622.206 200.578C622.075 200.578 621.95 200.526 621.857 200.433C621.765 200.341 621.713 200.215 621.713 200.084C621.713 199.954 621.765 199.828 621.857 199.736C621.95 199.643 622.075 199.591 622.206 199.591C622.269 199.591 622.332 199.604 622.389 199.629C622.447 199.654 622.499 199.691 622.541 199.738C622.584 199.784 622.616 199.839 622.636 199.899C622.657 199.959 622.664 200.022 622.658 200.084C622.659 200.208 622.612 200.328 622.529 200.419C622.445 200.511 622.33 200.567 622.206 200.578ZM630.796 205.263C631.319 205.645 631.744 206.146 632.037 206.723C632.33 207.3 632.482 207.939 632.481 208.586C632.48 209.234 632.327 209.872 632.032 210.449C631.738 211.026 631.312 211.525 630.788 211.906C630.265 212.286 629.659 212.538 629.019 212.64C628.38 212.742 627.725 212.692 627.109 212.493C626.493 212.294 625.933 211.953 625.473 211.497C625.014 211.04 624.669 210.482 624.467 209.867C622.975 207.398 622.299 204.521 622.535 201.646C622.535 201.646 622.535 201.276 625.782 206.044C625.825 206.121 625.887 206.186 625.963 206.23C626.039 206.275 626.126 206.299 626.214 206.299C626.302 206.299 626.388 206.275 626.464 206.23C626.54 206.186 626.603 206.121 626.645 206.044C626.696 205.965 626.724 205.872 626.724 205.777C626.724 205.682 626.696 205.59 626.645 205.51L623.686 201.4C624.689 201.769 625.72 202.057 626.768 202.263C628.363 203.007 629.769 204.103 630.879 205.469L630.796 205.263ZM623.645 200.167C625.317 199.44 627.05 198.862 628.824 198.44C628.942 198.394 629.037 198.304 629.091 198.19C629.144 198.075 629.152 197.944 629.111 197.824C629.073 197.707 628.993 197.609 628.887 197.548C628.781 197.488 628.656 197.469 628.536 197.495L623.686 199.057C624.359 198.225 624.951 197.33 625.453 196.385C626.637 195.071 628.137 194.081 629.81 193.508C630.883 193.286 631.997 193.373 633.023 193.759C634.049 194.144 634.944 194.813 635.605 195.687C635.604 196.794 635.28 197.876 634.675 198.803C634.069 199.73 633.207 200.461 632.194 200.907C629.342 201.629 626.33 201.368 623.645 200.167Z" fill="#5EAD41"/>
</g>
</g>
</g>
<defs>
<filter id="filter0_d_410_4853" x="-134" y="-170" width="1708" height="1118" filterUnits="userSpaceOnUse" color-interpolation-filters="sRGB">
<feFlood flood-opacity="0" result="BackgroundImageFix"/>
<feColorMatrix in="SourceAlpha" type="matrix" values="0 0 0 0 0 0 0 0 0 0 0 0 0 0 0 0 0 0 127 0" result="hardAlpha"/>
<feOffset dy="-36"/>
<feGaussianBlur stdDeviation="67"/>
<feComposite in2="hardAlpha" operator="out"/>
<feColorMatrix type="matrix" values="0 0 0 0 0.236583 0 0 0 0 0.25 0 0 0 0 0.0822917 0 0 0 0.06 0"/>
<feBlend mode="normal" in2="BackgroundImageFix" result="effect1_dropShadow_410_4853"/>
<feBlend mode="normal" in="SourceGraphic" in2="effect1_dropShadow_410_4853" result="shape"/>
</filter>
<clipPath id="clip0_410_4853">
<rect width="793" height="850" fill="white"/>
</clipPath>
<clipPath id="clip1_410_4853">
<rect width="1440" height="3963" fill="white" transform="translate(0 -2363)"/>
</clipPath>
<clipPath id="clip2_410_4853">
<rect width="1440" height="850" fill="white"/>
</clipPath>
</defs>
</svg>
