<svg viewBox="0 0 375 462" fill="none" xmlns="http://www.w3.org/2000/svg">
<g clip-path="url(#clip0_182_14202)">
<path fill-rule="evenodd" clip-rule="evenodd" d="M103.642 33.0697C103.796 33.0697 103.843 34.4593 104.575 35.2475C105.757 36.5646 109.879 35.1438 107.859 32.9867C107.28 32.3644 106.477 31.8874 106.524 31.8459C106.936 31.9518 107.36 32.0145 107.788 32.0326C111.202 32.0948 110.553 27.0754 106.607 28.351C105.957 28.5584 106.099 28.5584 106.406 28.0606C106.56 27.8117 106.796 27.5213 106.997 27.2205C107.196 26.9221 107.258 26.5681 107.17 26.2309C107.083 25.8936 106.852 25.5985 106.524 25.4056C105.532 24.8353 103.76 24.9182 103.347 26.0072C103.192 26.471 103.09 26.9468 103.04 27.428C102.791 29.2843 103.583 24.9182 100.181 25.0012C98.7515 25.0012 97.6529 26.0383 99.2949 27.7494C99.5359 27.9901 99.7923 28.2186 100.063 28.4339C100.429 28.7035 100.441 28.7554 99.9682 28.6413C99.3424 28.4441 98.6637 28.4152 98.0191 28.5583C97.1568 28.8383 96.6842 30.7569 97.2394 31.6696C98.0427 33.0178 99.4957 32.5304 100.429 32.2607C101.362 31.9911 101.61 32.0637 100.642 32.5822C100.301 32.752 99.9769 32.9462 99.6729 33.163C97.2394 34.9986 101.906 37.695 103.217 34.5631C103.524 33.806 103.63 33.0489 103.725 33.0489L103.642 33.0697ZM102.685 31.8666C102.272 31.5659 102.898 31.1925 103.264 31.3585C103.63 31.5244 103.264 32.2918 102.685 31.8666ZM104.67 31.2652C104.292 31.8874 103.89 32.1363 103.642 31.2652C103.488 30.6948 103.429 29.8962 104.304 30.1555C104.413 30.1951 104.511 30.2553 104.59 30.3318C104.67 30.4084 104.729 30.4995 104.764 30.5985C104.799 30.6975 104.809 30.8021 104.792 30.9047C104.776 31.0074 104.734 31.1057 104.67 31.1926V31.2652ZM102.307 31.0059C101.445 30.6637 101.693 29.9688 102.378 29.9688C103.89 29.9688 103.335 31.4622 102.307 31.0059ZM103.028 29.7614C101.846 29.274 103.028 28.8591 104.032 29.2325C105.036 29.6058 104.091 30.2384 103.016 29.7614H103.028Z" fill="white"/>
<path fill-rule="evenodd" clip-rule="evenodd" d="M39.3059 58.0738C39.6366 58.0738 39.7384 61.3584 41.3159 63.2214C43.8602 66.3345 52.7399 62.9763 48.3891 57.8776C47.1424 56.4068 45.4122 55.2793 45.514 55.1813C46.4002 55.4315 47.314 55.5796 48.2364 55.6225C55.5895 55.7696 54.1901 43.9054 45.6921 46.9205C44.2927 47.4107 44.598 47.4107 45.2596 46.2341C45.5903 45.6457 46.0992 44.9594 46.5317 44.2485C46.9609 43.5431 47.0945 42.7064 46.9054 41.9093C46.7163 41.1122 46.2187 40.4146 45.514 39.9588C43.3768 38.6106 39.5603 38.8067 38.6698 41.3806C38.3377 42.4769 38.1161 43.6015 38.0083 44.7388C37.474 49.1266 39.1787 38.8067 31.8511 39.0028C28.7724 39.0028 26.4062 41.4541 29.9428 45.4987C30.462 46.0676 31.0141 46.6077 31.5966 47.1165C32.3854 47.7538 32.4108 47.8764 31.3931 47.6068C30.0451 47.1406 28.5834 47.0723 27.195 47.4106C25.3376 48.0725 24.3199 52.6073 25.5157 54.7644C27.2458 57.9511 30.3753 56.799 32.3854 56.1617C34.3954 55.5244 34.9297 55.6959 32.8433 56.9216C32.1097 57.3228 31.4119 57.782 30.757 58.2943C25.5157 62.633 35.5657 69.0064 38.3899 61.6036C39.0515 59.8142 39.2805 58.0247 39.484 58.0247L39.3059 58.0738ZM37.245 55.2302C36.3545 54.5193 37.703 53.6369 38.4917 54.0291C39.2804 54.4213 38.4917 56.2352 37.245 55.2302ZM41.5194 53.8086C40.7052 55.2793 39.8402 55.8676 39.3059 53.8086C38.9751 52.4604 38.8479 50.5729 40.7307 51.1857C40.9658 51.2792 41.1766 51.4215 41.3481 51.6025C41.5196 51.7835 41.6475 51.9988 41.7229 52.2328C41.7982 52.4669 41.819 52.714 41.7838 52.9567C41.7487 53.1994 41.6584 53.4317 41.5194 53.637V53.8086ZM36.4308 53.1957C34.5735 52.3868 35.1077 50.7445 36.5835 50.7445C39.8402 50.7445 38.6444 54.2743 36.4308 53.1957ZM37.9828 50.2542C35.4385 49.1021 37.9828 48.1215 40.1455 49.004C42.3082 49.8865 40.2727 51.3818 37.9574 50.2542H37.9828Z" fill="white"/>
<path fill-rule="evenodd" clip-rule="evenodd" d="M330.091 500.262C329.879 494.808 329.96 489.347 330.331 483.902C330.486 484.058 330.685 484.163 330.901 484.204C332.348 484.48 333.839 484.418 335.258 484.023C336.676 483.628 337.985 482.91 339.08 481.926C340.351 480.728 342.705 477.646 341.735 475.684C340.765 473.722 336.598 475.075 334.981 475.6C333.421 476.078 331.993 476.913 330.813 478.04C331.281 472.756 331.904 467.426 332.607 461.897C332.718 462.01 332.845 462.107 332.983 462.184C334.174 462.755 335.469 463.072 336.788 463.117C338.108 463.162 339.422 462.933 340.648 462.445C342.407 461.717 345.993 459.199 345.599 456.867C345.204 454.535 340.975 454.807 339.256 454.892C337.086 454.955 334.986 455.673 333.232 456.951C333.908 451.488 334.616 446.023 335.006 440.585C335.113 440.602 335.222 440.592 335.324 440.558C336.795 440.689 338.276 440.457 339.637 439.881C340.998 439.306 342.196 438.405 343.127 437.257C344.389 435.965 346.627 433.755 344.637 432.202C343.573 431.649 342.399 431.341 341.2 431.301C340.002 431.262 338.809 431.491 337.711 431.973C336.988 432.25 336.31 432.632 335.699 433.107C336.119 427.635 336.382 422.208 336.331 416.841C338.649 415.881 340.606 414.215 341.924 412.08C343.242 409.945 343.855 407.45 343.675 404.947C343.641 404.77 343.56 404.606 343.442 404.47C343.323 404.334 343.171 404.232 343 404.175C341.56 403.802 340.033 403.988 338.725 404.695C337.416 405.402 336.423 406.577 335.945 407.985C335.59 403.084 334.836 398.22 333.689 393.441C333.774 393.466 333.864 393.458 333.943 393.419C335.989 392.18 337.63 390.371 338.663 388.214C339.697 386.057 340.078 383.645 339.762 381.274C339.734 381.074 339.648 380.886 339.516 380.733C339.383 380.58 339.21 380.469 339.015 380.412C337.885 380.169 336.707 380.285 335.647 380.744C334.586 381.203 333.695 381.982 333.099 382.973C332.431 383.886 331.863 384.868 331.403 385.902C329.737 381.233 327.546 376.768 324.874 372.593C326.198 370.701 326.96 368.472 327.071 366.165C327.181 363.858 326.637 361.567 325.499 359.557C325.382 359.338 325.201 359.16 324.979 359.048C324.758 358.936 324.507 358.894 324.262 358.929C323.106 359.165 322.055 359.763 321.263 360.637C320.47 361.511 319.978 362.615 319.856 363.789C319.741 364.31 319.661 364.861 319.581 365.411C318.976 364.696 318.338 363.984 317.704 363.304C318.377 359.919 318.215 356.422 317.233 353.113C316.578 351.092 314.521 347.658 312.127 349.912C311.427 350.83 310.933 351.888 310.678 353.013C310.423 354.139 310.412 355.306 310.647 356.436C310.877 358.064 311.472 359.619 312.388 360.985C313.304 362.351 314.518 363.491 315.937 364.321C317.066 365.534 318.131 366.752 319.136 368.008C317.583 367.567 315.968 367.383 314.356 367.464C312.865 367.594 309.32 367.646 309.208 369.67C309.045 372.211 312.985 374.49 314.949 375.023C316.343 375.357 317.79 375.407 319.203 375.169C320.617 374.931 321.967 374.409 323.174 373.636C325.629 377.497 327.669 381.607 329.26 385.897C327.95 385.08 326.516 384.481 325.013 384.124C323.446 383.748 320.957 383.07 320.703 385.298C320.732 386.579 321.062 387.835 321.666 388.966C322.27 390.096 323.13 391.069 324.178 391.806C326.348 393.352 329.022 394.021 331.664 393.681C332.746 398.051 333.496 402.497 333.907 406.98C333.176 405.7 332.192 404.583 331.016 403.696C329.839 402.809 328.495 402.17 327.064 401.819C326.883 401.808 326.703 401.845 326.541 401.926C326.38 402.008 326.243 402.131 326.145 402.283C325.461 403.479 325.095 404.831 325.081 406.208C325.066 407.586 325.404 408.945 326.062 410.156C326.829 411.599 327.9 412.859 329.2 413.85C330.501 414.841 332 415.538 333.595 415.896C333.806 415.956 334.032 415.936 334.23 415.841C334.346 421.586 334.052 427.399 333.602 433.257C333.153 431.763 332.335 430.406 331.223 429.312C330.11 428.219 328.74 427.423 327.238 427C326.985 426.922 326.711 426.943 326.471 427.058C326.232 427.174 326.046 427.376 325.95 427.624C325.53 428.777 325.367 430.008 325.473 431.23C325.58 432.453 325.952 433.637 326.565 434.701C328.257 436.679 330.557 438.042 333.105 438.576C332.589 443.673 331.975 448.747 331.234 453.831C330.014 451.311 327.861 449.365 325.231 448.406C325.015 448.335 324.782 448.338 324.569 448.415C324.355 448.491 324.174 448.636 324.052 448.828C323.609 449.835 323.376 450.922 323.367 452.022C323.358 453.123 323.574 454.213 324.001 455.227C324.583 456.464 325.432 457.556 326.486 458.427C327.54 459.297 328.774 459.923 330.098 460.261L330.416 460.233C329.659 466.246 328.929 472.193 328.416 478.057C327.568 476.535 326.358 475.245 324.893 474.302C323.428 473.358 321.753 472.791 320.016 472.648C319.793 472.64 319.573 472.704 319.389 472.829C319.204 472.954 319.064 473.135 318.989 473.345C318.816 474.515 318.898 475.708 319.228 476.844C319.559 477.98 320.131 479.031 320.904 479.925C321.777 480.957 322.859 481.792 324.078 482.375C325.297 482.958 326.626 483.275 327.977 483.307L328.263 483.282C327.848 488.929 327.753 494.595 327.98 500.253C328.093 501.554 330.091 501.733 330.007 500.397L330.091 500.262Z" fill="#265113"/>
<path fill-rule="evenodd" clip-rule="evenodd" d="M322.924 490.101C321.448 486.479 319.78 482.939 317.926 479.495C317.872 479.643 317.773 479.771 317.644 479.861C316.781 480.469 315.79 480.87 314.747 481.032C313.704 481.194 312.638 481.113 311.632 480.794C310.448 480.389 308 479.074 308.052 477.506C308.105 475.939 311.225 475.589 312.435 475.453C313.595 475.303 314.774 475.426 315.878 475.812C314.009 472.502 312.025 469.208 309.931 465.807C309.892 465.914 309.838 466.015 309.77 466.106C309.162 466.831 308.41 467.421 307.563 467.841C306.715 468.261 305.79 468.5 304.845 468.544C303.481 468.589 300.396 468.007 299.963 466.368C299.531 464.73 302.371 463.656 303.519 463.203C304.953 462.602 306.536 462.449 308.059 462.764C306.002 459.399 303.923 456.042 302.059 452.608C301.995 452.651 301.921 452.677 301.844 452.684C300.922 453.205 299.887 453.492 298.829 453.519C297.771 453.546 296.722 453.312 295.775 452.839C294.569 452.369 292.454 451.589 293.293 449.987C293.824 449.311 294.499 448.763 295.27 448.382C296.041 448.001 296.887 447.798 297.746 447.788C298.3 447.755 298.855 447.804 299.394 447.933C297.502 444.486 295.724 441.022 294.169 437.504C292.372 437.563 290.602 437.055 289.111 436.052C287.619 435.048 286.481 433.601 285.858 431.914C285.828 431.789 285.831 431.657 285.869 431.534C285.906 431.41 285.975 431.299 286.069 431.21C286.899 430.542 287.951 430.211 289.014 430.285C290.077 430.359 291.073 430.833 291.801 431.61C290.583 428.306 289.636 424.909 288.97 421.451C288.923 421.492 288.861 421.514 288.798 421.511C287.096 421.308 285.491 420.613 284.178 419.511C282.865 418.409 281.902 416.948 281.407 415.307C281.367 415.168 281.367 415.02 281.408 414.881C281.449 414.742 281.529 414.618 281.639 414.523C282.305 414.03 283.108 413.757 283.936 413.743C284.765 413.729 285.576 413.974 286.258 414.444C286.964 414.843 287.626 415.315 288.232 415.854C287.938 412.314 288.046 408.752 288.555 405.236C287.131 404.393 285.975 403.164 285.22 401.691C284.465 400.218 284.143 398.562 284.29 396.913C284.302 396.736 284.368 396.566 284.479 396.427C284.59 396.289 284.741 396.187 284.912 396.137C285.736 395.949 286.599 396.029 287.375 396.365C288.15 396.701 288.799 397.276 289.225 398.005C289.454 398.312 289.669 398.648 289.885 398.983C290.068 398.337 290.274 397.684 290.487 397.052C289.046 395.043 288.116 392.712 287.779 390.262C287.608 388.749 287.935 385.899 290.164 386.662C290.892 387.054 291.527 387.598 292.027 388.257C292.527 388.916 292.879 389.675 293.06 390.482C293.392 391.613 293.464 392.804 293.27 393.966C293.076 395.128 292.621 396.232 291.94 397.194C291.563 398.319 291.228 399.429 290.944 400.546C291.827 399.799 292.826 399.201 293.902 398.777C294.914 398.42 297.243 397.406 297.915 398.694C298.773 400.303 296.876 402.957 295.751 403.885C294.941 404.516 294.011 404.977 293.018 405.239C292.025 405.502 290.99 405.562 289.973 405.414C289.514 408.66 289.398 411.946 289.629 415.216C290.242 414.296 291.001 413.48 291.876 412.803C292.788 412.094 294.211 410.915 295.036 412.294C295.396 413.139 295.553 414.056 295.493 414.972C295.434 415.889 295.16 416.778 294.694 417.57C293.735 419.22 292.188 420.448 290.363 421.008C290.95 424.18 291.776 427.303 292.834 430.351C292.932 429.3 293.244 428.279 293.749 427.352C294.255 426.425 294.943 425.611 295.773 424.958C295.888 424.897 296.016 424.868 296.146 424.874C296.275 424.879 296.401 424.919 296.51 424.989C297.31 425.568 297.949 426.341 298.366 427.236C298.783 428.131 298.965 429.118 298.894 430.102C298.82 431.272 298.494 432.411 297.938 433.442C297.383 434.473 296.611 435.372 295.675 436.078C295.555 436.179 295.402 436.233 295.245 436.229C296.869 440.013 298.781 443.72 300.808 447.41C300.658 446.303 300.791 445.175 301.193 444.132C301.596 443.089 302.255 442.164 303.109 441.444C303.252 441.318 303.437 441.25 303.627 441.255C303.818 441.26 303.999 441.337 304.135 441.47C304.75 442.098 305.221 442.853 305.513 443.682C305.805 444.512 305.913 445.395 305.827 446.27C305.308 448.062 304.211 449.632 302.706 450.735C304.551 453.909 306.452 457.038 308.44 460.137C308.491 458.131 309.32 456.224 310.753 454.82C310.873 454.71 311.026 454.643 311.188 454.63C311.349 454.617 311.511 454.658 311.647 454.747C312.234 455.273 312.708 455.913 313.039 456.629C313.371 457.344 313.552 458.12 313.574 458.908C313.56 459.888 313.329 460.852 312.899 461.732C312.468 462.611 311.848 463.385 311.084 463.997L310.868 464.073C313.141 467.774 315.377 471.439 317.447 475.114C317.55 473.87 317.958 472.67 318.635 471.621C319.312 470.572 320.238 469.706 321.329 469.099C321.472 469.028 321.634 469.004 321.792 469.031C321.949 469.058 322.094 469.135 322.205 469.25C322.664 469.962 322.964 470.765 323.084 471.604C323.205 472.443 323.143 473.298 322.902 474.111C322.638 475.042 322.179 475.907 321.556 476.649C320.932 477.39 320.159 477.99 319.287 478.411L319.093 478.479C321.035 482.042 322.773 485.712 324.299 489.471C324.61 490.354 323.359 491.061 323.019 490.165L322.924 490.101Z" fill="#92D660"/>
</g>
<defs>
<clipPath id="clip0_182_14202">
<rect width="375" height="462" fill="white"/>
</clipPath>
</defs>
</svg>
