<svg viewBox="0 0 1440 850" fill="none" xmlns="http://www.w3.org/2000/svg">
<g clip-path="url(#clip0_182_7267)">
<path fill-rule="evenodd" clip-rule="evenodd" d="M1360.9 930.336C1360.46 918.798 1360.63 907.244 1361.41 895.723C1361.74 896.054 1362.16 896.277 1362.62 896.362C1365.68 896.947 1368.83 896.816 1371.83 895.98C1374.84 895.144 1377.6 893.626 1379.92 891.543C1382.61 889.009 1387.59 882.488 1385.54 878.337C1383.49 874.186 1374.67 877.049 1371.25 878.159C1367.95 879.17 1364.93 880.938 1362.43 883.322C1363.42 872.142 1364.74 860.865 1366.23 849.168C1366.46 849.407 1366.73 849.612 1367.02 849.775C1369.54 850.982 1372.28 851.654 1375.07 851.749C1377.86 851.844 1380.65 851.36 1383.24 850.327C1386.96 848.786 1394.55 843.458 1393.71 838.525C1392.88 833.592 1383.93 834.166 1380.29 834.347C1375.7 834.481 1371.26 836 1367.55 838.703C1368.98 827.146 1370.48 815.583 1371.3 804.078C1371.53 804.113 1371.76 804.093 1371.98 804.02C1375.09 804.298 1378.22 803.806 1381.1 802.589C1383.98 801.371 1386.51 799.465 1388.48 797.037C1391.15 794.302 1395.89 789.628 1391.68 786.341C1389.43 785.171 1386.94 784.52 1384.41 784.436C1381.87 784.352 1379.35 784.838 1377.03 785.857C1375.5 786.443 1374.06 787.251 1372.77 788.256C1373.66 776.679 1374.21 765.197 1374.11 753.842C1379.01 751.81 1383.15 748.286 1385.94 743.77C1388.73 739.253 1390.02 733.973 1389.64 728.678C1389.57 728.304 1389.4 727.956 1389.15 727.668C1388.9 727.381 1388.58 727.166 1388.22 727.044C1385.17 726.256 1381.94 726.65 1379.17 728.145C1376.4 729.64 1374.3 732.127 1373.29 735.106C1372.54 724.736 1370.94 714.445 1368.52 704.335C1368.7 704.387 1368.89 704.371 1369.05 704.288C1373.38 701.667 1376.85 697.84 1379.04 693.276C1381.23 688.712 1382.03 683.61 1381.36 678.594C1381.31 678.17 1381.12 677.773 1380.84 677.449C1380.56 677.125 1380.2 676.889 1379.79 676.769C1377.39 676.254 1374.9 676.5 1372.66 677.471C1370.41 678.443 1368.53 680.092 1367.27 682.187C1365.86 684.12 1364.65 686.197 1363.68 688.385C1360.15 678.507 1355.52 669.06 1349.87 660.226C1352.67 656.222 1354.28 651.508 1354.51 646.627C1354.75 641.746 1353.6 636.898 1351.19 632.645C1350.94 632.182 1350.56 631.806 1350.09 631.569C1349.62 631.331 1349.09 631.243 1348.57 631.317C1346.13 631.816 1343.9 633.082 1342.23 634.931C1340.55 636.78 1339.51 639.116 1339.25 641.599C1339.01 642.702 1338.84 643.867 1338.67 645.032C1337.39 643.519 1336.04 642.013 1334.7 640.574C1336.12 633.413 1335.78 626.012 1333.7 619.013C1332.31 614.736 1327.96 607.47 1322.9 612.24C1321.42 614.182 1320.37 616.42 1319.83 618.801C1319.29 621.182 1319.27 623.651 1319.77 626.042C1320.25 629.487 1321.51 632.778 1323.45 635.667C1325.39 638.556 1327.96 640.97 1330.96 642.725C1333.35 645.291 1335.6 647.869 1337.73 650.525C1334.44 649.592 1331.02 649.204 1327.61 649.375C1324.46 649.65 1316.96 649.76 1316.72 654.043C1316.38 659.417 1324.71 664.24 1328.87 665.367C1331.82 666.075 1334.88 666.18 1337.87 665.676C1340.86 665.172 1343.72 664.069 1346.27 662.433C1351.46 670.602 1355.78 679.297 1359.15 688.373C1356.37 686.645 1353.34 685.378 1350.16 684.622C1346.84 683.828 1341.58 682.391 1341.04 687.106C1341.1 689.817 1341.8 692.474 1343.08 694.866C1344.36 697.258 1346.18 699.316 1348.39 700.876C1352.99 704.146 1358.64 705.562 1364.23 704.843C1366.52 714.088 1368.11 723.493 1368.98 732.978C1367.43 730.271 1365.35 727.908 1362.86 726.031C1360.37 724.154 1357.53 722.803 1354.5 722.06C1354.12 722.037 1353.74 722.115 1353.39 722.287C1353.05 722.46 1352.76 722.72 1352.55 723.041C1351.11 725.573 1350.33 728.432 1350.3 731.347C1350.27 734.262 1350.99 737.136 1352.38 739.698C1354 742.752 1356.27 745.418 1359.02 747.514C1361.77 749.61 1364.94 751.086 1368.32 751.842C1368.76 751.97 1369.24 751.928 1369.66 751.725C1369.91 763.881 1369.28 776.179 1368.33 788.574C1367.38 785.413 1365.65 782.542 1363.3 780.228C1360.94 777.914 1358.05 776.231 1354.87 775.336C1354.33 775.17 1353.75 775.215 1353.25 775.459C1352.74 775.704 1352.35 776.132 1352.14 776.655C1351.25 779.095 1350.91 781.699 1351.13 784.286C1351.36 786.872 1352.15 789.378 1353.44 791.628C1357.02 795.814 1361.89 798.698 1367.28 799.828C1366.19 810.611 1364.89 821.345 1363.32 832.102C1360.74 826.77 1356.19 822.653 1350.62 820.624C1350.16 820.474 1349.67 820.481 1349.22 820.643C1348.77 820.805 1348.38 821.112 1348.13 821.517C1347.19 823.648 1346.7 825.948 1346.68 828.275C1346.66 830.603 1347.12 832.911 1348.02 835.056C1349.25 837.673 1351.05 839.984 1353.28 841.825C1355.51 843.666 1358.12 844.991 1360.92 845.706L1361.59 845.647C1359.99 858.369 1358.45 870.951 1357.36 883.357C1355.57 880.137 1353.01 877.408 1349.91 875.412C1346.81 873.416 1343.26 872.215 1339.59 871.914C1339.12 871.898 1338.65 872.032 1338.26 872.297C1337.87 872.562 1337.57 872.944 1337.42 873.388C1337.05 875.864 1337.22 878.389 1337.92 880.791C1338.62 883.194 1339.83 885.418 1341.47 887.31C1343.31 889.493 1345.6 891.259 1348.18 892.493C1350.76 893.726 1353.57 894.398 1356.43 894.465L1357.04 894.412C1356.16 906.36 1355.96 918.348 1356.44 930.318C1356.68 933.071 1360.9 933.448 1360.73 930.622L1360.9 930.336Z" fill="#265113"/>
<path fill-rule="evenodd" clip-rule="evenodd" d="M1345.74 908.839C1342.61 901.176 1339.09 893.686 1335.16 886.4C1335.05 886.712 1334.84 886.982 1334.57 887.174C1332.74 888.461 1330.64 889.309 1328.44 889.651C1326.23 889.994 1323.98 889.822 1321.85 889.148C1319.34 888.29 1314.16 885.508 1314.27 882.191C1314.38 878.875 1320.99 878.136 1323.55 877.847C1326 877.53 1328.49 877.791 1330.83 878.608C1326.88 871.604 1322.68 864.635 1318.25 857.44C1318.16 857.666 1318.05 857.879 1317.91 858.073C1316.62 859.605 1315.03 860.855 1313.24 861.743C1311.44 862.631 1309.49 863.137 1307.49 863.231C1304.6 863.326 1298.07 862.094 1297.16 858.627C1296.24 855.16 1302.25 852.888 1304.68 851.93C1307.72 850.659 1311.07 850.336 1314.29 851.002C1309.94 843.882 1305.54 836.779 1301.59 829.515C1301.46 829.605 1301.3 829.66 1301.14 829.676C1299.19 830.778 1297 831.385 1294.76 831.442C1292.52 831.499 1290.3 831.005 1288.3 830.003C1285.75 829.008 1281.27 827.359 1283.05 823.968C1284.17 822.538 1285.6 821.378 1287.23 820.573C1288.86 819.768 1290.65 819.339 1292.47 819.316C1293.64 819.246 1294.81 819.35 1295.96 819.623C1291.95 812.329 1288.19 805.001 1284.9 797.558C1281.1 797.684 1277.35 796.609 1274.2 794.486C1271.04 792.363 1268.63 789.301 1267.32 785.732C1267.25 785.467 1267.26 785.189 1267.34 784.927C1267.42 784.666 1267.56 784.43 1267.76 784.243C1269.52 782.828 1271.74 782.129 1273.99 782.286C1276.24 782.443 1278.35 783.444 1279.89 785.089C1277.31 778.099 1275.31 770.91 1273.9 763.594C1273.8 763.681 1273.67 763.727 1273.54 763.723C1269.94 763.293 1266.54 761.822 1263.76 759.49C1260.98 757.159 1258.95 754.068 1257.9 750.596C1257.81 750.302 1257.81 749.989 1257.9 749.695C1257.99 749.401 1258.16 749.138 1258.39 748.938C1259.8 747.894 1261.5 747.317 1263.25 747.287C1265 747.257 1266.72 747.776 1268.16 748.77C1269.66 749.614 1271.06 750.614 1272.34 751.753C1271.72 744.264 1271.95 736.727 1273.02 729.289C1270.01 727.505 1267.56 724.905 1265.97 721.789C1264.37 718.672 1263.69 715.168 1264 711.68C1264.02 711.305 1264.16 710.946 1264.4 710.652C1264.63 710.358 1264.95 710.144 1265.32 710.039C1267.06 709.641 1268.88 709.809 1270.53 710.52C1272.17 711.231 1273.54 712.447 1274.44 713.991C1274.93 714.639 1275.38 715.349 1275.84 716.059C1276.22 714.693 1276.66 713.311 1277.11 711.975C1274.06 707.722 1272.09 702.791 1271.38 697.609C1271.02 694.407 1271.71 688.377 1276.43 689.992C1277.97 690.822 1279.31 691.973 1280.37 693.367C1281.43 694.761 1282.17 696.366 1282.55 698.073C1283.26 700.466 1283.41 702.986 1283 705.445C1282.59 707.904 1281.63 710.239 1280.18 712.273C1279.39 714.654 1278.68 717.003 1278.08 719.366C1279.94 717.785 1282.06 716.521 1284.34 715.623C1286.48 714.869 1291.4 712.722 1292.83 715.447C1294.64 718.853 1290.63 724.466 1288.25 726.431C1286.53 727.766 1284.57 728.74 1282.47 729.296C1280.36 729.852 1278.17 729.977 1276.02 729.665C1275.05 736.533 1274.81 743.485 1275.29 750.405C1276.59 748.456 1278.2 746.732 1280.05 745.298C1281.98 743.798 1284.99 741.303 1286.74 744.221C1287.5 746.008 1287.83 747.949 1287.7 749.888C1287.58 751.827 1287 753.709 1286.01 755.383C1283.98 758.876 1280.71 761.474 1276.85 762.658C1278.09 769.369 1279.84 775.977 1282.07 782.424C1282.28 780.2 1282.94 778.042 1284.01 776.08C1285.08 774.119 1286.54 772.396 1288.29 771.015C1288.54 770.887 1288.81 770.825 1289.08 770.836C1289.36 770.848 1289.62 770.932 1289.85 771.08C1291.55 772.305 1292.9 773.941 1293.78 775.835C1294.66 777.728 1295.05 779.816 1294.9 781.899C1294.74 784.372 1294.05 786.783 1292.87 788.965C1291.7 791.147 1290.07 793.049 1288.09 794.541C1287.83 794.756 1287.51 794.87 1287.18 794.862C1290.61 802.867 1294.66 810.71 1298.95 818.518C1298.63 816.174 1298.91 813.788 1299.76 811.581C1300.61 809.374 1302.01 807.418 1303.82 805.894C1304.12 805.627 1304.51 805.485 1304.91 805.495C1305.31 805.505 1305.7 805.667 1305.99 805.949C1307.29 807.278 1308.28 808.876 1308.9 810.63C1309.52 812.385 1309.75 814.254 1309.57 816.105C1308.47 819.897 1306.15 823.218 1302.96 825.551C1306.86 832.266 1310.89 838.887 1315.09 845.443C1315.2 841.2 1316.96 837.165 1319.99 834.194C1320.24 833.962 1320.56 833.82 1320.91 833.792C1321.25 833.764 1321.59 833.851 1321.88 834.039C1323.12 835.153 1324.12 836.508 1324.82 838.021C1325.53 839.535 1325.91 841.176 1325.95 842.844C1325.92 844.916 1325.44 846.956 1324.53 848.817C1323.62 850.678 1322.3 852.315 1320.69 853.61L1320.23 853.771C1325.04 861.6 1329.77 869.355 1334.15 877.131C1334.37 874.498 1335.23 871.959 1336.66 869.74C1338.1 867.52 1340.05 865.688 1342.36 864.404C1342.67 864.254 1343.01 864.204 1343.34 864.261C1343.67 864.319 1343.98 864.481 1344.22 864.724C1345.19 866.231 1345.82 867.93 1346.08 869.705C1346.33 871.48 1346.2 873.289 1345.69 875.008C1345.13 876.979 1344.16 878.809 1342.84 880.377C1341.52 881.945 1339.89 883.216 1338.04 884.105L1337.63 884.25C1341.74 891.787 1345.42 899.552 1348.65 907.506C1349.3 909.373 1346.66 910.87 1345.94 908.973L1345.74 908.839Z" fill="#92D660"/>
</g>
<defs>
<clipPath id="clip0_182_7267">
<rect width="1440" height="850" fill="white"/>
</clipPath>
</defs>
</svg>
