<svg viewBox="0 0 375 462" fill="none" xmlns="http://www.w3.org/2000/svg">
<g clip-path="url(#clip0_182_14189)">
<path fill-rule="evenodd" clip-rule="evenodd" d="M355.523 355.521C349.418 365.937 352.332 377.475 355.671 388.302L355.909 388.709C355.944 388.8 355.994 388.885 356.056 388.96C356.391 391.545 357.075 394.072 358.09 396.472C349.794 389.465 341.232 382.866 330.143 381.44C329.98 381.416 329.814 381.439 329.663 381.506C329.512 381.573 329.383 381.681 329.292 381.818C329.2 381.955 329.149 382.116 329.145 382.281C329.141 382.446 329.184 382.608 329.269 382.75C335.456 393.342 347.279 396.314 358.525 398.656C358.697 398.708 358.883 398.69 359.042 398.606C360.693 401.848 362.625 404.939 364.816 407.843C365.09 408.314 365.383 408.815 365.814 409.194L365.438 409.413C353.128 404.38 339.735 402.58 326.532 404.187C326.351 404.217 326.183 404.302 326.05 404.43C325.918 404.559 325.828 404.724 325.792 404.905C325.756 405.085 325.776 405.273 325.849 405.442C325.923 405.611 326.045 405.753 326.201 405.851C337.365 411.94 354.569 416.855 366.818 410.625L366.975 410.533C370.801 415.477 375.002 420.12 379.541 424.419L379.039 424.712C366.729 419.678 353.336 417.879 340.134 419.486C339.954 419.511 339.788 419.591 339.656 419.716C339.525 419.84 339.435 420.002 339.401 420.18C339.366 420.358 339.387 420.541 339.461 420.706C339.536 420.871 339.66 421.009 339.816 421.1C350.948 427.207 368.202 432.135 380.451 425.905C380.539 425.899 380.624 425.872 380.7 425.828C380.776 425.783 380.841 425.722 380.89 425.649C382.189 426.866 383.629 428.252 384.931 429.257C385.103 429.363 385.307 429.405 385.507 429.377C385.708 429.349 385.892 429.251 386.029 429.102C386.165 428.953 386.245 428.761 386.256 428.559C386.266 428.356 386.205 428.157 386.085 427.995C383.706 425.937 381.372 423.812 379.145 421.582C382.861 409.955 385.924 392.026 379.914 380.657C379.493 379.936 378.561 380.355 378.341 380.987C374.513 393.143 371.009 406.286 375.872 418.282C372.999 415.249 370.303 412.052 367.799 408.707C366.469 407.004 365.182 405.233 363.99 403.408C369.097 393.154 374.115 382.027 369.699 370.652C369.642 370.493 369.541 370.355 369.408 370.252C369.274 370.15 369.114 370.089 368.946 370.075C368.779 370.062 368.611 370.098 368.463 370.178C368.315 370.258 368.193 370.38 368.113 370.527C362.431 379.941 362.212 390.576 362.497 401.212C359.933 397.121 358.387 392.475 357.988 387.663C360.156 376.982 361.72 366.275 357.535 355.943C357.591 355.676 357.538 355.398 357.389 355.169C357.24 354.941 357.007 354.782 356.74 354.726C356.473 354.67 356.195 354.722 355.967 354.871C355.738 355.02 355.579 355.254 355.523 355.521Z" fill="#5EAD41"/>
<path fill-rule="evenodd" clip-rule="evenodd" d="M31.0794 -27.3755C32.398 -19.594 33.2999 -11.7477 33.7812 -3.86995C33.53 -4.0652 33.2253 -4.17925 32.9077 -4.19708C30.7816 -4.32391 28.655 -3.95758 26.6938 -3.12672C24.7327 -2.29586 22.9901 -1.02299 21.6022 0.592585C20.0028 2.54668 17.2011 7.4053 18.9574 10.0383C20.7138 12.6714 26.4373 9.95429 28.6587 8.9013C30.8076 7.92535 32.699 6.46113 34.182 4.62506C34.4951 12.2904 34.5932 20.0501 34.6154 28.1093C34.4349 27.9677 34.2349 27.8525 34.0217 27.7678C32.2085 27.1714 30.2914 26.957 28.3913 27.1383C26.4912 27.3196 24.6494 27.8925 22.9816 28.821C20.5945 30.1933 15.9206 34.472 16.9207 37.7424C17.9208 41.0129 23.9348 39.8358 26.3843 39.3931C29.484 38.8983 32.3616 37.4781 34.64 35.3191C34.6875 43.2784 34.69 51.2477 35.1425 59.1183C34.9867 59.1145 34.8323 59.1483 34.6925 59.217C32.5579 59.3027 30.4772 59.9117 28.6332 60.9903C26.7892 62.0689 25.2384 63.5842 24.1175 65.4028C22.5478 67.4918 19.7497 71.0765 22.8923 72.934C24.5212 73.5292 26.2627 73.7516 27.989 73.5852C29.7153 73.4189 31.3825 72.8678 32.8679 71.9726C33.8527 71.4407 34.7537 70.7665 35.5417 69.9716C35.959 77.8971 36.5914 85.7282 37.664 93.4157C34.5186 95.2242 32.0226 97.9772 30.5299 101.284C29.0372 104.591 28.6237 108.284 29.3479 111.839C29.4298 112.086 29.5758 112.308 29.771 112.48C29.9663 112.653 30.2038 112.771 30.4594 112.822C32.5934 113.087 34.7489 112.536 36.4937 111.279C38.2384 110.022 39.4434 108.151 39.8668 106.043C41.2885 113.006 43.2761 119.841 45.8099 126.48C45.6843 126.46 45.5559 126.488 45.45 126.559C42.7466 128.716 40.7311 131.616 39.6507 134.902C38.5703 138.188 38.4717 141.717 39.3671 145.058C39.4449 145.34 39.6024 145.594 39.8207 145.788C40.0391 145.983 40.3091 146.111 40.5982 146.156C42.2641 146.295 43.9317 145.909 45.3676 145.053C46.8034 144.197 47.9356 142.913 48.6059 141.382C49.3933 139.948 50.0258 138.434 50.4924 136.865C53.7514 143.251 57.7238 149.246 62.3335 154.736C60.7868 157.696 60.1096 161.034 60.3805 164.362C60.6514 167.691 61.8593 170.876 63.8643 173.547C64.0729 173.839 64.3663 174.06 64.7047 174.18C65.0431 174.299 65.4102 174.312 65.7562 174.216C67.3699 173.663 68.7651 172.609 69.7386 171.209C70.7122 169.808 71.2133 168.133 71.1692 166.427C71.2363 165.658 71.2486 164.853 71.2609 164.049C72.2626 164.961 73.3093 165.864 74.3462 166.721C74.011 171.7 74.8939 176.686 76.9183 181.248C78.2346 184.024 81.8243 188.566 84.8375 184.887C85.6694 183.441 86.1807 181.832 86.3371 180.171C86.4935 178.509 86.2914 176.834 85.7441 175.257C85.1119 172.964 83.9689 170.845 82.4007 169.057C80.8326 167.269 78.8801 165.859 76.6896 164.934C74.8452 163.405 73.0907 161.856 71.4165 160.242C73.7254 160.586 76.075 160.548 78.3719 160.132C80.4867 159.668 85.5603 158.933 85.3437 156.01C85.1042 152.337 79.0305 149.801 76.1137 149.403C74.0528 149.183 71.9686 149.381 69.9861 149.986C68.0037 150.591 66.1638 151.59 64.577 152.923C60.3382 147.843 56.6474 142.33 53.5662 136.474C55.5975 137.402 57.7658 137.993 59.9867 138.226C62.3044 138.472 66.0003 138.982 65.9495 135.74C65.6687 133.908 64.9617 132.168 63.8855 130.659C62.8093 129.15 61.394 127.915 59.7534 127.053C56.3539 125.241 52.3956 124.779 48.6699 125.758C46.3041 119.693 44.4009 113.458 42.9766 107.106C44.2632 108.804 45.882 110.223 47.7344 111.276C49.5868 112.33 51.634 112.995 53.7516 113.232C54.0126 113.214 54.2642 113.128 54.4806 112.981C54.6971 112.834 54.8706 112.632 54.9832 112.396C55.7399 110.553 56.0133 108.547 55.7775 106.568C55.5417 104.589 54.8046 102.704 53.636 101.09C52.2662 99.1634 50.4961 97.5557 48.4469 96.3771C46.3977 95.1985 44.1178 94.4768 41.7636 94.2616C41.4496 94.2143 41.1292 94.2846 40.8638 94.4589C39.6278 86.2414 38.9669 77.8506 38.5211 69.3655C39.4425 71.4247 40.8687 73.2182 42.6676 74.5797C44.4665 75.9411 46.5798 76.8265 48.8119 77.1538C49.1905 77.2185 49.5796 77.1376 49.9009 76.9272C50.2222 76.7167 50.4519 76.3923 50.5439 76.0194C50.9315 74.2876 50.9354 72.4921 50.5553 70.7587C50.1752 69.0254 49.4204 67.3962 48.3438 65.9855C45.5488 63.4628 41.997 61.9366 38.2432 61.6452C38.0342 54.2399 37.9701 46.8502 38.086 39.4209C40.3043 42.8079 43.7546 45.1975 47.7053 46.0831C48.0274 46.1444 48.3607 46.0965 48.6525 45.9471C48.9443 45.7977 49.1779 45.5554 49.3165 45.2584C49.7646 43.7316 49.8966 42.1294 49.7043 40.5499C49.512 38.9703 48.9995 37.4466 48.1983 36.0718C47.1329 34.4069 45.7125 32.9981 44.0388 31.9465C42.3651 30.8949 40.4797 30.2265 38.5173 29.989L38.0673 30.0877C38.0321 21.3239 37.9716 12.6599 37.6159 4.15506C39.1157 6.17994 41.0911 7.80422 43.3678 8.88424C45.6444 9.96424 48.152 10.4666 50.6691 10.3473C50.9902 10.3169 51.2933 10.1852 51.5346 9.97125C51.7759 9.75727 51.9429 9.47206 52.0114 9.1569C52.0418 7.44684 51.7028 5.75049 51.0174 4.18351C50.3319 2.61652 49.3163 1.21585 48.04 0.07733C46.5962 -1.2397 44.8895 -2.23562 43.0326 -2.84459C41.1757 -3.45355 39.2109 -3.66171 37.2676 -3.45542L36.8625 -3.3666C36.4064 -11.5422 35.4869 -19.6853 34.1083 -27.7567C33.7038 -29.6015 30.8055 -29.4849 31.1749 -27.5852L31.0794 -27.3755Z" fill="#265113"/>
<path fill-rule="evenodd" clip-rule="evenodd" d="M55.5416 -13.6738C57.6755 -8.43629 60.0877 -3.31662 62.768 1.66343C62.8473 1.44971 62.9898 1.26522 63.1765 1.13447C64.4237 0.25474 65.8573 -0.324821 67.3655 -0.558962C68.8736 -0.793088 70.4155 -0.6755 71.8706 -0.215296C73.5824 0.371278 77.1228 2.27321 77.0468 4.53993C76.9709 6.80665 72.4591 7.31196 70.7086 7.50903C69.0313 7.72567 67.3265 7.54771 65.7302 6.98907C68.4327 11.7763 71.3018 16.5398 74.3302 21.4571C74.3867 21.3027 74.4651 21.1571 74.5629 21.025C75.4422 19.9773 76.5291 19.1232 77.7549 18.5164C78.9807 17.9096 80.3188 17.5635 81.6851 17.4995C83.6571 17.4344 88.1189 18.2764 88.7442 20.646C89.3694 23.0155 85.2619 24.5685 83.6028 25.2234C81.5281 26.0919 79.2392 26.313 77.0365 25.8579C80.0118 30.7239 83.0182 35.579 85.7133 40.5439C85.8067 40.4827 85.9136 40.4451 86.0247 40.4341C87.3572 39.6806 88.8544 39.2662 90.3847 39.2272C91.9151 39.1882 93.4316 39.5258 94.8007 40.2105C96.5454 40.8905 99.6027 42.0178 98.3897 44.3354C97.6221 45.3127 96.6453 46.1055 95.531 46.6557C94.4167 47.206 93.1932 47.4996 91.9506 47.515C91.1499 47.5627 90.3467 47.4921 89.5667 47.3054C92.3039 52.2903 94.8745 57.299 97.1228 62.3864C99.7212 62.3008 102.281 63.0355 104.438 64.4864C106.595 65.9372 108.241 68.0305 109.142 70.4693C109.185 70.6509 109.18 70.8408 109.126 71.0196C109.072 71.1984 108.972 71.3598 108.836 71.4873C107.636 72.4545 106.115 72.9324 104.578 72.8252C103.041 72.718 101.601 72.0335 100.547 70.9092C102.309 75.6868 103.678 80.6002 104.641 85.6006C104.71 85.5411 104.799 85.5098 104.89 85.5128C107.351 85.8068 109.673 86.8121 111.571 88.4058C113.47 89.9994 114.862 92.1121 115.578 94.4851C115.637 94.6863 115.636 94.9 115.577 95.101C115.517 95.302 115.401 95.4817 115.242 95.6183C114.28 96.3316 113.118 96.726 111.921 96.7466C110.723 96.7671 109.549 96.4127 108.562 95.7328C107.542 95.1565 106.585 94.473 105.709 93.6939C106.134 98.8132 105.977 103.964 105.241 109.048C107.301 110.268 108.973 112.045 110.064 114.175C111.156 116.305 111.622 118.7 111.409 121.084C111.392 121.341 111.297 121.586 111.136 121.787C110.975 121.987 110.756 122.134 110.509 122.206C109.317 122.478 108.07 122.363 106.948 121.877C105.827 121.391 104.889 120.56 104.272 119.505C103.941 119.061 103.63 118.576 103.319 118.091C103.053 119.024 102.756 119.969 102.448 120.883C104.531 123.789 105.876 127.159 106.364 130.702C106.611 132.89 106.138 137.011 102.914 135.908C101.862 135.341 100.943 134.554 100.221 133.601C99.4983 132.648 98.989 131.551 98.7272 130.384C98.2471 128.749 98.1432 127.027 98.4236 125.346C98.7039 123.665 99.3611 122.069 100.346 120.679C100.892 119.051 101.376 117.445 101.787 115.831C100.51 116.911 99.0651 117.775 97.5089 118.389C96.0457 118.904 92.6779 120.372 91.7064 118.509C90.4659 116.182 93.2085 112.345 94.8349 111.001C96.007 110.089 97.3513 109.423 98.7871 109.044C100.223 108.664 101.721 108.578 103.191 108.791C103.855 104.097 104.022 99.3453 103.689 94.6159C102.802 95.9475 101.704 97.1263 100.439 98.1063C99.1205 99.1311 97.0618 100.837 95.8687 98.8424C95.3484 97.6206 95.1223 96.294 95.2083 94.9688C95.2944 93.6437 95.6903 92.3571 96.3643 91.2129C97.7509 88.8259 99.9874 87.0502 102.627 86.2406C101.778 81.6535 100.584 77.1372 99.0541 72.7304C98.9115 74.2506 98.461 75.7259 97.7302 77.0665C96.9994 78.4071 96.0035 79.5851 94.8031 80.5286C94.6375 80.6165 94.4515 80.6587 94.2643 80.6509C94.077 80.6431 93.8951 80.5856 93.7374 80.4843C92.5808 79.6472 91.6571 78.5285 91.0539 77.2344C90.4508 75.9403 90.188 74.5135 90.2907 73.0894C90.3979 71.3989 90.8692 69.7515 91.6726 68.2601C92.4759 66.7688 93.5922 65.4687 94.9449 64.449C95.1184 64.3017 95.34 64.2236 95.5675 64.2296C93.2187 58.7577 90.4542 53.3974 87.5231 48.0608C87.7391 49.6628 87.5473 51.2936 86.9655 52.8018C86.3837 54.31 85.4306 55.647 84.1945 56.6889C83.9884 56.8712 83.7208 56.9687 83.4457 56.9618C83.1705 56.9549 82.9082 56.844 82.7114 56.6516C81.8217 55.7431 81.1416 54.6509 80.7188 53.4516C80.2961 52.2523 80.1409 50.9751 80.2643 49.7095C81.0146 47.1179 82.6019 44.8477 84.7784 43.2533C82.1106 38.6639 79.3605 34.1386 76.4857 29.657C76.413 32.5573 75.2133 35.3152 73.1412 37.3458C72.9681 37.5046 72.747 37.6013 72.5128 37.6205C72.2787 37.6396 72.045 37.5802 71.8484 37.4516C70.9992 36.6907 70.3141 35.7646 69.8351 34.7299C69.356 33.6953 69.093 32.5737 69.0622 31.4339C69.0827 30.0177 69.4161 28.6234 70.0387 27.3512C70.6612 26.0789 71.5573 24.9601 72.663 24.0748L72.9743 23.9651C69.688 18.6137 66.4546 13.3135 63.4612 7.99889C63.312 9.79834 62.7218 11.5333 61.7427 13.0505C60.7636 14.5676 59.4258 15.8201 57.8476 16.6975C57.6406 16.8002 57.4063 16.8344 57.1785 16.7951C56.9507 16.7558 56.7414 16.6452 56.5807 16.4791C55.9168 15.4489 55.483 14.2877 55.309 13.0745C55.1351 11.8614 55.225 10.6248 55.5727 9.44962C55.955 8.10249 56.6187 6.85167 57.5199 5.77988C58.4211 4.70806 59.5393 3.83966 60.8008 3.23182L61.0811 3.13302C58.2731 -2.01894 55.7596 -7.32601 53.5528 -12.7627C53.1029 -14.0391 54.9123 -15.062 55.4043 -13.7655L55.5416 -13.6738Z" fill="#92D660"/>
<path fill-rule="evenodd" clip-rule="evenodd" d="M303.096 476.708C299.991 473.546 296.18 469.064 293 465.479L287.347 459.105C287.347 459.105 288.18 459.529 289.518 460.3C290.855 461.072 292.698 462.168 294.742 463.487C299.116 466.249 303.192 469.444 306.907 473.023C308.154 474.265 309.325 475.578 310.415 476.957C310.718 473.671 310.97 470.359 311.172 466.998C310.79 467.043 310.403 466.973 310.061 466.799C307.823 465.379 305.808 463.642 304.08 461.645C300.95 458.483 297.165 454.001 293.985 450.416L288.357 444.042C288.357 444.042 289.19 444.466 290.527 445.237C291.865 446.009 293.707 447.105 295.751 448.424C300.121 451.192 304.196 454.387 307.916 457.96C309.163 459.202 310.335 460.515 311.424 461.894C311.626 457.587 311.702 453.255 311.702 448.897C310.642 449.072 308.572 448.325 303.676 445.088C297.103 440.366 290.863 435.209 285 429.652C292.453 432.852 299.68 436.546 306.629 440.706C308.396 441.808 310.083 443.031 311.677 444.366C311.677 444.067 311.677 443.744 311.677 443.445C311.582 443.242 311.532 443.021 311.532 442.798C311.532 442.574 311.582 442.353 311.677 442.15L311.525 438.067C311.525 436.772 311.399 435.577 311.323 434.183C311.1 434.397 310.816 434.538 310.509 434.587C310.202 434.636 309.887 434.59 309.607 434.457C307.432 433.335 305.461 431.862 303.777 430.1C300.749 427.361 297.039 423.427 293.909 420.141C290.78 416.854 288.407 414.539 288.407 414.539C288.407 414.539 289.189 414.862 290.477 415.485C291.764 416.107 293.556 416.954 295.524 417.975C299.752 420.216 303.721 422.904 307.361 425.992C308.676 427.133 309.9 428.373 311.02 429.701C310.793 426.465 310.49 423.228 310.162 419.966C309.153 420.19 307.336 419.419 302.818 415.808C297.134 410.803 291.82 405.403 286.918 399.65C293.631 403.203 300.075 407.231 306.2 411.7C307.613 412.846 308.724 413.792 309.531 414.588C309.531 414.439 309.531 414.29 309.531 414.165C309.356 413.972 309.232 413.739 309.17 413.487C309.109 413.235 309.111 412.972 309.178 412.721C309.2 412.567 309.242 412.416 309.304 412.273C309.018 410.215 308.715 408.148 308.396 406.074C307.462 406.372 305.872 405.7 301.859 402.015C297.079 397.226 292.698 392.064 288.76 386.579C294.63 390.06 300.208 393.998 305.443 398.355C306.149 399.003 306.78 399.6 307.285 400.123C306.755 397.26 306.2 394.396 305.569 391.533C304.635 392.081 303.045 391.658 298.502 386.952C293.625 381.55 289.171 375.79 285.177 369.723C291.227 373.805 296.955 378.333 302.313 383.267C303.045 383.989 303.651 384.637 304.181 385.234C303.802 383.616 303.449 381.998 303.07 380.255C302.036 380.255 300.85 378.761 298.629 372.91C296.284 365.744 294.462 358.422 293.177 351C297.149 357.434 300.65 364.14 303.651 371.067C304.004 372.014 304.282 372.86 304.534 373.557C306.69 367.821 309.298 362.26 312.333 356.926C311.914 363.287 310.943 369.601 309.43 375.798C307.588 381.923 306.478 382.371 305.266 382.097C306.124 385.359 306.907 388.62 307.613 392.056C308.053 391.103 308.541 390.172 309.077 389.268C311.291 385.699 313.982 382.442 317.078 379.582C318.516 378.213 319.854 377.093 320.813 376.271C321.772 375.449 322.403 375.026 322.403 375.026L321.469 376.794L319.223 381.126C317.456 384.587 315.488 388.819 313.721 391.907C312.809 393.817 311.561 395.554 310.036 397.036C309.851 397.191 309.629 397.298 309.39 397.346C309.152 397.394 308.905 397.381 308.673 397.31C309.027 399.202 309.355 401.094 309.658 402.986C309.825 403.223 309.936 403.493 309.984 403.777C310.032 404.061 310.015 404.352 309.935 404.629C310.188 406.298 310.44 407.966 310.667 409.609C311.096 408.887 311.626 408.09 312.282 407.119C314.377 404.057 317.33 400.223 319.854 396.961C321.065 395.343 322.1 393.874 322.857 392.803L324.043 391.11C324.043 391.11 323.892 391.882 323.614 393.152C323.337 394.421 322.882 396.164 322.251 398.131C320.984 402.329 319.15 406.341 316.8 410.057C315.652 412.041 314.065 413.743 312.156 415.037C311.93 415.16 311.681 415.237 311.424 415.261L311.651 417.153C311.76 417.345 311.827 417.556 311.849 417.775C311.871 417.993 311.846 418.214 311.778 418.423C311.996 420.564 312.198 422.705 312.383 424.846L312.661 424.523C313.368 423.726 314.402 422.705 315.715 421.336C317.027 419.966 318.642 418.448 320.207 416.804C321.772 415.161 323.337 413.468 324.674 411.825C326.012 410.182 327.198 408.738 327.93 407.642L329.192 405.874C329.192 405.874 329.04 406.671 328.687 407.991C328.226 409.751 327.652 411.48 326.971 413.169C326.095 415.355 325.031 417.462 323.791 419.468C322.586 421.436 321.173 423.272 319.576 424.946C318.456 426.115 317.231 427.181 315.917 428.133C315.231 428.639 314.463 429.026 313.645 429.278C313.349 429.364 313.033 429.364 312.737 429.278C312.939 432.141 313.09 434.98 313.241 437.793V439.586C313.872 438.839 314.756 437.967 315.765 436.872C318.466 434.382 322.327 431.22 325.457 428.656L331.06 424.124C331.06 424.124 330.706 424.821 330.075 425.967C329.444 427.112 328.561 428.656 327.551 430.398C325.296 434.091 322.629 437.523 319.601 440.631C318.095 442.353 316.226 443.73 314.125 444.665C313.874 444.711 313.618 444.711 313.368 444.665C313.368 448.748 313.494 452.856 313.368 456.964C314.276 455.993 315.589 454.748 317.431 453.08C320.863 449.993 325.633 446.258 329.47 443.121L336.284 437.544L334.946 439.71C334.113 441.03 332.902 442.872 331.438 444.914C328.394 449.267 324.911 453.305 321.04 456.964C319.104 458.969 316.812 460.607 314.276 461.794C313.937 461.884 313.58 461.884 313.241 461.794C313.115 465.405 312.939 469.015 312.686 472.65C314.289 471.226 315.974 469.896 317.734 468.666C321.444 465.927 326.567 462.666 330.681 459.902L338 454.923C338 454.923 337.445 455.694 336.46 456.964C335.476 458.234 334.113 459.927 332.473 461.944C329.021 465.984 325.165 469.671 320.964 472.949C318.842 474.772 316.394 476.19 313.746 477.131C313.324 477.295 312.856 477.295 312.434 477.131C311.63 486.604 310.273 496.022 308.37 505.34C308.143 506.461 306.452 506.037 306.629 504.942C307.975 497.224 309.06 489.497 309.885 481.762C309.596 481.735 309.314 481.66 309.052 481.538C306.838 480.224 304.832 478.596 303.096 476.708Z" fill="#5EAD41"/>
<path fill-rule="evenodd" clip-rule="evenodd" d="M201.847 432.197C201.682 432.197 201.631 430.681 200.842 429.821C199.57 428.384 195.13 429.934 197.305 432.287C197.929 432.966 198.794 433.486 198.743 433.532C198.3 433.416 197.843 433.348 197.382 433.328C193.705 433.26 194.405 438.736 198.654 437.344C199.354 437.118 199.201 437.118 198.87 437.661C198.705 437.933 198.45 438.25 198.234 438.578C198.02 438.903 197.953 439.289 198.047 439.657C198.142 440.025 198.391 440.347 198.743 440.557C199.812 441.18 201.72 441.089 202.165 439.901C202.331 439.395 202.442 438.876 202.496 438.351C202.763 436.326 201.911 441.089 205.574 440.999C207.114 440.999 208.297 439.867 206.529 438.001C206.269 437.738 205.993 437.489 205.702 437.254C205.307 436.96 205.295 436.903 205.803 437.028C206.477 437.243 207.208 437.274 207.903 437.118C208.831 436.813 209.34 434.72 208.742 433.724C207.877 432.253 206.312 432.785 205.307 433.079C204.302 433.373 204.035 433.294 205.078 432.729C205.445 432.543 205.794 432.331 206.122 432.095C208.742 430.092 203.717 427.151 202.305 430.568C201.974 431.393 201.86 432.219 201.758 432.219L201.847 432.197ZM202.878 433.509C203.323 433.837 202.649 434.245 202.254 434.063C201.86 433.882 202.254 433.045 202.878 433.509ZM200.74 434.165C201.147 433.486 201.58 433.215 201.847 434.165C202.012 434.788 202.076 435.659 201.135 435.376C201.017 435.333 200.912 435.267 200.826 435.183C200.74 435.1 200.676 435.001 200.639 434.893C200.601 434.785 200.591 434.67 200.608 434.558C200.626 434.446 200.671 434.339 200.74 434.244V434.165ZM203.285 434.448C204.213 434.821 203.946 435.579 203.208 435.579C201.58 435.579 202.178 433.95 203.285 434.448ZM202.509 435.806C203.781 436.338 202.509 436.79 201.427 436.383C200.346 435.975 201.364 435.285 202.521 435.806H202.509Z" fill="#DC0030"/>
<path fill-rule="evenodd" clip-rule="evenodd" d="M114.459 75.3224C114.3 75.3224 114.252 73.7792 113.495 72.904C112.274 71.4414 108.013 73.0191 110.1 75.4145C110.699 76.1055 111.529 76.6352 111.48 76.6813C111.055 76.5637 110.616 76.4941 110.174 76.474C106.645 76.4049 107.317 81.9787 111.395 80.5622C112.066 80.3319 111.92 80.332 111.602 80.8847C111.443 81.1611 111.199 81.4836 110.992 81.8175C110.786 82.149 110.722 82.542 110.812 82.9165C110.903 83.291 111.142 83.6188 111.48 83.8329C112.506 84.4663 114.337 84.3741 114.764 83.1649C114.924 82.6499 115.03 82.1215 115.082 81.5872C115.338 79.5258 114.52 84.3742 118.037 84.282C119.514 84.282 120.649 83.1304 118.952 81.2302C118.703 80.9629 118.438 80.7092 118.159 80.4702C117.78 80.1707 117.768 80.1131 118.256 80.2398C118.903 80.4588 119.605 80.4909 120.271 80.332C121.162 80.021 121.651 77.8905 121.077 76.8771C120.246 75.38 118.745 75.9212 117.78 76.2207C116.816 76.5201 116.559 76.4395 117.56 75.8637C117.912 75.6752 118.247 75.4594 118.562 75.2188C121.077 73.1804 116.254 70.1861 114.899 73.664C114.581 74.5047 114.471 75.3454 114.374 75.3454L114.459 75.3224ZM115.448 76.6583C115.875 76.9923 115.228 77.4068 114.85 77.2226C114.471 77.0383 114.85 76.1861 115.448 76.6583ZM113.397 77.3262C113.788 76.6352 114.203 76.3588 114.459 77.3262C114.618 77.9596 114.679 78.8463 113.775 78.5584C113.663 78.5145 113.561 78.4476 113.479 78.3626C113.397 78.2776 113.335 78.1764 113.299 78.0665C113.263 77.9565 113.253 77.8404 113.27 77.7264C113.287 77.6124 113.33 77.5032 113.397 77.4068V77.3262ZM115.839 77.6141C116.73 77.9941 116.474 78.7657 115.766 78.7657C114.203 78.7657 114.777 77.1074 115.839 77.6141ZM115.094 78.996C116.315 79.5373 115.094 79.998 114.056 79.5834C113.018 79.1688 113.995 78.4663 115.106 78.996H115.094Z" fill="#FFD885"/>
</g>
<defs>
<clipPath id="clip0_182_14189">
<rect width="375" height="462" fill="white"/>
</clipPath>
</defs>
</svg>
