<svg viewBox="0 0 173 180" fill="none" xmlns="http://www.w3.org/2000/svg">
<g clip-path="url(#clip0_302_4859)">
<path fill-rule="evenodd" clip-rule="evenodd" d="M44.2013 8.71526C55.383 27.7945 50.0457 48.9269 43.9291 68.7572L43.4932 69.5035C43.429 69.67 43.3386 69.8248 43.2251 69.9624C42.6112 74.6963 41.3579 79.3251 39.4996 83.722C54.6943 70.8877 70.3765 58.8002 90.6857 56.1895C90.9845 56.1454 91.2898 56.1869 91.5659 56.3095C91.842 56.432 92.0777 56.6304 92.2455 56.8816C92.4133 57.1328 92.5063 57.4266 92.5138 57.7286C92.5212 58.0306 92.4428 58.3282 92.2875 58.5874C80.9555 77.9889 59.3001 83.4318 38.703 87.7219C38.3873 87.8161 38.0474 87.7833 37.7556 87.6305C34.7311 93.5677 31.1926 99.2288 27.1809 104.549C26.678 105.41 26.1416 106.329 25.3517 107.022L26.0405 107.424C48.5873 98.2046 73.1188 94.9089 97.2997 97.8512C97.6324 97.907 97.9402 98.0628 98.1823 98.2977C98.4244 98.5326 98.5892 98.8354 98.655 99.1663C98.7208 99.4971 98.6843 99.8401 98.5505 100.15C98.4166 100.459 98.1918 100.721 97.9058 100.899C77.458 112.051 45.9483 121.053 23.5128 109.643L23.2258 109.475C16.2176 118.531 8.52309 127.034 0.210225 134.909L1.12868 135.445C23.6755 126.226 48.207 122.93 72.3879 125.872C72.7161 125.919 73.0217 126.066 73.2624 126.294C73.503 126.522 73.6666 126.819 73.7306 127.144C73.7946 127.469 73.7559 127.806 73.6196 128.108C73.4833 128.411 73.2562 128.663 72.97 128.83C52.5796 140.015 20.9791 149.041 -1.45637 137.631C-1.61714 137.618 -1.77323 137.57 -1.91245 137.489C-2.05167 137.407 -2.17038 137.295 -2.25999 137.161C-4.63938 139.39 -7.27751 141.929 -9.66147 143.77C-9.97748 143.964 -10.351 144.041 -10.7179 143.989C-11.0849 143.938 -11.4223 143.759 -11.6723 143.486C-11.9224 143.212 -12.0694 142.86 -12.0881 142.49C-12.1069 142.12 -11.9962 141.755 -11.7751 141.458C-7.41867 137.69 -3.14355 133.797 0.935532 129.713C-5.87143 108.416 -11.4805 75.578 -0.473082 54.7552C0.298033 53.435 2.00591 54.2014 2.40721 55.3596C9.4194 77.6233 15.8372 101.696 6.92972 123.668C12.1927 118.112 17.1297 112.256 21.7156 106.13C24.1529 103.011 26.5088 99.7685 28.6926 96.425C19.3387 77.6434 10.1483 57.2638 18.2369 36.4297C18.3401 36.1394 18.5253 35.8849 18.7699 35.6975C19.0145 35.5101 19.308 35.3977 19.6152 35.3736C19.9224 35.3495 20.2301 35.4146 20.5009 35.5616C20.7718 35.7085 20.9943 35.931 21.1415 36.2017C31.5491 53.4431 31.95 72.9228 31.4273 92.4022C36.1243 84.9096 38.9561 76.4002 39.6854 67.5872C35.715 48.0239 32.85 28.4135 40.5164 9.48838C40.4139 8.99974 40.5097 8.49025 40.7827 8.07224C41.0558 7.65422 41.4837 7.36179 41.9724 7.25927C42.461 7.15675 42.9703 7.25272 43.3884 7.52576C43.8064 7.79879 44.0988 8.22661 44.2013 8.71526Z" fill="#5EAD41"/>
<path fill-rule="evenodd" clip-rule="evenodd" d="M140.223 230.765C145.846 224.972 152.749 216.76 158.509 210.191L168.749 198.513C168.749 198.513 167.24 199.288 164.817 200.702C162.394 202.116 159.057 204.124 155.354 206.542C147.432 211.601 140.049 217.455 133.32 224.013C131.061 226.288 128.939 228.695 126.966 231.221C126.417 225.2 125.96 219.132 125.594 212.974C126.286 213.056 126.987 212.929 127.606 212.609C131.661 210.007 135.311 206.825 138.44 203.166C144.109 197.372 150.966 189.161 156.726 182.592L166.92 170.913C166.92 170.913 165.411 171.689 162.989 173.103C160.566 174.517 157.229 176.524 153.526 178.942C145.612 184.013 138.23 189.866 131.491 196.414C129.232 198.689 127.11 201.096 125.137 203.622C124.771 195.73 124.634 187.792 124.634 179.809C126.554 180.128 130.303 178.76 139.171 172.829C151.077 164.178 162.379 154.728 173 144.545C159.499 150.41 146.411 157.177 133.823 164.8C130.622 166.819 127.567 169.06 124.68 171.506C124.68 170.959 124.68 170.366 124.68 169.818C124.852 169.447 124.941 169.042 124.941 168.632C124.941 168.223 124.852 167.818 124.68 167.446L124.954 159.965C124.954 157.592 125.183 155.403 125.32 152.848C125.724 153.24 126.239 153.499 126.795 153.588C127.351 153.678 127.922 153.595 128.429 153.35C132.369 151.294 135.938 148.596 138.989 145.367C144.474 140.348 151.194 133.141 156.863 127.119C162.531 121.097 166.829 116.855 166.829 116.855C166.829 116.855 165.412 117.448 163.08 118.588C160.749 119.729 157.503 121.28 153.937 123.15C146.279 127.257 139.09 132.183 132.497 137.84C130.115 139.931 127.899 142.203 125.869 144.637C126.28 138.706 126.829 132.776 127.423 126.8C129.251 127.21 132.543 125.796 140.726 119.181C151.021 110.011 160.646 100.117 169.526 89.5747C157.366 96.0852 145.694 103.464 134.6 111.654C132.04 113.753 130.029 115.486 128.566 116.946C128.566 116.672 128.566 116.399 128.566 116.171C128.883 115.817 129.108 115.39 129.22 114.928C129.331 114.466 129.327 113.984 129.206 113.525C129.167 113.242 129.09 112.966 128.977 112.704C129.495 108.932 130.044 105.146 130.623 101.344C132.314 101.892 135.194 100.66 142.463 93.9086C151.122 85.1337 159.056 75.675 166.189 65.6248C155.557 72.0037 145.453 79.2191 135.972 87.2025C134.692 88.3885 133.549 89.4835 132.634 90.4415C133.594 85.1953 134.6 79.9491 135.743 74.7029C137.434 75.7065 140.314 74.9312 148.543 66.3092C157.377 56.4103 165.445 45.8571 172.68 34.7407C161.721 42.2205 151.345 50.5164 141.64 59.5574C140.314 60.8804 139.217 62.0666 138.257 63.1615C138.943 60.1963 139.583 57.231 140.269 54.0377C142.143 54.0377 144.291 51.3005 148.314 40.5801C152.561 27.4508 155.861 14.035 158.189 0.435547C150.993 12.2242 144.653 24.5119 139.217 37.2043C138.577 38.9379 138.074 40.4889 137.617 41.7662C133.712 31.2564 128.989 21.0676 123.491 11.2929C124.251 22.948 126.009 34.5165 128.749 45.8718C132.086 57.094 134.097 57.9153 136.291 57.4135C134.737 63.3895 133.32 69.3656 132.04 75.661C131.244 73.9141 130.359 72.2088 129.389 70.5517C125.379 64.014 120.504 58.045 114.897 52.8059C112.291 50.2969 109.869 48.244 108.131 46.7385C106.394 45.2331 105.252 44.4576 105.252 44.4576L106.943 47.6966L111.011 55.6343C114.211 61.9753 117.777 69.7306 120.977 75.3873C122.629 78.8882 124.889 82.0697 127.652 84.7848C127.987 85.0699 128.389 85.2653 128.821 85.3531C129.253 85.4408 129.7 85.418 130.12 85.2865C129.48 88.7536 128.886 92.2207 128.337 95.6878C128.035 96.121 127.833 96.6157 127.746 97.1365C127.659 97.6572 127.689 98.1908 127.834 98.6985C127.377 101.755 126.92 104.811 126.509 107.822C125.732 106.499 124.771 105.04 123.583 103.26C119.789 97.6493 114.44 90.6239 109.869 84.6478C107.674 81.6826 105.8 78.9911 104.429 77.0295L102.28 73.9275C102.28 73.9275 102.554 75.3417 103.057 77.6683C103.56 79.9948 104.383 83.1881 105.526 86.792C107.822 94.4843 111.143 101.834 115.4 108.643C117.479 112.278 120.355 115.397 123.812 117.767C124.22 117.994 124.672 118.134 125.137 118.178L124.726 121.645C124.529 121.996 124.407 122.384 124.368 122.784C124.329 123.185 124.373 123.589 124.497 123.971C124.101 127.894 123.735 131.818 123.4 135.741L122.897 135.148C121.617 133.688 119.743 131.818 117.366 129.309C114.989 126.8 112.063 124.017 109.229 121.006C106.394 117.995 103.56 114.893 101.137 111.882C98.7143 108.872 96.5658 106.226 95.2401 104.218L92.9544 100.979C92.9544 100.979 93.2286 102.439 93.8686 104.857C94.7046 108.082 95.7428 111.251 96.9771 114.346C98.5636 118.35 100.491 122.211 102.737 125.887C104.92 129.493 107.479 132.856 110.372 135.923C112.401 138.065 114.619 140.019 117 141.763C118.243 142.689 119.634 143.399 121.114 143.861C121.652 144.018 122.223 144.018 122.76 143.861C122.394 149.107 122.12 154.308 121.846 159.463V162.747C120.703 161.379 119.103 159.782 117.274 157.775C112.383 153.213 105.389 147.42 99.72 142.721L89.5714 134.418C89.5714 134.418 90.2115 135.695 91.3544 137.794C92.4972 139.892 94.0972 142.721 95.9258 145.914C100.012 152.679 104.842 158.968 110.326 164.663C113.053 167.819 116.439 170.341 120.246 172.054C120.699 172.138 121.164 172.138 121.617 172.054C121.617 179.535 121.389 187.062 121.617 194.589C119.971 192.81 117.594 190.529 114.257 187.473C108.04 181.816 99.4 174.973 92.4515 169.225L80.1087 159.007L82.5315 162.976C84.0401 165.393 86.2343 168.769 88.8857 172.51C94.3988 180.487 100.709 187.885 107.72 194.589C111.226 198.263 115.379 201.263 119.972 203.44C120.585 203.604 121.232 203.604 121.846 203.44C122.074 210.054 122.394 216.669 122.851 223.329C119.948 220.721 116.896 218.284 113.709 216.03C106.989 211.012 97.7087 205.036 90.2573 199.972L77 190.849C77 190.849 78.0058 192.263 79.7886 194.589C81.5715 196.916 84.04 200.018 87.0114 203.713C93.2643 211.115 100.248 217.871 107.857 223.877C111.702 227.218 116.135 229.816 120.932 231.541C121.695 231.841 122.545 231.841 123.309 231.541C124.765 248.896 127.222 266.154 130.669 283.227C131.08 285.28 134.143 284.504 133.823 282.497C131.385 268.355 129.419 254.198 127.926 240.026C128.449 239.976 128.959 239.838 129.434 239.615C133.444 237.206 137.079 234.225 140.223 230.765Z" fill="#5EAD41"/>
</g>
<defs>
<clipPath id="clip0_302_4859">
<rect width="173" height="180" fill="white"/>
</clipPath>
</defs>
</svg>
