<svg viewBox="0 0 84 112" fill="none" xmlns="http://www.w3.org/2000/svg">
<g clip-path="url(#clip0_302_4853)">
<path fill-rule="evenodd" clip-rule="evenodd" d="M54.6052 102.361C53.6337 102.238 52.3966 101.889 52.2519 100.672C52.2408 100.28 52.3482 99.8938 52.5602 99.563C52.7722 99.2321 53.079 98.9721 53.4409 98.8166C54.239 98.579 55.0783 98.5122 55.9037 98.6207C58.4215 98.8971 60.8787 99.5698 63.1834 100.614C65.1568 101.529 66.993 102.712 68.6395 104.129C68.3841 101.192 68.1045 98.2583 67.8248 95.3251C63.1105 94.5351 58.344 93.456 53.9157 92.5895C52.9553 92.3899 51.7933 91.9034 51.7981 90.6843C51.823 90.2963 51.9634 89.9243 52.2013 89.6156C52.4392 89.307 52.764 89.0757 53.1341 88.9512C53.9547 88.7712 54.8035 88.7619 55.6274 88.9239C57.9933 89.3766 60.285 90.1509 62.4381 91.2252C64.3795 92.1872 66.1912 93.389 67.8303 94.802C67.5998 92.5562 67.3451 90.3146 67.0619 88.0534C62.3971 86.3125 57.598 84.9504 52.7114 83.9802C51.7027 83.7893 50.4439 83.3204 50.4003 82.1099C50.4026 81.7096 50.5364 81.3207 50.7812 81.0027C51.026 80.6847 51.3683 80.455 51.7561 80.3484C52.6287 80.162 53.5305 80.1602 54.4032 80.343C57.0195 80.8452 59.5298 81.7879 61.8264 83.1305C63.7243 84.2242 65.4516 85.5876 66.9538 87.1778C66.6382 84.5992 66.2941 82.0009 65.8973 79.3872C61.3905 77.5015 56.6701 76.1661 51.8391 75.4104C50.8632 75.2633 49.6174 74.8666 49.5012 73.6692C49.4788 73.27 49.588 72.8742 49.8121 72.542C50.0363 72.2099 50.3631 71.9595 50.7429 71.8289C51.5996 71.6028 52.4944 71.5599 53.3683 71.7032C55.9924 72.1101 58.5131 73.014 60.794 74.3659C62.6634 75.4407 64.3391 76.819 65.752 78.4437C65.3434 76.1803 64.9305 73.8927 64.6628 71.579L64.5715 71.0733C59.4713 69.1463 54.2758 67.4783 49.005 66.0758C47.9063 65.8017 46.5817 65.2452 46.6106 64.0216C46.6483 63.6145 46.8214 63.2314 47.1024 62.933C47.3834 62.6345 47.7563 62.4379 48.1619 62.3741C49.0936 62.2516 50.0402 62.3175 50.945 62.568C53.6656 63.2643 56.269 64.3523 58.6728 65.7977C60.8305 67.0821 62.797 68.6603 64.5156 70.4866C64.0809 68.0787 63.6811 65.8634 63.2681 63.5759C61.1271 62.371 58.9705 61.2188 56.7388 60.2044C54.2148 59.0398 51.6214 58.0299 48.9732 57.1803C47.9384 56.8449 46.6535 56.2315 46.724 55.0999C46.7874 54.6962 46.9824 54.3242 47.279 54.0415C47.5757 53.7588 47.9574 53.5809 48.3653 53.5355C49.3107 53.4687 50.2596 53.5935 51.1545 53.9023C53.8567 54.7691 56.3868 56.0959 58.6324 57.8237C60.2848 59.1184 61.7579 60.6249 63.0136 62.304C62.4703 59.2941 61.806 56.306 61.1418 53.3179C59.067 51.9271 56.9526 50.5931 54.8047 49.489C52.2764 48.097 49.6394 46.91 46.9192 45.9396C45.8471 45.5363 44.5536 44.8747 44.6309 43.6424C44.706 43.2345 44.9176 42.8638 45.2312 42.5905C45.5447 42.3171 45.9418 42.1574 46.3578 42.1372C46.8423 42.1008 47.3294 42.1387 47.802 42.2496C48.2924 42.342 48.7749 42.4709 49.2457 42.6354C52.0194 43.653 54.585 45.1608 56.8193 47.0865C58.3075 48.3876 59.6244 49.8708 60.7388 51.501C60.0982 48.7821 59.4619 46.0874 58.8014 43.3969C55.1618 40.5661 51.0981 38.3212 46.7583 36.7441C45.8488 36.411 44.742 35.8151 44.8479 34.6025C44.8969 34.2093 45.0741 33.8427 45.3523 33.559C45.6305 33.2752 45.9943 33.0899 46.388 33.0316C46.8229 32.9798 47.263 32.9925 47.6939 33.0694C48.1325 33.1408 48.5631 33.2546 48.9793 33.4093C51.435 34.316 53.6721 35.7247 55.5466 37.5447C56.55 38.5082 57.4261 39.5949 58.1539 40.7788C57.4518 37.9964 56.7299 35.2425 55.9794 32.4689C52.286 29.6325 48.1801 27.3723 43.8024 25.7656C42.9214 25.4522 41.8629 24.8476 41.9887 23.6066C42.0397 23.2167 42.2135 22.8528 42.4851 22.567C42.7567 22.2812 43.1121 22.0883 43.5003 22.016C43.9167 21.9584 44.3396 21.966 44.7534 22.0384C45.1617 22.1275 45.565 22.2373 45.962 22.3673C48.3319 23.2383 50.4865 24.6042 52.2811 26.3735C53.5381 27.6121 54.589 29.0423 55.3941 30.6103C54.7418 28.2417 54.0894 25.8731 53.3886 23.5132C49.6453 20.6571 46.3158 17.3007 43.494 13.5385C42.8778 12.7546 42.3658 11.579 43.2361 10.7257C43.5147 10.4615 43.8649 10.2843 44.2433 10.216C44.6217 10.1477 45.0117 10.1913 45.3651 10.3414C46.0435 10.7177 46.6372 11.2282 47.1098 11.8416C49.3313 14.5728 51.1846 17.5818 52.6226 20.7921C52.1708 19.2575 51.7189 17.7229 51.2428 16.1926C48.0507 11.5623 45.5169 6.51409 43.7135 1.19119C43.3113 0.0703169 43.2354 -1.45754 44.4878 -2.13115C44.9093 -2.31242 45.3731 -2.37267 45.8268 -2.30516C46.2805 -2.23765 46.7059 -2.04502 47.055 -1.74909C47.6832 -1.11773 48.1622 -0.354877 48.4574 0.484163C50.298 5.28364 51.3712 10.3419 51.6379 15.4748C51.7813 16.2695 52.1425 17.0248 52.4112 17.8217C51.926 13.9479 51.8642 10.0324 52.227 6.14401C52.3038 5.18532 52.7087 3.9685 53.9444 3.89462C54.3292 3.89615 54.7055 4.00592 55.0299 4.21133C55.3543 4.41674 55.6136 4.70944 55.7778 5.05554C56.0228 5.78404 56.1111 6.55592 56.0369 7.32111C55.7649 11.7208 54.7925 16.0507 53.1561 20.1488C54.3136 23.7938 55.4073 27.5 56.4483 31.1908C56.2607 28.8698 56.3764 26.5337 56.7927 24.2413C57.309 21.5037 58.1716 18.8416 59.3598 16.3188C59.828 15.3143 60.7714 14.1743 61.9402 14.5601C62.3026 14.7139 62.6108 14.9714 62.8258 15.3C63.0407 15.6286 63.1528 16.0135 63.1478 16.4059C63.0761 17.2262 62.8662 18.0289 62.5271 18.7804L59.7099 25.4553C58.7864 27.5365 57.8277 29.6987 56.7363 32.2329C57.3886 34.6015 57.9951 36.8541 58.5904 39.1833C58.6955 34.5039 59.6931 29.8856 61.53 25.5742C61.9499 24.5785 62.7723 23.4604 63.9523 23.7695C64.3242 23.8962 64.6499 24.1298 64.8883 24.4407C65.1267 24.7517 65.2672 25.1261 65.292 25.5168C65.2674 26.3131 65.1051 27.0994 64.8122 27.8412C63.1763 32.2088 61.22 36.4513 58.9591 40.534C59.768 43.7695 60.5241 46.9896 61.2604 50.2382C60.9389 47.6816 61.0536 45.0886 61.5997 42.5686C62.2027 39.7507 63.2487 37.0445 64.6991 34.55C65.2684 33.5521 66.3502 32.4866 67.4682 33.0059C67.8121 33.2015 68.0894 33.495 68.2645 33.8488C68.4396 34.2026 68.5046 34.6005 68.4511 34.9916C68.3055 35.7845 68.0298 36.5483 67.6351 37.2524C66.4474 39.5304 65.4428 41.5766 64.4269 43.6993C63.4111 45.8221 62.4325 48.0127 61.3628 50.6673C61.541 51.6546 61.7149 52.6177 61.8887 53.5809C61.9256 53.7232 61.9517 53.8681 61.9669 54.0143C62.2929 55.8203 62.6233 57.6504 63.0987 59.4542C62.9902 56.6802 63.3332 53.9062 64.1142 51.2398C65.0228 48.1562 66.4182 45.2353 68.2482 42.5869C68.9782 41.5103 70.346 40.3683 71.3275 40.9619C71.6645 41.1955 71.9193 41.5286 72.0561 41.9142C72.1929 42.2998 72.2049 42.7186 72.0903 43.1117C71.8199 43.9888 71.4235 44.8225 70.9132 45.5868C69.3844 48.0508 68.1198 50.3179 66.8726 52.6813C65.6254 55.0447 64.4707 57.3666 63.2465 60.2729C63.4725 61.525 63.6812 62.6808 63.9202 64.0052C63.9471 64.0995 63.9646 64.1963 63.9724 64.2941C64.2114 65.6185 64.4505 66.9429 64.6939 68.2913C64.9704 65.9374 65.5808 63.634 66.5068 61.4497C67.7833 58.3464 69.6027 55.4924 71.8803 53.0206C72.7927 51.9857 74.292 51.0189 75.271 51.7373C75.5672 52.025 75.7657 52.3977 75.839 52.8034C75.9122 53.2091 75.8565 53.6276 75.6796 54.0007C75.4882 54.4439 75.2453 54.8632 74.9558 55.2502C74.678 55.6485 74.3759 56.0511 74.1092 56.3728C72.377 58.5449 70.7769 60.8181 69.3173 63.1802C67.8534 65.401 66.5263 67.7081 65.3431 70.0887L65.6082 71.5575C65.9646 73.532 66.321 75.5065 66.6818 77.5051C67.0387 74.8507 67.8307 72.2719 69.0262 69.8714C70.342 67.1572 72.0749 64.6632 74.1623 62.4797C74.9754 61.587 76.347 60.7427 77.3062 61.4895C77.588 61.7711 77.7768 62.1317 77.8475 62.5231C77.9181 62.9146 77.8673 63.3184 77.7017 63.6807C77.3582 64.4708 76.8807 65.1962 76.2901 65.8252C74.5137 67.8863 72.9816 69.779 71.4012 71.6804C69.8208 73.5819 68.3744 75.5337 66.6874 77.9516L67.6332 84.0218C69.6343 79.5818 72.6122 75.6452 76.3463 72.5035C77.1062 71.869 78.2749 71.2851 79.1528 71.9969C79.4048 72.2814 79.5736 72.6293 79.641 73.0028C79.7084 73.3763 79.6719 73.7612 79.5353 74.1159C79.1981 74.7823 78.7382 75.3798 78.1794 75.8773C74.8929 78.9199 71.3299 81.6523 67.5364 84.0393C68.0029 86.6238 68.3712 89.2177 68.6413 91.8211C70.7736 87.4455 74.0152 83.6979 78.0456 80.9488C78.9109 80.3451 80.2025 79.8882 80.9899 80.7903C81.2302 81.0955 81.3764 81.4637 81.4108 81.8503C81.4451 82.2369 81.366 82.6252 81.1832 82.9684C80.7716 83.6162 80.2363 84.1774 79.6077 84.6202C77.6941 86.0596 75.9765 87.3394 74.1863 88.6322L68.7214 92.4034C69.1561 94.8113 69.3246 97.2673 69.5899 99.7058C70.4908 97.7717 71.6962 95.9929 73.1605 94.4366C74.9628 92.489 77.0853 90.8613 79.4366 89.6239C80.3677 89.1077 81.7865 88.8019 82.3977 89.8354C82.5796 90.1703 82.6656 90.5487 82.6462 90.9293C82.6268 91.3099 82.5027 91.678 82.2876 91.9935C81.8072 92.5798 81.2161 93.0666 80.5477 93.4265C78.5422 94.6338 76.7986 95.7691 74.9581 96.9218C73.1176 98.0745 71.6029 99.0938 69.6805 100.485C69.9651 103.169 70.2255 105.857 70.4573 108.525C71.4046 106.346 72.7374 104.354 74.392 102.643C76.139 100.85 78.1608 99.3433 80.3816 98.1806C81.2686 97.6972 82.5664 97.4132 83.2018 98.4423C83.3946 98.7683 83.493 99.1411 83.4864 99.5196C83.4798 99.8981 83.3683 100.268 83.1643 100.587C82.7128 101.145 82.1626 101.615 81.541 101.974L70.2569 108.661C70.4092 110.473 70.5373 112.29 70.6654 114.107C71.3663 112.042 72.5539 110.173 74.1287 108.658C76.0872 106.764 78.4968 105.396 81.1308 104.684C81.6877 104.534 82.2705 104.505 82.8393 104.599C83.1067 104.651 83.3545 104.775 83.5552 104.958C83.7558 105.141 83.9015 105.377 83.976 105.637C84.0536 106.01 84.032 106.396 83.9132 106.758C83.7944 107.119 83.5826 107.444 83.2988 107.699C83.0176 107.927 82.7075 108.117 82.3764 108.263L81.4236 108.659C79.4743 109.338 77.5979 110.21 75.8227 111.261C74.8972 111.768 74.0065 112.336 73.1566 112.961C72.3106 113.562 71.5023 114.215 70.7362 114.915C70.8656 117.154 70.995 119.393 71.0959 121.613C73.0308 118.351 75.8998 115.738 79.3344 114.108C79.5274 113.982 79.7441 113.896 79.9715 113.856C80.1988 113.815 80.432 113.822 80.6567 113.874C80.8813 113.927 81.0928 114.024 81.278 114.161C81.4633 114.298 81.6185 114.471 81.7341 114.67C81.906 114.988 82.0002 115.342 82.009 115.703C82.0178 116.064 81.9409 116.423 81.7847 116.749C81.4252 117.226 80.9688 117.622 80.4455 117.911C78.8519 118.771 77.4103 119.503 75.8632 120.205C74.3161 120.907 72.9166 121.458 71.22 122.162C71.3745 126.063 71.4762 129.948 71.4527 133.831C71.557 134.409 70.4223 134.489 70.3862 133.874C70.1957 129.359 69.981 124.847 69.6936 120.349C66.0245 120.609 62.3796 121.142 58.7896 121.944C58.3682 122.096 57.905 122.083 57.4933 121.908C57.0816 121.734 56.752 121.41 56.5711 121.002C56.4126 120.667 56.3518 120.294 56.3957 119.925C56.4397 119.557 56.5865 119.208 56.8195 118.918C57.3472 118.454 57.9863 118.133 58.6749 117.987C60.6749 117.525 62.7477 117.472 64.7675 117.832C66.5023 118.176 68.1602 118.829 69.6619 119.758C69.5192 117.214 69.3619 114.682 69.1898 112.16C65.1085 112.524 60.975 112.599 57.1733 112.713C56.3247 112.717 55.2347 112.491 54.9975 111.316C54.9375 110.945 54.9794 110.565 55.1187 110.216C55.258 109.867 55.4896 109.562 55.7888 109.333C56.4298 108.995 57.1427 108.815 57.8676 108.809C61.8062 108.645 65.7111 109.576 69.1451 111.497C68.9524 109.045 68.7901 106.762 68.5862 104.387C64.0078 103.797 59.1377 102.836 54.6052 102.361Z" fill="#5EAD41"/>
<path fill-rule="evenodd" clip-rule="evenodd" d="M3.25645 78.2267C10.597 79.8909 14.5938 86.087 18.075 92.1609C18.0875 92.2546 18.0979 92.3328 18.2211 92.4118C18.2427 92.4664 18.2505 92.5254 18.244 92.5837C19.2733 93.8252 20.1278 95.1988 20.7841 96.6674C21.1681 89.9843 21.8474 83.3415 25.9528 77.754C26.0112 77.6695 26.0928 77.6031 26.1881 77.5627C26.2833 77.5223 26.3881 77.5096 26.4902 77.5262C26.5922 77.5427 26.6873 77.5877 26.7642 77.6559C26.841 77.7241 26.8965 77.8127 26.924 77.9112C29.0325 85.1695 25.3629 91.7327 21.6109 97.798C21.5837 97.8485 21.5464 97.8931 21.5014 97.9292C21.4564 97.9652 21.4045 97.992 21.3489 98.0078C22.0976 100.086 22.6673 102.224 23.052 104.398C23.0977 104.741 23.1434 105.085 23.1891 105.429L23.4266 105.397C26.4272 97.7328 31.3574 90.946 37.7499 85.6805C37.8382 85.6037 37.9494 85.5572 38.0666 85.548C38.1838 85.5388 38.3007 85.5675 38.3997 85.6296C38.4988 85.6918 38.5746 85.7841 38.6159 85.8926C38.6572 86.0012 38.6616 86.1202 38.6285 86.2317C36.6307 93.8609 31.4566 103.646 23.4475 106.524L23.5424 106.511C24.1353 110.323 24.4426 114.173 24.4618 118.031L24.5567 118.018L24.7942 117.987C27.7937 110.326 32.7179 103.541 39.1017 98.2719C39.192 98.2001 39.3027 98.1576 39.4183 98.1506C39.534 98.1435 39.6488 98.1721 39.7471 98.2324C39.8453 98.2927 39.9221 98.3817 39.9667 98.4872C40.0113 98.5926 40.0216 98.7093 39.9961 98.821C37.9825 106.452 32.8242 116.235 24.8151 119.113C24.7141 119.17 24.5949 119.186 24.4827 119.157C24.4629 120.22 24.4343 121.337 24.3967 122.509C24.3846 122.645 24.32 122.772 24.2162 122.864C24.1124 122.955 23.9772 123.004 23.8385 123C23.6998 122.996 23.5681 122.939 23.4705 122.842C23.3728 122.745 23.3166 122.615 23.3134 122.478C23.4102 120.54 23.4258 118.598 23.376 116.648C16.5029 113.411 7.04506 107.209 4.46972 99.711C4.29245 99.2256 4.9006 98.954 5.27997 99.1421C12.4492 102.547 19.9107 106.453 23.3303 113.76C23.1815 111.187 22.8892 108.624 22.4547 106.083C22.2781 104.755 21.9749 103.443 21.6716 102.132C14.816 100.117 7.60902 97.6396 4.32335 90.8559C4.27673 90.7626 4.25869 90.6578 4.27145 90.5543C4.28421 90.4508 4.32722 90.3531 4.3952 90.2732C4.46319 90.1933 4.55321 90.1346 4.65425 90.1044C4.7553 90.0741 4.86298 90.0735 4.96414 90.1027C11.5963 91.5271 16.5895 95.8891 21.2973 100.528C20.5249 97.6493 19.0679 94.9968 17.0473 92.7905C11.3246 89.2413 5.72901 85.4366 2.82092 79.1911C2.73111 79.1137 2.66887 79.0098 2.64332 78.8946C2.61778 78.7795 2.63028 78.6592 2.67898 78.5513C2.72769 78.4434 2.81004 78.3537 2.91396 78.2953C3.01788 78.2369 3.13791 78.2128 3.25645 78.2267Z" fill="#5EAD41"/>
</g>
<defs>
<clipPath id="clip0_302_4853">
<rect width="84" height="112" fill="white"/>
</clipPath>
</defs>
</svg>
