<svg viewBox="0 0 81 87" fill="none" xmlns="http://www.w3.org/2000/svg">
<g clip-path="url(#clip0_319_4853)">
<path fill-rule="evenodd" clip-rule="evenodd" d="M52.0192 11.948C52.7942 11.8481 53.8195 11.8692 54.1754 12.7801C54.2625 13.0806 54.2571 13.4006 54.1597 13.6986C54.0624 13.9966 53.8776 14.259 53.6293 14.4517C53.0606 14.7952 52.4258 15.0151 51.7666 15.0969C49.7667 15.3884 47.7342 15.3617 45.7449 15.0179C44.0373 14.7069 42.382 14.1615 40.8262 13.3973C41.6126 15.6147 42.4169 17.8239 43.2212 20.033C47.0204 19.6976 50.9179 19.5749 54.5116 19.356C55.2933 19.3175 56.2883 19.4601 56.5291 20.4026C56.5877 20.7072 56.5539 21.0226 56.4321 21.3087C56.3102 21.5948 56.1058 21.8385 55.845 22.0089C55.2473 22.3125 54.5936 22.4899 53.9249 22.5301C52.007 22.655 50.0818 22.5167 48.2036 22.1189C46.5113 21.7653 44.8712 21.2006 43.3218 20.4381C43.9503 22.1263 44.5966 23.8063 45.2689 25.4958C49.2205 25.9046 53.2 25.994 57.1684 25.7632C57.9857 25.7083 59.0519 25.8179 59.3284 26.744C59.4069 27.0536 59.3816 27.3808 59.2563 27.6754C59.131 27.9701 58.9127 28.2162 58.6346 28.3763C57.9981 28.6953 57.302 28.8776 56.5914 28.9114C54.4702 29.0483 52.3424 28.8238 50.2995 28.2475C48.6145 27.7836 47.007 27.0771 45.528 26.1503C46.2889 28.0784 47.0758 30.016 47.9065 31.9549C51.7652 32.5073 55.6785 32.5918 59.561 32.2065C60.3441 32.1244 61.3858 32.1809 61.7157 33.0823C61.813 33.3861 61.8081 33.7136 61.7017 34.0151C61.5952 34.3166 61.393 34.5755 61.1258 34.7525C60.5096 35.099 59.8272 35.3116 59.1235 35.3762C57.0154 35.5882 54.8874 35.3958 52.8548 34.8092C51.1955 34.3541 49.6249 33.6258 48.2079 32.6544C48.9774 34.3205 49.7551 36.0043 50.426 37.7375L50.5979 38.1097C54.9231 38.5749 59.2701 38.821 63.6219 38.8469C64.5254 38.8382 65.66 39.0024 65.883 39.9531C65.9356 40.275 65.8788 40.6056 65.7216 40.8925C65.5644 41.1793 65.3159 41.406 65.0155 41.5366C64.3206 41.8181 63.5763 41.957 62.8273 41.9451C60.5865 41.953 58.3578 41.6349 56.2115 41.0008C54.2875 40.4417 52.4523 39.6173 50.7588 38.5515C51.5774 40.324 52.3305 41.9546 53.1082 43.6384C55.0034 44.1394 56.9 44.5967 58.8269 44.9325C61.0097 45.3257 63.2151 45.5854 65.4307 45.7104C66.2971 45.7618 67.4125 45.9778 67.5849 46.8659C67.617 47.1904 67.541 47.5168 67.3686 47.7946C67.1962 48.0724 66.9371 48.2863 66.6312 48.4032C65.9145 48.6445 65.1567 48.7384 64.4036 48.6794C62.1428 48.552 59.9228 48.0348 57.842 47.1509C56.3063 46.4824 54.8665 45.6145 53.5599 44.5695C54.5832 46.7851 55.6955 48.9595 56.8078 51.1339C58.6891 51.7919 60.5896 52.3979 62.4698 52.8198C64.7015 53.3878 66.9761 53.7755 69.2715 53.9794C70.1803 54.0758 71.312 54.3273 71.4994 55.2944C71.5232 55.6245 71.4342 55.9533 71.2469 56.2273C71.0595 56.5012 70.7849 56.7043 70.4677 56.8032C70.1009 56.9285 69.7171 56.997 69.3298 57.0062C68.9326 57.0332 68.5341 57.0304 68.1375 56.9978C65.7914 56.7682 63.5075 56.1183 61.3959 55.0793C59.9856 54.373 58.671 53.4917 57.4834 52.4563C58.5235 54.4275 59.5554 56.381 60.6051 58.3262C63.9837 59.7824 67.5722 60.701 71.2401 61.0486C72.0093 61.1234 72.9836 61.3616 73.145 62.3193C73.186 62.6328 73.1227 62.9514 72.9648 63.2264C72.8069 63.5013 72.5631 63.7174 72.2707 63.8414C71.9453 63.9686 71.6028 64.047 71.2546 64.0741C70.9016 64.107 70.5462 64.1054 70.1937 64.0695C68.1154 63.8618 66.1052 63.2226 64.2925 62.193C63.3244 61.6501 62.4298 60.9866 61.6303 60.2183C62.7305 62.2263 63.8404 64.2082 64.9763 66.1997C68.3975 67.6494 72.0218 68.5714 75.7249 68.9341C76.4681 68.9995 77.4068 69.2541 77.5586 70.2377C77.5974 70.549 77.5361 70.865 77.3837 71.1402C77.2313 71.4153 76.9955 71.6356 76.7103 71.7693C76.4002 71.8973 76.0721 71.9763 75.738 72.0033C75.4048 72.0164 75.0713 72.0125 74.7387 71.9917C72.7337 71.7944 70.7958 71.1717 69.0551 70.1653C67.8358 69.4609 66.7374 68.5671 65.8011 67.5176C66.78 69.216 67.7589 70.9144 68.7734 72.5964C72.2372 74.0512 75.4817 75.9756 78.4155 78.315C79.0485 78.7968 79.6797 79.602 79.1788 80.4356C79.0166 80.6955 78.7817 80.9025 78.5032 81.0312C78.2247 81.1598 77.9147 81.2044 77.6117 81.1594C77.0123 81.0048 76.4514 80.7296 75.9634 80.3508C73.6999 78.687 71.6652 76.735 69.9107 74.5442C70.5675 75.6387 71.2243 76.7332 71.8988 77.8195C75.2928 80.7551 78.2621 84.1456 80.7225 87.8946C81.2579 88.6796 81.623 89.8443 80.7908 90.6157C80.5017 90.8402 80.1556 90.9798 79.7917 91.0186C79.4278 91.0575 79.0606 90.9941 78.7317 90.8355C78.1198 90.474 77.5969 89.9809 77.2007 89.3921C74.8165 86.0548 72.9732 82.3637 71.7377 78.4531C71.4676 77.8682 71.0372 77.3573 70.6698 76.7958C71.8215 79.6901 72.6545 82.7015 73.1543 85.7772C73.2873 86.533 73.2186 87.5539 72.2791 87.8589C71.9817 87.9348 71.669 87.9255 71.3773 87.832C71.0856 87.7384 70.8266 87.5644 70.6304 87.33C70.2951 86.8166 70.0721 86.2382 69.9759 85.6323C69.3034 82.18 69.1859 78.6411 69.6278 75.148C68.0028 72.5652 66.4148 69.9224 64.8706 67.2808C65.481 69.0357 65.8601 70.863 65.9985 72.7168C66.1488 74.9346 66.0166 77.1635 65.605 79.3501C65.4449 80.2198 64.945 81.2893 63.9649 81.2259C63.6542 81.1798 63.3645 81.0427 63.1326 80.8321C62.9007 80.6214 62.737 80.3467 62.6621 80.0426C62.553 79.3947 62.554 78.7327 62.6652 78.0843L63.5021 72.3644C63.7978 70.5719 64.1046 68.7098 64.4392 66.5338C63.4603 64.8354 62.5401 63.2174 61.6132 61.538C62.4706 65.1729 62.6265 68.9396 62.0726 72.6376C61.9481 73.4908 61.5372 74.5193 60.5639 74.5172C60.2513 74.4939 59.9529 74.3789 59.7064 74.1866C59.4599 73.9942 59.2764 73.7332 59.1788 73.4365C59.0381 72.8166 59.0057 72.1768 59.0832 71.5452C59.4705 67.8441 60.1304 64.1753 61.0575 60.5688C59.7839 58.2324 58.5541 55.8972 57.3339 53.5361C58.095 55.446 58.5265 57.4715 58.6102 59.5272C58.7097 61.8244 58.4447 64.1241 57.8249 66.3415C57.5854 67.2263 56.9636 68.2661 55.9961 68.0893C55.6912 68.0072 55.4182 67.8362 55.212 67.5981C55.0058 67.36 54.8758 67.0657 54.8387 66.7529C54.7921 66.1114 54.8519 65.4663 55.0155 64.8433C55.4757 62.8458 55.8412 61.0641 56.2 59.221C56.5587 57.3779 56.8751 55.4899 57.1688 53.2252C56.8331 52.4985 56.5057 51.7896 56.1782 51.0806C56.1212 50.9781 56.072 50.8714 56.0309 50.7616C55.4169 49.4322 54.7947 48.0852 54.0657 46.7875C54.7059 48.908 54.9975 51.1191 54.9291 53.3349C54.8459 55.8986 54.3541 58.4342 53.472 60.8466C53.1242 61.8244 52.2969 62.9807 51.4199 62.7192C51.1128 62.6063 50.8492 62.4002 50.6662 62.1298C50.4832 61.8595 50.39 61.5385 50.3996 61.2119C50.4325 60.4803 50.5714 59.7569 50.8122 59.0643C51.4987 56.8548 52.0206 54.8503 52.5097 52.775C52.9988 50.6996 53.4249 48.6748 53.7874 46.1849C53.3617 45.2632 52.9688 44.4125 52.5185 43.4376C52.4788 43.3701 52.4459 43.2989 52.4203 43.2249C51.9701 42.2501 51.5198 41.2753 51.0614 40.2827C51.3199 42.156 51.3106 44.0573 51.0335 45.9299C50.6702 48.5826 49.8375 51.1516 48.5743 53.5173C48.0773 54.4996 47.1133 55.5469 46.2131 55.1885C45.9267 55.0257 45.6986 54.7777 45.5607 54.4791C45.4228 54.1805 45.3818 53.8461 45.4436 53.5224C45.5025 53.1418 45.606 52.7692 45.752 52.4123C45.8867 52.049 46.0392 51.6775 46.1806 51.3756C47.0827 49.3507 47.8625 47.2742 48.5159 45.1573C49.201 43.1485 49.7632 41.1006 50.1995 39.0248L49.7001 37.9437C49.0289 36.4903 48.3576 35.0369 47.6781 33.5658C47.9349 35.6873 47.8405 37.8378 47.3987 39.9314C46.9269 42.2914 46.0889 44.565 44.9148 46.67C44.4658 47.5225 43.576 48.4496 42.6854 48.0653C42.4113 47.9043 42.1932 47.6637 42.0601 47.3756C41.927 47.0874 41.8853 46.7654 41.9405 46.4524C42.0472 45.7733 42.2705 45.1173 42.6005 44.5131C43.559 42.565 44.3625 40.7961 45.2017 39.0107C46.0408 37.2252 46.7663 35.4278 47.5842 33.2221L45.6363 28.7239C44.9815 32.5542 43.4713 36.1916 41.2176 39.3669C40.758 40.0093 39.9726 40.6946 39.1518 40.321C38.9002 40.1518 38.7 39.917 38.573 39.6421C38.446 39.3672 38.3971 39.0626 38.4314 38.7613C38.5581 38.179 38.7935 37.6253 39.1252 37.129C41.0531 34.1201 43.2567 31.2952 45.7075 28.691C44.8289 26.7886 44.0242 24.8593 43.2934 22.9029C42.5243 26.7097 40.7726 30.2541 38.2114 33.1856C37.6642 33.8254 36.7584 34.4373 35.9694 33.8985C35.7225 33.711 35.5358 33.456 35.4317 33.1643C35.3277 32.8726 35.3109 32.5569 35.3832 32.2552C35.5712 31.6723 35.872 31.1315 36.2686 30.6635C37.4578 29.1681 38.5276 27.8353 39.6508 26.4778L43.1148 22.4693C42.2962 20.6969 41.6734 18.834 40.9795 17.004C40.6716 18.6783 40.0975 20.2938 39.2788 21.7894C38.2775 23.655 36.9648 25.3377 35.3971 26.765C34.7816 27.3504 33.7473 27.8711 33.068 27.1956C32.8603 26.9734 32.718 26.6984 32.6566 26.4006C32.5953 26.1028 32.6173 25.7936 32.7201 25.5068C32.9735 24.9577 33.3324 24.4631 33.7764 24.0512C35.083 22.7165 36.2019 21.4901 37.3921 20.2307C38.5822 18.9713 39.5476 17.8803 40.7531 16.4203C39.9951 14.4048 39.2549 12.3811 38.5406 10.3669C38.2461 12.2397 37.6164 14.0456 36.6817 15.6986C35.6922 17.4342 34.433 19.003 32.9512 20.3464C32.363 20.8976 31.4178 21.3772 30.7206 20.7099C30.5064 20.4968 30.3556 20.2286 30.2848 19.935C30.214 19.6414 30.2259 19.3336 30.3194 19.0458C30.5563 18.5249 30.8869 18.0515 31.2948 17.649L38.6682 10.222C38.187 8.85283 37.7237 7.47543 37.2604 6.09804C37.1333 7.83335 36.5909 9.51452 35.6786 11.0006C34.5461 12.8563 32.9594 14.3958 31.0681 15.4741C30.6682 15.7019 30.2239 15.8411 29.7657 15.8822C29.5488 15.8961 29.3325 15.8499 29.1408 15.7486C28.9491 15.6474 28.7895 15.495 28.6797 15.3085C28.545 15.0366 28.4843 14.734 28.5035 14.4309C28.5227 14.1277 28.6211 13.8345 28.7891 13.5806C28.9606 13.3483 29.162 13.1395 29.3882 12.9597L30.0447 12.463C31.414 11.5476 32.6882 10.4981 33.8483 9.32995C34.4613 8.75276 35.0353 8.1356 35.5663 7.48263C36.0991 6.84849 36.5925 6.18254 37.0437 5.48849C36.4946 3.78511 35.9456 2.08172 35.4225 0.387833C34.5824 3.29487 32.8909 5.88844 30.5652 7.83559C30.4416 7.97202 30.2914 8.08193 30.1239 8.15864C29.9564 8.23536 29.7751 8.27723 29.591 8.2817C29.407 8.28617 29.2241 8.25317 29.0536 8.18466C28.8831 8.11615 28.7285 8.01359 28.5993 7.88329C28.4028 7.67217 28.2591 7.4177 28.1798 7.14046C28.1006 6.86322 28.088 6.571 28.1432 6.28753C28.3252 5.84739 28.5983 5.45016 28.9444 5.12178C30.0027 4.13836 30.9691 3.28342 32.0231 2.43103C33.0771 1.57863 34.0474 0.872404 35.2164 -0.0116162C34.3148 -2.993 33.4569 -5.9731 32.6963 -8.97661C32.4998 -9.40199 33.3599 -9.69173 33.5112 -9.22395C34.5641 -5.77478 35.6347 -2.33387 36.7589 1.0824C39.5404 0.145902 42.2483 -0.996925 44.8598 -2.33656C45.1548 -2.53828 45.5151 -2.62129 45.8682 -2.56884C46.2212 -2.51639 46.5407 -2.33242 46.7622 -2.05395C46.9518 -1.82674 47.0736 -1.5508 47.1135 -1.25753C47.1535 -0.964251 47.1101 -0.66541 46.9882 -0.394923C46.6739 0.0696506 46.2446 0.445686 45.7422 0.696678C44.2903 1.45476 42.7001 1.91126 41.0681 2.03837C39.6593 2.12039 38.248 1.94903 36.9019 1.5325C37.5222 3.46819 38.1517 5.39248 38.7904 7.3054C41.8694 6.20588 45.0466 5.31904 47.9596 4.46825C48.6142 4.29494 49.5013 4.2508 49.9202 5.11107C50.0408 5.38518 50.0847 5.68698 50.0471 5.98451C50.0095 6.28203 49.892 6.56417 49.7068 6.801C49.2796 7.19063 48.7651 7.47252 48.2066 7.62293C45.1976 8.53921 41.9953 8.60351 38.958 7.8086C39.5985 9.66328 40.1817 11.3939 40.8155 13.1872C44.4699 12.7251 48.4236 12.4904 52.0192 11.948Z" fill="#265113"/>
<path fill-rule="evenodd" clip-rule="evenodd" d="M30.0864 1.95872C30.5296 2.24048 31.05 2.69238 30.842 3.31588C30.7577 3.50856 30.6173 3.67145 30.4388 3.78349C30.2604 3.89553 30.0521 3.95155 29.841 3.94426C29.3995 3.87706 28.9771 3.71756 28.6015 3.47628C27.4433 2.76658 26.4051 1.87853 25.5256 0.845328C24.7776 -0.0497816 24.1573 -1.04344 23.6825 -2.10735C23.1349 -0.623928 22.6 0.862909 22.0651 2.34974C24.1714 3.81072 26.237 5.42381 28.1871 6.85651C28.6074 7.17289 29.0599 7.67448 28.7788 8.26483C28.6781 8.44735 28.5249 8.59572 28.3389 8.69104C28.153 8.78637 27.9426 8.82435 27.7346 8.8001C27.2953 8.69985 26.8814 8.5103 26.5188 8.24339C25.4746 7.48294 24.5399 6.58343 23.741 5.57007C23.0191 4.65957 22.415 3.66244 21.9428 2.60225C21.5413 3.74443 21.1524 4.89005 20.7729 6.05173C22.6378 7.96259 24.6545 9.72048 26.8032 11.3082C27.2489 11.6314 27.7524 12.1467 27.4968 12.7438C27.4041 12.9375 27.2504 13.0955 27.0589 13.1938C26.8675 13.2922 26.6489 13.3254 26.4364 13.2884C25.9705 13.1794 25.5326 12.9741 25.151 12.6859C23.9967 11.8442 22.9944 10.813 22.1873 9.63667C21.5166 8.67226 20.9903 7.61599 20.6252 6.50118C20.1888 7.82421 19.7617 9.16333 19.3567 10.522C21.1119 12.467 23.0965 14.1939 25.2673 15.6649C25.7071 15.9593 26.2207 16.4366 26.0034 17.044C25.923 17.2428 25.7795 17.4098 25.5949 17.5197C25.4102 17.6296 25.1944 17.6764 24.9803 17.6529C24.513 17.5667 24.0692 17.383 23.678 17.1137C22.498 16.3164 21.4819 15.3017 20.6845 14.1245C20.0233 13.1757 19.5255 12.124 19.2115 11.0129C18.8923 12.2043 18.5696 13.4084 18.1706 14.592L18.0993 14.8581C20.1329 16.9589 22.2719 18.9557 24.5082 20.841C24.9786 21.2251 25.4939 21.7979 25.2001 22.3849C25.0888 22.5737 24.9173 22.72 24.7127 22.8006C24.5082 22.8811 24.2823 22.8913 24.071 22.8295C23.591 22.6759 23.1469 22.4275 22.7652 22.0992C21.6046 21.1395 20.5904 20.0165 19.7547 18.7658C19.0017 17.6495 18.4085 16.4344 17.9923 15.1555C17.6527 16.423 17.3402 17.5891 17.0176 18.7932C17.7808 19.8671 18.5636 20.919 19.4143 21.9213C20.3724 23.0633 21.3996 24.146 22.4901 25.1635C22.9154 25.5628 23.3985 26.1541 23.1056 26.6869C22.9826 26.8683 22.8029 27.0041 22.5944 27.0735C22.3859 27.1428 22.16 27.1418 21.9518 27.0706C21.4779 26.8869 21.0461 26.6095 20.6826 26.255C19.5699 25.2168 18.6458 23.9948 17.9514 22.6433C17.4459 21.6375 17.0756 20.57 16.8503 19.4683C16.4258 21.0527 16.065 22.654 15.7041 24.2554C16.3926 25.4044 17.1134 26.5349 17.903 27.5615C18.8112 28.8148 19.8191 29.9934 20.9168 31.086C21.3447 31.5267 21.821 32.1434 21.5018 32.7235C21.3721 32.9042 21.1847 33.0357 20.9701 33.0966C20.7555 33.1575 20.5263 33.1442 20.32 33.0589C20.0766 32.9658 19.849 32.8361 19.645 32.6742C19.4283 32.5173 19.2237 32.3445 19.0329 32.1571C17.92 31.0294 17.0201 29.7114 16.3765 28.2665C15.952 27.2951 15.6522 26.2745 15.4842 25.229C15.1735 26.6943 14.8661 28.147 14.5715 29.6032C15.6899 31.8085 17.148 33.8264 18.8928 35.5836C19.2578 35.9531 19.6585 36.4952 19.33 37.0592C19.2163 37.2387 19.0465 37.3761 18.8467 37.4501C18.6469 37.5242 18.4281 37.5309 18.2237 37.4692C18.0009 37.3949 17.7903 37.2881 17.5989 37.1523C17.4024 37.0174 17.2196 36.8638 17.053 36.6936C16.069 35.6923 15.3058 34.4976 14.8126 33.1862C14.5461 32.4894 14.3695 31.7619 14.287 31.0213C13.9916 32.5315 13.7122 34.0325 13.4422 35.5495C14.5855 37.7698 16.0606 39.8048 17.817 41.585C18.1727 41.9384 18.548 42.4737 18.2033 43.047C18.0894 43.2244 17.9219 43.3613 17.7248 43.4378C17.5277 43.5144 17.3112 43.5267 17.1064 43.4731C16.8912 43.4058 16.6878 43.3055 16.5036 43.1757C16.3259 43.0392 16.1553 42.8937 15.9925 42.7399C15.0419 41.7756 14.309 40.6204 13.8429 39.3519C13.5163 38.4637 13.3334 37.5297 13.3013 36.5849C13.0763 37.8831 12.8513 39.1813 12.6518 40.4863C13.8148 42.7275 14.6626 45.1169 15.1715 47.587C15.2912 48.1081 15.2708 48.7954 14.6535 49.0104C14.458 49.0749 14.2476 49.0808 14.0484 49.0274C13.8493 48.974 13.67 48.8637 13.5329 48.7101C13.2898 48.3725 13.1185 47.9891 13.0295 47.5835C12.5762 45.7508 12.365 43.8675 12.4013 41.9814C12.2697 42.8291 12.1381 43.6769 12.0192 44.528C12.5092 47.504 12.5843 50.5321 12.2423 53.5265C12.1812 54.1622 11.8688 54.9207 11.1072 54.9612C10.8613 54.9528 10.6225 54.876 10.4179 54.7395C10.2132 54.6031 10.0509 54.4123 9.94921 54.189C9.78878 53.7391 9.73079 53.2595 9.77943 52.785C9.98368 50.036 10.6194 47.3369 11.6635 44.7859C11.7755 44.3676 11.773 43.9187 11.8248 43.4707C11.1746 45.4608 10.3095 47.3743 9.24462 49.1777C8.98822 49.6252 8.51363 50.1229 7.89726 49.8763C7.71097 49.7876 7.55353 49.6483 7.44312 49.4745C7.33271 49.3007 7.27383 49.0994 7.27327 48.894C7.32097 48.4846 7.45461 48.0899 7.66551 47.7357C8.80321 45.6636 10.2648 43.7854 11.9955 42.1715C12.2672 40.1387 12.5839 38.0908 12.9226 36.0623C12.483 37.2312 11.8929 38.3379 11.1669 39.3548C10.2906 40.5649 9.26359 41.6591 8.11046 42.6113C7.65369 42.9915 6.93545 43.3289 6.45663 42.8745C6.31599 42.7171 6.22535 42.5217 6.19618 42.3131C6.16702 42.1046 6.20063 41.8923 6.29279 41.7031C6.51512 41.3215 6.8004 40.9801 7.1367 40.693L10.0293 38.0991C10.953 37.3006 11.9123 36.4709 13.0211 35.491C13.2462 34.1928 13.4669 32.9614 13.7106 31.6954C12.5899 33.9414 11.0502 35.9538 9.17348 37.6253C8.74218 38.0123 8.08761 38.3667 7.58586 37.947C7.43442 37.8005 7.32982 37.6128 7.28525 37.4074C7.24068 37.2021 7.25814 36.9883 7.33542 36.7931C7.52934 36.4125 7.78783 36.0681 8.09953 35.7753C9.89153 34.0305 11.8104 32.4196 13.8405 30.9559C14.1878 29.2015 14.5571 27.4665 14.9426 25.7223C14.5141 27.036 13.8656 28.2677 13.0246 29.3653C12.0879 30.5944 10.9619 31.6681 9.68804 32.5466C9.18373 32.9006 8.41539 33.1701 7.99175 32.6627C7.86963 32.4891 7.80221 32.2834 7.79813 32.0717C7.79405 31.8601 7.85349 31.6522 7.96885 31.4747C8.22074 31.1233 8.5291 30.8158 8.88154 30.5645C9.97845 29.7309 10.9336 28.968 11.9116 28.1705C12.8897 27.3729 13.8652 26.5339 14.991 25.4907C15.1302 24.9711 15.266 24.4641 15.4019 23.9571C15.4165 23.8796 15.437 23.8034 15.463 23.729C15.7177 22.7784 15.9758 21.8151 16.1575 20.8313C15.576 22.2018 14.7756 23.4691 13.7871 24.584C12.6414 25.8722 11.2968 26.9701 9.80358 27.8365C9.20334 28.1919 8.27877 28.4333 7.93833 27.9209C7.82828 27.7305 7.78082 27.5107 7.8026 27.2924C7.82438 27.074 7.91432 26.8682 8.05977 26.7036C8.39142 26.34 8.77433 26.0262 9.19658 25.772C10.5015 24.9263 11.6332 24.1156 12.7785 23.2542C13.9238 22.3928 15.0148 21.5304 16.273 20.4004C16.4496 19.7413 16.6126 19.1329 16.7994 18.4358C16.8079 18.3839 16.8216 18.333 16.8402 18.2837C17.027 17.5866 17.2137 16.8895 17.4039 16.1797C16.7317 17.2584 15.909 18.2363 14.9605 19.0842C13.6318 20.2978 12.0968 21.2664 10.4268 21.9448C9.74763 22.2383 8.79931 22.3645 8.48859 21.7922C8.41069 21.5849 8.39957 21.3588 8.45679 21.1452C8.51401 20.9317 8.63672 20.7414 8.80782 20.6008C9.00199 20.4296 9.21569 20.2817 9.44457 20.1601C9.6704 20.0305 9.90897 19.9042 10.1119 19.8091C11.4487 19.1514 12.7446 18.4145 13.9927 17.6023C15.2105 16.8596 16.3817 16.0438 17.4999 15.1594L17.707 14.3863C17.9855 13.347 18.264 12.3076 18.5459 11.2556C17.7659 12.4617 16.7922 13.5317 15.6635 14.4228C14.4047 15.4387 12.994 16.2524 11.4822 16.8345C10.8837 17.0816 10.0253 17.1777 9.73073 16.5961C9.65839 16.3951 9.64923 16.177 9.70444 15.971C9.75965 15.7649 9.87662 15.5807 10.0398 15.4427C10.387 15.138 10.7845 14.8952 11.2148 14.7251C12.5477 14.1314 13.7236 13.5634 14.9249 13.0023C16.1263 12.4412 17.2741 11.825 18.6452 11.0377L19.5741 7.87687C17.5884 9.57327 15.2439 10.8022 12.7142 11.4726C12.2005 11.6067 11.5001 11.6228 11.2369 11.0768C11.1797 10.8812 11.1774 10.6738 11.2301 10.4772C11.2827 10.2806 11.3885 10.1022 11.5358 9.96142C11.8517 9.71522 12.2114 9.53052 12.5962 9.41691C14.8861 8.69222 17.2391 8.18122 19.625 7.89052C19.9895 6.53011 20.4039 5.18758 20.868 3.86292C18.8333 5.4981 16.4041 6.57505 13.8205 6.98727C13.2627 7.08234 12.5317 7.00874 12.356 6.3911C12.3091 6.1881 12.3224 5.97604 12.3941 5.78067C12.4658 5.5853 12.593 5.41498 12.7601 5.29034C13.1079 5.07016 13.4959 4.92027 13.902 4.84917C15.1594 4.58835 16.2851 4.3602 17.4491 4.14228L20.9622 3.56215C21.3019 2.29468 21.7816 1.06476 22.2103 -0.178823C21.3311 0.553481 20.3397 1.14082 19.2736 1.56102C17.9541 2.09384 16.5523 2.3982 15.1288 2.46097C14.5592 2.49851 13.801 2.32251 13.7408 1.68147C13.7291 1.4774 13.7739 1.27417 13.8703 1.09399C13.9667 0.913803 14.111 0.763593 14.2875 0.659712C14.6546 0.485133 15.0526 0.384081 15.4591 0.362321C16.708 0.235076 17.8134 0.0829703 18.9697 -0.0554853C20.126 -0.193941 21.0939 -0.342126 22.3445 -0.577592C22.8199 -1.9445 23.3081 -3.30802 23.8056 -4.65543C22.848 -3.81496 21.746 -3.15316 20.5523 -2.70158C19.2948 -2.23088 17.9697 -1.96231 16.6265 -1.90595C16.0857 -1.87426 15.3912 -2.03317 15.3182 -2.67762C15.2993 -2.87983 15.3367 -3.0832 15.4265 -3.2653C15.5162 -3.4474 15.6547 -3.60117 15.8268 -3.70966C16.1732 -3.8767 16.5476 -3.97898 16.9314 -4.01142L23.9339 -4.67543C24.2743 -5.58947 24.6275 -6.50009 24.9807 -7.41072C24.1686 -6.56923 23.1654 -5.93433 22.055 -5.55922C20.6719 -5.08805 19.1904 -4.97548 17.7498 -5.23209C17.4453 -5.2865 17.156 -5.40572 16.9017 -5.5816C16.7837 -5.66769 16.6918 -5.78458 16.6364 -5.91933C16.581 -6.05408 16.564 -6.20144 16.5875 -6.345C16.635 -6.54335 16.7337 -6.72574 16.8741 -6.87404C17.0144 -7.02235 17.1913 -7.13139 17.3873 -7.1903C17.5758 -7.23651 17.7696 -7.25766 17.9638 -7.2532L18.5165 -7.22736C19.6173 -7.11112 20.7268 -7.10507 21.8284 -7.20933C22.3933 -7.24372 22.9551 -7.31557 23.5102 -7.42436C24.0581 -7.52269 24.5994 -7.65439 25.131 -7.81873C25.5801 -8.93459 26.0292 -10.0504 26.4877 -11.1502C24.8034 -10.0103 22.8143 -9.39844 20.7757 -9.39325C20.6531 -9.37596 20.5283 -9.38379 20.4088 -9.41622C20.2893 -9.44865 20.1777 -9.50502 20.0807 -9.58188C19.9837 -9.65873 19.9035 -9.75443 19.8449 -9.86316C19.7863 -9.97189 19.7506 -10.0914 19.7399 -10.2142C19.7292 -10.4078 19.7644 -10.601 19.8428 -10.7783C19.9211 -10.9555 20.0403 -11.1119 20.1907 -11.2345C20.4741 -11.3835 20.7859 -11.4712 21.106 -11.4919C22.0755 -11.5446 22.9423 -11.5704 23.8533 -11.5572C24.7643 -11.5441 25.5691 -11.4915 26.5531 -11.4452C27.3698 -13.3727 28.2087 -15.2807 29.1078 -17.159C29.1893 -17.4632 29.7581 -17.2428 29.635 -16.9362C28.6951 -14.7021 27.768 -12.4645 26.8791 -10.2167C28.7184 -9.50391 30.6084 -8.92933 32.5333 -8.49784C32.7724 -8.47515 32.9942 -8.36302 33.154 -8.18408C33.3137 -8.00514 33.3996 -7.77272 33.3942 -7.53364C33.3944 -7.33473 33.3386 -7.13985 33.2331 -6.97121C33.1276 -6.80256 32.9766 -6.6669 32.7973 -6.57961C32.4352 -6.4749 32.0518 -6.46534 31.6843 -6.55183C30.6084 -6.78484 29.5908 -7.2331 28.6933 -7.86944C27.9305 -8.43307 27.2754 -9.12859 26.7594 -9.92272C26.2471 -8.65623 25.7445 -7.3917 25.2515 -6.1291C27.3145 -5.37255 29.3368 -4.4639 31.2071 -3.6503C31.6198 -3.45824 32.0969 -3.09945 31.9432 -2.47498C31.8876 -2.28152 31.7804 -2.10681 31.633 -1.96931C31.4857 -1.83182 31.3036 -1.7367 31.1061 -1.69403C30.7179 -1.67657 30.3309 -1.75231 29.9778 -1.91486C28.0297 -2.73592 26.3483 -4.08016 25.1216 -5.79714C24.6546 -4.5638 24.2114 -3.41919 23.7674 -2.22046C25.8534 -0.887204 27.9962 0.692251 30.0864 1.95872Z" fill="#5EAD41"/>
</g>
<defs>
<clipPath id="clip0_319_4853">
<rect width="81" height="87" fill="white"/>
</clipPath>
</defs>
</svg>
