<svg width="6" height="6" viewBox="0 0 6 6" fill="none" xmlns="http://www.w3.org/2000/svg">
<path fill-rule="evenodd" clip-rule="evenodd" d="M2.53645 0.107536C3.03811 0.0863132 3.53479 0.21434 3.9637 0.475401C4.39261 0.736462 4.73448 1.11883 4.94607 1.57418C5.15765 2.02954 5.22944 2.53742 5.15239 3.03358C5.07534 3.52974 4.8529 3.99189 4.51318 4.36162C4.17346 4.73136 3.73172 4.99207 3.24384 5.11075C2.75596 5.22944 2.24383 5.20077 1.77223 5.0284C1.30064 4.85603 0.890759 4.5477 0.594404 4.14237C0.29805 3.73705 0.128531 3.25296 0.107307 2.7513C0.0932156 2.41821 0.144871 2.08559 0.25932 1.77246C0.373769 1.45933 0.548774 1.17182 0.77434 0.926325C0.999906 0.68083 1.27161 0.482167 1.57395 0.34168C1.8763 0.201192 2.20336 0.121628 2.53645 0.107536Z" fill="#A7CD7A"/>
</svg>
