<svg viewBox="0 0 43 43" fill="none" xmlns="http://www.w3.org/2000/svg">
<circle cx="21.5" cy="21.5" r="21.5" fill="#397621"/>
<path d="M33.8509 16.6761C33.8409 15.8 33.616 14.9398 33.1961 14.1708C32.7761 13.4019 32.1739 12.7478 31.4422 12.2658C30.7105 11.7839 29.8717 11.4889 28.9994 11.4068C28.1271 11.3246 27.248 11.4578 26.4391 11.7946C25.929 11.1151 25.2705 10.5611 24.5138 10.1747C23.757 9.78841 22.9221 9.57996 22.0725 9.56529C21.223 9.55061 20.3814 9.7301 19.6117 10.0901C18.8421 10.45 18.1648 10.981 17.6316 11.6424C16.8331 11.3843 15.9852 11.3174 15.1562 11.4472C14.3271 11.5771 13.5402 11.8999 12.8589 12.3898C12.1776 12.8797 11.621 13.5228 11.234 14.2674C10.847 15.0119 10.6404 15.837 10.6309 16.6761C10.6411 17.8122 11.0152 18.915 11.6983 19.8229C12.3813 20.7308 13.3374 21.3958 14.4261 21.7204V32.7513C14.4297 33.3291 14.6624 33.882 15.0733 34.2883C15.4841 34.6947 16.0395 34.9213 16.6173 34.9185H27.4373C28.0147 34.9206 28.5694 34.6936 28.9797 34.2874C29.39 33.8811 29.6224 33.3287 29.6259 32.7513V21.8085C32.0573 21.224 33.8509 19.0755 33.8509 16.6761ZM27.4453 34.1231H16.6173C16.2518 34.1245 15.9007 33.9809 15.641 33.7237C15.3813 33.4665 15.2343 33.1168 15.2322 32.7513V31.8892H28.8225V32.7513C28.8204 33.1168 28.6734 33.4665 28.4137 33.7237C28.154 33.9809 27.8028 34.1245 27.4373 34.1231H27.4453ZM29.1535 21.1012C29.1017 21.11 29.0521 21.1288 29.0076 21.1568C28.9632 21.1848 28.9247 21.2213 28.8944 21.2642C28.8641 21.3072 28.8427 21.3557 28.8313 21.4069C28.8198 21.4582 28.8187 21.5113 28.8279 21.563C28.8279 21.563 28.8279 21.5817 28.8279 21.5923C28.8171 21.6278 28.8117 21.6647 28.8119 21.7018V31.0939H20.3512V28.988C20.3399 28.8898 20.2928 28.7992 20.219 28.7334C20.1452 28.6677 20.0498 28.6313 19.9509 28.6313C19.852 28.6313 19.7566 28.6677 19.6828 28.7334C19.609 28.7992 19.5619 28.8898 19.5505 28.988V31.0939H18.2374V27.2185C18.2261 27.1203 18.179 27.0297 18.1052 26.9639C18.0314 26.8981 17.9359 26.8618 17.8371 26.8618C17.7382 26.8618 17.6428 26.8981 17.569 26.9639C17.4951 27.0297 17.4481 27.1203 17.4367 27.2185V31.0939H15.2322V21.5683C15.2348 21.5426 15.2348 21.5166 15.2322 21.4909C15.2499 21.3918 15.2292 21.2896 15.1741 21.2052C15.119 21.1209 15.0338 21.0608 14.9359 21.0372C13.9533 20.7975 13.0774 20.2401 12.4442 19.4515C11.811 18.6629 11.456 17.6872 11.4342 16.6761C11.4448 15.4797 11.9275 14.3359 12.7772 13.4936C13.627 12.6514 14.775 12.1788 15.9715 12.1789C16.3689 12.1792 16.7645 12.2312 17.1485 12.3337C16.606 13.2632 16.3524 14.3332 16.4199 15.4073C16.4874 16.4814 16.8729 17.5112 17.5275 18.3656C17.5917 18.4507 17.687 18.5069 17.7925 18.5219C17.8981 18.5369 18.0052 18.5095 18.0906 18.4456C18.1329 18.4145 18.1685 18.3754 18.1955 18.3304C18.2224 18.2854 18.2402 18.2354 18.2476 18.1835C18.2551 18.1316 18.2521 18.0787 18.2389 18.0279C18.2257 17.9771 18.2025 17.9295 18.1707 17.8878C17.5487 17.0761 17.2128 16.0813 17.2152 15.0587C17.2308 14.0297 17.5795 13.0334 18.2089 12.2191C18.8383 11.4048 19.7145 10.8164 20.7064 10.542C21.6984 10.2676 22.7525 10.3219 23.7109 10.6969C24.6693 11.0718 25.4805 11.7473 26.0228 12.6219C26.079 12.7121 26.1684 12.7766 26.2717 12.8016C26.3751 12.8265 26.484 12.81 26.5753 12.7554C26.623 12.7331 26.6656 12.7012 26.7005 12.6617C26.7354 12.6222 26.7618 12.576 26.7781 12.5259C27.464 12.2425 28.209 12.1317 28.9476 12.2032C29.6863 12.2747 30.3962 12.5263 31.015 12.936C31.6338 13.3456 32.1427 13.9008 32.4971 14.5529C32.8514 15.205 33.0404 15.934 33.0475 16.6761C33.0475 18.8033 31.3714 20.7062 29.1535 21.1012Z" fill="white"/>
</svg>
