<svg viewBox="0 0 43 43" fill="none" xmlns="http://www.w3.org/2000/svg">
<circle cx="21.5" cy="21.5" r="21.5" fill="#D6607A"/>
<g clip-path="url(#clip0_182_4978)">
<path d="M33.4344 13.968L22.0112 13.968L20.965 10.2582C20.9407 10.1736 20.8895 10.0992 20.8192 10.0463C20.7489 9.9933 20.6633 9.96463 20.5753 9.96458H17.5354C17.4789 9.95805 17.4217 9.96354 17.3675 9.98068C17.3134 9.99782 17.2634 10.0262 17.221 10.064C17.1785 10.1018 17.1446 10.1482 17.1213 10.2C17.0981 10.2519 17.0861 10.3081 17.0861 10.3649C17.0861 10.4218 17.0981 10.4779 17.1213 10.5298C17.1446 10.5817 17.1785 10.628 17.221 10.6658C17.2634 10.7036 17.3134 10.732 17.3675 10.7492C17.4217 10.7663 17.4789 10.7718 17.5354 10.7653H20.2711L21.1732 13.968H18.5763C18.5198 13.9615 18.4626 13.967 18.4084 13.9841C18.3543 14.0013 18.3043 14.0297 18.2619 14.0675C18.2194 14.1053 18.1855 14.1516 18.1622 14.2035C18.139 14.2554 18.127 14.3115 18.127 14.3684C18.127 14.4252 18.139 14.4814 18.1622 14.5333C18.1855 14.5851 18.2194 14.6315 18.2619 14.6693C18.3043 14.7071 18.3543 14.7355 18.4084 14.7526C18.4626 14.7698 18.5198 14.7753 18.5763 14.7687H19.3049L20.1056 21.4865C17.0923 21.4171 13.5826 21.6787 13.2517 21.7534L13.0996 21.7828C10.9217 22.1751 9.76602 23.3841 9.65393 25.3565C9.08389 25.5298 8.58465 25.8817 8.22988 26.3604C7.87511 26.839 7.68359 27.419 7.68359 28.0148C7.68359 28.6106 7.87511 29.1906 8.22988 29.6692C8.58465 30.1479 9.08389 30.4998 9.65393 30.6731C9.7073 31.8421 10.3559 33.7584 12.5898 34.2148C13.9666 34.4409 15.361 34.5428 16.756 34.5191C18.694 34.5313 20.6312 34.435 22.5584 34.2308C22.6085 34.2183 22.6593 34.2085 22.7105 34.2015C23.4412 34.089 24.1377 33.8155 24.7496 33.4008C24.7922 33.4169 24.8375 33.425 24.883 33.4248H29.4603C29.81 33.4254 30.1476 33.2965 30.4079 33.0629C30.6681 32.8292 30.8326 32.5075 30.8695 32.1597L32.7111 14.7687H33.4344C33.4909 14.7753 33.5481 14.7698 33.6023 14.7526C33.6564 14.7355 33.7064 14.7071 33.7488 14.6693C33.7913 14.6315 33.8252 14.5851 33.8485 14.5333C33.8717 14.4814 33.8837 14.4252 33.8837 14.3684C33.8837 14.3115 33.8717 14.2554 33.8485 14.2035C33.8252 14.1516 33.7913 14.1053 33.7488 14.0675C33.7064 14.0297 33.6564 14.0013 33.6023 13.9841C33.5481 13.967 33.4909 13.9615 33.4344 13.968ZM13.2437 22.5915L13.4519 22.5514C13.9349 22.442 20.4072 22.0176 23.0735 22.5514C25.0939 22.9651 25.3421 24.7907 25.3715 25.3832C25.0953 25.2951 24.8073 25.25 24.5174 25.2497H10.4706C10.6628 23.2934 12.1281 22.7943 13.2437 22.5915ZM8.48225 28.0335C8.48296 27.5087 8.69191 27.0057 9.06323 26.6349C9.43454 26.2641 9.93786 26.0558 10.4626 26.0558H24.5174C25.0419 26.0558 25.545 26.2641 25.9158 26.635C26.2867 27.0059 26.4951 27.509 26.4951 28.0335C26.4951 28.558 26.2867 29.061 25.9158 29.4319C25.545 29.8028 25.0419 30.0112 24.5174 30.0112H10.468C9.94249 30.0119 9.43821 29.804 9.0659 29.4332C8.69358 29.0624 8.48366 28.559 8.48225 28.0335ZM22.5744 33.4088C22.5025 33.419 22.4312 33.4332 22.3609 33.4515C21.8885 33.5609 15.4216 33.9853 12.7526 33.4515C10.9244 33.0778 10.548 31.5458 10.4706 30.8199H24.5174C24.8016 30.8198 25.0842 30.7766 25.3555 30.6918C25.1633 32.9364 23.3003 33.278 22.5797 33.4088H22.5744ZM30.0608 32.0743C30.0463 32.2239 29.977 32.3629 29.8661 32.4644C29.7552 32.5659 29.6107 32.6228 29.4603 32.6241H25.5343C25.9661 31.9708 26.1911 31.2026 26.1802 30.4195C26.1802 30.3714 26.1721 30.3235 26.1561 30.2781C26.5141 30.0204 26.8053 29.6809 27.0055 29.2879C27.2057 28.8949 27.3091 28.4597 27.307 28.0186C27.3049 27.5776 27.1974 27.1434 26.9935 26.7523C26.7896 26.3612 26.4952 26.0245 26.1348 25.7702C26.161 25.7197 26.1765 25.6642 26.1802 25.6074C26.2282 24.4971 25.6757 22.2632 23.2443 21.7667C22.4791 21.6287 21.7048 21.5466 20.9276 21.5212L20.1163 14.7687L31.8998 14.7687L30.0608 32.0743Z" fill="white"/>
<path d="M29.4786 24.8631H29.524C29.623 24.863 29.7185 24.8266 29.7924 24.7606C29.8662 24.6946 29.9132 24.6038 29.9243 24.5054L30.9012 15.946C30.9106 15.8412 30.8787 15.7368 30.8121 15.6552C30.7456 15.5736 30.6498 15.5213 30.5452 15.5094C30.4406 15.4975 30.3355 15.5271 30.2524 15.5917C30.1693 15.6564 30.1147 15.751 30.1005 15.8553L29.1236 24.4173C29.1116 24.5235 29.1423 24.6301 29.2089 24.7137C29.2754 24.7973 29.3725 24.851 29.4786 24.8631Z" fill="white"/>
<path d="M11.1748 28.8736C11.6187 28.8538 12.0429 28.6845 12.3785 28.3932C13.0084 27.8967 13.4968 28.1076 13.713 28.2624C13.9428 28.5372 14.2659 28.7177 14.6204 28.7695C14.6858 28.7792 14.7518 28.7837 14.8179 28.7828C15.263 28.7645 15.6885 28.595 16.0243 28.3024C16.809 27.6832 17.3748 28.169 17.4789 28.2677C17.7099 28.5579 18.0431 28.7489 18.4103 28.8015C18.4761 28.8069 18.5421 28.8069 18.6078 28.8015C19.0521 28.783 19.4767 28.6135 19.8116 28.3211C20.4921 27.7873 21.0099 28.0782 21.2021 28.2303C21.4335 28.4894 21.7495 28.6577 22.0935 28.7054C22.1592 28.7108 22.2253 28.7108 22.291 28.7054C22.7352 28.6869 23.1598 28.5174 23.4947 28.225C24.2794 27.6058 24.8479 28.0916 24.9493 28.1903C24.986 28.2292 25.0301 28.2604 25.0791 28.2821C25.128 28.3038 25.1807 28.3155 25.2342 28.3166C25.2877 28.3177 25.3409 28.3081 25.3906 28.2885C25.4404 28.2688 25.4857 28.2394 25.524 28.202C25.5623 28.1646 25.5927 28.12 25.6136 28.0707C25.6344 28.0214 25.6453 27.9685 25.6454 27.915C25.6456 27.8614 25.6351 27.8084 25.6146 27.759C25.594 27.7096 25.5639 27.6648 25.5258 27.6272C25.1388 27.2322 24.1086 26.717 22.9956 27.5951C22.7842 27.7937 22.5036 27.9019 22.2136 27.8967C22.0902 27.8805 21.9742 27.8286 21.88 27.7473C21.88 27.7473 21.88 27.7473 21.88 27.7339C21.88 27.7206 21.8293 27.6832 21.7999 27.6565C21.7596 27.6079 21.7084 27.5695 21.6505 27.5444C21.1647 27.2081 20.2893 26.9573 19.3498 27.6992C19.1373 27.8977 18.8559 28.0059 18.5651 28.0008C18.4049 27.9784 18.2585 27.8977 18.1541 27.774C18.1345 27.7476 18.1111 27.7242 18.0847 27.7046C17.6951 27.3069 16.6675 26.7891 15.5519 27.6699C15.4477 27.7691 15.3251 27.8468 15.1909 27.8985C15.0567 27.9503 14.9136 27.975 14.7699 27.9715C14.6518 27.9606 14.5391 27.9172 14.4443 27.846C14.4346 27.8271 14.423 27.8092 14.4096 27.7926C14.0226 27.3976 12.9923 26.8799 11.8794 27.7579C11.6678 27.9565 11.3876 28.0656 11.0974 28.0622C10.9377 28.0432 10.7904 27.9663 10.6837 27.846C10.6188 27.7642 10.5247 27.7107 10.4212 27.6969C10.3177 27.6831 10.2129 27.71 10.1288 27.7719C10.0448 27.8338 9.98801 27.926 9.97053 28.0289C9.95305 28.1318 9.97621 28.2376 10.0351 28.3238C10.2693 28.6157 10.6065 28.8067 10.9773 28.8576C11.0427 28.867 11.1087 28.8723 11.1748 28.8736Z" fill="white"/>
</g>
<defs>
<clipPath id="clip0_182_4978">
<rect width="26.6897" height="26.6897" fill="white" transform="translate(7.41406 8.89746)"/>
</clipPath>
</defs>
</svg>
