<svg viewBox="0 0 75 75" fill="none" xmlns="http://www.w3.org/2000/svg">
<rect x="0.5" y="0.5" width="74" height="74" rx="37" fill="white"/>
<path d="M47.6569 24.1595H40.8546C40.7403 23.3512 40.338 22.6114 39.7217 22.0761C39.1054 21.5408 38.3166 21.2461 37.5003 21.2461C36.684 21.2461 35.8952 21.5408 35.2789 22.0761C34.6626 22.6114 34.2603 23.3512 34.1461 24.1595H27.3438C26.8544 24.16 26.3853 24.3547 26.0393 24.7007C25.6933 25.0467 25.4986 25.5158 25.498 26.0052V51.9082C25.4986 52.3975 25.6932 52.8667 26.0392 53.2127C26.3852 53.5588 26.8544 53.7534 27.3438 53.7539H47.6569C48.1462 53.7534 48.6154 53.5588 48.9614 53.2127C49.3075 52.8667 49.5021 52.3975 49.5026 51.9082V26.0052C49.502 25.5158 49.3074 25.0467 48.9613 24.7007C48.6153 24.3547 48.1462 24.16 47.6569 24.1595ZM45.6321 28.03V49.8834H29.3686V28.03H45.6321ZM33.1253 27.0729V25.1165H41.8753V27.0729H33.1253ZM37.5003 22.203C38.0628 22.2038 38.6077 22.399 39.0428 22.7555C39.4778 23.1121 39.7762 23.6081 39.8874 24.1595H35.1132C35.2244 23.6081 35.5228 23.1121 35.9578 22.7555C36.3929 22.399 36.9378 22.2038 37.5003 22.203ZM48.5455 51.9082C48.5453 52.1438 48.4515 52.3697 48.2849 52.5362C48.1183 52.7028 47.8925 52.7966 47.6569 52.7969H27.3438C27.1081 52.7966 26.8823 52.7028 26.7157 52.5362C26.5491 52.3697 26.4554 52.1438 26.4551 51.9082V26.0052C26.4554 25.7696 26.5491 25.5437 26.7157 25.3771C26.8823 25.2105 27.1081 25.1168 27.3438 25.1165H32.1683V27.0729H28.89C28.7632 27.073 28.6415 27.1235 28.5518 27.2132C28.462 27.3029 28.4116 27.4246 28.4115 27.5515V50.3619C28.4116 50.4888 28.462 50.6105 28.5518 50.7002C28.6415 50.7899 28.7632 50.8403 28.89 50.8404H46.1106C46.2375 50.8403 46.3591 50.7899 46.4489 50.7002C46.5386 50.6105 46.589 50.4888 46.5891 50.3619V27.5515C46.589 27.4246 46.5386 27.3029 46.4489 27.2132C46.3591 27.1235 46.2375 27.073 46.1106 27.0729H42.8323V25.1165H47.6574C47.893 25.1168 48.1189 25.2105 48.2855 25.3771C48.4521 25.5437 48.5458 25.7696 48.5461 26.0052L48.5455 51.9082Z" fill="#1E1E1E"/>
<path d="M33.0311 33.4377C33.3764 33.4377 33.7141 33.3353 34.0013 33.1435C34.2885 32.9516 34.5123 32.6789 34.6445 32.3598C34.7767 32.0408 34.8113 31.6896 34.744 31.3509C34.6766 31.0121 34.5103 30.701 34.2661 30.4568C34.0218 30.2125 33.7107 30.0462 33.3719 29.9789C33.0332 29.9115 32.6821 29.9461 32.363 30.0783C32.0439 30.2105 31.7712 30.4343 31.5793 30.7215C31.3875 31.0087 31.2851 31.3464 31.2852 31.6918C31.2857 32.1546 31.4699 32.5984 31.7972 32.9257C32.1245 33.2529 32.5682 33.4371 33.0311 33.4377ZM33.0311 30.9026C33.1871 30.9026 33.3397 30.9488 33.4696 31.0355C33.5994 31.1222 33.7006 31.2454 33.7603 31.3896C33.8201 31.5338 33.8358 31.6924 33.8053 31.8455C33.7749 31.9986 33.6998 32.1393 33.5894 32.2497C33.4791 32.3601 33.3385 32.4352 33.1854 32.4657C33.0323 32.4962 32.8736 32.4806 32.7294 32.4209C32.5852 32.3611 32.4619 32.26 32.3752 32.1302C32.2885 32.0004 32.2422 31.8478 32.2422 31.6918C32.2424 31.4826 32.3256 31.282 32.4735 31.1341C32.6214 30.9862 32.8219 30.9029 33.0311 30.9026Z" fill="#1E1E1E"/>
<path d="M33.0311 38.2814C33.3764 38.2815 33.7141 38.1791 34.0013 37.9873C34.2884 37.7954 34.5123 37.5227 34.6445 37.2037C34.7767 36.8846 34.8113 36.5335 34.744 36.1947C34.6766 35.856 34.5103 35.5448 34.2662 35.3006C34.022 35.0564 33.7108 34.89 33.3721 34.8226C33.0334 34.7552 32.6822 34.7898 32.3632 34.922C32.0441 35.0541 31.7713 35.2779 31.5795 35.5651C31.3876 35.8522 31.2852 36.1899 31.2852 36.5352C31.2857 36.9981 31.4699 37.4419 31.7971 37.7692C32.1244 38.0966 32.5682 38.2808 33.0311 38.2814ZM33.0311 35.7464C33.1872 35.7463 33.3398 35.7926 33.4696 35.8792C33.5994 35.9659 33.7006 36.0892 33.7603 36.2334C33.8201 36.3776 33.8358 36.5363 33.8053 36.6894C33.7749 36.8425 33.6997 36.9831 33.5893 37.0935C33.479 37.2039 33.3383 37.2791 33.1852 37.3095C33.0321 37.3399 32.8734 37.3243 32.7292 37.2645C32.585 37.2048 32.4618 37.1036 32.3751 36.9738C32.2884 36.8439 32.2421 36.6913 32.2422 36.5352C32.2425 36.3261 32.3257 36.1256 32.4736 35.9777C32.6214 35.8299 32.8219 35.7467 33.0311 35.7464Z" fill="#1E1E1E"/>
<path d="M33.0311 47.9679C33.3765 47.968 33.7141 47.8656 34.0014 47.6737C34.2886 47.4818 34.5124 47.2091 34.6446 46.8899C34.7768 46.5708 34.8113 46.2196 34.7439 45.8809C34.6765 45.5421 34.5101 45.2309 34.2658 44.9867C34.0215 44.7425 33.7102 44.5763 33.3714 44.509C33.0326 44.4418 32.6815 44.4765 32.3624 44.6088C32.0433 44.7411 31.7707 44.9651 31.5789 45.2524C31.3872 45.5397 31.2849 45.8774 31.2852 46.2229C31.286 46.6856 31.4703 47.129 31.7975 47.4561C32.1248 47.7832 32.5684 47.9673 33.0311 47.9679ZM33.0311 45.4329C33.1871 45.4328 33.3397 45.4791 33.4695 45.5657C33.5993 45.6523 33.7004 45.7755 33.7602 45.9197C33.82 46.0638 33.8358 46.2224 33.8054 46.3755C33.775 46.5286 33.7 46.6692 33.5897 46.7797C33.4795 46.8901 33.3389 46.9653 33.1859 46.9959C33.0329 47.0265 32.8742 47.011 32.73 46.9514C32.5857 46.8918 32.4624 46.7908 32.3756 46.6611C32.2888 46.5314 32.2424 46.3789 32.2422 46.2229C32.2423 46.0136 32.3254 45.8128 32.4733 45.6647C32.6211 45.5166 32.8218 45.4333 33.0311 45.4329Z" fill="#1E1E1E"/>
<path d="M33.0311 43.1242C33.3764 43.1242 33.7141 43.0219 34.0013 42.83C34.2885 42.6382 34.5123 42.3654 34.6445 42.0464C34.7767 41.7273 34.8113 41.3762 34.744 41.0374C34.6766 40.6987 34.5103 40.3875 34.2661 40.1433C34.0218 39.8991 33.7107 39.7327 33.3719 39.6654C33.0332 39.598 32.6821 39.6326 32.363 39.7648C32.0439 39.897 31.7712 40.1209 31.5793 40.4081C31.3875 40.6953 31.2851 41.0329 31.2852 41.3783C31.2857 41.8411 31.4699 42.2849 31.7972 42.6122C32.1245 42.9395 32.5682 43.1236 33.0311 43.1242ZM33.0311 40.5891C33.1871 40.5891 33.3397 40.6353 33.4696 40.722C33.5994 40.8087 33.7006 40.9319 33.7603 41.0761C33.8201 41.2203 33.8358 41.379 33.8053 41.5321C33.7749 41.6852 33.6998 41.8258 33.5894 41.9362C33.4791 42.0466 33.3385 42.1218 33.1854 42.1522C33.0323 42.1827 32.8736 42.1671 32.7294 42.1074C32.5852 42.0477 32.4619 41.9465 32.3752 41.8167C32.2885 41.687 32.2422 41.5344 32.2422 41.3783C32.2426 41.1692 32.3259 40.9688 32.4737 40.821C32.6216 40.6732 32.822 40.5901 33.0311 40.5897V40.5891Z" fill="#1E1E1E"/>
<path d="M36.7207 32.1709H43.2373C43.3642 32.1709 43.4859 32.1205 43.5756 32.0307C43.6654 31.941 43.7158 31.8193 43.7158 31.6924C43.7158 31.5655 43.6654 31.4438 43.5756 31.354C43.4859 31.2643 43.3642 31.2139 43.2373 31.2139H36.7207C36.5938 31.2139 36.4721 31.2643 36.3823 31.354C36.2926 31.4438 36.2422 31.5655 36.2422 31.6924C36.2422 31.8193 36.2926 31.941 36.3823 32.0307C36.4721 32.1205 36.5938 32.1709 36.7207 32.1709Z" fill="#1E1E1E"/>
<path d="M36.7207 37.0137H43.2373C43.3642 37.0137 43.4859 36.9633 43.5756 36.8735C43.6654 36.7838 43.7158 36.6621 43.7158 36.5352C43.7158 36.4082 43.6654 36.2865 43.5756 36.1968C43.4859 36.1071 43.3642 36.0566 43.2373 36.0566H36.7207C36.5938 36.0566 36.4721 36.1071 36.3823 36.1968C36.2926 36.2865 36.2422 36.4082 36.2422 36.5352C36.2422 36.6621 36.2926 36.7838 36.3823 36.8735C36.4721 36.9633 36.5938 37.0137 36.7207 37.0137Z" fill="#1E1E1E"/>
<path d="M36.7207 41.8574H43.2373C43.3642 41.8574 43.4859 41.807 43.5756 41.7173C43.6654 41.6275 43.7158 41.5058 43.7158 41.3789C43.7158 41.252 43.6654 41.1303 43.5756 41.0405C43.4859 40.9508 43.3642 40.9004 43.2373 40.9004H36.7207C36.5938 40.9004 36.4721 40.9508 36.3823 41.0405C36.2926 41.1303 36.2422 41.252 36.2422 41.3789C36.2422 41.5058 36.2926 41.6275 36.3823 41.7173C36.4721 41.807 36.5938 41.8574 36.7207 41.8574Z" fill="#1E1E1E"/>
<path d="M36.7207 46.7002H43.2373C43.3642 46.7002 43.4859 46.6498 43.5756 46.56C43.6654 46.4703 43.7158 46.3486 43.7158 46.2217C43.7158 46.0948 43.6654 45.9731 43.5756 45.8833C43.4859 45.7936 43.3642 45.7432 43.2373 45.7432H36.7207C36.5938 45.7432 36.4721 45.7936 36.3823 45.8833C36.2926 45.9731 36.2422 46.0948 36.2422 46.2217C36.2422 46.3486 36.2926 46.4703 36.3823 46.56C36.4721 46.6498 36.5938 46.7002 36.7207 46.7002Z" fill="#1E1E1E"/>
<rect x="0.5" y="0.5" width="74" height="74" rx="37" stroke="black"/>
</svg>
