<svg width="24" height="26" viewBox="0 0 24 26" fill="none" xmlns="http://www.w3.org/2000/svg">
<path fill-rule="evenodd" clip-rule="evenodd" d="M1.97566 14.5109C1.14515 15.2841 0.560696 16.2847 0.2952 17.3879C0.0297041 18.491 0.0949087 19.6479 0.482723 20.7143C0.482723 20.7143 0.482767 20.7143 0.655125 20.9412C1.5827 21.5854 2.67869 21.9436 3.80765 21.9715C4.93662 21.9995 6.04902 21.696 7.00732 21.0985C7.79235 20.4826 8.46737 19.7381 9.00372 18.8967C8.97448 19.8858 9.12683 20.8719 9.45322 21.806C9.93285 22.8357 10.7038 23.7022 11.6706 24.2985C12.6375 24.8947 13.7579 25.1945 14.8933 25.1608L15.1262 25.1927C16.0298 24.5076 16.7119 23.5719 17.0874 22.502C17.4629 21.4321 17.5152 20.2753 17.2378 19.1758C16.8945 18.2398 16.3946 17.3689 15.7595 16.6003C16.7133 16.9174 17.7175 17.0548 18.7214 17.0056C19.8408 16.8728 20.8952 16.4097 21.7504 15.6754C22.6056 14.9411 23.2228 13.9688 23.5234 12.8824C23.5686 12.8014 23.5816 12.7064 23.5598 12.6162C23.1938 11.5416 22.5175 10.5995 21.6163 9.90901C20.7152 9.2185 19.6296 8.81053 18.4967 8.73661C17.5111 8.76645 16.5396 8.9783 15.6312 9.36156C16.2212 8.56838 16.6648 7.67617 16.9409 6.72692C17.1596 5.6165 17.0473 4.46632 16.618 3.41915C16.1887 2.37197 15.4613 1.47397 14.5261 0.836586C14.4441 0.794348 14.3502 0.78149 14.2599 0.800157C13.5714 0.844695 12.8918 0.97962 12.2386 1.20157C11.0168 1.62533 9.98733 2.47282 9.33682 3.59045C8.68631 4.70808 8.45782 6.02185 8.6928 7.29348C8.06539 6.2048 7.08052 5.36685 5.90544 4.9218C4.73036 4.47675 3.43749 4.45205 2.24629 4.85195C1.59703 5.07602 0.983057 5.39158 0.422925 5.78906C0.402321 5.8238 0.388912 5.86222 0.383437 5.90223C0.377963 5.94224 0.380544 5.98295 0.391061 6.02194C0.0551329 7.10546 0.0475586 8.26428 0.369333 9.35209C0.691107 10.4399 1.32781 11.408 2.19912 12.1345C3.01689 12.6853 3.92663 13.0853 4.88534 13.3156C3.94622 13.621 3.06084 14.0719 2.26151 14.6518L1.97566 14.5109ZM14.7409 24.2924C13.804 24.3195 12.8794 24.0738 12.0795 23.5852C11.2797 23.0966 10.639 22.3861 10.2355 21.5402C9.57145 19.1257 9.73178 16.5587 10.6911 14.2457C11.3403 15.6591 11.8655 17.1262 12.2609 18.6305C12.3302 18.7092 12.4255 18.7602 12.5294 18.7744C12.6333 18.7886 12.7388 18.7651 12.8267 18.7079C12.8799 18.6904 12.9289 18.6619 12.9705 18.6244C13.0121 18.5869 13.0454 18.5412 13.0683 18.4902C13.0912 18.4391 13.1033 18.3837 13.1037 18.3277C13.104 18.2717 13.0927 18.2163 13.0705 18.1649L11.6261 14.1024C12.3599 14.638 13.1329 15.1178 13.9385 15.5376C15.0996 16.538 15.9758 17.8274 16.4784 19.2753C16.6988 20.1847 16.6526 21.1384 16.3453 22.0222C16.038 22.9061 15.4826 23.6827 14.7455 24.2592L14.7409 24.2924ZM18.4963 9.48242C19.4317 9.56047 20.3251 9.90537 21.0703 10.4761C21.8156 11.0468 22.3814 11.8193 22.7005 12.702C22.4482 13.5817 21.9514 14.3717 21.268 14.9803C20.5846 15.5889 19.7427 15.9912 18.8398 16.1404C16.3429 16.0172 13.957 15.0708 12.0545 13.449C13.5908 13.2642 15.1404 13.2153 16.6853 13.3029C16.7888 13.287 16.8839 13.237 16.9558 13.1609C17.0276 13.0847 17.072 12.9867 17.0818 12.8825C17.0675 12.7759 17.0194 12.6766 16.9446 12.5993C16.8698 12.5219 16.7721 12.4706 16.666 12.4527L12.3438 12.5733C13.0932 12.0636 13.7872 11.4768 14.4142 10.8224C15.6965 10.0581 17.1403 9.60534 18.6295 9.50064L18.4963 9.48242ZM9.78329 4.52714C10.5333 2.01927 13.5666 1.65446 14.1264 1.52765C14.8959 2.06238 15.4948 2.8078 15.8513 3.67439C16.2078 4.54098 16.3067 5.49201 16.1362 6.41342C15.2322 8.73931 13.6075 10.7149 11.4999 12.051C11.4999 12.051 11.459 12.3505 12.7561 7.57827C12.7725 7.52894 12.7783 7.47665 12.7732 7.4249C12.7681 7.37316 12.752 7.32311 12.7262 7.27797C12.7004 7.23284 12.6653 7.19367 12.6233 7.16302C12.5813 7.13237 12.5333 7.11092 12.4825 7.10009C12.3838 7.0739 12.279 7.08313 12.1864 7.1262C12.0938 7.16928 12.0192 7.24346 11.9756 7.33584L10.765 11.4758C10.4823 10.6276 10.1425 9.79959 9.74799 8.99734C9.38656 7.52764 9.39869 5.99094 9.78329 4.52714V4.52714ZM10.6056 12.6406C10.705 12.606 10.8139 12.6117 10.9092 12.6564C11.0044 12.7011 11.0784 12.7813 11.1153 12.8798C11.1328 12.9311 11.14 12.9855 11.1364 13.0396C11.1329 13.0937 11.1187 13.1466 11.0948 13.1953C11.0708 13.244 11.0375 13.2874 10.9967 13.3232C10.9559 13.359 10.9085 13.3864 10.8571 13.4039C10.8058 13.4213 10.7515 13.4285 10.6973 13.4249C10.6432 13.4214 10.5903 13.4073 10.5416 13.3833C10.493 13.3594 10.4495 13.326 10.4137 13.2852C10.3779 13.2445 10.3505 13.1971 10.3331 13.1457C10.3174 13.0947 10.3121 13.041 10.3173 12.9878C10.3226 12.9347 10.3383 12.8831 10.3637 12.8361C10.389 12.7891 10.4235 12.7476 10.465 12.714C10.5066 12.6804 10.5543 12.6555 10.6056 12.6406V12.6406ZM2.37953 11.3116C1.94226 11.1033 1.55521 10.8029 1.24491 10.431C0.934614 10.0591 0.708382 9.62456 0.581786 9.15706C0.455191 8.68956 0.431238 8.20021 0.51149 7.72257C0.591742 7.24493 0.774325 6.79033 1.04675 6.38987C1.31918 5.98941 1.675 5.65253 2.0898 5.40247C2.50459 5.15241 2.96856 4.99505 3.44989 4.9411C3.93122 4.88716 4.41851 4.93787 4.87838 5.0899C5.33824 5.24193 5.75981 5.4917 6.11414 5.82192C8.07079 7.38674 9.45484 9.55473 10.0507 11.9882C10.0507 11.9882 10.3229 12.229 6.20178 9.39361C6.13872 9.35193 6.06708 9.325 5.99219 9.31476C5.9173 9.30451 5.84106 9.3112 5.76912 9.33441C5.70232 9.36526 5.64439 9.41252 5.60073 9.47174C5.55706 9.53096 5.52909 9.60018 5.51937 9.67312C5.52114 9.75249 5.54161 9.83038 5.57918 9.90033C5.61674 9.97028 5.67033 10.0304 5.73552 10.0757L9.26532 12.5249C8.36158 12.5135 7.45825 12.5712 6.56333 12.6977C5.07596 12.5867 3.63894 12.1106 2.37953 11.3116V11.3116ZM9.52211 13.3738C9.52211 13.3738 9.81567 13.2105 5.73878 16.2464C5.69647 16.2784 5.66089 16.3184 5.63409 16.3642C5.6073 16.4099 5.58981 16.4606 5.58262 16.5131C5.57543 16.5657 5.57867 16.6192 5.59218 16.6705C5.6057 16.7218 5.62922 16.7699 5.66138 16.8121C5.69 16.8586 5.72853 16.8982 5.77428 16.928C5.82003 16.9578 5.87182 16.9771 5.92592 16.9845C5.98003 16.9919 6.03511 16.9872 6.08719 16.9708C6.13926 16.9544 6.18707 16.9266 6.22713 16.8895L9.66997 14.2754C9.37749 15.1406 9.1649 16.0307 9.0349 16.9346C8.43943 18.3047 7.5305 19.5158 6.38133 20.4704C6.04783 20.8263 5.64082 21.1053 5.18856 21.2881C4.7363 21.4708 4.24964 21.553 3.76246 21.5286C3.27528 21.5043 2.79925 21.3741 2.36746 21.1472C1.93566 20.9203 1.55846 20.602 1.26209 20.2146C0.965721 19.8272 0.757296 19.3799 0.651296 18.9038C0.545295 18.4276 0.544282 17.9341 0.648298 17.4576C0.752314 16.981 0.958851 16.5328 1.2536 16.1442C1.54835 15.7555 1.92422 15.4357 2.35506 15.207C4.46022 13.7856 6.99298 13.1378 9.52211 13.3738Z" fill="#5EAD41"/>
</svg>
