<svg viewBox="0 0 68 65" fill="none" xmlns="http://www.w3.org/2000/svg">
<path fill-rule="evenodd" clip-rule="evenodd" d="M33.1702 18.3275C32.4193 18.3275 32.0974 10.1981 28.3426 5.55275C21.9059 -2.15427 0.557304 6.1863 11.178 18.8554C14.1818 22.4449 18.3657 25.19 18.1511 25.5067C15.9934 24.8419 13.7582 24.4516 11.4998 24.3453C-6.30859 24.3453 -2.87562 53.3786 17.9366 45.4604C21.2622 44.1935 20.5112 44.1934 18.902 47.1495C17.2929 50.1057 16.8638 50.3168 15.791 52.1116C14.7724 53.8629 14.4716 55.931 14.9501 57.8932C15.4286 59.8553 16.6503 61.5636 18.3657 62.6692C23.5151 66.0476 32.7411 65.5197 34.8867 59.0796C35.7251 56.4002 36.2646 53.639 36.4959 50.8447C37.7832 40.2872 33.7066 65.5197 51.4077 64.9918C58.9173 64.9918 64.7103 58.7628 56.128 48.9443C54.8788 47.5033 53.5157 46.1619 52.0514 44.9325C50.1203 43.3489 50.1203 43.0321 52.0514 43.6655C55.539 44.7717 59.2916 44.7717 62.7793 43.6655C67.1777 42.0819 69.6452 30.7854 66.7487 25.2955C62.5648 17.4829 54.9479 20.3334 50.1204 21.917C45.2928 23.5006 43.7909 23.0784 49.0476 20.0167C50.8335 19.0104 52.5214 17.8441 54.0897 16.5327C66.7487 5.97514 42.3962 -9.96681 35.8522 8.40333C34.243 12.8375 33.7066 17.2716 33.1702 17.2716V18.3275ZM38.2124 25.401C40.3579 27.0902 37.1396 29.3073 35.1012 28.3571C33.0629 27.4069 35.1013 22.8672 38.2124 25.401ZM27.4844 28.885C29.5227 25.1899 31.561 23.7118 32.8484 28.885C33.7066 32.2634 33.9212 36.9087 29.4155 35.4306C28.8155 35.1949 28.2772 34.829 27.841 34.36C27.4048 33.891 27.0819 33.3311 26.8962 32.7221C26.7106 32.1132 26.6671 31.4708 26.7689 30.843C26.8708 30.2151 27.1154 29.618 27.4844 29.0962V28.885ZM40.0361 30.3631C44.5418 32.4746 43.2545 36.592 40.0361 36.592C32.2047 36.592 35.1012 27.9348 40.0361 30.3631ZM36.2813 37.6478C42.1817 40.6039 36.2813 43.0322 31.0246 40.8151C25.7679 38.598 31.0247 34.9028 36.7105 37.6478H36.2813Z" fill="#5EAD41"/>
</svg>
