<svg width="74" height="70" viewBox="0 0 74 70" fill="none" xmlns="http://www.w3.org/2000/svg">
<path fill-rule="evenodd" clip-rule="evenodd" d="M37.8084 18.6476C38.6826 18.6476 38.9515 9.80431 43.1205 4.78862C49.8448 -3.59285 73.3125 5.44853 61.8141 19.1757C58.5192 23.1354 53.9466 26.1711 54.2156 26.4351C56.5576 25.7613 58.9728 25.3626 61.4105 25.2472C80.8436 24.8512 77.1453 56.7931 54.6863 48.6756C50.9879 47.3557 51.7948 47.3559 53.5432 50.5237C54.4173 52.1076 55.7622 53.9555 56.9053 55.8694C58.0395 57.7687 58.3927 60.0211 57.8928 62.1672C57.393 64.3134 56.0779 66.1915 54.2156 67.4186C48.5672 71.0484 38.4808 70.5203 36.1273 63.5908C35.2495 60.6392 34.6641 57.6114 34.3791 54.5494C32.967 42.7361 37.4723 70.5205 18.1064 69.9926C9.97004 69.9926 3.71648 63.3928 13.0632 52.5035C14.4352 50.9718 15.8944 49.5178 17.4339 48.1479C19.5184 46.4321 19.5857 46.102 16.896 46.8279C13.3334 48.083 9.47052 48.2669 5.80098 47.356C0.892276 45.5741 -1.79745 33.3649 1.36295 27.5573C5.93544 18.9778 14.2063 22.0796 19.5184 23.7955C24.8306 25.5114 26.2427 25.0494 20.7288 21.7496C18.79 20.6693 16.9457 19.4332 15.2149 18.0539C1.36293 6.37259 27.9237 -10.7866 35.3877 9.14417C37.136 13.9619 37.7412 18.7797 38.2792 18.7797L37.8084 18.6476ZM32.3618 26.3033C30.0083 28.2172 33.5721 30.593 35.6566 29.5371C37.7411 28.4811 35.6567 23.5975 32.3618 26.3033ZM43.6585 30.1308C41.5067 26.1711 39.2205 24.5872 37.8084 30.1308C36.9343 33.7606 36.598 38.8423 41.574 37.1924C42.1953 36.9406 42.7525 36.5575 43.2057 36.0702C43.6589 35.5829 43.9971 35.0033 44.1961 34.3732C44.3952 33.743 44.4501 33.0778 44.3572 32.4244C44.2643 31.771 44.0257 31.1454 43.6585 30.5928V30.1308ZM30.21 31.7807C25.3013 33.9586 26.7133 38.3803 30.6134 38.3803C39.2205 38.3803 36.0601 28.8769 30.21 31.7807ZM34.3118 39.7003C27.5875 42.8021 34.3118 45.442 40.0274 43.0661C45.743 40.6903 40.3636 36.6645 34.2446 39.7003H34.3118Z" fill="#92D660"/>
</svg>
