<svg viewBox="0 0 61 59" fill="none" xmlns="http://www.w3.org/2000/svg">
<path fill-rule="evenodd" clip-rule="evenodd" d="M30.6229 17.1631C31.2788 17.1353 31.2558 10.119 34.3176 6.12724C39.5032 -0.728662 57.9509 5.61702 49.3939 16.913C46.9558 20.1168 43.5018 22.602 43.6658 22.5951C45.4261 22.0114 47.2463 21.6242 49.0926 21.4407C64.2194 20.4743 62.393 45.9009 44.4101 40.1884C41.5242 39.2769 42.1254 39.2514 43.5975 41.6914C44.3609 42.9103 45.4616 44.3326 46.4551 45.8137C47.3846 47.2851 47.7212 49.0509 47.3976 50.7586C47.074 52.4663 46.1139 53.9903 44.7093 55.0264C40.4036 58.0916 32.4597 57.9925 30.4239 52.5845C29.6261 50.2958 29.0673 47.9315 28.7565 45.5289C27.2682 36.2355 31.6946 58.0249 16.5379 58.2853C10.1974 58.5536 5.04837 53.3315 12.0166 44.6051C13.0288 43.323 14.1304 42.1131 15.3132 40.9843C16.8408 39.5597 16.8839 39.2859 14.8321 39.971C12.086 41.0842 9.07413 41.3816 6.16203 40.8274C2.27617 39.5775 -0.200628 30.217 2.04998 25.1716C5.31567 18.2337 11.9235 20.4022 16.0803 21.5862C20.2372 22.7703 21.5877 22.3323 16.9954 19.9155C15.438 19.1273 13.9517 18.2074 12.5532 17.1659C1.23087 8.39729 21.5364 -6.06111 27.8325 9.44786C29.3621 13.2454 29.9602 17.0279 30.3974 17.0094L30.6229 17.1631ZM26.6167 23.4251C24.8203 24.9698 27.6884 26.7524 29.2937 25.8685C30.899 24.9847 29.0915 21.0901 26.6167 23.4251ZM35.5978 26.0371C33.7155 22.9617 31.9136 21.7868 31.0065 26.2313C30.4177 29.1393 30.3691 33.1668 34.1879 31.5365C34.6793 31.3027 35.1132 30.9645 35.4587 30.5458C35.8043 30.1272 36.053 29.6383 36.1875 29.1137C36.322 28.5891 36.3391 28.0418 36.2372 27.5101C36.1353 26.9785 35.9169 26.4756 35.5978 26.0371ZM24.9945 27.7912C21.2419 29.6907 22.4366 33.3392 25.4975 33.2097C32.2206 32.9252 29.444 25.5358 24.9945 27.7912ZM28.4289 33.9016C23.5059 36.6122 28.6219 38.4628 33.0258 36.427C37.4298 34.3912 32.9646 31.0986 28.4151 33.5758L28.4289 33.9016Z" fill="#5EAD41"/>
</svg>
