<svg viewBox="0 0 63 60" fill="none" xmlns="http://www.w3.org/2000/svg">
<path fill-rule="evenodd" clip-rule="evenodd" d="M32.1882 15.9836C32.9325 15.9836 33.1614 8.40369 36.7107 4.10453C42.4354 -3.07959 62.4147 4.67017 52.6255 16.4363C49.8204 19.8304 45.9275 22.4323 46.1565 22.6586C48.1504 22.0811 50.2066 21.7393 52.2819 21.6404C68.8263 21.301 65.6777 48.6798 46.5572 41.722C43.4086 40.5906 44.0956 40.5908 45.584 43.306C46.3282 44.6637 47.4732 46.2475 48.4464 47.888C49.412 49.516 49.7127 51.4467 49.2871 53.2862C48.8616 55.1257 47.742 56.7356 46.1565 57.7874C41.3478 60.8986 32.7607 60.446 30.7571 54.5064C30.0097 51.9764 29.5113 49.3812 29.2687 46.7566C28.0665 36.6309 31.9021 60.4462 15.4149 59.9936C8.488 59.9936 3.16403 54.3367 11.1214 45.003C12.2894 43.6901 13.5318 42.4438 14.8424 41.2697C16.6171 39.7989 16.6743 39.516 14.3844 40.1382C11.3514 41.214 8.06274 41.3717 4.93868 40.5909C0.75964 39.0635 -1.53026 28.5985 1.16035 23.6205C5.05315 16.2667 12.0945 18.9253 16.617 20.3961C21.1396 21.8669 22.3418 21.4709 17.6475 18.6425C15.9969 17.7166 14.4267 16.657 12.9532 15.4747C1.16034 5.46222 23.7729 -9.24564 30.1273 7.83786C31.6158 11.9673 32.131 16.0969 32.589 16.0969L32.1882 15.9836ZM27.5512 22.5457C25.5476 24.1862 28.5816 26.2226 30.3563 25.3175C32.131 24.4124 30.3564 20.2264 27.5512 22.5457ZM37.1687 25.8264C35.3368 22.4323 33.3904 21.0747 32.1882 25.8264C31.444 28.9376 31.1578 33.2934 35.3941 31.8792C35.923 31.6633 36.3974 31.335 36.7832 30.9173C37.1691 30.4996 37.457 30.0029 37.6264 29.4627C37.7959 28.9226 37.8427 28.3524 37.7636 27.7923C37.6845 27.2322 37.4814 26.6961 37.1687 26.2224V25.8264ZM25.7193 27.2406C21.5403 29.1073 22.7424 32.8974 26.0628 32.8974C33.3904 32.8974 30.6998 24.7516 25.7193 27.2406ZM29.2114 34.0288C23.4867 36.6875 29.2114 38.9503 34.0774 36.9138C38.9434 34.8774 34.3636 31.4267 29.1542 34.0288H29.2114Z" fill="#92D660"/>
</svg>
