<svg width="9" height="9" viewBox="0 0 9 9" fill="none" xmlns="http://www.w3.org/2000/svg">
<path fill-rule="evenodd" clip-rule="evenodd" d="M1.04531 5.01298C0.776899 5.26285 0.588008 5.58624 0.502203 5.94278C0.416397 6.29931 0.43747 6.67321 0.562808 7.01784C0.562808 7.01784 0.562822 7.01783 0.618527 7.0912C0.91831 7.29938 1.27252 7.41515 1.63739 7.42418C2.00226 7.43321 2.36178 7.33511 2.67149 7.14201C2.92521 6.94296 3.14337 6.70236 3.31671 6.43043C3.30726 6.75009 3.3565 7.06878 3.46199 7.37068C3.617 7.70347 3.86615 7.98352 4.17863 8.17622C4.49111 8.36892 4.85321 8.46581 5.22017 8.45492L5.29545 8.46522C5.58749 8.24382 5.80792 7.94141 5.92927 7.59562C6.05062 7.24983 6.06753 6.87597 5.9779 6.52063C5.86693 6.21811 5.70538 5.93664 5.50012 5.68826C5.80836 5.79072 6.13293 5.83513 6.45737 5.81924C6.81914 5.7763 7.15991 5.62664 7.4363 5.38932C7.7127 5.152 7.91219 4.83776 8.00934 4.48666C8.02393 4.46047 8.02813 4.42977 8.02111 4.40063C7.9028 4.05332 7.68422 3.74885 7.39298 3.52569C7.10173 3.30252 6.75088 3.17067 6.38474 3.14678C6.06622 3.15642 5.75224 3.22489 5.45864 3.34876C5.64934 3.09241 5.7927 2.80405 5.88194 2.49727C5.95262 2.13839 5.91632 1.76666 5.77758 1.42822C5.63883 1.08979 5.40375 0.799564 5.1015 0.593567C5.07501 0.579916 5.04463 0.57576 5.01545 0.581793C4.79294 0.596188 4.5733 0.639794 4.36218 0.711527C3.96732 0.848482 3.6346 1.12238 3.42437 1.48359C3.21413 1.84479 3.14028 2.26939 3.21622 2.68037C3.01345 2.32852 2.69515 2.0577 2.31538 1.91387C1.9356 1.77003 1.51776 1.76205 1.13278 1.89129C0.922942 1.96371 0.724511 2.0657 0.543482 2.19416C0.536823 2.20538 0.532489 2.2178 0.53072 2.23073C0.528951 2.24366 0.529785 2.25682 0.533184 2.26942C0.424615 2.61961 0.422167 2.99412 0.526162 3.3457C0.630156 3.69727 0.835932 4.01016 1.11753 4.24493C1.38183 4.42296 1.67584 4.55224 1.98569 4.62668C1.68218 4.72537 1.39603 4.87108 1.1377 5.05849L1.04531 5.01298ZM5.17092 8.17426C4.86812 8.18301 4.5693 8.10361 4.31079 7.94569C4.05228 7.78777 3.84523 7.55817 3.7148 7.28477C3.5002 6.50444 3.55201 5.67481 3.86205 4.92725C4.07186 5.38405 4.24162 5.85822 4.3694 6.34438C4.3918 6.36981 4.42261 6.3863 4.45618 6.3909C4.48975 6.39549 4.52386 6.38788 4.55227 6.3694C4.56946 6.36374 4.58528 6.35454 4.59873 6.34242C4.61217 6.3303 4.62293 6.31554 4.63034 6.29903C4.63776 6.28252 4.64165 6.26462 4.64177 6.24653C4.6419 6.22843 4.63824 6.21051 4.63105 6.1939L4.16423 4.88096C4.40139 5.05407 4.65122 5.2091 4.9116 5.34478C5.28685 5.66811 5.57001 6.08484 5.73244 6.55278C5.80369 6.8467 5.78876 7.15491 5.68944 7.44056C5.59011 7.72621 5.41061 7.97721 5.17238 8.16352L5.17092 8.17426ZM6.38463 3.38782C6.68695 3.41304 6.97568 3.52451 7.21653 3.70896C7.45738 3.8934 7.64024 4.14308 7.74339 4.42837C7.66183 4.71265 7.50128 4.96799 7.28042 5.16469C7.05956 5.36139 6.78743 5.49139 6.49563 5.53961C5.68866 5.49978 4.91758 5.19391 4.3027 4.66978C4.79922 4.61005 5.30003 4.59426 5.79933 4.62257C5.83276 4.61742 5.86352 4.60126 5.88673 4.57665C5.90995 4.55204 5.92429 4.52038 5.92748 4.4867C5.92285 4.45222 5.90731 4.42016 5.88313 4.39516C5.85894 4.37016 5.82739 4.35356 5.79309 4.3478L4.3962 4.38675C4.6384 4.22203 4.86267 4.03237 5.06532 3.82088C5.47975 3.57386 5.94638 3.42754 6.42767 3.3937L6.38463 3.38782ZM3.56866 1.78632C3.81105 0.9758 4.79139 0.857897 4.97231 0.816911C5.22101 0.989732 5.41457 1.23064 5.52978 1.51072C5.64499 1.79079 5.67698 2.09816 5.62188 2.39594C5.3297 3.14765 4.80462 3.78613 4.12347 4.21796C4.12347 4.21796 4.11023 4.31476 4.52945 2.77241C4.53476 2.75647 4.53664 2.73957 4.53497 2.72285C4.53331 2.70612 4.52813 2.68995 4.51979 2.67536C4.51144 2.66077 4.50011 2.64812 4.48653 2.63821C4.47296 2.6283 4.45745 2.62137 4.44101 2.61787C4.40911 2.60941 4.37524 2.61239 4.34531 2.62631C4.31538 2.64023 4.29127 2.66421 4.27719 2.69406L3.88593 4.03204C3.79456 3.75794 3.68476 3.49032 3.55725 3.23104C3.44044 2.75605 3.44436 2.2594 3.56866 1.78632V1.78632ZM3.83442 4.40849C3.86654 4.39733 3.90175 4.39918 3.93253 4.41362C3.96331 4.42807 3.98723 4.45397 3.99916 4.48581C4.0048 4.50241 4.00713 4.51997 4.00599 4.53746C4.00485 4.55496 4.00026 4.57206 3.99251 4.58778C3.98477 4.60351 3.974 4.61756 3.96083 4.62912C3.94765 4.64069 3.93231 4.64954 3.91571 4.65519C3.89911 4.66083 3.88157 4.66314 3.86407 4.662C3.84658 4.66086 3.82948 4.6563 3.81375 4.64856C3.79802 4.64081 3.78397 4.63003 3.77241 4.61685C3.76084 4.60368 3.75199 4.58836 3.74634 4.57176C3.74128 4.55526 3.73956 4.53791 3.74125 4.52074C3.74295 4.50356 3.74805 4.48688 3.75624 4.47169C3.76444 4.4565 3.77557 4.44309 3.78899 4.43224C3.80241 4.42139 3.81785 4.41332 3.83442 4.40849V4.40849ZM1.17584 3.97899C1.03452 3.91167 0.909426 3.81457 0.80914 3.69438C0.708855 3.57419 0.635739 3.43376 0.594824 3.28266C0.55391 3.13157 0.546169 2.97342 0.572105 2.81905C0.598042 2.66468 0.657051 2.51776 0.745097 2.38833C0.833143 2.25891 0.948141 2.15003 1.0822 2.06922C1.21626 1.9884 1.36621 1.93754 1.52177 1.92011C1.67733 1.90267 1.83482 1.91906 1.98344 1.9682C2.13207 2.01733 2.26831 2.09806 2.38283 2.20478C3.0152 2.71051 3.46251 3.41118 3.65508 4.19767C3.65508 4.19767 3.74306 4.27547 2.41115 3.35911C2.39077 3.34564 2.36762 3.33694 2.34341 3.33363C2.31921 3.33032 2.29457 3.33248 2.27132 3.33998C2.24973 3.34995 2.23101 3.36522 2.2169 3.38436C2.20278 3.4035 2.19375 3.42588 2.1906 3.44945C2.19118 3.4751 2.19779 3.50027 2.20993 3.52288C2.22207 3.54549 2.23939 3.5649 2.26046 3.57955L3.40126 4.37113C3.10918 4.36742 2.81723 4.38608 2.528 4.42696C2.0473 4.39109 1.58287 4.23723 1.17584 3.97899V3.97899ZM3.48425 4.64547C3.48425 4.64547 3.57913 4.59271 2.26151 5.57386C2.24784 5.5842 2.23634 5.59713 2.22768 5.61193C2.21902 5.62673 2.21337 5.64309 2.21105 5.66008C2.20872 5.67706 2.20977 5.69435 2.21414 5.71092C2.2185 5.7275 2.22611 5.74305 2.2365 5.75668C2.24575 5.77171 2.2582 5.78451 2.27299 5.79415C2.28777 5.80378 2.30451 5.81003 2.322 5.81242C2.33948 5.81481 2.35729 5.81329 2.37412 5.80798C2.39095 5.80267 2.4064 5.7937 2.41934 5.7817L3.53204 4.93687C3.43751 5.21647 3.36881 5.50415 3.32679 5.79629C3.13434 6.23909 2.84058 6.63052 2.46918 6.93902C2.3614 7.05406 2.22985 7.14423 2.08369 7.2033C1.93752 7.26236 1.78024 7.2889 1.62279 7.28104C1.46533 7.27317 1.31149 7.23109 1.17194 7.15776C1.03238 7.08442 0.910475 6.98157 0.814691 6.85635C0.718908 6.73114 0.651548 6.58658 0.617289 6.43271C0.583031 6.27883 0.582703 6.11933 0.61632 5.96531C0.649937 5.81129 0.716688 5.66645 0.811949 5.54084C0.907209 5.41523 1.02868 5.31186 1.16793 5.23795C1.8483 4.77856 2.66686 4.5692 3.48425 4.64547Z" fill="#5EAD41"/>
</svg>
