<svg width="16" height="16" viewBox="0 0 16 16" fill="none" xmlns="http://www.w3.org/2000/svg">
<path d="M15.5303 1.53042C15.8232 1.23753 15.8232 0.762652 15.5303 0.469758C15.2374 0.176864 14.7626 0.176862 14.4697 0.469755L15.5303 1.53042ZM0.469672 14.4697C0.176777 14.7626 0.176776 15.2374 0.469668 15.5303C0.762561 15.8232 1.23743 15.8232 1.53033 15.5303L0.469672 14.4697ZM14.4697 15.5302C14.7626 15.8231 15.2374 15.8231 15.5303 15.5302C15.8232 15.2373 15.8232 14.7625 15.5303 14.4696L14.4697 15.5302ZM1.53033 0.469668C1.23743 0.176776 0.762561 0.176777 0.469668 0.469672C0.176776 0.762566 0.176777 1.23744 0.469672 1.53033L1.53033 0.469668ZM14.4697 0.469755L0.469672 14.4697L1.53033 15.5303L15.5303 1.53042L14.4697 0.469755ZM15.5303 14.4696L1.53033 0.469668L0.469672 1.53033L14.4697 15.5302L15.5303 14.4696Z" fill="#1E1E1E"/>
</svg>
