<svg viewBox="0 0 75 75" fill="none" xmlns="http://www.w3.org/2000/svg">
<rect x="0.5" y="0.5" width="74" height="74" rx="37" fill="white"/>
<path d="M52.5181 48.9384L44.7201 41.0494C44.3203 40.6393 43.7908 40.3803 43.2217 40.3165C42.6525 40.2526 42.0788 40.388 41.5981 40.6994L38.2381 37.3044C40.0336 34.9944 39.2146 31.2144 35.8371 26.3144C33.8841 23.5004 31.8226 21.9604 29.7086 21.7714C27.9166 21.6104 26.1491 22.4014 24.4586 24.1199L24.2871 24.2949L24.2661 24.3194C22.9676 25.6634 21.5921 27.4694 21.7741 29.6709C21.9421 31.7709 23.4191 33.7799 26.2821 35.8519C29.7296 38.3439 32.3056 39.2049 34.2236 39.2049C35.4159 39.2299 36.5779 38.8277 37.4996 38.0709L40.8526 41.4659C40.545 41.9516 40.4105 42.527 40.4709 43.0988C40.5312 43.6705 40.7829 44.2051 41.1851 44.6159L48.9866 52.5119C49.2174 52.7457 49.4924 52.9313 49.7955 53.058C50.0986 53.1846 50.4238 53.2499 50.7524 53.2499C51.0809 53.2499 51.4061 53.1846 51.7092 53.058C52.0123 52.9313 52.2873 52.7457 52.5181 52.5119C52.9877 52.0358 53.251 51.3939 53.251 50.7252C53.251 50.0564 52.9877 49.4145 52.5181 48.9384ZM29.6176 22.8249C31.4061 22.9859 33.2121 24.3684 34.9796 26.9374C38.5566 32.1314 38.5181 34.9174 37.6046 36.3874C33.2261 26.4789 28.3086 24.5154 25.9496 24.2004C27.0521 23.2764 28.1616 22.8004 29.2641 22.8004C29.3796 22.8004 29.4986 22.8004 29.6176 22.8249ZM36.4986 36.4959C26.6461 31.9459 25.4351 26.9059 25.3266 25.1909C26.5061 25.2923 27.6445 25.6726 28.6481 26.3004C30.6956 27.5009 33.6811 30.2484 36.4986 36.4959ZM26.8841 34.9909C24.3221 33.1359 22.9501 31.3194 22.7996 29.5834C22.6806 28.1449 23.4016 26.8919 24.3116 25.8104C24.6336 28.1904 26.5586 33.1604 36.3516 37.5949C34.2376 38.8794 31.0596 38.0079 26.8841 34.9909ZM51.7796 51.7629C51.6454 51.8991 51.4855 52.0073 51.3092 52.0811C51.1328 52.1549 50.9435 52.1929 50.7524 52.1929C50.5612 52.1929 50.3719 52.1549 50.1955 52.0811C50.0192 52.0073 49.8593 51.8991 49.7251 51.7629L41.9271 43.8739C41.6558 43.5966 41.5039 43.2241 41.5039 42.8362C41.5039 42.4482 41.6558 42.0757 41.9271 41.7984C42.0613 41.6622 42.2212 41.5541 42.3975 41.4802C42.5739 41.4064 42.7632 41.3684 42.9544 41.3684C43.1455 41.3684 43.3348 41.4064 43.5112 41.4802C43.6875 41.5541 43.8474 41.6622 43.9816 41.7984L51.7796 49.6874C52.0509 49.9647 52.2028 50.3372 52.2028 50.7252C52.2028 51.1131 52.0509 51.4856 51.7796 51.7629Z" fill="#1E1E1E"/>
<rect x="0.5" y="0.5" width="74" height="74" rx="37" stroke="black"/>
</svg>
