<svg width="288" height="288" viewBox="0 0 288 288" fill="none" xmlns="http://www.w3.org/2000/svg">
<g clip-path="url(#clip0_182_5240)">
<rect width="288" height="288" fill="#D6607A"/>
<path fill-rule="evenodd" clip-rule="evenodd" d="M32.9133 167.63C49.7954 174.222 72.9239 169.93 92.1414 174.25C111.359 178.57 126.637 191.53 149.597 189.454C172.557 187.378 203.395 170.267 229.562 169.958C255.729 169.65 277.395 186.172 290.309 201.067C303.224 215.963 307.754 229.119 319.487 234.953C331.22 240.788 350.157 238.881 350.973 255.291C351.788 271.701 334.428 306.26 298.919 328.224C263.411 350.188 209.838 359.417 172.106 367.16C134.375 374.902 113.019 381.185 88.6806 376.248C64.3422 371.311 37.5559 355.21 18.0571 337.79C-1.44179 320.37 -13.5969 301.66 -29.8881 275.404C-46.1794 249.147 -66.9444 215.345 -63.6524 189.173C-60.3604 163.002 -32.8707 144.516 -13.822 144.011C5.22665 143.506 16.0031 161.01 32.9133 167.63Z" fill="#397621"/>
<path fill-rule="evenodd" clip-rule="evenodd" d="M203.113 163.36C200.155 160.311 196.559 156.032 193.555 152.573L188.23 146.452L190.278 147.612C191.53 148.341 193.282 149.387 195.217 150.662C199.35 153.303 203.207 156.353 206.732 159.764C207.909 160.946 209.011 162.2 210.031 163.519C210.327 160.356 210.578 157.193 210.76 154.03C210.398 154.072 210.032 154 209.713 153.825C207.591 152.477 205.681 150.82 204.046 148.91C201.111 145.86 197.515 141.582 194.511 138.123L189.163 132.001L191.211 133.162C192.486 133.89 194.238 134.937 196.172 136.211C200.302 138.858 204.159 141.907 207.687 145.314C208.861 146.514 209.97 147.775 211.01 149.092C211.192 144.95 211.26 140.808 211.26 136.644C210.259 136.803 208.302 136.075 203.659 132.98C197.442 128.45 191.542 123.5 186 118.165C193.065 121.221 199.908 124.764 206.481 128.77C208.144 129.83 209.733 131.001 211.238 132.274C211.238 131.979 211.238 131.683 211.238 131.387C211.145 131.195 211.097 130.985 211.097 130.772C211.097 130.56 211.145 130.35 211.238 130.158L211.101 126.221C211.101 124.992 211.101 123.763 210.896 122.512C210.683 122.718 210.41 122.853 210.117 122.898C209.823 122.943 209.523 122.895 209.258 122.762C207.219 121.676 205.367 120.27 203.773 118.598C200.883 115.958 197.379 112.18 194.42 109.154L189.209 103.76L191.189 104.671C192.395 105.262 194.102 106.104 195.968 107.151C199.972 109.295 203.727 111.874 207.164 114.843C208.422 115.935 209.587 117.13 210.646 118.416C210.418 115.29 210.145 112.173 209.827 109.063C208.871 109.29 207.141 108.539 202.999 105.057C197.607 100.265 192.572 95.0857 187.934 89.5601C194.279 92.969 200.364 96.8406 206.14 101.143C207.483 102.236 208.529 103.146 209.303 103.897C209.303 103.76 209.303 103.624 209.303 103.487C209.13 103.311 209.007 103.091 208.947 102.851C208.887 102.611 208.892 102.359 208.962 102.122C208.981 101.966 209.019 101.813 209.076 101.667C208.803 99.6868 208.529 97.707 208.234 95.7272C207.323 96.0003 205.821 95.363 202.044 91.8358C197.539 87.1737 193.414 82.1588 189.709 76.8391C195.269 80.205 200.55 84.0099 205.503 88.2175C206.185 88.8547 206.754 89.4236 207.255 89.9242C206.754 87.1707 206.208 84.4171 205.639 81.6863C204.729 82.2097 203.364 81.8001 198.926 77.2943C194.315 72.1033 190.101 66.5731 186.319 60.7502C192.046 64.6672 197.47 69.0109 202.544 73.7443C203.227 74.4497 203.796 75.0641 204.297 75.633C203.955 74.0856 203.614 72.5381 203.25 71.0817C202.271 70.9679 201.133 69.6253 199.04 64.0271C196.822 57.1509 195.103 50.1236 193.897 43C197.65 49.1739 200.958 55.6076 203.796 62.2521C204.137 63.1624 204.41 63.9589 204.638 64.6871C206.677 59.1934 209.143 53.8673 212.011 48.7574C211.611 54.8539 210.697 60.9059 209.28 66.849C207.528 72.743 206.481 73.1753 205.321 72.925C206.14 76.0427 206.891 79.1831 207.596 82.3463C207.938 81.5953 208.393 80.7078 208.985 79.6837C211.075 76.2507 213.625 73.1193 216.563 70.3763C217.905 69.0564 219.18 67.9641 220.09 67.1903L221.592 66.007L220.704 67.691L218.588 71.8554C216.927 75.1779 215.038 79.2514 213.377 82.2097C212.514 84.0402 211.336 85.7042 209.895 87.1252C209.716 87.2701 209.505 87.3704 209.279 87.4178C209.054 87.4653 208.82 87.4586 208.598 87.3983C208.939 89.196 209.258 91.0165 209.531 92.8371C209.689 93.0624 209.796 93.3201 209.843 93.5915C209.891 93.863 209.877 94.1416 209.804 94.4073L210.487 99.209C210.896 98.5263 211.397 97.7525 212.034 96.9333C214.014 93.9977 216.904 90.3111 219.134 87.1935L221.979 83.211L223.094 81.5726C223.094 81.5726 222.957 82.3007 222.684 83.5296C222.411 84.7585 222.002 86.4197 221.41 88.3085C220.201 92.3141 218.464 96.1406 216.244 99.6868C215.074 101.604 213.468 103.218 211.556 104.397C211.357 104.521 211.13 104.592 210.896 104.602L211.101 106.446C211.205 106.627 211.27 106.828 211.289 107.036C211.309 107.244 211.284 107.454 211.215 107.652C211.442 109.7 211.624 111.748 211.806 113.796L212.057 113.5C212.74 112.726 213.695 111.748 214.947 110.451C216.199 109.154 217.701 107.674 219.202 106.104C220.704 104.534 222.161 102.896 223.413 101.371C224.664 99.8461 225.688 98.3897 226.508 97.3429L227.714 95.6589C227.714 95.6589 227.554 96.4099 227.236 97.6842C226.785 99.3677 226.237 101.024 225.597 102.645C224.767 104.743 223.762 106.768 222.593 108.698C221.452 110.59 220.109 112.352 218.588 113.955C217.537 115.082 216.378 116.103 215.129 117.005C214.49 117.499 213.765 117.87 212.99 118.097C212.705 118.162 212.41 118.162 212.125 118.097C212.307 120.828 212.466 123.536 212.603 126.267V127.973C213.217 127.268 214.037 126.403 215.106 125.379C217.632 122.899 221.296 119.94 224.209 117.483L229.489 113.159C229.489 113.159 229.17 113.819 228.578 114.911C227.987 116.003 227.145 117.505 226.121 119.167C223.976 122.707 221.441 125.997 218.565 128.975C217.149 130.628 215.385 131.949 213.399 132.843C213.167 132.897 212.926 132.897 212.694 132.843C212.694 136.78 212.808 140.717 212.694 144.654C213.559 143.721 214.81 142.515 216.563 140.922C219.794 137.964 224.323 134.391 227.941 131.364L234.381 126.016L233.13 128.087C232.333 129.362 231.195 131.137 229.807 133.094C226.936 137.275 223.642 141.149 219.976 144.654C218.137 146.555 215.961 148.098 213.559 149.205C213.248 149.326 212.911 149.365 212.58 149.319C212.58 152.778 212.307 156.26 212.057 159.719C213.548 158.366 215.113 157.098 216.745 155.919C220.249 153.279 225.097 150.138 229.011 147.499L235.838 142.788L234.381 144.722C233.471 145.928 232.106 147.567 230.604 149.274C227.334 153.15 223.682 156.688 219.703 159.833C217.7 161.586 215.384 162.945 212.876 163.838C212.482 164 212.041 164 211.647 163.838C210.876 172.931 209.585 181.973 207.778 190.918C207.574 191.965 205.981 191.578 206.163 190.531C207.422 183.113 208.446 175.694 209.235 168.275C208.958 168.262 208.687 168.192 208.438 168.071C206.45 166.759 204.658 165.173 203.113 163.36Z" fill="#5EAD41"/>
<path fill-rule="evenodd" clip-rule="evenodd" d="M2.25506 76.8115C1.43581 76.9481 0.411737 77.3121 0.366223 78.3362C0.369705 78.6663 0.477127 78.9869 0.673222 79.2524C0.869317 79.5179 1.1441 79.715 1.45855 79.8154C2.14695 79.9781 2.86379 79.9781 3.55219 79.8154C5.63216 79.4517 7.64336 78.7685 9.51452 77.79C11.1111 76.9273 12.575 75.839 13.8611 74.5586C13.8611 77.0391 13.7246 79.4968 13.6336 81.9546C9.76488 82.8648 5.85067 84.0254 2.25506 84.9584C1.48132 85.1859 0.525523 85.6411 0.616551 86.6651C0.64591 86.988 0.775913 87.2935 0.988242 87.5385C1.20057 87.7835 1.48447 87.9556 1.79989 88.0305C2.46819 88.13 3.14979 88.0913 3.80252 87.9168C5.74866 87.4153 7.61693 86.6497 9.35524 85.6411C10.9119 84.7204 12.3555 83.6206 13.6563 82.3642C13.6563 84.253 13.4742 86.1417 13.3605 88.0305C9.57615 89.7354 5.65587 91.1209 1.64061 92.1723C0.798601 92.3998 -0.22546 92.8549 -0.202703 93.8562C-0.177717 94.1891 -0.0473368 94.5053 0.169544 94.759C0.386424 95.0127 0.678518 95.1907 1.00342 95.2671C1.76326 95.3795 2.53816 95.333 3.27912 95.1306C5.43467 94.5743 7.4811 93.6588 9.3325 92.4226C10.8577 91.3919 12.2226 90.1421 13.3832 88.7133C13.2467 90.8979 13.0874 93.0825 12.9053 95.2671C9.28986 97.0716 5.46923 98.4317 1.52682 99.3178C0.707565 99.4999 -0.316504 99.8868 -0.362019 100.911C-0.354285 101.244 -0.239379 101.565 -0.0343933 101.828C0.170592 102.09 0.454724 102.279 0.775833 102.367C1.52453 102.54 2.30284 102.54 3.05154 102.367C7.03578 101.548 10.5818 99.2973 13.0191 96.0409C12.8598 97.9524 12.6778 99.8868 12.4502 101.821C12.4602 101.965 12.4602 102.11 12.4502 102.253C8.30594 104.125 4.06745 105.781 -0.248226 107.214C-1.13575 107.51 -2.20533 108.056 -2.13706 109.058C-2.07917 109.396 -1.9121 109.706 -1.66141 109.94C-1.41072 110.174 -1.09021 110.32 -0.748884 110.355C0.0234575 110.405 0.797817 110.296 1.52682 110.036C5.77486 108.713 9.54639 106.183 12.3819 102.754C12.1544 104.688 11.9268 106.645 11.6765 108.58C9.94693 109.695 8.19465 110.855 6.4196 111.72C4.38358 112.826 2.27791 113.799 0.115894 114.633C-0.748873 114.974 -1.77294 115.566 -1.65915 116.567C-1.59681 116.905 -1.42048 117.212 -1.15957 117.435C-0.89866 117.659 -0.568977 117.786 -0.225482 117.796C0.554435 117.807 1.32842 117.66 2.05022 117.364C4.25603 116.488 6.2957 115.241 8.08085 113.677C9.39225 112.518 10.5405 111.186 11.4944 109.718C11.1531 112.266 10.7662 114.792 10.3793 117.341C8.74079 118.593 7.03404 119.822 5.28175 120.914C3.25278 122.181 1.13021 123.292 -1.06748 124.236C-1.93225 124.623 -3.00181 125.26 -2.86527 126.262C-2.78369 126.599 -2.59131 126.899 -2.31895 127.113C-2.04659 127.328 -1.71007 127.445 -1.36333 127.445C-0.956861 127.434 -0.552654 127.38 -0.157214 127.286C0.245279 127.174 0.640493 127.037 1.02616 126.876C3.28043 125.876 5.33804 124.481 7.10228 122.757C8.27297 121.603 9.29023 120.303 10.129 118.889C9.7421 121.164 9.35524 123.44 8.92285 125.716C6.04604 128.259 2.79072 130.34 -0.726139 131.883C-1.47712 132.201 -2.36462 132.747 -2.22808 133.771C-2.16158 134.095 -1.99317 134.389 -1.74746 134.61C-1.50175 134.831 -1.19168 134.968 -0.862676 135C-0.500534 135.054 -0.132456 135.054 0.229686 135C0.582476 134.914 0.925581 134.792 1.25375 134.636C4.34842 133.297 6.91018 130.968 8.53599 128.014C8.08085 130.29 7.62572 132.725 7.12506 135.069C4.21605 137.615 0.940261 139.71 -2.5922 141.281C-3.29767 141.6 -4.13968 142.123 -3.98038 143.147C-3.91966 143.466 -3.75896 143.757 -3.5216 143.978C-3.28423 144.199 -2.98257 144.338 -2.66047 144.376C-2.31463 144.442 -1.9595 144.442 -1.61366 144.376C-1.26905 144.297 -0.933496 144.183 -0.612347 144.035C1.30994 143.191 3.03176 141.951 4.43971 140.394C5.39013 139.286 6.15829 138.034 6.71542 136.684C6.30579 138.71 5.87343 140.712 5.41829 142.738C2.4434 145.309 -0.160552 148.28 -2.31912 151.567C-2.77426 152.25 -3.13838 153.251 -2.31912 153.843C-2.07268 154.05 -1.77076 154.179 -1.45105 154.216C-1.13134 154.252 -0.807967 154.194 -0.5213 154.048C0.0135317 153.698 0.476911 153.25 0.844101 152.728C2.5491 150.315 3.93367 147.691 4.96312 144.922L4.07559 148.836C1.64139 152.865 -0.212588 157.216 -1.4316 161.762C-1.70469 162.718 -1.75019 164.038 -0.635092 164.493C-0.272362 164.63 0.122009 164.66 0.501197 164.579C0.880384 164.498 1.22846 164.31 1.50407 164.038C1.99823 163.448 2.3557 162.757 2.55088 162.012C3.83527 157.919 4.46507 153.649 4.41697 149.36L4.96312 147.357C4.75164 150.61 4.89664 153.876 5.39551 157.097C5.50929 157.916 5.91891 158.895 6.92022 158.895C7.24274 158.875 7.55297 158.764 7.81483 158.574C8.07668 158.385 8.27943 158.125 8.39945 157.825C8.56169 157.209 8.60037 156.567 8.51324 155.936C7.97581 152.224 6.83017 148.626 5.12243 145.286C5.89617 142.169 6.6244 139.028 7.39814 135.888C7.35336 137.834 7.56763 139.778 8.03533 141.668C8.58638 143.947 9.43572 146.143 10.5614 148.199C10.9937 149.041 11.8358 149.929 12.8371 149.542C13.1285 149.395 13.3702 149.166 13.5321 148.882C13.694 148.599 13.7688 148.274 13.7473 147.949C13.6528 147.264 13.437 146.601 13.1101 145.992L10.3566 140.735C9.49179 139.028 8.58152 137.276 7.55745 135.228C7.96708 133.271 8.37668 131.291 8.74079 129.334C9.0603 133.233 10.1265 137.034 11.8813 140.53C12.2681 141.349 13.0191 142.237 13.9749 141.918C14.2749 141.791 14.5313 141.578 14.7131 141.308C14.8949 141.037 14.9942 140.72 14.999 140.394C14.9513 139.721 14.7735 139.064 14.4756 138.459C12.9032 134.896 11.0622 131.457 8.96838 128.173C9.49179 125.443 9.9697 122.689 10.4021 119.958C10.2601 122.106 10.491 124.261 11.0848 126.33C11.722 128.632 12.7288 130.814 14.0659 132.793C14.5893 133.612 15.5451 134.431 16.3416 133.931C16.6195 133.757 16.8379 133.503 16.968 133.202C17.098 132.901 17.1336 132.568 17.0699 132.247C16.9134 131.584 16.6439 130.952 16.2734 130.381C15.1583 128.56 14.248 126.899 13.2922 125.169C12.3364 123.44 11.4034 121.665 10.3793 119.503C10.5158 118.684 10.6524 117.865 10.7662 117.045C10.8286 116.936 10.8819 116.822 10.9255 116.704C10.8882 116.714 10.849 116.714 10.8117 116.704L11.4944 112.153C11.5339 114.482 11.9568 116.788 12.746 118.98C13.6559 121.506 14.9617 123.872 16.6147 125.989C17.2747 126.853 18.3898 127.718 19.2545 127.195C19.5254 126.982 19.7235 126.69 19.8214 126.36C19.9192 126.03 19.912 125.677 19.8007 125.351C19.5185 124.642 19.1517 123.97 18.7084 123.349C17.2974 121.369 16.1368 119.549 14.9762 117.637C13.8156 115.725 12.7005 113.837 11.5854 111.47L11.9951 108.33L12.1316 108.102H12.0178L12.4275 104.734C12.7503 106.665 13.34 108.541 14.1797 110.309C15.3972 112.855 17.0534 115.166 19.0725 117.136C19.8918 117.933 21.1662 118.684 21.9399 118.024C22.1747 117.77 22.3232 117.448 22.364 117.105C22.4049 116.762 22.3361 116.414 22.1674 116.112C21.9964 115.754 21.7825 115.418 21.5302 115.111C21.2878 114.802 21.0296 114.506 20.7565 114.223C19.1328 112.502 17.613 110.686 16.2051 108.785C14.875 107 13.6515 105.138 12.5412 103.209C12.5412 102.8 12.5412 102.367 12.7005 101.958C12.8826 100.274 13.0646 98.6124 13.2239 96.9284C13.6497 99.1208 14.4177 101.233 15.4996 103.186C16.7089 105.371 18.2436 107.358 20.051 109.08C20.802 109.786 21.9399 110.423 22.7136 109.74C22.9506 109.503 23.1067 109.198 23.1598 108.867C23.213 108.536 23.1603 108.196 23.0094 107.897C22.678 107.258 22.2393 106.681 21.7123 106.19C20.1421 104.552 18.7766 103.05 17.3885 101.503C16.0003 99.9551 14.6576 98.4076 13.1329 96.496C13.315 94.7969 13.4743 93.0901 13.6108 91.3758C15.5127 94.9531 18.1868 98.0625 21.4393 100.478C22.0992 100.979 23.1233 101.389 23.715 100.661C23.931 100.425 24.0722 100.13 24.1208 99.8144C24.1694 99.4985 24.1232 99.1751 23.988 98.8854C23.6872 98.3373 23.2766 97.857 22.7819 97.4745C19.8932 95.1195 16.8013 93.0252 13.5425 91.2165C13.7246 88.9408 13.9066 86.8472 14.0659 84.6625C16.0511 88.2099 18.9306 91.1756 22.4178 93.2646C23.1688 93.7197 24.2611 94.0383 24.8755 93.2646C25.0536 92.9986 25.1487 92.6857 25.1487 92.3657C25.1487 92.0456 25.0536 91.7328 24.8755 91.4668C24.5057 90.9446 24.0334 90.5033 23.4874 90.1697C21.8261 89.0546 20.3469 88.076 18.7766 87.0975L14.0432 84.2074C14.1797 82.1366 14.3163 80.0657 14.4073 77.9721C15.2591 79.5485 16.3491 80.9839 17.6388 82.2276C19.2459 83.7464 21.0909 84.9917 23.1005 85.9142C23.897 86.3011 25.0576 86.4604 25.5355 85.5729C25.6791 85.2869 25.7382 84.9659 25.706 84.6475C25.6737 84.3291 25.5515 84.0264 25.3535 83.7751C24.9219 83.3184 24.4135 82.941 23.8515 82.66C22.0992 81.7725 20.5972 80.9077 19.0269 80.0202C17.4567 79.1327 16.1141 78.3817 14.4756 77.3122C14.4756 75.0365 14.6576 72.7608 14.7032 70.4852C15.6385 72.2649 16.8785 73.8669 18.367 75.2185C19.9229 76.6115 21.6797 77.7623 23.5783 78.632C24.3293 78.9961 25.4217 79.1554 25.854 78.2679C25.9956 77.9826 26.0556 77.6638 26.0275 77.3466C25.9994 77.0294 25.8843 76.7261 25.6948 76.4702C25.299 76.0247 24.8197 75.6614 24.2839 75.4006L14.6349 70.4169C14.6349 68.8922 14.6349 67.3675 14.6349 65.8656C15.3238 67.5545 16.4087 69.053 17.7981 70.2348C19.5108 71.7245 21.5809 72.7439 23.8059 73.1932C24.2678 73.319 24.755 73.319 25.2169 73.1932C25.4404 73.1427 25.6439 73.0271 25.8019 72.8611C25.9598 72.695 26.0651 72.486 26.1044 72.2602C26.1536 71.9496 26.1183 71.6314 26.0022 71.3391C25.8861 71.0468 25.6934 70.7911 25.4444 70.5989C25.2053 70.4234 24.9455 70.2782 24.6707 70.1665L23.8515 69.8935C22.2003 69.4225 20.5996 68.7898 19.0725 68.0047C17.4971 67.2338 16.0092 66.2953 14.6349 65.2056C14.6349 63.3396 14.6349 61.4735 14.6349 59.6075C16.4014 62.2284 18.9147 64.2581 21.8489 65.4332C22.016 65.5314 22.2017 65.5941 22.3942 65.6174C22.5867 65.6407 22.7819 65.6241 22.9677 65.5685C23.1535 65.513 23.3257 65.4198 23.4739 65.2947C23.622 65.1696 23.7428 65.0153 23.8287 64.8415C23.9596 64.572 24.0275 64.2763 24.0275 63.9767C24.0275 63.6772 23.9596 63.3815 23.8287 63.112C23.5158 62.7208 23.1086 62.4154 22.6454 62.2245C21.2799 61.5646 20.051 61.0184 18.7311 60.5177C17.4112 60.0171 16.2051 59.6303 14.7032 59.1296C14.7032 55.8754 14.4983 52.6212 14.3163 49.367C14.3163 48.8664 13.406 48.8891 13.4287 49.367C13.4287 53.1446 13.4287 56.9222 13.4287 60.7453C10.3793 60.7176 7.33631 60.459 4.32592 59.9716C3.96956 59.8668 3.58682 59.8999 3.25374 60.0643C2.92065 60.2288 2.66162 60.5124 2.52813 60.8591C2.41136 61.1478 2.3793 61.4639 2.43573 61.7702C2.49216 62.0766 2.63473 62.3604 2.84673 62.5886C3.30335 62.9507 3.84305 63.1931 4.41697 63.2941C6.10492 63.5714 7.83167 63.5017 9.49178 63.0893C10.922 62.727 12.2725 62.1019 13.4743 61.246C13.4743 63.3623 13.4743 65.4787 13.4743 67.595C10.0835 67.595 6.64716 67.5951 3.46118 67.7771C3.06493 67.73 2.66559 67.8356 2.34434 68.0723C2.02309 68.309 1.80401 68.6591 1.73162 69.0515C1.69722 69.363 1.75163 69.6778 1.88854 69.9597C2.02545 70.2415 2.2393 70.479 2.50539 70.6445C3.04372 70.9028 3.6388 71.0203 4.23491 70.9858C7.51807 70.9283 10.7192 69.9506 13.4743 68.164C13.4743 70.1438 13.4743 72.1464 13.4743 74.1263C9.96968 75.1275 5.98721 76.1743 2.25506 76.8115Z" fill="#5EAD41"/>
<path fill-rule="evenodd" clip-rule="evenodd" d="M217.946 264.054C218.11 260.304 218.482 256.566 219.061 252.857C219.161 252.978 219.296 253.065 219.448 253.108C220.421 253.386 221.446 253.434 222.441 253.249C223.436 253.063 224.375 252.649 225.183 252.038C226.138 251.287 227.913 249.33 227.344 247.942C226.776 246.554 223.863 247.191 222.793 247.464C221.693 247.708 220.661 248.19 219.766 248.875C220.404 245.302 221.155 241.684 221.928 238.043L222.156 238.248C222.936 238.713 223.804 239.01 224.706 239.12C225.607 239.23 226.521 239.15 227.39 238.885C228.642 238.498 231.259 236.996 231.122 235.357C230.986 233.719 228.073 233.673 226.889 233.628C225.404 233.532 223.926 233.898 222.657 234.675C223.453 230.988 224.227 227.302 224.932 223.592H225.137C226.139 223.768 227.169 223.697 228.137 223.383C229.105 223.07 229.981 222.524 230.69 221.794C231.623 220.975 233.284 219.678 232.01 218.404C231.313 217.963 230.525 217.684 229.705 217.59C228.886 217.495 228.055 217.587 227.276 217.858C226.768 217.995 226.285 218.21 225.842 218.495C226.457 214.785 226.958 211.076 227.253 207.412C228.892 206.892 230.326 205.869 231.351 204.488C232.376 203.108 232.941 201.44 232.965 199.721C232.957 199.597 232.915 199.478 232.842 199.377C232.77 199.277 232.671 199.198 232.556 199.152C231.583 198.807 230.514 198.851 229.573 199.275C228.631 199.699 227.89 200.47 227.504 201.427C227.541 198.054 227.313 194.683 226.821 191.346H227.003C228.475 190.617 229.703 189.476 230.539 188.062C231.375 186.648 231.783 185.022 231.714 183.381C231.702 183.241 231.651 183.107 231.566 182.994C231.482 182.881 231.367 182.795 231.236 182.744C230.479 182.499 229.663 182.504 228.909 182.758C228.155 183.012 227.503 183.502 227.049 184.155C226.535 184.735 226.084 185.368 225.706 186.044C224.842 182.747 223.613 179.556 222.042 176.532C223.051 175.312 223.698 173.834 223.911 172.266C224.124 170.698 223.895 169.101 223.248 167.656C223.174 167.503 223.057 167.374 222.912 167.286C222.767 167.197 222.599 167.152 222.429 167.156C221.595 167.239 220.812 167.593 220.199 168.165C219.587 168.736 219.179 169.493 219.038 170.319C219.038 170.66 218.833 171.024 218.742 171.411C218.378 170.895 217.991 170.372 217.582 169.841C218.248 167.563 218.35 165.158 217.878 162.832C217.536 161.421 216.353 158.963 214.555 160.352C213.998 160.958 213.584 161.682 213.344 162.47C213.104 163.257 213.043 164.089 213.167 164.903C213.228 166.03 213.541 167.128 214.085 168.117C214.629 169.106 215.388 169.96 216.307 170.615C217.013 171.502 217.673 172.413 218.287 173.323C217.246 172.928 216.146 172.713 215.033 172.686C214.009 172.686 211.597 172.504 211.392 173.892C211.187 175.28 213.668 177.419 215.01 177.897C215.942 178.203 216.926 178.319 217.903 178.237C218.881 178.155 219.832 177.877 220.699 177.419C222.16 180.198 223.313 183.128 224.136 186.158C223.295 185.513 222.347 185.02 221.337 184.701C220.29 184.337 218.629 183.723 218.333 185.247C218.296 186.106 218.455 186.963 218.798 187.751C219.141 188.54 219.659 189.24 220.313 189.799C221.718 190.974 223.511 191.583 225.342 191.505C225.814 194.563 226.057 197.651 226.07 200.745C225.657 199.836 225.065 199.019 224.33 198.342C223.595 197.666 222.732 197.144 221.792 196.808C221.67 196.79 221.545 196.804 221.429 196.848C221.314 196.891 221.212 196.964 221.132 197.058C220.591 197.842 220.259 198.75 220.168 199.698C220.076 200.646 220.228 201.601 220.608 202.474C221.045 203.513 221.703 204.443 222.537 205.202C223.37 205.96 224.358 206.528 225.433 206.866C225.575 206.9 225.723 206.9 225.865 206.866C225.592 210.78 225.046 214.763 224.386 218.745C224.172 217.694 223.695 216.714 222.998 215.898C222.301 215.082 221.409 214.456 220.404 214.08C220.32 214.043 220.23 214.022 220.139 214.021C220.047 214.019 219.956 214.035 219.871 214.069C219.786 214.103 219.709 214.154 219.644 214.218C219.579 214.283 219.528 214.36 219.493 214.444C219.134 215.206 218.948 216.037 218.948 216.879C218.948 217.721 219.134 218.552 219.493 219.314C220.535 220.763 222.021 221.834 223.726 222.363C223.089 225.8 222.361 229.19 221.61 232.672C220.929 230.867 219.563 229.403 217.809 228.599C217.667 228.542 217.509 228.534 217.362 228.575C217.214 228.616 217.083 228.704 216.99 228.826C216.637 229.479 216.418 230.196 216.348 230.935C216.277 231.674 216.357 232.42 216.58 233.127C216.903 234.011 217.417 234.811 218.086 235.472C218.755 236.133 219.562 236.638 220.449 236.95H220.677C219.789 241.001 218.947 245.029 218.242 249.011C217.751 247.923 217.001 246.972 216.056 246.242C215.112 245.512 214.002 245.025 212.825 244.824C212.672 244.797 212.514 244.822 212.378 244.897C212.241 244.971 212.134 245.09 212.075 245.234C211.89 246.013 211.876 246.823 212.034 247.609C212.191 248.394 212.515 249.136 212.985 249.785C213.556 250.446 214.252 250.987 215.033 251.378C215.814 251.768 216.665 252 217.536 252.061H217.718C217.088 255.91 216.686 259.793 216.512 263.69C216.512 264.577 217.878 264.805 217.9 263.894L217.946 264.054Z" fill="#5EAD41"/>
<path fill-rule="evenodd" clip-rule="evenodd" d="M9.53698 183.7C15.8862 187.272 17.8888 194.168 19.4363 200.813V201.108V201.268C20.0588 202.719 20.4724 204.251 20.6651 205.819C22.9408 199.652 25.2165 193.621 30.6327 189.502C30.7095 189.436 30.8038 189.394 30.9042 189.38C31.0046 189.367 31.1068 189.383 31.1983 189.426C31.2899 189.469 31.3669 189.538 31.42 189.625C31.4731 189.711 31.5 189.811 31.4975 189.912C31.4975 197.308 26.2634 202.451 21.1203 207.093C21.0363 207.179 20.9218 207.228 20.8017 207.23C20.9338 209.378 20.8728 211.533 20.6196 213.67C20.6196 214.011 20.6196 214.353 20.6196 214.694H20.8927C25.7803 208.335 32.2115 203.329 39.5763 200.153C39.6783 200.107 39.7922 200.095 39.9013 200.119C40.0104 200.143 40.1091 200.201 40.1828 200.285C40.2566 200.369 40.3015 200.474 40.3111 200.585C40.3207 200.697 40.2945 200.808 40.2362 200.904C36.2765 207.526 28.8577 215.263 20.5969 215.764C20.1144 219.502 19.3538 223.199 18.3212 226.823H18.6625C23.5467 220.47 29.9689 215.465 37.3233 212.282C37.4253 212.236 37.5392 212.225 37.6484 212.248C37.7575 212.272 37.8561 212.33 37.9299 212.414C38.0036 212.498 38.0486 212.604 38.0582 212.715C38.0678 212.826 38.0415 212.938 37.9833 213.033C34.0463 219.632 26.6048 227.392 18.3667 227.893C18.2498 227.897 18.1357 227.857 18.0481 227.779C17.7295 228.826 17.4109 229.873 17.0468 230.92C16.842 231.534 15.8407 231.215 16.0682 230.601C16.6827 228.803 17.2288 226.983 17.7295 225.139C12.2678 220.224 5.21313 211.804 4.89453 204.067C4.89453 203.543 5.50898 203.475 5.82758 203.748C11.5168 208.914 17.3426 214.626 18.4577 222.409C19.0039 219.951 19.4363 217.47 19.7549 214.967C19.9142 213.67 20.0279 212.35 20.0962 211.053C14.3159 207.275 8.3081 202.997 7.14749 195.715C7.1361 195.616 7.15183 195.516 7.19301 195.426C7.23419 195.336 7.29926 195.258 7.38118 195.202C7.46311 195.146 7.5588 195.113 7.65797 195.107C7.75714 195.101 7.85605 195.123 7.944 195.169C13.747 198.355 17.0468 203.816 20.1873 209.437C20.2912 206.53 19.69 203.641 18.435 201.017C14.1112 196.125 9.99213 191.027 9.01358 184.359C8.99216 184.28 8.9896 184.197 9.00612 184.117C9.02264 184.037 9.05777 183.962 9.10869 183.897C9.15961 183.833 9.22487 183.782 9.29926 183.747C9.37365 183.713 9.45509 183.697 9.53698 183.7Z" fill="#5EAD41"/>
<path fill-rule="evenodd" clip-rule="evenodd" d="M49.4587 258.303C49.7318 258.303 49.8456 255.367 51.1883 253.751C53.464 250.975 61.0193 253.956 57.2644 258.53C56.1948 259.828 54.7156 260.806 54.7839 260.806C55.5257 260.593 56.289 260.463 57.0596 260.419C63.3633 260.283 62.1571 270.887 54.7839 268.179C53.6005 267.747 53.8508 267.747 54.4197 268.794C54.7156 269.317 55.148 269.932 55.5349 270.569C55.8953 271.201 56.0041 271.945 55.8396 272.654C55.6751 273.363 55.2493 273.983 54.6473 274.392C52.804 275.598 49.5042 275.416 48.7533 273.117C48.4619 272.146 48.2713 271.147 48.1843 270.136C47.7292 266.222 49.1857 275.416 42.882 275.257C40.2422 275.257 38.194 272.981 41.2435 269.454C41.6867 268.935 42.1658 268.448 42.6772 267.997C43.3371 267.428 43.3598 267.314 42.4951 267.565C41.3342 267.982 40.0772 268.053 38.8767 267.77C37.2837 267.178 36.419 263.218 37.443 261.147C38.9222 258.303 41.6303 259.327 43.3371 259.896C45.0439 260.465 45.6128 260.305 43.7468 259.213C43.1133 258.856 42.5118 258.445 41.9489 257.984C37.3975 254.116 46.0907 248.426 48.4347 255.026C49.0036 256.642 49.1857 258.235 49.3677 258.235L49.4587 258.303ZM47.6837 260.852C46.9099 261.466 48.0706 262.262 48.7533 261.921C49.436 261.58 48.7533 259.919 47.6837 260.852ZM51.3703 262.103C50.6421 260.783 49.9139 260.26 49.4587 262.103C49.1629 263.309 49.0719 264.993 50.6876 264.379C50.896 264.29 51.0822 264.156 51.2332 263.987C51.3842 263.818 51.4962 263.618 51.5613 263.401C51.6264 263.184 51.6431 262.955 51.6101 262.731C51.5771 262.507 51.4952 262.292 51.3703 262.103ZM46.9327 262.649C45.3397 263.378 45.7721 264.925 47.0465 264.925C49.8456 264.925 48.8216 261.785 46.9327 262.649ZM48.2526 265.266C46.159 266.313 48.2526 267.178 50.1187 266.404C51.9848 265.63 50.187 264.174 48.2526 265.13V265.266Z" fill="#5EAD41"/>
<path fill-rule="evenodd" clip-rule="evenodd" d="M54.9152 122.871C55.5972 122.582 56.1778 122.097 56.5831 121.477C56.9883 120.857 57.1999 120.13 57.1909 119.389C57.2083 119.338 57.2083 119.282 57.1909 119.23C56.7642 118.629 56.1691 118.168 55.4806 117.905C54.7921 117.641 54.041 117.588 53.3222 117.751C52.7099 117.949 52.1391 118.257 51.6382 118.661C51.863 118.057 51.9786 117.417 51.9795 116.772C51.9161 116.034 51.6329 115.332 51.1664 114.756C50.7 114.18 50.0716 113.757 49.3625 113.541H49.2032C48.494 113.757 47.8657 114.18 47.3992 114.756C46.9328 115.332 46.6496 116.034 46.5861 116.772C46.5938 117.417 46.7092 118.055 46.9275 118.661C46.4211 118.266 45.8518 117.958 45.2435 117.751C44.5246 117.588 43.7736 117.641 43.0851 117.905C42.3966 118.168 41.8014 118.629 41.3747 119.23C41.3556 119.282 41.3556 119.338 41.3747 119.389C41.3657 120.13 41.5773 120.857 41.9826 121.477C42.3878 122.097 42.9684 122.582 43.6504 122.871C44.26 123.067 44.8998 123.152 45.5393 123.122C45.0127 123.489 44.5447 123.934 44.1511 124.441C43.7751 125.077 43.596 125.81 43.6365 126.547C43.677 127.284 43.9353 127.993 44.3787 128.583C44.3787 128.583 44.3787 128.583 44.5152 128.583C44.9532 128.701 45.4044 128.762 45.8579 128.765C46.7 128.776 47.5177 128.482 48.1613 127.939C48.8049 127.396 49.2313 126.639 49.3625 125.807C49.4937 126.639 49.9201 127.396 50.5637 127.939C51.2072 128.482 52.0249 128.776 52.8671 128.765C53.313 128.761 53.7564 128.699 54.187 128.583C54.187 128.583 54.3007 128.583 54.3235 128.583C54.7669 127.993 55.0252 127.284 55.0657 126.547C55.1062 125.81 54.9271 125.077 54.5511 124.441C54.1575 123.934 53.6895 123.489 53.1629 123.122C53.8024 123.152 54.4422 123.067 55.0517 122.871H54.9152ZM49.2259 114.087C49.8032 114.281 50.3121 114.638 50.6915 115.114C51.071 115.591 51.3049 116.166 51.3651 116.772C51.2436 118.391 50.5963 119.925 49.5218 121.142C49.5218 121.142 49.5218 121.392 49.5218 118.115C49.525 118.08 49.5208 118.045 49.5096 118.012C49.4985 117.979 49.4806 117.949 49.457 117.923C49.4334 117.898 49.4048 117.877 49.3728 117.863C49.3409 117.849 49.3063 117.842 49.2714 117.842C49.199 117.842 49.1296 117.871 49.0784 117.922C49.0272 117.973 48.9984 118.043 48.9984 118.115V120.914C48.6595 120.439 48.2948 119.984 47.906 119.549C47.4061 118.707 47.1318 117.751 47.1096 116.772C47.1716 116.164 47.4088 115.586 47.7925 115.109C48.1762 114.633 48.69 114.278 49.2714 114.087H49.2259ZM43.6732 122.371C43.119 122.115 42.6479 121.708 42.3139 121.197C41.9799 120.686 41.7964 120.091 41.7844 119.481C42.1439 118.988 42.6381 118.61 43.2074 118.392C43.7766 118.174 44.3967 118.126 44.9931 118.252C46.5033 118.865 47.7678 119.961 48.5888 121.369C48.5888 121.369 48.7935 121.369 45.6986 120.459C45.6323 120.444 45.5631 120.455 45.5042 120.489C45.4453 120.522 45.401 120.577 45.38 120.641C45.3576 120.708 45.3617 120.78 45.3914 120.844C45.421 120.907 45.474 120.957 45.5393 120.982L48.2019 121.847C47.6389 122.004 47.0907 122.21 46.5633 122.462C45.6134 122.689 44.6232 122.689 43.6732 122.462V122.371ZM47.9516 127.309C47.8421 127.653 47.6523 127.966 47.398 128.222C47.1437 128.478 46.8321 128.67 46.4889 128.782C46.1457 128.894 45.7808 128.923 45.4244 128.866C45.0679 128.809 44.7301 128.668 44.4388 128.455C44.1476 128.242 43.9112 127.962 43.7493 127.64C43.5873 127.317 43.5044 126.96 43.5075 126.599C43.5105 126.239 43.5993 125.884 43.7666 125.564C43.934 125.244 44.175 124.968 44.4697 124.76C45.5243 123.524 46.9554 122.669 48.5432 122.325C48.5432 122.325 48.6797 122.166 46.7681 124.783C46.7275 124.835 46.7055 124.899 46.7055 124.965C46.7055 125.031 46.7275 125.095 46.7681 125.147C46.7915 125.172 46.8198 125.191 46.8511 125.205C46.8824 125.218 46.9162 125.225 46.9502 125.225C46.9843 125.225 47.018 125.218 47.0493 125.205C47.0807 125.191 47.1089 125.172 47.1323 125.147L48.7708 122.871C48.7136 123.454 48.7136 124.041 48.7708 124.624C48.6578 125.6 48.3146 126.536 47.7695 127.354L47.9516 127.309ZM49.2259 122.166C49.1535 122.166 49.084 122.137 49.0328 122.086C48.9816 122.035 48.9529 121.965 48.9529 121.893C48.9529 121.82 48.9816 121.751 49.0328 121.7C49.084 121.648 49.1535 121.62 49.2259 121.62C49.2608 121.62 49.2953 121.627 49.3273 121.641C49.3592 121.655 49.3879 121.675 49.4115 121.701C49.4351 121.727 49.453 121.757 49.4642 121.79C49.4753 121.823 49.4794 121.858 49.4762 121.893C49.4765 121.961 49.4509 122.028 49.4045 122.078C49.3581 122.129 49.2944 122.16 49.2259 122.166ZM53.9822 124.76C54.2716 124.972 54.5069 125.249 54.6689 125.568C54.831 125.888 54.9153 126.242 54.9149 126.6C54.9144 126.958 54.8293 127.312 54.6664 127.631C54.5036 127.95 54.2676 128.227 53.9776 128.438C53.6877 128.648 53.3521 128.788 52.9981 128.844C52.6441 128.901 52.2818 128.873 51.9406 128.763C51.5995 128.653 51.2891 128.464 51.0349 128.211C50.7806 127.959 50.5897 127.649 50.4776 127.309C49.6517 125.942 49.2774 124.349 49.408 122.758C49.408 122.758 49.408 122.553 51.2058 125.192C51.2294 125.235 51.2641 125.271 51.3061 125.295C51.3481 125.32 51.396 125.333 51.4448 125.333C51.4936 125.333 51.5414 125.32 51.5835 125.295C51.6255 125.271 51.6601 125.235 51.6837 125.192C51.7121 125.148 51.7272 125.097 51.7272 125.045C51.7272 124.992 51.7121 124.941 51.6837 124.897L50.0452 122.621C50.6005 122.825 51.1713 122.985 51.7519 123.099C52.635 123.511 53.4131 124.118 54.0276 124.874L53.9822 124.76ZM50.0225 121.938C50.9482 121.536 51.9077 121.216 52.8898 120.982C52.9551 120.957 53.0081 120.907 53.0377 120.844C53.0674 120.78 53.0715 120.708 53.0491 120.641C53.0281 120.577 52.9838 120.522 52.9249 120.489C52.866 120.455 52.7968 120.444 52.7305 120.459L50.0452 121.324C50.4179 120.863 50.7457 120.368 51.0238 119.845C51.6793 119.117 52.5095 118.569 53.436 118.252C54.0302 118.129 54.647 118.177 55.2149 118.39C55.7829 118.604 56.2787 118.974 56.6448 119.458C56.6438 120.071 56.4647 120.67 56.1294 121.183C55.7941 121.696 55.3169 122.101 54.7559 122.348C53.1769 122.748 51.5092 122.604 50.0225 121.938Z" fill="#5EAD41"/>
<path fill-rule="evenodd" clip-rule="evenodd" d="M275.589 261.527C278.297 258.728 281.574 254.7 284.328 251.651L289.221 246.03L287.355 247.099C286.194 247.759 284.578 248.738 282.803 249.898C279.021 252.333 275.492 255.138 272.267 258.273C271.187 259.362 270.177 260.518 269.24 261.732C268.967 258.842 268.739 255.929 268.58 253.039C268.91 253.079 269.244 253.016 269.536 252.857C271.478 251.601 273.227 250.068 274.725 248.306C277.433 245.506 280.71 241.479 283.463 238.406L288.356 232.808C288.356 232.808 287.628 233.195 286.467 233.878C285.307 234.56 283.714 235.516 281.916 236.677C278.13 239.105 274.6 241.911 271.379 245.051C270.299 246.147 269.281 247.302 268.33 248.51C268.171 244.71 268.08 240.91 268.102 237.132C269.013 237.291 270.788 236.631 275.043 233.787C280.752 229.614 286.166 225.051 291.246 220.133C284.783 222.936 278.518 226.175 272.494 229.827C270.972 230.801 269.519 231.881 268.148 233.059V232.239C268.229 232.065 268.271 231.874 268.271 231.682C268.271 231.489 268.229 231.299 268.148 231.124C268.148 229.918 268.148 228.712 268.262 227.506C268.375 226.3 268.262 225.23 268.444 224.115C268.638 224.306 268.888 224.431 269.158 224.472C269.428 224.513 269.703 224.468 269.946 224.343C271.823 223.356 273.522 222.064 274.975 220.52C277.615 218.107 280.846 214.648 283.532 211.872L288.311 206.957L286.513 207.776C285.398 208.299 283.827 209.096 282.121 210.052C278.453 212.023 275.012 214.388 271.857 217.106C270.715 218.117 269.65 219.213 268.671 220.383C268.876 217.516 269.126 214.671 269.422 211.827C270.287 212.009 271.88 211.326 275.794 208.14C280.726 203.752 285.335 199.014 289.585 193.963C283.76 197.079 278.169 200.615 272.859 204.544C271.63 205.569 270.583 206.388 269.968 207.093V206.706C270.124 206.542 270.235 206.341 270.291 206.122C270.347 205.903 270.346 205.673 270.287 205.455C270.26 205.315 270.222 205.179 270.173 205.045C270.424 203.225 270.674 201.404 270.947 199.606C271.766 199.857 273.223 199.265 276.613 196.033C280.767 191.795 284.572 187.229 287.992 182.379C282.906 185.44 278.074 188.902 273.541 192.734C272.927 193.325 272.381 193.826 271.925 194.304C272.403 191.778 272.881 189.252 273.427 186.749C274.247 187.227 275.544 186.749 279.572 182.721C283.79 177.963 287.646 172.897 291.11 167.565C285.862 171.15 280.894 175.129 276.249 179.467C275.612 180.104 275.089 180.695 274.634 181.196C274.952 179.785 275.271 178.352 275.612 176.941C276.477 176.941 277.524 175.621 279.458 170.5C281.484 164.196 283.058 157.754 284.169 151.226C280.706 156.873 277.663 162.768 275.066 168.862C274.747 169.704 274.497 170.432 274.269 171.138C272.378 166.09 270.095 161.198 267.442 156.505C267.796 162.097 268.633 167.648 269.946 173.095C271.539 178.488 272.517 178.898 273.564 178.647C272.813 181.515 272.13 184.382 271.516 187.295C271.197 186.589 270.788 185.793 270.264 184.86C268.345 181.716 266.01 178.846 263.323 176.326C262.072 175.12 260.911 174.051 260.069 173.413C259.227 172.776 258.704 172.321 258.704 172.321C258.704 172.321 259.022 172.913 259.5 173.868L261.457 177.692C262.982 180.718 264.712 184.519 266.236 187.158C267.018 188.853 268.097 190.395 269.422 191.71C269.586 191.841 269.779 191.932 269.984 191.976C270.19 192.019 270.403 192.014 270.606 191.96C270.31 193.621 270.014 195.283 269.741 196.944C269.598 197.155 269.503 197.395 269.464 197.647C269.425 197.898 269.442 198.156 269.513 198.4C269.286 199.857 269.081 201.313 268.876 202.769C268.489 202.155 268.034 201.45 267.465 200.608C265.645 197.922 262.914 194.532 260.934 191.664C259.91 190.231 259 188.956 258.362 188.023L257.316 186.521C257.316 186.521 257.452 187.204 257.702 188.319C257.953 189.434 258.34 190.981 258.863 192.711C259.967 196.4 261.567 199.921 263.619 203.179C264.582 204.987 265.954 206.545 267.624 207.73C267.826 207.824 268.041 207.886 268.262 207.912L268.057 209.574C267.881 209.918 267.84 210.316 267.943 210.689C267.761 212.578 267.579 214.444 267.42 216.332L267.192 216.059C266.578 215.331 265.69 214.444 264.529 213.26C263.369 212.077 262.003 210.712 260.661 209.278C259.318 207.844 257.93 206.342 256.769 204.931C255.609 203.52 254.63 202.223 253.947 201.245L252.855 199.697C252.855 199.697 252.992 200.403 253.287 201.563C253.687 203.109 254.181 204.629 254.767 206.115C255.536 208.032 256.465 209.882 257.543 211.645C258.582 213.377 259.803 214.995 261.184 216.469C262.162 217.494 263.228 218.431 264.37 219.268C264.962 219.71 265.623 220.048 266.327 220.269C266.588 220.337 266.863 220.337 267.124 220.269C266.942 222.773 266.805 225.276 266.691 227.756V229.326C266.122 228.667 265.394 227.893 264.416 226.937C262.14 224.661 258.726 221.976 255.996 219.723L251.148 215.741L251.99 217.357C252.537 218.358 253.31 219.632 254.266 221.248C256.201 224.523 258.491 227.576 261.093 230.351C262.398 231.854 264.013 233.057 265.827 233.878C266.045 233.92 266.269 233.92 266.487 233.878C266.487 237.473 266.373 241.092 266.487 244.71C265.69 243.845 264.552 242.73 262.936 241.274C259.978 238.566 255.836 235.289 252.514 232.535L246.597 227.62C246.597 227.62 247.029 228.348 247.758 229.509C248.486 230.669 249.533 232.308 250.807 234.06C253.47 237.89 256.52 241.436 259.91 244.642C261.584 246.414 263.576 247.857 265.781 248.897C266.073 248.969 266.377 248.969 266.669 248.897C266.669 252.083 266.919 255.269 267.147 258.432C265.781 257.199 264.353 256.037 262.868 254.95C259.637 252.538 255.199 249.671 251.626 247.236L245.3 242.912C245.3 242.912 245.778 243.595 246.62 244.71C247.462 245.825 248.668 247.304 250.079 248.965C253.068 252.531 256.416 255.779 260.069 258.66C261.911 260.258 264.033 261.5 266.327 262.324C266.504 262.398 266.693 262.436 266.885 262.436C267.076 262.436 267.266 262.398 267.442 262.324C268.153 270.653 269.339 278.934 270.992 287.128C271.174 288.107 272.631 287.743 272.472 286.764C271.334 279.937 270.378 273.11 269.65 266.283C269.91 266.259 270.164 266.189 270.401 266.078C272.348 264.829 274.097 263.295 275.589 261.527Z" fill="#5EAD41"/>
<path fill-rule="evenodd" clip-rule="evenodd" d="M164.604 170.397C165.002 171.562 165.428 172.641 166.195 173.095C167.956 174.174 169.745 173.237 170.71 171.59C170.824 171.42 170.852 171.448 170.654 171.391C169.716 171.107 168.921 170.624 168.495 170.142C167.842 169.403 166.763 168.069 167.189 166.393C167.728 164.235 170.284 163.411 171.505 164.632C173.039 166.166 173.153 167.898 173.096 169.659C173.096 169.716 173.039 170.227 173.067 170.227C173.067 170.227 173.238 170.227 173.266 170.227C173.806 170.227 174.317 170.113 174.715 169.829C175.368 169.375 175.993 168.551 176.22 167.785C176.447 167.046 176.419 166.507 176.589 166.478C176.731 166.45 177.072 166.847 176.987 167.756C176.873 169.176 176.106 171.363 173.891 171.562C173.55 171.59 173.181 171.618 172.84 171.647C172.755 171.647 172.698 171.647 172.67 171.76C171.647 174.714 168.808 177.071 165.74 175.935C165.911 178.179 165.882 180.507 165.655 182.836C165.002 190.078 163.752 192.946 160.146 199.166C156.738 205.073 152.563 211.86 153.216 214.587C154.239 218.818 151.768 220.153 153.557 225.322C153.727 225.805 154.494 227.281 154.267 228.758C153.983 230.632 150.376 232.507 149.411 231.967C148.956 231.74 148.729 228.389 146.912 225.663C145.832 224.015 141.885 220.125 139.215 216.632C138.505 215.694 137.852 216.092 137.597 217.086C136.347 221.772 131.32 222.908 130.184 229.638C130.042 230.49 127.941 231.342 126.066 231.371C124.107 231.428 124.362 230.15 124.732 228.559C125.072 227.111 125.442 225.35 125.64 224.044C126.265 220.437 125.981 216.149 124.107 216.177C118.91 216.291 113.145 215.893 107.891 215.439C106.982 215.354 106.954 215.95 107.351 216.66C107.919 217.682 108.601 218.478 108.998 219.642C109.765 221.8 108.998 227.509 107.919 229.44C107.124 230.831 105.022 231.484 103.517 231.399C102.665 231.342 102.807 230.689 102.608 228.929C101.87 221.942 99.5129 219.188 96.2754 215.212C94.7134 213.28 94.3158 213.195 92.0722 214.189C88.3803 215.808 84.092 216.603 82.2176 220.806C81.5644 222.283 81.4224 223.93 81.0532 226.202C80.9112 226.997 80.3716 227.707 77.5317 229.667C76.4241 230.434 75.7709 229.014 75.4869 226.486C74.7486 219.784 77.6169 210.071 81.2236 207.288C78.4121 204.903 74.8622 200.217 72.1358 197.86C64.2692 191.015 59.5548 196.383 51.319 183.035C50.0978 181.047 45.4119 175.452 43.1684 174.913C38.9936 173.89 41.8904 166.961 43.2536 165.229C44.6735 163.411 45.4119 164.377 47.0023 165.001C50.9498 166.535 59.4412 164.661 62.3096 164.064C55.6357 158.81 56.6865 155.63 56.2889 150.262C56.1753 148.558 55.7777 146.599 56.3173 146.315C57.0273 145.974 58.8733 147.735 60.6057 148.842C64.9508 151.597 71.7382 155.232 79.9457 157.305C90.7375 155.459 95.8493 158.555 105.022 157.987C124.93 156.737 147.082 146.968 160.032 162.218C162.389 164.973 163.525 167.046 164.633 170.397H164.604ZM171.25 169.716C171.25 169.716 171.335 169.773 171.363 169.687C171.534 168.551 171.363 167.387 170.909 166.705C170.171 165.655 168.41 165.74 169.319 167.841C169.66 168.608 170.398 169.29 171.25 169.716Z" fill="#F5AFB4"/>
<path fill-rule="evenodd" clip-rule="evenodd" d="M70.1476 158.668C69.0116 155.828 68.9832 152.988 70.1192 148.614C72.4763 139.527 72.9308 145.86 76.4807 150.631C77.5031 151.994 78.6958 153.442 80.0022 154.891C82.7853 157.929 85.1709 158.583 86.5625 159.974C90.1976 163.552 90.1124 165.682 84.1769 167.472C82.8705 167.869 81.4222 168.125 80.0306 168.125C75.0039 168.125 71.8515 162.899 70.1476 158.639V158.668Z" fill="#E7868C"/>
<mask id="mask0_182_5240" style="mask-type:alpha" maskUnits="userSpaceOnUse" x="69" y="144" width="21" height="25">
<path fill-rule="evenodd" clip-rule="evenodd" d="M70.1476 158.668C69.0116 155.828 68.9832 152.988 70.1192 148.614C72.4763 139.527 72.9308 145.86 76.4807 150.631C77.5031 151.994 78.6958 153.442 80.0022 154.891C82.7853 157.929 85.1709 158.583 86.5625 159.974C90.1976 163.552 90.1124 165.682 84.1769 167.472C82.8705 167.869 81.4222 168.125 80.0306 168.125C75.0039 168.125 71.8515 162.899 70.1476 158.639V158.668Z" fill="#E7868C"/>
</mask>
<g mask="url(#mask0_182_5240)">
<path fill-rule="evenodd" clip-rule="evenodd" d="M76.9069 172.102C76.8501 170.767 76.708 169.432 76.5092 168.04C76.4808 168.069 76.4241 168.126 76.3673 168.126C75.6573 168.324 74.8905 168.211 74.2941 167.728C73.9533 167.444 73.3001 166.734 73.4989 166.251C73.7261 165.683 74.7485 165.996 75.1744 166.081C75.6004 166.166 75.9696 166.337 76.2536 166.592C76.0264 165.286 75.7424 163.979 75.4585 162.673C75.4585 162.701 75.4017 162.73 75.3733 162.758C74.8053 163.099 74.1237 163.184 73.4705 162.985C73.0162 162.843 72.0789 162.304 72.1073 161.707C72.1641 161.083 73.2149 161.111 73.6409 161.083C74.2089 161.083 74.7201 161.168 75.1744 161.452C74.8904 160.117 74.6065 158.782 74.3509 157.419C74.3509 157.419 74.2941 157.419 74.2657 157.448C73.4989 157.618 72.8173 157.277 72.2493 156.794C71.9085 156.51 71.3122 156.028 71.7666 155.573C72.1642 155.176 72.9878 155.232 73.4705 155.374C73.6693 155.431 73.8397 155.516 74.0101 155.602C73.7829 154.267 73.6125 152.904 73.4989 151.569C72.2493 151.2 71.4542 150.064 71.4258 148.786C71.4258 148.7 71.5109 148.615 71.5677 148.587C72.3629 148.274 72.9878 148.729 73.3853 149.41C73.3853 148.161 73.4421 146.94 73.6409 145.747H73.5841C72.4197 145.179 71.9086 144.1 71.8802 142.85C71.8802 142.765 71.9654 142.651 72.0506 142.623C72.647 142.424 73.1865 142.68 73.5841 143.134C73.7545 143.333 73.9249 143.56 74.0669 143.816C74.3793 142.651 74.8053 141.487 75.4017 140.379C74.5781 139.471 74.5497 138.278 74.9757 137.17C75.0325 137.057 75.1461 136.972 75.2597 137C75.8845 137.028 76.2821 137.539 76.4525 138.107C76.4809 138.221 76.5377 138.363 76.5661 138.505C76.7081 138.306 76.8501 138.136 76.992 137.937C76.7649 137.113 76.708 136.233 76.8784 135.381C76.992 134.87 77.4181 133.961 78.0712 134.472C78.5256 134.813 78.6108 135.58 78.5824 136.091C78.554 136.943 78.0996 137.653 77.4464 138.164C77.1909 138.477 76.9637 138.818 76.7365 139.158C77.1057 139.016 77.5033 138.931 77.9009 138.931C78.27 138.931 79.1504 138.874 79.2356 139.357C79.3208 139.982 78.412 140.635 77.9292 140.805C77.2476 141.061 76.5093 140.947 75.8561 140.635C75.3165 141.657 74.9189 142.708 74.6065 143.787C74.9189 143.56 75.2597 143.39 75.6288 143.248C75.998 143.134 76.6229 142.907 76.7365 143.447C76.8501 144.043 76.424 144.753 75.998 145.151C75.4869 145.605 74.8337 145.775 74.1805 145.775C74.0101 146.883 73.9249 147.99 73.9249 149.126C74.2657 148.473 74.8053 147.877 75.4869 147.706C75.5721 147.706 75.6572 147.735 75.714 147.792C76.1684 148.274 76.1401 149.155 75.9129 149.751C75.6005 150.546 74.9473 151.058 74.1521 151.342C74.0953 151.342 74.0385 151.342 73.9817 151.342C74.0669 152.762 74.2657 154.21 74.5213 155.658C74.6633 154.92 75.2029 154.267 75.9697 153.954C76.0833 153.898 76.2537 153.954 76.3105 154.096C76.5093 154.693 76.6513 155.289 76.3105 155.857C75.9697 156.425 75.3733 156.709 74.7769 156.965C75.0041 158.214 75.2881 159.464 75.5436 160.713C75.7708 160.06 76.2821 159.549 76.9069 159.237C77.0205 159.18 77.134 159.237 77.2192 159.322C77.5316 159.719 77.4749 160.429 77.3613 160.884C77.1909 161.594 76.5661 161.963 75.9697 162.275C75.9697 162.275 75.9128 162.275 75.8844 162.275C76.1968 163.752 76.5093 165.201 76.7649 166.649C77.1057 165.854 77.844 165.286 78.7244 165.115C78.838 165.115 78.9516 165.172 79.0084 165.257C79.2072 165.769 78.9516 166.507 78.6676 166.933C78.2984 167.501 77.6453 167.671 77.0205 167.785H76.9636C77.1908 169.205 77.3613 170.625 77.3897 171.988C77.3897 172.3 76.9068 172.386 76.8784 172.073L76.9069 172.102Z" fill="#D1636E"/>
<path fill-rule="evenodd" clip-rule="evenodd" d="M80.911 162.701C81.2802 162.701 81.5642 162.417 81.5642 162.048C81.5642 161.679 81.2802 161.395 80.911 161.395C80.5418 161.395 80.2578 161.679 80.2578 162.048C80.2578 162.417 80.5418 162.701 80.911 162.701Z" fill="#D1636E"/>
<path fill-rule="evenodd" clip-rule="evenodd" d="M78.9511 157.675C79.3203 157.675 79.6043 157.39 79.6043 157.021C79.6043 156.652 79.3203 156.368 78.9511 156.368C78.5819 156.368 78.2979 156.652 78.2979 157.021C78.2979 157.39 78.5819 157.675 78.9511 157.675Z" fill="#D1636E"/>
<path fill-rule="evenodd" clip-rule="evenodd" d="M83.2118 162.049C83.581 162.049 83.865 161.765 83.865 161.395C83.865 161.026 83.581 160.742 83.2118 160.742C82.8426 160.742 82.5586 161.026 82.5586 161.395C82.5586 161.765 82.8426 162.049 83.2118 162.049Z" fill="#D1636E"/>
<path fill-rule="evenodd" clip-rule="evenodd" d="M71.4539 153.3C71.8231 153.3 72.1071 153.017 72.1071 152.647C72.1071 152.278 71.8231 151.994 71.4539 151.994C71.0847 151.994 70.8008 152.278 70.8008 152.647C70.8008 153.017 71.0847 153.3 71.4539 153.3Z" fill="#D1636E"/>
<path fill-rule="evenodd" clip-rule="evenodd" d="M83.0692 163.582C83.4384 163.582 83.7224 163.298 83.7224 162.929C83.7224 162.559 83.4384 162.275 83.0692 162.275C82.7 162.275 82.416 162.559 82.416 162.929C82.416 163.298 82.7 163.582 83.0692 163.582Z" fill="#D1636E"/>
</g>
<path fill-rule="evenodd" clip-rule="evenodd" d="M66.3987 172.413C65.1208 172.47 64.1836 172.101 64.7516 170.965C65.4616 169.545 66.5692 169.829 67.5064 170.596C69.1251 171.902 68.1311 172.328 66.3987 172.413Z" fill="#845B00"/>
<path fill-rule="evenodd" clip-rule="evenodd" d="M125.242 203.312C123.737 206.862 120.755 206.492 119.279 204.959C117.859 203.511 117.83 200.983 121.749 199.847C124.532 199.052 126.549 200.216 125.242 203.312ZM118.455 176.929C117.915 179.74 112.179 180.763 109.736 183.83C107.947 186.073 108.146 188.942 112.093 193.912C115.587 198.313 123.254 196.411 126.918 194.565C130.326 192.861 129.758 202.403 140.379 200.642C145.576 199.79 143.787 194.735 144.156 190.873C144.611 186.073 154.238 184.284 150.916 177.752C147.394 170.851 141.004 175.509 136.545 171.533C134.756 169.942 133.052 168.636 131.405 167.67C127.088 165.086 123.368 164.717 120.784 166.875C116.751 170.198 118.994 174.174 118.483 176.9L118.455 176.929ZM147.422 167.614C147.508 171.845 138.278 172.186 137.028 167.898C135.551 162.843 147.28 160.826 147.422 167.614Z" fill="#E7868C"/>
<mask id="mask1_182_5240" style="mask-type:alpha" maskUnits="userSpaceOnUse" x="108" y="163" width="44" height="44">
<path fill-rule="evenodd" clip-rule="evenodd" d="M125.242 203.312C123.737 206.862 120.755 206.492 119.279 204.959C117.859 203.511 117.83 200.983 121.749 199.847C124.532 199.052 126.549 200.216 125.242 203.312ZM118.455 176.929C117.915 179.74 112.179 180.763 109.736 183.83C107.947 186.073 108.146 188.942 112.093 193.912C115.587 198.313 123.254 196.411 126.918 194.565C130.326 192.861 129.758 202.403 140.379 200.642C145.576 199.79 143.787 194.735 144.156 190.873C144.611 186.073 154.238 184.284 150.916 177.752C147.394 170.851 141.004 175.509 136.545 171.533C134.756 169.942 133.052 168.636 131.405 167.67C127.088 165.086 123.368 164.717 120.784 166.875C116.751 170.198 118.994 174.174 118.483 176.9L118.455 176.929ZM147.422 167.614C147.508 171.845 138.278 172.186 137.028 167.898C135.551 162.843 147.28 160.826 147.422 167.614Z" fill="#E7868C"/>
</mask>
<g mask="url(#mask1_182_5240)">
<path fill-rule="evenodd" clip-rule="evenodd" d="M141.715 187.295C141.715 187.295 141.715 187.124 141.601 187.096C141.516 187.096 141.459 187.096 141.431 187.181C141.402 187.209 141.26 187.323 141.175 187.351C141.118 187.38 141.062 187.436 141.033 187.465C140.891 187.578 140.721 187.721 140.579 187.891C140.295 188.175 140.039 188.487 139.84 188.828C139.84 188.856 139.784 188.885 139.784 188.942C139.642 189.141 139.471 189.424 139.528 189.68C139.585 189.907 139.727 189.964 139.812 189.992C140.039 190.049 140.295 189.936 140.465 189.765C140.806 189.453 141.204 189.084 141.431 188.573C141.431 188.544 141.459 188.487 141.488 188.459C141.573 188.232 141.601 187.976 141.658 187.749C141.658 187.579 141.715 187.437 141.743 187.295H141.715ZM141.062 184.653C141.033 184.966 140.976 185.307 140.834 185.619C140.749 185.789 140.636 185.96 140.494 186.13C140.38 185.761 140.55 185.193 140.607 184.994C140.721 184.71 140.834 184.54 140.976 184.511C141.005 184.511 141.033 184.511 141.033 184.511C141.033 184.511 141.033 184.511 141.033 184.653H141.062ZM141.772 186.102C141.772 186.102 141.544 186.045 141.431 186.073C141.175 186.13 140.92 186.215 140.692 186.386C140.692 186.386 140.834 186.471 140.948 186.499C141.26 186.556 141.601 186.386 141.8 186.13L141.772 186.102ZM141.459 190.333C141.601 190.078 141.8 189.85 141.999 189.68C142.198 189.481 142.425 189.283 142.68 189.197C142.908 189.141 143.191 189.169 143.333 189.368C143.333 189.368 143.362 189.424 143.39 189.453C143.277 189.708 143.078 189.907 142.879 190.049C142.453 190.362 141.999 190.56 141.516 190.759L141.289 190.844C141.289 190.646 141.402 190.447 141.459 190.333ZM143.333 189.936C143.248 190.106 143.106 190.276 142.879 190.418C142.51 190.674 142.056 190.844 141.573 190.873C141.544 190.873 141.488 190.873 141.459 190.873C141.459 190.873 141.459 190.873 141.431 190.873L141.516 190.816C141.97 190.617 142.453 190.39 142.879 190.106C143.05 189.964 143.248 189.794 143.39 189.567C143.39 189.68 143.39 189.822 143.333 189.936ZM142.709 191.611C142.908 191.696 143.135 191.867 143.277 192.122C143.333 192.264 143.362 192.435 143.305 192.548C143.277 192.435 143.192 192.321 143.05 192.208C142.624 191.838 142.112 191.611 141.601 191.384C141.488 191.327 141.346 191.27 141.232 191.214C141.346 191.214 141.544 191.27 141.658 191.327C141.743 191.327 141.828 191.384 141.857 191.384C142.141 191.441 142.396 191.498 142.652 191.611H142.709ZM142.396 192.52C142.652 192.662 142.879 192.69 143.05 192.69C143.135 192.69 143.192 192.662 143.22 192.634C143.192 192.492 143.078 192.378 142.993 192.264C142.595 191.895 142.084 191.668 141.573 191.441C141.431 191.384 141.317 191.327 141.175 191.27C141.175 191.356 141.26 191.469 141.289 191.526C141.544 192.066 142.027 192.35 142.368 192.52H142.396ZM132.513 196.013C132.343 196.013 132.144 195.956 132.087 195.814C132.087 195.786 132.087 195.758 132.087 195.729C132.769 195.53 133.536 195.303 134.274 195.36C134.303 195.36 134.331 195.36 134.359 195.388C133.877 195.843 133.195 196.07 132.542 196.013H132.513ZM132.144 195.502C132.144 195.502 132.087 195.559 132.087 195.616C132.087 195.616 132.087 195.616 132.087 195.644C132.655 195.474 133.308 195.275 133.962 195.275C133.479 195.161 132.968 195.104 132.513 195.275C132.343 195.332 132.229 195.417 132.144 195.502ZM133.621 194.338C133.479 194.139 133.308 193.883 133.394 193.628C133.678 194.11 133.99 194.565 134.359 194.991C134.075 194.82 133.82 194.593 133.621 194.338ZM133.706 193.4C133.905 193.4 134.104 193.542 134.246 193.741C134.388 193.94 134.473 194.196 134.53 194.451C134.587 194.678 134.643 194.934 134.586 195.133C134.586 195.133 134.558 195.133 134.53 195.133C134.104 194.65 133.734 194.11 133.394 193.542C133.394 193.542 133.422 193.486 133.451 193.486C133.507 193.429 133.592 193.4 133.678 193.429L133.706 193.4ZM133.962 190.816C133.621 190.816 133.309 190.816 133.081 190.702C132.797 190.617 132.542 190.447 132.4 190.22C132.968 190.504 133.593 190.646 134.246 190.617C134.416 190.617 134.558 190.589 134.672 190.532C134.615 190.589 134.558 190.646 134.473 190.702C134.331 190.788 134.132 190.788 133.962 190.788V190.816ZM133.735 190.049C133.365 189.992 132.968 190.049 132.485 190.134C132.457 190.134 132.428 190.134 132.4 190.134C132.968 190.418 133.592 190.56 134.217 190.532C134.444 190.532 134.586 190.475 134.7 190.418C134.445 190.22 134.104 190.078 133.735 190.049ZM134.104 188.743V188.658C134.302 188.658 134.473 188.828 134.586 188.97C134.7 189.14 134.984 189.765 134.927 189.879C134.927 189.879 134.927 189.879 134.842 189.879C134.53 189.794 134.246 189.169 134.132 188.771L134.104 188.743ZM140.295 184.909C140.38 184.653 140.55 184.313 140.863 184.227C141.005 184.199 141.118 184.227 141.232 184.284C141.374 184.426 141.346 184.625 141.346 184.71C141.317 185.023 141.26 185.42 141.09 185.761C141.09 185.789 141.062 185.818 141.033 185.846C141.118 185.818 141.232 185.789 141.317 185.761C141.686 185.704 141.885 185.789 141.97 185.903C142.027 185.96 142.056 186.017 142.056 186.102C142.056 186.13 142.056 186.159 142.056 186.187C142.056 186.215 142.056 186.244 142.027 186.272C141.8 186.641 141.317 186.869 140.863 186.812C140.692 186.812 140.55 186.727 140.437 186.613C140.323 186.727 140.21 186.812 140.096 186.897C139.982 187.011 139.84 187.096 139.727 187.209C139.784 188.26 139.528 189.254 139.272 189.992C139.216 190.134 139.159 190.276 139.102 190.418C138.932 190.844 138.733 191.242 138.534 191.64C139.272 191.214 140.096 190.93 140.92 190.844C140.92 190.844 140.92 190.844 140.948 190.844C140.948 190.617 141.033 190.418 141.175 190.191C141.346 189.907 141.573 189.652 141.772 189.453C141.999 189.226 142.254 188.998 142.567 188.913C142.908 188.8 143.248 188.885 143.476 189.084C143.476 189.084 143.504 189.084 143.504 189.112C143.504 189.112 143.532 189.169 143.561 189.169C143.731 189.396 143.759 189.737 143.617 190.049C143.504 190.276 143.334 190.475 143.05 190.674C142.766 190.873 142.425 191.015 142.112 191.1C142.368 191.157 142.624 191.214 142.851 191.327C143.078 191.441 143.39 191.64 143.561 191.952C143.674 192.151 143.703 192.378 143.617 192.577C143.589 192.662 143.532 192.747 143.447 192.832C143.362 192.889 143.248 192.946 143.106 192.974C142.794 193.003 142.481 192.889 142.283 192.776C141.885 192.577 141.374 192.236 141.062 191.668C140.976 191.498 140.891 191.299 140.92 191.128C139.982 191.214 139.017 191.583 138.278 192.151C137.796 193.088 137.284 194.196 136.915 195.871C136.944 195.786 137 195.729 137.029 195.644C137.199 195.332 137.37 195.076 137.568 194.849C137.938 194.451 138.42 194.196 138.903 193.94C139.187 193.798 139.5 193.628 139.784 193.429C139.84 193.4 139.926 193.4 139.982 193.429C140.039 193.486 140.039 193.542 140.039 193.599C139.897 193.94 139.784 194.338 139.67 194.707C139.585 194.962 139.528 195.218 139.414 195.474C139.272 195.9 139.074 196.326 138.79 196.695C138.591 196.922 138.364 197.149 138.108 197.32C137.994 197.405 137.824 197.518 137.654 197.547C137.512 197.575 137.029 197.689 136.745 197.547C136.716 197.888 136.688 198.257 136.688 198.626C136.688 198.74 136.716 198.881 136.688 198.995C136.688 198.995 136.688 199.024 136.688 199.052C136.688 200.387 136.887 201.807 137.682 202.971C137.682 202.999 137.71 203.056 137.682 203.113C137.682 203.141 137.654 203.17 137.625 203.198C137.54 203.255 137.455 203.198 137.398 203.141C136.66 202.005 136.404 200.699 136.376 199.421C136.177 199.563 135.864 199.62 135.495 199.62C134.814 199.62 134.189 199.478 133.649 199.165C133.053 198.825 132.599 198.285 132.144 197.802C132.116 197.774 132.087 197.717 132.116 197.66C132.116 197.603 132.173 197.575 132.201 197.547C132.968 197.263 134.075 196.922 135.154 197.263C135.495 197.376 135.836 197.575 136.12 197.802C136.205 197.888 136.319 197.973 136.376 198.086C136.376 197.859 136.404 197.632 136.432 197.405C136.461 197.064 136.518 196.695 136.546 196.354H136.518C135.95 196.013 135.325 195.729 134.672 195.502C134.132 196.042 133.308 196.354 132.542 196.269C132.201 196.269 131.974 196.127 131.86 195.928C131.747 195.729 131.775 195.474 131.945 195.275C132.059 195.133 132.229 195.019 132.457 194.934C132.883 194.792 133.337 194.792 133.763 194.877C133.649 194.764 133.536 194.65 133.422 194.508C133.166 194.167 133.053 193.826 133.138 193.514C133.166 193.372 133.223 193.287 133.308 193.202C133.422 193.088 133.592 193.06 133.763 193.06C134.047 193.06 134.359 193.258 134.558 193.542C134.728 193.798 134.814 194.054 134.899 194.338C134.984 194.622 135.041 194.962 134.899 195.246C135.495 195.445 136.035 195.701 136.574 196.013C136.66 195.19 136.745 194.338 136.773 193.514C136.773 193.514 136.745 193.514 136.716 193.542C136.603 193.628 136.404 193.628 136.148 193.599C136.12 193.599 136.063 193.599 136.035 193.599C135.779 193.599 135.524 193.571 135.325 193.429C135.154 193.315 135.041 193.145 134.927 192.974C134.927 192.946 134.899 192.889 134.927 192.832C134.927 192.776 134.984 192.747 135.012 192.747L135.353 192.605C135.353 192.605 135.58 192.52 135.722 192.492C135.864 192.492 136.006 192.492 136.177 192.577C136.177 192.577 136.574 192.747 136.773 193.003C136.773 192.52 136.716 192.066 136.631 191.611C136.631 191.498 136.574 191.356 136.546 191.242C136.546 191.242 136.546 191.242 136.518 191.242C136.006 191.072 135.495 190.844 135.012 190.589C134.956 190.731 134.814 190.873 134.643 190.958C134.444 191.072 134.217 191.072 133.99 191.1C133.593 191.1 133.28 191.072 132.996 190.986C132.627 190.873 132.343 190.646 132.144 190.39C132.087 190.333 132.059 190.22 132.059 190.106C132.059 189.993 132.144 189.879 132.428 189.822C132.968 189.708 133.394 189.709 133.791 189.737C133.962 189.737 134.16 189.794 134.388 189.879C134.018 189.481 133.848 188.828 133.848 188.8C133.791 188.601 133.848 188.43 133.962 188.374C134.018 188.345 134.104 188.345 134.132 188.345C134.388 188.345 134.643 188.487 134.842 188.771C134.899 188.828 135.353 189.595 135.211 189.964C135.211 189.964 135.211 190.021 135.183 190.049C135.154 190.106 135.069 190.191 134.899 190.163C134.956 190.22 135.013 190.248 135.069 190.305C135.495 190.56 135.95 190.759 136.404 190.93C136.063 189.737 135.495 188.629 134.899 187.607C134.899 187.664 134.842 187.692 134.814 187.72C134.586 187.891 134.16 187.777 133.763 187.664H133.706C133.195 187.493 132.769 187.238 132.485 186.897C132.371 186.783 132.286 186.67 132.201 186.528C132.144 186.443 132.087 186.357 132.031 186.301C132.002 186.244 131.974 186.187 132.031 186.13C132.031 186.073 132.116 186.045 132.173 186.045C132.769 186.045 133.507 186.045 134.104 186.386C134.217 186.443 134.331 186.556 134.473 186.67C134.359 186.357 134.331 186.045 134.388 185.733C134.444 185.363 134.615 184.994 134.899 184.597C135.013 184.426 135.183 184.369 135.325 184.455C135.382 184.483 135.41 184.54 135.438 184.568C135.637 184.994 135.666 185.534 135.438 186.215C135.438 186.272 135.41 186.329 135.382 186.386C135.353 186.471 135.325 186.556 135.268 186.641C135.126 186.869 135.012 186.982 134.956 187.039C135.211 187.493 135.495 188.005 135.751 188.487C135.751 188.317 135.808 188.09 135.893 187.834C136.035 187.408 136.262 187.067 136.546 186.755C136.858 186.443 137.171 186.301 137.483 186.272C137.54 186.272 137.597 186.272 137.625 186.357C137.625 186.386 137.654 186.443 137.625 186.499C137.483 186.755 137.426 186.982 137.341 187.266C137.284 187.408 137.228 187.578 137.171 187.72C137.029 188.09 136.716 188.573 136.234 188.743C136.063 188.8 135.921 188.771 135.836 188.686C136.29 189.623 136.688 190.589 136.887 191.611C137.057 192.492 137.057 193.344 137.029 194.224C137.37 193.173 137.767 192.406 138.136 191.696C138.392 191.214 138.619 190.788 138.818 190.276C138.875 190.163 138.932 190.021 138.96 189.879C138.96 189.879 138.96 189.907 138.932 189.907C138.562 190.22 137.824 189.453 137.824 189.424C137.682 189.254 137.54 189.055 137.426 188.885C137.313 188.743 137.228 188.601 137.114 188.459C137.086 188.402 137.057 188.345 137.114 188.289C137.142 188.232 137.228 188.203 137.284 188.203C137.682 188.289 138.25 188.402 138.591 188.828C138.591 188.828 139.045 189.396 139.045 189.708C139.414 188.572 139.727 186.925 139.045 185.562C139.017 185.562 138.988 185.562 138.932 185.562C138.761 185.534 138.619 185.562 138.42 185.562C138.278 185.562 138.136 185.562 137.994 185.562C137.313 185.505 136.716 185.051 136.546 184.455C136.546 184.398 136.518 184.313 136.546 184.227C136.546 184.142 136.631 184.029 136.887 184C137.341 183.943 137.824 184.057 138.25 184.313C138.477 184.455 138.704 184.625 138.903 184.852C139.045 184.994 139.13 185.108 139.187 185.221C139.187 185.221 139.187 185.221 139.216 185.25C139.5 185.761 139.67 186.301 139.727 186.84C139.784 186.783 139.869 186.727 139.926 186.67C140.039 186.585 140.153 186.471 140.266 186.386C140.039 185.903 140.238 185.221 140.323 184.937L140.295 184.909ZM139.443 183.347C139.443 183.347 138.846 184.739 139.13 185.136C139.216 185.25 139.329 185.307 139.471 185.278C139.755 185.25 139.926 184.824 140.096 184.426V184.369C140.096 184.369 140.181 184.199 140.21 184.114C140.295 183.858 140.38 183.574 140.437 183.347C140.55 182.978 140.38 182.864 140.295 182.807C140.21 182.779 140.096 182.779 139.982 182.807C139.784 182.893 139.585 183.063 139.443 183.319V183.347Z" fill="#D1636E"/>
<path fill-rule="evenodd" clip-rule="evenodd" d="M132.626 164.093C133.023 164.235 133.194 164.746 133.023 165.115C132.825 165.541 132.342 165.569 131.916 165.569C131.831 165.541 131.745 165.484 131.66 165.427C131.433 165.2 131.433 164.859 131.547 164.575C131.717 164.149 132.171 163.922 132.597 164.093H132.626ZM132.455 170.426C132.853 170.568 133.023 171.079 132.853 171.448C132.654 171.874 132.171 171.902 131.745 171.902C131.66 171.874 131.575 171.817 131.49 171.76C131.263 171.533 131.263 171.192 131.376 170.908C131.547 170.482 132.001 170.255 132.455 170.426ZM126.917 183.489C126.719 183.915 126.236 183.944 125.81 183.944C125.725 183.915 125.64 183.859 125.554 183.802C125.327 183.575 125.327 183.234 125.441 182.95C125.611 182.524 126.066 182.297 126.492 182.467C126.889 182.609 127.06 183.12 126.889 183.489H126.917ZM131.405 176.901C131.206 177.327 130.723 177.355 130.297 177.355C130.212 177.327 130.127 177.27 130.041 177.213C129.814 176.986 129.814 176.645 129.928 176.361C130.098 175.935 130.553 175.708 130.979 175.878C131.376 176.02 131.547 176.531 131.376 176.901H131.405ZM129.303 182.041C129.701 182.183 129.871 182.694 129.701 183.063C129.502 183.489 129.019 183.518 128.593 183.518C128.508 183.489 128.423 183.433 128.337 183.376C128.11 183.149 128.11 182.808 128.224 182.524C128.338 182.211 128.622 182.013 128.934 181.984C128.962 181.984 128.991 181.984 129.047 181.984C129.133 181.984 129.218 181.984 129.303 182.041ZM126.179 179.513C125.98 179.939 125.498 179.968 125.072 179.968C124.986 179.939 124.901 179.883 124.816 179.826C124.589 179.599 124.589 179.258 124.702 178.974C124.873 178.548 125.327 178.321 125.753 178.491C126.151 178.633 126.321 179.144 126.151 179.513H126.179ZM126.293 172.868C126.094 173.294 125.611 173.322 125.185 173.322C125.1 173.294 125.015 173.237 124.93 173.18C124.702 172.953 124.702 172.612 124.816 172.328C124.986 171.902 125.441 171.675 125.867 171.846C126.264 171.988 126.435 172.499 126.264 172.868H126.293ZM126.35 166.819C126.151 167.245 125.668 167.273 125.242 167.273C125.157 167.245 125.072 167.188 124.986 167.131C124.759 166.904 124.759 166.563 124.873 166.279C125.043 165.853 125.498 165.626 125.924 165.796C126.321 165.938 126.492 166.45 126.321 166.819H126.35ZM127.571 155.345C127.798 156.141 128.054 156.936 128.224 157.731C128.309 158.555 128.394 159.378 128.451 160.173C127.258 161.65 126.236 163.439 125.867 165.314C125.185 165.2 124.532 165.654 124.504 166.364C124.504 166.79 124.674 167.188 124.986 167.415C125.015 167.415 125.043 167.444 125.072 167.472C125.1 167.472 125.128 167.5 125.185 167.529C125.753 167.756 126.463 167.529 126.719 166.932C126.974 166.336 126.719 165.683 126.151 165.399C126.804 163.78 127.486 162.275 128.508 160.883C128.65 162.928 128.707 164.973 128.65 167.018C127.4 168.21 126.35 169.687 125.895 171.363C125.895 171.363 125.895 171.363 125.867 171.363C125.185 171.221 124.475 171.675 124.447 172.414C124.447 172.84 124.617 173.237 124.93 173.464C124.958 173.464 124.986 173.493 125.015 173.521C125.043 173.521 125.072 173.55 125.128 173.578C125.696 173.805 126.406 173.578 126.662 172.982C126.889 172.414 126.662 171.789 126.179 171.505C126.832 170.085 127.571 168.835 128.621 167.728C128.621 168.381 128.565 169.034 128.508 169.659C128.423 170.852 128.281 172.044 128.11 173.209C126.889 174.544 125.952 176.219 125.753 178.037C125.753 178.037 125.725 178.037 125.696 178.037C125.015 177.895 124.305 178.349 124.276 179.087C124.276 179.513 124.447 179.911 124.759 180.138C124.788 180.138 124.816 180.167 124.844 180.195C124.873 180.195 124.901 180.223 124.958 180.252C125.526 180.479 126.236 180.252 126.492 179.655C126.747 179.087 126.492 178.406 125.952 178.15C126.378 176.617 126.974 175.225 127.968 174.004C127.542 176.702 126.974 179.343 126.378 182.041C125.696 181.927 125.043 182.382 125.015 183.092C125.015 183.518 125.185 183.915 125.498 184.143C125.526 184.143 125.554 184.171 125.583 184.199C125.611 184.199 125.64 184.228 125.696 184.256C126.264 184.483 126.974 184.256 127.23 183.66C127.486 183.063 127.23 182.382 126.634 182.126C127.06 180.962 127.4 179.741 127.684 178.519C128.082 179.542 128.423 180.536 128.707 181.615C128.195 181.7 127.798 182.098 127.77 182.666C127.77 183.092 127.94 183.489 128.252 183.717C128.281 183.717 128.309 183.745 128.337 183.773C128.366 183.773 128.394 183.802 128.451 183.83C129.019 184.057 129.729 183.83 129.985 183.234C130.269 182.581 129.871 181.785 129.161 181.615C129.076 181.615 129.019 181.615 128.934 181.615C128.764 180.337 128.394 179.002 127.826 177.866C128.309 175.708 128.593 173.521 128.792 171.363C129.644 172.641 130.212 173.947 130.581 175.452C129.985 175.452 129.473 175.907 129.445 176.532C129.445 176.958 129.616 177.355 129.928 177.582C129.928 177.582 129.985 177.611 130.013 177.639C130.042 177.639 130.07 177.667 130.127 177.696C130.695 177.923 131.405 177.696 131.66 177.099C131.944 176.446 131.547 175.651 130.837 175.481C130.837 175.481 130.78 175.481 130.751 175.481C130.638 173.777 129.928 171.959 128.82 170.653C128.82 170.34 128.877 170 128.905 169.687C129.019 168.21 129.076 166.705 129.076 165.2C130.297 166.648 131.035 168.296 131.717 170.056C131.263 170.17 130.893 170.568 130.865 171.079C130.865 171.505 131.035 171.902 131.348 172.13C131.376 172.13 131.405 172.158 131.433 172.186C131.461 172.186 131.49 172.215 131.547 172.243C132.115 172.47 132.825 172.243 133.08 171.647C133.364 170.994 132.995 170.198 132.257 170.028C132.171 170.028 132.058 170.028 131.973 170.028C131.603 167.955 130.411 166.024 129.019 164.49C129.019 163.042 128.934 161.622 128.792 160.202C128.792 160.031 128.792 159.889 128.792 159.719C130.269 160.741 131.177 162.048 131.774 163.752C131.348 163.894 131.007 164.263 131.007 164.774C131.007 165.2 131.177 165.598 131.49 165.825C131.518 165.825 131.547 165.853 131.575 165.882C131.603 165.882 131.632 165.91 131.689 165.938C132.257 166.166 132.967 165.939 133.222 165.342C133.506 164.661 133.109 163.894 132.399 163.723C132.285 163.723 132.2 163.695 132.086 163.723C131.745 161.877 130.411 160.06 128.735 159.179C128.65 157.816 128.338 156.425 127.855 155.289C127.713 154.948 127.202 155.118 127.315 155.488L127.571 155.345Z" fill="#D1636E"/>
<path fill-rule="evenodd" clip-rule="evenodd" d="M114.024 175.651C114.45 175.423 114.905 175.196 115.189 174.799C115.473 174.401 115.473 173.805 115.245 173.322C115.586 172.981 115.927 172.64 116.268 172.3C115.984 174.231 115.785 176.19 115.7 178.15C115.331 178.519 114.99 178.945 114.649 179.343C114.621 179.286 114.564 179.257 114.535 179.201C114.053 178.775 113.229 179.087 112.86 179.513C112.434 179.996 112.263 180.649 112.093 181.245C111.837 182.296 111.553 183.319 111.298 184.369C111.724 183.319 112.576 182.438 113.598 181.87C114.024 181.643 114.479 181.416 114.763 181.018C115.018 180.649 115.047 180.081 114.848 179.627C115.132 179.343 115.416 179.03 115.671 178.746C115.586 180.876 115.615 183.035 115.728 185.164C115.331 185.931 114.933 186.67 114.507 187.436C113.967 187.153 113.257 187.607 112.973 188.09C112.633 188.629 112.576 189.311 112.547 189.936C112.462 191.015 112.405 192.094 112.32 193.145C112.576 192.009 113.257 191.015 114.138 190.276C114.507 189.964 114.933 189.68 115.132 189.254C115.359 188.771 115.217 188.118 114.848 187.692C115.189 187.096 115.501 186.471 115.785 185.846C115.813 186.329 115.87 186.812 115.899 187.294C116.012 188.516 116.154 189.737 116.353 190.958C115.7 191.043 115.416 191.867 115.473 192.435C115.529 193.088 115.899 193.656 116.268 194.195C116.864 195.104 117.461 196.013 118.085 196.922C117.574 195.871 117.517 194.65 117.773 193.514C117.887 193.031 118.029 192.548 117.943 192.066C117.83 191.526 117.262 191.072 116.694 190.986C116.552 189.964 116.438 188.942 116.353 187.919C116.495 188.09 116.637 188.26 116.779 188.43C116.552 188.942 116.637 189.623 117.006 190.021C117.347 190.39 117.83 190.532 118.284 190.702C119.363 191.128 120.329 191.895 120.925 192.889C120.499 191.867 120.102 190.873 119.676 189.85C119.42 189.254 119.165 188.629 118.682 188.203C118.256 187.834 117.432 187.635 117.006 188.061C116.779 187.806 116.523 187.578 116.296 187.323C116.126 185.449 116.069 183.574 116.041 181.7C116.183 181.984 116.353 182.296 116.552 182.58C116.296 183.091 116.325 183.801 116.694 184.227C117.006 184.597 117.517 184.739 117.972 184.937C119.051 185.392 119.988 186.159 120.556 187.181C120.159 186.159 119.789 185.136 119.392 184.114C119.165 183.517 118.909 182.864 118.426 182.438C118.029 182.097 117.29 181.842 116.807 182.211C116.523 181.757 116.268 181.302 116.012 180.819C116.012 179.911 116.041 178.973 116.097 178.065C116.097 178.008 116.097 177.979 116.097 177.923C116.154 176.872 116.239 175.821 116.353 174.77C116.523 175.054 116.722 175.367 116.893 175.651C116.495 176.133 116.438 176.929 116.807 177.411C117.091 177.809 117.574 178.008 118 178.235C119.023 178.803 119.903 179.655 120.357 180.734L119.505 177.582C119.335 176.957 119.136 176.304 118.71 175.821C118.369 175.452 117.688 175.168 117.205 175.395C116.949 174.997 116.665 174.6 116.41 174.231C116.495 173.492 116.609 172.754 116.722 172.016C116.836 171.22 117.006 170.397 117.148 169.602C117.319 169.914 117.489 170.255 117.688 170.567C117.205 171.022 117.12 171.93 117.489 172.442C117.773 172.839 118.256 173.038 118.682 173.265C119.704 173.833 120.585 174.685 121.039 175.764C120.755 174.714 120.471 173.663 120.187 172.612C120.016 171.987 119.818 171.334 119.392 170.851C119.079 170.51 118.483 170.255 118.029 170.368C117.773 169.942 117.546 169.488 117.29 169.062C117.517 167.983 117.773 166.932 118.029 165.881C118.085 165.626 117.716 165.484 117.659 165.739C117.12 167.699 116.694 169.658 116.353 171.675C115.899 172.101 115.444 172.527 114.99 172.953C114.99 172.953 114.961 172.924 114.933 172.896C114.45 172.47 113.627 172.782 113.257 173.208C112.831 173.691 112.661 174.344 112.491 174.941C112.235 175.991 111.951 177.014 111.695 178.065C112.121 177.014 112.973 176.133 113.996 175.565L114.024 175.651Z" fill="#D1636E"/>
<path fill-rule="evenodd" clip-rule="evenodd" d="M147.678 180.166C148.586 179.882 148.615 178.774 148.615 178.746V178.689C148.615 178.661 147.933 177.78 147.024 178.064C146.769 178.15 146.542 178.263 146.343 178.434C146.428 178.178 146.485 177.922 146.485 177.667C146.485 176.701 145.462 176.36 145.406 176.332H145.349C145.292 176.332 144.27 176.701 144.27 177.667C144.27 177.922 144.326 178.206 144.412 178.434C144.213 178.263 143.957 178.15 143.702 178.064C142.793 177.78 142.14 178.632 142.111 178.689V178.746C142.111 178.803 142.111 179.882 143.049 180.166C143.304 180.251 143.56 180.28 143.844 180.28C143.617 180.422 143.418 180.62 143.276 180.819C142.708 181.586 143.333 182.495 143.361 182.523C143.361 182.523 143.389 182.552 143.418 182.552C143.588 182.608 143.787 182.637 143.957 182.637C144.752 182.637 145.178 182.154 145.406 181.415C145.633 182.182 146.059 182.637 146.854 182.637C147.024 182.637 147.223 182.637 147.394 182.552C147.394 182.552 147.45 182.551 147.45 182.523C147.45 182.495 148.104 181.586 147.536 180.819C147.365 180.62 147.195 180.422 146.968 180.28C147.223 180.28 147.507 180.28 147.763 180.166H147.678Z" fill="#D1636E"/>
<path fill-rule="evenodd" clip-rule="evenodd" d="M139.442 149.723C139.471 150.83 139.613 151.966 139.783 153.131C139.783 153.102 139.84 153.074 139.897 153.046C140.493 152.875 141.147 152.989 141.629 153.358C141.913 153.585 142.453 154.182 142.282 154.608C142.084 155.09 141.232 154.835 140.891 154.75C140.55 154.664 140.238 154.522 139.982 154.324C140.181 155.403 140.408 156.51 140.635 157.618C140.635 157.618 140.664 157.561 140.72 157.561C141.203 157.277 141.771 157.192 142.311 157.362C142.708 157.476 143.504 157.93 143.447 158.441C143.39 158.953 142.51 158.953 142.169 158.953C141.686 158.953 141.26 158.867 140.891 158.64C141.118 159.776 141.374 160.884 141.601 162.02C141.601 162.02 141.629 162.02 141.658 162.02C142.282 161.878 142.879 162.162 143.333 162.559C143.617 162.815 144.128 163.213 143.731 163.582C143.39 163.923 142.708 163.866 142.282 163.752C142.112 163.695 141.97 163.639 141.828 163.553C142.027 164.689 142.169 165.825 142.254 166.933C143.305 167.245 143.958 168.211 143.986 169.29C143.986 169.375 143.93 169.432 143.873 169.46C143.191 169.716 142.68 169.318 142.339 168.75C142.339 169.801 142.282 170.824 142.14 171.818C142.14 171.818 142.169 171.818 142.197 171.818C143.191 172.3 143.617 173.209 143.617 174.26C143.617 174.345 143.56 174.43 143.475 174.459C142.964 174.629 142.538 174.43 142.197 174.033C142.055 173.862 141.913 173.664 141.8 173.465C141.544 174.459 141.175 175.424 140.664 176.361C141.345 177.128 141.374 178.151 141.033 179.059C141.004 179.173 140.891 179.23 140.777 179.201C140.238 179.173 139.897 178.747 139.755 178.264C139.727 178.151 139.698 178.037 139.67 177.923C139.556 178.094 139.443 178.236 139.329 178.406C139.528 179.088 139.585 179.855 139.414 180.536C139.301 180.962 138.96 181.729 138.42 181.303C138.051 181.019 137.966 180.394 137.994 179.94C138.023 179.23 138.392 178.633 138.96 178.207C139.159 177.923 139.386 177.668 139.556 177.384C139.244 177.497 138.903 177.583 138.562 177.583C138.25 177.583 137.511 177.639 137.455 177.213C137.369 176.674 138.165 176.134 138.562 175.992C139.13 175.794 139.755 175.879 140.295 176.134C140.749 175.282 141.09 174.374 141.345 173.465C141.09 173.664 140.806 173.806 140.493 173.919C140.181 174.033 139.67 174.203 139.585 173.749C139.499 173.238 139.84 172.641 140.181 172.329C140.607 171.96 141.147 171.789 141.714 171.818C141.856 170.88 141.942 169.943 141.942 169.006C141.658 169.574 141.203 170.057 140.635 170.199C140.55 170.199 140.493 170.199 140.436 170.114C140.067 169.688 140.096 168.949 140.266 168.466C140.522 167.813 141.09 167.359 141.743 167.132C141.8 167.132 141.828 167.132 141.885 167.132C141.8 165.939 141.629 164.718 141.43 163.497C141.317 164.121 140.863 164.661 140.209 164.916C140.096 164.945 139.954 164.917 139.925 164.803C139.755 164.32 139.641 163.809 139.925 163.326C140.209 162.843 140.72 162.616 141.203 162.389C141.004 161.338 140.777 160.287 140.55 159.237C140.351 159.776 139.954 160.231 139.386 160.486C139.301 160.515 139.187 160.486 139.13 160.429C138.875 160.089 138.903 159.492 139.017 159.123C139.159 158.527 139.67 158.214 140.209 157.959C140.209 157.959 140.238 157.959 140.266 157.959C140.011 156.709 139.726 155.488 139.528 154.267C139.244 154.948 138.619 155.403 137.881 155.545C137.795 155.545 137.682 155.516 137.653 155.431C137.483 155.005 137.682 154.38 137.937 154.04C138.25 153.585 138.789 153.443 139.329 153.33C139.329 153.33 139.357 153.33 139.386 153.33C139.187 152.137 139.073 150.944 139.017 149.78C139.017 149.496 139.442 149.439 139.442 149.723Z" fill="#D1636E"/>
<path fill-rule="evenodd" clip-rule="evenodd" d="M124.959 191.016C125.953 190.902 127.316 191.527 128.253 191.868C128.339 191.953 128.481 191.896 128.509 191.811C128.509 191.811 128.509 191.811 128.509 191.754C128.509 190.505 128.424 189.283 128.339 188.034C128.623 188.034 128.935 187.835 129.048 187.579C129.219 187.21 129.049 186.756 128.736 186.529C128.623 186.443 128.537 186.415 128.31 186.415C127.969 186.415 127.629 186.614 127.515 186.983C127.401 187.381 127.6 187.835 127.998 187.977C127.998 187.977 128.026 187.977 128.055 187.977C128.111 188.687 128.168 189.397 128.197 190.107C128.197 190.419 128.282 190.76 128.225 191.073C128.225 191.129 128.225 191.186 128.225 191.243C127.685 190.419 127.089 189.653 126.407 188.914C126.464 188.857 126.493 188.801 126.521 188.744C126.663 188.431 126.578 188.062 126.351 187.807C126.152 187.608 125.896 187.551 125.641 187.608C125.357 187.665 125.101 187.863 125.016 188.176C124.902 188.573 125.101 189.028 125.499 189.17C125.726 189.255 126.01 189.227 126.209 189.085C126.89 189.823 127.515 190.618 128.055 191.442C127.969 191.442 127.856 191.385 127.685 191.328C126.862 191.073 125.811 190.59 124.902 190.703C124.874 190.647 124.845 190.561 124.789 190.505C124.732 190.419 124.675 190.363 124.59 190.306C124.59 190.306 124.505 190.249 124.419 190.249C124.363 190.249 124.277 190.249 124.249 190.249C124.135 190.249 124.05 190.249 123.937 190.277C123.681 190.334 123.454 190.533 123.369 190.817C123.255 191.215 123.454 191.669 123.851 191.811C124.249 191.953 124.703 191.754 124.874 191.385C124.931 191.271 124.959 191.129 124.931 190.987L124.959 191.016Z" fill="#D1636E"/>
<path fill-rule="evenodd" clip-rule="evenodd" d="M120.784 203.766C121.153 203.766 121.437 203.482 121.437 203.113C121.437 202.744 121.153 202.46 120.784 202.46C120.415 202.46 120.131 202.744 120.131 203.113C120.131 203.482 120.415 203.766 120.784 203.766Z" fill="#D1636E"/>
<path fill-rule="evenodd" clip-rule="evenodd" d="M122.686 170.283C123.056 170.283 123.34 169.999 123.34 169.63C123.34 169.261 123.056 168.977 122.686 168.977C122.317 168.977 122.033 169.261 122.033 169.63C122.033 169.999 122.317 170.283 122.686 170.283Z" fill="#D1636E"/>
<path fill-rule="evenodd" clip-rule="evenodd" d="M122.828 202.319C123.197 202.319 123.481 202.035 123.481 201.666C123.481 201.297 123.197 201.013 122.828 201.013C122.459 201.013 122.175 201.297 122.175 201.666C122.175 202.035 122.459 202.319 122.828 202.319Z" fill="#D1636E"/>
<path fill-rule="evenodd" clip-rule="evenodd" d="M134.501 179.741C134.87 179.741 135.154 179.457 135.154 179.088C135.154 178.719 134.87 178.435 134.501 178.435C134.132 178.435 133.848 178.719 133.848 179.088C133.848 179.457 134.132 179.741 134.501 179.741Z" fill="#D1636E"/>
<path fill-rule="evenodd" clip-rule="evenodd" d="M122.686 204.306C123.056 204.306 123.34 204.022 123.34 203.653C123.34 203.284 123.056 203 122.686 203C122.317 203 122.033 203.284 122.033 203.653C122.033 204.022 122.317 204.306 122.686 204.306Z" fill="#D1636E"/>
</g>
</g>
<defs>
<clipPath id="clip0_182_5240">
<rect width="288" height="288" fill="white"/>
</clipPath>
</defs>
</svg>
