<svg width="288" height="288" viewBox="0 0 288 288" fill="none" xmlns="http://www.w3.org/2000/svg">
<g clip-path="url(#clip0_182_5357)">
<rect width="288" height="288" fill="#265113"/>
<path fill-rule="evenodd" clip-rule="evenodd" d="M155.014 300.06C185.354 295.394 195.657 305.404 227.049 307.744C250.348 309.137 273.719 306.71 296.241 300.558C339.375 288.772 376.18 262.881 361.549 219.841C350.043 186.019 330.956 177.526 296.53 179.292C277.157 180.324 255.2 183.882 237.012 172.665C210.219 156.053 165.438 159.696 75.4693 197.818C58.7738 204.932 33.5983 217.622 17.6022 235.696C4.91513 250.682 -2.42995 269.47 -3.27378 289.094C-5.60241 334.086 50.7824 360 83.5126 343.983C106.935 332.602 130.666 303.848 155.014 300.06Z" fill="#81BD55"/>
<path fill-rule="evenodd" clip-rule="evenodd" d="M64.2262 255.555C61.5409 252.187 58.3549 247.522 55.6696 243.745L50.8906 237.054C50.8906 237.054 51.6416 237.555 52.8477 238.42C54.0539 239.284 55.7151 240.513 57.5357 241.992C61.4376 245.078 65.0207 248.547 68.2315 252.347C69.3075 253.653 70.2958 255.029 71.1899 256.466C71.7816 253.302 72.3505 250.139 72.8511 246.976C72.4795 246.993 72.1124 246.889 71.8043 246.68C69.7971 245.112 68.0399 243.247 66.593 241.15C63.9076 237.805 60.7217 233.117 58.0363 229.34L53.2574 222.672L55.2145 224.015C56.4206 224.879 58.0818 226.131 59.9024 227.587C63.8095 230.667 67.3932 234.137 70.5982 237.942C71.6686 239.266 72.6639 240.648 73.5794 242.083C74.1711 237.919 74.649 233.732 75.0586 229.545C74.0345 229.545 72.1457 228.68 67.7536 225.107C61.9395 219.935 56.4806 214.378 51.414 208.472C58.2234 212.251 64.7696 216.486 71.0078 221.147C72.5763 222.372 74.052 223.71 75.4227 225.153V224.242C75.3535 224.041 75.3279 223.827 75.3475 223.616C75.3672 223.404 75.4316 223.199 75.5365 223.013C75.5365 221.694 75.6958 220.374 75.7641 219.031C75.8323 217.688 75.9006 216.528 75.9461 215.276C75.7022 215.445 75.4124 215.536 75.1155 215.536C74.8186 215.536 74.5287 215.445 74.2848 215.276C72.3218 213.983 70.5843 212.376 69.1418 210.52C66.5019 207.584 63.3387 203.443 60.6534 200.097L55.9199 194.181C55.9199 194.181 56.6481 194.568 57.8315 195.273C59.0149 195.979 60.6306 197.003 62.3829 198.231C66.2092 200.787 69.7426 203.755 72.9194 207.084C74.0705 208.309 75.1208 209.626 76.0599 211.021C76.0599 207.857 76.1737 204.694 76.0599 201.531C75.1041 201.668 73.4201 200.735 69.4604 196.82C64.5005 191.462 59.9371 185.751 55.8061 179.73C61.8695 183.786 67.6273 188.281 73.0332 193.179C74.3076 194.408 75.3089 195.455 75.9689 196.274V195.842C75.8205 195.642 75.7241 195.409 75.6884 195.162C75.6526 194.916 75.6786 194.665 75.7641 194.431C75.8005 194.281 75.854 194.136 75.9233 193.999C75.9233 191.981 75.8323 189.956 75.6503 187.923C74.7172 188.127 73.3746 187.331 69.8017 183.371C65.7633 178.269 62.1409 172.851 58.9694 167.169C64.2365 171.076 69.183 175.399 73.7614 180.094C74.3759 180.8 74.922 181.437 75.3544 181.983C75.1269 179.161 74.8538 176.34 74.5352 173.518C73.5794 173.95 72.2595 173.404 68.2087 168.443C64.0813 162.757 60.3844 156.77 57.1488 150.533C62.5358 155.045 67.572 159.959 72.214 165.234C72.8284 165.985 73.3518 166.691 73.8069 167.282L73.1925 162.503C72.2367 162.299 71.2126 160.842 69.6652 154.994C68.0883 147.851 67.0386 140.603 66.5247 133.307C69.7108 139.929 72.4108 146.774 74.6034 153.788C74.8538 154.743 75.0586 155.585 75.2406 156.314C77.8251 150.975 80.8229 145.847 84.2069 140.976C83.2033 147.087 81.6807 153.101 79.6555 158.953C77.3798 164.711 76.2192 165.029 75.1041 164.665C75.6275 167.874 76.0599 171.128 76.424 174.382C76.9304 173.503 77.485 172.652 78.0853 171.834C80.5329 168.585 83.4028 165.677 86.6192 163.186C88.1211 162.003 89.5093 161.024 90.4878 160.342C91.4664 159.659 92.1263 159.295 92.1263 159.295C92.1263 159.295 91.7167 159.886 91.0795 160.91C90.4423 161.935 89.532 163.323 88.5307 164.893C86.5281 168.079 84.2297 171.993 82.2498 174.792C81.2137 176.541 79.8636 178.084 78.2673 179.343C78.0731 179.477 77.8494 179.561 77.6156 179.588C77.3818 179.616 77.1447 179.587 76.9247 179.503C77.084 181.346 77.2433 183.212 77.357 185.078C77.4731 185.328 77.5332 185.599 77.5332 185.875C77.5332 186.15 77.4731 186.422 77.357 186.671C77.357 188.31 77.5163 189.948 77.5846 191.564C78.0625 190.927 78.6542 190.198 79.3597 189.288C81.6354 186.534 84.9351 183.098 87.5067 180.185C88.8038 178.729 89.9189 177.409 90.7382 176.453L92.0353 174.906C92.0353 174.906 91.8305 175.634 91.4436 176.84C91.0568 178.046 90.4423 179.707 89.6686 181.551C88.0702 185.486 85.9417 189.184 83.3421 192.542C82.0751 194.417 80.3931 195.974 78.4266 197.094C78.2002 197.176 77.9621 197.222 77.7211 197.23C77.7211 197.845 77.7211 198.459 77.7211 199.096C77.8064 199.29 77.8504 199.499 77.8504 199.711C77.8504 199.922 77.8064 200.131 77.7211 200.325C77.7211 202.396 77.7211 204.49 77.7211 206.583L77.9942 206.31C78.768 205.582 79.8376 204.694 81.2257 203.511C82.6139 202.328 84.2752 200.985 85.9137 199.551C87.5522 198.118 89.2134 196.616 90.6471 195.182C92.0808 193.748 93.3097 192.428 94.1517 191.45L95.5399 189.857L94.8572 191.86C94.2468 193.511 93.5323 195.123 92.718 196.684C91.678 198.717 90.4676 200.658 89.0997 202.487C87.7658 204.286 86.2397 205.934 84.5483 207.402C83.3781 208.43 82.1133 209.344 80.7706 210.133C80.0716 210.563 79.3006 210.864 78.4949 211.021C78.2112 211.093 77.9138 211.093 77.6301 211.021C77.6301 213.797 77.4253 216.551 77.2888 219.304C77.2888 219.873 77.2888 220.442 77.2888 221.034C77.9715 220.374 78.8818 219.6 80.0651 218.758C82.8642 216.482 86.8922 213.911 90.0782 211.726L95.8357 207.88L94.7434 209.564C94.0379 210.588 93.0366 212.022 91.8305 213.592C89.3276 216.937 86.4574 219.99 83.2739 222.695C81.6966 224.172 79.8177 225.29 77.7667 225.972C77.5351 226.03 77.2928 226.03 77.0612 225.972C76.7654 229.954 76.4012 233.914 75.9461 237.896C76.9019 237.031 78.2218 235.939 80.2017 234.506C83.7518 231.843 88.6673 228.68 92.627 225.995L99.6362 221.238C99.6362 221.238 99.09 221.989 98.157 223.195C97.2239 224.402 95.8813 226.086 94.311 227.906C91.0074 231.839 87.309 235.423 83.2739 238.602C81.2722 240.362 78.9558 241.729 76.4468 242.63C76.1254 242.709 75.7896 242.709 75.4682 242.63C75.0131 246.111 74.4897 249.593 73.898 253.052C75.5346 251.838 77.2363 250.713 78.9956 249.684C82.796 247.409 87.9846 244.701 92.1719 242.402L99.6134 238.329C99.6134 238.329 98.999 239.034 97.9521 240.149C96.9053 241.264 95.4261 242.812 93.6966 244.473C90.0253 248.064 85.9995 251.274 81.6809 254.053C79.4833 255.618 77.0139 256.76 74.3986 257.421C73.9777 257.506 73.5405 257.433 73.1698 257.217C71.5069 266.294 69.3185 275.268 66.6157 284.092C66.2971 285.139 64.7497 284.593 65.0227 283.546C67.0026 276.196 68.7776 268.845 70.3024 261.427C70.0291 261.387 69.7663 261.294 69.5286 261.154C67.4965 259.557 65.7099 257.671 64.2262 255.555Z" fill="#5EAD41"/>
<path fill-rule="evenodd" clip-rule="evenodd" d="M98.0792 185.171C97.1173 184.873 95.9275 184.302 96.0035 183.061C96.0639 182.668 96.2434 182.302 96.5187 182.01C96.7941 181.718 97.1525 181.514 97.5476 181.424C98.3998 181.33 99.2625 181.415 100.079 181.672C102.58 182.401 104.946 183.515 107.091 184.972C108.923 186.241 110.567 187.752 111.976 189.463C112.255 186.486 112.508 183.508 112.761 180.53C108.129 178.893 103.496 176.957 99.1676 175.294C98.231 174.922 97.1426 174.227 97.3704 173.012C97.4666 172.629 97.6769 172.283 97.9744 172.018C98.2719 171.753 98.6433 171.58 99.0411 171.523C99.9055 171.491 100.767 171.634 101.572 171.945C103.887 172.822 106.067 174.008 108.053 175.468C109.844 176.778 111.46 178.304 112.862 180.009C113.039 177.726 113.191 175.443 113.318 173.136C108.91 170.558 104.296 168.334 99.522 166.485C98.5348 166.113 97.3451 165.418 97.5223 164.202C97.5979 163.803 97.8045 163.439 98.1107 163.166C98.4169 162.893 98.8059 162.725 99.2183 162.689C100.137 162.66 101.051 162.821 101.901 163.16C104.461 164.133 106.832 165.526 108.913 167.279C110.636 168.713 112.137 170.385 113.368 172.242C113.52 169.612 113.647 166.957 113.723 164.277C109.501 161.583 104.962 159.4 100.206 157.776C99.2436 157.453 98.0538 156.833 98.1551 155.617C98.2054 155.214 98.3884 154.839 98.6763 154.548C98.9641 154.257 99.3411 154.066 99.7499 154.004C100.659 153.932 101.574 154.051 102.433 154.351C105.018 155.23 107.406 156.586 109.47 158.346C111.168 159.756 112.614 161.433 113.748 163.309C113.748 160.977 113.748 158.619 113.9 156.262V155.741C109.085 152.899 104.125 150.298 99.0411 147.949C97.9779 147.478 96.7375 146.684 96.9907 145.468C97.1033 145.068 97.3488 144.717 97.6881 144.47C98.0274 144.223 98.4412 144.093 98.8639 144.103C99.8303 144.148 100.777 144.385 101.648 144.798C104.278 145.983 106.717 147.538 108.888 149.413C110.839 151.084 112.543 153.013 113.951 155.145C113.951 152.664 113.951 150.381 113.951 148.024C112.002 146.435 110.027 144.897 107.951 143.483C105.607 141.866 103.164 140.391 100.636 139.066C99.6486 138.544 98.4589 137.701 98.7373 136.584C98.8753 136.193 99.141 135.857 99.4933 135.628C99.8456 135.399 100.265 135.29 100.686 135.319C101.657 135.422 102.595 135.718 103.446 136.187C106.025 137.539 108.346 139.319 110.306 141.448C111.743 143.038 112.96 144.806 113.925 146.708C113.925 143.607 113.799 140.505 113.672 137.403C111.824 135.641 109.926 133.929 107.951 132.44C105.644 130.595 103.189 128.936 100.611 127.477C99.598 126.882 98.4082 125.988 98.712 124.773C98.8627 124.379 99.1449 124.047 99.5126 123.831C99.8803 123.615 100.312 123.527 100.737 123.581C101.235 123.632 101.721 123.758 102.18 123.954C102.66 124.134 103.125 124.35 103.572 124.599C106.197 126.114 108.52 128.081 110.432 130.405C111.702 131.972 112.765 133.689 113.596 135.517C113.444 132.688 113.293 129.884 113.115 127.08C109.945 123.599 106.238 120.627 102.129 118.271C101.269 117.775 100.256 116.981 100.585 115.79C100.707 115.406 100.953 115.072 101.287 114.839C101.621 114.606 102.023 114.487 102.433 114.499C102.883 114.526 103.327 114.618 103.749 114.772C104.181 114.923 104.596 115.114 104.99 115.343C107.312 116.69 109.321 118.499 110.888 120.653C111.728 121.796 112.417 123.038 112.938 124.351C112.736 121.447 112.508 118.569 112.255 115.666C109.031 112.17 105.284 109.174 101.142 106.782C100.307 106.311 99.3448 105.517 99.6992 104.301C99.8223 103.921 100.065 103.589 100.392 103.353C100.72 103.116 101.115 102.988 101.522 102.986C101.954 103.003 102.381 103.087 102.787 103.234C103.185 103.396 103.573 103.578 103.952 103.78C106.194 105.076 108.127 106.827 109.622 108.916C110.669 110.379 111.472 111.995 112.002 113.705C111.774 111.224 111.546 108.743 111.267 106.261C107.997 102.736 105.237 98.7869 103.066 94.5239C102.585 93.6306 102.281 92.3651 103.319 91.6703C103.65 91.4568 104.037 91.343 104.433 91.343C104.829 91.343 105.216 91.4568 105.547 91.6703C106.165 92.168 106.673 92.7845 107.04 93.4817C108.792 96.6077 110.119 99.9445 110.989 103.407C110.812 101.795 110.635 100.182 110.432 98.5686C108.045 93.3725 106.4 87.8779 105.547 82.2408C105.344 81.0497 105.547 79.5112 106.939 79.0646C107.399 78.9596 107.88 78.983 108.327 79.1321C108.775 79.2812 109.171 79.5501 109.47 79.9083C109.991 80.6516 110.337 81.4992 110.483 82.3897C111.47 87.5112 111.632 92.7527 110.964 97.9234C110.964 98.7423 111.192 99.5612 111.318 100.405C111.535 96.4514 112.188 92.5327 113.267 88.7174C113.52 87.7744 114.153 86.633 115.419 86.7818C115.808 86.8527 116.17 87.03 116.461 87.2935C116.752 87.5569 116.961 87.8957 117.064 88.2707C117.179 89.0419 117.127 89.8281 116.912 90.5784C115.832 94.9203 114.055 99.0664 111.647 102.862C112.153 106.708 112.584 110.604 112.963 114.475C113.198 112.124 113.742 109.814 114.584 107.601C115.607 104.962 116.968 102.46 118.634 100.157C119.292 99.2386 120.456 98.2709 121.57 98.8664C121.909 99.0852 122.174 99.3977 122.332 99.7644C122.49 100.131 122.533 100.535 122.456 100.926C122.233 101.732 121.874 102.495 121.393 103.184L117.317 109.338C116.001 111.249 114.634 113.234 113.065 115.566C113.293 118.048 113.495 120.405 113.672 122.837C114.635 118.186 116.49 113.756 119.14 109.785C119.747 108.867 120.785 107.899 121.924 108.42C122.278 108.613 122.565 108.905 122.75 109.258C122.935 109.612 123.009 110.011 122.962 110.405C122.792 111.195 122.484 111.951 122.051 112.638C119.595 116.703 116.836 120.584 113.799 124.251C114.027 127.626 114.204 130.976 114.356 134.351C114.498 131.741 115.088 129.174 116.102 126.758C117.229 124.054 118.784 121.542 120.709 119.313C121.469 118.42 122.76 117.552 123.798 118.271C124.11 118.528 124.338 118.871 124.45 119.256C124.563 119.64 124.556 120.049 124.43 120.43C124.138 121.195 123.719 121.908 123.19 122.539C121.57 124.599 120.178 126.46 118.76 128.395C117.343 130.331 115.95 132.341 114.381 134.798C114.381 135.815 114.381 136.807 114.381 137.8C114.392 137.949 114.392 138.098 114.381 138.247C114.381 140.108 114.381 141.994 114.533 143.88C114.93 141.092 115.785 138.385 117.064 135.865C118.549 132.951 120.497 130.287 122.836 127.974C123.772 127.031 125.367 126.137 126.253 126.907C126.552 127.2 126.749 127.579 126.817 127.988C126.885 128.398 126.821 128.818 126.633 129.189C126.198 130.016 125.644 130.777 124.987 131.448C122.988 133.631 121.292 135.666 119.596 137.8C117.9 139.934 116.305 142.043 114.533 144.723C114.533 146.014 114.533 147.205 114.533 148.569C114.543 148.668 114.543 148.768 114.533 148.867C114.533 150.232 114.533 151.597 114.533 152.986C115.244 150.687 116.283 148.498 117.621 146.485C119.482 143.618 121.848 141.097 124.608 139.041C125.721 138.172 127.417 137.477 128.278 138.371C128.526 138.711 128.659 139.119 128.659 139.537C128.659 139.955 128.526 140.363 128.278 140.703C128.003 141.111 127.68 141.486 127.316 141.82C126.962 142.167 126.582 142.515 126.253 142.788C124.101 144.643 122.063 146.624 120.153 148.718C118.263 150.671 116.496 152.734 114.862 154.897V156.411C114.862 158.446 114.862 160.48 114.862 162.54C115.709 159.955 116.983 157.524 118.634 155.344C120.463 152.872 122.675 150.695 125.19 148.892C126.177 148.148 127.721 147.552 128.557 148.47C128.791 148.802 128.916 149.196 128.916 149.599C128.916 150.003 128.791 150.396 128.557 150.728C128.064 151.455 127.448 152.093 126.734 152.614C124.557 154.351 122.659 155.964 120.709 157.577C118.76 159.19 116.938 160.877 114.786 162.987L114.634 169.215C117.474 165.144 121.211 161.752 125.57 159.289C126.456 158.793 127.747 158.421 128.506 159.289C128.709 159.619 128.817 159.996 128.817 160.381C128.817 160.766 128.709 161.144 128.506 161.473C128.042 162.077 127.467 162.591 126.81 162.987C122.923 165.431 118.813 167.516 114.533 169.215C114.533 171.878 114.432 174.533 114.229 177.18C117.19 173.198 121.16 170.041 125.747 168.024C126.734 167.577 128.126 167.354 128.759 168.396C128.947 168.744 129.028 169.138 128.992 169.53C128.956 169.922 128.805 170.295 128.557 170.605C128.021 171.177 127.376 171.641 126.658 171.969C124.456 173.061 122.481 174.029 120.431 174.997L114.204 177.776C114.204 180.257 113.925 182.739 113.748 185.22C115.015 183.452 116.562 181.894 118.33 180.605C120.512 178.986 122.961 177.744 125.57 176.932C126.607 176.585 128.101 176.535 128.531 177.677C128.654 178.044 128.672 178.437 128.583 178.813C128.494 179.189 128.301 179.534 128.025 179.811C127.431 180.309 126.743 180.689 126 180.927C123.747 181.771 121.773 182.59 119.697 183.409C117.621 184.228 115.9 184.972 113.698 186.014C113.495 188.744 113.267 191.473 113.014 194.178C114.373 192.174 116.087 190.426 118.077 189.017C120.175 187.541 122.499 186.402 124.962 185.642C125.949 185.319 127.316 185.27 127.772 186.411C127.908 186.771 127.939 187.161 127.863 187.538C127.787 187.914 127.607 188.263 127.342 188.545C126.782 189.02 126.139 189.39 125.443 189.637L112.786 194.277C112.609 196.114 112.407 197.95 112.204 199.786C113.292 197.852 114.837 196.201 116.71 194.972C119.041 193.435 121.733 192.504 124.532 192.267C125.124 192.218 125.719 192.294 126.278 192.491C126.54 192.59 126.768 192.759 126.938 192.978C127.108 193.197 127.213 193.458 127.24 193.731C127.251 194.117 127.158 194.499 126.972 194.838C126.785 195.178 126.511 195.463 126.177 195.667C125.851 195.844 125.502 195.977 125.139 196.064L124.101 196.287C122.002 196.614 119.941 197.146 117.95 197.875C116.92 198.215 115.913 198.621 114.938 199.091C113.971 199.539 113.032 200.045 112.128 200.605C111.85 202.863 111.571 205.121 111.267 207.354C113.825 204.448 117.21 202.357 120.988 201.349C121.206 201.258 121.442 201.211 121.68 201.212C121.917 201.213 122.152 201.261 122.37 201.354C122.588 201.447 122.785 201.582 122.948 201.752C123.11 201.922 123.236 202.123 123.317 202.342C123.433 202.69 123.463 203.061 123.406 203.423C123.349 203.785 123.206 204.129 122.988 204.426C122.536 204.837 122.001 205.15 121.418 205.345C119.646 205.915 118.051 206.387 116.355 206.809C114.659 207.23 113.141 207.528 111.293 207.925C110.736 211.846 110.128 215.742 109.394 219.613C109.394 220.208 108.23 220.084 108.306 219.464C108.939 214.923 109.546 210.382 110.078 205.841C106.312 205.439 102.522 205.315 98.7373 205.469C98.2826 205.544 97.8155 205.448 97.4303 205.199C97.0451 204.951 96.7704 204.568 96.6616 204.129C96.5624 203.765 96.5691 203.382 96.6809 203.022C96.7928 202.663 97.0054 202.341 97.2945 202.094C97.9141 201.725 98.6204 201.52 99.3448 201.498C101.456 201.397 103.566 201.718 105.547 202.441C107.241 203.097 108.802 204.047 110.154 205.245C110.474 202.681 110.778 200.125 111.065 197.578C106.863 197.205 102.661 196.535 98.7879 195.965C97.9273 195.816 96.8641 195.394 96.8388 194.178C96.8458 193.798 96.9577 193.426 97.1627 193.103C97.3677 192.779 97.6582 192.516 98.0032 192.342C98.7145 192.12 99.4698 192.069 100.206 192.193C104.226 192.739 108.013 194.372 111.141 196.908C111.394 194.426 111.647 192.119 111.875 189.712C107.344 188.297 102.585 186.461 98.0792 185.171Z" fill="#5EAD41"/>
<path fill-rule="evenodd" clip-rule="evenodd" d="M307.047 165.495C293.996 166.794 285.614 176.84 278.151 186.786C278.106 186.949 278.07 187.084 277.838 187.196C277.788 187.288 277.76 187.39 277.757 187.495C275.684 189.457 273.881 191.691 272.395 194.137C273.345 182.252 273.776 170.372 268.049 159.59C267.969 159.428 267.844 159.292 267.69 159.2C267.535 159.107 267.358 159.061 267.178 159.068C266.998 159.074 266.823 159.132 266.674 159.236C266.526 159.339 266.409 159.483 266.338 159.651C260.954 171.994 265.695 184.402 270.698 195.949C270.733 196.044 270.786 196.131 270.855 196.205C270.924 196.278 271.007 196.337 271.099 196.377C269.308 199.879 267.81 203.526 266.623 207.278C266.462 207.875 266.3 208.472 266.138 209.069L265.737 208.96C262.414 194.757 255.554 181.674 245.808 170.949C245.675 170.794 245.494 170.687 245.295 170.644C245.095 170.602 244.886 170.626 244.701 170.714C244.515 170.801 244.362 170.947 244.265 171.13C244.168 171.312 244.131 171.521 244.161 171.726C245.764 185.642 252.321 204.074 265.429 210.944L265.269 210.901C263.328 217.497 261.87 224.226 260.906 231.033L260.746 230.99L260.344 230.881C257.023 216.686 250.173 203.607 240.443 192.877C240.304 192.73 240.124 192.631 239.926 192.592C239.729 192.554 239.524 192.579 239.34 192.663C239.156 192.748 239.003 192.888 238.9 193.064C238.798 193.24 238.752 193.444 238.769 193.647C240.399 207.57 246.929 225.995 260.037 232.865C260.197 232.988 260.399 233.043 260.599 233.018C260.377 234.899 260.157 236.877 259.939 238.954C259.927 239.197 260.008 239.436 260.164 239.621C260.321 239.805 260.542 239.921 260.782 239.945C261.022 239.969 261.263 239.899 261.455 239.75C261.646 239.6 261.775 239.382 261.813 239.141C262.114 235.699 262.555 232.266 263.111 228.835C275.736 224.655 293.529 215.819 299.775 203.156C300.198 202.338 299.215 201.723 298.516 201.97C285.341 206.379 271.541 211.61 263.886 223.746C264.763 219.236 265.885 214.776 267.246 210.388C267.871 208.082 268.71 205.834 269.548 203.586C281.848 201.561 294.865 198.797 302.163 187.554C302.266 187.4 302.322 187.219 302.325 187.033C302.328 186.848 302.277 186.666 302.179 186.509C302.082 186.353 301.941 186.23 301.774 186.154C301.607 186.077 301.422 186.052 301.24 186.081C289.468 187.115 279.811 193.7 270.58 200.838C272.605 195.929 275.756 191.571 279.77 188.127C290.487 183.139 301.047 177.672 307.565 167.295C307.738 167.179 307.87 167.009 307.942 166.812C308.014 166.614 308.021 166.399 307.963 166.197C307.906 165.996 307.785 165.819 307.62 165.693C307.455 165.567 307.254 165.497 307.047 165.495Z" fill="#5EAD41"/>
<path fill-rule="evenodd" clip-rule="evenodd" d="M21.9371 173.329C21.7812 173.409 22.5888 175.027 22.3054 176.298C21.8237 178.451 16.638 178.972 17.389 175.415C17.6298 174.399 18.1682 173.449 18.0974 173.422C17.7303 173.764 17.3156 174.056 16.8647 174.292C13.2801 176.137 10.8148 170.052 15.8588 169.437C16.6806 169.343 16.5247 169.437 15.8588 169.009C15.5471 168.808 15.1078 168.594 14.697 168.354C14.2988 168.114 14.0126 167.739 13.8967 167.307C13.7809 166.874 13.8441 166.417 14.0735 166.027C14.7678 164.85 16.7089 164.034 17.8282 165.064C18.289 165.515 18.7018 166.008 19.0609 166.535C20.4777 168.527 16.9072 163.94 20.5769 162.269C22.1213 161.56 23.949 162.188 23.2547 164.943C23.1454 165.348 23.0081 165.746 22.8438 166.134C22.6313 166.628 22.6597 166.695 23.0847 166.321C23.6293 165.768 24.3337 165.377 25.1108 165.197C26.2018 165.077 27.9445 167.03 27.9445 168.394C27.9445 170.346 26.0743 170.547 24.9124 170.721C23.7506 170.895 23.4956 171.122 24.9124 171.202C25.3896 171.217 25.8641 171.275 26.3293 171.376C30.0839 172.205 26.7969 177.715 23.4956 174.786C22.7022 174.078 22.0787 173.262 22.0787 173.315L21.9371 173.329ZM22.1921 171.443C22.4613 170.881 21.5545 170.788 21.257 171.162C20.9594 171.537 21.8237 172.259 22.1921 171.443ZM19.7126 171.804C20.506 172.312 21.1295 172.393 20.8177 171.296C20.6477 170.56 20.1943 169.624 19.4009 170.36C19.3054 170.468 19.2366 170.595 19.1995 170.731C19.1625 170.868 19.158 171.01 19.1865 171.149C19.215 171.287 19.2757 171.417 19.3642 171.531C19.4528 171.644 19.5669 171.737 19.6984 171.804H19.7126ZM22.1071 170.253C22.8013 169.41 22.1071 168.715 21.3561 169.062C19.7409 169.825 21.2711 171.269 22.1071 170.253ZM20.5627 169.21C21.4553 168.046 19.9393 168.193 19.1459 169.116C18.3524 170.039 19.741 170.306 20.5911 169.21H20.5627Z" fill="#5EAD41"/>
<path fill-rule="evenodd" clip-rule="evenodd" d="M228.897 239.347C228.41 239.942 228.11 240.668 228.033 241.433C227.956 242.197 228.106 242.968 228.465 243.648C228.465 243.648 228.465 243.648 228.601 243.785C229.283 244.132 230.051 244.272 230.812 244.187C231.572 244.102 232.291 243.796 232.879 243.307C233.35 242.821 233.735 242.26 234.017 241.646C234.088 242.312 234.281 242.96 234.586 243.557C235.003 244.204 235.6 244.715 236.304 245.026C237.007 245.338 237.787 245.436 238.546 245.309H238.705C239.249 244.767 239.621 244.076 239.774 243.323C239.928 242.57 239.857 241.789 239.57 241.077C239.254 240.48 238.838 239.941 238.341 239.484C239.01 239.609 239.697 239.609 240.366 239.484C241.106 239.292 241.771 238.884 242.277 238.313C242.784 237.741 243.109 237.032 243.211 236.275C243.234 236.216 243.234 236.151 243.211 236.093C242.867 235.405 242.326 234.835 241.658 234.454C240.99 234.073 240.223 233.899 239.456 233.954C238.797 234.064 238.165 234.296 237.59 234.636C237.913 234.05 238.129 233.41 238.227 232.748C238.272 231.982 238.091 231.22 237.707 230.557C237.322 229.894 236.752 229.358 236.065 229.016C236.007 228.995 235.942 228.995 235.883 229.016C235.425 229.109 234.982 229.262 234.563 229.471C233.782 229.867 233.169 230.531 232.835 231.341C232.501 232.151 232.468 233.054 232.743 233.886C232.222 233.212 231.484 232.74 230.654 232.55C229.824 232.359 228.954 232.461 228.191 232.839C227.776 233.049 227.393 233.317 227.054 233.635C227.043 233.66 227.037 233.687 227.037 233.715C227.037 233.742 227.043 233.769 227.054 233.794C226.928 234.553 227.029 235.331 227.345 236.032C227.661 236.732 228.177 237.324 228.829 237.731C229.428 238.026 230.076 238.211 230.74 238.278C230.138 238.569 229.585 238.953 229.102 239.415L228.897 239.347ZM238.364 244.74C237.737 244.845 237.094 244.765 236.512 244.51C235.931 244.256 235.435 243.838 235.087 243.307C234.419 241.747 234.291 240.009 234.723 238.369C235.288 239.258 235.776 240.194 236.179 241.168C236.233 241.214 236.302 241.24 236.373 241.24C236.444 241.24 236.512 241.214 236.566 241.168C236.6 241.151 236.63 241.127 236.655 241.098C236.679 241.069 236.698 241.036 236.708 240.999C236.719 240.963 236.722 240.925 236.717 240.887C236.712 240.849 236.699 240.813 236.68 240.781L235.337 238.187C235.879 238.479 236.442 238.73 237.021 238.937C237.892 239.502 238.599 240.287 239.069 241.213C239.301 241.803 239.357 242.448 239.232 243.069C239.107 243.691 238.806 244.263 238.364 244.718V244.74ZM239.524 234.454C240.16 234.421 240.791 234.57 241.343 234.885C241.896 235.2 242.347 235.666 242.642 236.229C242.554 236.843 242.293 237.419 241.89 237.89C241.487 238.362 240.959 238.709 240.366 238.892C238.679 239.039 236.991 238.622 235.565 237.709C236.579 237.443 237.615 237.268 238.66 237.185C238.728 237.165 238.787 237.123 238.828 237.065C238.869 237.007 238.89 236.937 238.887 236.867C238.868 236.796 238.826 236.734 238.769 236.689C238.712 236.644 238.642 236.619 238.569 236.616L235.679 237.094C236.135 236.683 236.547 236.226 236.907 235.729C237.698 235.098 238.626 234.661 239.615 234.454H239.524ZM233.221 231.928C233.494 230.176 235.496 229.653 235.861 229.516C236.426 229.804 236.897 230.25 237.216 230.799C237.534 231.348 237.688 231.977 237.658 232.611C237.265 234.255 236.356 235.731 235.064 236.821C235.064 236.821 235.064 237.026 235.496 233.703C235.503 233.669 235.502 233.633 235.494 233.599C235.486 233.565 235.47 233.533 235.449 233.505C235.427 233.477 235.4 233.454 235.369 233.437C235.338 233.42 235.304 233.41 235.269 233.408C235.2 233.399 235.131 233.415 235.073 233.452C235.014 233.49 234.971 233.546 234.95 233.612L234.518 236.503C234.25 235.959 233.946 235.435 233.608 234.932C233.23 233.979 233.097 232.946 233.221 231.928ZM234.518 237.299C234.581 237.267 234.655 237.261 234.723 237.282C234.791 237.303 234.848 237.35 234.882 237.413C234.898 237.446 234.908 237.481 234.911 237.518C234.913 237.555 234.909 237.592 234.897 237.626C234.886 237.661 234.867 237.694 234.843 237.721C234.819 237.749 234.79 237.772 234.757 237.788C234.724 237.805 234.688 237.814 234.652 237.817C234.615 237.82 234.578 237.815 234.543 237.803C234.508 237.792 234.476 237.773 234.448 237.749C234.421 237.725 234.398 237.696 234.381 237.663C234.366 237.63 234.358 237.595 234.356 237.559C234.355 237.522 234.361 237.486 234.373 237.452C234.386 237.419 234.406 237.388 234.43 237.361C234.455 237.335 234.485 237.314 234.518 237.299ZM228.874 237.162C228.562 237.063 228.274 236.897 228.032 236.676C227.789 236.454 227.597 236.184 227.47 235.881C227.342 235.579 227.281 235.253 227.291 234.925C227.301 234.597 227.381 234.275 227.528 233.981C227.674 233.687 227.882 233.429 228.137 233.223C228.392 233.017 228.689 232.868 229.008 232.788C229.326 232.708 229.657 232.697 229.98 232.757C230.303 232.817 230.609 232.945 230.877 233.135C232.334 234.005 233.462 235.333 234.086 236.912C234.086 236.912 234.29 237.049 231.264 235.524C231.218 235.502 231.167 235.49 231.116 235.49C231.065 235.49 231.014 235.502 230.968 235.524C230.926 235.551 230.891 235.588 230.867 235.632C230.844 235.675 230.831 235.724 230.831 235.774C230.84 235.827 230.861 235.878 230.892 235.921C230.924 235.965 230.965 236 231.013 236.025L233.608 237.344C233 237.42 232.399 237.542 231.81 237.709C230.801 237.771 229.793 237.583 228.874 237.162ZM233.858 237.891C233.858 237.891 234.04 237.754 231.582 240.166C231.557 240.192 231.537 240.222 231.523 240.255C231.509 240.288 231.502 240.324 231.502 240.36C231.502 240.396 231.509 240.431 231.523 240.465C231.537 240.498 231.557 240.528 231.582 240.553C231.606 240.582 231.635 240.605 231.669 240.621C231.702 240.636 231.739 240.645 231.776 240.645C231.813 240.645 231.849 240.636 231.883 240.621C231.916 240.605 231.946 240.582 231.969 240.553L234.04 238.482C233.923 239.09 233.862 239.707 233.858 240.326C233.584 241.3 233.085 242.196 232.402 242.943C232.21 243.212 231.963 243.437 231.676 243.601C231.389 243.765 231.07 243.865 230.741 243.894C230.412 243.922 230.08 243.878 229.769 243.766C229.459 243.653 229.176 243.474 228.942 243.241C228.707 243.008 228.526 242.727 228.411 242.417C228.297 242.108 228.251 241.776 228.277 241.447C228.303 241.117 228.4 240.798 228.562 240.51C228.724 240.222 228.947 239.973 229.216 239.779C230.498 238.632 232.139 237.965 233.858 237.891Z" fill="#5EAD41"/>
<path fill-rule="evenodd" clip-rule="evenodd" d="M114.178 209.291C113.692 209.887 113.391 210.612 113.315 211.377C113.238 212.142 113.388 212.912 113.746 213.592L113.883 213.729C114.564 214.076 115.333 214.216 116.093 214.131C116.854 214.046 117.572 213.74 118.161 213.251C118.631 212.765 119.016 212.204 119.299 211.59C119.37 212.256 119.563 212.904 119.868 213.501C120.281 214.151 120.878 214.662 121.584 214.97C122.289 215.278 123.07 215.369 123.827 215.231C123.853 215.241 123.88 215.247 123.907 215.247C123.934 215.247 123.961 215.241 123.987 215.231C124.53 214.688 124.902 213.997 125.056 213.245C125.21 212.492 125.139 211.711 124.851 210.998C124.535 210.401 124.119 209.863 123.623 209.405C124.285 209.519 124.962 209.519 125.625 209.405C127.901 209.018 128.47 206.31 128.493 206.196C128.515 206.138 128.515 206.073 128.493 206.014C128.148 205.327 127.608 204.756 126.939 204.376C126.271 203.995 125.505 203.821 124.738 203.875C124.083 203.988 123.452 204.212 122.872 204.535C123.198 203.958 123.414 203.325 123.509 202.669C123.547 201.891 123.35 201.119 122.944 200.453C122.539 199.788 121.942 199.26 121.233 198.937C121.208 198.926 121.181 198.921 121.153 198.921C121.126 198.921 121.099 198.926 121.074 198.937C120.616 199.03 120.172 199.183 119.754 199.392C118.973 199.789 118.359 200.452 118.025 201.262C117.691 202.072 117.659 202.975 117.933 203.807C117.415 203.13 116.679 202.653 115.849 202.458C115.019 202.263 114.147 202.362 113.382 202.737C112.971 202.963 112.589 203.238 112.244 203.557C112.233 203.582 112.228 203.609 112.228 203.636C112.228 203.664 112.233 203.691 112.244 203.716C112.118 204.474 112.219 205.253 112.535 205.953C112.851 206.654 113.368 207.245 114.019 207.653C114.622 207.937 115.268 208.122 115.931 208.199C115.328 208.49 114.775 208.874 114.292 209.337L114.178 209.291ZM123.645 214.594C123.019 214.698 122.376 214.618 121.794 214.363C121.212 214.109 120.717 213.691 120.368 213.16C119.701 211.6 119.573 209.862 120.004 208.222C120.57 209.111 121.057 210.047 121.461 211.021C121.514 211.067 121.583 211.093 121.654 211.093C121.725 211.093 121.794 211.067 121.847 211.021C121.912 210.983 121.959 210.922 121.981 210.85C122.002 210.778 121.995 210.701 121.961 210.634L120.619 208.04C121.158 208.336 121.722 208.587 122.303 208.791C123.168 209.362 123.874 210.145 124.351 211.066C124.582 211.657 124.639 212.301 124.514 212.922C124.389 213.544 124.087 214.116 123.645 214.571V214.594ZM124.806 204.308C125.441 204.274 126.072 204.423 126.625 204.738C127.178 205.053 127.628 205.519 127.924 206.083C127.835 206.696 127.574 207.272 127.171 207.743C126.769 208.215 126.24 208.562 125.648 208.745C123.954 208.89 122.258 208.474 120.823 207.562C121.849 207.311 122.891 207.137 123.941 207.038C124.003 207.021 124.057 206.983 124.096 206.932C124.135 206.881 124.156 206.818 124.156 206.754C124.156 206.69 124.135 206.627 124.096 206.576C124.057 206.524 124.003 206.487 123.941 206.469L121.051 206.947C121.507 206.536 121.919 206.079 122.28 205.582C123.07 204.951 123.998 204.515 124.988 204.308H124.806ZM118.502 201.782C118.775 200.029 120.778 199.506 121.142 199.369C121.708 199.658 122.178 200.103 122.497 200.652C122.816 201.201 122.97 201.83 122.94 202.464C122.579 204.131 121.693 205.638 120.414 206.765C120.414 206.765 120.414 206.97 120.846 203.648C120.853 203.613 120.852 203.577 120.844 203.543C120.835 203.509 120.82 203.477 120.799 203.449C120.777 203.421 120.75 203.398 120.719 203.381C120.688 203.364 120.654 203.354 120.619 203.352C120.55 203.343 120.48 203.359 120.422 203.397C120.364 203.434 120.321 203.491 120.3 203.557L119.868 206.447C119.6 205.903 119.296 205.379 118.957 204.877C118.58 203.923 118.447 202.891 118.57 201.873L118.502 201.782ZM119.777 207.152C119.809 207.133 119.845 207.12 119.883 207.115C119.921 207.11 119.959 207.113 119.995 207.124C120.032 207.135 120.065 207.153 120.094 207.177C120.123 207.202 120.147 207.232 120.163 207.266C120.18 207.299 120.19 207.335 120.192 207.371C120.195 207.408 120.19 207.445 120.179 207.48C120.167 207.515 120.149 207.547 120.125 207.575C120.101 207.602 120.071 207.625 120.038 207.641C120.005 207.658 119.97 207.668 119.933 207.67C119.896 207.673 119.86 207.668 119.825 207.657C119.79 207.645 119.758 207.627 119.73 207.603C119.702 207.578 119.679 207.549 119.663 207.516C119.618 207.466 119.593 207.401 119.593 207.334C119.593 207.267 119.618 207.202 119.663 207.152H119.777ZM114.156 207.016C113.843 206.916 113.556 206.75 113.313 206.529C113.071 206.308 112.879 206.037 112.751 205.734C112.623 205.432 112.562 205.106 112.572 204.778C112.582 204.45 112.663 204.128 112.809 203.834C112.955 203.541 113.163 203.282 113.418 203.076C113.674 202.87 113.971 202.722 114.289 202.641C114.607 202.561 114.939 202.55 115.262 202.61C115.584 202.67 115.89 202.799 116.158 202.988C117.61 203.865 118.736 205.191 119.367 206.765C119.367 206.765 119.572 206.902 116.545 205.377C116.501 205.349 116.45 205.334 116.397 205.334C116.345 205.334 116.293 205.349 116.249 205.377C116.207 205.404 116.173 205.441 116.149 205.485C116.125 205.529 116.113 205.578 116.113 205.627C116.117 205.682 116.136 205.734 116.168 205.778C116.201 205.823 116.244 205.857 116.295 205.878L118.889 207.198C118.281 207.273 117.68 207.395 117.091 207.562C116.083 207.624 115.074 207.436 114.156 207.016ZM119.139 207.721C119.139 207.721 119.321 207.721 116.864 209.997C116.838 210.022 116.818 210.052 116.804 210.085C116.79 210.119 116.783 210.154 116.783 210.19C116.783 210.226 116.79 210.262 116.804 210.295C116.818 210.328 116.838 210.358 116.864 210.384C116.887 210.412 116.917 210.435 116.95 210.451C116.984 210.467 117.02 210.475 117.057 210.475C117.094 210.475 117.131 210.467 117.164 210.451C117.198 210.435 117.227 210.412 117.251 210.384L119.321 208.313C119.205 208.913 119.144 209.522 119.139 210.133C118.87 211.116 118.371 212.021 117.683 212.773C117.19 213.17 116.596 213.419 115.967 213.492C115.339 213.564 114.703 213.457 114.133 213.183C113.836 212.617 113.713 211.977 113.777 211.342C113.842 210.706 114.092 210.104 114.497 209.61C115.793 208.49 117.428 207.841 119.139 207.767V207.721Z" fill="#5EAD41"/>
<path fill-rule="evenodd" clip-rule="evenodd" d="M255.764 140.365C255.411 139.401 255.064 138.279 254.639 137.153C254.087 135.311 253.309 133.221 252.205 131.355C250.215 128.026 247.169 125.363 242.102 125.537C237.587 125.735 233.953 127.473 231.437 130.763C231.104 131.144 229.975 133.466 232 132.369C232.566 132.077 233.214 131.71 233.938 131.426C238.135 129.475 241.006 128.889 243.336 129.86C246.986 131.364 249.905 136.946 249.893 140.82C249.811 142.714 249.495 144.518 249.271 146.011C249.003 148.529 249.72 150.221 248.286 148.656C247.229 147.503 247.33 145.214 246.829 144.007C245.543 140.867 242.007 136.759 238.188 137.304C235.165 137.725 232.444 140.295 233.394 140.257C233.631 140.267 234.19 140.134 235.079 139.698C237.172 138.841 238.586 139.061 241.014 141.381C243.673 143.869 245.969 151.006 244.154 154.563C243.979 154.951 243.731 155.177 243.567 155.328C242.427 156.069 242.397 154.961 242.51 154.175C242.648 152.837 242.394 151.403 241.825 149.955C241.112 148.184 239.84 146.547 238.303 145.531C235.459 143.668 230.813 145.046 227.69 145.937C226.73 146.212 226.085 146.5 225.999 146.654C225.992 146.812 227.183 146.706 228.764 146.696C236.059 146.224 238.192 149.875 238.76 154.96C238.938 156.312 239.208 162.806 238.281 165.928C237.999 166.944 237.724 167.802 237.014 167.771C236.383 167.743 236.789 165.705 236.614 164.274C236.385 162.288 236.073 160.377 235.353 158.764C234.773 157.553 234.029 156.492 232.876 155.73C232.108 155.222 231.404 155.034 230.694 155.003C225.407 154.771 229.843 156.388 230.886 157.857C234.401 162.438 229.98 173.156 229.184 173.279C228.707 173.337 228.821 170.733 228.005 167.693C227.326 165.133 226.105 162.313 223.423 160.377C219.358 157.511 221.215 167.475 221.293 169.297C221.488 173.891 220.9 178.293 219.15 182.17C217.756 185.113 215.59 187.627 212.337 189.699C209.249 191.62 203.293 194.047 203.261 198.394C203.301 202.903 201.941 208.694 205.525 211.697C207.663 213.45 210.116 213.4 212.631 213.747C213.89 213.881 213.55 214.419 212.514 214.611C209.488 215.111 205.391 214.774 202.365 215.275C200.296 215.579 198.042 216.509 196.203 216.982C195.005 217.246 190.967 217.385 189.622 217.406C183.923 217.552 185.615 216.835 189.118 216.277C193.177 215.664 196.938 214.642 196.872 214.323C196.746 213.606 192.158 215.461 189.091 215.09C186.888 214.835 185.004 214.516 186.123 214.248C188.12 213.782 200.345 212.656 200.722 211.25C200.918 210.389 200.98 208.968 200.85 208.33C200.524 206.734 199.393 205.499 198.209 203.629C194.961 198.348 186.657 191.186 180.478 189.651C179.423 195.692 178.054 196.265 172.931 199.52C170.004 201.368 168.312 202.085 166.96 204.082C166.202 205.155 165.193 206.534 164.859 208.734C164.828 209.444 164.585 209.591 165.285 209.859C167.072 210.57 172.486 211.518 166.787 211.664C165.919 211.626 164.986 211.269 163.562 211.286C157.702 211.504 164.459 217.887 146.942 213.485C141.466 212.139 139.96 212.231 144.561 211.879C146.465 211.725 149.066 211.917 151.042 211.925C152.857 212.004 154.6 211.922 154.858 211.459C155.029 211.15 150.613 210.878 147.158 210.332C145.117 210.005 143.176 209.209 143.179 209.13C142.977 208.331 154.244 209.218 158.972 207.765C163.381 206.376 164.723 202.798 166.334 194.883C166.935 191.984 166.404 189.668 166.037 189.02C164.058 185.454 158.243 182.828 156.237 179.895C153.778 176.466 152.09 173.467 151.038 170.417C150.338 168.331 149.879 166.176 149.746 163.798C149.701 163.006 149.833 158.189 149.129 158C148.426 157.811 148.44 159.314 148.189 159.619C147.602 160.384 145.778 155.086 144.699 149.031C143.304 141.142 143.597 138.072 146.514 131.005C147.932 127.509 151.849 119.3 150.113 115.587C149.174 113.569 147.863 112.8 146.7 114.094C146.367 114.474 146.195 114.783 146.024 115.092C143.868 119.188 137.343 116.531 138.425 111.676C138.92 109.405 141.037 107.996 140.08 106.373C139.349 104.997 136.533 104.32 133.884 105.232C133.726 105.225 133.627 103.877 135.363 102.134C138.013 99.4039 141.914 98.7838 145.726 98.3969C146.12 98.4142 146.45 98.1123 146.227 97.7863C146.155 97.625 146 97.5392 145.849 97.3745C144.21 95.0891 143.13 90.8517 144.922 87.8466C146.713 84.8415 150.853 89.608 151.66 89.2479C151.66 89.2479 151.228 84.6435 154.776 84.8776C155.802 84.9224 156.502 85.1902 156.962 85.5265C158.57 86.7037 157.575 89.5855 158.199 89.7709C159.527 90.1451 160.396 84.7279 165.854 86.4686C167.57 87.0179 168.863 88.1813 168.818 89.2072C168.835 90.631 168.097 91.2312 166.793 92.123C162.888 94.6404 168.828 90.7889 170.371 95.2838C171.712 98.9792 166.575 98.9128 164.42 99.372C162.187 99.8279 162.496 99.9995 163.648 100.761C165.034 101.613 167.737 103.075 170.08 105.549C174.388 110.086 176.048 115.534 177.244 120.726C179.297 129.829 180.126 138.008 192.134 138.217C202.327 138.346 214.221 130.327 215.184 120.961C215.751 115.214 216.753 112.174 218.895 110.212C220.957 108.247 224.083 107.277 229.048 105.833C231.529 105.151 237.55 103.042 231.748 107.374C229.623 108.942 227.081 109.226 225.773 112.015C224.462 114.883 225.502 114.612 227.767 113.446C228.899 112.863 230.192 112.208 231.232 111.937C236.753 110.439 241.107 110.313 244.681 111.735C249.577 113.688 255.994 122.428 257.606 127.163C258.943 130.937 257.985 134.77 257.84 138.084C257.706 141.161 258.558 146.97 256.007 140.217L255.764 140.365Z" fill="#D7B46A"/>
<path fill-rule="evenodd" clip-rule="evenodd" d="M189.303 143.232C164.851 140.108 153.116 162.602 179.631 174.592C188.235 178.526 198.586 178.662 208.245 176.554C212.794 175.567 208.015 174.568 204.609 171.098C209.506 169.415 214.181 172.782 207.993 166.028C202.56 160.098 218.179 166.315 205.957 156.531C205.038 155.858 198.054 151.046 198.507 149.722C200.565 149.654 203.31 150.169 199.087 147.297C196.168 145.351 192.905 144.022 189.224 143.229L189.303 143.232Z" fill="#B28100"/>
<mask id="mask0_182_5357" style="mask-type:alpha" maskUnits="userSpaceOnUse" x="164" y="142" width="47" height="36">
<path fill-rule="evenodd" clip-rule="evenodd" d="M189.303 143.232C164.851 140.108 153.116 162.602 179.631 174.592C188.235 178.526 198.586 178.662 208.245 176.554C212.794 175.567 208.015 174.568 204.609 171.098C209.506 169.415 214.181 172.782 207.993 166.028C202.56 160.098 218.179 166.315 205.957 156.531C205.038 155.858 198.054 151.046 198.507 149.722C200.565 149.654 203.31 150.169 199.087 147.297C196.168 145.351 192.905 144.022 189.224 143.229L189.303 143.232Z" fill="#B28100"/>
</mask>
<g mask="url(#mask0_182_5357)">
<path fill-rule="evenodd" clip-rule="evenodd" d="M168.967 156.338C168.967 156.338 168.167 156.54 167.979 157.244C167.968 157.48 167.955 157.796 168.016 158.194C168.153 158.674 168.298 158.997 168.606 159.169C169.069 159.426 169.632 159.214 170.034 159.073C170.274 159.004 170.517 158.857 170.685 158.627C171.018 158.246 171.046 157.615 170.751 157.128C170.377 156.637 169.681 156.29 168.963 156.417L168.967 156.338ZM168.403 162.006C168.403 162.006 168.396 162.164 168.472 162.246C168.472 162.246 168.55 162.25 168.629 162.253C168.629 162.253 168.629 162.253 168.708 162.257C168.787 162.26 168.877 162.027 168.88 161.948C168.88 161.948 168.804 161.865 168.729 161.783C168.571 161.776 168.492 161.773 168.413 161.769C168.413 161.769 168.413 161.769 168.407 161.927L168.403 162.006ZM173.011 159.677C173.011 159.677 173.011 159.677 173.169 159.684C173.169 159.684 173.327 159.691 173.406 159.695C173.406 159.695 173.488 159.619 173.492 159.54C173.492 159.54 173.492 159.54 173.495 159.461C173.499 159.382 173.344 159.297 173.265 159.293C173.265 159.293 173.186 159.29 173.1 159.444C173.1 159.444 173.09 159.681 173.087 159.76L173.011 159.677ZM173.187 157.471C173.187 157.471 173.187 157.471 173.266 157.475C173.266 157.475 173.345 157.478 173.427 157.403L173.43 157.324C173.43 157.324 173.351 157.32 173.272 157.317C173.272 157.317 173.272 157.317 173.269 157.396C173.266 157.475 173.262 157.554 173.338 157.636L173.187 157.471ZM170.326 154.184C170.326 154.184 170.333 154.026 170.337 153.947C170.337 153.947 170.258 153.944 170.251 154.102L170.247 154.18C170.247 154.18 170.401 154.266 170.48 154.27L170.559 154.273L170.326 154.184ZM166.315 155.511C166.315 155.511 166.157 155.504 166.078 155.5C166.078 155.5 166.078 155.5 166.075 155.579C166.075 155.579 166.071 155.658 166.147 155.741C166.147 155.741 166.147 155.741 166.226 155.744C166.226 155.744 166.387 155.672 166.39 155.593C166.39 155.593 166.394 155.514 166.397 155.435L166.315 155.511ZM165.124 157.435C165.124 157.435 165.124 157.435 164.966 157.428C164.966 157.428 164.809 157.421 164.723 157.576L164.716 157.734C164.716 157.734 164.716 157.734 164.712 157.813C164.788 157.895 164.942 157.981 165.024 157.905C165.024 157.905 165.107 157.83 165.11 157.751C165.117 157.593 165.121 157.514 165.045 157.432L165.124 157.435ZM166.18 160.407C166.18 160.407 166.101 160.403 166.019 160.479C166.016 160.558 166.012 160.637 166.009 160.715C166.009 160.715 166.002 160.873 166.081 160.877C166.081 160.877 166.08 160.877 166.159 160.88C166.317 160.887 166.396 160.89 166.482 160.736C166.482 160.736 166.489 160.578 166.492 160.499C166.496 160.42 166.341 160.335 166.183 160.328L166.18 160.407ZM170.65 161.235C170.65 161.235 170.726 161.317 170.805 161.32L170.884 161.324C170.887 161.245 170.891 161.166 170.894 161.087C170.815 161.084 170.733 161.159 170.729 161.238C170.729 161.238 170.729 161.238 170.726 161.317L170.65 161.235ZM175.211 158.192C175.211 158.192 175.598 158.367 175.756 158.374C176.072 158.388 176.387 158.402 176.635 158.175C176.713 158.179 176.793 158.182 176.871 158.186C176.868 158.265 176.865 158.344 176.861 158.423C176.539 158.567 176.216 158.711 175.821 158.693C175.821 158.693 175.273 158.59 175.043 158.422C174.892 158.257 174.741 158.093 174.669 157.931C173.938 158.374 173.056 158.652 172.267 158.617C171.951 158.603 171.557 158.586 171.248 158.414C171.248 158.414 171.241 158.572 171.159 158.648C171.622 158.905 172.164 159.166 172.792 159.273C172.878 159.118 173.042 158.967 173.2 158.974C173.516 158.988 173.746 159.156 173.814 159.396C173.811 159.475 173.807 159.554 173.804 159.633C173.797 159.791 173.711 159.945 173.55 160.017C173.468 160.093 173.306 160.165 173.148 160.158C172.99 160.151 172.836 160.065 172.764 159.904C172.764 159.904 172.771 159.746 172.696 159.664C172.068 159.557 171.447 159.293 170.987 158.956C170.987 158.956 170.987 158.956 170.905 159.032C171.265 159.838 171.947 160.501 172.723 160.851C173.056 160.47 173.615 160.336 174.164 160.439C174.479 160.453 174.867 160.628 175.176 160.8C175.255 160.803 175.248 160.961 175.166 161.037C175.162 161.116 175.005 161.109 174.929 161.026C174.699 160.858 174.387 160.765 174.074 160.673C173.838 160.662 173.522 160.649 173.286 160.638C173.838 160.662 174.298 160.999 174.675 161.41C174.675 161.41 174.668 161.568 174.665 161.647C174.665 161.647 174.507 161.64 174.428 161.637C174.051 161.225 173.509 160.964 172.956 160.94C173.327 161.51 173.78 162.004 174.397 162.347C174.476 162.35 174.548 162.512 174.387 162.584C174.387 162.584 174.304 162.659 174.225 162.656C173.608 162.313 173.076 161.815 172.706 161.245C172.695 161.482 172.681 161.798 172.674 161.956C172.815 162.357 173.038 162.683 173.265 162.93C173.265 162.93 173.258 163.088 173.254 163.167C173.254 163.167 173.254 163.167 173.175 163.163C173.175 163.163 173.096 163.16 173.017 163.156C172.794 162.83 172.493 162.501 172.356 162.021C172.215 161.619 172.232 161.225 172.404 160.916C171.55 160.562 170.87 159.821 170.431 159.011C170.431 159.011 170.352 159.008 170.27 159.083C170.325 159.639 170.541 160.123 170.76 160.528C170.76 160.528 171.076 160.542 171.151 160.624C171.302 160.789 171.289 161.104 171.203 161.259C171.199 161.338 171.196 161.417 171.038 161.41C170.959 161.406 170.877 161.482 170.719 161.475C170.719 161.475 170.719 161.475 170.64 161.471C170.482 161.464 170.407 161.382 170.335 161.221C170.263 161.059 170.187 160.977 170.273 160.823C170.273 160.823 170.28 160.665 170.359 160.668C170.064 160.181 169.927 159.701 169.79 159.22C169.79 159.22 169.711 159.217 169.632 159.213C169.577 160.476 169.515 161.896 170.094 163.108C170.574 162.971 171.041 163.149 171.655 163.571C171.734 163.575 171.727 163.733 171.645 163.808C171.641 163.887 171.484 163.88 171.408 163.798C171.024 163.544 170.79 163.454 170.478 163.362C170.78 163.691 171 164.096 171.058 164.573C171.054 164.652 171.051 164.731 170.89 164.803C170.811 164.799 170.732 164.796 170.66 164.635C170.681 164.161 170.382 163.753 169.998 163.499C169.988 163.736 169.977 163.972 169.967 164.209C169.953 164.525 170.097 164.847 170.162 165.166C170.159 165.245 170.155 165.324 170.073 165.4C170.073 165.4 169.915 165.393 169.922 165.235C169.857 164.916 169.713 164.593 169.73 164.199C169.737 164.041 169.748 163.804 169.758 163.567C169.676 163.643 169.59 163.797 169.504 163.952C169.411 164.264 169.397 164.579 169.462 164.899C169.459 164.977 169.456 165.056 169.374 165.132C169.374 165.132 169.216 165.125 169.219 165.046C169.078 164.645 169.175 164.253 169.271 163.862C169.363 163.55 169.611 163.324 169.854 163.176C169.196 161.962 169.179 160.538 169.316 159.2L169.158 159.193C168.894 159.814 168.788 160.442 168.757 161.152C168.914 161.159 169.065 161.323 169.134 161.564C169.199 161.883 169.031 162.112 168.787 162.26C168.708 162.257 168.626 162.332 168.547 162.329C168.547 162.329 168.547 162.329 168.468 162.325C168.311 162.318 168.152 162.311 168.08 162.15C168.005 162.068 167.933 161.906 167.861 161.745C167.868 161.587 167.878 161.351 168.04 161.279C168.04 161.279 168.201 161.207 168.283 161.131C168.311 160.5 168.42 159.793 168.685 159.172C168.685 159.172 168.685 159.172 168.606 159.169C167.237 161.56 166.478 164.452 166.594 167.224C166.59 167.303 166.587 167.382 166.429 167.375C166.429 167.375 166.271 167.368 166.278 167.21C166.166 164.359 166.845 161.464 168.297 158.997C168.139 158.99 168.068 158.829 167.992 158.747C167.501 159.12 167.01 159.494 166.671 160.033C166.822 160.198 166.815 160.355 166.725 160.589C166.633 160.901 166.314 160.966 166.077 160.956C165.998 160.952 165.919 160.949 165.84 160.945C165.682 160.938 165.614 160.698 165.542 160.537C165.549 160.379 165.556 160.221 165.563 160.063C165.649 159.909 165.813 159.758 165.971 159.765C166.05 159.769 166.208 159.775 166.287 159.779C166.705 159.244 167.2 158.791 167.69 158.417C167.697 158.259 167.546 158.095 167.474 157.933C166.513 158.208 165.631 158.485 164.743 158.921C164.743 158.921 164.739 159 164.815 159.082C164.962 159.326 164.949 159.641 164.856 159.954C164.849 160.111 164.845 160.19 164.763 160.266C164.76 160.345 164.599 160.417 164.516 160.492C164.351 160.643 164.187 160.794 164.026 160.866C164.026 160.866 164.025 160.866 163.947 160.862C163.947 160.862 163.867 160.859 163.789 160.856C163.789 160.856 163.795 160.698 163.799 160.619C163.96 160.547 164.125 160.396 164.211 160.242C164.211 160.242 164.293 160.166 164.375 160.091C164.375 160.091 164.382 159.933 164.386 159.854C164.393 159.696 164.4 159.538 164.407 159.38C164.07 159.84 163.58 160.214 163.02 160.348C163.02 160.348 162.862 160.341 162.869 160.183C162.873 160.104 162.876 160.025 163.038 159.953C163.518 159.816 164.005 159.521 164.262 159.058L164.266 158.979C163.792 158.958 163.388 159.178 162.983 159.397C162.983 159.397 162.983 159.397 162.904 159.394C162.904 159.394 162.825 159.39 162.746 159.387C162.749 159.308 162.753 159.229 162.756 159.15C163.082 158.927 163.405 158.783 163.803 158.722C163.566 158.711 163.408 158.704 163.172 158.694C162.935 158.684 162.77 158.835 162.685 158.989C162.685 158.989 162.526 158.982 162.448 158.979C162.448 158.979 162.454 158.821 162.458 158.742C162.623 158.591 162.866 158.443 163.107 158.375C163.343 158.385 163.58 158.396 163.816 158.406C163.895 158.409 164.054 158.416 164.132 158.42C164.211 158.423 164.366 158.509 164.441 158.591C165.33 158.156 166.294 157.803 167.333 157.532C167.333 157.532 167.333 157.532 167.337 157.453C166.712 157.267 165.999 157.315 165.364 157.367C165.357 157.524 165.189 157.754 165.028 157.826C165.028 157.826 164.87 157.819 164.791 157.816C164.633 157.809 164.4 157.72 164.328 157.559C164.328 157.559 164.177 157.394 164.181 157.315C164.188 157.157 164.195 156.999 164.201 156.842C164.284 156.766 164.448 156.615 164.606 156.622C164.764 156.629 165.001 156.639 165.08 156.643C165.08 156.643 165.231 156.807 165.227 156.886C165.944 156.76 166.654 156.791 167.279 156.976C167.282 156.897 167.285 156.818 167.289 156.739C166.5 156.705 165.721 156.434 164.946 156.083C164.479 155.905 163.862 155.562 163.491 154.992C163.327 155.143 163.165 155.215 163.008 155.208C163.008 155.208 162.85 155.201 162.771 155.198C162.613 155.191 162.455 155.184 162.298 155.177C161.982 155.163 161.752 154.995 161.522 154.827C161.443 154.823 161.45 154.666 161.532 154.59C161.536 154.511 161.694 154.518 161.769 154.601C161.999 154.769 162.232 154.858 162.465 154.947C162.702 154.958 162.857 155.043 163.018 154.971C163.176 154.978 163.337 154.906 163.423 154.752C163.423 154.752 163.423 154.752 163.344 154.748C162.871 154.728 162.486 154.474 162.336 154.309C162.26 154.227 162.109 154.062 162.04 153.822C162.044 153.743 162.047 153.664 162.209 153.592C162.288 153.595 162.367 153.599 162.439 153.76C162.439 153.76 162.431 153.918 162.586 154.004C162.891 154.254 163.203 154.347 163.44 154.357C163.44 154.357 163.451 154.121 163.221 153.952C163.07 153.788 162.84 153.619 162.61 153.451C162.531 153.448 162.538 153.29 162.62 153.215C162.624 153.136 162.782 153.143 162.857 153.225C163.087 153.393 163.317 153.561 163.543 153.808C163.543 153.808 163.694 153.973 163.766 154.134C163.766 154.134 163.766 154.134 163.77 154.055C163.78 153.819 163.636 153.496 163.406 153.328C163.406 153.328 163.413 153.17 163.417 153.091C163.417 153.091 163.574 153.098 163.653 153.102C163.879 153.349 164.102 153.675 164.089 153.99C164.082 154.148 164.075 154.306 164.071 154.385C164.064 154.543 163.982 154.618 163.897 154.773C163.897 154.773 163.897 154.773 163.893 154.851C164.188 155.339 164.73 155.6 165.197 155.778C165.896 156.046 166.675 156.317 167.464 156.352C167.468 156.273 167.471 156.194 167.553 156.118C167.087 155.94 166.62 155.761 166.24 155.428L166.078 155.5C166.078 155.5 166.078 155.5 165.999 155.497C165.92 155.494 165.763 155.487 165.691 155.325C165.615 155.243 165.543 155.082 165.547 155.003C165.553 154.845 165.56 154.687 165.643 154.612C165.643 154.612 165.725 154.536 165.808 154.461C165.965 154.468 166.281 154.481 166.432 154.646C166.504 154.807 166.576 154.969 166.411 155.12C166.792 155.453 167.259 155.631 167.725 155.81C167.725 155.81 167.807 155.734 167.89 155.659C167.588 155.329 167.369 154.924 167.307 154.526C167.149 154.519 167.07 154.516 166.988 154.591C166.988 154.591 166.987 154.591 166.909 154.588C166.672 154.578 166.439 154.488 166.209 154.32C166.058 154.155 165.828 153.987 165.681 153.744C165.684 153.665 165.688 153.586 165.691 153.507C165.691 153.507 165.849 153.514 165.928 153.517C166.075 153.761 166.226 153.926 166.381 154.011C166.532 154.176 166.768 154.186 166.926 154.193C166.926 154.193 167.005 154.197 167.084 154.2C167.084 154.2 166.775 154.029 166.624 153.864C166.473 153.699 166.322 153.535 166.254 153.294C166.257 153.215 166.261 153.137 166.343 153.061C166.422 153.064 166.501 153.068 166.573 153.229C166.566 153.387 166.72 153.473 166.792 153.634C166.868 153.716 167.022 153.802 167.177 153.888C167.187 153.651 167.043 153.329 166.892 153.164C166.892 153.164 166.899 153.006 166.902 152.927C166.902 152.927 167.06 152.934 167.139 152.938C167.362 153.264 167.423 153.662 167.489 153.981C167.574 153.826 167.581 153.669 167.585 153.59C167.592 153.432 167.599 153.274 167.527 153.113C167.53 153.034 167.534 152.955 167.695 152.883C167.774 152.886 167.853 152.89 167.925 153.051C167.918 153.209 167.986 153.449 167.979 153.607C167.969 153.844 167.959 154.08 167.794 154.231C167.794 154.231 167.629 154.382 167.547 154.458C167.687 154.859 167.832 155.182 168.133 155.511C168.133 155.511 168.374 155.443 168.535 155.371L168.693 155.378C168.425 154.259 168.477 153.075 168.838 152.063C168.68 152.056 168.45 151.888 168.299 151.723C167.918 151.391 167.702 150.907 167.726 150.354C167.73 150.275 167.733 150.197 167.891 150.203C167.97 150.207 168.049 150.21 168.042 150.368C168.025 150.763 168.244 151.168 168.467 151.494C168.467 151.494 168.621 151.579 168.697 151.662C168.563 151.103 168.584 150.629 168.608 150.077C168.611 149.998 168.694 149.922 168.773 149.926C168.852 149.929 168.927 150.012 168.924 150.09C168.9 150.643 168.875 151.195 169.088 151.758C169.342 151.374 169.442 150.904 169.463 150.43C169.466 150.351 169.469 150.272 169.627 150.279C169.706 150.283 169.785 150.286 169.778 150.444C169.754 150.996 169.654 151.466 169.397 151.93C169.397 151.93 169.476 151.933 169.554 151.936C169.633 151.94 169.795 151.868 169.96 151.717C170.121 151.645 170.207 151.491 170.289 151.415C170.292 151.336 170.457 151.185 170.464 151.027C170.468 150.949 170.471 150.87 170.629 150.877C170.708 150.88 170.783 150.962 170.78 151.041C170.769 151.278 170.762 151.436 170.515 151.662C170.429 151.817 170.265 151.967 170.103 152.04C169.939 152.19 169.778 152.262 169.62 152.256C169.462 152.249 169.304 152.242 169.146 152.235C169.146 152.235 169.067 152.231 168.988 152.228C168.628 153.24 168.655 154.427 168.847 155.463C168.847 155.463 168.847 155.463 168.926 155.467C168.947 154.993 168.971 154.441 169.149 153.974C169.149 153.974 168.995 153.889 168.998 153.81C168.926 153.648 168.933 153.491 169.019 153.336C169.026 153.178 169.187 153.106 169.27 153.031C169.428 153.038 169.589 152.966 169.664 153.048C169.664 153.048 169.822 153.055 169.815 153.213C169.966 153.378 170.035 153.618 169.788 153.844C169.702 153.998 169.54 154.07 169.382 154.064C169.204 154.53 169.101 155.079 169.159 155.556C169.238 155.559 169.317 155.563 169.392 155.645C169.674 154.63 170.264 153.786 171.009 153.028C171.016 152.87 170.941 152.788 170.869 152.626C170.879 152.39 170.889 152.153 170.982 151.841C171.074 151.528 171.329 151.144 171.734 150.925C171.734 150.925 171.892 150.932 171.97 150.935C172.049 150.939 171.964 151.093 171.96 151.172C171.634 151.395 171.462 151.704 171.373 151.937C171.363 152.174 171.274 152.407 171.267 152.565C171.267 152.565 171.26 152.723 171.256 152.801C171.517 152.259 171.929 151.882 172.337 151.584C172.337 151.584 172.495 151.591 172.574 151.594C172.653 151.597 172.567 151.752 172.563 151.831C172.238 152.054 171.908 152.356 171.651 152.819C172.124 152.839 172.529 152.62 172.859 152.318C172.859 152.318 173.016 152.325 173.095 152.328C173.095 152.328 173.088 152.486 173.085 152.565C172.673 152.942 172.107 153.234 171.555 153.21C171.63 153.292 171.784 153.378 171.942 153.385C172.337 153.402 172.817 153.265 173.068 152.96C173.068 152.96 173.229 152.888 173.305 152.97C173.305 152.97 173.377 153.131 173.294 153.207C173.04 153.591 172.556 153.807 172.083 153.786C172.083 153.786 171.925 153.779 171.846 153.776C171.531 153.762 171.304 153.515 171.078 153.268C170.336 153.947 169.825 154.794 169.543 155.81C169.698 155.896 169.849 156.06 170.003 156.146C170.326 156.002 170.655 155.7 170.906 155.395C170.916 155.158 170.926 154.922 170.937 154.685C171.026 154.452 171.269 154.304 171.355 154.15C171.355 154.15 171.513 154.157 171.592 154.16C171.592 154.16 171.585 154.318 171.582 154.397C171.417 154.548 171.252 154.699 171.167 154.853C171.16 155.011 171.074 155.165 171.146 155.327C171.153 155.169 171.235 155.093 171.317 155.018C171.403 154.863 171.568 154.713 171.733 154.562C171.733 154.562 171.89 154.568 171.969 154.572C171.969 154.572 171.962 154.73 171.959 154.809C171.794 154.96 171.712 155.035 171.626 155.189C171.626 155.189 171.626 155.189 171.623 155.268C171.86 155.279 172.182 155.135 172.347 154.984C172.347 154.984 172.505 154.991 172.584 154.994C172.584 154.994 172.577 155.152 172.573 155.231C172.326 155.457 172.004 155.601 171.688 155.587C171.767 155.591 171.846 155.594 172.003 155.601C172.319 155.615 172.481 155.543 172.645 155.392C172.645 155.392 172.803 155.399 172.882 155.402C172.961 155.406 172.875 155.56 172.871 155.639C172.628 155.787 172.384 155.934 171.99 155.917C171.99 155.917 171.911 155.913 171.832 155.91C171.674 155.903 171.516 155.896 171.358 155.889C171.2 155.882 171.129 155.721 170.974 155.635C170.724 155.941 170.394 156.242 170.072 156.386C170.144 156.548 170.216 156.709 170.209 156.867C170.683 156.888 171.159 156.829 171.64 156.692C171.64 156.692 171.653 156.377 171.814 156.305C172.058 156.157 172.292 156.246 172.446 156.332C172.446 156.332 172.6 156.418 172.597 156.497C172.59 156.655 172.583 156.813 172.58 156.891C172.576 156.97 172.411 157.121 172.332 157.118C172.332 157.118 172.175 157.111 172.096 157.107C172.096 157.107 171.938 157.101 171.859 157.097C171.859 157.097 171.784 157.015 171.708 156.932C171.228 157.07 170.751 157.128 170.199 157.104C170.195 157.183 170.188 157.34 170.185 157.419C171.276 157.783 172.552 157.523 173.448 156.929C173.317 156.291 173.506 155.588 174 155.135C174 155.135 174.158 155.142 174.237 155.145C174.237 155.145 174.23 155.303 174.227 155.382C173.898 155.684 173.715 156.23 173.773 156.706C173.773 156.706 173.774 156.706 173.852 156.71C174.017 156.559 174.178 156.487 174.264 156.333C174.347 156.257 174.594 156.031 174.673 156.034L174.751 156.038C174.751 156.038 174.748 156.117 174.744 156.195C174.738 156.353 174.577 156.425 174.415 156.497C174.251 156.648 174.086 156.799 173.921 156.95C173.921 156.95 173.921 156.95 173.839 157.026C173.839 157.026 173.918 157.029 173.997 157.032C174.47 157.053 174.868 156.991 175.276 156.693C175.276 156.693 175.434 156.7 175.513 156.703C175.513 156.703 175.506 156.861 175.503 156.94C175.098 157.16 174.617 157.297 174.223 157.279C174.223 157.279 174.223 157.279 174.144 157.276C174.144 157.276 174.065 157.273 173.986 157.269C173.986 157.269 174.058 157.43 174.137 157.434L175.211 158.192Z" fill="#845B00"/>
<path fill-rule="evenodd" clip-rule="evenodd" d="M179.614 167.792C179.614 167.792 178.989 167.607 179.007 167.212C179.017 166.975 179.185 166.745 179.425 166.677C179.662 166.687 179.977 166.701 180.214 166.711C180.996 166.904 181.696 167.172 182.314 167.515C182.852 167.855 183.312 168.191 183.84 168.767C183.878 167.899 183.916 167.031 183.875 166.16C182.469 165.782 181.144 165.329 179.82 164.876C179.504 164.862 179.199 164.611 179.296 164.22C179.306 163.984 179.553 163.757 179.711 163.764C179.947 163.774 180.263 163.788 180.421 163.795C181.124 163.984 181.741 164.327 182.359 164.67C182.898 165.01 183.354 165.426 183.807 165.92C183.838 165.209 183.865 164.578 183.817 163.865C182.424 163.171 181.028 162.557 179.701 162.182C179.385 162.169 179.08 161.918 179.097 161.524C179.107 161.287 179.354 161.06 179.512 161.067C179.749 161.078 180.065 161.091 180.301 161.102C181.08 161.373 181.776 161.72 182.39 162.142C182.929 162.482 183.382 162.976 183.752 163.545C183.787 162.756 183.742 161.964 183.698 161.171C182.384 160.481 180.988 159.867 179.657 159.571C179.341 159.558 179.035 159.307 179.049 158.991C179.06 158.755 179.228 158.525 179.468 158.456C179.705 158.467 180.021 158.481 180.257 158.491C181.039 158.683 181.736 159.03 182.347 159.531C182.885 159.871 183.259 160.361 183.708 160.934C183.739 160.224 183.609 159.586 183.561 158.872C183.561 158.872 183.564 158.794 183.568 158.715C182.096 158.018 180.549 157.239 179.071 156.7C178.759 156.607 178.374 156.353 178.388 156.037C178.398 155.801 178.642 155.653 178.882 155.585C179.119 155.595 179.514 155.612 179.668 155.698C180.522 156.052 181.218 156.398 181.829 156.899C182.364 157.318 182.896 157.816 183.421 158.471C183.452 157.761 183.325 157.044 183.273 156.409C182.659 155.987 182.045 155.565 181.428 155.221C180.735 154.796 179.963 154.367 179.185 154.096C178.876 153.924 178.488 153.749 178.584 153.358C178.595 153.121 178.838 152.974 179.078 152.905C179.315 152.915 179.709 152.933 179.86 153.097C180.715 153.451 181.404 153.955 181.932 154.532C182.389 154.947 182.763 155.438 183.054 156.004C182.934 155.129 182.896 154.179 182.777 153.304C182.245 152.806 181.631 152.384 181.017 151.962C180.327 151.457 179.556 151.028 178.78 150.678C178.472 150.507 178.087 150.253 178.18 149.94C178.19 149.704 178.513 149.56 178.75 149.57C178.908 149.577 179.065 149.584 179.144 149.587C179.302 149.594 179.456 149.68 179.532 149.762C180.383 150.195 181.072 150.699 181.676 151.358C182.053 151.77 182.427 152.261 182.719 152.827C182.595 152.031 182.554 151.159 182.431 150.363C181.367 149.368 180.218 148.527 179.055 148.002C178.822 147.913 178.517 147.662 178.534 147.268C178.545 147.031 178.788 146.884 179.028 146.815C179.107 146.819 179.265 146.825 179.423 146.832C179.581 146.839 179.656 146.922 179.81 147.007C180.586 147.358 181.117 147.855 181.646 148.432C181.869 148.758 182.092 149.084 182.311 149.489C182.191 148.614 182.068 147.818 181.948 146.943C180.885 145.947 179.736 145.107 178.573 144.581C178.339 144.492 178.034 144.242 178.127 143.929C178.137 143.693 178.381 143.545 178.621 143.477C178.7 143.48 178.857 143.487 179.015 143.494C179.173 143.501 179.252 143.504 179.403 143.669C180.099 144.016 180.71 144.517 181.159 145.09C181.457 145.498 181.756 145.907 181.969 146.469C181.842 145.752 181.715 145.035 181.588 144.318C180.522 143.402 179.705 142.18 178.964 141.041C178.817 140.797 178.676 140.396 179.002 140.173C179.167 140.022 179.483 140.036 179.634 140.2C179.788 140.286 180.014 140.533 180.086 140.695C180.676 141.669 181.115 142.479 181.465 143.522C181.407 143.045 181.27 142.565 181.212 142.088C180.406 140.629 179.847 138.945 179.442 137.346C179.377 137.027 179.398 136.553 179.799 136.413C180.043 136.265 180.351 136.437 180.581 136.605C180.732 136.77 180.876 137.092 180.945 137.332C181.353 138.852 181.452 140.201 181.379 141.858C181.369 142.095 181.517 142.338 181.506 142.575C181.479 141.388 181.61 140.208 181.816 139.11C181.83 138.794 182.002 138.485 182.396 138.503C182.633 138.513 182.862 138.681 182.931 138.921C182.999 139.162 182.91 139.395 182.9 139.632C182.683 140.966 182.32 142.057 181.63 143.371C181.897 144.49 182.085 145.605 182.27 146.799C182.301 146.088 182.329 145.457 182.597 144.757C182.868 143.979 183.143 143.121 183.568 142.428C183.74 142.119 184.069 141.817 184.378 141.989C184.611 142.078 184.677 142.397 184.67 142.555C184.66 142.792 184.491 143.022 184.402 143.255C184.055 143.951 183.712 144.569 183.369 145.186C183.026 145.804 182.682 146.421 182.257 147.114C182.383 147.831 182.51 148.548 182.558 149.262C182.696 147.924 183.231 146.524 183.839 145.286C184.01 144.977 184.261 144.672 184.57 144.844C184.807 144.854 184.951 145.176 184.94 145.413C184.93 145.65 184.84 145.883 184.751 146.116C184.14 147.434 183.543 148.436 182.616 149.739C182.733 150.693 182.846 151.726 182.962 152.679C182.993 151.969 183.028 151.18 183.299 150.401C183.57 149.623 184.002 148.772 184.503 148.161C184.675 147.853 185.08 147.633 185.389 147.805C185.622 147.894 185.687 148.213 185.598 148.446C185.588 148.683 185.42 148.913 185.255 149.064C184.833 149.678 184.49 150.295 184.146 150.913C183.803 151.53 183.381 152.144 183.031 152.92C183.017 153.235 183.086 153.475 183.151 153.795C183.151 153.795 183.147 153.873 183.144 153.952C183.199 154.508 183.253 155.064 183.308 155.62C183.342 154.831 183.538 153.97 183.888 153.194C184.245 152.261 184.753 151.493 185.419 150.731C185.67 150.426 186.078 150.128 186.383 150.378C186.613 150.546 186.603 150.783 186.514 151.016C186.503 151.253 186.253 151.558 186.088 151.709C185.584 152.399 185.083 153.009 184.657 153.702C184.235 154.316 183.809 155.009 183.377 155.86C183.359 156.255 183.421 156.653 183.486 156.972C183.469 157.366 183.53 157.764 183.592 158.162C183.699 157.534 183.966 156.835 184.31 156.217C184.746 155.287 185.412 154.526 186.153 153.847C186.482 153.545 186.887 153.325 187.192 153.576C187.343 153.741 187.329 154.056 187.24 154.29C187.237 154.368 187.072 154.519 186.99 154.595C186.904 154.749 186.821 154.825 186.739 154.9C186.08 155.504 185.579 156.114 185.074 156.804C184.573 157.415 184.151 158.029 183.647 158.718C183.64 158.876 183.633 159.034 183.626 159.192C183.599 159.823 183.732 160.382 183.705 161.013C183.897 160.231 184.165 159.531 184.669 158.842C185.177 158.073 185.761 157.387 186.42 156.784C186.667 156.557 187.151 156.341 187.377 156.588C187.528 156.753 187.593 157.072 187.428 157.223C187.339 157.456 187.092 157.683 186.927 157.834C186.351 158.362 185.853 158.894 185.277 159.422C184.779 159.953 184.281 160.485 183.698 161.171C183.67 161.802 183.725 162.358 183.777 162.993C184.463 161.758 185.54 160.619 186.68 159.878C186.923 159.731 187.325 159.59 187.548 159.916C187.699 160.081 187.685 160.397 187.599 160.551C187.513 160.705 187.266 160.932 187.184 161.007C186.041 161.827 185.146 162.42 183.773 163.072C183.739 163.861 183.862 164.657 183.827 165.446C184.514 164.211 185.746 163.158 186.96 162.5C187.204 162.352 187.605 162.212 187.828 162.538C187.979 162.702 187.965 163.018 187.801 163.169C187.715 163.323 187.468 163.55 187.307 163.622C186.658 163.989 186.171 164.284 185.601 164.654C185.035 164.946 184.548 165.241 183.899 165.607C183.868 166.318 183.913 167.11 183.961 167.824C184.301 167.285 184.715 166.829 185.21 166.376C185.786 165.848 186.517 165.406 187.241 165.121C187.564 164.977 187.958 164.994 188.103 165.317C188.171 165.557 188.082 165.79 188.075 165.948C187.91 166.099 187.667 166.246 187.505 166.319C186.86 166.607 186.294 166.898 185.728 167.19C185.24 167.484 184.678 167.697 184.029 168.064C183.995 168.853 183.96 169.642 184.001 170.514C184.344 169.896 184.842 169.365 185.415 168.915C185.988 168.466 186.64 168.02 187.364 167.735C187.608 167.588 188.002 167.605 188.225 167.931C188.294 168.171 188.205 168.405 188.198 168.562C188.112 168.717 187.868 168.864 187.707 168.936C186.496 169.516 185.528 169.948 184.155 170.6C184.131 171.152 184.107 171.704 184.083 172.257C184.344 171.715 184.763 171.18 185.257 170.727C185.912 170.202 186.636 169.917 187.433 169.794C187.59 169.801 187.748 169.808 187.906 169.815C188.064 169.822 188.215 169.986 188.208 170.144C188.197 170.381 188.108 170.614 187.943 170.765C187.943 170.765 187.782 170.837 187.621 170.909C187.542 170.906 187.384 170.899 187.302 170.974C186.664 171.104 186.101 171.317 185.534 171.609C185.291 171.756 184.968 171.9 184.725 172.048C184.481 172.195 184.237 172.342 183.911 172.565C183.884 173.197 183.853 173.907 183.825 174.538C184.419 173.615 185.476 172.95 186.519 172.6C186.759 172.532 187.075 172.546 187.219 172.868C187.288 173.108 187.198 173.342 187.191 173.499C187.106 173.654 186.866 173.722 186.783 173.798C186.299 174.014 185.819 174.151 185.335 174.367C184.854 174.504 184.453 174.645 183.894 174.778C183.842 175.962 183.791 177.146 183.584 178.244C183.578 178.401 183.262 178.388 183.269 178.23C183.327 176.888 183.386 175.547 183.444 174.205C182.261 174.154 181.153 174.184 180.199 174.301C179.962 174.29 179.646 174.276 179.581 173.957C179.513 173.717 179.602 173.484 179.688 173.33C179.853 173.179 180.093 173.11 180.251 173.117C180.885 173.066 181.517 173.093 182.065 173.196C182.532 173.375 182.999 173.553 183.458 173.89C183.493 173.101 183.524 172.39 183.558 171.601C182.375 171.55 181.112 171.494 180.007 171.446C179.77 171.436 179.459 171.343 179.397 170.945C179.407 170.708 179.496 170.475 179.658 170.403C179.819 170.331 180.138 170.266 180.296 170.273C181.558 170.328 182.491 170.685 183.565 171.443C183.596 170.733 183.627 170.023 183.658 169.313C182.255 168.856 180.852 168.4 179.518 168.183L179.614 167.792Z" fill="#845B00"/>
<path fill-rule="evenodd" clip-rule="evenodd" d="M201.38 152.773C201.105 153.63 200.83 154.488 200.556 155.346C200.364 154.309 199.928 153.421 199.252 152.6C198.652 151.863 196.975 150.445 195.99 151.272C195.009 152.02 195.873 153.955 196.391 154.768C197.204 156.069 198.589 156.92 200.078 157.222C199.601 159.099 199.12 161.054 198.801 162.938C198.533 161.819 197.944 160.845 197.11 160.018C196.427 159.355 194.664 158.092 193.83 159.084C193.079 160 193.957 161.619 194.478 162.354C195.449 163.661 196.917 164.437 198.57 164.588C198.23 166.945 198.044 169.388 198.02 171.759C197.588 170.791 196.915 169.892 195.993 169.298C195.224 168.79 193.214 167.754 192.531 168.91C191.851 169.987 193.282 171.631 194.043 172.296C195.186 173.295 196.592 173.673 198.099 173.58C198.16 175.797 198.3 178.017 198.519 180.24C198.083 179.351 197.404 178.61 196.639 178.023C195.716 177.429 194.08 176.884 193.246 177.875C192.33 178.942 193.458 180.256 194.295 181.004C195.592 182.089 197.156 182.473 198.827 182.23C199.067 183.98 199.461 185.815 199.859 187.572C199.921 187.97 200.559 187.84 200.418 187.439C199.942 185.678 199.626 183.846 199.311 182.014C200.817 181.922 202.186 181.349 203.185 180.207C203.933 179.37 204.863 177.987 203.961 176.92C203.134 175.935 201.673 176.82 200.856 177.417C200.036 178.093 199.367 178.933 199.006 179.945C198.784 177.801 198.644 175.581 198.582 173.364C200.161 173.433 201.608 172.864 202.761 171.808C203.585 171.053 204.512 169.75 203.692 168.607C202.948 167.547 201.404 168.507 200.59 169.025C199.774 169.622 199.108 170.383 198.675 171.234C198.776 168.945 198.872 166.736 199.209 164.458C200.698 164.76 202.214 164.431 203.436 163.615C204.249 163.097 205.9 161.509 205.08 160.366C204.329 159.464 202.483 160.094 201.673 160.533C200.863 160.972 200.126 161.573 199.618 162.341C199.93 160.615 200.325 158.814 200.796 157.095C202.357 157.559 204.103 157.398 205.489 156.431C206.302 155.913 207.867 154.479 207.123 153.419C206.451 152.52 204.533 152.989 203.647 153.346C202.762 153.703 201.946 154.299 201.359 155.064C201.548 154.361 201.815 153.661 202.086 152.882C202.182 152.491 201.637 152.309 201.541 152.7L201.38 152.773ZM204.542 154.571C203.499 154.921 202.371 155.425 201.317 156.011C201.657 155.473 202.072 155.017 202.645 154.567C203.38 154.046 204.834 153.319 205.692 153.593C207.72 154.236 204.872 156.088 204.227 156.376C203.259 156.808 202.23 156.842 201.29 156.643C202.347 155.977 203.637 155.401 204.759 155.055C205.081 154.911 204.786 154.424 204.463 154.568L204.542 154.571ZM200.638 157.088C200.638 157.088 200.717 157.092 200.796 157.095C200.796 157.095 200.717 157.092 200.638 157.088ZM197.314 153.544C198.144 154.449 199.049 155.438 199.711 156.574C198.775 156.295 197.848 155.781 197.173 154.96C196.799 154.47 195.029 151.546 196.999 151.711C197.867 151.749 198.837 153.057 199.283 153.709C199.65 154.357 199.935 155.081 199.982 155.795C199.314 154.817 198.562 153.914 197.729 153.087C197.503 152.84 197.012 153.214 197.317 153.465L197.314 153.544ZM202.65 161.683C201.604 162.112 200.551 162.698 199.573 163.367C199.919 162.67 200.417 162.139 200.99 161.689C201.645 161.165 202.942 160.431 203.879 160.709C205.835 161.19 203.134 163.285 202.486 163.652C201.593 164.167 200.561 164.28 199.538 164.156C200.52 163.408 201.734 162.75 202.863 162.246C203.186 162.102 202.894 161.535 202.568 161.758L202.65 161.683ZM195.398 161.208C196.31 162.038 197.298 162.951 198.042 164.012C197.102 163.812 196.248 163.459 195.566 162.796C194.958 162.216 193.833 160.823 194.111 159.887C194.571 158.405 196.925 160.642 197.223 161.05C197.748 161.706 198.108 162.512 198.231 163.308C197.559 162.409 196.65 161.5 195.813 160.752C195.507 160.501 195.096 160.878 195.401 161.129L195.398 161.208ZM201.654 170.02C200.676 170.689 199.698 171.358 198.792 172.188C199.063 171.409 199.489 170.716 200.148 170.112C200.724 169.584 202.923 168.099 203.338 169.461C203.616 170.343 202.302 171.471 201.729 171.921C200.912 172.517 199.951 172.792 199.001 172.829C199.831 171.917 200.974 171.097 201.952 170.428C202.278 170.205 201.983 169.718 201.661 169.862L201.654 170.02ZM194.345 170.807C195.423 171.487 196.496 172.245 197.405 173.155C196.458 173.113 195.522 172.835 194.754 172.327C194.291 172.07 193.913 171.658 193.615 171.25C193.388 171.003 192.716 170.104 192.891 169.716C193.07 169.25 193.79 169.044 194.178 169.219C194.336 169.226 194.569 169.315 194.723 169.401C195.265 169.662 195.729 169.919 196.185 170.334C196.792 170.914 197.313 171.649 197.519 172.369C196.685 171.542 195.608 170.863 194.685 170.269C194.377 170.097 194.04 170.557 194.349 170.728L194.345 170.807ZM197.783 173.567C197.783 173.567 197.779 173.646 197.855 173.728C197.855 173.728 197.697 173.721 197.704 173.563L197.783 173.567ZM201.919 178.412C201.02 179.084 200.115 179.914 199.288 180.748C199.476 180.045 199.741 179.424 200.159 178.889C200.66 178.278 202.397 176.535 203.309 177.366C204.143 178.193 202.65 179.788 202.073 180.316C201.332 180.995 200.368 181.349 199.414 181.465C200.248 180.474 201.236 179.568 202.218 178.82C202.544 178.598 202.167 178.186 201.841 178.409L201.919 178.412ZM194.748 179.68C195.829 180.281 197.064 180.967 197.976 181.798C197.026 181.835 196.004 181.711 195.16 181.121C194.467 180.695 192.104 178.695 193.95 178.064C194.914 177.711 196.142 178.555 196.749 179.135C197.277 179.711 197.723 180.363 198.007 181.087C197.092 180.336 196.011 179.735 195.009 179.138C194.7 178.966 194.364 179.426 194.673 179.598L194.748 179.68ZM198.433 182.213C198.433 182.213 198.512 182.216 198.587 182.299C198.587 182.299 198.508 182.295 198.433 182.213Z" fill="#845B00"/>
<path fill-rule="evenodd" clip-rule="evenodd" d="M205.028 167.005C205.501 167.026 205.834 166.645 205.851 166.251C205.869 165.856 205.491 165.444 205.097 165.427C204.702 165.41 204.29 165.787 204.273 166.182C204.256 166.576 204.633 166.988 205.028 167.005Z" fill="#845B00"/>
<path fill-rule="evenodd" clip-rule="evenodd" d="M174.419 167.249C174.893 167.27 175.226 166.889 175.243 166.495C175.26 166.1 174.883 165.688 174.488 165.671C174.094 165.654 173.682 166.031 173.665 166.426C173.647 166.82 174.025 167.232 174.419 167.249Z" fill="#845B00"/>
<path fill-rule="evenodd" clip-rule="evenodd" d="M176.524 151.687C175.934 150.712 175.344 149.738 174.589 148.914C174.596 148.756 174.682 148.602 174.768 148.448C174.771 148.369 174.778 148.211 174.785 148.053C174.799 147.737 174.655 147.415 174.587 147.175C174.443 146.852 174.216 146.605 173.907 146.433C173.828 146.43 173.671 146.423 173.588 146.499C173.585 146.577 173.578 146.735 173.653 146.818C173.886 146.907 174.034 147.151 174.103 147.391C174.171 147.631 174.24 147.871 174.308 148.111C174.089 147.706 173.79 147.298 173.489 146.969C173.413 146.886 173.252 146.958 173.173 146.955C173.173 146.955 173.166 147.113 173.162 147.191L173.159 147.27C173.536 147.682 173.911 148.173 174.044 148.732C174.044 148.732 174.044 148.732 173.965 148.729C173.341 148.543 172.806 148.125 172.518 147.48C172.521 147.401 172.366 147.315 172.205 147.387C172.126 147.383 172.041 147.538 172.116 147.62C172.404 148.265 173.011 148.845 173.714 149.034C173.553 149.106 173.313 149.175 173.155 149.168C173.076 149.164 172.919 149.157 172.84 149.154C172.761 149.15 172.682 149.147 172.61 148.986C172.38 148.818 172.226 148.732 172.075 148.567C171.999 148.485 171.838 148.557 171.759 148.553L171.752 148.711C171.752 148.711 171.749 148.79 171.745 148.869C171.975 149.037 172.126 149.202 172.356 149.37C172.435 149.373 172.586 149.538 172.743 149.545C172.901 149.552 172.98 149.555 173.138 149.562C173.532 149.58 173.934 149.439 174.181 149.213C174.181 149.213 174.342 149.141 174.346 149.062C175.022 149.882 175.618 150.698 176.129 151.67C176.424 152.157 176.757 151.776 176.531 151.529L176.524 151.687Z" fill="#845B00"/>
<path fill-rule="evenodd" clip-rule="evenodd" d="M191.215 146.636C191.215 146.636 191.174 145.764 190.8 145.274C190.203 144.457 187.88 145.146 188.923 146.615C189.221 147.023 189.681 147.359 189.602 147.356C189.602 147.356 189.29 147.263 188.895 147.246C187.002 147.163 187.261 150.258 189.426 149.562C189.749 149.418 189.749 149.418 189.498 149.723C189.413 149.878 189.248 150.029 189.159 150.262C188.905 150.646 189.042 151.126 189.347 151.377C189.882 151.796 190.833 151.758 191.101 151.058C191.193 150.746 191.286 150.434 191.296 150.197C191.506 149.02 190.911 151.762 192.809 151.765C193.598 151.8 194.257 151.196 193.358 150.05C193.207 149.885 193.056 149.721 192.981 149.638C192.83 149.474 192.754 149.391 192.988 149.48C193.3 149.573 193.77 149.673 194.093 149.529C194.573 149.392 194.861 148.218 194.573 147.573C194.138 146.684 193.335 146.966 192.855 147.103C192.374 147.24 192.216 147.233 192.786 146.863C192.947 146.791 193.191 146.643 193.356 146.492C194.746 145.446 192.296 143.6 191.499 145.541C191.321 146.008 191.222 146.478 191.143 146.475L191.215 146.636ZM191.733 147.449C191.733 147.449 191.636 147.84 191.403 147.751C191.173 147.583 191.427 147.199 191.733 147.449ZM190.611 147.795C190.611 147.795 191.029 147.26 191.163 147.819C191.228 148.139 191.204 148.691 190.737 148.512C190.504 148.423 190.439 148.104 190.532 147.792L190.611 147.795ZM191.945 148.012C192.408 148.269 192.233 148.657 191.917 148.643C191.128 148.609 191.406 147.672 191.945 148.012ZM191.516 148.784C192.134 149.127 191.492 149.336 190.95 149.075C190.408 148.814 190.977 148.444 191.516 148.784Z" fill="#845B00"/>
</g>
<path fill-rule="evenodd" clip-rule="evenodd" d="M153.525 104.509C155.789 105.162 156.04 103.038 154.97 102.201C153.673 101.116 150.012 103.486 153.525 104.509Z" fill="#845B00"/>
<path fill-rule="evenodd" clip-rule="evenodd" d="M138.642 253.471C138.778 253.471 138.847 251.901 139.575 250.99C140.804 249.466 144.923 251.104 142.875 253.585C142.306 254.29 141.487 254.836 141.532 254.882C141.948 254.766 142.375 254.698 142.806 254.677C146.243 254.677 145.583 260.366 141.578 258.887C140.94 258.659 141.077 258.659 141.396 259.228C141.714 259.797 141.782 259.843 141.987 260.207C142.187 260.548 142.249 260.952 142.16 261.337C142.071 261.722 141.838 262.059 141.509 262.278C140.508 262.938 138.71 262.824 138.301 261.595C138.15 261.058 138.044 260.51 137.982 259.956C137.754 257.817 138.528 262.824 135.115 262.733C133.681 262.733 132.566 261.504 134.227 259.592C134.456 259.3 134.715 259.033 135.001 258.796C135.365 258.5 135.365 258.432 135.001 258.568C134.355 258.761 133.667 258.761 133.021 258.568C132.156 258.25 131.678 256.042 132.247 254.973C133.044 253.425 134.523 253.994 135.456 254.29C136.389 254.586 136.662 254.518 135.661 253.926C135.32 253.731 135 253.503 134.705 253.243C132.247 251.15 136.981 248.055 138.232 251.65C138.359 252.238 138.526 252.816 138.733 253.38L138.642 253.471ZM137.686 254.859C137.254 255.2 137.891 255.633 138.255 255.451C138.619 255.269 138.255 254.381 137.686 254.859ZM139.666 255.542C139.279 254.836 138.892 254.54 138.642 255.542C138.483 256.179 138.437 257.112 139.302 256.816C139.42 256.771 139.525 256.699 139.611 256.606C139.696 256.513 139.759 256.402 139.794 256.28C139.829 256.159 139.836 256.032 139.814 255.907C139.792 255.783 139.741 255.666 139.666 255.564V255.542ZM137.254 255.838C136.389 256.247 136.639 257.066 137.254 257.066C138.778 257.066 138.232 255.36 137.254 255.838ZM137.982 257.271C136.844 257.84 137.982 258.318 138.983 257.886C139.985 257.453 139.074 256.725 137.982 257.271Z" fill="#A7CD7A"/>
</g>
<defs>
<clipPath id="clip0_182_5357">
<rect width="288" height="288" fill="white"/>
</clipPath>
</defs>
</svg>
