<svg viewBox="0 0 89 91" fill="none" xmlns="http://www.w3.org/2000/svg">
<path fill-rule="evenodd" clip-rule="evenodd" d="M86.6029 35.4441C86.3286 34.7857 86.0541 34.0176 85.7249 33.2494C85.2859 31.9875 84.6826 30.561 83.8596 29.2991C82.3782 27.0496 80.1836 25.2939 76.6722 25.5682C73.5448 25.8426 71.0758 27.1593 69.4299 29.5185C69.2104 29.7929 68.4972 31.4389 69.8689 30.6159C70.2529 30.3964 70.6918 30.1221 71.1856 29.9026C74.0386 28.4212 76.0138 27.9274 77.6597 28.531C80.2384 29.4637 82.4332 33.2495 82.5429 35.9379C82.5429 37.2547 82.3784 38.5166 82.2686 39.559C82.1589 41.3147 82.7073 42.4669 81.6648 41.4245C80.8967 40.6564 80.8969 39.0652 80.5129 38.2422C79.5253 36.1025 76.9466 33.3592 74.313 33.853C72.2281 34.237 70.4174 36.1025 71.0758 36.0476C71.2404 36.0476 71.6245 35.9379 72.2281 35.6087C73.6546 34.9503 74.6422 35.06 76.3979 36.5963C78.3182 38.2422 80.1287 43.1253 78.9765 45.6491C78.8667 45.9235 78.7021 46.0881 78.5924 46.1978C77.8242 46.7464 77.7693 45.9783 77.8242 45.4297C77.879 44.4969 77.6597 43.5094 77.2207 42.5218C76.6721 41.3147 75.7395 40.2174 74.6422 39.559C72.6122 38.352 69.4298 39.4493 67.29 40.1625C66.6316 40.382 66.1929 40.6015 66.138 40.7112C66.138 40.8209 66.9609 40.7112 68.0582 40.6564C73.1059 40.1077 74.697 42.5767 75.2456 46.0881C75.4102 47.0208 75.7943 51.5198 75.2456 53.7144C75.081 54.4277 74.9163 55.0312 74.4225 55.0312C73.9836 55.0312 74.2033 53.6047 74.0387 52.6171C73.8193 51.2455 73.5449 49.9287 72.9963 48.8314C72.5574 48.0084 72.0086 47.2951 71.1856 46.8013C70.6369 46.4721 70.143 46.3624 69.6492 46.3624C65.9732 46.3624 69.1008 47.35 69.8689 48.3376C72.4476 51.41 69.7043 58.9816 69.1556 59.0913C68.8264 59.1462 68.8264 57.3356 68.1681 55.2507C67.6194 53.495 66.6867 51.5746 64.7664 50.3127C61.8585 48.4473 63.4494 55.3055 63.5592 56.5674C63.8335 59.7497 63.5591 62.8222 62.4618 65.5654C61.5839 67.6504 60.1574 69.461 57.9627 70.9972C55.8778 72.4237 51.8179 74.2892 51.9276 77.3068C52.0922 80.4341 51.324 84.4942 53.9027 86.4694C55.439 87.6216 57.14 87.5118 58.8957 87.6764C59.7736 87.7313 59.554 88.1154 58.8408 88.28C56.7559 88.7189 53.9027 88.6092 51.8178 89.0481C50.3913 89.3224 48.8553 90.0357 47.5933 90.4197C46.7703 90.6392 43.9721 90.8586 43.0394 90.9135C39.089 91.1878 40.2412 90.6392 42.6553 90.1454C45.4534 89.5967 48.0323 88.7737 47.9774 88.5543C47.8677 88.0605 44.7401 89.487 42.6003 89.3224C41.0641 89.2127 39.7473 89.0481 40.5154 88.8286C41.8871 88.4446 50.3365 87.2924 50.556 86.3048C50.6657 85.7013 50.6657 84.7137 50.556 84.2747C50.2816 83.1774 49.4587 82.3544 48.5809 81.0925C46.1668 77.5262 40.1864 72.8078 35.852 71.9299C35.3033 76.1546 34.3704 76.5935 30.9139 79.0076C28.9387 80.3793 27.7866 80.9279 26.9088 82.3544C26.415 83.1226 25.7567 84.1101 25.5921 85.6464C25.5921 86.1402 25.4274 86.2499 25.9212 86.4145C27.1832 86.8534 30.969 87.3472 27.0186 87.6216C26.4151 87.6216 25.7565 87.4021 24.7689 87.457C20.7089 87.7862 25.5921 92.0108 13.3021 89.487C9.46153 88.7189 8.41909 88.8286 11.6013 88.4446C12.9181 88.28 14.7284 88.3348 16.1 88.28C17.3619 88.28 18.5692 88.1702 18.7338 87.841C18.8435 87.6216 15.7708 87.5667 13.3567 87.2924C11.9302 87.1278 10.5588 86.634 10.5588 86.5791C10.3943 86.0304 18.24 86.3048 21.4771 85.1526C24.4947 84.0553 25.3176 81.5314 26.1955 75.99C26.5247 73.9599 26.0857 72.3688 25.8114 71.9299C24.33 69.5158 20.2152 67.8698 18.7338 65.8947C16.9232 63.5903 15.6612 61.5603 14.8382 59.4754C14.2896 58.0489 13.9054 56.5675 13.7408 54.9215C13.686 54.3728 13.6312 51.026 13.1374 50.9163C12.6436 50.8065 12.6985 51.849 12.5339 52.0684C12.1499 52.6171 10.7234 48.9959 9.79065 44.8261C8.5836 39.3944 8.69335 37.2546 10.5039 32.2618C11.3818 29.7929 13.8507 23.9771 12.5339 21.4533C11.8207 20.0816 10.8879 19.5878 10.1198 20.5205C9.90036 20.7949 9.79054 21.0144 9.68081 21.2338C8.30916 24.1417 3.70053 22.4957 4.30405 19.0941C4.57838 17.5029 6.00486 16.4605 5.2916 15.3632C4.74294 14.4305 2.76789 14.0464 0.957314 14.7596C0.847582 14.7596 0.737757 13.8269 1.88994 12.565C3.64565 10.5898 6.33396 10.0412 8.96752 9.65711C9.24185 9.65711 9.4613 9.43764 9.2967 9.21818C9.24184 9.10844 9.13217 9.05356 9.02244 8.94383C7.81539 7.40758 6.93763 4.49971 8.08982 2.35994C9.242 0.220167 12.2595 3.40239 12.8082 3.12806C12.8082 3.12806 12.3692 -0.0541645 14.8382 0.000701405C15.5515 0.000701405 16.0454 0.165297 16.3746 0.384761C17.5268 1.15288 16.9232 3.18292 17.3622 3.29265C18.2949 3.51211 18.7339 -0.273631 22.5745 0.768821C23.7815 1.09802 24.714 1.86615 24.714 2.57941C24.7689 3.56699 24.2751 4.0059 23.3973 4.6643C20.7637 6.52974 24.7691 3.67674 25.9762 6.74923C27.0186 9.27306 23.4521 9.38276 21.9707 9.76683C20.4345 10.1509 20.6541 10.2606 21.4771 10.7544C22.4647 11.3031 24.3848 12.2358 26.0857 13.8818C29.213 16.8994 30.5301 20.6303 31.5177 24.1966C33.2185 30.4513 34.0414 36.1025 42.381 35.883C49.4587 35.6635 57.4692 29.738 57.8532 23.209C58.0727 19.2038 58.6761 17.064 60.1026 15.6375C61.4742 14.211 63.6141 13.4428 67.0157 12.2907C68.7166 11.742 72.8314 10.096 68.9359 13.2782C67.5094 14.4304 65.7538 14.7048 64.9308 16.6799C64.1078 18.71 64.8211 18.4905 66.3574 17.6127C67.1255 17.1737 68.0033 16.6799 68.7166 16.4605C72.5023 15.2534 75.52 15.034 78.0438 15.9118C81.5004 17.1189 86.2187 22.9895 87.4806 26.2266C88.5231 28.8053 87.9746 31.4938 87.9746 33.7981C87.9746 35.9379 88.7425 39.9431 86.7673 35.3344L86.6029 35.4441Z" fill="#D7B46A"/>
<path fill-rule="evenodd" clip-rule="evenodd" d="M40.5676 39.449C23.5043 38.0225 16.0426 53.9884 34.8067 61.5051C40.8968 63.974 48.0843 63.7546 54.7231 61.9989C57.8504 61.1759 54.5037 60.6272 52.0347 58.3228C55.3815 57.0061 58.7281 59.2007 54.2291 54.7017C50.2788 50.7514 61.3068 54.592 52.5283 48.1727C51.8699 47.7337 46.8772 44.6064 47.1515 43.6737C48.5781 43.5639 50.4984 43.8383 47.4807 41.9728C45.3958 40.7109 43.0913 39.8879 40.5126 39.449H40.5676Z" fill="#B28100"/>
<mask id="mask0_182_6794" style="mask-type:alpha" maskUnits="userSpaceOnUse" x="23" y="39" width="34" height="25">
<path fill-rule="evenodd" clip-rule="evenodd" d="M40.5676 39.449C23.5043 38.0225 16.0426 53.9884 34.8067 61.5051C40.8968 63.974 48.0843 63.7546 54.7231 61.9989C57.8504 61.1759 54.5037 60.6272 52.0347 58.3228C55.3815 57.0061 58.7281 59.2007 54.2291 54.7017C50.2788 50.7514 61.3068 54.592 52.5283 48.1727C51.8699 47.7337 46.8772 44.6064 47.1515 43.6737C48.5781 43.5639 50.4984 43.8383 47.4807 41.9728C45.3958 40.7109 43.0913 39.8879 40.5126 39.449H40.5676Z" fill="#B28100"/>
</mask>
<g mask="url(#mask0_182_6794)">
<path fill-rule="evenodd" clip-rule="evenodd" d="M26.8531 49.1599C26.8531 49.1599 26.3045 49.3246 26.1947 49.8184C26.1947 49.9829 26.1948 50.2024 26.2496 50.4767C26.3594 50.8059 26.4692 51.0254 26.6887 51.1351C27.0179 51.2997 27.4019 51.1351 27.6762 51.0254C27.8408 50.9705 28.0052 50.8608 28.1149 50.6962C28.3344 50.4219 28.3344 49.983 28.1149 49.6538C27.8406 49.3246 27.3469 49.1051 26.8531 49.2148V49.1599ZM26.6337 53.1103C26.6337 53.1103 26.6338 53.22 26.6887 53.2749C26.6887 53.2749 26.7433 53.2749 26.7982 53.2749C26.7982 53.2749 26.7982 53.2749 26.8531 53.2749C26.908 53.2749 26.9629 53.1103 26.9629 53.0554C26.9629 53.0554 26.908 53.0006 26.8531 52.9457C26.7434 52.9457 26.6886 52.9457 26.6337 52.9457C26.6337 52.9457 26.6337 52.9457 26.6337 53.0554V53.1103ZM29.7611 51.3546C29.7611 51.3546 29.7609 51.3546 29.8706 51.3546C29.8706 51.3546 29.9805 51.3546 30.0354 51.3546C30.0354 51.3546 30.0903 51.2997 30.0903 51.2449C30.0903 51.2449 30.0903 51.2449 30.0903 51.19C30.0903 51.1351 29.9804 51.0802 29.9256 51.0802C29.9256 51.0802 29.8706 51.0803 29.8157 51.19C29.8157 51.19 29.8157 51.3546 29.8157 51.4095L29.7611 51.3546ZM29.8157 49.8184C29.8157 49.8184 29.8158 49.8184 29.8706 49.8184C29.8706 49.8184 29.9256 49.8183 29.9805 49.7635V49.7086C29.9805 49.7086 29.9255 49.7086 29.8706 49.7086C29.8706 49.7086 29.8706 49.7086 29.8706 49.7635C29.8706 49.8183 29.8707 49.8732 29.9256 49.9281L29.8157 49.8184ZM27.7311 47.6237C27.7311 47.6237 27.7311 47.514 27.7311 47.4591C27.7311 47.4591 27.6762 47.4591 27.6762 47.5688V47.6237C27.6762 47.6237 27.7858 47.6786 27.8406 47.6786H27.8956L27.7311 47.6237ZM24.9878 48.6662C24.9878 48.6662 24.8779 48.6662 24.8231 48.6662C24.8231 48.6662 24.8231 48.6661 24.8231 48.721C24.8231 48.721 24.8231 48.7759 24.878 48.8308C24.878 48.8308 24.878 48.8308 24.9329 48.8308C24.9329 48.8308 25.0424 48.7759 25.0424 48.721C25.0424 48.721 25.0424 48.6662 25.0424 48.6113L24.9878 48.6662ZM24.2196 50.0378C24.2196 50.0378 24.2195 50.0378 24.1098 50.0378C24.1098 50.0378 24.0002 50.0378 23.9454 50.1475V50.2573C23.9454 50.2573 23.9454 50.2573 23.9454 50.3121C24.0002 50.367 24.1098 50.4219 24.1647 50.367C24.1647 50.367 24.2196 50.3122 24.2196 50.2573C24.2196 50.1476 24.2196 50.0927 24.1647 50.0378H24.2196ZM25.0424 52.0678C25.0424 52.0678 24.9878 52.0678 24.9329 52.1227C24.9329 52.1776 24.9329 52.2324 24.9329 52.2873C24.9329 52.2873 24.933 52.3971 24.9878 52.3971C24.9878 52.3971 24.9876 52.3971 25.0424 52.3971C25.1521 52.3971 25.2072 52.397 25.2621 52.2873C25.2621 52.2873 25.2621 52.1776 25.2621 52.1227C25.2621 52.0678 25.1521 52.013 25.0424 52.013V52.0678ZM28.1698 52.5068C28.1698 52.5068 28.2248 52.5616 28.2797 52.5616H28.3346C28.3346 52.5068 28.3346 52.4519 28.3346 52.3971C28.2797 52.3971 28.2247 52.4519 28.2247 52.5068C28.2247 52.5068 28.2247 52.5068 28.2247 52.5616L28.1698 52.5068ZM31.2423 50.2573C31.2423 50.2573 31.5167 50.367 31.6264 50.367C31.8459 50.367 32.0652 50.367 32.2298 50.2024C32.2847 50.2024 32.3397 50.2024 32.3946 50.2024C32.3946 50.2573 32.3946 50.3121 32.3946 50.367C32.1751 50.4767 31.9556 50.5865 31.6813 50.5865C31.6813 50.5865 31.2974 50.5316 31.1328 50.4219C31.0231 50.3121 30.9131 50.2024 30.8582 50.0927C30.3644 50.4219 29.7609 50.6413 29.2123 50.6413C28.9928 50.6413 28.7185 50.6413 28.499 50.5316C28.499 50.5316 28.4989 50.6413 28.4441 50.6962C28.7733 50.8608 29.1575 51.0254 29.5964 51.0802C29.6512 50.9705 29.7609 50.8608 29.8706 50.8608C30.0901 50.8608 30.2548 50.9705 30.3097 51.1351C30.3097 51.19 30.3097 51.2448 30.3097 51.2997C30.3097 51.4094 30.255 51.5192 30.1452 51.5741C30.0904 51.6289 29.9804 51.6838 29.8706 51.6838C29.7609 51.6838 29.6512 51.6289 29.5964 51.5192C29.5964 51.5192 29.5963 51.4095 29.5415 51.3546C29.1025 51.2997 28.6638 51.1351 28.3346 50.9157C28.3346 50.9157 28.3345 50.9157 28.2797 50.9705C28.554 51.5192 29.0477 51.9581 29.5964 52.1776C29.8158 51.9033 30.1999 51.7935 30.5839 51.8484C30.8034 51.8484 31.0777 51.9581 31.2972 52.0678C31.3521 52.0678 31.3521 52.1776 31.2972 52.2325C31.2972 52.2873 31.1877 52.2873 31.1328 52.2325C30.9682 52.1227 30.7485 52.0679 30.529 52.013C30.3644 52.013 30.1451 52.013 29.9805 52.013C30.3645 52.013 30.6937 52.2324 30.968 52.5068C30.968 52.5068 30.968 52.6165 30.968 52.6714C30.968 52.6714 30.8585 52.6714 30.8036 52.6714C30.5293 52.397 30.1452 52.2325 29.7611 52.2325C30.0355 52.6165 30.3647 52.9457 30.8036 53.1652C30.8585 53.1652 30.9133 53.2749 30.8036 53.3298C30.8036 53.3298 30.7486 53.3846 30.6938 53.3846C30.2548 53.1652 29.8707 52.836 29.5964 52.4519C29.5964 52.6165 29.5964 52.836 29.5964 52.9457C29.7061 53.22 29.8708 53.4395 30.0354 53.6041C30.0354 53.6041 30.0354 53.7138 30.0354 53.7687C30.0354 53.7687 30.0353 53.7687 29.9805 53.7687C29.9805 53.7687 29.9255 53.7687 29.8706 53.7687C29.706 53.5492 29.4868 53.3298 29.377 53.0006C29.2673 52.7263 29.2673 52.4519 29.377 52.2325C28.7735 52.013 28.2797 51.5192 27.9505 50.9705C27.9505 50.9705 27.8955 50.9705 27.8406 51.0254C27.8955 51.4095 28.0601 51.7387 28.2247 52.013C28.2247 52.013 28.4441 52.013 28.499 52.0678C28.6087 52.1776 28.6088 52.397 28.5539 52.5068C28.5539 52.5616 28.5538 52.6165 28.4441 52.6165C28.3892 52.6165 28.3345 52.6714 28.2247 52.6714C28.2247 52.6714 28.2247 52.6714 28.1698 52.6714C28.0601 52.6714 28.0053 52.6165 27.9505 52.5068C27.8956 52.397 27.8407 52.3422 27.8956 52.2325C27.8956 52.2325 27.8956 52.1227 27.9505 52.1227C27.731 51.7935 27.6212 51.4643 27.5115 51.1351C27.5115 51.1351 27.4568 51.1351 27.4019 51.1351C27.4019 52.013 27.4017 53.0006 27.8406 53.8235C28.1698 53.7138 28.4991 53.8236 28.938 54.0979C28.9929 54.0979 28.9929 54.2076 28.938 54.2625C28.938 54.3173 28.8285 54.3173 28.7736 54.2625C28.4993 54.0979 28.3344 54.043 28.1149 53.9882C28.3344 54.2076 28.4991 54.4819 28.5539 54.8111C28.5539 54.866 28.5538 54.9209 28.4441 54.9758C28.3892 54.9758 28.3345 54.9757 28.2797 54.866C28.2797 54.5368 28.06 54.2625 27.7857 54.0979C27.7857 54.2625 27.7857 54.4271 27.7857 54.5917C27.7857 54.8111 27.8956 55.0306 27.9505 55.2501C27.9505 55.3049 27.9504 55.3598 27.8956 55.4147C27.8956 55.4147 27.7857 55.4147 27.7857 55.3049C27.7308 55.0855 27.6213 54.866 27.6213 54.5917C27.6213 54.4819 27.6213 54.3174 27.6213 54.1528C27.5664 54.2076 27.5114 54.3173 27.4565 54.4271C27.4017 54.6465 27.4017 54.866 27.4565 55.0855C27.4565 55.1403 27.4568 55.1952 27.4019 55.2501C27.4019 55.2501 27.2921 55.2501 27.2921 55.1952C27.1824 54.9209 27.2372 54.6466 27.2921 54.3722C27.347 54.1528 27.5116 53.9881 27.6762 53.8784C27.1824 53.0554 27.1274 52.0678 27.1823 51.1351H27.0724C26.9078 51.574 26.8531 52.013 26.8531 52.5068C26.9628 52.5068 27.0725 52.6165 27.1273 52.7811C27.1822 53.0006 27.0726 53.1652 26.908 53.2749C26.8531 53.2749 26.7981 53.3298 26.7432 53.3298C26.7432 53.3298 26.7435 53.3298 26.6887 53.3298C26.5789 53.3298 26.4689 53.3297 26.4141 53.22C26.3592 53.1651 26.3045 53.0554 26.2496 52.9457C26.2496 52.836 26.2497 52.6714 26.3595 52.6165C26.3595 52.6165 26.469 52.5616 26.5239 52.5068C26.5239 52.0678 26.5786 51.574 26.7432 51.1351C26.7432 51.1351 26.7435 51.1351 26.6887 51.1351C25.8108 52.836 25.3718 54.866 25.5364 56.7863C25.5364 56.8412 25.5363 56.8961 25.4265 56.8961C25.4265 56.8961 25.317 56.896 25.317 56.7863C25.1524 54.8111 25.5363 52.7811 26.469 51.0254C26.3593 51.0254 26.3045 50.9157 26.2496 50.8608C25.9204 51.1351 25.5911 51.4095 25.3716 51.7935C25.4813 51.9033 25.4814 52.013 25.4265 52.1776C25.3717 52.3971 25.1524 52.4519 24.9878 52.4519C24.933 52.4519 24.8779 52.4519 24.8231 52.4519C24.7133 52.4519 24.6586 52.2873 24.6037 52.1776C24.6037 52.0679 24.6037 51.9581 24.6037 51.8484C24.6586 51.7386 24.7683 51.6289 24.878 51.6289C24.9329 51.6289 25.0425 51.6289 25.0973 51.6289C25.3717 51.2449 25.7011 50.9157 26.0303 50.6413C26.0303 50.5316 25.9204 50.4219 25.8655 50.3121C25.2071 50.5316 24.6035 50.751 24 51.0802C24 51.0802 24 51.1351 24.0549 51.19C24.1646 51.3546 24.1647 51.5741 24.1098 51.7935C24.1098 51.9033 24.1097 51.9581 24.0549 52.013C24.0549 52.0679 23.9453 52.1227 23.8904 52.1776C23.7807 52.2873 23.671 52.397 23.5613 52.4519C23.5613 52.4519 23.5612 52.4519 23.5063 52.4519C23.5063 52.4519 23.4514 52.4519 23.3965 52.4519C23.3965 52.4519 23.3965 52.3422 23.3965 52.2873C23.5062 52.2324 23.6159 52.1227 23.6708 52.013C23.6708 52.013 23.7257 51.9581 23.7806 51.9032C23.7806 51.9032 23.7806 51.7935 23.7806 51.7386C23.7806 51.6289 23.7806 51.5192 23.7806 51.4095C23.5611 51.7387 23.232 52.013 22.848 52.1227C22.848 52.1227 22.7381 52.1227 22.7381 52.013C22.7381 51.9581 22.7383 51.9032 22.848 51.8484C23.1772 51.7386 23.5062 51.5192 23.6708 51.19V51.1351C23.3416 51.1351 23.0674 51.2997 22.7931 51.4643C22.7931 51.4643 22.793 51.4643 22.7381 51.4643C22.7381 51.4643 22.6832 51.4643 22.6283 51.4643C22.6283 51.4094 22.6283 51.3546 22.6283 51.2997C22.8478 51.1351 23.0673 51.0254 23.3416 50.9705C23.177 50.9705 23.0675 50.9705 22.9029 50.9705C22.7383 50.9705 22.6286 51.0803 22.5737 51.19C22.5737 51.19 22.4638 51.19 22.409 51.19C22.409 51.19 22.409 51.0803 22.409 51.0254C22.5187 50.9157 22.6834 50.8059 22.848 50.7511C23.0126 50.7511 23.177 50.7511 23.3416 50.7511C23.3965 50.7511 23.5064 50.7511 23.5613 50.7511C23.6161 50.7511 23.7257 50.806 23.7806 50.8608C24.3841 50.5316 25.0424 50.2573 25.7557 50.0378C25.7557 50.0378 25.7557 50.0378 25.7557 49.9829C25.3168 49.8732 24.823 49.9281 24.3841 49.9829C24.3841 50.0927 24.2744 50.2573 24.1647 50.3121C24.1647 50.3121 24.0548 50.3121 24 50.3121C23.8902 50.3121 23.7256 50.2573 23.6708 50.1475C23.6708 50.1475 23.5613 50.0378 23.5613 49.9829C23.5613 49.8732 23.5613 49.7635 23.5613 49.6538C23.6161 49.5989 23.7258 49.4892 23.8355 49.4892C23.9453 49.4892 24.1098 49.4892 24.1647 49.4892C24.1647 49.4892 24.2745 49.5989 24.2745 49.6538C24.7683 49.544 25.2619 49.544 25.7008 49.6538C25.7008 49.5989 25.7008 49.544 25.7008 49.4892C25.1521 49.4892 24.6035 49.3245 24.0549 49.1051C23.7257 48.9953 23.2867 48.7759 23.0124 48.3918C22.9027 48.5016 22.793 48.5564 22.6832 48.5564C22.6832 48.5564 22.5737 48.5564 22.5188 48.5564C22.4091 48.5564 22.2994 48.5564 22.1896 48.5564C21.9702 48.5564 21.8054 48.4467 21.6408 48.3369C21.5859 48.3369 21.5859 48.2272 21.6408 48.1724C21.6408 48.1175 21.7507 48.1175 21.8055 48.1724C21.9701 48.2821 22.1345 48.337 22.2991 48.3918C22.4637 48.3918 22.5735 48.4467 22.6832 48.3918C22.793 48.3918 22.9026 48.337 22.9575 48.2272C22.9575 48.2272 22.9578 48.2272 22.9029 48.2272C22.5737 48.2272 22.2994 48.0626 22.1896 47.9529C22.1348 47.898 22.0248 47.7883 21.9699 47.6237C21.9699 47.5688 21.97 47.514 22.0798 47.4591C22.1346 47.4591 22.1897 47.4591 22.2445 47.5688C22.2445 47.5688 22.2443 47.6786 22.354 47.7334C22.5735 47.898 22.7929 47.9529 22.9575 47.9529C22.9575 47.9529 22.9577 47.7883 22.7931 47.6786C22.6833 47.5689 22.5186 47.4591 22.354 47.3494C22.2992 47.3494 22.2992 47.2396 22.354 47.1848C22.354 47.1299 22.4639 47.1299 22.5188 47.1848C22.6834 47.2945 22.8478 47.4042 23.0124 47.5688C23.0124 47.5688 23.1223 47.6786 23.1772 47.7883C23.1772 47.7883 23.1772 47.7883 23.1772 47.7334C23.1772 47.5688 23.0675 47.3494 22.9029 47.2396C22.9029 47.2396 22.9029 47.1299 22.9029 47.0751C22.9029 47.0751 23.0125 47.0751 23.0673 47.0751C23.2319 47.2397 23.3965 47.4591 23.3965 47.6786C23.3965 47.7883 23.3965 47.898 23.3965 47.9529C23.3965 48.0626 23.3419 48.1175 23.287 48.2272C23.287 48.2272 23.287 48.2272 23.287 48.2821C23.5065 48.6113 23.8904 48.7759 24.2196 48.8856C24.7134 49.0502 25.262 49.2148 25.8106 49.2148C25.8106 49.16 25.8107 49.1051 25.8655 49.0502C25.5363 48.9405 25.2072 48.8308 24.9329 48.6113L24.8231 48.6662C24.8231 48.6662 24.823 48.6662 24.7682 48.6662C24.7133 48.6662 24.6037 48.6661 24.5488 48.5564C24.4939 48.5016 24.439 48.3918 24.439 48.3369C24.439 48.2272 24.439 48.1175 24.4939 48.0626C24.4939 48.0626 24.5489 48.0078 24.6037 47.9529C24.7135 47.9529 24.9327 47.9529 25.0424 48.0626C25.0973 48.1724 25.1521 48.2821 25.0424 48.3918C25.3167 48.6113 25.6462 48.721 25.9754 48.8308C25.9754 48.8308 26.03 48.7759 26.0849 48.721C25.8654 48.5015 25.7011 48.2272 25.6462 47.9529C25.5365 47.9529 25.4814 47.9529 25.4265 48.0078C25.4265 48.0078 25.4265 48.0078 25.3716 48.0078C25.207 48.0078 25.0426 47.9529 24.878 47.8432C24.7683 47.7334 24.6036 47.6237 24.4939 47.4591C24.4939 47.4042 24.4939 47.3494 24.4939 47.2945C24.4939 47.2945 24.6038 47.2945 24.6587 47.2945C24.7684 47.4591 24.8781 47.5688 24.9878 47.6237C25.0976 47.7334 25.2619 47.7334 25.3716 47.7334C25.3716 47.7334 25.4266 47.7334 25.4814 47.7334C25.4814 47.7334 25.262 47.6237 25.1523 47.514C25.0425 47.4043 24.9329 47.2945 24.878 47.1299C24.878 47.0751 24.878 47.0202 24.9329 46.9653C24.9878 46.9653 25.0425 46.9653 25.0973 47.0751C25.0973 47.1848 25.2072 47.2396 25.2621 47.3494C25.317 47.4042 25.4266 47.4591 25.5364 47.514C25.5364 47.3494 25.4267 47.1299 25.317 47.0202C25.317 47.0202 25.317 46.9105 25.317 46.8556C25.317 46.8556 25.4266 46.8556 25.4814 46.8556C25.646 47.0751 25.7008 47.3494 25.7557 47.5688C25.8106 47.4591 25.8106 47.3494 25.8106 47.2945C25.8106 47.1848 25.8106 47.075 25.7557 46.9653C25.7557 46.9104 25.7558 46.8556 25.8655 46.8007C25.9204 46.8007 25.9754 46.8007 26.0303 46.9105C26.0303 47.0202 26.0849 47.1848 26.0849 47.2945C26.0849 47.4591 26.0851 47.6237 25.9754 47.7334C25.9754 47.7334 25.8655 47.8432 25.8106 47.8981C25.9204 48.1724 26.0302 48.3918 26.2496 48.6113C26.2496 48.6113 26.4142 48.5564 26.5239 48.5016H26.6337C26.4143 47.7335 26.4143 46.9104 26.6337 46.1972C26.524 46.1972 26.3594 46.0874 26.2496 45.9777C25.9753 45.7582 25.8106 45.4291 25.8106 45.045C25.8106 44.9901 25.8107 44.9353 25.9205 44.9353C25.9753 44.9353 26.0303 44.9353 26.0303 45.045C26.0303 45.3193 26.1949 45.5937 26.3595 45.8131C26.3595 45.8131 26.469 45.868 26.5239 45.9229C26.4142 45.5388 26.4141 45.2096 26.4141 44.8255C26.4141 44.7707 26.469 44.7158 26.5239 44.7158C26.5788 44.7158 26.6337 44.7707 26.6337 44.8255C26.6337 45.2096 26.6336 45.5937 26.7982 45.9777C26.9628 45.7034 27.0178 45.3742 27.0178 45.045C27.0178 44.9901 27.0176 44.9353 27.1273 44.9353C27.1822 44.9353 27.2372 44.9353 27.2372 45.045C27.2372 45.4291 27.1824 45.7583 27.0178 46.0875C27.0178 46.0875 27.0725 46.0875 27.1273 46.0875C27.1822 46.0875 27.2922 46.0326 27.4019 45.9229C27.5117 45.868 27.5664 45.7583 27.6213 45.7034C27.6213 45.6485 27.7311 45.5388 27.7311 45.4291C27.7311 45.3742 27.7309 45.3193 27.8406 45.3193C27.8955 45.3193 27.9505 45.3742 27.9505 45.4291C27.9505 45.5937 27.9503 45.7034 27.7857 45.868C27.7308 45.9777 27.6212 46.0875 27.5115 46.1423C27.4017 46.2521 27.292 46.3069 27.1823 46.3069C27.0725 46.3069 26.9628 46.3069 26.8531 46.3069C26.8531 46.3069 26.7981 46.3069 26.7432 46.3069C26.5238 47.0202 26.5786 47.8432 26.7432 48.5564C26.7432 48.5564 26.7433 48.5564 26.7982 48.5564C26.7982 48.2272 26.7983 47.8432 26.908 47.514C26.908 47.514 26.7982 47.4591 26.7982 47.4042C26.7433 47.2945 26.7433 47.1848 26.7982 47.0751C26.7982 46.9653 26.9081 46.9105 26.9629 46.8556C27.0727 46.8556 27.1823 46.8007 27.2372 46.8556C27.2372 46.8556 27.347 46.8556 27.347 46.9653C27.4568 47.075 27.5116 47.2396 27.347 47.4042C27.2922 47.514 27.1822 47.5688 27.0724 47.5688C26.9627 47.898 26.9081 48.2821 26.9629 48.6113C27.0178 48.6113 27.0725 48.6113 27.1273 48.6662C27.2919 47.9529 27.676 47.3494 28.1698 46.8007C28.1698 46.691 28.1152 46.6361 28.0603 46.5264C28.0603 46.3618 28.06 46.1972 28.1149 45.9777C28.1698 45.7582 28.3345 45.4839 28.6088 45.3193C28.6088 45.3193 28.7187 45.3193 28.7736 45.3193C28.8285 45.3193 28.7736 45.4291 28.7736 45.4839C28.5541 45.6485 28.4444 45.868 28.3895 46.0326C28.3895 46.1972 28.3346 46.3618 28.3346 46.4715C28.3346 46.4715 28.3346 46.5813 28.3346 46.6361C28.4992 46.2521 28.7735 45.9777 29.0479 45.7583C29.0479 45.7583 29.1574 45.7583 29.2123 45.7583C29.2671 45.7583 29.2123 45.868 29.2123 45.9229C28.9928 46.0875 28.7734 46.3069 28.6088 46.6361C28.938 46.6361 29.2125 46.4715 29.432 46.2521C29.432 46.2521 29.5415 46.2521 29.5964 46.2521C29.5964 46.2521 29.5964 46.3618 29.5964 46.4167C29.3221 46.691 28.938 46.9105 28.5539 46.9105C28.6088 46.9653 28.7184 47.0202 28.8282 47.0202C29.1025 47.0202 29.4318 46.9105 29.5964 46.691C29.5964 46.691 29.7063 46.6361 29.7611 46.691C29.7611 46.691 29.816 46.8007 29.7611 46.8556C29.5965 47.1299 29.2672 47.2945 28.938 47.2945C28.938 47.2945 28.8285 47.2945 28.7736 47.2945C28.5541 47.2945 28.3893 47.1299 28.2247 46.9653C27.7309 47.4591 27.4018 48.0626 27.2372 48.7759C27.3469 48.8308 27.4566 48.9405 27.5664 48.9954C27.7858 48.8856 28.0052 48.6662 28.1698 48.4467C28.1698 48.2821 28.1698 48.1175 28.1698 47.9529C28.2247 47.7883 28.3892 47.6786 28.4441 47.5688C28.4441 47.5688 28.554 47.5688 28.6088 47.5688C28.6088 47.5688 28.6088 47.6786 28.6088 47.7334C28.4991 47.8432 28.3894 47.9529 28.3346 48.0626C28.3346 48.1724 28.2797 48.2821 28.3346 48.3918C28.3346 48.2821 28.3892 48.2272 28.4441 48.1724C28.4989 48.0626 28.6089 47.9529 28.7187 47.8432C28.7187 47.8432 28.8282 47.8432 28.8831 47.8432C28.8831 47.8432 28.8831 47.9529 28.8831 48.0078C28.7734 48.1175 28.7186 48.1724 28.6638 48.2821C28.6638 48.2821 28.6638 48.2821 28.6638 48.3369C28.8284 48.3369 29.0476 48.2273 29.1574 48.1175C29.1574 48.1175 29.2673 48.1175 29.3221 48.1175C29.3221 48.1175 29.3221 48.2272 29.3221 48.2821C29.1575 48.4467 28.9381 48.5564 28.7187 48.5564C28.7735 48.5564 28.8283 48.5564 28.938 48.5564C29.1575 48.5564 29.2673 48.5016 29.377 48.3918C29.377 48.3918 29.4866 48.3918 29.5415 48.3918C29.5963 48.3918 29.5415 48.5016 29.5415 48.5564C29.3769 48.6661 29.2123 48.7759 28.938 48.7759C28.938 48.7759 28.883 48.7759 28.8282 48.7759C28.7184 48.7759 28.6087 48.7759 28.499 48.7759C28.3893 48.7759 28.3345 48.6662 28.2247 48.6113C28.0601 48.8308 27.8408 49.0502 27.6213 49.1599C27.6762 49.2697 27.7311 49.3794 27.7311 49.4892C28.0603 49.4892 28.3895 49.4343 28.7187 49.3245C28.7187 49.3245 28.7184 49.1051 28.8282 49.0502C28.9928 48.9405 29.1575 48.9954 29.2672 49.0502C29.2672 49.0502 29.377 49.1051 29.377 49.1599C29.377 49.2697 29.377 49.3794 29.377 49.4343C29.377 49.4892 29.2671 49.5989 29.2123 49.5989C29.2123 49.5989 29.1027 49.5989 29.0479 49.5989C29.0479 49.5989 28.938 49.5989 28.8831 49.5989C28.8831 49.5989 28.8285 49.544 28.7736 49.4892C28.4444 49.5989 28.1152 49.6538 27.7311 49.6538C27.7311 49.7086 27.7311 49.8184 27.7311 49.8732C28.4993 50.0927 29.377 49.8732 29.9805 49.4343C29.8708 48.9954 29.9805 48.5016 30.3097 48.1724C30.3097 48.1724 30.4196 48.1724 30.4744 48.1724C30.4744 48.1724 30.4744 48.2821 30.4744 48.3369C30.255 48.5564 30.145 48.9405 30.1998 49.2697C30.1998 49.2697 30.1999 49.2697 30.2547 49.2697C30.3645 49.16 30.4741 49.1051 30.529 48.9954C30.5839 48.9405 30.7487 48.7759 30.8036 48.7759H30.8582C30.8582 48.7759 30.8582 48.8308 30.8582 48.8856C30.8582 48.9954 30.7486 49.0502 30.6388 49.1051C30.5291 49.2148 30.4194 49.3246 30.3097 49.4343C30.3097 49.4343 30.3096 49.4343 30.2547 49.4892C30.2547 49.4892 30.3097 49.4892 30.3646 49.4892C30.6938 49.4892 30.968 49.4343 31.2423 49.2148C31.2423 49.2148 31.3522 49.2148 31.4071 49.2148C31.4071 49.2148 31.4071 49.3245 31.4071 49.3794C31.1327 49.544 30.8033 49.6538 30.529 49.6538C30.529 49.6538 30.5293 49.6538 30.4744 49.6538C30.4744 49.6538 30.4195 49.6538 30.3646 49.6538C30.3646 49.6538 30.4196 49.7635 30.4744 49.7635L31.2423 50.2573Z" fill="#845B00"/>
<path fill-rule="evenodd" clip-rule="evenodd" d="M34.5886 56.7862C34.5886 56.7862 34.1495 56.6765 34.1495 56.4021C34.1495 56.2375 34.2592 56.073 34.4238 56.0181C34.5884 56.0181 34.8077 56.0181 34.9723 56.0181C35.521 56.1278 36.0149 56.2924 36.4538 56.5119C36.8379 56.7314 37.1671 56.9508 37.5512 57.3349C37.5512 56.7313 37.5511 56.1278 37.4963 55.5243C36.5087 55.3048 35.5759 55.0305 34.6431 54.7562C34.4237 54.7562 34.2045 54.5916 34.2594 54.3173C34.2594 54.1527 34.4239 53.9881 34.5336 53.9881C34.6982 53.9881 34.9175 53.9881 35.0272 53.9881C35.521 54.0978 35.96 54.3173 36.3989 54.5367C36.783 54.7562 37.1122 55.0305 37.4414 55.3597C37.4414 54.8659 37.4413 54.427 37.3864 53.9332C36.3989 53.4943 35.4114 53.1102 34.4787 52.8907C34.2593 52.8907 34.0397 52.7261 34.0397 52.4518C34.0397 52.2872 34.2042 52.1226 34.314 52.1226C34.4786 52.1226 34.6982 52.1226 34.8628 52.1226C35.4115 52.2872 35.905 52.5067 36.344 52.781C36.728 53.0005 37.0575 53.3297 37.3319 53.7137C37.3319 53.1651 37.2769 52.6164 37.222 52.0677C36.2893 51.6288 35.3016 51.2447 34.3689 51.0801C34.1494 51.0801 33.9299 50.9155 33.9299 50.6961C33.9299 50.5315 34.0399 50.3669 34.2045 50.312C34.3691 50.312 34.5884 50.312 34.753 50.312C35.3016 50.4218 35.7955 50.6412 36.2345 50.9704C36.6185 51.1899 36.8928 51.5191 37.222 51.9031C37.222 51.4093 37.1121 50.9704 37.0573 50.4766C37.0573 50.4766 37.0573 50.4218 37.0573 50.3669C36.0148 49.928 34.9177 49.4342 33.8753 49.105C33.6558 49.0501 33.3813 48.8855 33.3813 48.6661C33.3813 48.5015 33.5459 48.3917 33.7105 48.3368C33.8751 48.3368 34.1496 48.3369 34.2594 48.3917C34.8629 48.6112 35.3565 48.8307 35.7955 49.1598C36.1795 49.4342 36.5637 49.7634 36.9478 50.2023C36.9478 49.7085 36.8379 49.2147 36.783 48.7758C36.3441 48.5015 35.9052 48.2271 35.4663 48.0077C34.9725 47.7333 34.4239 47.459 33.8753 47.2944C33.6558 47.1847 33.3814 47.0749 33.4363 46.8006C33.4363 46.636 33.6008 46.5263 33.7654 46.4714C33.93 46.4714 34.2042 46.4714 34.314 46.5811C34.9175 46.8006 35.4114 47.1298 35.7955 47.5139C36.1246 47.7882 36.3991 48.1174 36.6186 48.5015C36.5088 47.898 36.4537 47.2395 36.344 46.636C35.9599 46.3068 35.5211 46.0325 35.0822 45.7582C34.5884 45.429 34.0398 45.1547 33.4912 44.9352C33.2717 44.8255 32.9973 44.6608 33.0522 44.4414C33.0522 44.2768 33.2717 44.1671 33.4363 44.1671C33.546 44.1671 33.6557 44.1671 33.7105 44.1671C33.8203 44.1671 33.9299 44.2219 33.9848 44.2768C34.5883 44.5511 35.0823 44.8803 35.5212 45.3192C35.7955 45.5936 36.0699 45.9228 36.2894 46.3068C36.1797 45.7582 36.1245 45.1546 36.0148 44.606C35.2467 43.9476 34.4237 43.3989 33.6007 43.0697C33.4361 43.0149 33.2169 42.8503 33.2169 42.576C33.2169 42.4114 33.3815 42.3016 33.5461 42.2467C33.601 42.2467 33.7106 42.2467 33.8204 42.2467C33.9301 42.2467 33.9849 42.3016 34.0946 42.3565C34.6433 42.5759 35.0273 42.9051 35.4113 43.2892C35.5759 43.5087 35.7407 43.7281 35.9053 44.0025C35.7956 43.399 35.6858 42.8503 35.5761 42.2467C34.808 41.5883 33.985 41.0397 33.162 40.7105C32.9974 40.6556 32.7779 40.4911 32.8328 40.2716C32.8328 40.107 32.9974 39.9972 33.162 39.9424C33.2169 39.9424 33.3265 39.9424 33.4363 39.9424C33.546 39.9424 33.6008 39.9424 33.7105 40.0521C34.2043 40.2716 34.6431 40.6008 34.9723 40.9848C35.1918 41.2592 35.4115 41.5335 35.5761 41.9175C35.4664 41.4238 35.3567 40.93 35.2469 40.4362C34.4788 39.8327 33.8751 39.0097 33.3264 38.2415C33.2167 38.0769 33.107 37.8026 33.3264 37.638C33.4361 37.5283 33.6557 37.5283 33.7654 37.638C33.8752 37.6929 34.0398 37.8575 34.0946 37.9672C34.5335 38.6256 34.8628 39.1743 35.1371 39.8875C35.0822 39.5583 34.9726 39.2291 34.9177 38.8999C34.3142 37.9124 33.8753 36.7602 33.5461 35.6628C33.4912 35.4434 33.4911 35.1142 33.7654 35.0044C33.93 34.8947 34.1494 35.0045 34.314 35.1142C34.4237 35.2239 34.5337 35.4434 34.5886 35.608C34.9178 36.6504 35.0272 37.5831 35.0272 38.7353C35.0272 38.8999 35.1371 39.0645 35.1371 39.2291C35.0822 38.4061 35.1372 37.5831 35.2469 36.815C35.2469 36.5956 35.3567 36.3761 35.631 36.3761C35.7956 36.3761 35.9599 36.4858 36.0148 36.6504C36.0697 36.815 36.0148 36.9796 36.0148 37.1442C35.9051 38.077 35.6859 38.8451 35.2469 39.7778C35.4664 40.5459 35.6309 41.314 35.7955 42.137C35.7955 41.6432 35.7956 41.2043 35.9602 40.7105C36.1248 40.1618 36.2893 39.5583 36.5637 39.0645C36.6734 38.8451 36.8927 38.6256 37.1122 38.7353C37.2768 38.7902 37.3319 39.0096 37.3319 39.1194C37.3319 39.284 37.222 39.4486 37.1671 39.6132C36.9476 40.107 36.7282 40.5459 36.5087 40.9848C36.2893 41.4238 36.0698 41.8627 35.7955 42.3565C35.9052 42.8503 36.0148 43.3441 36.0697 43.8378C36.1246 42.9051 36.4539 41.9176 36.8379 41.0397C36.9476 40.8203 37.1124 40.6008 37.3319 40.7105C37.4965 40.7105 37.6061 40.93 37.6061 41.0946C37.6061 41.2591 37.5511 41.4238 37.4963 41.5884C37.1122 42.5211 36.7282 43.2344 36.1246 44.1671C36.2344 44.8255 36.3441 45.5387 36.4538 46.1971C36.4538 45.7033 36.454 45.1546 36.6186 44.606C36.7832 44.0573 37.0572 43.4538 37.3864 43.0149C37.4962 42.7954 37.7708 42.6308 37.9902 42.7405C38.1548 42.7954 38.2095 43.0149 38.1546 43.1795C38.1546 43.3441 38.045 43.5086 37.9353 43.6184C37.661 44.0573 37.4415 44.4963 37.222 44.9352C37.0026 45.3741 36.7282 45.813 36.5087 46.3617C36.5087 46.5811 36.5637 46.7457 36.6186 46.9652C36.6186 46.9652 36.6186 47.0201 36.6186 47.075C36.6734 47.459 36.7281 47.8431 36.783 48.2271C36.783 47.6785 36.8927 47.075 37.1122 46.5263C37.3316 45.8679 37.6608 45.3193 38.0997 44.7706C38.2643 44.5511 38.5386 44.3317 38.7581 44.4963C38.9227 44.606 38.9228 44.7706 38.8679 44.9352C38.8679 45.0998 38.7034 45.3192 38.5937 45.429C38.2645 45.9228 37.9354 46.3617 37.661 46.8555C37.3867 47.2944 37.1122 47.7882 36.8379 48.3917C36.8379 48.6661 36.8929 48.9404 36.9478 49.1598C36.9478 49.4342 37.0024 49.7085 37.0573 49.9828C37.1121 49.5439 37.2768 49.0501 37.4963 48.6112C37.7706 47.9528 38.2097 47.4042 38.7035 46.9104C38.923 46.6909 39.197 46.5263 39.4165 46.6909C39.5262 46.8006 39.5262 47.0201 39.4714 47.1847C39.4714 47.2395 39.3618 47.3493 39.3069 47.4041C39.2521 47.5139 39.1971 47.5687 39.1422 47.6236C38.7033 48.0625 38.374 48.5015 38.0448 48.9953C37.7156 49.4342 37.4414 49.8731 37.1122 50.3669C37.1122 50.4766 37.1122 50.5864 37.1122 50.6961C37.1122 51.135 37.222 51.5191 37.222 51.958C37.3317 51.4094 37.4963 50.9156 37.8255 50.4218C38.1547 49.8731 38.5388 49.3793 38.9778 48.9404C39.1424 48.7758 39.4715 48.6112 39.6361 48.7758C39.7459 48.8855 39.8008 49.105 39.6911 49.2147C39.6362 49.3793 39.4716 49.5439 39.3619 49.6537C38.9778 50.0377 38.6485 50.4218 38.2645 50.8058C37.9353 51.1899 37.6061 51.5739 37.222 52.0677C37.222 52.5067 37.277 52.8907 37.3319 53.3297C37.7708 52.4518 38.4839 51.6288 39.252 51.0801C39.4166 50.9704 39.6909 50.8607 39.8555 51.0801C39.9652 51.1899 39.9653 51.4093 39.9104 51.5191C39.8555 51.6288 39.691 51.7934 39.6361 51.8483C38.868 52.4518 38.2646 52.8908 37.3319 53.3845C37.3319 53.9332 37.4414 54.4818 37.4414 55.0305C37.8803 54.1526 38.7033 53.3845 39.5263 52.8907C39.6909 52.781 39.9651 52.6713 40.1297 52.8907C40.2395 53.0005 40.2395 53.2199 40.1297 53.3297C40.0749 53.4394 39.9103 53.604 39.8006 53.6588C39.3616 53.9332 39.0326 54.1526 38.6486 54.427C38.2645 54.6464 37.9352 54.8659 37.4963 55.1403C37.4963 55.634 37.5513 56.1827 37.6061 56.6765C37.8256 56.2924 38.0997 55.9632 38.4289 55.634C38.813 55.25 39.3068 54.9208 39.8006 54.7013C40.02 54.5916 40.2946 54.5916 40.4043 54.811C40.4592 54.9756 40.4043 55.1402 40.4043 55.25C40.2946 55.3597 40.13 55.4694 40.0202 55.5243C39.5813 55.7438 39.1971 55.9632 38.813 56.1827C38.4838 56.4021 38.1 56.5668 37.661 56.8411C37.661 57.3897 37.6608 57.9384 37.7156 58.5419C37.9351 58.103 38.2645 57.7189 38.6486 57.3897C39.0326 57.0605 39.4715 56.7314 39.9653 56.5119C40.1299 56.4022 40.4042 56.4021 40.5688 56.6216C40.6236 56.7862 40.5688 56.9508 40.5688 57.0606C40.5139 57.1703 40.3493 57.28 40.2396 57.3349C39.4166 57.7738 38.7582 58.103 37.8255 58.5968C37.8255 58.9809 37.8255 59.3649 37.8255 59.749C37.9901 59.3649 38.2645 58.9809 38.5937 58.6517C39.0326 58.2676 39.5265 58.0481 40.0752 57.9384C40.1849 57.9384 40.2946 57.9384 40.4043 57.9384C40.5141 57.9384 40.6237 58.0481 40.6237 58.1579C40.6237 58.3225 40.5687 58.4871 40.4589 58.5968C40.4589 58.5968 40.3493 58.6516 40.2396 58.7065C40.1847 58.7065 40.0751 58.7065 40.0202 58.7614C39.5813 58.8711 39.1971 59.0357 38.813 59.2552C38.6484 59.3649 38.4291 59.4746 38.2645 59.5844C38.0999 59.6941 37.9351 59.8038 37.7156 59.9684C37.7156 60.4074 37.7156 60.9012 37.7156 61.3401C38.0997 60.6817 38.813 60.1879 39.5263 59.9136C39.6909 59.8587 39.9105 59.8587 40.0202 60.0782C40.0751 60.2428 40.0202 60.4074 40.0202 60.5171C39.9654 60.6268 39.8008 60.6817 39.746 60.7366C39.4168 60.9012 39.0873 61.0109 38.7581 61.1755C38.4289 61.2852 38.1546 61.3949 37.7705 61.5047C37.7705 62.3277 37.7708 63.1507 37.661 63.9188C37.661 64.0285 37.4414 64.0285 37.4414 63.9188C37.4414 62.9861 37.4414 62.0533 37.4414 61.1206C36.6184 61.1206 35.8504 61.1755 35.192 61.2852C35.0274 61.2852 34.8079 61.2852 34.753 61.0657C34.6981 60.9011 34.753 60.7366 34.8079 60.6268C34.9176 60.5171 35.0823 60.4623 35.192 60.4623C35.6309 60.4074 36.0698 60.4074 36.4538 60.4623C36.783 60.572 37.1122 60.6817 37.4414 60.9011C37.4414 60.3525 37.4414 59.8587 37.4414 59.31C36.6184 59.31 35.7405 59.31 34.9723 59.31C34.8077 59.31 34.5885 59.2552 34.5336 58.9809C34.5336 58.8163 34.5883 58.6517 34.6981 58.5968C34.8078 58.5419 35.0274 58.4871 35.1371 58.4871C36.0149 58.4871 36.6732 58.7065 37.4414 59.2003C37.4414 58.7065 37.4414 58.2128 37.4414 57.719C36.4538 57.4446 35.4664 57.1703 34.5336 57.0606L34.5886 56.7862Z" fill="#845B00"/>
<path fill-rule="evenodd" clip-rule="evenodd" d="M49.237 45.7034C49.0724 46.307 48.9076 46.9105 48.743 47.514C48.5784 46.8008 48.2493 46.1972 47.7555 45.6486C47.3166 45.1548 46.1096 44.222 45.4512 44.8256C44.7928 45.3742 45.4512 46.691 45.8353 47.2397C46.4388 48.1175 47.4263 48.6662 48.4688 48.8308C48.1944 50.1476 47.9201 51.5192 47.7555 52.836C47.536 52.0679 47.0972 51.4095 46.4937 50.8609C45.9999 50.4219 44.7381 49.5989 44.1894 50.3122C43.6956 50.9705 44.3539 52.0679 44.7379 52.5617C45.4512 53.4395 46.4935 53.9333 47.6456 53.9882C47.481 55.6342 47.4264 57.335 47.4812 58.981C47.152 58.3226 46.6581 57.719 45.9997 57.335C45.4511 57.0058 44.0245 56.3474 43.5856 57.1704C43.1467 57.9385 44.1893 59.0359 44.7379 59.4748C45.5609 60.1332 46.5486 60.3526 47.5911 60.2429C47.7008 61.7792 47.8652 63.3154 48.0847 64.8516C47.7555 64.2481 47.2617 63.7543 46.713 63.3703C46.0546 62.9862 44.9025 62.657 44.3538 63.3703C43.7503 64.1384 44.5734 65.0162 45.1769 65.51C46.1097 66.2233 47.2067 66.4427 48.3589 66.2233C48.5784 67.4303 48.9078 68.6922 49.237 69.8993C49.2918 70.1736 49.7308 70.0639 49.6211 69.7896C49.237 68.5825 48.9624 67.3206 48.6881 66.0587C49.7306 65.949 50.6635 65.51 51.3219 64.687C51.8157 64.0835 52.419 63.0959 51.7606 62.3827C51.1571 61.7243 50.1697 62.3827 49.6211 62.8216C49.0724 63.3154 48.6333 63.9189 48.4138 64.6322C48.1944 63.1508 48.03 61.6145 47.9202 60.0783C49.0176 60.0783 50.0049 59.6394 50.773 58.8713C51.3217 58.3226 51.9254 57.3899 51.3219 56.6217C50.7732 55.9085 49.7307 56.6217 49.182 57.0058C48.6334 57.4447 48.1946 57.9934 47.9202 58.5969C47.9202 57.0058 47.9201 55.4696 48.0847 53.8785C49.1271 54.043 50.1697 53.7687 50.9927 53.1652C51.5414 52.7811 52.6387 51.629 52.0352 50.8609C51.4865 50.2573 50.2246 50.7511 49.676 51.0803C49.1273 51.4095 48.6335 51.8484 48.3043 52.3971C48.4689 51.19 48.6884 49.9281 48.9627 48.721C50.06 48.9954 51.2669 48.8308 52.1996 48.1176C52.7483 47.7335 53.7907 46.691 53.2421 45.9777C52.7483 45.3742 51.4315 45.7583 50.828 46.0326C50.2244 46.307 49.6759 46.7459 49.2919 47.2946C49.4016 46.8008 49.566 46.307 49.7306 45.7583C49.7854 45.484 49.4017 45.3742 49.3468 45.6486L49.237 45.7034ZM51.4863 46.8556C50.7731 47.13 50.0051 47.514 49.2919 47.9529C49.5114 47.5689 49.7855 47.2397 50.1696 46.9105C50.6634 46.5264 51.651 45.9778 52.2545 46.1424C53.681 46.5264 51.7608 47.8981 51.3219 48.1176C50.6635 48.4468 49.9503 48.5016 49.2919 48.3919C50.0051 47.8981 50.883 47.4591 51.6511 47.1848C51.8705 47.0751 51.6509 46.7459 51.4314 46.8556H51.4863ZM48.8529 48.721C48.8529 48.721 48.9078 48.721 48.9627 48.721C48.9627 48.721 48.9077 48.721 48.8529 48.721ZM46.4388 46.3618C47.0423 46.9653 47.7007 47.6237 48.1945 48.3919C47.5361 48.2273 46.8776 47.8981 46.3838 47.3494C46.1095 47.0202 44.7928 45.045 46.1645 45.0999C46.768 45.0999 47.4812 45.9778 47.8104 46.4167C48.0847 46.8556 48.3041 47.3494 48.3589 47.8432C47.8651 47.1848 47.3165 46.5813 46.713 46.0326C46.5484 45.868 46.2193 46.1424 46.4388 46.307V46.3618ZM50.3889 51.8484C49.6757 52.1776 48.9627 52.6165 48.3043 53.1103C48.5238 52.6165 48.8529 52.2325 49.237 51.9033C49.6759 51.5192 50.5537 50.9706 51.2121 51.1352C52.5837 51.4095 50.7733 52.9457 50.3344 53.22C49.7308 53.6041 49.0176 53.7138 48.3043 53.659C48.9627 53.1103 49.7856 52.6166 50.5537 52.2325C50.7732 52.1228 50.5538 51.7387 50.3344 51.9033L50.3889 51.8484ZM45.3414 51.7387C45.9998 52.2873 46.7132 52.8909 47.2619 53.6041C46.6035 53.4944 45.9999 53.2749 45.5061 52.836C45.0672 52.4519 44.2441 51.5192 44.4087 50.8609C44.6831 49.8184 46.384 51.2998 46.6035 51.5741C46.9876 52.013 47.2616 52.5617 47.3714 53.1103C46.8776 52.5068 46.2192 51.9033 45.6156 51.4095C45.3962 51.2449 45.1219 51.5192 45.3414 51.6838V51.7387ZM49.9503 57.6642C49.2919 58.158 48.6333 58.6518 48.0297 59.2553C48.1943 58.7067 48.4689 58.2129 48.9078 57.7739C49.2918 57.3899 50.773 56.2926 51.1022 57.2253C51.3217 57.8288 50.4438 58.6518 50.0598 58.981C49.5111 59.4199 48.8529 59.6394 48.1945 59.6942C48.7432 59.0358 49.5112 58.4323 50.1696 57.9385C50.3891 57.7739 50.1697 57.4447 49.9503 57.5545V57.6642ZM44.9023 58.4323C45.6705 58.8713 46.4387 59.365 47.0971 59.9686C46.4387 59.9686 45.7805 59.804 45.2319 59.4748C44.9027 59.3102 44.6282 59.0358 44.4087 58.7615C44.2441 58.5969 43.7505 57.9934 43.8602 57.7191C43.9699 57.3899 44.4636 57.2253 44.7379 57.335C44.8477 57.335 45.0123 57.3899 45.122 57.4447C45.5061 57.6093 45.8353 57.7739 46.1645 58.0483C46.6034 58.4323 46.9874 58.9261 47.152 59.4199C46.5485 58.8713 45.7804 58.4323 45.122 58.0483C44.9026 57.9385 44.6829 58.2677 44.9023 58.3775V58.4323ZM47.3714 60.2429C47.3714 60.2429 47.3714 60.2978 47.4263 60.3526C47.4263 60.3526 47.3165 60.3526 47.3165 60.2429H47.3714ZM50.3889 63.48C49.7854 63.9738 49.1822 64.5773 48.6335 65.1808C48.7433 64.687 48.9077 64.2481 49.182 63.864C49.5112 63.4251 50.6635 62.1632 51.3219 62.7119C51.9254 63.2605 50.9378 64.4127 50.5537 64.7968C50.0599 65.2905 49.4014 65.5649 48.743 65.6746C49.2917 64.9614 49.9502 64.303 50.6086 63.7543C50.8281 63.5897 50.5538 63.3154 50.3344 63.48H50.3889ZM45.4512 64.5773C46.2193 64.9614 47.0971 65.4003 47.7555 65.949C47.0971 66.0038 46.3839 65.9489 45.7804 65.5649C45.2866 65.2905 43.5858 63.9738 44.8478 63.48C45.5062 63.2057 46.3839 63.7543 46.8229 64.1384C47.2069 64.5225 47.536 64.9614 47.7555 65.4552C47.0971 64.9614 46.3289 64.5773 45.6156 64.1932C45.3962 64.0835 45.1768 64.4127 45.3963 64.5224L45.4512 64.5773ZM48.0847 66.2233C48.0847 66.2233 48.1396 66.2233 48.1945 66.2782C48.1945 66.2782 48.1395 66.2781 48.0847 66.2233Z" fill="#845B00"/>
<path fill-rule="evenodd" clip-rule="evenodd" d="M52.2009 55.4694C52.5301 55.4694 52.7497 55.1951 52.7497 54.9207C52.7497 54.6464 52.4752 54.3721 52.2009 54.3721C51.9265 54.3721 51.6523 54.6464 51.6523 54.9207C51.6523 55.1951 51.9265 55.4694 52.2009 55.4694Z" fill="#845B00"/>
<path fill-rule="evenodd" clip-rule="evenodd" d="M30.9665 56.567C31.2957 56.567 31.5154 56.2927 31.5154 56.0184C31.5154 55.744 31.2408 55.4697 30.9665 55.4697C30.6922 55.4697 30.418 55.744 30.418 56.0184C30.418 56.2927 30.6922 56.567 30.9665 56.567Z" fill="#845B00"/>
<path fill-rule="evenodd" clip-rule="evenodd" d="M31.9544 45.704C31.5155 45.0456 31.0765 44.3872 30.5278 43.8385C30.5278 43.7288 30.5828 43.6191 30.6377 43.5093C30.6377 43.4545 30.6377 43.3447 30.6377 43.235C30.6377 43.0155 30.5281 42.7961 30.4732 42.6315C30.3635 42.412 30.1988 42.2474 29.9793 42.1377C29.9244 42.1377 29.8148 42.1377 29.76 42.1926C29.76 42.2474 29.7597 42.3572 29.8145 42.412C29.9791 42.4669 30.0892 42.6315 30.1441 42.7961C30.1989 42.9607 30.2536 43.1253 30.3085 43.2899C30.1439 43.0155 29.9245 42.7412 29.705 42.5218C29.6502 42.4669 29.5402 42.5218 29.4854 42.5218C29.4854 42.5218 29.4854 42.6315 29.4854 42.6863V42.7412C29.7597 43.0156 30.0343 43.3448 30.1441 43.7288C30.1441 43.7288 30.144 43.7288 30.0891 43.7288C29.6502 43.6191 29.2661 43.3447 29.0467 42.9058C29.0467 42.8509 28.9367 42.7961 28.827 42.8509C28.7721 42.8509 28.7175 42.9607 28.7724 43.0156C28.9919 43.4545 29.4306 43.8385 29.9244 43.9483C29.8147 44.0031 29.65 44.058 29.5403 44.058C29.4854 44.058 29.3758 44.058 29.3209 44.058C29.2661 44.058 29.211 44.058 29.1562 43.9483C28.9916 43.8385 28.8821 43.7837 28.7724 43.6739C28.7175 43.6191 28.6076 43.6739 28.5527 43.6739V43.7837C28.5527 43.7837 28.5527 43.8385 28.5527 43.8934C28.7173 44.0031 28.8272 44.1129 28.9918 44.2226C29.0466 44.2226 29.1563 44.3323 29.266 44.3323C29.3757 44.3323 29.4305 44.3323 29.5403 44.3323C29.8146 44.3323 30.089 44.2226 30.2536 44.058C30.2536 44.058 30.3634 44.0031 30.3634 43.9483C30.8572 44.4969 31.2961 45.0456 31.6801 45.704C31.8996 46.0332 32.119 45.7588 31.9544 45.5942V45.704Z" fill="#845B00"/>
<path fill-rule="evenodd" clip-rule="evenodd" d="M41.9965 41.7534C41.9965 41.7534 41.9416 41.1498 41.6673 40.8207C41.2284 40.272 39.6374 40.8207 40.4055 41.8082C40.6249 42.0826 40.954 42.302 40.8991 42.302C40.8991 42.302 40.6798 42.2471 40.4055 42.2471C39.0887 42.2471 39.3628 44.3869 40.8442 43.8383C41.0636 43.7285 41.0637 43.7285 40.8991 43.948C40.8442 44.0577 40.7346 44.1675 40.6797 44.3321C40.5151 44.6064 40.6247 44.9356 40.8442 45.1002C41.2282 45.3745 41.8868 45.3196 42.0514 44.8258C42.1063 44.6064 42.1609 44.3869 42.1609 44.2223C42.2706 43.3993 41.9415 45.3196 43.2583 45.2648C43.8069 45.2648 44.2459 44.8258 43.5875 44.0577C43.4777 43.948 43.3681 43.8383 43.3132 43.7834C43.2035 43.6737 43.1486 43.6188 43.3132 43.6737C43.5327 43.7285 43.8619 43.7834 44.0814 43.6737C44.4106 43.5639 44.5751 42.7409 44.3557 42.302C44.0265 41.6985 43.478 41.918 43.1488 42.0277C42.8196 42.1374 42.7098 42.1374 43.0939 41.8631C43.2036 41.8082 43.3682 41.6985 43.478 41.5888C44.4107 40.8206 42.6547 39.6136 42.1609 40.9852C42.0512 41.3144 41.9964 41.6436 41.9416 41.6436L41.9965 41.7534ZM42.3806 42.302C42.3806 42.302 42.3255 42.5763 42.1609 42.5215C41.9963 42.4118 42.1611 42.1374 42.3806 42.302ZM41.6124 42.5764C41.6124 42.5764 41.8867 42.1923 41.9965 42.5764C42.0513 42.7958 42.0514 43.1799 41.7222 43.0701C41.5576 43.0153 41.5026 42.7958 41.5575 42.5764H41.6124ZM42.545 42.6861C42.8742 42.8507 42.7645 43.125 42.545 43.125C41.9963 43.125 42.1609 42.4666 42.545 42.6861ZM42.2707 43.2347C42.7097 43.4542 42.2707 43.6188 41.8866 43.4542C41.5026 43.2896 41.8867 43.0153 42.2707 43.2347Z" fill="#845B00"/>
</g>
<path fill-rule="evenodd" clip-rule="evenodd" d="M14.5657 13.6623C16.1568 14.0463 16.2664 12.565 15.4983 12.0163C14.5656 11.3031 12.0967 13.0587 14.5657 13.6623Z" fill="#845B00"/>
</svg>
