<svg viewBox="0 0 24 24" fill="none" xmlns="http://www.w3.org/2000/svg">
<path d="M17.9053 16.8447C17.6124 16.5518 17.1376 16.5518 16.8447 16.8447C16.5518 17.1376 16.5518 17.6124 16.8447 17.9053L17.9053 16.8447ZM19.4697 20.5303C19.7626 20.8232 20.2374 20.8232 20.5303 20.5303C20.8232 20.2374 20.8232 19.7626 20.5303 19.4697L19.4697 20.5303ZM20 12.125C20 7.77576 16.4742 4.25 12.125 4.25V5.75C15.6458 5.75 18.5 8.60418 18.5 12.125H20ZM12.125 4.25C7.77576 4.25 4.25 7.77576 4.25 12.125H5.75C5.75 8.60418 8.60418 5.75 12.125 5.75V4.25ZM4.25 12.125C4.25 16.4742 7.77576 20 12.125 20V18.5C8.60418 18.5 5.75 15.6458 5.75 12.125H4.25ZM12.125 20C16.4742 20 20 16.4742 20 12.125H18.5C18.5 15.6458 15.6458 18.5 12.125 18.5V20ZM16.8447 17.9053L19.4697 20.5303L20.5303 19.4697L17.9053 16.8447L16.8447 17.9053Z" fill="#1E1E1E"/>
</svg>
