<svg width="13" height="9" viewBox="0 0 13 9" fill="none" xmlns="http://www.w3.org/2000/svg">
<path d="M2.01021 4.6226C1.68676 4.36384 1.21479 4.41628 0.956035 4.73973C0.697278 5.06318 0.749719 5.53515 1.07317 5.7939L2.01021 4.6226ZM4.03957 7.20656L3.57105 7.79221L3.57105 7.79221L4.03957 7.20656ZM5.97755 7.04803L5.42008 6.5463L5.42008 6.5463L5.97755 7.04803ZM12.0158 1.45998C12.2929 1.15209 12.268 0.677876 11.9601 0.400781C11.6522 0.123687 11.178 0.148646 10.9009 0.456528L12.0158 1.45998ZM1.07317 5.7939L3.57105 7.79221L4.50809 6.62091L2.01021 4.6226L1.07317 5.7939ZM6.53503 7.54975L12.0158 1.45998L10.9009 0.456528L5.42008 6.5463L6.53503 7.54975ZM3.57105 7.79221C4.46731 8.50921 5.76721 8.40288 6.53503 7.54975L5.42008 6.5463C5.18383 6.8088 4.78386 6.84152 4.50809 6.62091L3.57105 7.79221Z" fill="#DC0030"/>
</svg>
