<svg viewBox="0 0 181 149" fill="none" xmlns="http://www.w3.org/2000/svg">
<g clip-path="url(#clip0_403_4856)">
<path fill-rule="evenodd" clip-rule="evenodd" d="M81.7558 159.976C80.5031 153.748 79.4102 145.453 78.4293 138.741L76.6399 126.745C76.6399 126.745 77.2969 127.902 78.2956 129.86C79.2942 131.818 80.6423 134.504 82.0545 137.696C85.1188 144.366 87.5061 151.323 89.1805 158.464C89.7075 160.902 90.0847 163.369 90.3102 165.852C93.2217 162.103 96.0605 158.346 98.8618 154.525C98.3553 154.311 97.9423 153.923 97.6982 153.43C96.1072 150.032 95.0471 146.412 94.5548 142.696C93.2569 136.478 92.1918 128.201 91.2009 121.443L89.3939 109.475L91.0671 112.563C92.0657 114.521 93.4238 117.252 94.8261 120.399C97.8973 127.065 100.285 134.023 101.952 141.166C102.482 143.619 102.863 146.102 103.092 148.6C106.658 143.527 110.096 138.411 113.46 133.17C112.052 132.576 110.199 130.07 106.844 122.454C102.662 111.752 99.2047 100.784 96.4945 89.6232C102.917 99.1577 108.688 109.113 113.768 119.42C114.994 122.091 116.035 124.843 116.881 127.656L117.586 126.558C117.627 126.245 117.737 125.945 117.907 125.679C118.078 125.414 118.305 125.189 118.572 125.021C119.629 123.375 120.63 121.693 121.577 119.975C122.58 118.411 123.429 116.786 124.35 115.169C123.915 115.247 123.466 115.195 123.06 115.017C122.655 114.84 122.311 114.546 122.073 114.173C120.377 111.148 119.17 107.876 118.496 104.477C116.991 98.824 115.614 91.2761 114.343 85.0757L112.12 74.1185L113.86 76.8619C114.944 78.5651 116.378 80.9961 117.919 83.8058C121.204 89.749 123.853 96.0198 125.821 102.514C126.507 104.901 127.012 107.336 127.33 109.797C129.555 105.724 131.698 101.597 133.785 97.4352C132.443 96.9222 130.865 94.5931 128.295 86.7834C125.368 76.4229 123.202 65.8653 121.814 55.1948C127.058 64.6111 131.621 74.3885 135.468 84.4515C136.277 86.9076 136.859 88.9084 137.215 90.4541C137.321 90.2894 137.427 90.1248 137.55 89.9327C137.484 89.5734 137.509 89.2037 137.622 88.8571C137.736 88.5105 137.935 88.1981 138.201 87.9485C138.307 87.7838 138.43 87.5918 138.708 87.4606C139.963 84.7787 141.235 82.0692 142.434 79.352C141.076 78.9841 139.704 76.9415 137.774 69.4658C135.868 59.9777 134.723 50.3551 134.349 40.69C138.655 49.3643 142.251 58.3706 145.102 67.6203C145.445 68.964 145.731 70.1546 145.932 71.1746C147.517 67.3103 149.047 63.4106 150.533 59.5208C148.981 59.4548 147.613 57.6475 145.599 48.6066C143.988 38.3784 143.145 28.0467 143.076 17.6979C147.119 27.2383 150.445 37.0645 153.024 47.0946L153.74 50.8863C154.55 48.6551 155.342 46.4512 156.124 44.2023C155 43.2875 154.532 40.6239 156.507 31.9726C159.248 21.5569 162.741 11.3552 166.957 1.44699C166.726 12.2219 165.707 22.9631 163.909 33.5848C163.628 34.9927 163.307 36.2202 163.029 37.3202C170.022 32.0677 177.418 27.3701 185.148 23.2703C179.74 30.5983 173.716 37.4518 167.142 43.7564C160.201 49.7246 158.527 49.4251 157.279 48.1591C155.807 52.755 154.226 57.2802 152.443 61.7542C153.5 61.0765 154.756 60.3323 156.327 59.5197C161.724 56.9236 167.445 55.0578 173.34 53.9714C176.15 53.4108 178.6 53.046 180.355 52.8552C182.111 52.6644 183.197 52.5476 183.197 52.5476L180.739 53.9537L174.621 57.428C169.869 60.2287 164.225 63.8131 159.755 66.1748C157.203 67.7911 154.376 68.9311 151.414 69.5394C151.073 69.5832 150.726 69.5439 150.403 69.4244C150.08 69.3049 149.791 69.1089 149.56 68.8534C148.529 71.3688 147.453 73.894 146.359 76.4466C146.375 76.8527 146.297 77.2568 146.133 77.628C145.969 77.9993 145.723 78.3281 145.412 78.5895C144.457 80.8049 143.447 82.9849 142.437 85.165C143.506 84.6501 144.756 84.096 146.266 83.4383C151.132 81.3692 157.691 79.1466 163.099 76.9603L169.857 74.2455C171.548 73.5487 172.582 73.0886 172.582 73.0886C172.582 73.0886 171.818 73.9156 170.501 75.2403C169.185 76.565 167.296 78.2972 165.02 80.2076C160.264 84.2714 154.987 87.6859 149.328 90.3619C146.431 91.9316 143.208 92.807 139.91 92.9195C139.554 92.8981 139.208 92.7952 138.898 92.6187C138.405 93.3871 138.105 94.2791 137.694 95.1005C137.682 95.4118 137.601 95.7164 137.457 95.9926C137.314 96.2687 137.111 96.5097 136.863 96.6984C135.483 99.4547 134.076 102.193 132.613 104.897L133.19 104.725C134.678 104.285 136.665 103.855 139.291 103.215C141.918 102.576 145.025 101.975 148.156 101.155C151.287 100.336 154.473 99.5524 157.321 98.629C160.168 97.7056 162.645 96.8152 164.426 96.0988L167.315 94.9304C167.315 94.9304 166.506 95.7671 165.071 97.0937C160.687 101.092 155.757 104.45 150.427 107.068C147.463 108.522 144.351 109.655 141.144 110.448C138.913 110.992 136.637 111.334 134.344 111.47C133.119 111.567 131.886 111.433 130.71 111.075C130.305 110.927 129.938 110.692 129.635 110.386C127.655 113.957 125.664 117.484 123.645 120.993L122.272 123.134C123.606 122.75 125.34 122.352 127.507 121.883C132.719 120.849 139.696 120.096 145.414 119.426L155.601 118.214L153.035 119.667C151.411 120.562 149.14 121.739 146.401 123.159C140.86 125.875 135.026 127.954 129.01 129.356C125.896 130.285 122.613 130.519 119.394 130.043C119.046 129.929 118.733 129.728 118.485 129.459C115.444 134.482 112.274 139.421 108.976 144.278C110.807 143.788 113.491 143.301 116.834 142.696C123.27 141.634 131.894 140.737 138.861 139.939L151.273 138.411L147.942 140.148C145.901 141.086 143.043 142.39 139.74 143.719C132.754 146.633 125.491 148.838 118.059 150.301C114.19 151.238 110.179 151.449 106.228 150.923C105.749 150.821 105.302 150.6 104.928 150.282C102.008 154.53 98.988 158.752 95.9027 162.894C98.8691 162.409 101.859 162.077 104.861 161.901C111.38 161.435 120.013 161.434 127.046 161.259L139.893 161.174C139.893 161.174 138.634 161.682 136.508 162.45C134.383 163.217 131.465 164.25 127.993 165.237C120.739 167.46 113.275 168.941 105.716 169.656C101.784 170.225 97.7771 170.058 93.9009 169.164C93.28 169.042 92.7285 168.688 92.3586 168.174C84.0689 178.945 75.1781 189.24 65.7281 199.011C64.5898 200.178 62.914 198.367 63.9796 197.191C71.5015 188.923 78.7931 180.468 85.7719 171.774C85.4301 171.531 85.138 171.225 84.9114 170.873C83.3364 167.411 82.2735 163.74 81.7558 159.976Z" fill="#92D660"/>
<path fill-rule="evenodd" clip-rule="evenodd" d="M22.2506 200.403C22.5601 193.914 23.2135 187.448 24.2081 181.03C24.3744 181.231 24.5977 181.376 24.8481 181.447C26.5231 181.923 28.2848 182.004 29.9958 181.682C31.7067 181.359 33.3205 180.643 34.7112 179.589C36.33 178.3 39.4169 174.888 38.4757 172.462C37.5346 170.035 32.4902 171.211 30.5326 171.666C28.6464 172.071 26.8803 172.915 25.3751 174.13C26.4668 167.912 27.7468 161.657 29.1397 155.174C29.2589 155.319 29.3985 155.447 29.5538 155.553C30.8968 156.352 32.3896 156.862 33.9381 157.052C35.4867 157.241 37.0572 157.105 38.551 156.652C40.6968 155.97 45.1766 153.354 44.9507 150.549C44.7249 147.743 39.7181 147.629 37.6852 147.553C35.1243 147.405 32.5786 148.039 30.382 149.373C31.7372 142.966 33.1301 136.559 34.1465 130.152C34.2702 130.183 34.3994 130.183 34.523 130.152C36.242 130.459 38.0095 130.337 39.6703 129.795C41.3311 129.252 42.8342 128.308 44.0473 127.043C45.666 125.641 48.527 123.252 46.3436 121.205C45.1474 120.439 43.7962 119.953 42.389 119.783C40.9819 119.612 39.5546 119.761 38.2122 120.219C37.333 120.473 36.4957 120.856 35.7276 121.356C36.7817 114.911 37.6476 108.504 38.1369 102.135C40.9643 101.236 43.4386 99.4625 45.209 97.0671C46.9794 94.6718 47.9559 91.7758 48 88.7901C47.9779 88.5768 47.9001 88.3732 47.7745 88.2C47.6488 88.0269 47.4798 87.8903 47.2847 87.8043C45.6277 87.2147 43.8106 87.2778 42.1978 87.9809C40.585 88.684 39.2957 89.9752 38.5887 91.5955C38.6725 85.7475 38.2822 79.9023 37.4217 74.1182C37.5185 74.1563 37.626 74.1563 37.7228 74.1182C40.2585 72.8601 42.3749 70.8844 43.8125 68.4333C45.2501 65.9822 45.9466 63.162 45.8166 60.3182C45.8039 60.0778 45.7225 59.8464 45.5823 59.6514C45.442 59.4563 45.2488 59.3061 45.026 59.2189C43.7204 58.8137 42.3217 58.8299 41.0257 59.2649C39.7297 59.7 38.6012 60.5323 37.7981 61.6453C36.9185 62.6595 36.1487 63.7651 35.5017 64.9436C34.0178 59.236 31.8961 53.716 29.1773 48.4898C30.9302 46.3827 32.0549 43.819 32.4213 41.0951C32.7877 38.3711 32.3809 35.5983 31.2479 33.0976C31.1325 32.8259 30.937 32.5966 30.6878 32.4406C30.4387 32.2846 30.1479 32.2096 29.8549 32.2257C28.4699 32.386 27.1718 32.9871 26.1494 33.9417C25.1271 34.8963 24.4339 36.1546 24.1706 37.5334C23.9823 38.14 23.8317 38.7845 23.6811 39.429C23.0412 38.5191 22.3636 37.6091 21.686 36.7372C22.825 32.7933 22.993 28.6293 22.1754 24.6053C21.6107 22.1411 19.5401 17.857 16.4909 20.2833C15.5736 21.2998 14.8839 22.5028 14.4682 23.811C14.0526 25.1191 13.9206 26.5018 14.0815 27.8657C14.1849 29.8201 14.7264 31.7256 15.6652 33.4393C16.604 35.153 17.9159 36.6305 19.5025 37.7609C20.7071 39.3153 21.8366 40.8696 22.8906 42.4619C21.1076 41.7789 19.2255 41.3948 17.3191 41.3246C15.5497 41.3246 11.3711 41.0213 11.0323 43.4097C10.5805 46.4047 14.9851 49.5136 17.2438 50.3476C18.8504 50.8883 20.5488 51.0963 22.2372 50.9594C23.9256 50.8226 25.5692 50.3438 27.0692 49.5514C29.5637 54.3828 31.5448 59.4659 32.9796 64.7161C31.5204 63.6125 29.893 62.7547 28.161 62.1761C26.354 61.5695 23.4929 60.508 22.9659 63.1239C22.8694 64.646 23.1292 66.1695 23.7242 67.572C24.3192 68.9746 25.2329 70.2171 26.3916 71.1992C28.7881 73.2553 31.8668 74.3249 35.0124 74.1941C35.8394 79.4869 36.2672 84.835 36.2924 90.1928C35.5626 88.6005 34.5187 87.1745 33.2244 86.0013C31.93 84.8281 30.4123 83.9324 28.7633 83.3687C28.5519 83.3368 28.3359 83.3621 28.1374 83.4421C27.9389 83.522 27.7651 83.6537 27.6339 83.8236C26.7072 85.1721 26.1379 86.7366 25.9798 88.3687C25.8216 90.0009 26.08 91.6466 26.7304 93.15C27.4866 94.9404 28.6182 96.5449 30.0477 97.8536C31.4772 99.1624 33.1709 100.144 35.0124 100.732C35.2548 100.826 35.5229 100.826 35.7653 100.732C35.3135 107.557 34.3725 114.419 33.2431 121.319C32.8681 119.501 32.0435 117.807 30.8458 116.396C29.6481 114.984 28.1161 113.9 26.3916 113.243C26.1007 113.125 25.776 113.121 25.4827 113.234C25.1893 113.346 24.9492 113.566 24.8105 113.85C24.198 115.174 23.8806 116.617 23.8806 118.077C23.8806 119.538 24.198 120.98 24.8105 122.304C26.6001 124.825 29.1681 126.678 32.1137 127.574C30.9843 133.564 29.742 139.516 28.3491 145.468C27.1712 142.354 24.8353 139.825 21.8366 138.417C21.5902 138.311 21.3157 138.291 21.0566 138.359C20.7975 138.428 20.5687 138.581 20.406 138.796C19.7811 139.944 19.3953 141.209 19.2723 142.513C19.1494 143.816 19.2917 145.132 19.6908 146.378C20.2498 147.905 21.137 149.287 22.289 150.428C23.4409 151.568 24.829 152.438 26.3539 152.975H26.7304C25.2246 160.026 23.7564 167.002 22.5517 173.902C21.7089 172.01 20.4163 170.356 18.788 169.086C17.1597 167.817 15.2459 166.971 13.2158 166.623C12.9541 166.591 12.6891 166.643 12.459 166.773C12.2289 166.902 12.0457 167.102 11.9358 167.344C11.6123 168.713 11.586 170.136 11.8589 171.517C12.1317 172.898 12.6973 174.203 13.5169 175.343C14.4388 176.656 15.6269 177.758 17.0026 178.575C18.3783 179.391 19.9103 179.905 21.4977 180.082H21.8366C20.7697 186.735 20.0783 193.443 19.766 200.175C19.766 201.73 22.1 202.147 22.1377 200.554L22.2506 200.403Z" fill="#92D660"/>
</g>
<defs>
<clipPath id="clip0_403_4856">
<rect width="181" height="149" fill="white"/>
</clipPath>
</defs>
</svg>
