<svg width="31" height="94" viewBox="0 0 31 94" fill="none" xmlns="http://www.w3.org/2000/svg">
<path fill-rule="evenodd" clip-rule="evenodd" d="M24.1285 92.8156C23.5476 89.4383 23.167 86.0296 22.9887 82.6073C23.097 82.6951 23.2329 82.7417 23.3723 82.739V82.739C24.291 82.8019 25.2117 82.6506 26.062 82.2971C26.9123 81.9435 27.6689 81.3974 28.2721 80.7017C28.9779 79.8407 30.2078 77.7663 29.464 76.6092C28.7202 75.4522 26.1971 76.6286 25.2272 77.0837C24.2987 77.513 23.4735 78.137 22.8076 78.9134C22.706 75.5937 22.6993 72.2182 22.6853 68.8087L22.8894 68.7653C23.6363 69.0554 24.4347 69.1898 25.2354 69.1601C26.0362 69.1304 26.8225 68.9373 27.5459 68.5927C28.5961 68.0139 30.5859 66.1689 30.2749 64.7065C29.9639 63.2442 27.2354 63.7888 26.1737 63.9791C24.8304 64.1829 23.5827 64.7958 22.6004 65.7342C22.5915 62.1815 22.626 58.8328 22.5368 55.4038L22.7409 55.3604C23.6687 55.3225 24.5737 55.0614 25.3791 54.5993C26.1845 54.1372 26.8665 53.4877 27.3673 52.7059C28.0246 51.7841 29.2754 50.3095 27.8802 49.4332C27.1758 49.1712 26.4218 49.07 25.6732 49.137C24.9246 49.2039 24.2005 49.4372 23.5537 49.82C23.129 50.0532 22.7359 50.3399 22.3841 50.673C22.2391 47.1492 21.9943 43.8244 21.5381 40.5089C22.8977 39.74 23.9837 38.5664 24.6451 37.1515C25.3065 35.7367 25.5102 34.1509 25.2281 32.615C25.1861 32.5109 25.1207 32.418 25.037 32.3433C24.9533 32.2687 24.8535 32.2143 24.7454 32.1844C23.8102 32.0746 22.8682 32.3234 22.1091 32.8806C21.3501 33.4378 20.8305 34.262 20.6552 35.187C20.0664 32.1598 19.2204 29.1883 18.1264 26.3049V26.3049C19.3015 25.3661 20.1811 24.1085 20.6598 22.6828C21.1386 21.2571 21.1961 19.7237 20.8257 18.2662C20.7859 18.1455 20.712 18.0387 20.6131 17.9589C20.5141 17.8791 20.3942 17.8295 20.2677 17.8161C19.5469 17.7547 18.8249 17.9196 18.2022 18.2877C17.5795 18.6559 17.0871 19.209 16.7936 19.8701C16.4397 20.4746 16.159 21.119 15.9574 21.7897C14.5211 19.0201 12.7759 16.422 10.755 14.045C11.4273 12.7591 11.727 11.3111 11.6203 9.86414C11.5137 8.41717 11.0048 7.02879 10.1512 5.85552C10.061 5.73183 9.9357 5.63806 9.79159 5.58632C9.64748 5.53459 9.49115 5.52724 9.34283 5.56531C8.63717 5.80131 8.02579 6.25739 7.59856 6.8665C7.17133 7.47561 6.95076 8.20568 6.96925 8.94937C7.03433 9.25544 6.90255 9.63893 6.89961 9.95947L5.58263 8.78212C5.73835 6.62173 5.36325 4.4561 4.49003 2.47395C3.95031 1.2735 2.40616 -0.637578 1.06054 0.892703C0.689832 1.52818 0.463732 2.23753 0.398328 2.97026C0.332924 3.70299 0.42982 4.44109 0.682122 5.1321C0.954512 6.12309 1.44324 7.04138 2.11312 7.82089C2.783 8.60039 3.61739 9.22173 4.55625 9.6402C5.3514 10.2802 6.11319 10.9606 6.83858 11.6787C5.83849 11.5273 4.82041 11.5397 3.82428 11.7154C2.90585 11.9107 0.69267 12.2036 0.654116 13.527C0.615562 14.8504 3.36043 16.2218 4.77892 16.2045C6.5814 16.3785 8.38077 15.8429 9.79453 14.7113C11.6134 16.918 13.1946 19.3102 14.5121 21.8483C13.6457 21.4312 12.7117 21.1724 11.7541 21.084C10.7294 20.9464 9.11694 20.7206 9.1341 22.1388C9.25672 22.9325 9.56344 23.6864 10.0297 24.3403C10.496 24.9941 11.1088 25.5298 11.8193 25.9045C13.2931 26.7063 15.0149 26.9239 16.642 26.514C17.6304 29.1639 18.4335 31.8794 19.0458 34.6406C17.9193 33.2163 16.2801 32.2891 14.4788 32.0572C14.3654 32.0604 14.2555 32.0962 14.1619 32.1602C14.0684 32.2242 13.9952 32.3138 13.9511 32.4182C13.6152 33.2127 13.4887 34.0801 13.5839 34.9374C13.6791 35.7946 13.9926 36.6132 14.4946 37.3146C15.0856 38.161 15.8526 38.8696 16.743 39.3919C17.6334 39.9142 18.6263 40.238 19.6536 40.3409C19.783 40.3465 19.9118 40.3191 20.0277 40.2614C20.5223 43.8742 20.8326 47.5098 20.9575 51.1541C20.5931 50.2618 20.0083 49.4765 19.2579 48.8714C18.5074 48.2664 17.6159 47.8615 16.6664 47.6945C16.5837 47.6775 16.4983 47.6774 16.4155 47.6942C16.3327 47.7111 16.2542 47.7445 16.1847 47.7925C16.1152 47.8405 16.0561 47.9021 16.011 47.9735C15.9659 48.0449 15.9358 48.1248 15.9223 48.2082C15.7384 48.9566 15.7261 49.7369 15.8864 50.4908C16.0467 51.2446 16.3755 51.9524 16.848 52.5613C18.0573 53.6491 19.5833 54.3211 21.2024 54.4789C21.275 57.6627 21.2868 60.8949 21.2574 64.1003C20.7905 63.3611 20.1807 62.7224 19.4637 62.2217C18.7467 61.7211 17.937 61.3686 17.082 61.1848C16.941 61.1609 16.7961 61.1834 16.669 61.2489C16.5418 61.3144 16.4394 61.4194 16.377 61.548C16.1852 62.1987 16.1286 62.8817 16.2106 63.555C16.2927 64.2284 16.5116 64.8777 16.8541 65.4633C17.2983 66.189 17.8992 66.8061 18.613 67.2694C19.3267 67.7327 20.1351 68.0304 20.9789 68.1407L21.183 68.0973C21.1745 71.9026 21.1587 75.6739 21.2986 79.341C20.6553 78.4621 19.8058 77.7549 18.8247 77.2816C17.8436 76.8084 16.7612 76.5837 15.6728 76.6273C15.5281 76.631 15.3892 76.6847 15.2796 76.7793C15.1701 76.8739 15.0968 77.0035 15.072 77.146C15.0515 77.8863 15.1921 78.6222 15.4842 79.3028C15.7763 79.9833 16.2128 80.5922 16.7635 81.0874C18.042 82.0738 19.6556 82.5216 21.2598 82.3352L21.4298 82.299C21.5873 85.853 21.9604 89.3942 22.5471 92.903C22.7207 93.7192 23.9815 93.6289 23.8491 92.8395L24.1285 92.8156Z" fill="#265113"/>
</svg>
