<svg width="47" height="180" viewBox="0 0 47 180" fill="none" xmlns="http://www.w3.org/2000/svg">
<path fill-rule="evenodd" clip-rule="evenodd" d="M79.6972 179.046C76.8114 172.797 73.5586 166.724 69.9557 160.86C69.8765 161.128 69.7048 161.36 69.4712 161.515V161.515C68.023 162.665 66.3275 163.464 64.5182 163.847C62.7089 164.231 60.8352 164.189 59.0449 163.725C56.8967 163.105 52.4994 161.074 52.4121 158.313C52.3247 155.551 57.8385 154.624 59.9612 154.272C61.9862 153.925 64.0621 154.017 66.048 154.543C62.4349 148.935 58.6015 143.344 54.7412 137.688L54.3542 137.848C53.449 139.179 52.2813 140.31 50.9228 141.173C49.5643 142.036 48.0437 142.612 46.4544 142.866C44.0579 143.105 38.6648 142.319 37.5136 139.546C36.3625 136.772 41.4966 134.566 43.4697 133.671C45.9239 132.478 48.6861 132.071 51.38 132.505C47.3482 126.617 43.477 121.117 39.719 115.343L39.3319 115.503C37.754 116.498 35.9595 117.096 34.1008 117.249C32.2421 117.402 30.374 117.104 28.6551 116.382C26.5179 115.605 22.7692 114.59 24.0791 111.552C24.946 110.316 26.0782 109.29 27.3927 108.548C28.7073 107.806 30.171 107.367 31.6769 107.264C32.6452 107.166 33.6219 107.192 34.5834 107.343C30.8096 101.348 27.4278 95.5692 24.4062 89.5649C21.2812 89.8414 18.1479 89.1369 15.4423 87.5496C12.7368 85.9623 10.5935 83.5712 9.31087 80.7088C9.26183 80.489 9.26409 80.2607 9.31751 80.0419C9.37093 79.823 9.47407 79.6194 9.61891 79.4468C11.041 78.2 12.8828 77.5386 14.7731 77.5958C16.6634 77.6531 18.4616 78.4248 19.8052 79.7553C17.3314 74.0768 15.3465 68.1975 13.8721 62.1816V62.1816C10.8588 61.9668 7.97134 60.8884 5.55556 59.0751C3.13977 57.2618 1.298 54.7907 0.250802 51.9576C0.179123 51.7125 0.179699 51.4519 0.25248 51.2071C0.325261 50.9623 0.467178 50.7437 0.661136 50.5775C1.7836 49.6549 3.16581 49.1053 4.61529 49.0051C6.06478 48.9049 7.50935 49.2591 8.74787 50.0184C10.0217 50.6153 11.22 51.3617 12.3175 52.2416C11.539 46.024 11.4669 39.7382 12.1027 33.5042C9.52592 32.1427 7.38085 30.0887 5.90928 27.5735C4.4377 25.0583 3.69814 22.1819 3.77397 19.2687C3.78232 18.9614 3.88275 18.6636 4.06222 18.4138C4.2417 18.1641 4.49195 17.9739 4.78066 17.8679C6.21683 17.4546 7.74768 17.5128 9.14821 18.0338C10.5487 18.5548 11.7452 19.5113 12.5616 20.7627C12.8026 21.3432 13.4573 21.8275 13.8273 22.3544L14.665 18.9067C11.9467 15.5101 10.1007 11.5003 9.2876 7.22669C8.81317 4.62609 9.19095 -0.294144 13.16 0.704746C14.497 1.33379 15.679 2.24973 16.6217 3.38738C17.5645 4.52503 18.2449 5.85642 18.6146 7.28692C19.2927 9.23656 19.5301 11.3123 19.3097 13.3648C19.0894 15.4173 18.4168 17.3956 17.3403 19.1572C16.7538 21.1216 16.2685 23.1148 15.8864 25.1289C17.3684 23.7394 19.0667 22.6004 20.9147 21.7564C22.6565 21.0335 26.6514 18.9972 28.2225 21.1426C29.7936 23.288 26.8148 28.683 24.4485 30.27C21.6649 32.6109 18.0781 33.7742 14.4506 33.5126C13.955 39.2348 14.0639 44.9931 14.7751 50.6923C15.7334 49.0156 16.9837 47.5236 18.4671 46.2867C20.0057 44.892 22.4159 42.6819 24.0028 45.0475C24.7039 46.5001 25.0552 48.0967 25.0287 49.7094C25.0021 51.3222 24.5984 52.9064 23.8498 54.3353C22.3249 57.3405 19.7244 59.6615 16.5658 60.8367C17.9491 66.3462 19.7132 71.7531 21.8454 77.0183C22.0866 73.379 23.7421 69.9782 26.458 67.5428C26.6492 67.4192 26.8719 67.3531 27.0996 67.3524C27.3273 67.3518 27.5503 67.4165 27.7421 67.539C29.2028 68.4708 30.3998 69.7617 31.2189 71.2883C32.0379 72.8149 32.4514 74.5261 32.42 76.2582C32.4063 78.3314 31.9445 80.3772 31.0664 82.2555C30.1883 84.1338 28.9146 85.8002 27.3325 87.1406C27.1247 87.2973 26.8805 87.3986 26.6228 87.4351C29.9196 93.975 33.547 100.343 37.4913 106.514C37.0779 104.623 37.1508 102.657 37.7031 100.802C38.2554 98.9462 39.2691 97.2608 40.6496 95.9031C40.7671 95.7807 40.9082 95.6834 41.0643 95.617C41.2205 95.5505 41.3885 95.5164 41.5581 95.5166C41.7278 95.5169 41.8957 95.5514 42.0516 95.6182C42.2076 95.685 42.3484 95.7828 42.4656 95.9055C43.6224 96.9341 44.5315 98.211 45.1249 99.6406C45.7183 101.07 45.9806 102.616 45.8923 104.161C45.1307 107.338 43.3718 110.188 40.8732 112.293C44.3792 117.642 48.0411 123.003 51.7407 128.272C51.6711 126.517 51.9525 124.766 52.5684 123.121C53.1842 121.477 54.1222 119.971 55.3273 118.693C55.5333 118.493 55.7987 118.365 56.0836 118.329C56.3685 118.293 56.6575 118.35 56.9072 118.491C57.9656 119.349 58.8373 120.415 59.4684 121.622C60.0996 122.829 60.477 124.153 60.5774 125.512C60.6692 127.218 60.3779 128.923 59.7249 130.503C59.0718 132.082 58.0736 133.495 56.8034 134.639L56.4163 134.8C60.7646 141.085 65.086 147.306 69.0314 153.531C69.0944 151.345 69.6944 149.207 70.7783 147.307C71.8622 145.407 73.397 143.802 75.2472 142.635C75.4908 142.476 75.7818 142.407 76.0707 142.438C76.3596 142.47 76.6286 142.601 76.8319 142.809C77.709 144.01 78.3145 145.387 78.6065 146.846C78.8985 148.304 78.8699 149.809 78.5229 151.255C77.5313 154.343 75.3721 156.922 72.5058 158.441L72.1833 158.574C75.9709 164.633 79.3869 170.916 82.4128 177.389C83.0553 178.937 80.8667 180.224 80.1865 178.767L79.6972 179.046Z" fill="#92D660"/>
</svg>
