<svg viewBox="0 0 182 189" fill="none" xmlns="http://www.w3.org/2000/svg">
<path fill-rule="evenodd" clip-rule="evenodd" d="M3.5523 31.4433C36.1694 29.4192 60.4792 50.5489 82.5523 71.8381L83.2458 72.9105C83.4226 73.1061 83.5664 73.3286 83.6723 73.57C89.5059 77.5362 94.7744 82.2754 99.3339 87.658C92.5401 59.0618 87.0564 30.3206 97.1555 1.79679C97.2966 1.37325 97.5549 0.9983 97.9006 0.715875C98.2464 0.433451 98.6652 0.254969 99.1083 0.201215C99.5515 0.147468 100.001 0.220559 100.404 0.41215C100.807 0.603735 101.148 0.905651 101.386 1.28318C119.416 29.1644 112.154 61.3522 104.078 91.3757C103.991 91.8547 103.722 92.2811 103.325 92.564C109.138 100.512 114.245 108.953 118.586 117.791C119.386 119.028 120.24 120.348 120.627 121.852L121.617 121.212C124.493 85.3303 136.504 50.7813 156.508 20.8542C156.803 20.4527 157.214 20.1506 157.685 19.988C158.156 19.8254 158.666 19.8099 159.146 19.9438C159.626 20.0777 160.054 20.3545 160.373 20.7374C160.692 21.1204 160.887 21.5911 160.932 22.0875C162.004 56.4894 152.865 104.046 122.858 126.025L122.445 126.292C129.715 141.572 135.797 157.389 140.64 173.603L141.959 172.749C144.835 136.868 156.846 102.319 176.85 72.3915C177.13 71.9895 177.528 71.6847 177.989 71.5193C178.45 71.3539 178.951 71.3365 179.423 71.4689C179.895 71.6013 180.313 71.877 180.62 72.2582C180.928 72.6395 181.109 73.1071 181.139 73.596C182.293 107.945 173.125 155.637 143.118 177.615C142.994 177.819 142.826 177.993 142.626 178.122C142.426 178.252 142.199 178.333 141.963 178.362C143.315 182.986 144.905 188.159 145.743 192.53C145.788 193.076 145.641 193.62 145.328 194.069C145.015 194.519 144.555 194.845 144.028 194.992C143.5 195.14 142.938 195.099 142.437 194.877C141.937 194.655 141.529 194.265 141.284 193.775C139.22 185.518 136.937 177.284 134.271 169.182C101.646 163.958 54.6005 149.459 34.4797 121.058C33.2528 119.161 35.4024 117.419 37.1974 117.662C71.2338 123.26 107.259 130.848 130.296 157.246C126.479 146.601 122.048 136.185 117.026 126.052C114.539 120.759 111.833 115.49 108.88 110.38C77.8744 110.192 44.8703 108.723 22.7884 84.1643C22.4743 83.8346 22.2622 83.4206 22.1782 82.9731C22.0941 82.5255 22.1416 82.0636 22.3146 81.6424C22.4877 81.2212 22.7788 80.8589 23.1531 80.5997C23.5275 80.3404 23.9693 80.1954 24.4244 80.1817C54.1016 77.953 80.0581 90.4133 105.398 104.091C98.6495 92.9011 89.3157 83.4925 78.1797 76.6543C49.7328 68.8456 21.9607 59.5478 2.1148 36.8184C1.40203 36.6277 0.794041 36.1616 0.424829 35.5228C0.0556179 34.884 -0.0446724 34.1247 0.145959 33.4119C0.336589 32.6991 0.80275 32.0915 1.44155 31.7222C2.08036 31.353 2.83953 31.2527 3.5523 31.4433Z" fill="#265113"/>
</svg>
