<svg viewBox="0 0 154 220" fill="none" xmlns="http://www.w3.org/2000/svg">
<g clip-path="url(#clip0_403_4854)">
<path fill-rule="evenodd" clip-rule="evenodd" d="M64.8385 -91.9196C67.7698 -91.891 71.5279 -91.2196 72.389 -87.7361C72.576 -86.5741 72.3977 -85.3825 71.8785 -84.3262C71.3594 -83.2699 70.5251 -82.4012 69.4909 -81.8395C67.0743 -80.8052 64.4536 -80.3359 61.8283 -80.4671C54.325 -80.4563 46.8648 -81.6008 39.7099 -83.8604C33.5633 -85.8855 27.7271 -88.7522 22.3675 -92.3793C23.9045 -83.7973 25.915 -75.2211 27.8488 -66.6311C41.8976 -65.9049 56.3408 -64.3003 69.6508 -63.2835C72.5465 -63.0113 76.1297 -61.9925 76.5448 -58.35C76.6313 -57.1957 76.3531 -56.043 75.7497 -55.0552C75.1462 -54.0674 74.2477 -53.2944 73.1812 -52.8446C70.9319 -52.0179 68.5221 -51.7216 66.1396 -51.9788C59.0355 -52.4062 52.0244 -53.8117 45.3044 -56.1555C39.1615 -58.3209 33.3198 -61.2609 27.9208 -64.9045C29.101 -58.3148 30.9079 -51.758 32.4712 -45.2369C46.8145 -41.6708 61.421 -39.2624 76.1499 -38.0343C79.1989 -37.7895 83.0748 -36.9019 83.6431 -33.2868C83.7629 -32.0996 83.4952 -30.9058 82.8801 -29.8834C82.2649 -28.8609 81.3354 -28.0647 80.2304 -27.6142C77.7309 -26.7971 75.088 -26.5124 72.4718 -26.7783C64.5939 -27.342 56.8704 -29.2488 49.6352 -32.4158C43.6272 -35.0827 38.0401 -38.6106 33.0499 -42.889C34.882 -35.3089 36.7907 -27.7425 38.8526 -20.2036C52.7769 -16.1721 67.136 -13.8318 81.6198 -13.2331C84.5648 -13.1278 88.3365 -12.3796 89.1211 -8.88233C89.3367 -7.71647 89.1605 -6.51203 88.6199 -5.45678C88.0794 -4.40155 87.2048 -3.55496 86.1326 -3.04874C83.71 -2.03486 81.094 -1.56634 78.4701 -1.6764C70.6172 -1.97554 62.892 -3.7582 55.7021 -6.93039C49.802 -9.57745 44.3757 -13.1741 39.6394 -17.5768C41.46 -10.9437 43.2807 -4.3104 45.2546 2.29531C45.2998 2.78715 45.387 3.27425 45.5154 3.7512C61.1972 7.74339 77.0757 10.9177 93.087 13.2618C96.4071 13.6952 100.505 14.9386 100.906 18.5045C100.921 19.7189 100.536 20.9044 99.8097 21.8779C99.0835 22.8513 98.0568 23.5581 96.8885 23.8896C94.1744 24.5984 91.3417 24.7289 88.5741 24.2719C80.3264 23.1772 72.2879 20.8584 64.7241 17.3925C57.9641 14.2962 51.659 10.2903 45.9842 5.48597C47.9672 12.1428 50.0314 18.8113 52.1769 25.4917C58.8536 28.3291 65.6561 30.9858 72.5432 33.232C80.3701 35.8068 88.35 37.8906 96.4366 39.4709C99.6308 40.085 103.603 41.5089 103.851 45.1023C103.841 46.3224 103.422 47.504 102.661 48.4577C101.899 49.4113 100.84 50.0819 99.6525 50.3619C96.8683 50.8909 94.0048 50.8381 91.2419 50.2073C82.9955 48.5575 75.0931 45.5059 67.8782 41.1851C62.5747 37.9221 57.721 33.9793 53.4407 29.4569C56.2586 38.1258 59.1393 46.7041 62.1104 55.3455C68.6089 58.8066 75.29 61.9131 82.1245 64.6515C90.0529 67.833 98.2082 70.4172 106.522 72.3817C109.821 73.1354 113.897 74.6987 114.068 78.3057C113.988 79.5396 113.497 80.7114 112.673 81.6331C111.849 82.5549 110.739 83.1733 109.522 83.3902C108.099 83.6366 106.652 83.7103 105.211 83.609C103.753 83.4909 102.307 83.2471 100.89 82.8805C92.34 80.865 84.2411 77.2735 77.0077 72.2902C72.1892 68.9763 67.8186 65.0542 64.0043 60.6213C66.7479 68.4336 69.5681 76.2322 72.4512 83.9404C84.3837 91.0394 97.3729 96.188 110.929 99.1922C113.74 99.875 117.148 101.242 117.319 104.849C117.301 106.028 116.906 107.171 116.192 108.11C115.478 109.049 114.482 109.735 113.351 110.067C112.112 110.473 110.822 110.704 109.519 110.753C108.23 110.683 106.95 110.489 105.698 110.172C98.1204 108.383 91.0138 104.991 84.8575 100.223C81.5805 97.6821 78.6154 94.7624 76.0239 91.5249C79.1152 99.5122 82.1926 107.423 85.3605 115.396C97.1738 122.453 109.976 127.704 123.343 130.974C126 131.684 129.318 132.988 129.337 136.623C129.346 137.796 128.97 138.941 128.267 139.88C127.564 140.82 126.573 141.504 125.445 141.827C124.284 142.224 123.069 142.442 121.843 142.472C120.589 142.384 119.343 142.212 118.112 141.954C110.851 140.177 104.056 136.864 98.1832 132.238C94.0198 129.034 90.414 125.164 87.5117 120.784C90.2301 127.573 93.0389 134.424 95.9105 141.185C107.911 148.222 118.864 156.909 128.449 166.991C130.483 169.078 132.417 172.37 129.917 175.19C129.184 176.064 128.214 176.708 127.123 177.044C126.033 177.379 124.869 177.392 123.771 177.082C121.651 176.233 119.743 174.927 118.183 173.258C110.688 165.902 104.177 157.604 98.8154 148.573C100.635 152.993 102.517 157.322 104.414 161.727C115.442 174.335 124.67 188.411 131.834 203.553C133.343 206.684 134.279 211.024 130.7 213.563C129.516 214.342 128.124 214.744 126.707 214.716C125.29 214.687 123.915 214.229 122.763 213.403C120.664 211.617 118.952 209.42 117.732 206.949C110.68 193.395 105.801 178.818 103.273 163.75C102.249 161.561 101.133 159.309 100.185 157.107C102.951 168.364 104.485 179.89 104.76 191.479C104.808 194.396 104.046 198.091 100.445 198.736C99.3241 198.896 98.1813 198.717 97.1629 198.223C96.1445 197.729 95.297 196.943 94.7286 195.964C93.7313 193.906 93.1684 191.665 93.075 189.38C92.3649 176.268 93.7486 163.126 97.1742 150.449C92.467 140.062 87.8993 129.572 83.6244 118.95C85.0308 125.725 85.5277 132.657 85.1018 139.563C84.5586 147.925 82.9552 156.184 80.3302 164.142C79.3192 167.328 76.8934 171.005 73.5047 170.189C72.3973 169.848 71.4144 169.189 70.6778 168.295C69.9412 167.401 69.4835 166.31 69.3614 165.158C69.2785 162.712 69.617 160.271 70.3621 157.94L76.4958 136.992C78.4904 130.466 80.6108 123.76 82.8456 115.926C80.1683 109.367 77.554 102.718 75.0163 96.0548C76.3033 109.911 74.9696 123.886 71.085 137.249C70.2135 140.331 68.1709 143.939 64.2871 143.449C63.1586 143.203 62.1267 142.633 61.3185 141.808C60.5102 140.983 59.961 139.94 59.7387 138.807C59.4853 136.431 59.6998 134.028 60.3701 131.734C63.6182 118.238 67.9133 105.015 73.2163 92.1861C69.6664 82.9629 66.2653 73.6868 63.0128 64.3577C64.8872 71.7775 65.435 79.4701 64.6308 87.0806C63.8844 95.6511 61.7555 104.044 58.3267 111.934C56.9817 115.022 54.1316 118.538 50.7647 117.401C49.666 116.963 48.7262 116.202 48.0698 115.218C47.4135 114.234 47.0714 113.073 47.089 111.891C47.2691 109.477 47.8324 107.107 48.7577 104.87C51.45 97.8241 53.7019 91.4105 55.9127 84.767C58.1234 78.1236 60.3068 71.3272 62.5496 63.0964L59.6332 54.7611C59.6332 54.7611 59.4961 53.995 58.8774 53.6313C57.1505 48.4048 55.347 43.1922 53.683 37.8754C54.9373 46.0479 54.8518 54.3701 53.43 62.5151C51.8806 71.9501 48.8139 81.0722 44.349 89.5271C42.5854 92.9271 39.2265 96.6918 35.8184 95.3251C34.7529 94.7586 33.8922 93.8716 33.3579 92.7896C32.8235 91.7076 32.6424 90.485 32.8403 89.2945C33.3265 86.6075 34.1914 84.0032 35.4091 81.5591C39.078 73.7846 41.9864 66.6209 44.8537 59.2272C47.7209 51.8336 50.1284 44.5222 52.8607 35.492C51.7423 31.8963 50.4923 28.0079 49.4287 24.7188L48.8317 24.0351L49.2149 23.9664C48.0553 20.1409 46.8464 16.4822 45.6593 12.5034C45.7373 19.4465 44.8473 26.3664 43.0149 33.0637C40.3687 42.716 36.0281 51.8214 30.1954 59.9546C27.868 63.2975 23.4934 66.6904 20.6297 64.8308C19.6602 64.085 18.9494 63.0536 18.5977 61.8821C18.246 60.7106 18.2711 59.4582 18.6695 58.3017C19.0795 56.9547 19.6437 55.6594 20.3507 54.4418C20.9726 53.187 21.6806 51.977 22.47 50.8201C26.9784 43.7612 31.0822 36.4519 34.7612 28.9274C38.2953 21.8679 41.4044 14.6031 44.0719 7.17271C43.8112 5.71685 43.5368 4.18468 42.7397 2.82488L37.758 -14.393C37.5785 -6.45663 36.1576 1.40302 33.5469 8.89987C30.5702 17.3484 26.3434 25.303 21.0075 32.4979C18.8414 35.4165 15.1782 38.3658 12.0709 36.4708C11.2645 35.6543 10.713 34.6209 10.4835 33.4965C10.2541 32.3722 10.3566 31.2054 10.7785 30.1383C11.5772 27.6928 12.7355 25.3799 14.2153 23.2755C18.7935 16.6035 22.6111 10.542 26.6037 4.13305C30.5963 -2.27592 34.184 -8.29629 38.3401 -15.9999C36.6567 -21.8668 35.05 -27.7472 33.4432 -33.6278C29.0289 -19.9017 21.6075 -7.33365 11.72 3.16071C9.73686 5.33478 6.47283 7.42204 3.55423 5.25596C2.67043 4.55197 2.00365 3.61265 1.63072 2.54606C1.2578 1.47948 1.19402 0.329104 1.4466 -0.772207C2.16438 -2.88581 3.32824 -4.82047 4.85931 -6.44478C13.4622 -16.5484 22.9673 -25.8476 33.2568 -34.2272C31.2715 -41.7799 29.2862 -49.3325 27.3775 -56.8989C22.6064 -43.2256 14.3495 -31.0342 3.42305 -21.5295C1.10597 -19.4538 -2.53327 -17.6949 -5.1591 -19.9925C-5.9451 -20.828 -6.4712 -21.8739 -6.67342 -23.003C-6.87565 -24.1322 -6.74532 -25.2961 -6.29815 -26.3524C-5.27858 -28.3653 -3.91931 -30.1869 -2.28031 -31.7376C2.85708 -36.6118 7.38146 -41.3764 12.3496 -45.4295L26.5255 -58.5651C24.7757 -65.6854 23.0122 -72.8826 21.3254 -80.0933C19.3573 -74.0723 16.4496 -68.4004 12.71 -63.2875C8.03101 -56.9435 2.34311 -51.4099 -4.1272 -46.9071C-6.72905 -45.0967 -10.6037 -43.7699 -12.9288 -46.5959C-13.5837 -47.5251 -13.9646 -48.6195 -14.0281 -49.7546C-14.0916 -50.8897 -13.8351 -52.0199 -13.2879 -53.0164C-12.081 -54.8656 -10.5479 -56.48 -8.76344 -57.7808C-3.20977 -62.0969 1.55583 -65.9557 6.51022 -70.0854C11.4646 -74.2151 15.6586 -77.734 20.8234 -82.4549C19.068 -90.0488 17.3069 -98.1158 15.7401 -105.981C13.6198 -99.1414 10.261 -92.7501 5.83111 -87.1245C1.3024 -81.2475 -4.09464 -76.0943 -10.1746 -71.8419C-12.6369 -70.1356 -16.3721 -68.913 -18.6834 -71.6623C-19.3351 -72.5794 -19.7327 -73.6525 -19.8362 -74.7728C-19.9396 -75.8931 -19.7452 -77.0207 -19.2724 -78.0416C-18.1408 -79.8472 -16.6792 -81.4235 -14.9641 -82.6882L15.6222 -106.197C14.6616 -111.561 13.7147 -116.848 12.7541 -122.211C11.4057 -115.867 8.56396 -109.936 4.46463 -104.91C-0.655387 -98.6657 -7.26496 -93.8106 -14.7548 -90.7922C-16.3127 -90.0779 -18.0265 -89.771 -19.7355 -89.9002C-20.5354 -89.9721 -21.3016 -90.256 -21.9552 -90.7228C-22.6088 -91.1896 -23.126 -91.8223 -23.4535 -92.5556C-23.8247 -93.6308 -23.8981 -94.7866 -23.666 -95.9002C-23.4338 -97.0138 -22.9048 -98.0439 -22.1348 -98.8812C-21.4295 -99.6796 -20.5827 -100.341 -19.637 -100.831C-18.7947 -101.405 -17.906 -101.908 -16.9802 -102.335C-11.5069 -105.018 -6.30774 -108.227 -1.45604 -111.916C3.51083 -115.594 8.06069 -119.803 12.1125 -124.469C10.9323 -131.059 9.76582 -137.572 8.59935 -144.085C4.07928 -133.78 -3.46622 -125.092 -13.0367 -119.174C-13.5572 -118.735 -14.1609 -118.406 -14.8117 -118.205C-15.4626 -118.005 -16.1472 -117.939 -16.8245 -118.01C-17.5017 -118.08 -18.1576 -118.287 -18.7531 -118.617C-19.3486 -118.947 -19.8712 -119.394 -20.2898 -119.931C-20.9441 -120.794 -21.3848 -121.799 -21.5756 -122.864C-21.7664 -123.93 -21.702 -125.025 -21.3876 -126.061C-20.557 -127.619 -19.3555 -128.948 -17.8892 -129.93C-13.4597 -133.017 -9.43507 -135.714 -5.15317 -138.3C-0.871268 -140.886 3.09608 -143.02 8.06761 -145.729C6.02286 -157.146 4.64033 -168.84 3.32637 -180.151C3.01074 -181.913 6.16607 -182.399 6.39135 -180.7C8.76546 -167.444 11.1258 -154.265 13.4862 -141.085C24.2132 -143.018 34.768 -145.807 45.0491 -149.427C46.2291 -150.043 47.6023 -150.177 48.8794 -149.801C50.1564 -149.425 51.2376 -148.568 51.8951 -147.411C52.4626 -146.468 52.7634 -145.389 52.7654 -144.289C52.7674 -143.189 52.4706 -142.109 51.9065 -141.165C50.5042 -139.651 48.7577 -138.497 46.8149 -137.801C41.0615 -135.727 34.9391 -134.873 28.8376 -135.294C23.6102 -135.639 18.5017 -137.008 13.8019 -139.323C15.1742 -131.66 16.4642 -124.458 17.7953 -117.025C29.6723 -119.152 41.7025 -121.307 52.923 -122.684C54.2867 -123.095 55.7556 -122.98 57.0384 -122.36C58.3211 -121.74 59.3242 -120.662 59.849 -119.337C60.1595 -118.258 60.1684 -117.114 59.8746 -116.03C59.5808 -114.945 58.9957 -113.962 58.1827 -113.187C56.4148 -111.977 54.3838 -111.207 52.2584 -110.94C40.7191 -109.101 28.8953 -110.546 18.1384 -115.11C19.4009 -108.06 20.6497 -101.087 21.8985 -94.1145C36.7055 -93.1286 51.3376 -91.795 64.8385 -91.9196Z" fill="#92D660"/>
</g>
<defs>
<clipPath id="clip0_403_4854">
<rect width="154" height="220" fill="white"/>
</clipPath>
</defs>
</svg>
