<svg viewBox="0 0 122 129" fill="none" xmlns="http://www.w3.org/2000/svg">
<g clip-path="url(#clip0_403_4855)">
<path fill-rule="evenodd" clip-rule="evenodd" d="M28.9249 14.9482C48.1609 25.7599 54.197 46.6538 58.9065 66.8181V67.6804C58.935 67.8561 58.935 68.035 58.9065 68.2108C60.7598 72.5985 62.0094 77.2174 62.621 81.9411C69.2541 63.2361 76.6831 44.9293 92.8678 32.4593C93.1031 32.2709 93.387 32.153 93.6866 32.1197C93.9862 32.0863 94.2891 32.1387 94.5601 32.2707C94.8311 32.4027 95.0591 32.6089 95.2175 32.8654C95.3758 33.1219 95.458 33.4178 95.4547 33.7192C95.4547 56.1387 79.5353 71.7264 63.9476 85.7883C63.723 86.0283 63.4137 86.1711 63.0853 86.1863C63.4672 92.8239 63.2674 99.4823 62.4883 106.085C62.4883 107.08 62.4884 108.142 62.1567 109.136H62.9527C77.7395 89.846 97.2176 74.6609 119.533 65.0271C119.847 64.9077 120.191 64.887 120.518 64.9675C120.845 65.0481 121.139 65.2261 121.362 65.478C121.585 65.73 121.727 66.0439 121.767 66.378C121.808 66.7121 121.746 67.0505 121.589 67.3484C109.583 87.2473 86.9644 110.861 61.8913 112.32H61.5597C60.0786 123.649 57.728 134.848 54.5286 145.817H55.5899C70.3767 126.526 89.8548 111.341 112.17 101.707C112.476 101.582 112.814 101.555 113.136 101.63C113.458 101.706 113.748 101.879 113.967 102.127C114.186 102.375 114.322 102.685 114.357 103.014C114.391 103.343 114.322 103.675 114.16 103.963C102.22 123.861 79.5354 147.541 54.4623 149C54.3177 149.071 54.1588 149.108 53.998 149.108C53.8371 149.108 53.6784 149.071 53.5337 149C52.6051 152.118 51.6101 155.634 50.4824 158.419C50.3076 158.745 50.0248 159 49.6826 159.14C49.3403 159.28 48.9599 159.296 48.6069 159.187C48.2538 159.077 47.95 158.847 47.7476 158.538C47.5452 158.229 47.4567 157.858 47.4976 157.491C49.3548 152.052 51.0794 146.546 52.5387 140.975C35.956 126.05 14.5975 100.58 13.6025 77.0991C13.6025 75.5735 15.4598 75.3744 16.3884 76.1704C33.6344 91.8242 51.2784 109.335 54.6613 132.75C56.4001 125.314 57.7067 117.784 58.5748 110.198C59.1054 106.284 59.5034 102.304 59.7024 98.3247C42.1911 86.8497 24.0165 73.9154 20.501 51.8939C20.4438 51.5918 20.4753 51.2793 20.5918 50.9947C20.7082 50.7102 20.9045 50.4657 21.1571 50.2903C21.4096 50.1149 21.7075 50.0162 22.0148 50.0065C22.3222 49.9968 22.6258 50.0766 22.8889 50.2357C40.5329 59.8535 50.6814 76.4356 60.0341 93.4824C60.3105 84.6629 58.4681 75.906 54.6613 67.9456C41.3952 53.0877 29.0576 37.633 26.1391 17.4688C25.8048 17.0993 25.631 16.6121 25.6559 16.1146C25.6807 15.617 25.9023 15.1496 26.2717 14.8154C26.6412 14.4812 27.1283 14.3075 27.6259 14.3324C28.1234 14.3573 28.5907 14.5788 28.9249 14.9482Z" fill="#92D660"/>
</g>
<defs>
<clipPath id="clip0_403_4855">
<rect width="122" height="129" fill="white"/>
</clipPath>
</defs>
</svg>
