<svg width="25" height="66" viewBox="0 0 25 66" fill="none" xmlns="http://www.w3.org/2000/svg">
<path fill-rule="evenodd" clip-rule="evenodd" d="M19.6669 -3.21783C20.328 -3.21783 21.1093 -2.798 21.1393 -1.98834C21.14 -1.72989 21.0591 -1.47779 20.9081 -1.26785C20.757 -1.0579 20.5435 -0.900784 20.2979 -0.818836C19.7535 -0.699326 19.1896 -0.699326 18.6452 -0.818836C16.9958 -1.10298 15.4029 -1.64969 13.9273 -2.43813C12.6697 -3.10854 11.5158 -3.95696 10.5016 -4.95706C10.5016 -3.00788 10.5016 -1.08873 10.6819 0.860449C13.6869 1.58014 16.6919 2.47979 19.6969 3.22948C20.328 3.4094 21.0492 3.76924 20.9891 4.5789C20.9611 4.83165 20.8572 5.07005 20.6909 5.26274C20.5247 5.45542 20.3038 5.59338 20.0575 5.65844C19.5334 5.77792 18.989 5.77792 18.4649 5.65844C16.9385 5.25532 15.4731 4.65019 14.1076 3.85918C12.8534 3.15926 11.7008 2.29159 10.6819 1.28027C10.6819 2.77964 10.6819 4.27902 10.9223 5.7484C13.9162 7.08005 17.011 8.173 20.1777 9.01701C20.8388 9.19693 21.6502 9.55677 21.6502 10.3664C21.6162 10.6216 21.5064 10.8608 21.3351 11.0532C21.1637 11.2456 20.9385 11.3824 20.6886 11.446C20.1139 11.5665 19.5203 11.5665 18.9457 11.446C17.2427 11.0143 15.6266 10.2942 14.1677 9.3169C12.958 8.47561 11.8752 7.46578 10.9524 6.31817C10.9524 8.05743 11.1928 9.7667 11.343 11.506C14.2114 12.9177 17.2376 13.9847 20.358 14.6846C20.9891 14.6846 21.8004 15.1344 21.8305 15.9441C21.8257 16.2062 21.7349 16.4596 21.5721 16.6654C21.4093 16.8712 21.1834 17.0181 20.929 17.0836C20.366 17.2186 19.7791 17.2186 19.2161 17.0836C17.5059 16.72 15.883 16.0274 14.4382 15.0445C13.2735 14.222 12.2573 13.208 11.4332 12.0458C11.5534 13.5651 11.7036 15.0945 11.8839 16.6338V16.9337C15.1522 18.4319 18.5031 19.7435 21.9206 20.862C22.6118 21.1019 23.4532 21.5217 23.3931 22.3314C23.3537 22.5979 23.2255 22.8434 23.0293 23.0283C22.833 23.2133 22.5801 23.3269 22.3113 23.351C21.691 23.3766 21.0709 23.2954 20.4782 23.1111C18.7279 22.5399 17.0684 21.722 15.55 20.6821C14.1966 19.737 12.974 18.6178 11.914 17.3535C12.0943 18.8828 12.2746 20.3522 12.4849 21.9416C13.8372 22.8112 15.2195 23.6508 16.6318 24.4305C18.2476 25.2887 19.9133 26.0497 21.6201 26.7096C22.2812 26.9795 23.0926 27.4293 23.0024 28.2389C22.9546 28.5014 22.8182 28.7397 22.616 28.9143C22.4137 29.0888 22.1578 29.1892 21.8906 29.1985C21.2639 29.2081 20.6414 29.0961 20.0575 28.8687C18.3136 28.1495 16.7073 27.135 15.3096 25.8699C14.2721 25.0014 13.3617 23.992 12.6051 22.8712C12.8756 24.8804 13.1761 26.8895 13.4766 28.8687C14.7687 29.8583 16.121 30.8178 17.5033 31.6874C19.1085 32.6894 20.7859 33.5715 22.5216 34.3263C23.2128 34.6262 24.0542 35.106 23.934 35.9157C23.8728 36.1801 23.7236 36.4159 23.5107 36.5848C23.2979 36.7536 23.0339 36.8454 22.762 36.8453C22.4363 36.8371 22.1131 36.7868 21.8004 36.6954L20.8689 36.3955C19.094 35.6115 17.4754 34.5144 16.0909 33.1568C15.1728 32.2563 14.3658 31.2496 13.6869 30.1581C13.9874 31.9573 14.2879 33.7566 14.6185 35.5558C16.945 37.5211 19.5728 39.1005 22.4014 40.2339C23.0024 40.5037 23.6936 40.9236 23.6034 41.7332C23.5533 41.9921 23.4211 42.2281 23.2263 42.4063C23.0315 42.5844 22.7844 42.6954 22.5216 42.7228H21.6502L20.8388 42.4529C19.2566 41.7472 17.8353 40.7269 16.6619 39.4542C16.05 38.7717 15.5251 38.0163 15.0993 37.2052C15.4599 39.0644 15.8205 40.9236 16.2111 42.7828C18.5043 44.7877 21.0877 46.4355 23.8739 47.6707C24.4448 47.9106 25.1059 48.3304 24.9857 49.1401C24.9292 49.3909 24.7989 49.6191 24.6115 49.7954C24.4241 49.9717 24.1881 50.0881 23.934 50.1297H23.0926C22.8248 50.0626 22.5633 49.9723 22.3113 49.8598C20.7764 49.1621 19.4125 48.1387 18.3146 46.8611C17.5321 45.9709 16.9026 44.9576 16.4515 43.8623C16.7821 45.4517 17.1126 47.041 17.4732 48.6303C19.7919 50.6583 21.8148 53 23.4832 55.5874C23.7155 55.8415 23.8443 56.1731 23.8443 56.517C23.8443 56.861 23.7155 57.1925 23.4832 57.4466C23.2882 57.6065 23.0505 57.7059 22.7995 57.7326C22.5485 57.7592 22.2952 57.7119 22.0709 57.5965C21.6547 57.3206 21.2889 56.9758 20.9891 56.577C19.6506 54.7271 18.5596 52.7109 17.7437 50.5795C17.954 51.5991 18.1944 52.6186 18.4348 53.5782C20.3588 56.7456 21.8256 60.1678 22.7921 63.7439C23.0024 64.4936 23.0325 65.5132 22.161 65.903C21.8749 66.0065 21.5654 66.0277 21.2679 65.9641C20.9703 65.9004 20.6967 65.7546 20.4782 65.5432C20.0828 65.0825 19.7953 64.5395 19.6368 63.9539C18.6231 60.7232 18.1262 57.3532 18.1644 53.9681C18.0141 53.4583 17.8939 52.9185 17.7437 52.4087C17.9056 54.9721 17.7948 57.5454 17.4131 60.0855C17.4131 60.7152 16.9924 61.4949 16.1811 61.4949C15.9305 61.4776 15.69 61.3895 15.4877 61.2408C15.2855 61.0921 15.1299 60.889 15.0392 60.6552C14.9346 60.1609 14.9346 59.6502 15.0392 59.1559C15.3848 56.2659 16.1966 53.4507 17.4432 50.8194C16.8121 48.3904 16.2412 45.9015 15.7003 43.4425C15.7458 44.9765 15.5841 46.5096 15.2195 48.0006C14.7743 49.7898 14.0975 51.5136 13.2061 53.1284C12.8756 53.7881 12.2145 54.5078 11.4632 54.208C11.2279 54.0893 11.0334 53.9031 10.9049 53.6733C10.7764 53.4436 10.7197 53.1807 10.742 52.9185C10.8242 52.3875 10.9863 51.8719 11.2228 51.3892C12.0041 49.8898 12.6652 48.3904 13.3564 47.131C14.0475 45.8715 14.7687 44.4021 15.5801 42.7828C15.2495 41.2534 14.919 39.7841 14.6185 38.1348C14.3755 41.2143 13.5388 44.2181 12.1544 46.981C11.8539 47.6107 11.2529 48.3005 10.5016 48.0606C10.264 47.9612 10.0606 47.7948 9.91646 47.5817C9.77232 47.3686 9.69371 47.1182 9.69028 46.8611C9.72317 46.3278 9.86641 45.807 10.111 45.3317C11.3469 42.5279 12.7934 39.8213 14.4382 37.2351C14.0475 35.076 13.6569 32.9169 13.3263 30.7578C13.4415 32.4558 13.2585 34.1607 12.7854 35.7957C12.2768 37.5978 11.4857 39.3082 10.4415 40.8636C10.0208 41.4933 9.26958 42.153 8.54838 41.7632C8.33274 41.6246 8.1633 41.4252 8.06162 41.1902C7.95995 40.9553 7.93064 40.6954 7.97744 40.4438C8.10658 39.9231 8.31971 39.4268 8.60848 38.9744C9.47993 37.535 10.2312 36.2156 10.9524 34.8661C11.6736 33.5167 12.4549 32.1073 13.2662 30.398C13.2662 29.7383 13.0559 29.1086 12.9657 28.4488C12.96 28.369 12.96 28.2888 12.9657 28.2089L12.4248 24.5805C12.3845 26.4112 12.0497 28.2235 11.4332 29.9482C10.7195 31.9297 9.70612 33.7905 8.42818 35.4659C7.91733 36.1556 7.01584 36.8453 6.35474 36.4254C6.13681 36.2573 5.97844 36.024 5.90276 35.7597C5.82708 35.4953 5.83804 35.2138 5.93404 34.9561C6.14233 34.4006 6.42539 33.876 6.77544 33.3967C7.88728 31.8374 8.81883 30.398 9.78043 28.8986C10.7539 27.3257 11.6466 25.7043 12.4549 24.0407C12.4549 23.2011 12.2445 22.3914 12.1243 21.5517V21.3718C12.1243 20.4722 11.914 19.6026 11.7938 18.703C11.5493 20.2314 11.0837 21.7162 10.4115 23.1111C9.38519 25.1583 8.00127 27.0065 6.32469 28.5688C5.66359 29.1985 4.67194 29.7683 4.04089 29.2585C3.84998 29.0568 3.72933 28.7991 3.69685 28.5236C3.66437 28.2481 3.7218 27.9695 3.8606 27.7291C3.99934 27.4592 4.17092 27.2074 4.37144 26.9795C4.55887 26.7205 4.77013 26.4795 5.00249 26.2597C6.25293 24.8963 7.42668 23.4647 8.51834 21.9716C9.61357 20.5784 10.6173 19.1159 11.5233 17.5934C11.5233 17.2635 11.5233 16.9337 11.5233 16.6038C11.5233 15.2844 11.2529 13.9649 11.1026 12.6455C10.7749 14.3765 10.1551 16.0395 9.26959 17.5634C8.30612 19.2995 7.06817 20.8691 5.60349 22.2115C5.03254 22.7512 4.13104 23.261 3.49999 22.7512C3.32128 22.5556 3.20565 22.3109 3.16813 22.0489C3.13062 21.7868 3.17296 21.5196 3.28964 21.2819C3.54102 20.7713 3.88779 20.3132 4.31134 19.9324C5.54339 18.6429 6.62519 17.4735 7.73703 16.244C8.84888 15.0145 9.87058 13.815 11.0726 12.2857L10.712 8.26733C9.16424 11.1009 6.99716 13.5504 4.37144 15.4343C3.86059 15.8241 3.04925 16.154 2.50835 15.4343C2.34307 15.2437 2.23327 15.0116 2.19089 14.7631C2.14851 14.5147 2.17516 14.2593 2.26794 14.0249C2.53109 13.6092 2.85523 13.2352 3.22954 12.9154C5.47079 11.1138 7.86363 9.50847 10.3814 8.11738C10.2312 6.4081 10.111 4.69887 9.99078 2.9596C8.41944 5.75708 6.13982 8.09397 3.37979 9.73672C2.77879 10.0966 1.90735 10.3665 1.42655 9.73672C1.29304 9.52583 1.22217 9.28148 1.22217 9.03202C1.22217 8.78256 1.29304 8.53821 1.42655 8.32732C1.72888 7.92004 2.10623 7.57402 2.53839 7.30775C3.83054 6.43812 5.00249 5.65846 6.23454 4.87879L9.99078 2.59972C9.99078 0.980404 9.78043 -0.668869 9.69028 -2.28819C9.02791 -1.04615 8.16492 0.0784531 7.13603 1.04041C5.88167 2.27264 4.42917 3.28627 2.8389 4.03915C2.20785 4.33902 1.27629 4.45893 0.915695 3.76922C0.774881 3.56107 0.699649 3.31566 0.699649 3.06452C0.699649 2.81338 0.774881 2.56797 0.915695 2.35982C1.24282 1.9932 1.64165 1.69728 2.08765 1.4902C3.46995 0.770506 4.67194 0.110794 5.90399 -0.608902C7.13603 -1.3286 8.18778 -1.89838 9.50998 -2.73802C9.50998 -4.51727 9.44989 -6.28654 9.32969 -8.0458C8.55759 -6.63785 7.53998 -5.37863 6.32469 -4.32735C5.09521 -3.22757 3.70751 -2.31786 2.20784 -1.62851C1.60684 -1.35862 0.735399 -1.23864 0.34475 -1.92835C0.217773 -2.14158 0.150759 -2.38502 0.150759 -2.63306C0.150759 -2.88109 0.217773 -3.12454 0.34475 -3.33776C0.670394 -3.68534 1.05751 -3.96999 1.48665 -4.1774L9.08928 -8.10574C9.08928 -9.30523 9.08928 -10.5347 9.08928 -11.7342C8.54605 -10.4023 7.69077 -9.21972 6.59514 -8.28566C5.24131 -7.11016 3.60563 -6.30437 1.84725 -5.94665C1.4739 -5.84157 1.0787 -5.84157 0.705346 -5.94665C0.533555 -5.98874 0.377331 -6.07882 0.254936 -6.20627C0.132542 -6.33372 0.049039 -6.49329 0.0141988 -6.66636C-0.0213176 -6.91442 0.0100844 -7.16742 0.105159 -7.39934C0.200233 -7.63126 0.355543 -7.83372 0.555099 -7.98581C0.742159 -8.11829 0.943807 -8.22897 1.1561 -8.31567C1.36856 -8.40838 1.59012 -8.47871 1.8172 -8.52556C3.11045 -8.91581 4.36726 -9.41749 5.57345 -10.0249C6.17444 -10.3248 6.77543 -10.6547 7.40648 -11.0445C7.99708 -11.4012 8.55964 -11.8022 9.08928 -12.244C9.08928 -13.7134 9.08928 -15.2427 9.08928 -16.6522C7.69533 -14.5863 5.7189 -12.9792 3.40985 -12.0341C3.27712 -11.9569 3.12981 -11.908 2.9772 -11.8905C2.8246 -11.873 2.67002 -11.8873 2.52321 -11.9324C2.37639 -11.9774 2.24053 -12.0524 2.12419 -12.1524C2.00784 -12.2525 1.91355 -12.3756 1.84725 -12.5139C1.73415 -12.7209 1.67489 -12.9529 1.67489 -13.1886C1.67489 -13.4244 1.73415 -13.6563 1.84725 -13.8633C2.088 -14.1695 2.39657 -14.4158 2.74874 -14.583C3.83054 -15.0928 4.82219 -15.5126 5.75374 -15.9025C6.68529 -16.2923 7.76708 -16.6222 8.96908 -17.012C8.96908 -19.5909 8.96909 -22.1398 9.26959 -24.7188C9.26959 -25.1086 9.96073 -25.0786 9.96073 -24.7188C9.96073 -21.74 9.96073 -18.7413 9.96073 -15.7226C12.3875 -15.7147 14.8105 -15.9153 17.2028 -16.3223C17.4857 -16.4007 17.7879 -16.3703 18.0494 -16.237C18.311 -16.1038 18.5129 -15.8773 18.6151 -15.6026C18.7027 -15.3773 18.7267 -15.1323 18.6843 -14.8943C18.6419 -14.6563 18.5348 -14.4345 18.3747 -14.2532C18.0129 -13.9589 17.5756 -13.7719 17.1126 -13.7134C15.7852 -13.475 14.4217 -13.5261 13.116 -13.8633C12.0401 -14.1705 11.0241 -14.6572 10.111 -15.3027C10.111 -13.6534 10.111 -11.9741 10.111 -10.2948C12.7854 -10.2948 15.52 -10.2948 18.0141 -10.2948C18.5851 -10.2948 19.2762 -10.0849 19.3664 -9.27524C19.4017 -9.02957 19.3635 -8.77896 19.2566 -8.55489C19.1496 -8.33081 18.9788 -8.14327 18.7654 -8.01578C18.3417 -7.82243 17.8787 -7.73004 17.4131 -7.7459C14.8156 -7.79592 12.2849 -8.5754 10.111 -9.99496C10.111 -8.40563 10.111 -6.99622 10.111 -5.25695C13.5667 -4.4173 16.722 -3.69763 19.6669 -3.21783Z" fill="#5EAD41"/>
</svg>
