<svg viewBox="0 0 83 315" fill="none" xmlns="http://www.w3.org/2000/svg">
<path fill-rule="evenodd" clip-rule="evenodd" d="M75.8585 235.004C77.907 234.17 80.4042 232.689 80.0143 229.939C79.8113 229.074 79.3529 228.29 78.6985 227.688C78.0441 227.087 77.2239 226.695 76.3442 226.565C74.465 226.508 72.5948 226.849 70.8569 227.566C65.5233 229.633 60.5519 232.533 56.1282 236.157C52.353 239.308 49.0326 242.965 46.2615 247.025C45.1157 240.443 44.0253 233.856 42.9348 227.269C52.7632 222.801 62.5378 217.67 71.6978 213.201C73.6776 212.206 75.9311 210.466 75.2138 207.799C74.9344 206.963 74.4125 206.23 73.7144 205.692C73.0163 205.155 72.1737 204.836 71.2939 204.779C69.399 204.861 67.5415 205.333 65.8379 206.166C60.9379 208.532 56.3865 211.558 52.3113 215.161C48.633 218.396 45.3768 222.08 42.6195 226.126C41.8204 221.073 41.0765 216.016 40.3836 210.899C49.5525 204.377 59.2342 198.607 69.334 193.645C71.4244 192.641 73.8992 190.884 73.2925 188.207C73.0553 187.332 72.5379 186.558 71.8195 186.003C71.101 185.449 70.2207 185.144 69.3129 185.136C67.3009 185.234 65.332 185.754 63.5338 186.661C58.1165 189.28 53.1856 192.802 48.953 197.076C45.4459 200.574 42.4675 204.563 40.1118 208.918C39.3053 203.087 38.5496 197.196 37.9002 191.241C46.6405 184.494 56.166 178.829 66.2689 174.368C68.3129 173.48 70.8011 171.887 70.3604 169.197C70.1779 168.31 69.7102 167.507 69.0286 166.909C68.347 166.312 67.4886 165.953 66.5841 165.888C64.5838 165.89 62.6066 166.315 60.7828 167.136C55.293 169.551 50.3171 172.995 46.1242 177.28C42.6683 180.72 39.811 184.711 37.6702 189.09C37.2494 183.895 36.8241 178.645 36.0668 173.422L35.9728 172.261C45.9839 165.08 56.3532 158.41 67.0408 152.278C69.2792 151.039 71.8467 149.051 71.0741 146.388C70.7559 145.518 70.1561 144.78 69.37 144.289C68.5838 143.799 67.6561 143.584 66.7341 143.68C64.6303 143.953 62.6031 144.647 60.7741 145.721C55.2414 148.825 50.1917 152.72 45.7848 157.282C41.8216 161.348 38.4456 165.946 35.7547 170.944C35.307 165.418 34.8951 160.333 34.4698 155.083C38.443 151.201 42.4805 147.425 46.7617 143.908C51.5938 139.891 56.6669 136.174 61.9527 132.775C64.0163 131.44 66.4642 129.35 65.6542 126.913C65.2819 126.065 64.6406 125.364 63.8295 124.917C63.0183 124.47 62.0823 124.302 61.1661 124.439C59.0645 124.842 57.0664 125.666 55.2927 126.862C49.8992 130.33 45.1478 134.705 41.2497 139.793C38.395 143.588 36.0542 147.743 34.2878 152.15C33.7282 145.242 33.4452 138.311 33.1622 131.381C36.8828 127.13 40.723 122.98 44.7694 119.315C49.4789 114.798 54.5445 110.667 59.9173 106.962C62.0227 105.457 64.4617 103.257 63.5784 100.603C63.178 99.7527 62.5014 99.0635 61.6588 98.6469C60.8161 98.2303 59.8571 98.1109 58.9378 98.3083C57.8596 98.5098 56.8187 98.8757 55.8516 99.3929C54.8353 99.8799 53.8572 100.442 52.9254 101.076C47.4632 104.915 42.7393 109.707 38.9808 115.222C36.4879 118.936 34.4743 122.95 32.9879 127.167C32.8094 120.84 32.6354 114.568 32.5168 108.292C38.817 99.9786 46.3822 92.7024 54.937 86.7283C56.7284 85.4707 58.798 83.5229 57.864 80.9285C57.5289 80.0957 56.9298 79.3957 56.1583 78.9357C55.3868 78.4757 54.4855 78.2811 53.5927 78.3818C52.6137 78.5208 51.6609 78.8043 50.7652 79.2229C49.8495 79.6338 48.9761 80.1332 48.1574 80.7136C43.3249 84.1254 39.2605 88.5095 36.2256 93.5843C34.5949 96.2772 33.3133 99.1661 32.4116 102.182C32.3303 95.6799 32.3089 89.2289 32.3383 82.7181C38.7527 74.3613 46.4011 67.0269 55.0217 60.9661C56.7623 59.7682 58.7212 57.8295 57.7273 55.1842C57.3899 54.36 56.7997 53.6637 56.0414 53.1954C55.2832 52.7272 54.3959 52.511 53.5069 52.5779C52.5648 52.6935 51.6466 52.9556 50.7856 53.3547C49.9465 53.7868 49.13 54.2614 48.3393 54.7767C43.6731 58.0605 39.7639 62.3031 36.874 67.2201C34.8493 70.6629 33.3856 74.4056 32.5379 78.3076C32.5881 72.7408 32.6382 67.174 32.7991 61.5983C39.311 53.1694 44.6298 43.8847 48.6056 34.0061C49.4956 31.9315 49.9311 29.0593 47.5376 27.6956C46.7764 27.2787 45.9096 27.0939 45.0444 27.164C44.1791 27.2341 43.3533 27.5561 42.6692 28.09C41.4073 29.3081 40.4078 30.771 39.7321 32.3888C36.4685 39.6608 34.1693 47.3272 32.8928 55.1936C32.989 51.5701 33.0852 47.9465 33.2368 44.3184C37.5174 32.3233 40.119 19.7952 40.968 7.08945C41.1956 4.40091 40.4755 1.01038 37.3522 0.262108C36.3275 0.109782 35.2805 0.247118 34.3297 0.65839C33.379 1.06966 32.5624 1.7386 31.9723 2.58941C30.9676 4.33704 30.3646 6.28603 30.2071 8.29511C28.9735 19.876 29.5644 31.5781 31.9586 42.9756C32.1064 44.7993 31.7562 46.6634 31.6318 48.5648C30.4447 39.7984 28.3094 31.1866 25.2634 22.8804C24.5401 20.8252 22.9511 18.3951 20.2119 18.9508C19.3733 19.1775 18.6159 19.6364 18.0272 20.2746C17.4384 20.9129 17.0424 21.7045 16.8846 22.558C16.7725 24.2958 17.0274 26.0377 17.6329 27.6706C20.7771 37.1493 25.4092 46.0685 31.3559 54.0943C30.9434 62.7499 30.7058 71.5026 30.5744 80.191C29.638 74.9983 28.031 69.9489 25.7937 65.1695C23.0799 59.4731 19.6544 54.1432 15.5991 49.3073C13.9951 47.3791 11.2757 45.43 8.94904 46.9535C8.24751 47.5008 7.72432 48.2438 7.44578 49.0883C7.16724 49.9328 7.14585 50.8408 7.38436 51.6974C8.01647 53.4526 8.93968 55.0889 10.1153 56.5381L20.1324 69.5221C23.3538 73.5444 26.6994 77.7236 30.5501 82.6406C30.4999 88.2074 30.4827 93.4933 30.5342 98.9406C27.5919 88.7524 22.7376 79.216 16.2298 70.8395C14.7364 68.9023 12.2937 66.9308 9.8982 68.293C9.16023 68.7864 8.585 69.487 8.24508 70.3065C7.90516 71.1261 7.81575 72.0277 7.98815 72.8979C8.5033 74.6277 9.31336 76.2557 10.3827 77.7103C16.4842 86.3269 23.2125 94.4833 30.5128 102.113C30.6237 109.669 30.8409 117.161 31.1178 124.704C30.337 118.918 28.5833 113.305 25.9306 108.102C22.9812 102.281 19.1299 96.9605 14.519 92.3389C12.6982 90.4838 9.7201 88.7782 7.58175 90.5646C6.9447 91.1928 6.50985 91.9967 6.33285 92.8732C6.15585 93.7497 6.24474 94.659 6.58821 95.4846C7.36565 97.1366 8.41008 98.6495 9.67954 99.9625C13.5917 104.263 16.9702 108.161 20.4174 112.221C23.8646 116.28 27.2699 120.51 31.1431 125.703C31.3266 127.969 31.5057 130.18 31.6848 132.39C31.6869 132.724 31.7138 133.056 31.7654 133.385C32.1012 137.53 32.4414 141.73 32.4498 145.957C31.0782 139.818 28.7217 133.942 25.4715 128.555C21.7013 122.328 16.9631 116.741 11.4345 112.003C9.21749 110.068 5.57101 108.361 3.77354 110.231C3.17376 110.939 2.81093 111.816 2.73596 112.74C2.661 113.664 2.87771 114.588 3.35565 115.383C4.45404 117.147 5.80244 118.743 7.35892 120.121C12.1233 124.63 16.197 128.861 20.2886 133.314C24.3801 137.766 28.2459 142.181 32.602 147.836C32.8348 150.71 33.0497 153.362 33.2959 156.402C33.2919 156.624 33.3099 156.846 33.3496 157.065C33.5959 160.105 33.8421 163.144 34.0928 166.239C32.1248 161.244 29.4575 156.553 26.1706 152.307C21.5861 146.25 15.9615 141.056 9.55872 136.964C6.96788 135.227 3.136 133.98 1.41624 136.122C0.936829 136.924 0.719702 137.856 0.795134 138.787C0.870566 139.718 1.2348 140.602 1.83708 141.317C2.51168 142.176 3.28483 142.954 4.14074 143.633C4.97792 144.344 5.87042 145.051 6.63884 145.601C11.6777 149.352 16.4872 153.402 21.0414 157.729C25.523 161.743 29.7565 166.026 33.7183 170.553L33.9914 173.924C34.3586 178.456 34.7257 182.987 35.0973 187.574C32.7794 181.967 29.5562 176.779 25.556 172.215C21.1112 167.034 15.8843 162.578 10.0637 159.007C7.77187 157.524 4.28979 156.471 2.62984 158.664C2.17819 159.444 1.97524 160.344 2.04803 161.242C2.12081 162.14 2.46587 162.995 3.03725 163.693C4.24468 165.224 5.70722 166.536 7.36066 167.57C12.4317 171.053 16.8718 174.309 21.4226 177.557C25.9733 180.804 30.261 184.239 35.3438 188.555L36.7995 202.4C29.8591 193.837 21.0791 186.944 11.1098 182.23C9.08397 181.282 6.1954 180.681 4.69245 182.75C4.30765 183.52 4.14096 184.38 4.21041 185.237C4.27985 186.094 4.58279 186.916 5.08642 187.613C6.20847 188.877 7.55851 189.919 9.06609 190.684C18.0013 195.44 27.3597 199.356 37.0208 202.382C37.5013 208.314 38.2016 214.209 39.1217 220.068C31.9323 211.722 22.6865 205.396 12.2984 201.715C10.0603 200.895 6.9773 200.644 5.78229 203.077C5.43476 203.885 5.32927 204.776 5.47854 205.643C5.62782 206.51 6.02547 207.314 6.62334 207.96C7.89707 209.14 9.39045 210.058 11.0187 210.663C16.0287 212.705 20.5183 214.51 25.174 216.303L39.2845 221.39C39.7322 226.916 40.7885 232.393 41.6234 237.888C38.5363 234.175 34.8748 230.979 30.7775 228.421C25.7157 225.201 20.1408 222.868 14.2929 221.523C11.9621 220.933 8.68915 221.087 7.95462 223.705C7.75182 224.545 7.78363 225.423 8.04664 226.246C8.30966 227.068 8.79374 227.802 9.44606 228.368C10.8341 229.374 12.4062 230.097 14.0733 230.497C19.1491 231.977 23.6119 233.451 28.296 234.907C32.9801 236.364 36.8763 237.717 41.8773 239.648C42.8124 245.691 43.8027 251.73 44.844 257.709C41.5137 253.486 37.4505 249.896 32.8484 247.11C27.9966 244.196 22.7119 242.071 17.1921 240.813C14.9763 240.27 11.98 240.401 11.1902 243.024C10.9586 243.85 10.9599 244.724 11.1938 245.549C11.4277 246.374 11.8851 247.119 12.5157 247.701C13.8239 248.659 15.297 249.369 16.8618 249.796L45.3598 257.89C46.0783 261.948 46.8522 266.002 47.626 270.055C44.8994 265.939 41.2248 262.537 36.9103 260.132C31.5387 257.12 25.488 255.524 19.3279 255.493C18.0255 255.487 16.7372 255.762 15.551 256.299C14.9972 256.567 14.5286 256.983 14.197 257.501C13.8654 258.019 13.6839 258.618 13.6726 259.233C13.719 260.093 13.9901 260.927 14.459 261.65C14.9279 262.373 15.5783 262.961 16.3454 263.355C17.0909 263.691 17.8777 263.926 18.6852 264.056L20.9937 264.369C25.6407 264.725 30.2403 265.545 34.7233 266.817C37.0367 267.39 39.3093 268.117 41.526 268.992C43.7207 269.818 45.8626 270.778 47.9397 271.866C48.9557 276.845 49.9717 281.825 51.0384 286.745C44.9254 280.724 37.1504 276.666 28.7115 275.092C28.2172 274.927 27.6943 274.864 27.1749 274.908C26.6554 274.952 26.1504 275.101 25.6906 275.347C25.2309 275.592 24.8262 275.929 24.5013 276.336C24.1763 276.743 23.9381 277.213 23.801 277.715C23.6103 278.511 23.61 279.341 23.8003 280.138C23.9906 280.934 24.3661 281.675 24.8962 282.299C25.957 283.134 27.1822 283.736 28.4918 284.066C32.4673 285.023 36.0376 285.791 39.8203 286.43C43.603 287.069 46.976 287.464 51.0861 288.021C53.0105 296.654 55.0411 305.223 57.3439 313.714C57.4513 315.04 59.9737 314.558 59.6958 313.19C57.4935 303.188 55.3465 293.183 53.3655 283.163C61.522 281.602 69.7841 280.654 78.0823 280.326C79.0898 280.414 80.0931 280.117 80.8901 279.495C81.6871 278.873 82.2184 277.973 82.377 276.975C82.5283 276.148 82.4446 275.296 82.1352 274.515C81.8258 273.733 81.3032 273.054 80.6268 272.555C79.2061 271.844 77.6255 271.512 76.0383 271.592C71.4064 271.741 66.8529 272.829 62.6546 274.79C59.069 276.551 55.8299 278.943 53.092 281.85C51.9287 276.196 50.8037 270.558 49.717 264.935C58.8333 263.362 67.8958 261.126 76.257 259.169C78.1111 258.685 80.3585 257.558 80.1944 254.845C80.1105 253.999 79.7988 253.191 79.2925 252.507C78.7861 251.824 78.104 251.29 77.3183 250.962C75.7238 250.594 74.0639 250.614 72.4785 251.02C63.7897 252.949 55.8092 257.255 49.4302 263.456C48.4293 257.975 47.4597 252.88 46.5275 247.56C56.1749 243.608 66.2441 238.675 75.8585 235.004Z" fill="#5EAD41"/>
</svg>
