<svg viewBox="0 0 335 113" fill="none" xmlns="http://www.w3.org/2000/svg">
<g clip-path="url(#clip0_413_4855)">
<path fill-rule="evenodd" clip-rule="evenodd" d="M332.511 121.888C333.437 117.283 334.245 111.15 334.97 106.186L336.293 97.3159C336.293 97.3159 335.808 98.1719 335.069 99.6198C334.331 101.068 333.334 103.054 332.29 105.414C330.024 110.346 328.259 115.49 327.02 120.77C326.631 122.573 326.352 124.398 326.185 126.234C324.032 123.461 321.933 120.683 319.862 117.858C320.236 117.7 320.542 117.412 320.722 117.048C321.899 114.536 322.682 111.859 323.046 109.111C324.006 104.513 324.794 98.3925 325.526 93.396L326.863 84.5458L325.625 86.8294C324.887 88.2773 323.883 90.2967 322.846 92.6237C320.575 97.5531 318.809 102.698 317.577 107.98C317.185 109.794 316.903 111.63 316.734 113.477C314.097 109.726 311.554 105.943 309.067 102.067C310.108 101.628 311.478 99.7752 313.959 94.1435C317.051 86.2297 319.608 78.1192 321.612 69.8667C316.863 76.9169 312.596 84.2781 308.84 91.8998C307.933 93.8749 307.163 95.9096 306.537 97.9896L306.016 97.1778C305.986 96.9463 305.905 96.7246 305.779 96.5283C305.653 96.3319 305.485 96.1656 305.287 96.0415C304.506 94.8239 303.765 93.5803 303.065 92.3104C302.323 91.1538 301.696 89.9521 301.015 88.7562C301.336 88.8144 301.668 88.7754 301.968 88.6442C302.268 88.5129 302.522 88.2954 302.698 88.0196C303.952 85.7828 304.845 83.3633 305.343 80.8506C306.456 76.6702 307.475 71.089 308.414 66.5041L310.058 58.4019L308.772 60.4304C307.97 61.6899 306.91 63.4875 305.77 65.5651C303.341 69.9597 301.382 74.5967 299.927 79.3989C299.419 81.1639 299.047 82.9642 298.811 84.7844C297.166 81.7722 295.581 78.7208 294.038 75.6432C295.031 75.2639 296.197 73.5416 298.098 67.7668C300.262 60.1058 301.863 52.2991 302.89 44.4088C299.012 51.3717 295.638 58.6015 292.793 66.0425C292.195 67.8587 291.765 69.3381 291.501 70.4811C291.423 70.3594 291.345 70.2376 291.254 70.0955C291.303 69.8299 291.285 69.5565 291.2 69.3002C291.116 69.044 290.969 68.8129 290.773 68.6283C290.694 68.5066 290.603 68.3646 290.397 68.2676C289.47 66.2845 288.529 64.281 287.642 62.2717C288.647 61.9997 289.661 60.4893 291.088 54.9614C292.498 47.9455 293.345 40.8302 293.621 33.6833C290.437 40.0975 287.778 46.7572 285.67 53.5968C285.416 54.5904 285.205 55.4708 285.056 56.225C283.884 53.3676 282.752 50.484 281.654 47.6077C282.802 47.5589 283.813 46.2225 285.302 39.5373C286.493 31.9741 287.117 24.3344 287.168 16.682C284.178 23.7366 281.719 31.0025 279.812 38.4192L279.282 41.223C278.683 39.5731 278.098 37.9435 277.519 36.2805C278.35 35.6041 278.696 33.6345 277.237 27.2374C275.209 19.5355 272.627 11.9919 269.509 4.66537C269.68 12.6328 270.433 20.5753 271.763 28.4295C271.971 29.4706 272.208 30.3782 272.414 31.1916C267.242 27.3076 261.774 23.8341 256.058 20.8025C260.057 26.2211 264.511 31.2889 269.372 35.9508C274.504 40.364 275.742 40.1425 276.665 39.2063C277.754 42.6047 278.923 45.9509 280.241 49.2592C279.46 48.758 278.531 48.2078 277.37 47.6069C273.379 45.6872 269.148 44.3075 264.789 43.5042C262.712 43.0897 260.9 42.8199 259.602 42.6788C258.304 42.5378 257.501 42.4514 257.501 42.4514L259.318 43.4911L263.842 46.0602C267.356 48.1312 271.529 50.7816 274.835 52.5279C276.722 53.7231 278.812 54.5661 281.003 55.0158C281.255 55.0483 281.511 55.0192 281.75 54.9308C281.989 54.8425 282.203 54.6975 282.373 54.5086C283.136 56.3686 283.931 58.2358 284.74 60.1233C284.729 60.4236 284.786 60.7224 284.907 60.997C285.028 61.2715 285.211 61.5146 285.441 61.7079C286.147 63.3461 286.894 64.9581 287.641 66.5701C286.85 66.1893 285.926 65.7797 284.809 65.2933C281.211 63.7633 276.361 62.1199 272.362 60.5032L267.365 58.4958C266.114 57.9805 265.35 57.6403 265.35 57.6403C265.35 57.6403 265.915 58.2518 266.888 59.2314C267.862 60.2109 269.259 61.4918 270.941 62.9044C274.458 65.9093 278.36 68.4342 282.545 70.4129C284.687 71.5736 287.07 72.221 289.509 72.3041C289.772 72.2883 290.028 72.2122 290.257 72.0817C290.622 72.6499 290.844 73.3095 291.147 73.9169C291.156 74.1471 291.216 74.3723 291.322 74.5765C291.429 74.7807 291.579 74.9589 291.762 75.0984C292.782 77.1366 293.823 79.1617 294.904 81.1607L294.478 81.0333C293.378 80.7079 291.908 80.39 289.966 79.9174C288.024 79.4447 285.726 78.9999 283.411 78.3941C281.096 77.7884 278.74 77.2088 276.635 76.526C274.529 75.8432 272.698 75.1848 271.38 74.6551L269.245 73.791C269.245 73.791 269.843 74.4098 270.904 75.3907C274.146 78.347 277.791 80.8301 281.732 82.7665C283.924 83.8412 286.225 84.6789 288.597 85.2654C290.246 85.6678 291.929 85.9208 293.624 86.0213C294.53 86.0928 295.442 85.9937 296.312 85.7291C296.611 85.6198 296.882 85.4457 297.106 85.2194C298.571 87.8605 300.043 90.4682 301.536 93.0629L302.551 94.6457C301.564 94.3623 300.283 94.0674 298.68 93.7207C294.826 92.9566 289.667 92.3995 285.439 91.904L277.906 91.0081L279.803 92.0827C281.004 92.7445 282.684 93.6147 284.709 94.6644C288.807 96.6732 293.121 98.2105 297.568 99.2469C299.871 99.9338 302.299 100.107 304.68 99.7545C304.937 99.6708 305.168 99.5223 305.352 99.3233C307.6 103.037 309.944 106.689 312.383 110.281C311.029 109.918 309.045 109.559 306.572 109.111C301.813 108.326 295.436 107.663 290.284 107.072L281.107 105.943L283.57 107.227C285.079 107.921 287.192 108.885 289.634 109.867C294.8 112.022 300.171 113.653 305.667 114.734C308.527 115.427 311.493 115.583 314.415 115.194C314.769 115.119 315.1 114.956 315.376 114.721C317.535 117.862 319.768 120.984 322.05 124.046C319.856 123.688 317.645 123.443 315.426 123.312C310.605 122.968 304.222 122.967 299.021 122.838L289.521 122.774C289.521 122.774 290.453 123.15 292.024 123.718C293.596 124.285 295.754 125.049 298.321 125.779C303.685 127.423 309.204 128.517 314.793 129.046C317.701 129.467 320.664 129.344 323.53 128.683C323.989 128.592 324.397 128.33 324.67 127.951C330.8 135.915 337.374 143.528 344.362 150.752C345.204 151.616 346.443 150.276 345.655 149.407C340.093 143.293 334.701 137.041 329.541 130.612C329.794 130.433 330.01 130.207 330.177 129.946C331.342 127.386 332.128 124.672 332.511 121.888Z" fill="#92D660"/>
<path fill-rule="evenodd" clip-rule="evenodd" d="M81.4151 46.5902C81.864 46.5902 82.0021 42.0422 84.143 39.4627C87.596 35.1522 99.647 39.8021 93.7424 46.8618C92.0504 48.8982 89.7023 50.4594 89.8405 50.5952C91.0431 50.2487 92.2833 50.0436 93.5351 49.9843C103.514 49.7806 101.615 66.2079 90.0821 62.0332C88.183 61.3544 88.5974 61.3545 89.4951 62.9836C89.944 63.7982 90.6346 64.7485 91.2216 65.7328C91.804 66.7096 91.9854 67.868 91.7288 68.9717C91.4721 70.0754 90.7968 71.0414 89.8405 71.6724C86.9399 73.5392 81.7604 73.2676 80.5519 69.7038C80.1011 68.1859 79.8005 66.6287 79.6541 65.054C78.929 58.9786 81.2425 73.2677 71.2979 72.9962C67.1197 72.9962 63.9085 69.602 68.7081 64.0018C69.4127 63.2141 70.162 62.4663 70.9526 61.7618C72.023 60.8793 72.0575 60.7096 70.6763 61.0829C68.8469 61.7284 66.8632 61.823 64.9789 61.3545C62.4582 60.4381 61.077 54.1591 62.6999 51.1723C65.0479 46.76 69.2951 48.3552 72.023 49.2377C74.7508 50.1201 75.476 49.8825 72.6445 48.1855C71.6489 47.6299 70.7018 46.9942 69.8131 46.2848C62.6999 40.2773 76.3392 31.4526 80.1721 41.7027C81.0698 44.1804 81.3806 46.6581 81.6569 46.6581L81.4151 46.5902ZM78.6182 50.5274C77.4097 51.5117 79.2397 52.7335 80.3101 52.1905C81.3806 51.6474 80.3102 49.1359 78.6182 50.5274ZM84.4192 52.4958C83.3143 50.4594 82.1403 49.6448 81.4151 52.4958C80.9662 54.3626 80.7936 56.976 83.3488 56.1275C83.6679 55.998 83.954 55.801 84.1867 55.5504C84.4194 55.2998 84.5931 55.0017 84.6953 54.6776C84.7975 54.3535 84.8257 54.0115 84.778 53.6754C84.7303 53.3393 84.6078 53.0177 84.4192 52.7335V52.4958ZM77.5132 53.3444C74.9925 54.4644 75.7177 56.7384 77.7204 56.7384C82.1402 56.7384 80.5173 51.851 77.5132 53.3444ZM79.6196 57.4173C76.1666 59.0125 79.6196 60.3702 82.5546 59.1483C85.4897 57.9264 82.7273 55.856 79.585 57.4173H79.6196Z" fill="#92D660"/>
<circle cx="9" cy="82" r="3" fill="#92D660"/>
<circle cx="135" cy="69" r="4" fill="#92D660"/>
</g>
<defs>
<clipPath id="clip0_413_4855">
<rect width="335" height="113" fill="white"/>
</clipPath>
</defs>
</svg>
