<svg viewBox="0 0 224 220" fill="none" xmlns="http://www.w3.org/2000/svg">
<g clip-path="url(#clip0_402_4853)">
<path fill-rule="evenodd" clip-rule="evenodd" d="M225.22 -212.145C211.018 -203.641 193.099 -191.083 178.271 -181.149L151.91 -163.489C151.91 -163.489 155.378 -164.27 161.022 -165.849C166.666 -167.428 174.467 -169.718 183.205 -172.626C201.853 -178.627 219.731 -186.416 236.562 -195.871C242.246 -199.186 247.702 -202.82 252.903 -206.754C251.393 -194.892 249.674 -182.985 247.726 -170.946C246.327 -171.432 244.819 -171.518 243.395 -171.194C233.846 -168.098 224.881 -163.694 216.785 -158.123C202.488 -149.64 184.664 -137.061 169.836 -127.127L143.569 -109.446C143.569 -109.446 147.038 -110.226 152.682 -111.805C158.326 -113.385 166.126 -115.674 174.865 -118.582C193.5 -124.61 211.376 -132.397 228.222 -141.827C233.906 -145.142 239.362 -148.776 244.563 -152.711C241.852 -137.331 238.647 -121.972 235.138 -106.59C231.299 -108.113 222.926 -107.248 201.935 -100.015C173.451 -88.9752 145.868 -76.1119 119.376 -61.5147C149.941 -66.4305 180.048 -73.2797 209.493 -82.0156C217.017 -84.3922 224.335 -87.2654 231.394 -90.6135C231.154 -89.5587 230.893 -88.416 230.652 -87.3612C230.132 -86.7262 229.77 -85.9885 229.59 -85.1993C229.409 -84.4101 229.416 -83.5881 229.61 -82.7903L225.753 -68.5044C224.71 -63.9336 223.274 -59.8225 221.866 -54.965C221.202 -55.9115 220.248 -56.653 219.134 -57.089C218.021 -57.525 216.802 -57.6342 215.643 -57.4018C206.57 -55.3035 197.986 -51.7923 190.243 -47.0131C176.665 -39.9383 159.567 -29.228 145.169 -20.3059C130.771 -11.3838 119.998 -5.24133 119.998 -5.24133C119.998 -5.24133 123.196 -5.7139 128.531 -6.80887C133.865 -7.90384 141.275 -9.35755 149.489 -11.2752C167.171 -15.5673 184.238 -21.6583 200.391 -29.4403C206.249 -32.3429 211.842 -35.6736 217.12 -39.4026C213.661 -28.1703 209.917 -17.0025 206.058 -5.76868C202.448 -7.42449 195.003 -6.25625 175.132 2.61956C149.759 15.4208 125.458 29.9335 102.416 46.0469C130.485 39.2527 157.926 30.554 184.523 20.0194C190.752 17.1866 195.684 14.7979 199.358 12.6769C199.237 13.2043 199.117 13.7315 199.017 14.171C198.203 14.7028 197.55 15.4193 197.115 16.2562C196.681 17.0931 196.479 18.0243 196.527 18.9667C196.484 19.5298 196.522 20.0983 196.64 20.6569C193.909 27.6783 191.107 34.7144 188.236 41.7655C184.97 39.9109 178.458 40.9223 160.423 50.4941C138.616 63.307 118.01 77.7802 98.8071 93.7722C123.65 86.5088 147.768 77.3843 170.932 66.4853C174.107 64.8052 176.957 63.2359 179.274 61.8224C174.978 71.4768 170.587 81.1098 165.912 90.6778C162.847 87.9441 156.535 88.0762 135.688 100.798C113.025 115.694 91.6592 132.213 71.7754 150.21C97.7804 140.981 122.937 129.903 147.03 117.072C150.359 115.15 153.155 113.383 155.626 111.727C152.902 117.116 150.272 122.527 147.447 128.356C143.561 127.469 137.904 131.727 124.853 150.481C110.278 173.771 97.5405 198.06 86.7379 223.163C106.835 203.851 125.379 183.173 142.227 161.288C144.316 158.25 146.04 155.5 147.549 153.255C151.025 175.352 156.338 197.217 163.438 218.651C166.987 195.835 168.426 172.713 167.739 149.538C165.753 126.336 161.945 123.803 157.175 123.732C163.024 112.952 168.588 102.108 174.009 90.5827C174.892 94.3253 175.977 98.0296 177.26 101.681C182.699 116.175 190.18 129.981 199.501 142.727C203.799 148.794 207.92 153.895 210.859 157.617C213.799 161.34 215.827 163.374 215.827 163.374L213.744 156.333L208.799 139.115C204.952 125.384 200.969 108.754 196.822 96.3417C194.937 88.815 191.651 81.6162 187.117 75.0782C186.547 74.3703 185.798 73.8034 184.942 73.4301C184.086 73.0569 183.149 72.8896 182.22 72.9441C185.071 66.5664 187.826 60.1668 190.488 53.7458C191.305 53.0541 191.941 52.1964 192.35 51.2341C192.759 50.2718 192.931 49.2294 192.853 48.1825C195.145 42.5095 197.435 36.8363 199.612 31.2295C200.641 34.1461 201.99 37.4129 203.672 41.4031C209.071 54.009 217.071 70.0749 223.921 83.7515C227.166 90.5026 229.869 96.5749 231.849 101.003L234.94 107.996C234.94 107.996 234.993 105.142 234.973 100.421C234.953 95.7002 234.651 89.1581 233.866 81.6736C232.488 65.7663 228.833 50.0346 223.001 34.9005C220.288 26.9138 215.698 19.5445 209.574 13.343C208.827 12.7126 207.953 12.2296 207.007 11.9248L209.383 5.4389C209.945 4.85527 210.369 4.16561 210.626 3.41278C210.884 2.65996 210.97 1.86064 210.88 1.06455C213.425 -6.30745 215.908 -13.694 218.327 -21.0948L219.109 -19.7143C221.121 -16.2962 224.184 -11.8063 228.009 -5.84769C231.834 0.110907 236.676 6.85637 241.228 13.998C245.78 21.1397 250.293 28.4572 253.992 35.4043C257.691 42.3514 260.982 48.4655 262.848 52.96L266.163 60.2819C266.163 60.2819 266.236 57.3397 265.972 52.3784C265.656 45.7695 264.897 39.172 263.698 32.6252C262.17 24.1597 259.872 15.8081 256.831 7.66251C253.891 -0.315861 250.065 -8.00775 245.416 -15.2851C242.151 -20.3707 238.411 -25.1857 234.242 -29.6711C232.073 -32.0442 229.501 -34.0695 226.635 -35.6603C225.59 -36.2171 224.406 -36.4872 223.223 -36.4385C226.287 -46.374 229.142 -56.2646 231.976 -66.0676L233.42 -72.396C235.188 -69.2186 237.803 -65.3858 240.711 -60.6535C248.846 -49.5505 260.799 -35.0798 270.484 -23.3456L287.873 -2.54868C287.873 -2.54868 287.108 -5.31246 285.661 -9.89627C284.214 -14.4801 282.14 -20.6862 279.753 -27.7039C274.256 -42.6709 267.008 -57.0726 258.143 -70.6405C253.875 -78.0098 247.965 -84.4707 240.827 -89.5713C239.924 -89.9478 238.961 -90.1676 237.984 -90.2198C241.273 -104.635 245.055 -119.031 247.89 -133.642C250.519 -129.436 254.444 -123.917 260.019 -116.449C270.421 -102.61 285.324 -85.3391 297.202 -70.9779L318.297 -45.4512L315.019 -54.2447C312.955 -59.6167 309.89 -67.1586 306.037 -75.6202C298.115 -93.5975 288.285 -110.836 276.699 -127.07C271.045 -135.807 263.755 -143.551 255.191 -149.916C253.991 -150.524 252.651 -150.83 251.306 -150.803C253.739 -163.656 255.984 -176.553 257.963 -189.602C262.835 -183.204 268.092 -177.064 273.708 -171.214C285.433 -158.368 302.044 -142.465 315.265 -129.184L338.737 -105.335C338.737 -105.335 337.274 -108.536 334.601 -113.862C331.927 -119.188 328.174 -126.332 323.638 -134.857C313.929 -152.077 302.421 -168.396 289.287 -183.566C282.786 -191.822 274.737 -198.926 265.553 -204.516C264.101 -205.455 262.34 -205.857 260.625 -205.64C265.235 -239.77 267.726 -274.184 268.086 -308.711C268.135 -312.861 261.445 -312.815 261.226 -308.796C260.064 -280.394 257.917 -252.186 254.783 -224.173C253.678 -224.325 252.559 -224.299 251.475 -224.095C242.104 -221.35 233.259 -217.324 225.22 -212.145V-212.145Z" fill="#92D660"/>
</g>
<defs>
<clipPath id="clip0_402_4853">
<rect width="224" height="220" fill="white"/>
</clipPath>
</defs>
</svg>
