<svg viewBox="0 0 117 137" fill="none" xmlns="http://www.w3.org/2000/svg">
<g clip-path="url(#clip0_414_4856)">
<path fill-rule="evenodd" clip-rule="evenodd" d="M15.2365 5.80952C34.4724 16.6213 40.5085 37.5152 45.218 57.6794V58.5417C45.2465 58.7175 45.2465 58.8963 45.218 59.0721C47.0714 63.4598 48.3209 68.0787 48.9325 72.8024C55.5656 54.0974 62.9946 35.7907 79.1793 23.3207C79.4146 23.1323 79.6986 23.0144 79.9981 22.981C80.2977 22.9476 80.6006 23 80.8716 23.132C81.1426 23.264 81.3706 23.4703 81.529 23.7267C81.6874 23.9832 81.7696 24.2791 81.7662 24.5805C81.7662 47 65.8468 62.5877 50.2591 76.6496C50.0346 76.8896 49.7252 77.0324 49.3969 77.0476C49.7788 83.6853 49.5789 90.3436 48.7998 96.9465C48.7998 97.9414 48.7999 99.0029 48.4682 99.9978H49.2642C64.051 80.7073 83.5291 65.5223 105.844 55.8884C106.159 55.769 106.503 55.7483 106.829 55.8289C107.156 55.9094 107.451 56.0874 107.674 56.3394C107.897 56.5913 108.038 56.9052 108.079 57.2393C108.119 57.5735 108.057 57.9118 107.901 58.2098C95.8947 78.1087 73.2759 101.722 48.2029 103.182H47.8712C46.3901 114.511 44.0395 125.709 40.8401 136.678H41.9015C56.6883 117.387 76.1664 102.202 98.4816 92.5685C98.7877 92.4432 99.1251 92.4163 99.4472 92.4916C99.7692 92.5668 100.06 92.7408 100.279 92.9887C100.497 93.2367 100.634 93.5464 100.668 93.8753C100.703 94.2042 100.634 94.5358 100.472 94.8239C88.532 114.723 65.8469 138.402 40.7738 139.862C40.6292 139.932 40.4704 139.969 40.3095 139.969C40.1486 139.969 39.9899 139.932 39.8452 139.862C38.9166 142.979 37.9216 146.495 36.794 149.281C36.6191 149.607 36.3363 149.861 35.9941 150.001C35.6518 150.141 35.2715 150.158 34.9184 150.048C34.5653 149.938 34.2615 149.709 34.0591 149.399C33.8567 149.09 33.7683 148.72 33.8091 148.352C35.6664 142.913 37.3909 137.408 38.8502 131.836C22.2675 116.912 0.909024 91.4412 -0.0859375 67.9604C-0.0859375 66.4349 1.77131 66.2358 2.69994 67.0317C19.9459 82.6855 37.59 100.197 40.9728 123.611C42.7116 116.176 44.0182 108.646 44.8863 101.059C45.417 97.1455 45.8149 93.1658 46.0139 89.186C28.5026 77.711 10.3281 64.7767 6.81252 42.7552C6.75535 42.4531 6.78687 42.1406 6.90331 41.8561C7.01975 41.5715 7.21603 41.327 7.46858 41.1516C7.72113 40.9763 8.01904 40.8775 8.32636 40.8678C8.63368 40.8581 8.93732 40.9379 9.20043 41.097C26.8444 50.7148 36.993 67.2969 46.3456 84.3437C46.622 75.5243 44.7796 66.7673 40.9728 58.8069C27.7067 43.949 15.3691 28.4943 12.4506 8.33008C12.1163 7.96066 11.9425 7.47345 11.9674 6.97588C11.9923 6.47831 12.2138 6.01098 12.5833 5.67673C12.9527 5.34249 13.4398 5.16888 13.9374 5.19375C14.435 5.21863 14.9022 5.4401 15.2365 5.80952Z" fill="#92D660"/>
</g>
<defs>
<clipPath id="clip0_414_4856">
<rect width="117" height="137" fill="white"/>
</clipPath>
</defs>
</svg>
