<svg width="85" height="173" viewBox="0 0 85 173" fill="none" xmlns="http://www.w3.org/2000/svg">
<path fill-rule="evenodd" clip-rule="evenodd" d="M2.08616 138.087C0.806387 132.897 -0.402418 125.923 -1.43576 120.208L-3.33469 110.153L-1.85794 112.72C-0.976528 114.331 0.308034 116.604 1.56936 119.228C4.40733 124.747 6.65687 130.55 8.28087 136.54C8.80177 138.584 9.21452 140.653 9.51742 142.74C11.85 139.481 14.1373 136.195 16.334 132.856C15.9147 132.674 15.5646 132.362 15.3343 131.967C13.8539 129.164 12.8309 126.142 12.304 123.015C11.0242 117.824 9.84185 110.805 8.78199 105.135L6.88306 95.08L8.35985 97.6477C9.26778 99.2133 10.4805 101.505 11.8137 104.11C14.6288 109.652 16.8689 115.468 18.4987 121.468C19.031 123.522 19.4352 125.608 19.7087 127.712C22.3607 123.18 25.2846 118.807 27.9366 114.274C26.717 113.865 25.0656 111.803 21.9818 105.436C18.0869 96.5395 14.8098 87.3849 12.1738 78.037C17.9235 85.876 23.1247 94.1032 27.7403 102.66C28.8898 104.871 29.8625 107.169 30.6494 109.534L31.2329 108.537C31.2486 108.273 31.3264 108.016 31.4601 107.787C31.5937 107.559 31.7794 107.365 32.0019 107.222L34.5214 102.916C35.317 101.557 36.1126 100.197 36.6553 98.7501C36.2949 98.8393 35.9157 98.814 35.5705 98.6775C35.2254 98.5409 34.9315 98.3001 34.7297 97.9885C33.194 95.4947 32.0563 92.7763 31.3578 89.9314C29.9034 85.2473 28.4669 78.8701 27.1872 73.6798L24.9733 64.4749L26.5186 66.7177C27.5061 68.1473 28.7608 70.1592 30.136 72.4849C33.1571 77.3707 35.6138 82.5842 37.4587 88.0253C38.1214 90.0249 38.6308 92.0721 38.9825 94.1493C40.6998 90.591 42.4171 87.0327 44.0438 83.4213C43.002 82.8118 41.4898 81.136 39.1319 74.4631C36.3311 65.7721 34.1514 56.8926 32.6094 47.8916C37.3197 55.7244 41.4651 63.8837 45.014 72.3074C45.7473 74.3792 46.3227 75.9936 46.7059 77.313C46.763 77.165 46.8436 77.0273 46.9446 76.9051C46.8727 76.6 46.8778 76.2817 46.9594 75.9789C47.041 75.6762 47.1966 75.3985 47.4121 75.1708L47.7038 74.6723C48.7051 72.3377 49.7671 69.7953 50.5905 67.6608C49.4084 67.3951 48.2022 65.7158 46.3348 59.4516C44.3542 51.4671 43.012 43.3372 42.3209 35.1389C46.2545 42.3217 49.598 49.8127 52.3185 57.5378L53.1334 60.5092C54.358 57.1696 55.5372 53.8034 56.6711 50.4108C55.4017 50.3981 54.18 48.9532 52.1902 41.3396C50.5346 32.7352 49.5385 24.0164 49.2106 15.2594C52.9514 23.1826 56.0816 31.3806 58.5738 39.7816C58.8741 40.9308 59.1104 41.9817 59.2826 42.9343C59.9016 41.0452 60.547 39.1109 61.1206 37.1953C60.0789 36.5858 59.7389 34.2575 61.0733 26.8854C62.9549 18.0601 65.455 9.37777 68.5549 0.902826C68.7026 10.0399 68.1927 19.1761 67.029 28.2407L66.442 31.4261C72.1668 26.7179 78.2524 22.4669 84.6426 18.7124C80.3219 25.1262 75.4528 31.1529 70.0904 36.7247C64.4222 42.0476 63.0247 41.8383 61.9156 40.8243C60.8324 44.7537 59.6321 48.6754 58.3413 52.5441C59.181 51.9402 60.2361 51.2799 61.5332 50.5179C65.9979 48.106 70.7697 46.313 75.7171 45.1885C78.0604 44.6127 80.1086 44.2294 81.609 43.9512L84.0086 43.5909L81.9701 44.8926L77.0081 48.0735C73.1013 50.594 68.4642 53.8432 64.7695 56.0012C62.6441 57.4416 60.2908 58.5125 57.809 59.1686C57.5234 59.2103 57.232 59.1821 56.9597 59.0864C56.6874 58.9906 56.4425 58.8303 56.2458 58.619C55.4413 60.8253 54.5914 63.0051 53.7681 65.1395C53.7958 65.4883 53.744 65.8389 53.6165 66.1648C53.489 66.4907 53.2891 66.7834 53.0321 67.0209C52.2695 68.9475 51.5335 70.8289 50.7257 72.729C51.6295 72.2236 52.6768 71.6804 53.9397 71.0808C57.9701 69.1802 63.4556 66.9749 67.8905 65.0067C70.1664 64.0264 72.1551 63.1215 73.6224 62.2764L75.9514 61.2054L74.252 63.0707C73.1394 64.2449 71.6256 65.7929 69.7716 67.5068C65.8905 71.1338 61.5318 74.2128 56.8169 76.6582C54.4274 78.0955 51.7372 78.9582 48.9583 79.1785C48.6447 79.1705 48.3366 79.0941 48.0557 78.9546C47.6579 79.6344 47.2866 80.269 46.8888 80.9489C46.8654 81.2111 46.7843 81.4648 46.6514 81.6921C46.5184 81.9193 46.3369 82.1144 46.1198 82.2632C45.092 84.6431 43.9207 87.0607 42.8288 89.3422L43.2862 89.184C44.5601 88.7734 46.2118 88.3404 48.4192 87.6851C50.6267 87.0298 53.2307 86.424 55.6005 85.8029C57.9703 85.1817 60.9036 84.221 63.1531 83.2861C65.4025 82.3511 67.5989 81.5068 69.2021 80.7413L71.5576 79.625C71.5576 79.625 71.0537 80.4862 69.7599 81.5544C68.192 83.1123 66.5399 84.5829 64.811 85.9597C62.5451 87.6805 60.1545 89.2306 57.6592 90.5971C55.1433 91.9078 52.4961 92.9489 49.7618 93.7031C47.9085 94.2757 45.9991 94.6475 44.0666 94.8122C43.0419 94.9491 42.0009 94.8968 40.9953 94.6578C40.6311 94.5681 40.3008 94.3748 40.0442 94.1013C38.2938 97.0927 36.9058 100.296 35.2836 103.484C34.9123 104.119 34.541 104.753 34.1963 105.343C35.3265 104.97 36.7628 104.593 38.5581 104.123C42.9574 103.046 48.8261 102.16 53.6066 101.368L62.0561 100.228C62.0561 100.228 61.2694 100.741 59.9005 101.522C58.5316 102.303 56.7163 103.431 54.5762 104.49C49.9828 107.002 45.1253 108.996 40.0929 110.436C37.4797 111.318 34.7073 111.626 31.965 111.338C31.6743 111.255 31.4094 111.1 31.195 110.887C28.6756 115.193 26.1561 119.499 23.6367 123.805C25.1978 123.319 27.3257 122.8 30.2357 122.19C35.6515 121.039 42.8956 119.985 48.7455 119.027L59.187 117.288L56.5022 118.759C54.8195 119.661 52.4375 120.822 49.6964 122.078C43.8784 124.798 37.8038 126.93 31.5629 128.443C28.3452 129.38 24.9802 129.702 21.644 129.392C21.2556 129.27 20.8997 129.061 20.6023 128.783C18.4011 132.545 15.8564 136.167 13.3834 139.769C15.87 139.247 18.3847 138.87 20.9148 138.64C26.3902 138.01 33.6596 137.64 39.8066 137.525L50.322 136.803C50.322 136.803 49.3277 137.255 47.5168 137.96C45.706 138.665 43.2864 139.683 40.3984 140.67C34.3688 142.823 28.1355 144.354 21.7956 145.239C18.4763 145.931 15.0573 145.994 11.7156 145.425C11.1784 145.342 10.693 145.058 10.3568 144.63C3.71801 154.067 -3.46189 163.111 -11.1467 171.717C-11.8097 172.85 -13.5186 171.303 -12.6479 170.23C-6.56848 162.958 -0.721783 155.528 4.89219 147.943C4.60692 147.746 4.36014 147.499 4.16419 147.213C3.02771 144.29 2.32754 141.215 2.08616 138.087V138.087Z" fill="#265113"/>
</svg>
