<svg width="93" height="180" viewBox="0 0 93 180" fill="none" xmlns="http://www.w3.org/2000/svg">
<g clip-path="url(#clip0_408_4854)">
<path fill-rule="evenodd" clip-rule="evenodd" d="M99.4322 37.8686C96.9254 42.5377 94.1738 47.0708 91.189 51.4484C91.1377 51.242 91.025 51.0567 90.866 50.9173C89.8048 49.9799 88.5407 49.304 87.1724 48.9424C85.8041 48.5808 84.3686 48.5431 82.9781 48.8325C81.3377 49.215 77.8743 50.6469 77.7121 52.763C77.5499 54.879 81.6634 55.7793 83.2592 56.1296C84.7855 56.4911 86.3775 56.4881 87.9084 56.1206C84.9229 60.3166 81.7859 64.4747 78.4862 68.7608C78.4499 68.6117 78.3925 68.4688 78.3157 68.3365C77.6113 67.278 76.6955 66.3798 75.626 65.6984C74.5566 65.017 73.3567 64.5673 72.1019 64.3775C70.2881 64.1289 66.0826 64.4868 65.2626 66.6317C64.4425 68.7765 68.0753 70.6131 69.5399 71.3805C71.3662 72.3864 73.4566 72.8103 75.5367 72.5969C72.2913 76.8403 69.0182 81.0706 66.0213 85.4326C65.9413 85.3668 65.8465 85.3216 65.7451 85.3008C64.5921 84.4727 63.2524 83.9444 61.8436 83.7622C60.4348 83.58 59.0002 83.7495 57.666 84.2559C55.9857 84.7221 53.0477 85.4795 53.93 87.7512C54.5385 88.7337 55.359 89.5644 56.3313 90.1826C57.3036 90.8007 58.403 91.1906 59.5487 91.3234C60.2829 91.4441 61.0317 91.455 61.7709 91.3557C58.733 95.7324 55.8465 100.147 53.2495 104.666C50.8594 104.338 48.4213 104.778 46.2809 105.922C44.1406 107.066 42.4067 108.856 41.3252 111.04C41.2664 111.204 41.252 111.381 41.2833 111.553C41.3146 111.724 41.3906 111.884 41.5035 112.016C42.5119 113.03 43.867 113.62 45.2972 113.666C46.7274 113.713 48.1268 113.214 49.2148 112.268C47.0984 116.545 45.3309 120.986 43.9298 125.546C43.8721 125.484 43.7933 125.446 43.7089 125.441C41.4067 125.479 39.16 126.193 37.2441 127.495C35.3283 128.797 33.8264 130.629 32.9225 132.769C32.8474 132.95 32.8257 133.149 32.8601 133.342C32.8944 133.535 32.9834 133.713 33.1162 133.855C33.9315 134.61 34.9632 135.088 36.0668 135.221C37.1704 135.355 38.2907 135.137 39.2709 134.599C40.2725 134.16 41.2257 133.615 42.1144 132.974C41.1974 137.696 40.8142 142.503 40.9723 147.303C38.9461 148.241 37.2202 149.735 35.9943 151.613C34.7684 153.49 34.0925 155.674 34.0449 157.912C34.0341 158.153 34.097 158.39 34.2249 158.592C34.3529 158.794 34.5399 158.951 34.7604 159.042C35.8328 159.409 36.9962 159.42 38.0816 159.075C39.167 158.73 40.1177 158.047 40.7953 157.123C41.1465 156.743 41.4834 156.321 41.8204 155.899C41.9701 156.793 42.1475 157.7 42.3381 158.579C40.1168 161.085 38.5304 164.092 37.7163 167.341C37.2646 169.354 37.2782 173.233 40.3676 172.514C41.3976 172.086 42.3263 171.442 43.0909 170.624C43.8554 169.806 44.4381 168.834 44.7993 167.774C45.4102 166.299 45.6825 164.706 45.596 163.115C45.5094 161.525 45.0663 159.978 44.2996 158.59C43.9621 157.024 43.6797 155.484 43.466 153.942C44.534 155.07 45.7797 156.011 47.1535 156.73C48.4514 157.35 51.4101 159.036 52.4979 157.396C53.8817 155.348 51.743 151.517 50.3791 150.113C49.3906 149.152 48.2178 148.404 46.9312 147.914C45.6445 147.424 44.2706 147.201 42.8918 147.259C42.7596 142.829 43.0924 138.392 43.8847 134.024C44.5673 135.348 45.4596 136.549 46.5269 137.581C47.6393 138.66 49.3651 140.444 50.6709 138.702C51.2765 137.615 51.6212 136.402 51.6776 135.161C51.7339 133.92 51.5003 132.685 50.9954 131.557C49.9599 129.204 48.0772 127.338 45.7238 126.333C46.9769 122.147 48.5422 118.059 50.4064 114.105C50.3823 115.533 50.6469 116.948 51.1842 118.265C51.7215 119.582 52.5201 120.773 53.5317 121.765C53.6755 121.863 53.8429 121.92 54.0166 121.93C54.1903 121.941 54.3641 121.905 54.52 121.826C55.6736 121.157 56.641 120.205 57.3305 119.058C58.0199 117.912 58.4087 116.609 58.4599 115.275C58.5342 113.692 58.2679 112.114 57.6791 110.65C57.0904 109.186 56.193 107.87 55.0487 106.792C54.9037 106.639 54.7071 106.545 54.4964 106.529C57.2257 101.662 60.3272 96.9387 63.5801 92.2533C63.2165 93.7232 63.2264 95.2586 63.609 96.7173C63.9915 98.1759 64.7344 99.5106 65.7687 100.598C65.9403 100.787 66.1774 100.903 66.4321 100.923C66.6868 100.943 66.9404 100.865 67.1418 100.705C68.0562 99.9442 68.796 98.9929 69.3092 97.9174C69.8224 96.842 70.0965 95.6686 70.1124 94.4793C69.6853 91.9968 68.4526 89.7333 66.6067 88.0425C69.5399 84.0271 72.5426 80.0792 75.6559 76.184C75.4258 78.8892 76.2506 81.5693 77.9555 83.6561C78.099 83.8204 78.2932 83.9314 78.5074 83.9715C78.7216 84.0117 78.9435 83.9787 79.1381 83.8777C80.0001 83.2508 80.7275 82.4546 81.2758 81.5377C81.8241 80.6208 82.1818 79.6024 82.3271 78.5449C82.4533 77.2254 82.2884 75.8965 81.8441 74.6535C81.3997 73.4105 80.6871 72.2842 79.7571 71.3551L79.4809 71.2233C83.0633 66.5581 86.5915 61.9354 89.8997 57.2764C89.853 58.9647 90.2201 60.6351 90.9685 62.14C91.7168 63.6448 92.8235 64.9376 94.1906 65.9043C94.3712 66.0196 94.584 66.0738 94.7983 66.059C95.0126 66.0442 95.2172 65.9612 95.3826 65.822C96.1011 64.9269 96.6206 63.8879 96.9055 62.7758C97.1904 61.6637 97.2341 60.5048 97.0336 59.3783C96.8187 58.0885 96.3342 56.8616 95.6121 55.7785C94.89 54.6954 93.9466 53.7809 92.8443 53.0951L92.5957 52.9764C95.716 48.4511 98.5804 43.7534 101.175 38.9058C101.721 37.7612 100.155 36.637 99.5683 37.7963L99.4322 37.8686Z" fill="#92D660"/>
<path fill-rule="evenodd" clip-rule="evenodd" d="M69.8747 -12.5333C68.2664 -9.81385 66.8031 -7.01154 65.491 -4.13825C65.6121 -4.17576 65.7414 -4.17543 65.8615 -4.13735C66.6671 -3.88526 67.402 -3.44898 68.0086 -2.86257C68.6153 -2.27617 69.0774 -1.55553 69.3589 -0.756891C69.6699 0.197907 70.0082 2.40642 68.9788 3.14208C67.9494 3.87774 66.2209 2.05723 65.5498 1.35124C64.8945 0.684227 64.4048 -0.128814 64.1199 -1.02316C62.9006 1.79452 61.7475 4.67771 60.5793 7.68342C60.6665 7.65596 60.7571 7.64115 60.8483 7.63952C61.6056 7.67223 62.3464 7.86223 63.024 8.19752C63.7015 8.5328 64.3012 9.00613 64.7851 9.58764C65.4716 10.4362 66.5866 12.6919 65.7456 13.772C64.9045 14.8521 62.8468 13.5657 62.0034 13.0554C60.9267 12.4341 60.0655 11.4986 59.5325 10.3716C58.3693 13.3365 57.2213 16.3114 55.921 19.1861C55.9792 19.2066 56.0315 19.241 56.0734 19.2863C56.8516 19.6189 57.5344 20.1394 58.0621 20.8018C58.5897 21.4642 58.9459 22.2483 59.0992 23.0851C59.3799 24.0861 59.9001 25.8185 58.469 26.0694C57.7801 26.0622 57.1032 25.8999 56.4878 25.5947C55.8725 25.2894 55.3344 24.8489 54.9132 24.3055C54.625 23.9682 54.3884 23.5896 54.211 23.1819C52.9158 26.082 51.5544 28.9166 50.0508 31.6356C50.9553 32.7538 51.4834 34.1331 51.5602 35.5779C51.637 37.0228 51.2586 38.4597 50.4787 39.685C50.4128 39.7658 50.3269 39.8279 50.2298 39.8648C50.1326 39.9017 50.0277 39.9122 49.9257 39.8952C49.0972 39.6938 48.3783 39.1845 47.9131 38.4694C47.4479 37.7543 47.2709 36.8863 47.4176 36.0396C45.8889 38.4388 44.1691 40.7106 42.2752 42.8324C42.3246 42.8427 42.3681 42.8713 42.3971 42.9126C43.0877 44.0989 43.4167 45.4653 43.3439 46.8442C43.2711 48.2231 42.7996 49.5547 41.9871 50.676C41.9177 50.7703 41.8229 50.8427 41.7141 50.8846C41.6052 50.9266 41.4868 50.9362 41.3733 50.9123C40.7364 50.7295 40.1743 50.3506 39.7658 49.8288C39.3573 49.307 39.1227 48.6683 39.0949 48.0022C39.0098 47.3558 38.9935 46.7015 39.0464 46.0503C36.9205 47.9752 34.5865 49.6539 32.0892 51.0544C32.2359 52.3774 32.0063 53.7188 31.4269 54.9234C30.8474 56.1281 29.9418 57.1468 28.8149 57.8616C28.6956 57.9413 28.5551 57.9824 28.4126 57.9795C28.27 57.9766 28.1322 57.9297 28.0179 57.8452C27.4999 57.4113 27.1349 56.8215 26.976 56.1613C26.8171 55.5012 26.8726 54.8052 27.1344 54.1748C27.2203 53.8781 27.3315 53.5761 27.4427 53.274C26.9405 53.4735 26.423 53.663 25.9156 53.837C25.323 55.7432 24.2784 57.4803 22.8722 58.8982C21.9851 59.7495 20.002 60.9395 19.4157 59.1417C19.3159 58.4844 19.358 57.8118 19.5392 57.1695C19.7204 56.5272 20.0365 55.9301 20.4661 55.4185C21.0301 54.6517 21.7585 54.0213 22.5965 53.5747C23.4346 53.1281 24.3606 52.8768 25.305 52.8397C26.2081 52.5286 27.0807 52.1975 27.933 51.8309C27.0285 51.6339 26.1638 51.289 25.3731 50.8101C24.6567 50.3391 22.8836 49.3501 23.3846 48.2891C24.002 46.9516 26.6161 46.8605 27.7536 47.1227C28.5485 47.3306 29.2918 47.6982 29.9389 48.2032C30.586 48.7082 31.1236 49.3404 31.5192 50.0617C33.8202 48.762 35.9805 47.2234 37.9643 45.4714C37.0786 45.5316 36.1905 45.447 35.3345 45.2211C34.4408 44.9867 32.9987 44.6565 33.4842 43.453C33.8519 42.8087 34.3641 42.2587 34.9798 41.847C35.5955 41.4353 36.2974 41.1735 37.029 41.0828C38.5488 40.885 40.0812 41.2698 41.3199 42.1603C43.069 40.2292 44.6712 38.1694 46.113 35.9984C45.392 36.4513 44.5883 36.7531 43.7507 36.8854C42.9132 37.0177 42.0593 36.9777 41.241 36.7679C41.1469 36.7246 41.0661 36.6568 41.0071 36.5715C40.9481 36.4861 40.9129 36.3863 40.9052 36.2823C40.8903 35.4876 41.0778 34.7002 41.4499 33.9947C41.8219 33.2893 42.3663 32.6891 43.0314 32.2512C43.8159 31.7248 44.7028 31.3739 45.6313 31.2225C46.5598 31.0711 47.508 31.1228 48.4108 31.374C48.5339 31.4006 48.6424 31.4719 48.7156 31.5744C50.3561 28.6805 51.8085 25.641 53.1949 22.5359C52.5573 23.175 51.771 23.6437 50.9089 23.8986C50.0467 24.1535 49.1367 24.1864 48.263 23.9943C48.1135 23.9651 47.981 23.8801 47.8923 23.7563C47.8036 23.6324 47.7652 23.479 47.7848 23.3268C47.8906 22.6257 48.1476 21.9548 48.5378 21.3612C48.928 20.7676 49.442 20.2656 50.0438 19.8906C51.4419 19.3424 52.9769 19.2729 54.409 19.6928C55.5522 16.9575 56.6396 14.2077 57.6659 11.4177C56.357 12.3698 54.7353 12.776 53.1448 12.5502C53.0167 12.5277 52.9001 12.4628 52.8136 12.366C52.727 12.2691 52.6754 12.1458 52.6668 12.0153C52.7206 11.3822 52.9024 10.7655 53.2009 10.2028C53.4995 9.64022 53.9086 9.14351 54.4032 8.74313C55.0373 8.27158 55.7661 7.94568 56.5373 7.78879C57.3084 7.6319 58.1029 7.64791 58.8637 7.83564L59.0162 7.93585C60.2906 4.66895 61.56 1.44284 62.9159 -1.68226C62.069 -1.13753 61.1037 -0.809336 60.1051 -0.726775C59.1066 -0.644214 58.1056 -0.809825 57.1907 -1.20889C57.0762 -1.26545 56.9829 -1.3573 56.9243 -1.47118C56.8657 -1.58505 56.8449 -1.71505 56.8649 -1.84237C57.0998 -2.48508 57.4695 -3.07064 57.9489 -3.55913C58.4282 -4.04761 59.0059 -4.4275 59.6425 -4.67278C60.3667 -4.96115 61.1421 -5.0926 61.9174 -5.05842C62.6927 -5.02424 63.4503 -4.82522 64.1402 -4.47452L64.2775 -4.3843C65.6231 -7.37234 67.1356 -10.283 68.8079 -13.1022C69.2232 -13.734 70.2797 -13.2822 69.8695 -12.625L69.8747 -12.5333Z" fill="#92D660"/>
<circle cx="6" cy="22" r="3" fill="#92D660"/>
</g>
<defs>
<clipPath id="clip0_408_4854">
<rect width="93" height="180" fill="white"/>
</clipPath>
</defs>
</svg>
