<svg viewBox="0 0 72 196" fill="none" xmlns="http://www.w3.org/2000/svg">
<path fill-rule="evenodd" clip-rule="evenodd" d="M58.5729 64.0934C58.9268 62.2175 58.6201 60.277 57.705 58.6017C56.8018 57.1992 55.0343 56.4462 53.8506 57.7106C53.0963 56.1316 51.1857 56.3264 50.0944 57.315C48.6485 58.6288 47.7007 60.4017 47.4114 62.3338C47.1325 64.3067 47.0721 66.3045 47.2314 68.2907C47.438 71.5598 47.8429 74.716 48.2902 77.9005C46.8094 75.0748 45.0481 72.4052 43.033 69.932C39.2913 65.1569 34.1566 60.0328 29.7229 54.5491C31.4 50.2078 33.2468 45.98 34.4786 41.4328C35.0586 39.7845 35.4229 38.0683 35.5628 36.3265C35.7347 34.6642 35.3386 32.9926 34.4389 31.5842C33.5564 30.4719 31.9726 29.9032 30.9942 31.0901C30.2536 29.7658 28.5833 30.0601 27.5345 31.0771C26.4253 32.3155 25.7778 33.8989 25.7014 35.5596C25.5917 37.2998 25.679 39.0467 25.9613 40.7673C26.5413 44.9921 27.5957 49.0127 28.4023 53.0822C22.7478 45.7073 18.644 37.6205 21.0151 28.8019C24.1579 23.8759 27.5407 19.2334 30.3655 14.0027C31.3673 12.289 32.1658 10.4645 32.7451 8.56595C33.323 6.76098 33.274 4.81368 32.606 3.04006C31.8727 1.56718 30.2401 0.566749 28.9152 1.67527C28.3662 0.018746 26.4488 -0.00572755 25.0678 0.819689C23.5651 1.97636 22.4896 3.59975 22.0104 5.43449C21.4717 7.32943 21.1549 9.28056 21.0665 11.2486C20.7181 16.3562 20.929 21.3162 20.9982 26.3043C19.4481 30.4079 19.1813 34.8857 20.2333 39.1443C18.3086 35.186 16.4547 31.2137 14.2115 27.3186C13.3006 25.6684 12.1938 24.1343 10.9151 22.7495C9.7102 21.4056 8.0951 20.4975 6.3208 20.1662C4.75737 20.0716 3.13594 20.7975 3.37347 22.5525C1.79632 22.2031 0.8173 23.758 0.8288 25.3004C1.01804 27.1038 1.81909 28.7881 3.09874 30.0729C4.41966 31.4432 5.89425 32.6565 7.49325 33.6888C11.7755 36.7384 16.5399 39.2512 21.0849 41.7707C23.0587 47.3382 26.0139 52.5071 29.8105 57.0326C32.8606 60.731 36.2082 64.2602 39.329 67.9446C35.7886 65.4834 32.2766 62.9799 28.4597 60.7942C26.8495 59.7992 25.1235 59.005 23.3202 58.4294C21.6199 57.8202 19.7621 57.812 18.0564 58.4062C16.6473 59.09 15.6612 60.6095 16.6566 61.9201C15.0641 62.2357 15.0183 64.2309 15.8013 65.5836C16.8469 67.051 18.3549 68.1249 20.0836 68.6332C21.8839 69.1731 23.7392 69.5085 25.6145 69.6332C30.821 70.1091 35.8658 69.9551 40.9951 70.0417C43.0311 72.6124 44.8107 75.3761 46.3085 78.2933C49.3701 84.8615 49.9334 92.3203 47.8928 99.2738C47.044 94.9919 46.4076 90.6679 45.3185 86.2865C44.8506 84.3383 44.1557 82.4516 43.248 80.6653C42.4088 78.9427 41.0196 77.5487 39.2999 76.7035C37.7514 76.1278 35.8545 76.5774 35.6463 78.3104C34.0841 77.4799 32.6737 78.8996 32.3741 80.3565C32.0999 82.2554 32.4836 84.1909 33.4613 85.8416C34.3924 87.6117 35.5347 89.2624 36.8631 90.7576C40.2521 94.867 43.9745 98.4322 47.6119 102.125C47.2411 103.78 46.7996 105.448 46.3934 107.11C44.92 113.168 44.7524 119.47 45.9018 125.597C44.9163 122.666 43.8955 119.742 42.6553 116.825C41.8997 114.966 40.9442 113.195 39.806 111.542C38.7802 109.96 37.2483 108.773 35.4606 108.174C33.848 107.832 32.0286 108.487 32.1883 110.22C30.5621 109.623 29.3143 111.121 29.0213 112.797C28.9779 114.714 29.5829 116.59 30.7385 118.121C31.9163 119.736 33.2818 121.207 34.8063 122.5C39.0236 126.335 43.5463 129.484 47.8987 132.888C50.2131 139.8 53.1745 146.478 56.7437 152.833C57.9354 155.135 59.1696 157.465 60.3683 159.802C57.953 157.265 55.5022 154.735 52.8248 152.36C51.1879 150.977 49.3863 149.803 47.4609 148.863C45.8091 147.89 43.8804 147.496 41.9796 147.742C40.3518 148.065 39.0262 149.541 39.7735 151.085C38.0398 151.245 37.5696 153.14 38.0976 154.69C38.8696 156.452 40.22 157.897 41.9252 158.787C43.6808 159.755 45.5467 160.509 47.4824 161.032C52.3688 162.491 57.2208 163.405 62.1008 164.46C67.0846 175.131 70.6241 186.308 68.0923 198.028C67.9467 198.127 67.845 198.279 67.8086 198.452C67.4738 199.732 67.1815 201.04 66.8822 202.313C66.8515 202.565 66.9105 202.82 67.0488 203.033C67.187 203.246 67.3958 203.403 67.6385 203.478C67.8812 203.553 68.1425 203.54 68.3765 203.441C68.6106 203.343 68.8025 203.165 68.9188 202.939C74.4595 190.072 69.9704 175.588 64.2814 163.586C62.2792 159.423 60.0648 155.301 57.8433 151.144C59.4363 146.379 61.1281 141.74 62.3465 136.754C62.8693 134.836 63.1694 132.864 63.241 130.876C63.3432 128.965 62.787 127.076 61.6653 125.525C60.6062 124.264 58.7747 123.744 57.7252 125.129C56.7796 123.698 54.918 124.141 53.7911 125.32C52.5903 126.806 51.9442 128.664 51.9637 130.574C51.9248 132.562 52.1209 134.548 52.5478 136.49C53.123 139.392 53.6842 142.223 54.5992 144.983C49.5546 136.195 46.8506 126.258 46.7459 116.125C50.9191 112.686 55.1273 109.425 59.1101 105.583C60.5879 104.265 61.8974 102.77 63.009 101.132C64.0967 99.5588 64.6278 97.6673 64.5182 95.7577C64.2026 94.1652 62.9952 92.7128 61.3951 93.3609C61.3415 91.6062 59.5313 91.0088 57.9175 91.4022C56.1236 92.0429 54.6033 93.2788 53.6098 94.9041C52.5337 96.5763 51.6546 98.3672 50.9899 100.241C49.4619 104.222 48.2879 108.132 47.1559 112.255C47.2777 111.385 47.4278 110.473 47.6203 109.589C49.0756 102.644 51.8819 95.8351 51.3283 88.5892C51.1556 86.8865 50.8221 85.204 50.3323 83.5642C52.5263 79.0469 54.8121 74.6218 56.6952 69.8352C57.5414 68.0005 58.1715 66.0736 58.5729 64.0934V64.0934Z" fill="#265113"/>
</svg>
